<svg xmlns="http://www.w3.org/2000/svg" xmlns:xlink="http://www.w3.org/1999/xlink" contentStyleType="text/css" data-diagram-type="DESCRIPTION" height="1022px" preserveAspectRatio="none" style="width:2185px;height:1022px;background:#FEFEFE;" version="1.1" viewBox="0 0 2185 1022" width="2185px" zoomAndPan="magnify"><?plantuml 1.2026.6?><defs/><g><rect fill="#FEFEFE" height="1022" style="stroke:none;stroke-width:1;" width="2185" x="0" y="0"/><g class="title" data-source-line="32"><text fill="#000000" font-family="Arial" font-size="14" font-weight="700" lengthAdjust="spacing" textLength="234.1787" x="972.2837" y="23.1318">Squatm3gator System Architecture</text></g><!--cluster External Systems--><g class="cluster" data-qualified-name="External Systems" data-source-line="34" id="ent0001"><path d="M1408.5,348.4586 L1509.5547,348.4586 A3.75,3.75 0 0 1 1512.0547,350.9586 L1519.0547,368.2575 L1958.5,368.2575 A2.5,2.5 0 0 1 1961,370.7575 L1961,537.9586 A2.5,2.5 0 0 1 1958.5,540.4586 L1408.5,540.4586 A2.5,2.5 0 0 1 1406,537.9586 L1406,350.9586 A2.5,2.5 0 0 1 1408.5,348.4586" fill="none" style="stroke:#000000;stroke-width:1.5;"/><line style="stroke:#000000;stroke-width:1.5;" x1="1406" x2="1519.0547" y1="368.2575" y2="368.2575"/><text fill="#000000" font-family="Arial" font-size="12" font-weight="700" lengthAdjust="spacing" textLength="100.0547" x="1410" y="361.7145">External Systems</text></g><!--cluster Redis--><g class="cluster" data-qualified-name="External Systems.Redis" data-source-line="37" id="ent0004"><path d="M1662,398.4586 C1662,388.4586 1799.5,388.4586 1799.5,388.4586 C1799.5,388.4586 1937,388.4586 1937,398.4586 L1937,506.4586 C1937,516.4586 1799.5,516.4586 1799.5,516.4586 C1799.5,516.4586 1662,516.4586 1662,506.4586 L1662,398.4586" fill="#FFE6E6" style="stroke:#CC0000;stroke-width:1;"/><path d="M1662,398.4586 C1662,408.4586 1799.5,408.4586 1799.5,408.4586 C1799.5,408.4586 1937,408.4586 1937,398.4586" fill="none" style="stroke:#CC0000;stroke-width:1;"/><text fill="#660000" font-family="Arial" font-size="12" font-weight="700" lengthAdjust="spacing" textLength="32.6777" x="1783.1611" y="421.7145">Redis</text></g><!--cluster squatm3gator API Server--><g class="cluster" data-qualified-name="squatm3gator API Server" data-source-line="43" id="ent0007"><polygon fill="#FFF0E6" points="16,53.0986,26,43.0986,1382,43.0986,1382,987.3186,1372,997.3186,16,997.3186,16,53.0986" style="stroke:#CC6600;stroke-width:1;stroke-linejoin:miter;stroke-miterlimit:10;"/><line style="stroke:#CC6600;stroke-width:1;" x1="1372" x2="1382" y1="53.0986" y2="43.0986"/><line style="stroke:#CC6600;stroke-width:1;" x1="16" x2="1372" y1="53.0986" y2="53.0986"/><line style="stroke:#CC6600;stroke-width:1;" x1="1372" x2="1372" y1="53.0986" y2="997.3186"/><text fill="#663300" font-family="Arial" font-size="12" font-weight="700" lengthAdjust="spacing" textLength="143.3848" x="623.3076" y="67.3545">squatm3gator API Server</text></g><!--cluster WebServer--><g class="cluster" data-qualified-name="squatm3gator API Server.WebServer" data-source-line="44" id="ent0008"><rect fill="#E6F3FF" height="116" rx="2.5" ry="2.5" style="stroke:#0066CC;stroke-width:1;" width="161" x="244" y="409.4586"/><text fill="#003366" font-family="Arial" font-size="12" font-weight="700" lengthAdjust="spacing" textLength="66.0293" x="291.4854" y="422.7145">Web Server</text></g><!--cluster RequestHandler--><g class="cluster" data-qualified-name="squatm3gator API Server.RequestHandler" data-source-line="51" id="ent0012"><rect fill="#E6F3FF" height="282.86" rx="2.5" ry="2.5" style="stroke:#0066CC;stroke-width:1;" width="543" x="706" y="595.4586"/><text fill="#003366" font-family="Arial" font-size="12" font-weight="700" lengthAdjust="spacing" textLength="95.3555" x="929.8223" y="608.7145">Request Handler</text></g><!--cluster Consumer--><g class="cluster" data-qualified-name="squatm3gator API Server.Consumer" data-source-line="57" id="ent0016"><rect fill="#E6F3FF" height="192.36" rx="2.5" ry="2.5" style="stroke:#0066CC;stroke-width:1;" width="274" x="1042" y="101.0986"/><text fill="#003366" font-family="Arial" font-size="12" font-weight="700" lengthAdjust="spacing" textLength="132.6855" x="1112.6572" y="114.3545">Background Consumer</text></g><!--entity Browser--><g class="entity" data-qualified-name="External Systems.Browser" data-source-line="35" id="ent0002"><rect fill="#E6F3FF" height="33.7988" rx="2.5" ry="2.5" style="stroke:#0066CC;stroke-width:0.5;" width="92.0176" x="1551" y="466.4586"/><text fill="#003366" font-family="Arial" font-size="12" lengthAdjust="spacing" textLength="72.0176" x="1561" y="487.7145">Web Browser</text></g><!--entity GoDaddy--><g class="entity" data-qualified-name="External Systems.GoDaddy" data-source-line="36" id="ent0003"><rect fill="#E6F3FF" height="33.7988" rx="2.5" ry="2.5" style="stroke:#0066CC;stroke-width:0.5;" width="93.3711" x="1422.5" y="466.4586"/><text fill="#003366" font-family="Arial" font-size="12" lengthAdjust="spacing" textLength="73.3711" x="1432.5" y="487.7145">GoDaddy API</text></g><!--entity JobChannel--><g class="entity" data-qualified-name="External Systems.Redis.JobChannel" data-source-line="38" id="ent0005"><rect fill="#E6F3FF" height="33.7988" rx="2.5" ry="2.5" style="stroke:#0066CC;stroke-width:0.5;" width="87.3828" x="1833.5" y="466.4586"/><text fill="#003366" font-family="Arial" font-size="12" lengthAdjust="spacing" textLength="67.3828" x="1843.5" y="487.7145">Job Channel</text></g><!--entity ReportChannel--><g class="entity" data-qualified-name="External Systems.Redis.ReportChannel" data-source-line="39" id="ent0006"><rect fill="#E6F3FF" height="33.7988" rx="2.5" ry="2.5" style="stroke:#0066CC;stroke-width:0.5;" width="120.0664" x="1678" y="466.4586"/><text fill="#003366" font-family="Arial" font-size="12" lengthAdjust="spacing" textLength="100.0664" x="1688" y="487.7145">Reporting Channel</text></g><!--entity SessionManager--><g class="entity" data-qualified-name="squatm3gator API Server.SessionManager" data-source-line="49" id="ent0011"><rect fill="#E6F3FF" height="33.7988" rx="2.5" ry="2.5" style="stroke:#0066CC;stroke-width:0.5;" width="113.3867" x="377.5" y="947.3186"/><text fill="#003366" font-family="Arial" font-size="12" lengthAdjust="spacing" textLength="93.3867" x="387.5" y="968.5745">Session Manager</text></g><!--entity Squatm3Wrapper--><g class="entity" data-qualified-name="squatm3gator API Server.Squatm3Wrapper" data-source-line="62" id="ent0019"><rect fill="#E6F3FF" height="33.7988" rx="2.5" ry="2.5" style="stroke:#0066CC;stroke-width:0.5;" width="156.0723" x="32" y="466.4586"/><text fill="#003366" font-family="Arial" font-size="12" lengthAdjust="spacing" textLength="136.0723" x="42" y="487.7145">squatm3 Engine Wrapper</text></g><!--entity HTTP--><g class="entity" data-qualified-name="squatm3gator API Server.WebServer.HTTP" data-source-line="45" id="ent0009"><ellipse cx="380" cy="483.4586" fill="#F0F0F0" rx="8" ry="8" style="stroke:#666666;stroke-width:0.5;"/><text fill="#333333" font-family="Arial" font-size="12" lengthAdjust="spacing" textLength="54.0059" x="352.9971" y="511.7145">HTTP API</text></g><!--entity WS--><g class="entity" data-qualified-name="squatm3gator API Server.WebServer.WS" data-source-line="46" id="ent0010"><ellipse cx="298" cy="483.4586" fill="#F0F0F0" rx="8" ry="8" style="stroke:#666666;stroke-width:0.5;"/><text fill="#333333" font-family="Arial" font-size="12" lengthAdjust="spacing" textLength="61.3594" x="267.3203" y="511.7145">WebSocket</text></g><!--entity AttackParser--><g class="entity" data-qualified-name="squatm3gator API Server.RequestHandler.AttackParser" data-source-line="52" id="ent0013"><rect fill="#E6F3FF" height="33.7988" rx="2.5" ry="2.5" style="stroke:#0066CC;stroke-width:0.5;" width="92.0234" x="813" y="711.3186"/><text fill="#003366" font-family="Arial" font-size="12" lengthAdjust="spacing" textLength="72.0234" x="823" y="732.5745">Attack Parser</text></g><!--entity JobCreator--><g class="entity" data-qualified-name="squatm3gator API Server.RequestHandler.JobCreator" data-source-line="53" id="ent0014"><rect fill="#E6F3FF" height="33.7988" rx="2.5" ry="2.5" style="stroke:#0066CC;stroke-width:0.5;" width="82.6953" x="817.5" y="820.3186"/><text fill="#003366" font-family="Arial" font-size="12" lengthAdjust="spacing" textLength="62.6953" x="827.5" y="841.5745">Job Creator</text></g><!--entity ErrorHandler--><g class="entity" data-qualified-name="squatm3gator API Server.RequestHandler.ErrorHandler" data-source-line="54" id="ent0015"><rect fill="#E6F3FF" height="33.7988" rx="2.5" ry="2.5" style="stroke:#0066CC;stroke-width:0.5;" width="92.0234" x="940" y="711.3186"/><text fill="#003366" font-family="Arial" font-size="12" lengthAdjust="spacing" textLength="72.0234" x="950" y="732.5745">Error Handler</text></g><!--entity JobProcessor--><g class="entity" data-qualified-name="squatm3gator API Server.Consumer.JobProcessor" data-source-line="58" id="ent0017"><rect fill="#E6F3FF" height="33.7988" rx="2.5" ry="2.5" style="stroke:#0066CC;stroke-width:0.5;" width="96.6992" x="1066.5" y="235.4586"/><text fill="#003366" font-family="Arial" font-size="12" lengthAdjust="spacing" textLength="76.6992" x="1076.5" y="256.7145">Job Processor</text></g><!--entity ResultRouter--><g class="entity" data-qualified-name="squatm3gator API Server.Consumer.ResultRouter" data-source-line="59" id="ent0018"><rect fill="#E6F3FF" height="33.7988" rx="2.5" ry="2.5" style="stroke:#0066CC;stroke-width:0.5;" width="93.3652" x="1198.5" y="235.4586"/><text fill="#003366" font-family="Arial" font-size="12" lengthAdjust="spacing" textLength="73.3652" x="1208.5" y="256.7145">Result Router</text></g><g class="entity" data-qualified-name="GMN39" data-source-line="90" id="ent0040"><path d="M1398.5,122.4586 L1398.5,160.0563 L1577.6035,160.0563 L1577.6035,132.4586 L1567.6035,122.4586 L1398.5,122.4586" fill="#FEFFDD" style="stroke:#181818;stroke-width:0.5;"/><path d="M1567.6035,122.4586 L1567.6035,132.4586 L1577.6035,132.4586 L1567.6035,122.4586" fill="#FEFFDD" style="stroke:#181818;stroke-width:1;"/><text fill="#000000" font-family="Arial" font-size="12" lengthAdjust="spacing" textLength="158.1035" x="1404.5" y="138.7145">Started as background thread</text><text fill="#000000" font-family="Arial" font-size="12" lengthAdjust="spacing" textLength="146.0508" x="1404.5" y="152.5133">on service startup (FR-002)</text></g><g class="entity" data-qualified-name="GMN42" data-source-line="95" id="ent0043"><path d="M1977,464.4586 L1977,502.0563 L2170.7461,502.0563 L2170.7461,474.4586 L2160.7461,464.4586 L1977,464.4586" fill="#FEFFDD" style="stroke:#181818;stroke-width:0.5;"/><path d="M2160.7461,464.4586 L2160.7461,474.4586 L2170.7461,474.4586 L2160.7461,464.4586" fill="#FEFFDD" style="stroke:#181818;stroke-width:1;"/><text fill="#000000" font-family="Arial" font-size="12" lengthAdjust="spacing" textLength="152.0918" x="1983" y="480.7145">Invokes squatm3 CLI engine</text><text fill="#000000" font-family="Arial" font-size="12" lengthAdjust="spacing" textLength="172.7461" x="1983" y="494.5133">with constructed options (C-004)</text></g><!--link Browser to HTTP--><g class="link" data-entity-1="ent0002" data-entity-2="ent0009" data-link-type="dependency" data-source-line="65" id="lnk20"><path d="M1594.13,466.0286 C1588.34,437.2786 1572.31,380.6686 1533,356.4586 C1484.94,326.8586 1462.34,352.9886 1406,356.4586 C981.43,382.6386 468.5488,468.348 394.0288,481.058" fill="none" id="Browser-to-HTTP" style="stroke:#181818;stroke-width:1;"/><polygon fill="#181818" points="389.1,481.8986,398.6444,484.3285,394.0288,481.058,397.2994,476.4424,389.1,481.8986" style="stroke:#181818;stroke-width:1;stroke-linejoin:miter;stroke-miterlimit:10;"/><text fill="#000000" font-family="Arial" font-size="12" lengthAdjust="spacing" textLength="96.0176" x="425" y="329.7145">1. GET / (FR-001)</text></g><!--link Browser to HTTP--><g class="link" data-entity-1="ent0002" data-entity-2="ent0009" data-link-type="dependency" data-source-line="66" id="lnk21"><path d="M1594.13,466.0286 C1588.34,437.2786 1572.31,380.6686 1533,356.4586 C1484.94,326.8586 1462.34,352.9886 1406,356.4586 C981.43,382.6386 468.5488,468.348 394.0288,481.058" fill="none" id="Browser-to-HTTP-1" style="stroke:#181818;stroke-width:1;"/><polygon fill="#181818" points="389.1,481.8986,398.6444,484.3285,394.0288,481.058,397.2994,476.4424,389.1,481.8986" style="stroke:#181818;stroke-width:1;stroke-linejoin:miter;stroke-miterlimit:10;"/><text fill="#000000" font-family="Arial" font-size="12" lengthAdjust="spacing" textLength="231.416" x="357.5" y="329.7145">2. API Requests (FR-003, FR-004, FR-006)</text></g><!--link Browser to WS--><g class="link" data-entity-1="ent0002" data-entity-2="ent0010" data-link-type="dependency" data-source-line="67" id="lnk22"><path d="M1593.1429,461.127 C1587.3529,432.377 1572.31,380.6686 1533,356.4586 C1477.18,322.0786 407.8,320.4786 353,356.4586 C311.43,383.7586 301.6149,444.9732 299.1949,469.3032" fill="none" id="Browser-WS" style="stroke:#181818;stroke-width:1;"/><polygon fill="#181818" points="1594.13,466.0286,1596.2744,456.4161,1593.1429,461.127,1588.4319,457.9955,1594.13,466.0286" style="stroke:#181818;stroke-width:1;stroke-linejoin:miter;stroke-miterlimit:10;"/><polygon fill="#181818" points="298.7,474.2786,303.5712,465.7187,299.1949,469.3032,295.6104,464.9269,298.7,474.2786" style="stroke:#181818;stroke-width:1;stroke-linejoin:miter;stroke-miterlimit:10;"/><text fill="#000000" font-family="Arial" font-size="12" lengthAdjust="spacing" textLength="145.3887" x="766.5" y="329.7145">3. Async Updates (FR-005)</text></g><!--link HTTP to SessionManager--><g class="link" data-entity-1="ent0009" data-entity-2="ent0011" data-link-type="dependency" data-source-line="69" id="lnk23"><path d="M385.18,492.5686 C398.69,514.5286 434,577.4086 434,634.8186 C434,634.8186 434,634.8186 434,838.3186 C434,877.3786 434,918.3086 434,942.1386" fill="none" id="HTTP-to-SessionManager" style="stroke:#181818;stroke-width:1;"/><polygon fill="#181818" points="434,947.1386,438,938.1386,434,942.1386,430,938.1386,434,947.1386" style="stroke:#181818;stroke-width:1;stroke-linejoin:miter;stroke-miterlimit:10;"/><text fill="#000000" font-family="Arial" font-size="12" lengthAdjust="spacing" textLength="246.7793" x="435" y="733.0745">Session Creation/Validation (FR-001, DR-001)</text></g><!--link HTTP to RequestHandler--><g class="link" data-entity-1="ent0009" data-entity-2="ent0012" data-link-type="dependency" data-source-line="70" id="lnk24"><path d="M389.04,485.4086 C440.59,491.0186 696.83,521.5786 745,579.4586 C746.9113,581.7549 748.4183,584.3068 749.591,587.0187 C750.1773,588.3747 750.68,589.7706 751.1079,591.1947 C751.3219,591.9067 751.5171,592.6258 751.6947,593.3503 C751.7835,593.7126 751.8679,594.0763 751.9481,594.4411 C751.9881,594.6236 752.0271,594.8063 752.0651,594.9893 C752.084,595.0808 751.1158,590.2707 751.1343,590.3624" fill="none" id="HTTP-to-RequestHandler" style="stroke:#181818;stroke-width:1;"/><polygon fill="#181818" points="752.1212,595.264,754.266,585.6515,751.1343,590.3624,746.4234,587.2306,752.1212,595.264" style="stroke:#181818;stroke-width:1;stroke-linejoin:miter;stroke-miterlimit:10;"/><text fill="#000000" font-family="Arial" font-size="12" lengthAdjust="spacing" textLength="86.0508" x="734" y="568.7145">Route Requests</text></g><!--link RequestHandler to AttackParser--><g class="link" data-entity-1="ent0012" data-entity-2="ent0013" data-link-type="dependency" data-source-line="72" id="lnk25"><path d="M748.96,636.3986 C748.06,638.1386 733.85,666.1686 746,681.3186 C763.95,703.6886 782.51,684.3086 809,695.3186 C818.9,699.4286 824.851,702.6983 833.371,708.4283" fill="none" id="RequestHandler-to-AttackParser" style="stroke:#181818;stroke-width:1;"/><polygon fill="#181818" points="837.52,711.2186,832.2841,702.8768,833.371,708.4283,827.8196,709.5152,837.52,711.2186" style="stroke:#181818;stroke-width:1;stroke-linejoin:miter;stroke-miterlimit:10;"/><text fill="#000000" font-family="Arial" font-size="12" lengthAdjust="spacing" textLength="278.1094" x="747" y="678.5745">Parse attack codes/flags (FR-003, DR-003, DR-004)</text></g><!--link AttackParser to JobCreator--><g class="link" data-entity-1="ent0013" data-entity-2="ent0014" data-link-type="dependency" data-source-line="73" id="lnk26"><path d="M859,745.5686 C859,765.7986 859,795.1286 859,815.2686" fill="none" id="AttackParser-to-JobCreator" style="stroke:#181818;stroke-width:1;"/><polygon fill="#181818" points="859,820.2686,863,811.2686,859,815.2686,855,811.2686,859,820.2686" style="stroke:#181818;stroke-width:1;stroke-linejoin:miter;stroke-miterlimit:10;"/><text fill="#000000" font-family="Arial" font-size="12" lengthAdjust="spacing" textLength="93.3809" x="860" y="787.5745">Construct options</text></g><!--link JobCreator to SessionManager--><g class="link" data-entity-1="ent0014" data-entity-2="ent0011" data-link-type="dependency" data-source-line="74" id="lnk27"><path d="M850.08,854.5086 C842.09,867.4086 829.16,884.8186 813,894.3186 C759.24,925.9286 587.6324,947.5839 495.7224,957.2839" fill="none" id="JobCreator-to-SessionManager" style="stroke:#181818;stroke-width:1;"/><polygon fill="#181818" points="490.75,957.8086,500.1201,960.8419,495.7224,957.2839,499.2805,952.8861,490.75,957.8086" style="stroke:#181818;stroke-width:1;stroke-linejoin:miter;stroke-miterlimit:10;"/><text fill="#000000" font-family="Arial" font-size="12" lengthAdjust="spacing" textLength="192.0703" x="793" y="914.5745">Get session key as Job ID (DR-001)</text></g><!--link JobCreator to JobChannel--><g class="link" data-entity-1="ent0014" data-entity-2="ent0005" data-link-type="dependency" data-source-line="75" id="lnk28"><path d="M900.81,831.4986 C1040.25,813.8686 1498.51,743.4586 1816,548.4586 C1836.27,536.0086 1851.319,519.1375 1862.429,504.6375" fill="none" id="JobCreator-to-JobChannel" style="stroke:#181818;stroke-width:1;"/><polygon fill="#181818" points="1865.47,500.6686,1856.8211,505.3799,1862.429,504.6375,1863.1713,510.2455,1865.47,500.6686" style="stroke:#181818;stroke-width:1;stroke-linejoin:miter;stroke-miterlimit:10;"/><text fill="#000000" font-family="Arial" font-size="12" lengthAdjust="spacing" textLength="126.7207" x="1572" y="678.5745">4. Publish Job (FR-004)</text></g><!--link RequestHandler to ErrorHandler--><g class="link" data-entity-1="ent0012" data-entity-2="ent0015" data-link-type="dependency" data-source-line="76" id="lnk29"><path d="M749.05,636.3186 C753.05,636.4186 1009.17,643.1486 1030,666.3186 C1042.74,680.4986 1030.5717,695.2496 1014.3817,707.9696" fill="none" id="RequestHandler-to-ErrorHandler" style="stroke:#181818;stroke-width:1;"/><polygon fill="#181818" points="1010.45,711.0586,1019.9982,708.6438,1014.3817,707.9696,1015.0558,702.3531,1010.45,711.0586" style="stroke:#181818;stroke-width:1;stroke-linejoin:miter;stroke-miterlimit:10;"/><text fill="#000000" font-family="Arial" font-size="12" lengthAdjust="spacing" textLength="170.7188" x="1036" y="678.5745">Handle errors (FR-007, FR-008)</text></g><!--link Consumer to JobChannel--><g class="link" data-entity-1="ent0016" data-entity-2="ent0005" data-link-type="dependency" data-source-line="78" id="lnk30"><path d="M1316.1575,157.188 C1321.3426,158.479 1326.7948,159.8461 1332.4891,161.2855 C1378.0431,172.8011 1439.0913,188.9511 1502.8625,207.8986 C1630.405,245.7936 1768.84,294.8786 1816,340.4586 C1852.66,375.8886 1867.5333,432.043 1873.2733,461.173" fill="none" id="Consumer-to-JobChannel" style="stroke:#181818;stroke-width:1;"/><polygon fill="#181818" points="1874.24,466.0786,1876.4246,456.4751,1873.2733,461.173,1868.5755,458.0217,1874.24,466.0786" style="stroke:#181818;stroke-width:1;stroke-linejoin:miter;stroke-miterlimit:10;"/><text fill="#000000" font-family="Arial" font-size="12" lengthAdjust="spacing" textLength="142.7227" x="1767" y="257.2145">5. Listen for Jobs (FR-002)</text></g><!--link Consumer to JobProcessor--><g class="link" data-entity-1="ent0016" data-entity-2="ent0017" data-link-type="dependency" data-source-line="79" id="lnk31"><path d="M1254.86,142.5186 C1252,143.8386 1205.81,165.3286 1174,190.4586 C1156.89,203.9786 1143.1223,218.4768 1131.7923,231.4968" fill="none" id="Consumer-to-JobProcessor" style="stroke:#181818;stroke-width:1;"/><polygon fill="#181818" points="1128.51,235.2686,1137.4355,231.1051,1131.7923,231.4968,1131.4006,225.8535,1128.51,235.2686" style="stroke:#181818;stroke-width:1;stroke-linejoin:miter;stroke-miterlimit:10;"/><text fill="#000000" font-family="Arial" font-size="12" lengthAdjust="spacing" textLength="66.0293" x="1175" y="202.7145">Process Job</text></g><!--link JobProcessor to Squatm3Wrapper--><g class="link" data-entity-1="ent0017" data-entity-2="ent0019" data-link-type="dependency" data-source-line="80" id="lnk32"><path d="M1066.49,254.5786 C864.46,259.4886 98.78,280.4986 64,317.4586 C24.16,359.7986 68.9681,429.7228 93.7981,462.2828" fill="none" id="JobProcessor-to-Squatm3Wrapper" style="stroke:#181818;stroke-width:1;"/><polygon fill="#181818" points="96.83,466.2586,94.5532,456.6766,93.7981,462.2828,88.1918,461.5277,96.83,466.2586" style="stroke:#181818;stroke-width:1;stroke-linejoin:miter;stroke-miterlimit:10;"/><text fill="#000000" font-family="Arial" font-size="12" lengthAdjust="spacing" textLength="203.4492" x="65" y="329.7145">6. Execute domain generation (C-004)</text></g><!--link Squatm3Wrapper to GoDaddy--><g class="link" data-entity-1="ent0019" data-entity-2="ent0003" data-link-type="dependency" data-source-line="81" id="lnk33"><path d="M121.49,466.0586 C142,436.7986 188.02,378.7686 244,356.4586 C310.47,329.9686 333.57,352.2086 405,356.4586 C800.32,379.9686 1268.9724,451.4111 1417.3124,475.0711" fill="none" id="Squatm3Wrapper-to-GoDaddy" style="stroke:#181818;stroke-width:1;"/><polygon fill="#181818" points="1422.25,475.8586,1413.9924,470.491,1417.3124,475.0711,1412.7323,478.3911,1422.25,475.8586" style="stroke:#181818;stroke-width:1;stroke-linejoin:miter;stroke-miterlimit:10;"/><text fill="#000000" font-family="Arial" font-size="12" lengthAdjust="spacing" textLength="252.1055" x="919" y="329.7145">7. Optional availability check (DR-005, DR-006)</text></g><!--link Squatm3Wrapper to ReportChannel--><g class="link" data-entity-1="ent0019" data-entity-2="ent0006" data-link-type="dependency" data-source-line="82" id="lnk34"><path d="M121.49,466.0586 C142,436.7986 188.02,378.7686 244,356.4586 C317.8,327.0386 1606.35,314.7986 1674,356.4586 C1713.31,380.6686 1728.3529,432.377 1734.1429,461.127" fill="none" id="Squatm3Wrapper-to-ReportChannel" style="stroke:#181818;stroke-width:1;"/><polygon fill="#181818" points="1735.13,466.0286,1737.2744,456.4161,1734.1429,461.127,1729.4319,457.9955,1735.13,466.0286" style="stroke:#181818;stroke-width:1;stroke-linejoin:miter;stroke-miterlimit:10;"/><text fill="#000000" font-family="Arial" font-size="12" lengthAdjust="spacing" textLength="132.7207" x="285" y="329.7145">8. Send results (DR-002)</text></g><!--link Consumer to ResultRouter--><g class="link" data-entity-1="ent0016" data-entity-2="ent0018" data-link-type="dependency" data-source-line="84" id="lnk35"><path d="M1254.99,142.5386 C1254.76,145.0286 1249.656,200.6895 1246.936,230.3895" fill="none" id="Consumer-to-ResultRouter" style="stroke:#181818;stroke-width:1;"/><polygon fill="#181818" points="1246.48,235.3686,1251.2841,226.7709,1246.936,230.3895,1243.3175,226.0413,1246.48,235.3686" style="stroke:#181818;stroke-width:1;stroke-linejoin:miter;stroke-miterlimit:10;"/><text fill="#000000" font-family="Arial" font-size="12" lengthAdjust="spacing" textLength="103.3887" x="1252" y="202.7145">9. Route messages</text></g><!--link ResultRouter to ReportChannel--><g class="link" data-entity-1="ent0018" data-entity-2="ent0006" data-link-type="dependency" data-source-line="85" id="lnk36"><path d="M1291.66,257.5686 C1390.16,267.0786 1615.13,293.4586 1674,340.4586 C1714.57,372.8486 1729.4118,431.6064 1734.7318,461.4264" fill="none" id="ResultRouter-to-ReportChannel" style="stroke:#181818;stroke-width:1;"/><polygon fill="#181818" points="1735.61,466.3486,1737.9671,456.786,1734.7318,461.4264,1730.0915,458.1911,1735.61,466.3486" style="stroke:#181818;stroke-width:1;stroke-linejoin:miter;stroke-miterlimit:10;"/><text fill="#000000" font-family="Arial" font-size="12" lengthAdjust="spacing" textLength="90.041" x="1658" y="329.7145">Listen for reports</text></g><!--link ResultRouter to SessionManager--><g class="link" data-entity-1="ent0018" data-entity-2="ent0011" data-link-type="dependency" data-source-line="86" id="lnk37"><path d="M1232.28,269.7186 C1220.6,283.2286 1201.97,301.4686 1181,309.4586 C1157.69,318.3386 304.94,305.5886 283,317.4586 C275.95,321.2686 279.49,327.7686 273,332.4586 C262.16,340.2886 252.57,330.1986 244,340.4586 C180.37,416.6786 224,463.6686 224,562.9586 C224,562.9586 224,562.9586 224,838.3186 C224,909.9186 310.3584,940.4029 372.5584,953.5729" fill="none" id="ResultRouter-to-SessionManager" style="stroke:#181818;stroke-width:1;"/><polygon fill="#181818" points="377.45,954.6086,369.4738,948.8311,372.5584,953.5729,367.8166,956.6576,377.45,954.6086" style="stroke:#181818;stroke-width:1;stroke-linejoin:miter;stroke-miterlimit:10;"/><text fill="#000000" font-family="Arial" font-size="12" lengthAdjust="spacing" textLength="202.752" x="225" y="678.5745">Validate session/job match (NFR-002)</text></g><!--link ResultRouter to WS--><g class="link" data-entity-1="ent0018" data-entity-2="ent0010" data-link-type="dependency" data-source-line="87" id="lnk38"><path d="M1236.04,269.5186 C1224.36,288.5986 1201.96,319.4986 1173,332.4586 C1152.21,341.7586 371.73,327.4886 353,340.4586 C306.92,372.3586 299.6786,443.8143 298.4686,469.1443" fill="none" id="ResultRouter-to-WS" style="stroke:#181818;stroke-width:1;"/><polygon fill="#181818" points="298.23,474.1386,302.6549,465.3397,298.4686,469.1443,294.664,464.958,298.23,474.1386" style="stroke:#181818;stroke-width:1;stroke-linejoin:miter;stroke-miterlimit:10;"/><text fill="#000000" font-family="Arial" font-size="12" lengthAdjust="spacing" textLength="152.7188" x="1196" y="329.7145">10. Emit to session (FR-005)</text></g><!--link Consumer to GMN39--><g class="link" data-entity-1="ent0016" data-entity-2="ent0040" data-link-type="association" data-source-line="90" id="lnk41"><path d="M1316.1768,141.4586 C1316.3625,141.4586 1316.5482,141.4586 1316.7339,141.4586 C1317.1053,141.4586 1317.4766,141.4586 1317.848,141.4586 C1320.8191,141.4586 1323.7902,141.4586 1326.7613,141.4586 C1350.53,141.4586 1374.3,141.4586 1398.07,141.4586" fill="none" id="Consumer-GMN39" style="stroke:#181818;stroke-width:1;stroke-dasharray:7,7;"/></g><!--link Squatm3Wrapper to GMN42--><g class="link" data-entity-1="ent0019" data-entity-2="ent0043" data-link-type="association" data-source-line="95" id="lnk44"><path d="M119.26,466.3186 C139.46,431.0786 191.38,351.5486 261.5,324.9586 C304.56,308.6286 1876.44,308.6286 1919.5,324.9586 C1989.03,351.3186 2041.72,428.3886 2063.3,464.4486" fill="none" id="Squatm3Wrapper-GMN42" style="stroke:#181818;stroke-width:1;stroke-dasharray:7,7;"/></g><?plantuml-src VLPBSzis4BxhLspLYpiJoxHbCt6dqnc79XrdN4SZEVKXamD4GX8g4b00q8dQoN_lBWW-H36X3YBsyUthMqY_P7mb98Tv73tTFDuzn93cp9YHsGgvOveLaAfYfoINTc7tEGVDKylaEkSTaoLBjskjIfb5AbSQVarY-dGiC0ehSvieQHzPmU562vOFwnVYNmxd5qCPm7yZmETjFrmS9jCagNHAPrnxUH24OHGvEI4tqkaq34VVEn6aolYFm9Ca2UBm63oAmZ08-k1XE9sYj0l-fUGb_qdgoH1w45nV7wDJGJtqZ5csPEOdwSVXSFf1C9I-atO326cvNh7qnn42-Xn72DtJZp1r3qOOMM6HJuil9RF5TCqiQXTxOtc1x4WtmYBHIir7enq6P6iEu_WRPY9PxitCs6NqwPaluQrMNmtNdu6P-frKT-gMPTaURcRtJkNFg6hQDfxpJ20KQjsRhxBbtFYzMaAqOLBot9dXsH_xbdE-KzeAkJwmhwIjotSgtZ5kRBh5OvAmuFg5wwgm3Z2LMAiG4O_LoIVRZcZyxkbfHaZEZWvz0_9LwPRR2cdX4ZgCjk3622NXBoQnxrL8B_EYdiES8yUDXNTCPhbty38lEkxgZRKuLvWnRRn79Qa4WpFGdFhKpA0wzYrZhR6NtKoSn0i6gctv396IfYoyMtqO9iHCgnHRqgRJ28v9OV1cWxagRTCQabI2WOGyAI2MQxgPdpNRxUefL2el8XvviiFfwPzktF0xZCydS1S_mHcS9FFJ83Z_RJneTZ5nbFE3Cjvw-WhSzwN_3ZlUVv3xyuASf-XizZA5ZpjS9LvxNw7ro0KWqqFIa5jDBJSyV3dxc-KYSwzrjg_Wjiww0UgH2O5SzvhSCMZFXBowX28VzmQi8bwA2sZELZbRTog_xNvVOWO748JP4eyGYIDMbwa5jQCQC96EmN0BxhW5uzkmvNjF7xY_XPEcy1v8U-CGmEK4PkKo5sRZ7AlaATc15dIvJxxLAt0IrtM_zfD-GxDhM7ySzse23m8lNWahp0jrDS05ElRzcdLmZQyE97UrjKhNeWDIatquWVWRJsd2cIgOaB3cacjFayYNs_CZgFg-HupN4_ZWPeA_5-o5YPmjHIxi7j8Dn_5NlRxoemw7uGvkRW9zCy61uaMXtGORZt9nrBZkXfFVzQJQVoYmR2I2eM5rJ0Q3TPgjdMx8wvXVVgDuJRApVv0a1RFf1auUctaT0LLhVHvWwmjXmQg6f9tDbWfnjLXlaF2hveR4wsjXcROy8pAtVmR1Rf346QeH1HVeHU0Fa27BSjTGPqJz9Dm-Uk-k0xYNBsgBDqrzFqOFzy3T7OdAhy9kSAVzEc8cVY5hkhHX_WS0?></g></svg>