<svg xmlns="http://www.w3.org/2000/svg" xmlns:xlink="http://www.w3.org/1999/xlink" contentStyleType="text/css" data-diagram-type="DESCRIPTION" height="1645px" preserveAspectRatio="none" style="width:1997px;height:1645px;background:#FEFEFE;" version="1.1" viewBox="0 0 1997 1645" width="1997px" zoomAndPan="magnify"><?plantuml 1.2026.6?><defs/><g><rect fill="#FEFEFE" height="1645" style="stroke:none;stroke-width:1;" width="1997" x="0" y="0"/><g class="title" data-source-line="33"><text fill="#000000" font-family="Arial" font-size="14" font-weight="700" lengthAdjust="spacing" textLength="178.9375" x="905.7168" y="23.1318">PlugIt System Architecture</text></g><!--cluster External Environment--><g class="cluster" data-qualified-name="External Environment" data-source-line="35" id="ent0001"><rect fill="#FFFFFF" height="82" rx="5" ry="5" style="stroke:#666666;stroke-width:1;" width="361" x="334" y="86.4286"/><text fill="#000000" font-family="Arial" font-size="12" font-weight="700" lengthAdjust="spacing" textLength="124.0313" x="452.4844" y="99.6845">External Environment</text></g><!--cluster PlugIt Proxy Environment--><g class="cluster" data-qualified-name="PlugIt Proxy Environment" data-source-line="40" id="ent0004"><rect fill="#FFFFFF" height="916" rx="5" ry="5" style="stroke:#666666;stroke-width:1;" width="318" x="280" y="215.4286"/><text fill="#000000" font-family="Arial" font-size="12" font-weight="700" lengthAdjust="spacing" textLength="146.6895" x="365.6553" y="228.6845">PlugIt Proxy Environment</text></g><!--cluster Proxy--><g class="cluster" data-qualified-name="PlugIt Proxy Environment.Proxy" data-source-line="41" id="ent0005"><rect fill="#E6F3FF" height="852" rx="2.5" ry="2.5" style="stroke:#0066CC;stroke-width:1;" width="270" x="304" y="255.4286"/><text fill="#003366" font-family="Arial" font-size="12" font-weight="700" lengthAdjust="spacing" textLength="70.0137" x="403.9932" y="268.6845">PlugIt Proxy</text></g><!--cluster MailWorkflow--><g class="cluster" data-qualified-name="PlugIt Proxy Environment.Proxy.MailWorkflow" data-source-line="44" id="ent0008"><rect fill="#E6F3FF" height="518" rx="2.5" ry="2.5" style="stroke:#0066CC;stroke-width:1;" width="222" x="328" y="295.4286"/><text fill="#003366" font-family="Arial" font-size="12" font-weight="700" lengthAdjust="spacing" textLength="148.6758" x="364.6621" y="308.6845">Standalone Mail Workflow</text></g><!--cluster PlugIt Service Environment--><g class="cluster" data-qualified-name="PlugIt Service Environment" data-source-line="56" id="ent0015"><rect fill="#FFFFFF" height="317.5" rx="5" ry="5" style="stroke:#666666;stroke-width:1;" width="1040" x="622" y="969.4286"/><text fill="#000000" font-family="Arial" font-size="12" font-weight="700" lengthAdjust="spacing" textLength="156.041" x="1063.9795" y="982.6845">PlugIt Service Environment</text></g><!--cluster Service1--><g class="cluster" data-qualified-name="PlugIt Service Environment.Service1" data-source-line="57" id="ent0016"><rect fill="#E6F3FF" height="237.5" rx="2.5" ry="2.5" style="stroke:#0066CC;stroke-width:1;" width="164" x="788" y="1017.4286"/><text fill="#003366" font-family="Arial" font-size="12" font-weight="700" lengthAdjust="spacing" textLength="89.373" x="825.3135" y="1030.6845">PlugIt Service 1</text></g><!--cluster Service2--><g class="cluster" data-qualified-name="PlugIt Service Environment.Service2" data-source-line="63" id="ent0020"><rect fill="#E6F3FF" height="237.5" rx="2.5" ry="2.5" style="stroke:#0066CC;stroke-width:1;" width="164" x="1126" y="1017.4286"/><text fill="#003366" font-family="Arial" font-size="12" font-weight="700" lengthAdjust="spacing" textLength="89.373" x="1163.3135" y="1030.6845">PlugIt Service 2</text></g><!--cluster ServiceN--><g class="cluster" data-qualified-name="PlugIt Service Environment.ServiceN" data-source-line="69" id="ent0024"><rect fill="#E6F3FF" height="237.5" rx="2.5" ry="2.5" style="stroke:#0066CC;stroke-width:1;" width="164" x="1466" y="1017.4286"/><text fill="#003366" font-family="Arial" font-size="12" font-weight="700" lengthAdjust="spacing" textLength="91.3652" x="1502.3174" y="1030.6845">PlugIt Service N</text></g><!--cluster Configuration & Management--><g class="cluster" data-qualified-name="Configuration . Management" data-source-line="76" id="ent0028"><rect fill="#FFFFFF" height="297.5" rx="5" ry="5" style="stroke:#666666;stroke-width:1;" width="495" x="7" y="1333.9286"/><text fill="#000000" font-family="Arial" font-size="12" font-weight="700" lengthAdjust="spacing" textLength="167.332" x="170.834" y="1347.1845">Configuration &amp; Management</text></g><!--cluster ServiceConfig--><g class="cluster" data-qualified-name="Configuration . Management.ServiceConfig" data-source-line="77" id="ent0029"><rect fill="#E6F3FF" height="217.5" rx="2.5" ry="2.5" style="stroke:#0066CC;stroke-width:1;" width="191" x="279" y="1381.9286"/><text fill="#003366" font-family="Arial" font-size="12" font-weight="700" lengthAdjust="spacing" textLength="124.6875" x="312.1563" y="1395.1845">Service Configuration</text></g><!--cluster SchemaManager--><g class="cluster" data-qualified-name="Configuration . Management.SchemaManager" data-source-line="81" id="ent0032"><rect fill="#E6F3FF" height="184.86" rx="2.5" ry="2.5" style="stroke:#0066CC;stroke-width:1;" width="200" x="39" y="1414.5686"/><text fill="#003366" font-family="Arial" font-size="12" font-weight="700" lengthAdjust="spacing" textLength="155.4023" x="61.2988" y="1427.8245">Database Schema Manager</text></g><!--entity External--><g class="entity" data-qualified-name="External Environment.External" data-source-line="36" id="ent0002"><rect fill="#E6F3FF" height="33.7988" rx="2.5" ry="2.5" style="stroke:#0066CC;stroke-width:0.5;" width="154.7012" x="523.5" y="118.4286"/><text fill="#003366" font-family="Arial" font-size="12" lengthAdjust="spacing" textLength="134.7012" x="533.5" y="139.6845">External Users / Systems</text></g><!--entity EmailSource--><g class="entity" data-qualified-name="External Environment.EmailSource" data-source-line="37" id="ent0003"><rect fill="#E6F3FF" height="33.7988" rx="2.5" ry="2.5" style="stroke:#0066CC;stroke-width:0.5;" width="138.0723" x="350" y="118.4286"/><text fill="#003366" font-family="Arial" font-size="12" lengthAdjust="spacing" textLength="118.0723" x="360" y="139.6845">Inbound Email Source</text></g><!--entity APIEndpoint--><g class="entity" data-qualified-name="PlugIt Proxy Environment.Proxy.APIEndpoint" data-source-line="42" id="ent0006"><rect fill="#E6F3FF" height="33.7988" rx="2.5" ry="2.5" style="stroke:#0066CC;stroke-width:0.5;" width="124.0566" x="434" y="874.4286"/><text fill="#003366" font-family="Arial" font-size="12" lengthAdjust="spacing" textLength="104.0566" x="444" y="895.6845">Proxy API Endpoint</text></g><!--entity ProxyDataStore--><g class="entity" data-qualified-name="PlugIt Proxy Environment.Proxy.ProxyDataStore" data-source-line="43" id="ent0007"><rect fill="#E6F3FF" height="33.7988" rx="2.5" ry="2.5" style="stroke:#0066CC;stroke-width:0.5;" width="139.3848" x="352.5" y="1057.4286"/><text fill="#003366" font-family="Arial" font-size="12" lengthAdjust="spacing" textLength="119.3848" x="362.5" y="1078.6845">Proxy-Side Data Store</text></g><!--entity MailIntake--><g class="entity" data-qualified-name="PlugIt Proxy Environment.Proxy.MailWorkflow.MailIntake" data-source-line="45" id="ent0009"><rect fill="#E6F3FF" height="33.7988" rx="2.5" ry="2.5" style="stroke:#0066CC;stroke-width:0.5;" width="78.0254" x="380" y="327.4286"/><text fill="#003366" font-family="Arial" font-size="12" lengthAdjust="spacing" textLength="58.0254" x="390" y="348.6845">Mail Intake</text></g><!--entity RoutingValidator--><g class="entity" data-qualified-name="PlugIt Proxy Environment.Proxy.MailWorkflow.RoutingValidator" data-source-line="46" id="ent0010"><rect fill="#E6F3FF" height="33.7988" rx="2.5" ry="2.5" style="stroke:#0066CC;stroke-width:0.5;" width="112.0566" x="362" y="436.4286"/><text fill="#003366" font-family="Arial" font-size="12" lengthAdjust="spacing" textLength="92.0566" x="372" y="457.6845">Routing Validator</text></g><!--entity AutoResponseFilter--><g class="entity" data-qualified-name="PlugIt Proxy Environment.Proxy.MailWorkflow.AutoResponseFilter" data-source-line="47" id="ent0011"><rect fill="#E6F3FF" height="33.7988" rx="2.5" ry="2.5" style="stroke:#0066CC;stroke-width:0.5;" width="132.7168" x="349.5" y="545.4286"/><text fill="#003366" font-family="Arial" font-size="12" lengthAdjust="spacing" textLength="112.7168" x="359.5" y="566.6845">Auto-Response Filter</text></g><!--entity PayloadExtractor--><g class="entity" data-qualified-name="PlugIt Proxy Environment.Proxy.MailWorkflow.PayloadExtractor" data-source-line="48" id="ent0012"><rect fill="#E6F3FF" height="33.7988" rx="2.5" ry="2.5" style="stroke:#0066CC;stroke-width:0.5;" width="141.3828" x="344.5" y="654.4286"/><text fill="#003366" font-family="Arial" font-size="12" lengthAdjust="spacing" textLength="121.3828" x="354.5" y="675.6845">Text Payload Extractor</text></g><!--entity MailHandler--><g class="entity" data-qualified-name="PlugIt Proxy Environment.Proxy.MailWorkflow.MailHandler" data-source-line="49" id="ent0013"><rect fill="#E6F3FF" height="33.7988" rx="2.5" ry="2.5" style="stroke:#0066CC;stroke-width:0.5;" width="87.3594" x="359.5" y="763.4286"/><text fill="#003366" font-family="Arial" font-size="12" lengthAdjust="spacing" textLength="67.3594" x="369.5" y="784.6845">Mail Handler</text></g><!--entity ServiceDB1--><g class="entity" data-qualified-name="PlugIt Service Environment.ServiceDB1" data-source-line="61" id="ent0019"><path d="M638.5,1202.4286 C638.5,1192.4286 700.8623,1192.4286 700.8623,1192.4286 C700.8623,1192.4286 763.2246,1192.4286 763.2246,1202.4286 L763.2246,1225.2275 C763.2246,1235.2275 700.8623,1235.2275 700.8623,1235.2275 C700.8623,1235.2275 638.5,1235.2275 638.5,1225.2275 L638.5,1202.4286" fill="#E6FFE6" style="stroke:#009900;stroke-width:0.5;"/><path d="M638.5,1202.4286 C638.5,1212.4286 700.8623,1212.4286 700.8623,1212.4286 C700.8623,1212.4286 763.2246,1212.4286 763.2246,1202.4286" fill="none" style="stroke:#009900;stroke-width:0.5;"/><text fill="#006600" font-family="Arial" font-size="12" lengthAdjust="spacing" textLength="104.7246" x="648.5" y="1227.6845">Service Database 1</text></g><!--entity ServiceDB2--><g class="entity" data-qualified-name="PlugIt Service Environment.ServiceDB2" data-source-line="67" id="ent0023"><path d="M976.5,1202.4286 C976.5,1192.4286 1038.8623,1192.4286 1038.8623,1192.4286 C1038.8623,1192.4286 1101.2246,1192.4286 1101.2246,1202.4286 L1101.2246,1225.2275 C1101.2246,1235.2275 1038.8623,1235.2275 1038.8623,1235.2275 C1038.8623,1235.2275 976.5,1235.2275 976.5,1225.2275 L976.5,1202.4286" fill="#E6FFE6" style="stroke:#009900;stroke-width:0.5;"/><path d="M976.5,1202.4286 C976.5,1212.4286 1038.8623,1212.4286 1038.8623,1212.4286 C1038.8623,1212.4286 1101.2246,1212.4286 1101.2246,1202.4286" fill="none" style="stroke:#009900;stroke-width:0.5;"/><text fill="#006600" font-family="Arial" font-size="12" lengthAdjust="spacing" textLength="104.7246" x="986.5" y="1227.6845">Service Database 2</text></g><!--entity ServiceDBN--><g class="entity" data-qualified-name="PlugIt Service Environment.ServiceDBN" data-source-line="73" id="ent0027"><path d="M1314.5,1202.4286 C1314.5,1192.4286 1377.8584,1192.4286 1377.8584,1192.4286 C1377.8584,1192.4286 1441.2168,1192.4286 1441.2168,1202.4286 L1441.2168,1225.2275 C1441.2168,1235.2275 1377.8584,1235.2275 1377.8584,1235.2275 C1377.8584,1235.2275 1314.5,1235.2275 1314.5,1225.2275 L1314.5,1202.4286" fill="#E6FFE6" style="stroke:#009900;stroke-width:0.5;"/><path d="M1314.5,1202.4286 C1314.5,1212.4286 1377.8584,1212.4286 1377.8584,1212.4286 C1377.8584,1212.4286 1441.2168,1212.4286 1441.2168,1202.4286" fill="none" style="stroke:#009900;stroke-width:0.5;"/><text fill="#006600" font-family="Arial" font-size="12" lengthAdjust="spacing" textLength="106.7168" x="1324.5" y="1227.6845">Service Database N</text></g><!--entity Logic1--><g class="entity" data-qualified-name="PlugIt Service Environment.Service1.Logic1" data-source-line="58" id="ent0017"><rect fill="#E6F3FF" height="33.7988" rx="2.5" ry="2.5" style="stroke:#0066CC;stroke-width:0.5;" width="92.0352" x="831" y="1057.4286"/><text fill="#003366" font-family="Arial" font-size="12" lengthAdjust="spacing" textLength="72.0352" x="841" y="1078.6845">Service Logic</text></g><!--entity APIClient1--><g class="entity" data-qualified-name="PlugIt Service Environment.Service1.APIClient1" data-source-line="59" id="ent0018"><rect fill="#E6F3FF" height="33.7988" rx="2.5" ry="2.5" style="stroke:#0066CC;stroke-width:0.5;" width="107.375" x="820.5" y="1196.9286"/><text fill="#003366" font-family="Arial" font-size="12" lengthAdjust="spacing" textLength="87.375" x="830.5" y="1218.1845">PlugIt API Client</text></g><!--entity Logic2--><g class="entity" data-qualified-name="PlugIt Service Environment.Service2.Logic2" data-source-line="64" id="ent0021"><rect fill="#E6F3FF" height="33.7988" rx="2.5" ry="2.5" style="stroke:#0066CC;stroke-width:0.5;" width="92.0352" x="1169" y="1057.4286"/><text fill="#003366" font-family="Arial" font-size="12" lengthAdjust="spacing" textLength="72.0352" x="1179" y="1078.6845">Service Logic</text></g><!--entity APIClient2--><g class="entity" data-qualified-name="PlugIt Service Environment.Service2.APIClient2" data-source-line="65" id="ent0022"><rect fill="#E6F3FF" height="33.7988" rx="2.5" ry="2.5" style="stroke:#0066CC;stroke-width:0.5;" width="107.375" x="1158.5" y="1196.9286"/><text fill="#003366" font-family="Arial" font-size="12" lengthAdjust="spacing" textLength="87.375" x="1168.5" y="1218.1845">PlugIt API Client</text></g><!--entity LogicN--><g class="entity" data-qualified-name="PlugIt Service Environment.ServiceN.LogicN" data-source-line="70" id="ent0025"><rect fill="#E6F3FF" height="33.7988" rx="2.5" ry="2.5" style="stroke:#0066CC;stroke-width:0.5;" width="92.0352" x="1509" y="1057.4286"/><text fill="#003366" font-family="Arial" font-size="12" lengthAdjust="spacing" textLength="72.0352" x="1519" y="1078.6845">Service Logic</text></g><!--entity APIClientN--><g class="entity" data-qualified-name="PlugIt Service Environment.ServiceN.APIClientN" data-source-line="71" id="ent0026"><rect fill="#E6F3FF" height="33.7988" rx="2.5" ry="2.5" style="stroke:#0066CC;stroke-width:0.5;" width="107.375" x="1498.5" y="1196.9286"/><text fill="#003366" font-family="Arial" font-size="12" lengthAdjust="spacing" textLength="87.375" x="1508.5" y="1218.1845">PlugIt API Client</text></g><!--entity ProjConfig--><g class="entity" data-qualified-name="Configuration . Management.ServiceConfig.ProjConfig" data-source-line="78" id="ent0030"><path d="M303.5,1424.4286 L303.5,1453.2275 A2.5,2.5 0 0 0 306,1455.7275 L396.3691,1455.7275 A2.5,2.5 0 0 0 398.8691,1453.2275 L398.8691,1431.9286 L388.8691,1421.9286 L306,1421.9286 A2.5,2.5 0 0 0 303.5,1424.4286" fill="#F1F1F1" style="stroke:#181818;stroke-width:0.5;"/><path d="M388.8691,1421.9286 L388.8691,1429.4286 A2.5,2.5 0 0 0 391.3691,1431.9286 L398.8691,1431.9286" fill="#F1F1F1" style="stroke:#181818;stroke-width:0.5;"/><text fill="#000000" font-family="Arial" font-size="12" lengthAdjust="spacing" textLength="75.3691" x="313.5" y="1443.1845">Project Config</text></g><!--entity LocalConfig--><g class="entity" data-qualified-name="Configuration . Management.ServiceConfig.LocalConfig" data-source-line="79" id="ent0031"><path d="M303.5,1543.9286 L303.5,1572.7275 A2.5,2.5 0 0 0 306,1575.2275 L428.3906,1575.2275 A2.5,2.5 0 0 0 430.8906,1572.7275 L430.8906,1551.4286 L420.8906,1541.4286 L306,1541.4286 A2.5,2.5 0 0 0 303.5,1543.9286" fill="#F1F1F1" style="stroke:#181818;stroke-width:0.5;"/><path d="M420.8906,1541.4286 L420.8906,1548.9286 A2.5,2.5 0 0 0 423.3906,1551.4286 L430.8906,1551.4286" fill="#F1F1F1" style="stroke:#181818;stroke-width:0.5;"/><text fill="#000000" font-family="Arial" font-size="12" lengthAdjust="spacing" textLength="107.3906" x="313.5" y="1562.6845">Local/Private Config</text></g><!--entity UpgradeFiles--><g class="entity" data-qualified-name="Configuration . Management.SchemaManager.UpgradeFiles" data-source-line="82" id="ent0033"><path d="M63,1543.9286 L63,1572.7275 A2.5,2.5 0 0 0 65.5,1575.2275 L212.5703,1575.2275 A2.5,2.5 0 0 0 215.0703,1572.7275 L215.0703,1551.4286 L205.0703,1541.4286 L65.5,1541.4286 A2.5,2.5 0 0 0 63,1543.9286" fill="#F1F1F1" style="stroke:#181818;stroke-width:0.5;"/><path d="M205.0703,1541.4286 L205.0703,1548.9286 A2.5,2.5 0 0 0 207.5703,1551.4286 L215.0703,1551.4286" fill="#F1F1F1" style="stroke:#181818;stroke-width:0.5;"/><text fill="#000000" font-family="Arial" font-size="12" lengthAdjust="spacing" textLength="132.0703" x="73" y="1562.6845">Versioned Upgrade Files</text></g><!--entity ProxyDB--><g class="entity" data-qualified-name="ProxyDB" data-source-line="54" id="ent0014"><path d="M179.5,1202.4286 C179.5,1192.4286 232.1885,1192.4286 232.1885,1192.4286 C232.1885,1192.4286 284.877,1192.4286 284.877,1202.4286 L284.877,1225.2275 C284.877,1235.2275 232.1885,1235.2275 232.1885,1235.2275 C232.1885,1235.2275 179.5,1235.2275 179.5,1225.2275 L179.5,1202.4286" fill="#E6FFE6" style="stroke:#009900;stroke-width:0.5;"/><path d="M179.5,1202.4286 C179.5,1212.4286 232.1885,1212.4286 232.1885,1212.4286 C232.1885,1212.4286 284.877,1212.4286 284.877,1202.4286" fill="none" style="stroke:#009900;stroke-width:0.5;"/><text fill="#006600" font-family="Arial" font-size="12" lengthAdjust="spacing" textLength="85.377" x="189.5" y="1227.6845">Proxy Database</text></g><g class="entity" data-qualified-name="GMN63" data-source-line="128" id="ent0064"><path d="M955.5,116.4286 L955.5,154.0263 L1136.5957,154.0263 L1136.5957,126.4286 L1126.5957,116.4286 L955.5,116.4286" fill="#FEFFDD" style="stroke:#181818;stroke-width:0.5;"/><path d="M1126.5957,116.4286 L1126.5957,126.4286 L1136.5957,126.4286 L1126.5957,116.4286" fill="#FEFFDD" style="stroke:#181818;stroke-width:1;"/><text fill="#000000" font-family="Arial" font-size="12" lengthAdjust="spacing" textLength="131.3906" x="961.5" y="132.6845">Accesses unified service</text><text fill="#000000" font-family="Arial" font-size="12" lengthAdjust="spacing" textLength="160.0957" x="961.5" y="146.4833">experience through the Proxy.</text></g><g class="entity" data-qualified-name="GMN66" data-source-line="133" id="ent0067"><path d="M714,116.4286 L714,154.0263 L920.4023,154.0263 L920.4023,126.4286 L910.4023,116.4286 L714,116.4286" fill="#FEFFDD" style="stroke:#181818;stroke-width:0.5;"/><path d="M910.4023,116.4286 L910.4023,126.4286 L920.4023,126.4286 L910.4023,116.4286" fill="#FEFFDD" style="stroke:#181818;stroke-width:1;"/><text fill="#000000" font-family="Arial" font-size="12" lengthAdjust="spacing" textLength="179.4434" x="720" y="132.6845">Example/Standalone Scope Only.</text><text fill="#000000" font-family="Arial" font-size="12" lengthAdjust="spacing" textLength="185.4023" x="720" y="146.4833">Not a core framework requirement.</text></g><g class="entity" data-qualified-name="GMN69" data-source-line="138" id="ent0070"><path d="M518,1532.9286 L518,1584.3251 L831.752,1584.3251 L831.752,1542.9286 L821.752,1532.9286 L518,1532.9286" fill="#FEFFDD" style="stroke:#181818;stroke-width:0.5;"/><path d="M821.752,1532.9286 L821.752,1542.9286 L831.752,1542.9286 L821.752,1532.9286" fill="#FEFFDD" style="stroke:#181818;stroke-width:1;"/><text fill="#000000" font-family="Arial" font-size="12" lengthAdjust="spacing" textLength="223.4238" x="524" y="1549.1845">Contains API_URL, SQLALCHEMY_URL,</text><text fill="#000000" font-family="Arial" font-size="12" lengthAdjust="spacing" textLength="292.752" x="524" y="1562.9833">DEBUG, PI_BASE_URL, PI_ALLOWED_NETWORKS.</text><text fill="#000000" font-family="Arial" font-size="12" lengthAdjust="spacing" textLength="168.0879" x="524" y="1576.7821">Private settings in Local Config.</text></g><g class="entity" data-qualified-name="GMN72" data-source-line="144" id="ent0073"><path d="M518,1419.9286 L518,1457.5263 L734.4395,1457.5263 L734.4395,1429.9286 L724.4395,1419.9286 L518,1419.9286" fill="#FEFFDD" style="stroke:#181818;stroke-width:0.5;"/><path d="M724.4395,1419.9286 L724.4395,1429.9286 L734.4395,1429.9286 L724.4395,1419.9286" fill="#FEFFDD" style="stroke:#181818;stroke-width:1;"/><text fill="#000000" font-family="Arial" font-size="12" lengthAdjust="spacing" textLength="195.4395" x="524" y="1436.1845">Uses version-managed upgrade files</text><text fill="#000000" font-family="Arial" font-size="12" lengthAdjust="spacing" textLength="194.748" x="524" y="1449.9833">(e.g., Alembic) for schema evolution.</text></g><!--link External to APIEndpoint--><g class="link" data-entity-1="ent0002" data-entity-2="ent0006" data-link-type="dependency" data-source-line="87" id="lnk34"><path d="M601,152.5286 C601,187.3586 601,272.2686 601,343.4286 C601,343.4286 601,343.4286 601,781.4286 C601,811.0886 598.11,821.7486 579,844.4286 C568.28,857.1486 557.559,864.7564 543.109,872.0064" fill="none" id="External-to-APIEndpoint" style="stroke:#181818;stroke-width:1;"/><polygon fill="#181818" points="538.64,874.2486,548.4781,873.7878,543.109,872.0064,544.8905,866.6373,538.64,874.2486" style="stroke:#181818;stroke-width:1;stroke-linejoin:miter;stroke-miterlimit:10;"/><text fill="#000000" font-family="Arial" font-size="12" lengthAdjust="spacing" textLength="88.0254" x="602" y="567.1845">Access Services</text></g><!--link EmailSource to MailIntake--><g class="link" data-entity-1="ent0003" data-entity-2="ent0009" data-link-type="dependency" data-source-line="88" id="lnk35"><path d="M419,152.6686 C419,191.3686 419,283.6386 419,322.2586" fill="none" id="EmailSource-to-MailIntake" style="stroke:#181818;stroke-width:1;"/><polygon fill="#181818" points="419,327.2586,423,318.2586,419,322.2586,415,318.2586,419,327.2586" style="stroke:#181818;stroke-width:1;stroke-linejoin:miter;stroke-miterlimit:10;"/><text fill="#000000" font-family="Arial" font-size="12" lengthAdjust="spacing" textLength="76.7168" x="420" y="196.6845">Inbound Email</text></g><!--link APIEndpoint to ProxyDataStore--><g class="link" data-entity-1="ent0006" data-entity-2="ent0007" data-link-type="dependency" data-source-line="91" id="lnk36"><path d="M489.43,908.4886 C475.39,942.8386 444.4725,1018.4606 430.4425,1052.7706" fill="none" id="APIEndpoint-to-ProxyDataStore" style="stroke:#181818;stroke-width:1;"/><polygon fill="#181818" points="428.55,1057.3986,435.6589,1050.5822,430.4425,1052.7706,428.2541,1047.5542,428.55,1057.3986" style="stroke:#181818;stroke-width:1;stroke-linejoin:miter;stroke-miterlimit:10;"/></g><!--link ProxyDataStore to ProxyDB--><g class="link" data-entity-1="ent0007" data-entity-2="ent0014" data-link-type="dependency" data-source-line="92" id="lnk37"><path d="M382,1091.5486 C353.48,1104.1986 315.19,1123.6186 286,1147.4286 C270.24,1160.2786 258.6975,1174.2481 248.7175,1188.1381" fill="none" id="ProxyDataStore-to-ProxyDB" style="stroke:#181818;stroke-width:1;"/><polygon fill="#181818" points="245.8,1192.1986,254.3,1187.2237,248.7175,1188.1381,247.8031,1182.5556,245.8,1192.1986" style="stroke:#181818;stroke-width:1;stroke-linejoin:miter;stroke-miterlimit:10;"/><text fill="#000000" font-family="Arial" font-size="12" lengthAdjust="spacing" textLength="41.3438" x="287" y="1159.6845">persists</text></g><!--link MailIntake to RoutingValidator--><g class="link" data-entity-1="ent0009" data-entity-2="ent0010" data-link-type="dependency" data-source-line="93" id="lnk38"><path d="M418.85,361.6786 C418.66,381.9086 418.3872,411.2389 418.1972,431.3789" fill="none" id="MailIntake-to-RoutingValidator" style="stroke:#181818;stroke-width:1;"/><polygon fill="#181818" points="418.15,436.3786,422.2347,427.4168,418.1972,431.3789,414.2351,427.3413,418.15,436.3786" style="stroke:#181818;stroke-width:1;stroke-linejoin:miter;stroke-miterlimit:10;"/><text fill="#000000" font-family="Arial" font-size="12" lengthAdjust="spacing" textLength="91.3652" x="419" y="403.6845">Email with Token</text></g><!--link RoutingValidator to AutoResponseFilter--><g class="link" data-entity-1="ent0010" data-entity-2="ent0011" data-link-type="dependency" data-source-line="94" id="lnk39"><path d="M417.7,470.6786 C417.32,490.9086 416.7743,520.2395 416.3943,540.3795" fill="none" id="RoutingValidator-to-AutoResponseFilter" style="stroke:#181818;stroke-width:1;"/><polygon fill="#181818" points="416.3,545.3786,420.4691,536.4557,416.3943,540.3795,412.4705,536.3048,416.3,545.3786" style="stroke:#181818;stroke-width:1;stroke-linejoin:miter;stroke-miterlimit:10;"/><text fill="#000000" font-family="Arial" font-size="12" lengthAdjust="spacing" textLength="63.3691" x="418" y="512.6845">Valid Token</text></g><!--link AutoResponseFilter to PayloadExtractor--><g class="link" data-entity-1="ent0011" data-entity-2="ent0012" data-link-type="dependency" data-source-line="95" id="lnk40"><path d="M415.85,579.6786 C415.66,599.9086 415.3872,629.2389 415.1972,649.3789" fill="none" id="AutoResponseFilter-to-PayloadExtractor" style="stroke:#181818;stroke-width:1;"/><polygon fill="#181818" points="415.15,654.3786,419.2347,645.4168,415.1972,649.3789,411.2351,645.3413,415.15,654.3786" style="stroke:#181818;stroke-width:1;stroke-linejoin:miter;stroke-miterlimit:10;"/><text fill="#000000" font-family="Arial" font-size="12" lengthAdjust="spacing" textLength="104.7246" x="416" y="621.6845">Not Auto-Response</text></g><!--link PayloadExtractor to MailHandler--><g class="link" data-entity-1="ent0012" data-entity-2="ent0013" data-link-type="dependency" data-source-line="96" id="lnk41"><path d="M413.18,688.6786 C410.91,708.9086 407.6176,738.2698 405.3576,758.4098" fill="none" id="PayloadExtractor-to-MailHandler" style="stroke:#181818;stroke-width:1;"/><polygon fill="#181818" points="404.8,763.3786,409.7787,754.8808,405.3576,758.4098,401.8286,753.9887,404.8,763.3786" style="stroke:#181818;stroke-width:1;stroke-linejoin:miter;stroke-miterlimit:10;"/><text fill="#000000" font-family="Arial" font-size="12" lengthAdjust="spacing" textLength="153.7559" x="410" y="730.6845">Routing Data + Text Payload</text></g><!--link MailHandler to APIEndpoint--><g class="link" data-entity-1="ent0013" data-entity-2="ent0006" data-link-type="dependency" data-source-line="97" id="lnk42"><path d="M409.15,797.5986 C414.79,811.0686 424.07,830.2586 436,844.4286 C445.64,855.8786 454.4955,863.3789 465.8955,871.3689" fill="none" id="MailHandler-to-APIEndpoint" style="stroke:#181818;stroke-width:1;"/><polygon fill="#181818" points="469.99,874.2386,464.9157,865.7976,465.8955,871.3689,460.3242,872.3487,469.99,874.2386" style="stroke:#181818;stroke-width:1;stroke-linejoin:miter;stroke-miterlimit:10;"/><text fill="#000000" font-family="Arial" font-size="12" lengthAdjust="spacing" textLength="137.3848" x="437" y="841.6845">Handler Result (Example)</text></g><!--link APIEndpoint to Service1--><g class="link" data-entity-1="ent0006" data-entity-2="ent0016" data-link-type="dependency" data-source-line="100" id="lnk43"><path d="M522.62,908.4886 C558.76,930.2936 625.55,970.5911 684.0638,1005.8949 C713.3206,1023.5468 740.5084,1039.9502 760.7614,1052.1694 C770.8879,1058.279 779.2807,1063.3426 785.3315,1066.9931 C786.0879,1067.4494 786.8076,1067.8837 787.4896,1068.2951 C787.6601,1068.398 783.547,1065.9165 783.7128,1066.0165" fill="none" id="APIEndpoint-to-Service1" style="stroke:#181818;stroke-width:1;"/><polygon fill="#181818" points="787.994,1068.5994,782.3541,1060.5253,783.7128,1066.0165,778.2215,1067.3752,787.994,1068.5994" style="stroke:#181818;stroke-width:1;stroke-linejoin:miter;stroke-miterlimit:10;"/><text fill="#000000" font-family="Arial" font-size="12" lengthAdjust="spacing" textLength="88.6875" x="594" y="950.6845">Proxy-to-Service</text></g><!--link APIEndpoint to Service2--><g class="link" data-entity-1="ent0006" data-entity-2="ent0020" data-link-type="dependency" data-source-line="101" id="lnk44"><path d="M558.31,894.6086 C646.55,899.3386 811.88,914.2886 944,961.4286 C989.44,977.6436 1036.1775,1005.0286 1071.9275,1028.6599 C1089.8025,1040.4755 1104.9306,1051.3527 1115.7763,1059.426 C1118.4877,1061.4443 1120.9314,1063.2874 1123.0835,1064.9261 C1123.6215,1065.3357 1124.1413,1065.7326 1124.6425,1066.1163 C1124.8931,1066.3081 1125.1391,1066.4967 1125.3803,1066.6818 C1125.5009,1066.7744 1121.6559,1063.8194 1121.7742,1063.9103" fill="none" id="APIEndpoint-to-Service2" style="stroke:#181818;stroke-width:1;"/><polygon fill="#181818" points="1125.7387,1066.957,1121.04,1058.3013,1121.7742,1063.9103,1116.1651,1064.6445,1125.7387,1066.957" style="stroke:#181818;stroke-width:1;stroke-linejoin:miter;stroke-miterlimit:10;"/><text fill="#000000" font-family="Arial" font-size="12" lengthAdjust="spacing" textLength="88.6875" x="910" y="950.6845">Proxy-to-Service</text></g><!--link APIEndpoint to ServiceN--><g class="link" data-entity-1="ent0006" data-entity-2="ent0024" data-link-type="dependency" data-source-line="102" id="lnk45"><path d="M558.26,894.3886 C719.49,900.0086 1147.38,918.6286 1282,961.4286 C1328.34,976.1586 1375.575,1003.5211 1411.5988,1027.5124 C1429.6106,1039.508 1444.8197,1050.6608 1455.7127,1058.9704 C1458.4359,1061.0477 1460.8894,1062.9474 1463.0495,1064.6381 C1463.5895,1065.0608 1464.1112,1065.4704 1464.6142,1065.8665 C1464.8656,1066.0645 1465.1125,1066.2592 1465.3545,1066.4504 C1465.4756,1066.546 1461.6739,1063.5389 1461.7925,1063.6328" fill="none" id="APIEndpoint-to-ServiceN" style="stroke:#181818;stroke-width:1;"/><polygon fill="#181818" points="1465.7141,1066.7346,1461.1367,1058.0141,1461.7925,1063.6328,1456.1738,1064.2886,1465.7141,1066.7346" style="stroke:#181818;stroke-width:1;stroke-linejoin:miter;stroke-miterlimit:10;"/><text fill="#000000" font-family="Arial" font-size="12" lengthAdjust="spacing" textLength="88.6875" x="1248" y="950.6845">Proxy-to-Service</text></g><!--link Logic1 to APIClient1--><g class="link" data-entity-1="ent0017" data-entity-2="ent0018" data-link-type="dependency" data-source-line="105" id="lnk46"><path d="M868.99,1091.6486 C861.38,1109.0286 851.69,1137.4686 856,1162.4286 C858.03,1174.1686 860.6263,1182.1652 864.6163,1191.8552" fill="none" id="Logic1-to-APIClient1" style="stroke:#181818;stroke-width:1;"/><polygon fill="#181818" points="866.52,1196.4786,866.792,1186.6335,864.6163,1191.8552,859.3945,1189.6795,866.52,1196.4786" style="stroke:#181818;stroke-width:1;stroke-linejoin:miter;stroke-miterlimit:10;"/><text fill="#000000" font-family="Arial" font-size="12" lengthAdjust="spacing" textLength="27.3398" x="857" y="1159.6845">Uses</text></g><!--link APIClient1 to APIEndpoint--><g class="link" data-entity-1="ent0018" data-entity-2="ent0006" data-link-type="dependency" data-source-line="106" id="lnk47"><path d="M914.77,1196.8286 C920.48,1195.0786 926.34,1193.5286 932,1192.4286 C969.67,1185.1186 1595.46,1190.1386 1622,1162.4286 C1683.78,1097.8986 1682.5,1027.1586 1622,961.4286 C1585.73,922.0286 794.2885,899.702 563.2785,894.002" fill="none" id="APIClient1-to-APIEndpoint" style="stroke:#181818;stroke-width:1;"/><polygon fill="#181818" points="558.28,893.8786,567.1786,898.0994,563.2785,894.002,567.3759,890.1019,558.28,893.8786" style="stroke:#181818;stroke-width:1;stroke-linejoin:miter;stroke-miterlimit:10;"/><text fill="#000000" font-family="Arial" font-size="12" lengthAdjust="spacing" textLength="73.3711" x="1668" y="1079.1845">API Requests</text></g><!--link Logic1 to ServiceDB1--><g class="link" data-entity-1="ent0017" data-entity-2="ent0019" data-link-type="dependency" data-source-line="107" id="lnk48"><path d="M869.2,1091.6486 C860.98,1106.8086 846.51,1128.6686 827,1139.4286 C796.1,1156.4786 778.54,1129.7486 748,1147.4286 C730.44,1157.5986 719.9683,1172.8079 712.2183,1187.9479" fill="none" id="Logic1-to-ServiceDB1" style="stroke:#181818;stroke-width:1;"/><polygon fill="#181818" points="709.94,1192.3986,717.6016,1186.2099,712.2183,1187.9479,710.4803,1182.5646,709.94,1192.3986" style="stroke:#181818;stroke-width:1;stroke-linejoin:miter;stroke-miterlimit:10;"/><text fill="#000000" font-family="Arial" font-size="12" lengthAdjust="spacing" textLength="96.6973" x="749" y="1159.6845">CRUD Operations</text></g><!--link Logic2 to APIClient2--><g class="link" data-entity-1="ent0021" data-entity-2="ent0022" data-link-type="dependency" data-source-line="109" id="lnk49"><path d="M1206.99,1091.6486 C1199.38,1109.0286 1189.69,1137.4686 1194,1162.4286 C1196.03,1174.1686 1198.6263,1182.1652 1202.6163,1191.8552" fill="none" id="Logic2-to-APIClient2" style="stroke:#181818;stroke-width:1;"/><polygon fill="#181818" points="1204.52,1196.4786,1204.792,1186.6335,1202.6163,1191.8552,1197.3945,1189.6795,1204.52,1196.4786" style="stroke:#181818;stroke-width:1;stroke-linejoin:miter;stroke-miterlimit:10;"/><text fill="#000000" font-family="Arial" font-size="12" lengthAdjust="spacing" textLength="27.3398" x="1195" y="1159.6845">Uses</text></g><!--link APIClient2 to APIEndpoint--><g class="link" data-entity-1="ent0022" data-entity-2="ent0006" data-link-type="dependency" data-source-line="110" id="lnk50"><path d="M1253.13,1196.9186 C1258.73,1195.1686 1264.46,1193.5986 1270,1192.4286 C1437.03,1157.0086 1484.32,1188.8686 1653,1162.4286 C1696.77,1155.5686 1722.52,1174.1886 1750,1139.4286 C1799.06,1077.3686 1802.01,1021.0386 1750,961.4286 C1710.43,916.0686 810.6493,897.7037 563.1093,893.4937" fill="none" id="APIClient2-to-APIEndpoint" style="stroke:#181818;stroke-width:1;"/><polygon fill="#181818" points="558.11,893.4086,567.0407,897.5611,563.1093,893.4937,567.1767,889.5623,558.11,893.4086" style="stroke:#181818;stroke-width:1;stroke-linejoin:miter;stroke-miterlimit:10;"/><text fill="#000000" font-family="Arial" font-size="12" lengthAdjust="spacing" textLength="73.3711" x="1788" y="1079.1845">API Requests</text></g><!--link Logic2 to ServiceDB2--><g class="link" data-entity-1="ent0021" data-entity-2="ent0023" data-link-type="dependency" data-source-line="111" id="lnk51"><path d="M1207.2,1091.6486 C1198.98,1106.8086 1184.51,1128.6686 1165,1139.4286 C1134.1,1156.4786 1116.54,1129.7486 1086,1147.4286 C1068.44,1157.5986 1057.9683,1172.8079 1050.2183,1187.9479" fill="none" id="Logic2-to-ServiceDB2" style="stroke:#181818;stroke-width:1;"/><polygon fill="#181818" points="1047.94,1192.3986,1055.6016,1186.2099,1050.2183,1187.9479,1048.4803,1182.5646,1047.94,1192.3986" style="stroke:#181818;stroke-width:1;stroke-linejoin:miter;stroke-miterlimit:10;"/><text fill="#000000" font-family="Arial" font-size="12" lengthAdjust="spacing" textLength="96.6973" x="1087" y="1159.6845">CRUD Operations</text></g><!--link LogicN to APIClientN--><g class="link" data-entity-1="ent0025" data-entity-2="ent0026" data-link-type="dependency" data-source-line="113" id="lnk52"><path d="M1554.65,1091.4686 C1554.08,1117.8286 1553.0492,1164.9998 1552.4692,1191.5598" fill="none" id="LogicN-to-APIClientN" style="stroke:#181818;stroke-width:1;"/><polygon fill="#181818" points="1552.36,1196.5586,1556.5555,1187.6481,1552.4692,1191.5598,1548.5574,1187.4734,1552.36,1196.5586" style="stroke:#181818;stroke-width:1;stroke-linejoin:miter;stroke-miterlimit:10;"/><text fill="#000000" font-family="Arial" font-size="12" lengthAdjust="spacing" textLength="27.3398" x="1554" y="1159.6845">Uses</text></g><!--link APIClientN to APIEndpoint--><g class="link" data-entity-1="ent0026" data-entity-2="ent0006" data-link-type="dependency" data-source-line="114" id="lnk53"><path d="M1605.61,1208.4386 C1687.47,1200.3486 1837.55,1180.2286 1870,1139.4286 C1919.24,1077.5086 1921.59,1021.4086 1870,961.4286 C1826.68,911.0686 825.7397,896.1867 563.1997,893.1367" fill="none" id="APIClientN-to-APIEndpoint" style="stroke:#181818;stroke-width:1;"/><polygon fill="#181818" points="558.2,893.0786,567.1529,897.1829,563.1997,893.1367,567.2459,889.1835,558.2,893.0786" style="stroke:#181818;stroke-width:1;stroke-linejoin:miter;stroke-miterlimit:10;"/><text fill="#000000" font-family="Arial" font-size="12" lengthAdjust="spacing" textLength="73.3711" x="1908" y="1079.1845">API Requests</text></g><!--link LogicN to ServiceDBN--><g class="link" data-entity-1="ent0025" data-entity-2="ent0027" data-link-type="dependency" data-source-line="115" id="lnk54"><path d="M1547.12,1091.4986 C1538.83,1106.5386 1524.31,1128.3186 1505,1139.4286 C1482.45,1152.4086 1470.45,1136.1486 1447,1147.4286 C1425.56,1157.7386 1409.6284,1173.3422 1396.9784,1188.3822" fill="none" id="LogicN-to-ServiceDBN" style="stroke:#181818;stroke-width:1;"/><polygon fill="#181818" points="1393.76,1192.2086,1402.6143,1187.8957,1396.9784,1188.3822,1396.492,1182.7463,1393.76,1192.2086" style="stroke:#181818;stroke-width:1;stroke-linejoin:miter;stroke-miterlimit:10;"/><text fill="#000000" font-family="Arial" font-size="12" lengthAdjust="spacing" textLength="96.6973" x="1448" y="1159.6845">CRUD Operations</text></g><!--link Service1 to ServiceConfig--><g class="link" data-entity-1="ent0016" data-entity-2="ent0029" data-link-type="dependency" data-source-line="118" id="lnk55"><path d="M787.9126,1078.4731 C787.3915,1078.6668 786.8469,1078.8687 786.2794,1079.0786 C785.1443,1079.4984 783.9175,1079.9502 782.603,1080.4318 C779.9739,1081.395 776.994,1082.4773 773.6959,1083.661 C760.5037,1088.3958 742.2212,1094.753 720.94,1101.5974 C678.3775,1115.2861 623.82,1130.9236 574,1139.4286 C543.5,1144.6386 463.72,1135.9286 435,1147.4286 C406.31,1158.9086 394.98,1164.3886 382,1192.4286 C362.87,1233.7686 357.01,1256.8386 382,1294.9286 C396.09,1316.3986 411.39,1307.8386 435,1317.9286 C443.42,1321.5286 448.66,1318.4786 454,1325.9286 C461.1525,1335.9111 465.2694,1347.7636 467.4116,1359.9611 C468.4827,1366.0599 469.0601,1372.2449 469.2764,1378.3255 C469.3035,1379.0856 469.3249,1379.844 469.3409,1380.6005 C469.3489,1380.9787 469.2847,1376.3569 469.29,1376.7341" fill="none" id="Service1-to-ServiceConfig" style="stroke:#181818;stroke-width:1;stroke-dasharray:7,7;"/><polygon fill="#181818" points="469.3609,1381.7336,473.2328,1372.6777,469.29,1376.7341,465.2337,1372.7913,469.3609,1381.7336" style="stroke:#181818;stroke-width:1;stroke-linejoin:miter;stroke-miterlimit:10;"/><text fill="#000000" font-family="Arial" font-size="12" lengthAdjust="spacing" textLength="34.6875" x="383" y="1218.6845">Reads</text></g><!--link Service2 to ServiceConfig--><g class="link" data-entity-1="ent0020" data-entity-2="ent0029" data-link-type="dependency" data-source-line="119" id="lnk56"><path d="M1125.767,1079.2257 C1124.8044,1079.6608 1123.7637,1080.1288 1122.6485,1080.6274 C1120.418,1081.6245 1117.8889,1082.7438 1115.0886,1083.9661 C1103.8872,1088.8555 1088.3444,1095.3936 1070.1988,1102.3561 C1033.9075,1116.2811 987.205,1131.9036 944,1139.4286 C899.88,1147.1086 582.89,1131.5686 541,1147.4286 C512.1,1158.3686 502.44,1165.1086 488,1192.4286 C462.765,1240.1736 456.0725,1300.3911 455.7825,1349.2374 C455.7463,1355.3432 455.81,1361.2713 455.9502,1366.9751 C456.0202,1369.8271 456.1094,1372.6229 456.2146,1375.3569 C456.2672,1376.7239 456.3239,1378.0754 456.3842,1379.4108 C456.4144,1380.0784 456.2036,1375.7479 456.2355,1376.4074" fill="none" id="Service2-to-ServiceConfig" style="stroke:#181818;stroke-width:1;stroke-dasharray:7,7;"/><polygon fill="#181818" points="456.4774,1381.4015,460.0373,1372.2185,456.2355,1376.4074,452.0467,1372.6056,456.4774,1381.4015" style="stroke:#181818;stroke-width:1;stroke-linejoin:miter;stroke-miterlimit:10;"/><text fill="#000000" font-family="Arial" font-size="12" lengthAdjust="spacing" textLength="34.6875" x="489" y="1218.6845">Reads</text></g><!--link ServiceN to ServiceConfig--><g class="link" data-entity-1="ent0024" data-entity-2="ent0029" data-link-type="dependency" data-source-line="120" id="lnk57"><path d="M1465.6753,1079.2501 C1464.7028,1079.6878 1463.6514,1080.1587 1462.5245,1080.6602 C1460.2708,1081.6633 1457.7154,1082.7891 1454.8858,1084.0182 C1443.5672,1088.9346 1427.8606,1095.5043 1409.5237,1102.4874 C1372.85,1116.4536 1325.655,1132.0736 1282,1139.4286 C1263.92,1142.4786 638.48,1139.3886 622,1147.4286 C590.92,1162.5986 539.45,1278.7386 528,1294.9286 C517.45,1309.8486 510.17,1310.1286 501,1325.9286 C487.98,1348.3686 478.33,1375.8511 471.8863,1397.9761 C471.4835,1399.3589 471.0933,1400.7208 470.7156,1402.0592 C470.5267,1402.7285 470.341,1403.3918 470.1584,1404.049 C470.1127,1404.2132 471.4013,1399.5584 471.356,1399.7219" fill="none" id="ServiceN-to-ServiceConfig" style="stroke:#181818;stroke-width:1;stroke-dasharray:7,7;"/><polygon fill="#181818" points="470.022,1404.5407,476.2782,1396.9341,471.356,1399.7219,468.5682,1394.7997,470.022,1404.5407" style="stroke:#181818;stroke-width:1;stroke-linejoin:miter;stroke-miterlimit:10;"/><text fill="#000000" font-family="Arial" font-size="12" lengthAdjust="spacing" textLength="34.6875" x="584" y="1218.6845">Reads</text></g><!--link ProjConfig to LocalConfig--><g class="link" data-entity-1="ent0030" data-entity-2="ent0031" data-link-type="dependency" data-source-line="121" id="lnk58"><path d="M353.22,1456.2686 C356.28,1478.7186 361.0767,1513.9042 364.1167,1536.2742" fill="none" id="ProjConfig-to-LocalConfig" style="stroke:#181818;stroke-width:1;stroke-dasharray:7,7;"/><polygon fill="#181818" points="364.79,1541.2286,367.5416,1531.772,364.1167,1536.2742,359.6145,1532.8492,364.79,1541.2286" style="stroke:#181818;stroke-width:1;stroke-linejoin:miter;stroke-miterlimit:10;"/><text fill="#000000" font-family="Arial" font-size="12" lengthAdjust="spacing" textLength="98.707" x="360" y="1500.1845">Extends/Overrides</text></g><!--link SchemaManager to UpgradeFiles--><g class="link" data-entity-1="ent0032" data-entity-2="ent0033" data-link-type="dependency" data-source-line="122" id="lnk59"><path d="M230.93,1440.0186 C228.81,1442.7286 179.6622,1505.4916 154.8922,1537.1316" fill="none" id="SchemaManager-to-UpgradeFiles" style="stroke:#181818;stroke-width:1;stroke-dasharray:7,7;"/><polygon fill="#181818" points="151.81,1541.0686,160.5075,1536.4477,154.8922,1537.1316,154.2083,1531.5162,151.81,1541.0686" style="stroke:#181818;stroke-width:1;stroke-linejoin:miter;stroke-miterlimit:10;"/><text fill="#000000" font-family="Arial" font-size="12" lengthAdjust="spacing" textLength="49.3652" x="195" y="1500.1845">Manages</text></g><!--link ServiceDB1 to SchemaManager--><g class="link" data-entity-1="ent0019" data-entity-2="ent0032" data-link-type="dependency" data-source-line="123" id="lnk60"><path d="M685.37,1235.4886 C669.19,1254.9386 641.98,1282.8786 611,1294.9286 C597.43,1300.2086 97.21,1292.5586 87,1302.9286 C56.7,1333.6936 91.11,1366.8786 133.8712,1392.6486 C144.5616,1399.0911 155.7738,1405.0702 166.6274,1410.4321 C169.3408,1411.7726 167.5154,1410.9294 170.1702,1412.1903" fill="none" id="ServiceDB1-to-SchemaManager" style="stroke:#181818;stroke-width:1;stroke-dasharray:7,7;"/><polygon fill="#181818" points="174.6866,1414.3355,168.2732,1406.8611,170.1702,1412.1903,164.8409,1414.0874,174.6866,1414.3355" style="stroke:#181818;stroke-width:1;stroke-linejoin:miter;stroke-miterlimit:10;"/><text fill="#000000" font-family="Arial" font-size="12" lengthAdjust="spacing" textLength="99.3867" x="88" y="1315.1845">Schema Upgrades</text></g><!--link ServiceDB2 to SchemaManager--><g class="link" data-entity-1="ent0023" data-entity-2="ent0032" data-link-type="dependency" data-source-line="124" id="lnk61"><path d="M1021.84,1235.6586 C1004.47,1254.9386 975.72,1282.4986 944,1294.9286 C909.98,1308.2586 317.62,1305.9886 287,1325.9286 C264.045,1340.8736 250.12,1368.2386 241.8975,1392.1774 C239.8419,1398.1621 238.1427,1403.9326 236.7479,1409.2414 C236.3992,1410.5686 236.0695,1411.867 235.758,1413.1326 C235.6801,1413.449 235.6034,1413.7634 235.5278,1414.0756 C235.49,1414.2317 236.6201,1409.5256 236.5828,1409.6806" fill="none" id="ServiceDB2-to-SchemaManager" style="stroke:#181818;stroke-width:1;stroke-dasharray:7,7;"/><polygon fill="#181818" points="235.4153,1414.5424,241.4063,1406.7253,236.5828,1409.6806,233.6275,1404.8572,235.4153,1414.5424" style="stroke:#181818;stroke-width:1;stroke-linejoin:miter;stroke-miterlimit:10;"/><text fill="#000000" font-family="Arial" font-size="12" lengthAdjust="spacing" textLength="99.3867" x="809" y="1315.1845">Schema Upgrades</text></g><!--link ServiceDBN to SchemaManager--><g class="link" data-entity-1="ent0027" data-entity-2="ent0032" data-link-type="dependency" data-source-line="125" id="lnk62"><path d="M1360.57,1235.5486 C1342.95,1254.7486 1313.85,1282.2486 1282,1294.9286 C1206.49,1324.9886 998.21,1314.8586 917,1317.9286 C899.51,1318.5886 301.83,1316.6286 287,1325.9286 C263.79,1340.4786 249.8625,1367.8386 241.7025,1391.8736 C239.6625,1397.8824 237.983,1403.6833 236.609,1409.0243 C236.2655,1410.3596 235.9411,1411.6661 235.6349,1412.9399 C235.5584,1413.2584 235.483,1413.5748 235.4087,1413.8891 C235.3716,1414.0463 236.4754,1409.3347 236.4388,1409.4908" fill="none" id="ServiceDBN-to-SchemaManager" style="stroke:#181818;stroke-width:1;stroke-dasharray:7,7;"/><polygon fill="#181818" points="235.2981,1414.359,241.2459,1406.5089,236.4388,1409.4908,233.4569,1404.6838,235.2981,1414.359" style="stroke:#181818;stroke-width:1;stroke-linejoin:miter;stroke-miterlimit:10;"/><text fill="#000000" font-family="Arial" font-size="12" lengthAdjust="spacing" textLength="99.3867" x="1250" y="1315.1845">Schema Upgrades</text></g><!--link External to GMN63--><g class="link" data-entity-1="ent0002" data-entity-2="ent0064" data-link-type="association" data-source-line="128" id="lnk65"><path d="M620.2,118.3486 C641.5,100.6486 677.75,74.0986 714.5,63.4286 C758.46,50.6586 876.27,51.6386 920.5,63.4286 C958.85,73.6486 997.67,98.6786 1021.77,116.3486" fill="none" id="External-GMN63" style="stroke:#181818;stroke-width:1;stroke-dasharray:7,7;"/></g><!--link EmailSource to GMN66--><g class="link" data-entity-1="ent0003" data-entity-2="ent0067" data-link-type="association" data-source-line="133" id="lnk68"><path d="M436.42,118.3786 C455.82,100.6886 489,74.1586 523.5,63.4286 C588.85,43.0986 610.99,47.2786 677.5,63.4286 C719.35,73.5886 762.68,98.6386 789.72,116.3186" fill="none" id="EmailSource-GMN66" style="stroke:#181818;stroke-width:1;stroke-dasharray:7,7;"/></g><!--link ServiceConfig to GMN69--><g class="link" data-entity-1="ent0029" data-entity-2="ent0070" data-link-type="association" data-source-line="138" id="lnk71"><path d="M470.2063,1444.4594 C470.4455,1444.5913 470.6895,1444.7259 470.9381,1444.863 C471.9327,1445.4114 473.0019,1446.0011 474.1414,1446.6295 C476.4204,1447.8863 478.9809,1449.2984 481.7884,1450.8469 C493.0188,1457.0408 508.2038,1465.4168 525.155,1474.7674 C559.0575,1493.4686 600.025,1516.0686 630.55,1532.9086" fill="none" id="ServiceConfig-GMN69" style="stroke:#181818;stroke-width:1;stroke-dasharray:7,7;"/></g><!--link GMN72 to SchemaManager--><g class="link" data-entity-1="ent0073" data-entity-2="ent0032" data-link-type="association" data-source-line="144" id="lnk74"><path d="M609.56,1419.7886 C582.24,1389.6386 524.16,1332.2386 460.5,1310.4286 C427.71,1299.1886 336.91,1298.1386 304.5,1310.4286 C275.18,1321.5436 257.1125,1351.2486 246.2313,1379.3011 C243.5109,1386.3143 241.2398,1393.2241 239.3542,1399.7144 C238.4114,1402.9595 237.565,1406.0998 236.8071,1409.0956 C236.4282,1410.5935 236.0713,1412.0553 235.7356,1413.476 C235.6516,1413.8312 235.569,1414.1838 235.4877,1414.5338" fill="none" id="GMN72-SchemaManager" style="stroke:#181818;stroke-width:1;stroke-dasharray:7,7;"/></g><?plantuml-src bLThRzis5FskNy5vm9fWUTWAOA3zKC0FkGtcAfcLD1Y6eM0ascP3aIv5vR4X_tsN3ycKfQIEWo3XvRdt7fANvzA_P6H9EK6BQ78rYZ_D8vGoN1H1SKVv1akSerJa6y49LubwOWH9aYhCLunua5kStgsaA7as4Kn8zEiiqZyU0hBWagcPu2h6EK4ZIJ7hda_elmGDmYu6wBy0mMUycouQpivcCpidP4Qai_Vxm-5aOkmwScqzEniEWsSl0nSPUIduR3RhHyDsyCbaEEptTuCFXsTdOFM3PrZXMroGLzZFkXBq--_VjnFeDUqa-56IycNwVHs_7Lr7QU-D9h-pD_M1lx91i-uC-jFchp_6we98JYGQw2K5YYh8SydArRb2oLEXI0wbagwf0XAb946mPTEB7XMH73CKyNig1S-XGdg6vD_rr7L1P85ENQpY7uGBL4rgu3c_rIHGb6FAK29AcH8BqWOxriIyj8xTfHIFJ-tKsrfj07iwfdMnk-ZZZ7bqUGxHiesWEXIWmL2DEpsE4mf5EuNYGeaIacnJQ9inxVebi8OCCnYXBtgzDqBUBPbuCAxQKXaSoOQpyJZd2j-H6c-7RUn2b8ho5VgA6ONo5z9uE6jjRFkDIYME5wI0CToN6MLmKdOpOAAoMtFR-OeymcxZ9oPmfWzPuhJAxAoryONLVORjOIwZDhYnGJy7-XTAeRxExk2cRkpj_xYhO18YxsbAzYcP2ZemCTreqAwS2ZSNAveQhFblqAeN6rQNs8HHiYqmEne4TddRbLM1gxKrcKp7W-1Ltg6F3lVc7RwHT_Xptc6JT_WwxzX7ntlpZj_8E_uvxxZ9EzxHe8dWIxeg9LPKSFGR52l7Az9PKbNeXeiVtKwunIufiuNz7P8vdwgmlzkXXvkB5BFJIqdliI8-sapKyEScetgHIRecENRaxQsp9cTfSFeAGWxCIOQkDok9CoCFf31Upc8CrJLzL-iyKi99xqJaUSbfQlOWgEUFZp_wQei-W12bAIdgBIfwWTSF37whVXhUQ2CzdHpcRF2kp7uo7Mn7jPj33p7MkJPw8me5d3mE6hChhnfi-ze3LMjq9Uu8xmKjb5bzIrwriy5KVXqGGsn7MRLVB1HgA7alQC6gFNGIgzsgfc5Qsk_8btExrWhRSLxL56I4PoGwY1vnlc7aq9o5FGAeWkrTy4u37MmRjHAfO8UjywaL-4FLUs5npjXx2Hs-2Hrteu5zHRgkg6OjMSMlziG9kWu6Jv_2fAjiNMKE2hKWy7uqzUI5sYgzXaqMrrDq0OLdKWBIGiDcrh0ZQxXdrh2PDNmbQzpC6dTaZVVC6ZUpnjrPtpMr4qt9Xl2Cy9I2sjIbSNBoSKTHTKaJd468kYBs0CMlWhOoR62UpfhR3eh6i-Bqufv82Qz37RKXgDh75qljPEUs1FIP6meDJm0wkNR-laFuLeTuJuU02sWiagxM2ecb_tAt0WqhW9kmfD0L2XiRfiWZd1wK0TmPjORl6Air_2LM1Ku2s22aexPYUmz-X9n-d7elvYGL6u8kE8CW26cDmz3LG9-Ny2s9FC3B6Rug_IYfD7subUXMA2LodQbnjX0A_b6OSlD0-7Qzc1-XvC_vQ3xv77tvoum1Cut6rv-E4036eoIoA1YCvlEBcsZwBOwkRYuMVoIQMTME2wAqd1Q8SbidhenRp1XPcXre70S4qfSAtTksUvmRSuPArtoNhjSUa9FLoH4QCPBVqlGGBK7R2tkCv5wmKjyOB-F_?></g></svg>