<svg xmlns="http://www.w3.org/2000/svg" xmlns:xlink="http://www.w3.org/1999/xlink" contentStyleType="text/css" data-diagram-type="DESCRIPTION" height="1777px" preserveAspectRatio="none" style="width:1890px;height:1777px;background:#FFFFFF;" version="1.1" viewBox="0 0 1890 1777" width="1890px" zoomAndPan="magnify"><?plantuml 1.2026.6?><defs/><g><g class="title" data-source-line="27"><text fill="#000000" font-family="sans-serif" font-size="14" font-weight="700" lengthAdjust="spacing" textLength="375.7441" x="754.05" y="24.5332">GKE Pub/Sub WebSocket Adapter - System Architecture</text></g><!--cluster Google Cloud Platform--><g class="cluster" data-qualified-name="Google Cloud Platform" data-source-line="29" id="ent0001"><polygon fill="#FFFFFF" points="396,184.6094,406,174.6094,1409,174.6094,1409,1742.9694,1399,1752.9694,396,1752.9694,396,184.6094" style="stroke:#000000;stroke-width:1;stroke-linejoin:miter;stroke-miterlimit:10;"/><line style="stroke:#000000;stroke-width:1;" x1="1399" x2="1409" y1="184.6094" y2="174.6094"/><line style="stroke:#000000;stroke-width:1;" x1="396" x2="1399" y1="184.6094" y2="184.6094"/><line style="stroke:#000000;stroke-width:1;" x1="1399" x2="1399" y1="184.6094" y2="1752.9694"/><text fill="#000000" font-family="sans-serif" font-size="14" font-weight="700" lengthAdjust="spacing" textLength="152.4414" x="822.2793" y="202.1426">Google Cloud Platform</text></g><!--cluster GCP Project--><g class="cluster" data-qualified-name="Google Cloud Platform.GCP Project" data-source-line="30" id="ent0002"><rect fill="#FFFFFF" height="233" rx="2.5" ry="2.5" style="stroke:#000000;stroke-width:1;" width="208" x="1177" y="787.9694"/><text fill="#000000" font-family="sans-serif" font-size="14" font-weight="700" lengthAdjust="spacing" textLength="81.6895" x="1240.1553" y="804.5026">GCP Project</text></g><!--cluster GKE--><g class="cluster" data-qualified-name="Google Cloud Platform.GKE" data-source-line="34" id="ent0005"><path d="M451.5221,247.6233 C489.7379,188.4035 531.624,185.7659 570.4606,247.0103 C600.3432,191.3542 647.5608,196.0405 680.3311,243.9469 C718.5161,194.9436 758.7373,189.7296 796.0561,244.9091 C820.064,186.8753 872.1853,184.1389 903.8389,237.5122 C945.4849,182.3824 988.472,172.4771 1028.9372,238.7292 C1066.1592,181.7357 1108.1788,188.4001 1137,246.6094 C1147.5951,248.5257 1149.4357,254.1359 1145.5069,263.4075 C1190.3077,286.4361 1188.1968,329.0913 1143.0182,349.5194 C1188.8392,376.3224 1187.0422,420.7971 1147.2559,451.169 C1192.3312,483.6159 1196.4443,522.0971 1145.2644,552.6551 C1186.2864,581.9028 1183.8691,616.6859 1142.2715,643.2028 C1190.8103,665.8931 1199.7047,703.8406 1153.2827,737.607 C1194.2076,767.8122 1203.6864,798.5772 1153.9134,829.4056 C1200.8596,859.0109 1191.7763,911.0782 1147.3246,934.9795 C1190.3145,955.4031 1189.5976,997.7915 1152.3113,1022.7747 C1197.6067,1060.8127 1201.6659,1095.2426 1148.218,1129.4932 C1197.6688,1155.9448 1190.7469,1188.5688 1153.5055,1220.0805 C1198.7832,1257.2319 1189.0908,1291.314 1141.6142,1317.0964 C1194.4187,1338.5943 1196.6205,1376.3409 1153.7219,1410.2746 C1203.0627,1446.4233 1186.1428,1483.8035 1142.4845,1509.4104 C1183.1166,1542.6478 1172.997,1580.8915 1130,1602.9694 C1140.5546,1605.5406 1140.8048,1611.1525 1135.4067,1619.0781 C1106.2295,1660.3175 1057.5657,1671.6886 1031.6012,1615.6498 C984.5728,1674.9411 941.94,1663.2131 903.5966,1606.0993 C874.4534,1659.4374 835.5403,1663.2266 795.6546,1617.8454 C754.7888,1680.725 707.846,1676.0575 673.9776,1611.1811 C643.1533,1662.5864 612.0647,1667.4828 572.2651,1620.4555 C518.6577,1674.8382 468.3445,1659.9148 436,1595.9694 C438.0579,1596.4695 438.9562,1598.0412 437.5278,1599.8973 C392.3834,1565.5487 399.5493,1525.7487 448.9365,1502.4696 C404.5459,1479.7168 404.0968,1449.9171 437.4097,1416.7192 C396.2544,1385.5307 397.2942,1348.5297 441.2161,1320.7144 C389.3013,1298.4947 381.2265,1245.7383 430.2515,1213.2223 C395.4223,1185.5948 401.9546,1143.1615 442.9657,1126.6752 C386.9307,1107.0223 377.2224,1057.9801 426.8132,1022.0243 C387.4011,990.4549 379.2939,953.7327 427.7982,923.0382 C383.2951,888.7224 395.7398,852.2903 439.9522,829.502 C393.2946,801.7219 398.3132,772.5942 433.3677,738.8772 C377.9674,715.3288 379.3993,667.1208 429.7775,639.7417 C388.2218,606.5961 381.5315,563.5296 437.7653,538.0664 C387.3927,513.9381 386.5558,469.2559 434.2097,441.5176 C388.7253,404.3843 399.2266,370.8737 447.1358,346.4373 C389.9131,318.855 400.4476,271.0544 443,239.6094 C449.4352,237.6653 452.9467,241.2092 451.5221,247.6233" fill="none" style="stroke:#181818;stroke-width:1;"/><text fill="#000000" font-family="sans-serif" font-size="14" font-weight="700" lengthAdjust="spacing" textLength="179.6895" x="696.6553" y="259.1426">Google Kubernetes Engine</text></g><!--cluster Kubernetes Cluster--><g class="cluster" data-qualified-name="Google Cloud Platform.GKE.Kubernetes Cluster" data-source-line="35" id="ent0006"><rect fill="#FFFFFF" height="1295.36" rx="2.5" ry="2.5" style="stroke:#000000;stroke-width:1;" width="645" x="468" y="283.6094"/><text fill="#000000" font-family="sans-serif" font-size="14" font-weight="700" lengthAdjust="spacing" textLength="129.1445" x="725.9277" y="300.1426">Kubernetes Cluster</text></g><!--cluster NS--><g class="cluster" data-qualified-name="Google Cloud Platform.GKE.Kubernetes Cluster.NS" data-source-line="36" id="ent0007"><polygon fill="#FFFFFF" points="492,337.6094,502,327.6094,1089,327.6094,1089,1544.9694,1079,1554.9694,492,1554.9694,492,337.6094" style="stroke:#000000;stroke-width:1;stroke-linejoin:miter;stroke-miterlimit:10;"/><line style="stroke:#000000;stroke-width:1;" x1="1079" x2="1089" y1="337.6094" y2="327.6094"/><line style="stroke:#000000;stroke-width:1;" x1="492" x2="1079" y1="337.6094" y2="337.6094"/><line style="stroke:#000000;stroke-width:1;" x1="1079" x2="1079" y1="337.6094" y2="1554.9694"/><text fill="#000000" font-family="sans-serif" font-size="14" font-weight="700" lengthAdjust="spacing" textLength="158.7373" x="707.1313" y="355.1426">Kubernetes Namespace</text></g><!--cluster Deployment Instance--><g class="cluster" data-qualified-name="Google Cloud Platform.GKE.Kubernetes Cluster.NS.Deployment Instance" data-source-line="37" id="ent0008"><path d="M518.5,376.6094 L660.3135,376.6094 A3.75,3.75 0 0 1 662.8135,379.1094 L669.8135,400.2188 L1062.5,400.2188 A2.5,2.5 0 0 1 1065,402.7188 L1065,1528.4694 A2.5,2.5 0 0 1 1062.5,1530.9694 L518.5,1530.9694 A2.5,2.5 0 0 1 516,1528.4694 L516,379.1094 A2.5,2.5 0 0 1 518.5,376.6094" fill="none" style="stroke:#000000;stroke-width:1.5;"/><line style="stroke:#000000;stroke-width:1.5;" x1="516" x2="669.8135" y1="400.2188" y2="400.2188"/><text fill="#000000" font-family="sans-serif" font-size="14" font-weight="700" lengthAdjust="spacing" textLength="140.8135" x="520" y="393.1426">Deployment Instance</text></g><!--cluster DEPLOYMENT--><g class="cluster" data-qualified-name="Google Cloud Platform.GKE.Kubernetes Cluster.NS.Deployment Instance.DEPLOYMENT" data-source-line="40" id="ent0011"><rect fill="#FFFFFF" height="829.36" rx="2.5" ry="2.5" style="stroke:#000000;stroke-width:1;" width="389" x="548" y="565.1094"/><text fill="#000000" font-family="sans-serif" font-size="14" font-weight="700" lengthAdjust="spacing" textLength="80.124" x="702.438" y="581.6426">Deployment</text></g><!--cluster POD--><g class="cluster" data-qualified-name="Google Cloud Platform.GKE.Kubernetes Cluster.NS.Deployment Instance.DEPLOYMENT.POD" data-source-line="41" id="ent0012"><rect fill="#FFFFFF" height="638" rx="2.5" ry="2.5" style="stroke:#000000;stroke-width:1;" width="309" x="588" y="716.4694"/><rect fill="#FFFFFF" height="10" style="stroke:#000000;stroke-width:1;" width="15" x="877" y="721.4694"/><rect fill="#FFFFFF" height="2" style="stroke:#000000;stroke-width:1;" width="4" x="875" y="723.4694"/><rect fill="#FFFFFF" height="2" style="stroke:#000000;stroke-width:1;" width="4" x="875" y="727.4694"/><text fill="#000000" font-family="sans-serif" font-size="14" font-weight="700" lengthAdjust="spacing" textLength="83.2275" x="700.8862" y="744.0026">Adapter Pod</text></g><!--cluster CONTAINER--><g class="cluster" data-qualified-name="Google Cloud Platform.GKE.Kubernetes Cluster.NS.Deployment Instance.DEPLOYMENT.POD.CONTAINER" data-source-line="42" id="ent0013"><rect fill="#FFFFFF" height="538" rx="2.5" ry="2.5" style="stroke:#000000;stroke-width:1;" width="221" x="628" y="776.4694"/><rect fill="#FFFFFF" height="10" style="stroke:#000000;stroke-width:1;" width="15" x="829" y="781.4694"/><rect fill="#FFFFFF" height="2" style="stroke:#000000;stroke-width:1;" width="4" x="827" y="783.4694"/><rect fill="#FFFFFF" height="2" style="stroke:#000000;stroke-width:1;" width="4" x="827" y="787.4694"/><text fill="#000000" font-family="sans-serif" font-size="14" font-weight="700" lengthAdjust="spacing" textLength="122.124" x="677.438" y="804.0026">Adapter Container</text></g><!--cluster PREREQS--><g class="cluster" data-qualified-name="PREREQS" data-source-line="74" id="ent0031"><rect fill="#FFFFFF" height="437.5" rx="2.5" ry="2.5" style="stroke:#000000;stroke-width:1;" width="357" x="7" y="45.6094"/><text fill="#000000" font-family="sans-serif" font-size="14" font-weight="700" lengthAdjust="spacing" textLength="122.9375" x="124.0313" y="62.1426">GCP Prerequisites</text></g><!--entity CLIENTS--><g class="entity" data-qualified-name="Google Cloud Platform.CLIENTS" data-source-line="55" id="ent0019"><rect fill="#FFFFFF" height="37.6094" rx="2.5" ry="2.5" style="stroke:#000000;stroke-width:0.5;" width="150.7168" x="848.5" y="1698.9694"/><text fill="#000000" font-family="sans-serif" font-size="14" lengthAdjust="spacing" textLength="130.7168" x="858.5" y="1723.5026">External Web Clients</text></g><!--entity PUBSUB_TOPIC--><g class="entity" data-qualified-name="Google Cloud Platform.GCP Project.PUBSUB_TOPIC" data-source-line="31" id="ent0003"><rect fill="#FFFFFF" height="47.6094" rx="2.5" ry="2.5" style="stroke:#000000;stroke-width:0.5;" width="131.834" x="1215" y="823.9694"/><rect fill="#FFFFFF" height="10" style="stroke:#000000;stroke-width:0.5;" width="15" x="1326.834" y="828.9694"/><rect fill="#FFFFFF" height="2" style="stroke:#000000;stroke-width:0.5;" width="4" x="1324.834" y="830.9694"/><rect fill="#FFFFFF" height="2" style="stroke:#000000;stroke-width:0.5;" width="4" x="1324.834" y="834.9694"/><text fill="#000000" font-family="sans-serif" font-size="14" lengthAdjust="spacing" textLength="91.834" x="1230" y="858.5026">Pub/Sub Topic</text></g><!--entity PUBSUB_SUB--><g class="entity" data-qualified-name="Google Cloud Platform.GCP Project.PUBSUB_SUB" data-source-line="32" id="ent0004"><rect fill="#FFFFFF" height="47.6094" rx="2.5" ry="2.5" style="stroke:#000000;stroke-width:0.5;" width="174.6406" x="1193.5" y="956.9694"/><rect fill="#FFFFFF" height="10" style="stroke:#000000;stroke-width:0.5;" width="15" x="1348.1406" y="961.9694"/><rect fill="#FFFFFF" height="2" style="stroke:#000000;stroke-width:0.5;" width="4" x="1346.1406" y="963.9694"/><rect fill="#FFFFFF" height="2" style="stroke:#000000;stroke-width:0.5;" width="4" x="1346.1406" y="967.9694"/><text fill="#000000" font-family="sans-serif" font-size="14" lengthAdjust="spacing" textLength="134.6406" x="1208.5" y="991.5026">Pub/Sub Subscription</text></g><!--entity CONFIGMAP--><g class="entity" data-qualified-name="Google Cloud Platform.GKE.Kubernetes Cluster.NS.Deployment Instance.CONFIGMAP" data-source-line="38" id="ent0009"><rect fill="#FFFFFF" height="37.6094" rx="2.5" ry="2.5" style="stroke:#000000;stroke-width:0.5;" width="87.7031" x="961" y="574.4694"/><text fill="#000000" font-family="sans-serif" font-size="14" lengthAdjust="spacing" textLength="67.7031" x="971" y="599.0026">ConfigMap</text></g><!--entity HPA--><g class="entity" data-qualified-name="Google Cloud Platform.GKE.Kubernetes Cluster.NS.Deployment Instance.HPA" data-source-line="39" id="ent0010"><rect fill="#FFFFFF" height="37.6094" rx="2.5" ry="2.5" style="stroke:#000000;stroke-width:0.5;" width="174.082" x="734" y="412.6094"/><text fill="#000000" font-family="sans-serif" font-size="14" lengthAdjust="spacing" textLength="154.082" x="744" y="437.1426">HorizontalPodAutoscaler</text></g><!--entity SERVICE--><g class="entity" data-qualified-name="Google Cloud Platform.GKE.Kubernetes Cluster.NS.Deployment Instance.SERVICE" data-source-line="50" id="ent0018"><rect fill="#FFFFFF" height="37.6094" rx="2.5" ry="2.5" style="stroke:#000000;stroke-width:0.5;" width="66.6826" x="890.5" y="1476.9694"/><text fill="#000000" font-family="sans-serif" font-size="14" lengthAdjust="spacing" textLength="46.6826" x="900.5" y="1501.5026">Service</text></g><!--entity ENV_SYMBOL--><g class="entity" data-qualified-name="Google Cloud Platform.GKE.Kubernetes Cluster.NS.Deployment Instance.DEPLOYMENT.POD.CONTAINER.ENV_SYMBOL" data-source-line="43" id="ent0014"><rect fill="#FFFFFF" height="55.2188" rx="2.5" ry="2.5" style="stroke:#000000;stroke-width:0.5;" width="153.8477" x="671" y="820.4694"/><text fill="#000000" font-family="sans-serif" font-size="14" lengthAdjust="spacing" textLength="133.8477" x="681" y="845.0026">Environment Variable</text><text fill="#000000" font-family="sans-serif" font-size="14" lengthAdjust="spacing" textLength="58.3516" x="681" y="862.612">SYMBOL</text></g><!--entity EXEC_SH--><g class="entity" data-qualified-name="Google Cloud Platform.GKE.Kubernetes Cluster.NS.Deployment Instance.DEPLOYMENT.POD.CONTAINER.EXEC_SH" data-source-line="44" id="ent0015"><rect fill="#FFFFFF" height="55.2188" rx="2.5" ry="2.5" style="stroke:#000000;stroke-width:0.5;" width="122.71" x="686.5" y="953.4694"/><text fill="#000000" font-family="sans-serif" font-size="14" lengthAdjust="spacing" textLength="102.71" x="696.5" y="978.0026">Entrypoint Script</text><text fill="#000000" font-family="sans-serif" font-size="14" lengthAdjust="spacing" textLength="48.248" x="696.5" y="995.612">exec.sh</text></g><!--entity PULLTOP--><g class="entity" data-qualified-name="Google Cloud Platform.GKE.Kubernetes Cluster.NS.Deployment Instance.DEPLOYMENT.POD.CONTAINER.PULLTOP" data-source-line="45" id="ent0016"><rect fill="#FFFFFF" height="55.2188" rx="2.5" ry="2.5" style="stroke:#000000;stroke-width:0.5;" width="121.9307" x="687" y="1102.4694"/><text fill="#000000" font-family="sans-serif" font-size="14" lengthAdjust="spacing" textLength="101.9307" x="697" y="1127.0026">Node.js Process</text><text fill="#000000" font-family="sans-serif" font-size="14" lengthAdjust="spacing" textLength="41.2549" x="697" y="1144.612">pulltop</text></g><!--entity WEBSOCKETD--><g class="entity" data-qualified-name="Google Cloud Platform.GKE.Kubernetes Cluster.NS.Deployment Instance.DEPLOYMENT.POD.CONTAINER.WEBSOCKETD" data-source-line="46" id="ent0017"><rect fill="#FFFFFF" height="55.2188" rx="2.5" ry="2.5" style="stroke:#000000;stroke-width:0.5;" width="148.3926" x="677" y="1235.4694"/><text fill="#000000" font-family="sans-serif" font-size="14" lengthAdjust="spacing" textLength="128.3926" x="687" y="1260.0026">WebSocket Daemon</text><text fill="#000000" font-family="sans-serif" font-size="14" lengthAdjust="spacing" textLength="73.9307" x="687" y="1277.612">websocketd</text></g><!--entity Billing Enabled--><g class="entity" data-qualified-name="PREREQS.Billing Enabled" data-source-line="75" id="ent0032"><rect fill="#FFFFFF" height="37.6094" rx="2.5" ry="2.5" style="stroke:#000000;stroke-width:0.5;" width="112.6201" x="31.5" y="89.6094"/><text fill="#000000" font-family="sans-serif" font-size="14" lengthAdjust="spacing" textLength="92.6201" x="41.5" y="114.1426">Billing Enabled</text></g><!--entity Topic Read Access--><g class="entity" data-qualified-name="PREREQS.Topic Read Access" data-source-line="76" id="ent0033"><rect fill="#FFFFFF" height="37.6094" rx="2.5" ry="2.5" style="stroke:#000000;stroke-width:0.5;" width="140.6064" x="179.5" y="89.6094"/><text fill="#000000" font-family="sans-serif" font-size="14" lengthAdjust="spacing" textLength="120.6064" x="189.5" y="114.1426">Topic Read Access</text></g><!--entity Subscription Creation\nPermission--><g class="entity" data-qualified-name="PREREQS.Subscription Creation.nPermission" data-source-line="77" id="ent0034"><rect fill="#FFFFFF" height="55.2188" rx="2.5" ry="2.5" style="stroke:#000000;stroke-width:0.5;" width="153.8477" x="31" y="404.1094"/><text fill="#000000" font-family="sans-serif" font-size="14" lengthAdjust="spacing" textLength="133.8477" x="41" y="428.6426">Subscription Creation</text><text fill="#000000" font-family="sans-serif" font-size="14" lengthAdjust="spacing" textLength="69.2412" x="41" y="446.252">Permission</text></g><g class="entity" data-qualified-name="GMN36" data-source-line="82" id="ent0037"><path d="M391.5,95.6094 L391.5,121.9609 L564.2471,121.9609 L564.2471,105.6094 L554.2471,95.6094 L391.5,95.6094" fill="#FEFFDD" style="stroke:#181818;stroke-width:0.5;"/><path d="M554.2471,95.6094 L554.2471,105.6094 L564.2471,105.6094 L554.2471,95.6094" fill="#FEFFDD" style="stroke:#181818;stroke-width:1;"/><text fill="#000000" font-family="sans-serif" font-size="13" lengthAdjust="spacing" textLength="151.7471" x="397.5" y="114.1045">Deployment Preconditions</text></g><g class="entity" data-qualified-name="GMN39" data-source-line="86" id="ent0040"><path d="M1425.5,826.4694 L1425.5,869.1725 L1636.5488,869.1725 L1636.5488,836.4694 L1626.5488,826.4694 L1425.5,826.4694" fill="#FEFFDD" style="stroke:#181818;stroke-width:0.5;"/><path d="M1626.5488,826.4694 L1626.5488,836.4694 L1636.5488,836.4694 L1626.5488,826.4694" fill="#FEFFDD" style="stroke:#181818;stroke-width:1;"/><text fill="#000000" font-family="sans-serif" font-size="13" lengthAdjust="spacing" textLength="127.8862" x="1431.5" y="844.9645">Runtime Composition:</text><text fill="#000000" font-family="sans-serif" font-size="13" lengthAdjust="spacing" textLength="190.0488" x="1431.5" y="861.3161">exec.sh -&gt; pulltop -&gt; websocketd</text></g><g class="entity" data-qualified-name="GMN42" data-source-line="91" id="ent0043"><path d="M1672,826.4694 L1672,869.1725 L1875.8442,869.1725 L1875.8442,836.4694 L1865.8442,826.4694 L1672,826.4694" fill="#FEFFDD" style="stroke:#181818;stroke-width:0.5;"/><path d="M1865.8442,826.4694 L1865.8442,836.4694 L1875.8442,836.4694 L1865.8442,826.4694" fill="#FEFFDD" style="stroke:#181818;stroke-width:1;"/><text fill="#000000" font-family="sans-serif" font-size="13" lengthAdjust="spacing" textLength="140.8862" x="1678" y="844.9645">Multiplexes many clients</text><text fill="#000000" font-family="sans-serif" font-size="13" lengthAdjust="spacing" textLength="182.8442" x="1678" y="861.3161">using one Pub/Sub subscription</text></g><g class="entity" data-qualified-name="GMN45" data-source-line="96" id="ent0046"><path d="M1425,1241.4694 L1425,1258.9694 L825.29,1262.9694 L1425,1266.9694 L1425,1284.1725 A0,0 0 0 0 1425,1284.1725 L1547.1626,1284.1725 A0,0 0 0 0 1547.1626,1284.1725 L1547.1626,1251.4694 L1537.1626,1241.4694 L1425,1241.4694 A0,0 0 0 0 1425,1241.4694" fill="#FEFFDD" style="stroke:#181818;stroke-width:0.5;"/><path d="M1537.1626,1241.4694 L1537.1626,1251.4694 L1547.1626,1251.4694 L1537.1626,1241.4694" fill="#FEFFDD" style="stroke:#181818;stroke-width:0.5;"/><text fill="#000000" font-family="sans-serif" font-size="13" lengthAdjust="spacing" textLength="93.2153" x="1431" y="1259.9645">Serves cache of</text><text fill="#000000" font-family="sans-serif" font-size="13" lengthAdjust="spacing" textLength="101.1626" x="1431" y="1276.3161">last 10 messages</text></g><g class="entity" data-qualified-name="GMN48" data-source-line="101" id="ent0049"><path d="M1425.5,1466.4694 L1425.5,1491.9694 L957.68,1495.9694 L1425.5,1499.9694 L1425.5,1525.5241 A0,0 0 0 0 1425.5,1525.5241 L1562.8525,1525.5241 A0,0 0 0 0 1562.8525,1525.5241 L1562.8525,1476.4694 L1552.8525,1466.4694 L1425.5,1466.4694 A0,0 0 0 0 1425.5,1466.4694" fill="#FEFFDD" style="stroke:#181818;stroke-width:0.5;"/><path d="M1552.8525,1466.4694 L1552.8525,1476.4694 L1562.8525,1476.4694 L1552.8525,1466.4694" fill="#FEFFDD" style="stroke:#181818;stroke-width:0.5;"/><text fill="#000000" font-family="sans-serif" font-size="13" lengthAdjust="spacing" textLength="116.3525" x="1431.5" y="1484.9645">Type: LoadBalancer</text><text fill="#000000" font-family="sans-serif" font-size="13" lengthAdjust="spacing" textLength="96.8271" x="1431.5" y="1501.3161">External Port: 80</text><text fill="#000000" font-family="sans-serif" font-size="13" lengthAdjust="spacing" textLength="101.1689" x="1431.5" y="1517.6676">Target Port: 8080</text></g><!--link PUBSUB_TOPIC to PUBSUB_SUB--><g class="link" data-entity-1="ent0003" data-entity-2="ent0004" data-link-type="dependency" data-source-line="59" id="lnk20"><path d="M1281,872.0894 C1281,895.8894 1281,927.7694 1281,951.6394" fill="none" id="PUBSUB_TOPIC-to-PUBSUB_SUB" style="stroke:#000000;stroke-width:1;"/><polygon fill="#000000" points="1281,956.6394,1285,947.6394,1281,951.6394,1277,947.6394,1281,956.6394" style="stroke:#000000;stroke-width:1;stroke-linejoin:miter;stroke-miterlimit:10;"/><text fill="#000000" font-family="sans-serif" font-size="13" lengthAdjust="spacing" textLength="59.249" x="1282" y="919.9645">Messages</text></g><!--link PUBSUB_SUB to PULLTOP--><g class="link" data-entity-1="ent0004" data-entity-2="ent0016" data-link-type="dependency" data-source-line="60" id="lnk21"><path d="M1193.29,1000.8194 C1098.48,1022.0594 943.43,1059.3094 813,1102.4694 C811.73,1102.8894 815.161,1101.6725 813.871,1102.1225" fill="none" id="PUBSUB_SUB-to-PULLTOP" style="stroke:#000000;stroke-width:1;"/><polygon fill="#000000" points="809.15,1103.7694,818.9653,1104.5818,813.871,1102.1225,816.3303,1097.0282,809.15,1103.7694" style="stroke:#000000;stroke-width:1;stroke-linejoin:miter;stroke-miterlimit:10;"/><text fill="#000000" font-family="sans-serif" font-size="13" lengthAdjust="spacing" textLength="84.5381" x="1030" y="1060.9645">Pull Messages</text></g><!--link PULLTOP to WEBSOCKETD--><g class="link" data-entity-1="ent0016" data-entity-2="ent0017" data-link-type="dependency" data-source-line="61" id="lnk22"><path d="M686.76,1157.3694 C667.02,1169.9594 652.6,1186.4394 663,1205.4694 C669.62,1217.5794 675.9542,1224.6258 687.3642,1232.5558" fill="none" id="PULLTOP-to-WEBSOCKETD" style="stroke:#000000;stroke-width:1;"/><polygon fill="#000000" points="691.47,1235.4094,686.3624,1226.9884,687.3642,1232.5558,681.7968,1233.5576,691.47,1235.4094" style="stroke:#000000;stroke-width:1;stroke-linejoin:miter;stroke-miterlimit:10;"/><text fill="#000000" font-family="sans-serif" font-size="13" lengthAdjust="spacing" textLength="84.5381" x="664" y="1201.9645">Stream Output</text></g><!--link WEBSOCKETD to SERVICE--><g class="link" data-entity-1="ent0017" data-entity-2="ent0018" data-link-type="dependency" data-source-line="62" id="lnk23"><path d="M761.97,1290.6794 C775.26,1321.3094 799.57,1372.2194 829,1410.4694 C839.36,1423.9294 844.38,1425.1094 857,1436.4694 C872.26,1450.2094 885.9674,1462.1995 899.2474,1473.6795" fill="none" id="WEBSOCKETD-to-SERVICE" style="stroke:#000000;stroke-width:1;"/><polygon fill="#000000" points="903.03,1476.9494,898.8373,1468.0375,899.2474,1473.6795,893.6055,1474.0897,903.03,1476.9494" style="stroke:#000000;stroke-width:1;stroke-linejoin:miter;stroke-miterlimit:10;"/><text fill="#000000" font-family="sans-serif" font-size="13" lengthAdjust="spacing" textLength="56.3735" x="858" y="1432.9645">Port 8080</text></g><!--link SERVICE to CLIENTS--><g class="link" data-entity-1="ent0018" data-entity-2="ent0019" data-link-type="dependency" data-source-line="63" id="lnk24"><path d="M924,1514.9694 C924,1556.2294 924,1652.2194 924,1693.7194" fill="none" id="SERVICE-to-CLIENTS" style="stroke:#000000;stroke-width:1;"/><polygon fill="#000000" points="924,1698.7194,928,1689.7194,924,1693.7194,920,1689.7194,924,1698.7194" style="stroke:#000000;stroke-width:1;stroke-linejoin:miter;stroke-miterlimit:10;"/><text fill="#000000" font-family="sans-serif" font-size="13" lengthAdjust="spacing" textLength="66.4727" x="925" y="1649.4645">WebSocket</text><text fill="#000000" font-family="sans-serif" font-size="13" lengthAdjust="spacing" textLength="41.9136" x="937.2795" y="1665.8161">Port 80</text></g><!--link CONFIGMAP to ENV_SYMBOL--><g class="link" data-entity-1="ent0009" data-entity-2="ent0014" data-link-type="dependency" data-source-line="66" id="lnk25"><path d="M997.47,612.5094 C988.26,632.0494 970.64,662.3294 945,676.4694 C922.37,688.9494 850.49,670.1194 829,684.4694 C782.07,715.7994 762.2556,777.8787 753.9256,815.3287" fill="none" id="CONFIGMAP-to-ENV_SYMBOL" style="stroke:#000000;stroke-width:1;"/><polygon fill="#000000" points="752.84,820.2094,758.6987,812.2926,753.9256,815.3287,750.8895,810.5556,752.84,820.2094" style="stroke:#000000;stroke-width:1;stroke-linejoin:miter;stroke-miterlimit:10;"/><text fill="#000000" font-family="sans-serif" font-size="13" lengthAdjust="spacing" textLength="27.46" x="981" y="664.9645">topic</text></g><!--link ENV_SYMBOL to EXEC_SH--><g class="link" data-entity-1="ent0014" data-entity-2="ent0015" data-link-type="dependency" data-source-line="67" id="lnk26"><path d="M712.72,875.7994 C699.58,889.2394 689.29,906.2794 696,923.4694 C700.31,934.5194 704.4863,941.0754 712.5663,949.6754" fill="none" id="ENV_SYMBOL-to-EXEC_SH" style="stroke:#000000;stroke-width:1;"/><polygon fill="#000000" points="715.99,953.3194,712.7426,944.0213,712.5663,949.6754,706.9122,949.4991,715.99,953.3194" style="stroke:#000000;stroke-width:1;stroke-linejoin:miter;stroke-miterlimit:10;"/><text fill="#000000" font-family="sans-serif" font-size="13" lengthAdjust="spacing" textLength="60.6899" x="697" y="919.9645">Parameter</text></g><!--link EXEC_SH to PULLTOP--><g class="link" data-entity-1="ent0015" data-entity-2="ent0016" data-link-type="dependency" data-source-line="68" id="lnk27"><path d="M720.11,1008.6094 C712.78,1017.3494 705.86,1027.6194 702,1038.4694 C696.94,1052.7094 696.94,1058.2294 702,1072.4694 C705.86,1083.3194 709.567,1089.7583 716.897,1098.4983" fill="none" id="EXEC_SH-to-PULLTOP" style="stroke:#000000;stroke-width:1;"/><polygon fill="#000000" points="720.11,1102.3294,717.3915,1092.8631,716.897,1098.4983,711.2618,1098.0039,720.11,1102.3294" style="stroke:#000000;stroke-width:1;stroke-linejoin:miter;stroke-miterlimit:10;"/><text fill="#000000" font-family="sans-serif" font-size="13" lengthAdjust="spacing" textLength="54.1836" x="703" y="1052.9645">Start with</text><text fill="#000000" font-family="sans-serif" font-size="13" lengthAdjust="spacing" textLength="54.1836" x="703" y="1069.3161">SYMBOL</text></g><!--link HPA to DEPLOYMENT--><g class="link" data-entity-1="ent0010" data-entity-2="ent0011" data-link-type="dependency" data-source-line="69" id="lnk28"><path d="M821,450.6394 C821,471.2144 821,505.8944 821,535.8106 C821,543.2897 821,550.471 821,557.0598 C821,558.707 821,560.3171 821,561.8857 C821,562.6699 821,563.4438 821,564.2066 C821,564.3973 821,559.5874 821,559.7767" fill="none" id="HPA-to-DEPLOYMENT" style="stroke:#000000;stroke-width:1;"/><polygon fill="#000000" points="821,564.7767,825,555.7767,821,559.7767,817,555.7767,821,564.7767" style="stroke:#000000;stroke-width:1;stroke-linejoin:miter;stroke-miterlimit:10;"/><text fill="#000000" font-family="sans-serif" font-size="13" lengthAdjust="spacing" textLength="57.0908" x="826.3228" y="521.6045">Autoscale</text><text fill="#000000" font-family="sans-serif" font-size="13" lengthAdjust="spacing" textLength="65.7363" x="822" y="537.9561">(CPU 80%)</text></g><!--link DEPLOYMENT to POD--><g class="link" data-entity-1="ent0011" data-entity-2="ent0012" data-link-type="dependency" data-source-line="70" id="lnk29"><path d="M820.95,594.4794 C818.75,594.6894 748.27,601.9594 723,642.4694 C715,655.2894 712.68,665.4294 723,676.4694 C740.94,695.6694 820.49,668.0294 841,684.4694 C848.23,690.2644 854.4075,697.0936 859.6821,704.6148 C862.3193,708.3754 862.3467,707.914 864.5512,711.9778" fill="none" id="DEPLOYMENT-to-POD" style="stroke:#000000;stroke-width:1;"/><polygon fill="#000000" points="866.9354,716.3728,866.1599,706.5545,864.5512,711.9778,859.1279,710.3691,866.9354,716.3728" style="stroke:#000000;stroke-width:1;stroke-linejoin:miter;stroke-miterlimit:10;"/><text fill="#000000" font-family="sans-serif" font-size="13" lengthAdjust="spacing" textLength="106.9453" x="724" y="656.9645">Manages Replicas</text><text fill="#000000" font-family="sans-serif" font-size="13" lengthAdjust="spacing" textLength="27.4473" x="763.749" y="673.3161">(1-2)</text></g><!--link SERVICE to POD--><g class="link" data-entity-1="ent0018" data-entity-2="ent0012" data-link-type="dependency" data-source-line="71" id="lnk30"><path d="M924,1476.6994 C924,1437.6594 924,1343.1794 924,1263.9694 C924,979.9694 924,979.9694 924,979.9694 C924,950.3094 915.5225,918.1119 906.9125,893.0594 C904.76,886.7962 902.5992,880.9797 900.5605,875.761 C899.5412,873.1516 898.5524,870.6917 897.6104,868.4002 C897.4927,868.1138 897.3757,867.83 897.2594,867.5488 C897.2013,867.4082 899.0587,871.8869 899.001,871.7477" fill="none" id="SERVICE-to-POD" style="stroke:#000000;stroke-width:1;"/><polygon fill="#000000" points="897.0856,867.1291,896.8384,876.9749,899.001,871.7477,904.2281,873.9103,897.0856,867.1291" style="stroke:#000000;stroke-width:1;stroke-linejoin:miter;stroke-miterlimit:10;"/><text fill="#000000" font-family="sans-serif" font-size="13" lengthAdjust="spacing" textLength="86.0107" x="925" y="1127.4645">Load Balances</text><text fill="#000000" font-family="sans-serif" font-size="13" lengthAdjust="spacing" textLength="72.2681" x="931.8713" y="1143.8161">Connections</text></g><!--link PREREQS to GKE--><!--link PREREQS to GMN36--><g class="link" data-entity-1="ent0031" data-entity-2="ent0037" data-link-type="association" data-source-line="82" id="lnk38"><path d="M364.0597,108.6094 C364.4206,108.6094 364.7816,108.6094 365.1425,108.6094 C368.03,108.6094 370.9175,108.6094 373.805,108.6094 C379.58,108.6094 385.355,108.6094 391.13,108.6094" fill="none" id="PREREQS-GMN36" style="stroke:#000000;stroke-width:1;stroke-dasharray:7,7;"/></g><!--link CONTAINER to GMN39--><g class="link" data-entity-1="ent0013" data-entity-2="ent0040" data-link-type="association" data-source-line="86" id="lnk41"><path d="M627.9566,802.5262 C627.9236,802.2415 627.8909,801.9559 627.8584,801.6695 C627.7933,801.0966 627.7292,800.5203 627.666,799.9406 C627.4133,797.6218 627.1763,795.2492 626.9591,792.8301 C626.0904,783.1536 625.5403,772.7312 625.5863,762.0169 C625.77,719.1594 635.49,671.6294 672.5,648.4694 C737.96,607.5094 1297.7,615.4294 1367.5,648.4694 C1446.83,686.0194 1500.53,783.0194 1521.34,826.4194" fill="none" id="CONTAINER-GMN39" style="stroke:#000000;stroke-width:1;stroke-dasharray:7,7;"/></g><!--link POD to GMN42--><g class="link" data-entity-1="ent0012" data-entity-2="ent0043" data-link-type="association" data-source-line="91" id="lnk44"><path d="M897.104,839.9883 C897.686,839.4259 898.2979,838.8367 898.9391,838.2213 C904.0686,833.2987 911.0757,826.7103 919.7033,818.9181 C936.9584,803.3337 960.6956,782.9344 988.8588,761.4169 C1045.185,718.3819 1119.215,670.8744 1194.5,648.4694 C1288.64,620.4494 1549.54,602.7894 1636.5,648.4694 C1709.3,686.7094 1751.1,782.8894 1766.79,826.2194" fill="none" id="POD-GMN42" style="stroke:#000000;stroke-width:1;stroke-dasharray:7,7;"/></g><?plantuml-src jLPRRzis57xNhpWJCAnzS9VkgSZ305jM72E-Q9QJj9Y7WAOOcmr5QYJLr1lyttj8NIoxSTxoOCG-_CwLt_cONpBso2M3HHmj-xFH90OgY361UUAo89harM_uFm0O4FgqqQgKMQI4qd2_vPOvkz8PqvLj8124jhxMwldOTAMaxLhstIGgBvHaqhvr8gaozjOvDAEMo8rueqI1vHPZZsvYIChrxscvXdksJXLzOXRw6Iaiqz23T6Siop4aTGcfBJKB0jz-E5BALHS9LMQG268VbSv3N-sXzd0K9P1ezHKjrHbqhYbiKYzLmMa8n41oEqXl1m_BUJAEpg7nOwZcXULATftmWovx_51VL5FYJRbcMZBB3CHoWqJrJgxrgg1EkHre94hiNJTLGtNhNSICvCmKX5RnPccB17XK0ky5mY4hXDhbhlonD9Z5WG-mezoHaezyCoM53nVDPrVZqRIVl0o-Lfh_XxTAHAAoVccLeKIuQj7rEkc_x7IenkE6SJAPVvd6i-LHIKSpRwY0MQfHpuSdu1VXaIiD9wsRNfRzyInU_EHwL5uilt6jf9_M7T6Sh0LRoVJBT32V-3ZnxEwX-lbw6AjtXU8O9VKqMKdsdT4FPbi5-Hn73-drQn5cUDCVlXf7NCgCMScY5CAgeYRRP8BqVCt_i4b3md8bL_APhOstL5EyZmVfFBg9byEJCFlWtA_zorUQClsDrmnCuyNTE8g3KvVgxxxUZUwalkDTIIBSwYFVEGxUL1Ss6IChKgSJls4Fbi2LKCz1TpcXr_kpitXm2U4KPqKsp8H1nrx1_CWS9i59GXTOdJZKOIWEc5hDK0RdfIrA6mQTGuUjM_KHbRRmwUBJHHWqLeUeMt28zZfMiWQ7hgzgtqfDd8u0aHbCYSIoFFzyl-qE-eW7zhcWrajMq35wJ4KkNvUJSUOK96Yi9xD8BS5gdhdTjYmFS7SzhBERY6mNV2NVHSajTl3h-p3eO7pakHzSrOI11IuxfmJP--vZxu_tnzEfiHD5CdnRXDCb1E949B83ns7yX5f-e70mcJ59EJF1J-hEDFktv0OVY8ezoI9Un7-bfq_1W0l1vGOrs2rs5XwV-YS0YyQ2-jHjtSbvL_GXGcwuBtYXJEVS6FSIEBOsgNj_Rtc61V-JOREezFXcMGQQRxOMr6DJ8MRe23GsGfNCkEy_m7x1EGKdhgsMeVEYb9Rd-0Ow0JJUyHBDjTe0fgw5mtqzIC3Ps7Whw3ujXUM5m2W6SY9t-9hvpSIZqhW1ejQsZxRfZELit2EvSOg1aIcXMuQ7QC7_pInyl82yNikpSGu2izmLx18SVMhsQ3IsT75RTeaaTK2YDwY3ZGLjRV0V?></g></svg>