<svg xmlns="http://www.w3.org/2000/svg" xmlns:xlink="http://www.w3.org/1999/xlink" contentStyleType="text/css" data-diagram-type="DESCRIPTION" height="849px" preserveAspectRatio="none" style="width:1288px;height:849px;background:#FEFEFE;" version="1.1" viewBox="0 0 1288 849" width="1288px" zoomAndPan="magnify"><?plantuml 1.2026.6?><defs/><g><rect fill="#FEFEFE" height="849" style="stroke:none;stroke-width:1;" width="1288" x="0" y="0"/><g class="title" data-source-line="9"><text fill="#000000" font-family="Helvetica" font-size="14" font-weight="700" lengthAdjust="spacing" textLength="203.0752" x="539.2437" y="24.5332">TraceLeft System Architecture</text></g><!--cluster Userspace--><g class="cluster" data-qualified-name="Userspace" data-source-line="11" id="ent0001"><path d="M11,44.6094 L67.709,44.6094 A7.5,7.5 0 0 1 72.709,49.6094 L79.709,65.7031 L363,65.7031 A5,5 0 0 1 368,70.7031 L368,682.6094 A5,5 0 0 1 363,687.6094 L11,687.6094 A5,5 0 0 1 6,682.6094 L6,49.6094 A5,5 0 0 1 11,44.6094" fill="none" style="stroke:#000000;stroke-width:1.5;"/><line style="stroke:#000000;stroke-width:1.5;" x1="6" x2="79.709" y1="65.7031" y2="65.7031"/><text fill="#000000" font-family="Helvetica" font-size="12" font-weight="700" lengthAdjust="spacing" textLength="60.709" x="10" y="59.0664">Userspace</text></g><!--cluster Kernel Space--><g class="cluster" data-qualified-name="Kernel Space" data-source-line="20" id="ent0008"><path d="M537,445.6094 L609.0371,445.6094 A7.5,7.5 0 0 1 614.0371,450.6094 L621.0371,466.7031 L1100,466.7031 A5,5 0 0 1 1105,471.7031 L1105,525.6094 A5,5 0 0 1 1100,530.6094 L537,530.6094 A5,5 0 0 1 532,525.6094 L532,450.6094 A5,5 0 0 1 537,445.6094" fill="none" style="stroke:#000000;stroke-width:1.5;"/><line style="stroke:#000000;stroke-width:1.5;" x1="532" x2="621.0371" y1="466.7031" y2="466.7031"/><text fill="#000000" font-family="Helvetica" font-size="12" font-weight="700" lengthAdjust="spacing" textLength="76.0371" x="536" y="460.0664">Kernel Space</text></g><!--cluster eBPF Programs--><g class="cluster" data-qualified-name="eBPF Programs" data-source-line="27" id="ent0013"><path d="M397,602.6094 L483.0293,602.6094 A7.5,7.5 0 0 1 488.0293,607.6094 L495.0293,623.7031 L679,623.7031 A5,5 0 0 1 684,628.7031 L684,829.6094 A5,5 0 0 1 679,834.6094 L397,834.6094 A5,5 0 0 1 392,829.6094 L392,607.6094 A5,5 0 0 1 397,602.6094" fill="none" style="stroke:#000000;stroke-width:1.5;"/><line style="stroke:#000000;stroke-width:1.5;" x1="392" x2="495.0293" y1="623.7031" y2="623.7031"/><text fill="#000000" font-family="Helvetica" font-size="12" font-weight="700" lengthAdjust="spacing" textLength="90.0293" x="396" y="617.0664">eBPF Programs</text></g><!--entity CLI--><g class="entity" data-qualified-name="Userspace.CLI" data-source-line="12" id="ent0002"><rect fill="#F1F1F1" height="35.0938" rx="5" ry="5" style="stroke:#181818;stroke-width:0.5;" width="100.7012" x="128.5" y="78.6094"/><text fill="#000000" font-family="Helvetica" font-size="12" lengthAdjust="spacing" textLength="80.7012" x="138.5" y="101.0664">CLI Entry Point</text></g><!--entity TraceCmd--><g class="entity" data-qualified-name="Userspace.TraceCmd" data-source-line="13" id="ent0003"><rect fill="#F1F1F1" height="35.0938" rx="5" ry="5" style="stroke:#181818;stroke-width:0.5;" width="109.3613" x="124.5" y="205.6094"/><text fill="#000000" font-family="Helvetica" font-size="12" lengthAdjust="spacing" textLength="89.3613" x="134.5" y="228.0664">Trace Command</text></g><!--entity Tracer--><g class="entity" data-qualified-name="Userspace.Tracer" data-source-line="14" id="ent0004"><rect fill="#F1F1F1" height="35.0938" rx="5" ry="5" style="stroke:#181818;stroke-width:0.5;" width="115.3613" x="236.5" y="332.6094"/><text fill="#000000" font-family="Helvetica" font-size="12" lengthAdjust="spacing" textLength="95.3613" x="246.5" y="355.0664">Userspace Tracer</text></g><!--entity Config--><g class="entity" data-qualified-name="Userspace.Config" data-source-line="15" id="ent0005"><rect fill="#F1F1F1" height="35.0938" rx="5" ry="5" style="stroke:#181818;stroke-width:0.5;" width="178.7656" x="22.5" y="332.6094"/><text fill="#000000" font-family="Helvetica" font-size="12" lengthAdjust="spacing" textLength="158.7656" x="32.5" y="355.0664">Event Configuration Metadata</text></g><!--entity Generator--><g class="entity" data-qualified-name="Userspace.Generator" data-source-line="16" id="ent0006"><rect fill="#F1F1F1" height="35.0938" rx="5" ry="5" style="stroke:#181818;stroke-width:0.5;" width="119.3867" x="68.5" y="479.6094"/><text fill="#000000" font-family="Helvetica" font-size="12" lengthAdjust="spacing" textLength="99.3867" x="78.5" y="502.0664">Handler Generator</text></g><!--entity HandlerSource--><g class="entity" data-qualified-name="Userspace.HandlerSource" data-source-line="17" id="ent0007"><rect fill="#F1F1F1" height="35.0938" rx="5" ry="5" style="stroke:#181818;stroke-width:0.5;" width="196.7656" x="88.5" y="636.6094"/><text fill="#000000" font-family="Helvetica" font-size="12" lengthAdjust="spacing" textLength="176.7656" x="98.5" y="659.0664">Generated eBPF Handler Source</text></g><!--entity Kernel--><g class="entity" data-qualified-name="Kernel Space.Kernel" data-source-line="21" id="ent0009"><rect fill="#F1F1F1" height="35.0938" rx="5" ry="5" style="stroke:#181818;stroke-width:0.5;" width="86.709" x="842.5" y="479.6094"/><text fill="#000000" font-family="Helvetica" font-size="12" lengthAdjust="spacing" textLength="66.709" x="852.5" y="502.0664">Linux Kernel</text></g><!--entity eBPF--><g class="entity" data-qualified-name="Kernel Space.eBPF" data-source-line="22" id="ent0010"><rect fill="#F1F1F1" height="35.0938" rx="5" ry="5" style="stroke:#181818;stroke-width:0.5;" width="112.7012" x="548.5" y="479.6094"/><text fill="#000000" font-family="Helvetica" font-size="12" lengthAdjust="spacing" textLength="92.7012" x="558.5" y="502.0664">eBPF Subsystem</text></g><!--entity Probes--><g class="entity" data-qualified-name="Kernel Space.Probes" data-source-line="23" id="ent0011"><rect fill="#F1F1F1" height="35.0938" rx="5" ry="5" style="stroke:#181818;stroke-width:0.5;" width="110.7207" x="696.5" y="479.6094"/><text fill="#000000" font-family="Helvetica" font-size="12" lengthAdjust="spacing" textLength="90.7207" x="706.5" y="502.0664">kprobe/kretprobe</text></g><!--entity PerfChannel--><g class="entity" data-qualified-name="Kernel Space.PerfChannel" data-source-line="24" id="ent0012"><rect fill="#F1F1F1" height="35.0938" rx="5" ry="5" style="stroke:#181818;stroke-width:0.5;" width="124.0625" x="965" y="479.6094"/><text fill="#000000" font-family="Helvetica" font-size="12" lengthAdjust="spacing" textLength="104.0625" x="975" y="502.0664">Perf Event Channel</text></g><!--entity MainBPF--><g class="entity" data-qualified-name="eBPF Programs.MainBPF" data-source-line="28" id="ent0014"><rect fill="#F1F1F1" height="35.0938" rx="5" ry="5" style="stroke:#181818;stroke-width:0.5;" width="128.7031" x="538.5" y="636.6094"/><text fill="#000000" font-family="Helvetica" font-size="12" lengthAdjust="spacing" textLength="108.7031" x="548.5" y="659.0664">Main eBPF Program</text></g><!--entity HandlerBPF--><g class="entity" data-qualified-name="eBPF Programs.HandlerBPF" data-source-line="29" id="ent0015"><rect fill="#F1F1F1" height="35.0938" rx="5" ry="5" style="stroke:#181818;stroke-width:0.5;" width="150.7168" x="516.5" y="783.6094"/><text fill="#000000" font-family="Helvetica" font-size="12" lengthAdjust="spacing" textLength="130.7168" x="526.5" y="806.0664">Handler eBPF Programs</text></g><!--entity HandlerMaps--><g class="entity" data-qualified-name="eBPF Programs.HandlerMaps" data-source-line="30" id="ent0016"><rect fill="#F1F1F1" height="35.0938" rx="5" ry="5" style="stroke:#181818;stroke-width:0.5;" width="94.7012" x="408.5" y="636.6094"/><text fill="#000000" font-family="Helvetica" font-size="12" lengthAdjust="spacing" textLength="74.7012" x="418.5" y="659.0664">Handler Maps</text></g><g class="entity" data-qualified-name="GMN32" data-source-line="52" id="ent0033"><path d="M901,631.6094 L901,676.8906 A5,5 0 0 0 906,681.8906 L1051.748,681.8906 A5,5 0 0 0 1056.748,676.8906 L1056.748,636.6094 L1046.748,626.6094 L906,626.6094 A5,5 0 0 0 901,631.6094" fill="#FEFFDD" style="stroke:#181818;stroke-width:0.5;"/><path d="M1046.748,626.6094 L1046.748,634.1094 A2.5,2.5 0 0 0 1049.248,636.6094 L1056.748,636.6094 L1046.748,626.6094" fill="#FEFFDD" style="stroke:#181818;stroke-width:1;"/><text fill="#000000" font-family="Helvetica" font-size="12" lengthAdjust="spacing" textLength="90.0352" x="907" y="644.0664">Naming scheme:</text><text fill="#000000" font-family="Helvetica" font-size="12" lengthAdjust="spacing" textLength="114.0703" x="907" y="659.1602">handle_NAME_progs</text><text fill="#000000" font-family="Helvetica" font-size="12" lengthAdjust="spacing" textLength="134.748" x="907" y="674.2539">handle_NAME_progs_ret</text></g><g class="entity" data-qualified-name="GMN35" data-source-line="58" id="ent0036"><path d="M703,778.6094 L703,797.1094 L667.6,801.1094 L703,805.1094 L703,823.8906 A5,5 0 0 0 708,828.8906 L850.4082,828.8906 A5,5 0 0 0 855.4082,823.8906 L855.4082,783.6094 L845.4082,773.6094 L708,773.6094 A5,5 0 0 0 703,778.6094" fill="#FEFFDD" style="stroke:#181818;stroke-width:0.5;"/><path d="M845.4082,773.6094 L845.4082,781.1094 A2.5,2.5 0 0 0 847.9082,783.6094 L855.4082,783.6094 L845.4082,773.6094" fill="#FEFFDD" style="stroke:#181818;stroke-width:0.5;"/><text fill="#000000" font-family="Helvetica" font-size="12" lengthAdjust="spacing" textLength="90.0352" x="709" y="791.0664">Naming scheme:</text><text fill="#000000" font-family="Helvetica" font-size="12" lengthAdjust="spacing" textLength="117.4043" x="709" y="806.1602">kprobe/handle_NAME</text><text fill="#000000" font-family="Helvetica" font-size="12" lengthAdjust="spacing" textLength="131.4082" x="709" y="821.2539">kretprobe/handle_NAME</text></g><g class="entity" data-qualified-name="GMN38" data-source-line="64" id="ent0039"><path d="M1124.5,474.6094 L1124.5,493.1094 L1089.15,497.1094 L1124.5,501.1094 L1124.5,519.8906 A5,5 0 0 0 1129.5,524.8906 L1268.5625,524.8906 A5,5 0 0 0 1273.5625,519.8906 L1273.5625,479.6094 L1263.5625,469.6094 L1129.5,469.6094 A5,5 0 0 0 1124.5,474.6094" fill="#FEFFDD" style="stroke:#181818;stroke-width:0.5;"/><path d="M1263.5625,469.6094 L1263.5625,477.1094 A2.5,2.5 0 0 0 1266.0625,479.6094 L1273.5625,479.6094 L1263.5625,469.6094" fill="#FEFFDD" style="stroke:#181818;stroke-width:0.5;"/><text fill="#000000" font-family="Helvetica" font-size="12" lengthAdjust="spacing" textLength="128.0625" x="1130.5" y="487.0664">Events contain common</text><text fill="#000000" font-family="Helvetica" font-size="12" lengthAdjust="spacing" textLength="97.3945" x="1130.5" y="502.1602">leading section for</text><text fill="#000000" font-family="Helvetica" font-size="12" lengthAdjust="spacing" textLength="103.3945" x="1130.5" y="517.2539">userspace dispatch</text></g><!--link CLI to TraceCmd--><g class="link" data-entity-1="ent0002" data-entity-2="ent0003" data-link-type="dependency" data-source-line="33" id="lnk17"><path d="M179,113.7094 C179,137.6194 179,176.4994 179,200.4394" fill="none" id="CLI-to-TraceCmd" style="stroke:#181818;stroke-width:1;"/><polygon fill="#181818" points="179,205.4394,183,196.4394,179,200.4394,175,196.4394,179,205.4394" style="stroke:#181818;stroke-width:1;stroke-linejoin:miter;stroke-miterlimit:10;"/><text fill="#000000" font-family="Helvetica" font-size="12" lengthAdjust="spacing" textLength="57.3691" x="192.665" y="157.0664">dispatches</text><text fill="#000000" font-family="Helvetica" font-size="12" lengthAdjust="spacing" textLength="82.6992" x="180" y="172.1602">trace command</text></g><!--link TraceCmd to Tracer--><g class="link" data-entity-1="ent0003" data-entity-2="ent0004" data-link-type="dependency" data-source-line="34" id="lnk18"><path d="M194.27,240.7094 C216.27,264.6194 253.2543,304.8201 275.2843,328.7601" fill="none" id="TraceCmd-to-Tracer" style="stroke:#181818;stroke-width:1;"/><polygon fill="#181818" points="278.67,332.4394,275.5191,323.1081,275.2843,328.7601,269.6323,328.5253,278.67,332.4394" style="stroke:#181818;stroke-width:1;stroke-linejoin:miter;stroke-miterlimit:10;"/><text fill="#000000" font-family="Helvetica" font-size="12" lengthAdjust="spacing" textLength="40.6875" x="271.6758" y="284.0664">initiates</text><text fill="#000000" font-family="Helvetica" font-size="12" lengthAdjust="spacing" textLength="80.0391" x="252" y="299.1602">tracing session</text></g><!--link TraceCmd to Config--><g class="link" data-entity-1="ent0003" data-entity-2="ent0005" data-link-type="dependency" data-source-line="35" id="lnk19"><path d="M165.41,240.6894 C158.75,249.2894 150.91,260.1594 145,270.6094 C133.5,290.9394 125.3294,311.377 119.4494,327.647" fill="none" id="TraceCmd-to-Config" style="stroke:#181818;stroke-width:1;"/><polygon fill="#181818" points="117.75,332.3494,124.5708,325.2447,119.4494,327.647,117.0471,322.5256,117.75,332.3494" style="stroke:#181818;stroke-width:1;stroke-linejoin:miter;stroke-miterlimit:10;"/><text fill="#000000" font-family="Helvetica" font-size="12" lengthAdjust="spacing" textLength="62.707" x="149.0029" y="284.0664">reads event</text><text fill="#000000" font-family="Helvetica" font-size="12" lengthAdjust="spacing" textLength="68.7129" x="146" y="299.1602">configuration</text></g><!--link Config to Generator--><g class="link" data-entity-1="ent0005" data-entity-2="ent0006" data-link-type="dependency" data-source-line="36" id="lnk20"><path d="M113.84,367.7394 C116.91,395.5594 122.5012,446.2696 125.5912,474.2496" fill="none" id="Config-to-Generator" style="stroke:#181818;stroke-width:1;"/><polygon fill="#181818" points="126.14,479.2194,129.1279,469.8347,125.5912,474.2496,121.1763,470.7128,126.14,479.2194" style="stroke:#181818;stroke-width:1;stroke-linejoin:miter;stroke-miterlimit:10;"/><text fill="#000000" font-family="Helvetica" font-size="12" lengthAdjust="spacing" textLength="98.7246" x="122" y="411.0664">provides metadata</text><text fill="#000000" font-family="Helvetica" font-size="12" lengthAdjust="spacing" textLength="72.0117" x="135.3564" y="426.1602">(Proto/JSON)</text></g><!--link Generator to HandlerSource--><g class="link" data-entity-1="ent0006" data-entity-2="ent0007" data-link-type="dependency" data-source-line="37" id="lnk21"><path d="M134.31,514.6994 C145.61,544.3694 167.3816,601.5663 178.7716,631.4963" fill="none" id="Generator-to-HandlerSource" style="stroke:#181818;stroke-width:1;"/><polygon fill="#181818" points="180.55,636.1694,181.0874,626.3352,178.7716,631.4963,173.6105,629.1806,180.55,636.1694" style="stroke:#181818;stroke-width:1;stroke-linejoin:miter;stroke-miterlimit:10;"/><text fill="#000000" font-family="Helvetica" font-size="12" lengthAdjust="spacing" textLength="53.373" x="169" y="568.0664">generates</text><text fill="#000000" font-family="Helvetica" font-size="12" lengthAdjust="spacing" textLength="65.373" x="163" y="583.1602">source code</text></g><!--link HandlerSource to eBPF--><g class="link" data-entity-1="ent0007" data-entity-2="ent0010" data-link-type="dependency" data-source-line="38" id="lnk22"><path d="M212.02,636.4694 C245.7,614.7594 308.07,576.9194 366,554.6094 C426.28,531.3994 493.9981,516.7498 543.2481,507.9398" fill="none" id="HandlerSource-to-eBPF" style="stroke:#181818;stroke-width:1;"/><polygon fill="#181818" points="548.17,507.0594,538.6063,504.7067,543.2481,507.9398,540.015,512.5817,548.17,507.0594" style="stroke:#181818;stroke-width:1;stroke-linejoin:miter;stroke-miterlimit:10;"/><text fill="#000000" font-family="Helvetica" font-size="12" lengthAdjust="spacing" textLength="52.043" x="382.9932" y="568.0664">loaded as</text><text fill="#000000" font-family="Helvetica" font-size="12" lengthAdjust="spacing" textLength="84.0293" x="367" y="583.1602">eBPF programs</text></g><!--link Tracer to eBPF--><g class="link" data-entity-1="ent0004" data-entity-2="ent0010" data-link-type="dependency" data-source-line="40" id="lnk23"><path d="M329.68,367.7394 C389.51,395.6394 504.8585,449.4161 564.7285,477.3361" fill="none" id="Tracer-to-eBPF" style="stroke:#181818;stroke-width:1;"/><polygon fill="#181818" points="569.26,479.4494,562.7939,472.0204,564.7285,477.3361,559.4128,479.2707,569.26,479.4494" style="stroke:#181818;stroke-width:1;stroke-linejoin:miter;stroke-miterlimit:10;"/><text fill="#000000" font-family="Helvetica" font-size="12" lengthAdjust="spacing" textLength="116.0508" x="460" y="411.0664">loads eBPF programs</text><text fill="#000000" font-family="Helvetica" font-size="12" lengthAdjust="spacing" textLength="48.7031" x="493.6738" y="426.1602">via gobpf</text></g><!--link eBPF to MainBPF--><g class="link" data-entity-1="ent0010" data-entity-2="ent0014" data-link-type="dependency" data-source-line="41" id="lnk24"><path d="M603.87,514.9094 C603.18,526.1394 602.35,541.2594 602,554.6094 C601.24,583.3294 601.7697,611.7813 602.3197,631.3813" fill="none" id="eBPF-to-MainBPF" style="stroke:#181818;stroke-width:1;"/><polygon fill="#181818" points="602.46,636.3794,606.206,627.2707,602.3197,631.3813,598.2091,627.4951,602.46,636.3794" style="stroke:#181818;stroke-width:1;stroke-linejoin:miter;stroke-miterlimit:10;"/><text fill="#000000" font-family="Helvetica" font-size="12" lengthAdjust="spacing" textLength="106.0488" x="603" y="575.5664">loads main program</text></g><!--link eBPF to HandlerBPF--><g class="link" data-entity-1="ent0010" data-entity-2="ent0015" data-link-type="dependency" data-source-line="42" id="lnk25"><path d="M634.27,514.7594 C647.77,522.2794 664.08,531.1294 679,538.6094 C694.29,546.2794 704.76,540.2194 714,554.6094 C721.69,566.5794 715.84,572.5094 714,586.6094 C707.5,636.3194 708.75,651.4594 685,695.6094 C665.9,731.1094 636.17,761.1574 615.03,780.2574" fill="none" id="eBPF-to-HandlerBPF" style="stroke:#181818;stroke-width:1;"/><polygon fill="#181818" points="611.32,783.6094,620.6796,780.5438,615.03,780.2574,615.3164,774.6078,611.32,783.6094" style="stroke:#181818;stroke-width:1;stroke-linejoin:miter;stroke-miterlimit:10;"/><text fill="#000000" font-family="Helvetica" font-size="12" lengthAdjust="spacing" textLength="126.0703" x="714" y="659.0664">loads handler programs</text></g><!--link eBPF to HandlerMaps--><g class="link" data-entity-1="ent0010" data-entity-2="ent0016" data-link-type="dependency" data-source-line="43" id="lnk26"><path d="M548.37,509.5194 C521.95,517.7194 492.35,531.5494 474,554.6094 C455.16,578.2794 453.3992,610.2843 454.3392,631.5543" fill="none" id="eBPF-to-HandlerMaps" style="stroke:#181818;stroke-width:1;"/><polygon fill="#181818" points="454.56,636.5494,458.1587,627.3815,454.3392,631.5543,450.1665,627.7348,454.56,636.5494" style="stroke:#181818;stroke-width:1;stroke-linejoin:miter;stroke-miterlimit:10;"/><text fill="#000000" font-family="Helvetica" font-size="12" lengthAdjust="spacing" textLength="118.0664" x="475" y="575.5664">creates/updates maps</text></g><!--link MainBPF to Probes--><g class="link" data-entity-1="ent0014" data-entity-2="ent0011" data-link-type="dependency" data-source-line="45" id="lnk27"><path d="M622.28,636.5394 C639.91,622.4994 667.37,603.2994 695,594.6094 C714.73,588.3994 866.69,601.5494 881,586.6094 C890.84,576.3394 889.56,565.9594 881,554.6094 C865.41,533.9394 848.92,548.5094 825,538.6094 C808.93,531.9594 796.1953,525.182 782.6153,517.162" fill="none" id="MainBPF-to-Probes" style="stroke:#181818;stroke-width:1;"/><polygon fill="#181818" points="778.31,514.6194,784.0254,522.6402,782.6153,517.162,788.0935,515.7518,778.31,514.6194" style="stroke:#181818;stroke-width:1;stroke-linejoin:miter;stroke-miterlimit:10;"/><text fill="#000000" font-family="Helvetica" font-size="12" lengthAdjust="spacing" textLength="58.7051" x="921.6855" y="568.0664">attaches to</text><text fill="#000000" font-family="Helvetica" font-size="12" lengthAdjust="spacing" textLength="126.0762" x="888" y="583.1602">kprobe/kretprobe hooks</text></g><!--link Probes to HandlerMaps--><g class="link" data-entity-1="ent0011" data-entity-2="ent0016" data-link-type="dependency" data-source-line="46" id="lnk28"><path d="M750.89,514.7494 C748.53,535.4294 741.14,570.0094 718,586.6094 C700.2,599.3794 541.29,586.3494 521,594.6094 C499.49,603.3694 483.6942,618.7378 471.8742,632.7478" fill="none" id="Probes-to-HandlerMaps" style="stroke:#181818;stroke-width:1;"/><polygon fill="#181818" points="468.65,636.5694,477.5108,632.2699,471.8742,632.7478,471.3963,627.1112,468.65,636.5694" style="stroke:#181818;stroke-width:1;stroke-linejoin:miter;stroke-miterlimit:10;"/><text fill="#000000" font-family="Helvetica" font-size="12" lengthAdjust="spacing" textLength="40.6816" x="763.6797" y="568.0664">keys by</text><text fill="#000000" font-family="Helvetica" font-size="12" lengthAdjust="spacing" textLength="84.041" x="742" y="583.1602">process context</text></g><!--link HandlerMaps to HandlerBPF--><g class="link" data-entity-1="ent0016" data-entity-2="ent0015" data-link-type="dependency" data-source-line="47" id="lnk29"><path d="M471.6,671.7394 C497.7,699.5594 546.489,751.5929 572.739,779.5729" fill="none" id="HandlerMaps-to-HandlerBPF" style="stroke:#181818;stroke-width:1;"/><polygon fill="#181818" points="576.16,783.2194,572.9194,773.9189,572.739,779.5729,567.085,779.3925,576.16,783.2194" style="stroke:#181818;stroke-width:1;stroke-linejoin:miter;stroke-miterlimit:10;"/><text fill="#000000" font-family="Helvetica" font-size="12" lengthAdjust="spacing" textLength="80.7129" x="538" y="725.0664">selects handler</text><text fill="#000000" font-family="Helvetica" font-size="12" lengthAdjust="spacing" textLength="50.6836" x="553.0146" y="740.1602">programs</text></g><!--link HandlerBPF to PerfChannel--><g class="link" data-entity-1="ent0015" data-entity-2="ent0012" data-link-type="dependency" data-source-line="48" id="lnk30"><path d="M647.38,783.5394 C659.71,780.0694 672.76,776.5694 685,773.6094 C856.8,732.0194 962.93,832.3094 1075,695.6094 C1119.63,641.1694 1068.4352,555.723 1042.3852,518.853" fill="none" id="HandlerBPF-to-PerfChannel" style="stroke:#181818;stroke-width:1;"/><polygon fill="#181818" points="1039.5,514.7694,1041.4265,524.428,1042.3852,518.853,1047.9602,519.8117,1039.5,514.7694" style="stroke:#181818;stroke-width:1;stroke-linejoin:miter;stroke-miterlimit:10;"/><text fill="#000000" font-family="Helvetica" font-size="12" lengthAdjust="spacing" textLength="67.3594" x="1115.0137" y="651.5664">emits events</text><text fill="#000000" font-family="Helvetica" font-size="12" lengthAdjust="spacing" textLength="111.3867" x="1093" y="666.6602">with common header</text></g><!--link PerfChannel to Tracer--><g class="link" data-entity-1="ent0012" data-entity-2="ent0004" data-link-type="dependency" data-source-line="49" id="lnk31"><path d="M1009.83,479.5394 C994.61,465.8994 971.11,447.2794 947,437.6094 C839.01,394.2794 495.0667,365.5432 356.4867,355.4332" fill="none" id="PerfChannel-to-Tracer" style="stroke:#181818;stroke-width:1;"/><polygon fill="#181818" points="351.5,355.0694,360.1851,359.7136,356.4867,355.4332,360.7672,351.7348,351.5,355.0694" style="stroke:#181818;stroke-width:1;stroke-linejoin:miter;stroke-miterlimit:10;"/><text fill="#000000" font-family="Helvetica" font-size="12" lengthAdjust="spacing" textLength="80.0391" x="919" y="411.0664">delivers events</text><text fill="#000000" font-family="Helvetica" font-size="12" lengthAdjust="spacing" textLength="62.0332" x="928.0029" y="426.1602">for dispatch</text></g><!--link HandlerMaps to GMN32--><g class="link" data-entity-1="ent0016" data-entity-2="ent0033" data-link-type="association" data-source-line="52" id="lnk34"><path d="M466.4,636.2594 C479.92,615.0394 505.72,580.7594 538.5,566.6094 C603.38,538.6094 789.2,545.0394 856.5,566.6094 C893.09,578.3294 928.05,605.4494 951.19,626.4094" fill="none" id="HandlerMaps-GMN32" style="stroke:#181818;stroke-width:1;stroke-dasharray:7,7;"/></g><?plantuml-src TLHDRzim3BtxLt3UPJiKNNViOK0NfEss92kMxhGCXMBJjX1RCYGvRJRilu-Kv8-aBNA8HRv7aNmKt-HOI8NmOpwxlrhTBEQGrSBQnEwaQeKH3MIwQRL2vTRkK2COp9nGPOqJo5PakzBeJkKpNMi3Rw_d_9iWw1RHrUvQAxSI3S8jrdjqCXClOzRo3yB5nuapHZSA3Lnyc3Xi9NBzA5K9XQWj9ecJZjAyDoB31HOErWVhi84harNIKVAT8L1B6OiI8VrfqLWwOGf_4u1ViyKNc2jd3d2dfNA_GLWW6xjyI9ZffX4gzmvlcJKvUuT0mMf6W67tV4yT9B8gPDaPuQHMi4GdSk54kCIx67fBuMigymQfME5q23MS618Fc0D-lhk6dh7MdSdGmwCfM99_aug_8JMnXlMaw8LKtHC4XsU7JtRv-EjkQtqNlPDDxDgrHc_nV6VG-I_llEClo-uxD0N4iYkX-j1iZkUZjFn5n2v9L1lpMWgfOEhm4TWQK-WBFo9Fwp_1BKLxvEOpPy6gdvrz6WI5IqXpINAwh4AxeNbWORCWVPeCi85Zc26LT99KYGIUIOlMajGdbA0rKmoAd3hANTgeR3eTQH9HJ1Z4PmurUozpjD34-TceTrIxq-TVrzzNxzDaH3FtQ1AONyRXeJHjC6OwnpGv1ZBLjvKOjHOvpPeWXZUrlKn94gi_HOSf6O0RjPS2IhrjYpJn7YP48KTEmtf7pWGtQZb2gwZecCefdBLbV4OzfcBFkpRdVxgavSJxovaHXfR1mZd1aeFJ6tKwu51flIDkXBzmrmuF5hQ7ZI9yHj9JPvN39pSqrmEVrsInfiqqLENviQm9qASwFXycOYDTd1zgygDqbPzIMYuLJHOQIdP2E1xN76kvfwKrq0kQc7xggKDAErhtigmSwEBenG3G4lVZJRrgy98C8VE7rTLo_i39svTi3zJ915KE7FgL2yABVHO_QZ49oSPUcIFxQnTCDm-4pHG4ugaBNIDxJNqBBpVpIxhm6xSRjdlVeF6Q_m00?></g></svg>