<svg xmlns="http://www.w3.org/2000/svg" xmlns:xlink="http://www.w3.org/1999/xlink" contentStyleType="text/css" data-diagram-type="DESCRIPTION" height="1083px" preserveAspectRatio="none" style="width:1700px;height:1083px;background:#FFFFFF;" version="1.1" viewBox="0 0 1700 1083" width="1700px" zoomAndPan="magnify"><?plantuml 1.2026.6?><defs/><g><g class="title" data-source-line="6"><text fill="#000000" font-family="sans-serif" font-size="14" font-weight="700" lengthAdjust="spacing" textLength="362.5371" x="665.4614" y="24.5332">System Architecture: Airflow Spark Docker Integration</text></g><!--cluster Host Machine--><g class="cluster" data-qualified-name="Host Machine" data-source-line="8" id="ent0001"><polygon fill="none" points="1093,54.6094,1103,44.6094,1260,44.6094,1260,129.6094,1250,139.6094,1093,139.6094,1093,54.6094" style="stroke:#181818;stroke-width:1;stroke-linejoin:miter;stroke-miterlimit:10;"/><line style="stroke:#181818;stroke-width:1;" x1="1250" x2="1260" y1="54.6094" y2="44.6094"/><line style="stroke:#181818;stroke-width:1;" x1="1093" x2="1250" y1="54.6094" y2="54.6094"/><line style="stroke:#181818;stroke-width:1;" x1="1250" x2="1250" y1="54.6094" y2="139.6094"/><text fill="#000000" font-family="sans-serif" font-size="14" font-weight="700" lengthAdjust="spacing" textLength="91.0137" x="1126.9932" y="72.1426">Host Machine</text></g><!--cluster Docker Compose Network--><g class="cluster" data-qualified-name="Docker Compose Network" data-source-line="12" id="ent0003"><polygon fill="none" points="369,199.6094,379,189.6094,1323,189.6094,1323,1048.6094,1313,1058.6094,369,1058.6094,369,199.6094" style="stroke:#181818;stroke-width:1;stroke-linejoin:miter;stroke-miterlimit:10;"/><line style="stroke:#181818;stroke-width:1;" x1="1313" x2="1323" y1="199.6094" y2="189.6094"/><line style="stroke:#181818;stroke-width:1;" x1="369" x2="1313" y1="199.6094" y2="199.6094"/><line style="stroke:#181818;stroke-width:1;" x1="1313" x2="1313" y1="199.6094" y2="1058.6094"/><text fill="#000000" font-family="sans-serif" font-size="14" font-weight="700" lengthAdjust="spacing" textLength="174.2686" x="754.8657" y="217.1426">Docker Compose Network</text></g><!--cluster Postgres--><g class="cluster" data-qualified-name="Docker Compose Network.Postgres" data-source-line="14" id="ent0004"><rect fill="none" height="106" rx="2.5" ry="2.5" style="stroke:#181818;stroke-width:1;" width="198" x="772" y="434.6094"/><text fill="#000000" font-family="sans-serif" font-size="14" font-weight="700" lengthAdjust="spacing" textLength="92.5859" x="824.707" y="451.1426">Postgres (9.6)</text></g><!--cluster Airflow--><g class="cluster" data-qualified-name="Docker Compose Network.Airflow" data-source-line="18" id="ent0006"><rect fill="none" height="294" rx="2.5" ry="2.5" style="stroke:#181818;stroke-width:1;" width="331" x="401" y="246.6094"/><text fill="#000000" font-family="sans-serif" font-size="14" font-weight="700" lengthAdjust="spacing" textLength="122.9238" x="505.0381" y="263.1426">Airflow Webserver</text></g><!--cluster SparkMaster--><g class="cluster" data-qualified-name="Docker Compose Network.SparkMaster" data-source-line="25" id="ent0011"><rect fill="none" height="106" rx="2.5" ry="2.5" style="stroke:#181818;stroke-width:1;" width="271" x="1010" y="434.6094"/><text fill="#000000" font-family="sans-serif" font-size="14" font-weight="700" lengthAdjust="spacing" textLength="87.9307" x="1101.5347" y="451.1426">Spark Master</text></g><!--cluster Worker1--><g class="cluster" data-qualified-name="Docker Compose Network.Worker1" data-source-line="30" id="ent0014"><rect fill="none" height="106" rx="2.5" ry="2.5" style="stroke:#181818;stroke-width:1;" width="132" x="966" y="622.6094"/><text fill="#000000" font-family="sans-serif" font-size="14" font-weight="700" lengthAdjust="spacing" textLength="102.71" x="980.645" y="639.1426">Spark Worker 1</text></g><!--cluster Jupyter--><g class="cluster" data-qualified-name="Docker Compose Network.Jupyter" data-source-line="42" id="ent0018"><rect fill="none" height="106" rx="2.5" ry="2.5" style="stroke:#181818;stroke-width:1;" width="309" x="982" y="246.6094"/><text fill="#000000" font-family="sans-serif" font-size="14" font-weight="700" lengthAdjust="spacing" textLength="110.4961" x="1081.252" y="263.1426">Jupyter/PySpark</text></g><!--cluster Volumes--><g class="cluster" data-qualified-name="Docker Compose Network.Volumes" data-source-line="47" id="ent0021"><path d="M966,820.6094 C966,810.6094 1095.5,810.6094 1095.5,810.6094 C1095.5,810.6094 1225,810.6094 1225,820.6094 L1225,1016.6094 C1225,1026.6094 1095.5,1026.6094 1095.5,1026.6094 C1095.5,1026.6094 966,1026.6094 966,1016.6094 L966,820.6094" fill="none" style="stroke:#181818;stroke-width:1;"/><path d="M966,820.6094 C966,830.6094 1095.5,830.6094 1095.5,830.6094 C1095.5,830.6094 1225,830.6094 1225,820.6094" fill="none" style="stroke:#181818;stroke-width:1;"/><text fill="#000000" font-family="sans-serif" font-size="14" font-weight="700" lengthAdjust="spacing" textLength="109.7031" x="1040.6484" y="847.1426">Shared Volumes</text></g><!--cluster SparkCLI--><g class="cluster" data-qualified-name="SparkCLI" data-source-line="79" id="ent0042"><rect fill="none" height="294" rx="2.5" ry="2.5" style="stroke:#181818;stroke-width:1;" width="266" x="7" y="246.6094"/><text fill="#000000" font-family="sans-serif" font-size="14" font-weight="700" lengthAdjust="spacing" textLength="125.2344" x="77.3828" y="263.1426">Bundled Spark CLI</text></g><!--entity DataEngineer--><g class="entity" data-qualified-name="Host Machine.DataEngineer" data-source-line="9" id="ent0002"><rect fill="#F1F1F1" height="37.6094" rx="2.5" ry="2.5" style="stroke:#181818;stroke-width:0.5;" width="109.5029" x="1121" y="85.6094"/><text fill="#000000" font-family="sans-serif" font-size="14" lengthAdjust="spacing" textLength="89.5029" x="1131" y="110.1426">Data Engineer</text></g><!--entity Metadata Database--><g class="entity" data-qualified-name="Docker Compose Network.Postgres.Metadata Database" data-source-line="15" id="ent0005"><rect fill="#F1F1F1" height="37.6094" rx="2.5" ry="2.5" style="stroke:#181818;stroke-width:0.5;" width="142.1924" x="804" y="478.6094"/><text fill="#000000" font-family="sans-serif" font-size="14" lengthAdjust="spacing" textLength="122.1924" x="814" y="503.1426">Metadata Database</text></g><!--entity Web UI--><g class="entity" data-qualified-name="Docker Compose Network.Airflow.Web UI" data-source-line="19" id="ent0007"><rect fill="#F1F1F1" height="37.6094" rx="2.5" ry="2.5" style="stroke:#181818;stroke-width:0.5;" width="66.6758" x="446.5" y="290.6094"/><text fill="#000000" font-family="sans-serif" font-size="14" lengthAdjust="spacing" textLength="46.6758" x="456.5" y="315.1426">Web UI</text></g><!--entity Scheduler--><g class="entity" data-qualified-name="Docker Compose Network.Airflow.Scheduler" data-source-line="20" id="ent0008"><rect fill="#F1F1F1" height="37.6094" rx="2.5" ry="2.5" style="stroke:#181818;stroke-width:0.5;" width="83.041" x="523.5" y="290.6094"/><text fill="#000000" font-family="sans-serif" font-size="14" lengthAdjust="spacing" textLength="63.041" x="533.5" y="315.1426">Scheduler</text></g><!--entity LocalExecutor--><g class="entity" data-qualified-name="Docker Compose Network.Airflow.LocalExecutor" data-source-line="21" id="ent0009"><rect fill="#F1F1F1" height="37.6094" rx="2.5" ry="2.5" style="stroke:#181818;stroke-width:0.5;" width="108.7168" x="425.5" y="478.6094"/><text fill="#000000" font-family="sans-serif" font-size="14" lengthAdjust="spacing" textLength="88.7168" x="435.5" y="503.1426">LocalExecutor</text></g><!--entity SparkSubmitOperator--><g class="entity" data-qualified-name="Docker Compose Network.Airflow.SparkSubmitOperator" data-source-line="22" id="ent0010"><rect fill="#F1F1F1" height="37.6094" rx="2.5" ry="2.5" style="stroke:#181818;stroke-width:0.5;" width="155.3926" x="544.5" y="478.6094"/><text fill="#000000" font-family="sans-serif" font-size="14" lengthAdjust="spacing" textLength="135.3926" x="554.5" y="503.1426">SparkSubmitOperator</text></g><!--entity Master UI--><g class="entity" data-qualified-name="Docker Compose Network.SparkMaster.Master UI" data-source-line="26" id="ent0012"><rect fill="#F1F1F1" height="37.6094" rx="2.5" ry="2.5" style="stroke:#181818;stroke-width:0.5;" width="80.6758" x="1175.5" y="478.6094"/><text fill="#000000" font-family="sans-serif" font-size="14" lengthAdjust="spacing" textLength="60.6758" x="1185.5" y="503.1426">Master UI</text></g><!--entity Cluster Manager--><g class="entity" data-qualified-name="Docker Compose Network.SparkMaster.Cluster Manager" data-source-line="27" id="ent0013"><rect fill="#F1F1F1" height="37.6094" rx="2.5" ry="2.5" style="stroke:#181818;stroke-width:0.5;" width="123.4893" x="1042.5" y="478.6094"/><text fill="#000000" font-family="sans-serif" font-size="14" lengthAdjust="spacing" textLength="103.4893" x="1052.5" y="503.1426">Cluster Manager</text></g><!--entity Executor--><g class="entity" data-qualified-name="Docker Compose Network.Worker1.Executor" data-source-line="31" id="ent0015"><rect fill="#F1F1F1" height="37.6094" rx="2.5" ry="2.5" style="stroke:#181818;stroke-width:0.5;" width="75.248" x="998.5" y="666.6094"/><text fill="#000000" font-family="sans-serif" font-size="14" lengthAdjust="spacing" textLength="55.248" x="1008.5" y="691.1426">Executor</text></g><!--entity Worker2--><g class="entity" data-qualified-name="Docker Compose Network.Worker2" data-source-line="34" id="ent0016"><rect fill="#F1F1F1" height="37.6094" rx="2.5" ry="2.5" style="stroke:#181818;stroke-width:0.5;" width="117.248" x="697.5" y="666.6094"/><text fill="#000000" font-family="sans-serif" font-size="14" lengthAdjust="spacing" textLength="97.248" x="707.5" y="691.1426">Spark Worker 2</text></g><!--entity Worker3--><g class="entity" data-qualified-name="Docker Compose Network.Worker3" data-source-line="38" id="ent0017"><rect fill="#F1F1F1" height="37.6094" rx="2.5" ry="2.5" style="stroke:#181818;stroke-width:0.5;" width="117.248" x="824.5" y="666.6094"/><text fill="#000000" font-family="sans-serif" font-size="14" lengthAdjust="spacing" textLength="97.248" x="834.5" y="691.1426">Spark Worker 3</text></g><!--entity Notebook Server--><g class="entity" data-qualified-name="Docker Compose Network.Jupyter.Notebook Server" data-source-line="43" id="ent0019"><rect fill="#F1F1F1" height="37.6094" rx="2.5" ry="2.5" style="stroke:#181818;stroke-width:0.5;" width="125.0547" x="1141.5" y="290.6094"/><text fill="#000000" font-family="sans-serif" font-size="14" lengthAdjust="spacing" textLength="105.0547" x="1151.5" y="315.1426">Notebook Server</text></g><!--entity PySpark Kernel--><g class="entity" data-qualified-name="Docker Compose Network.Jupyter.PySpark Kernel" data-source-line="44" id="ent0020"><rect fill="#F1F1F1" height="37.6094" rx="2.5" ry="2.5" style="stroke:#181818;stroke-width:0.5;" width="117.2686" x="1014.5" y="290.6094"/><text fill="#000000" font-family="sans-serif" font-size="14" lengthAdjust="spacing" textLength="97.2686" x="1024.5" y="315.1426">PySpark Kernel</text></g><!--entity DAGs--><g class="entity" data-qualified-name="Docker Compose Network.Volumes.DAGs" data-source-line="48" id="ent0022"><path d="M1014.5,869.6094 L1055.5,869.6094 A3.75,3.75 0 0 1 1058,872.1094 L1065,890.6094 L1079.5,890.6094 A2.5,2.5 0 0 1 1082,893.1094 L1082,922.7188 A2.5,2.5 0 0 1 1079.5,925.2188 L1014.5,925.2188 A2.5,2.5 0 0 1 1012,922.7188 L1012,872.1094 A2.5,2.5 0 0 1 1014.5,869.6094" fill="#F1F1F1" style="stroke:#181818;stroke-width:0.5;"/><line style="stroke:#181818;stroke-width:0.5;" x1="1012" x2="1065" y1="890.6094" y2="890.6094"/><text fill="#000000" font-family="sans-serif" font-size="14" lengthAdjust="spacing" textLength="37.3379" x="1022" y="912.1426">DAGs</text></g><!--entity Spark Apps--><g class="entity" data-qualified-name="Docker Compose Network.Volumes.Spark Apps" data-source-line="49" id="ent0023"><path d="M1094.5,869.6094 L1135.5,869.6094 A3.75,3.75 0 0 1 1138,872.1094 L1145,890.6094 L1191.8721,890.6094 A2.5,2.5 0 0 1 1194.3721,893.1094 L1194.3721,922.7188 A2.5,2.5 0 0 1 1191.8721,925.2188 L1094.5,925.2188 A2.5,2.5 0 0 1 1092,922.7188 L1092,872.1094 A2.5,2.5 0 0 1 1094.5,869.6094" fill="#F1F1F1" style="stroke:#181818;stroke-width:0.5;"/><line style="stroke:#181818;stroke-width:0.5;" x1="1092" x2="1145" y1="890.6094" y2="890.6094"/><text fill="#000000" font-family="sans-serif" font-size="14" lengthAdjust="spacing" textLength="72.3721" x="1102" y="912.1426">Spark Apps</text></g><!--entity Notebooks--><g class="entity" data-qualified-name="Docker Compose Network.Volumes.Notebooks" data-source-line="50" id="ent0024"><path d="M1001,946.6094 L1042,946.6094 A3.75,3.75 0 0 1 1044.5,949.1094 L1051.5,967.6094 L1092.9307,967.6094 A2.5,2.5 0 0 1 1095.4307,970.1094 L1095.4307,999.7188 A2.5,2.5 0 0 1 1092.9307,1002.2188 L1001,1002.2188 A2.5,2.5 0 0 1 998.5,999.7188 L998.5,949.1094 A2.5,2.5 0 0 1 1001,946.6094" fill="#F1F1F1" style="stroke:#181818;stroke-width:0.5;"/><line style="stroke:#181818;stroke-width:0.5;" x1="998.5" x2="1051.5" y1="967.6094" y2="967.6094"/><text fill="#000000" font-family="sans-serif" font-size="14" lengthAdjust="spacing" textLength="66.9307" x="1008.5" y="989.1426">Notebooks</text></g><!--entity Input Data--><g class="entity" data-qualified-name="Docker Compose Network.Volumes.Input Data" data-source-line="51" id="ent0025"><path d="M1108,946.6094 L1149,946.6094 A3.75,3.75 0 0 1 1151.5,949.1094 L1158.5,967.6094 L1197.5996,967.6094 A2.5,2.5 0 0 1 1200.0996,970.1094 L1200.0996,999.7188 A2.5,2.5 0 0 1 1197.5996,1002.2188 L1108,1002.2188 A2.5,2.5 0 0 1 1105.5,999.7188 L1105.5,949.1094 A2.5,2.5 0 0 1 1108,946.6094" fill="#F1F1F1" style="stroke:#181818;stroke-width:0.5;"/><line style="stroke:#181818;stroke-width:0.5;" x1="1105.5" x2="1158.5" y1="967.6094" y2="967.6094"/><text fill="#000000" font-family="sans-serif" font-size="14" lengthAdjust="spacing" textLength="64.5996" x="1115.5" y="989.1426">Input Data</text></g><!--entity pyspark shell--><g class="entity" data-qualified-name="SparkCLI.pyspark shell" data-source-line="80" id="ent0043"><rect fill="#F1F1F1" height="37.6094" rx="2.5" ry="2.5" style="stroke:#181818;stroke-width:0.5;" width="101.7031" x="31" y="290.6094"/><text fill="#000000" font-family="sans-serif" font-size="14" lengthAdjust="spacing" textLength="81.7031" x="41" y="315.1426">pyspark shell</text></g><!--entity run-example--><g class="entity" data-qualified-name="SparkCLI.run-example" data-source-line="81" id="ent0044"><rect fill="#F1F1F1" height="37.6094" rx="2.5" ry="2.5" style="stroke:#181818;stroke-width:0.5;" width="97.8135" x="143" y="290.6094"/><text fill="#000000" font-family="sans-serif" font-size="14" lengthAdjust="spacing" textLength="77.8135" x="153" y="315.1426">run-example</text></g><!--entity ML libsvm loader--><g class="entity" data-qualified-name="SparkCLI.ML libsvm loader" data-source-line="82" id="ent0045"><rect fill="#F1F1F1" height="37.6094" rx="2.5" ry="2.5" style="stroke:#181818;stroke-width:0.5;" width="125.8135" x="31" y="478.6094"/><text fill="#000000" font-family="sans-serif" font-size="14" lengthAdjust="spacing" textLength="105.8135" x="41" y="503.1426">ML libsvm loader</text></g><g class="entity" data-qualified-name="GMN47" data-source-line="86" id="ent0048"><path d="M1339.5,288.1094 L1339.5,330.8125 L1506.4771,330.8125 L1506.4771,298.1094 L1496.4771,288.1094 L1339.5,288.1094" fill="#FEFFDD" style="stroke:#181818;stroke-width:0.5;"/><path d="M1496.4771,288.1094 L1496.4771,298.1094 L1506.4771,298.1094 L1496.4771,288.1094" fill="#FEFFDD" style="stroke:#181818;stroke-width:1;"/><text fill="#000000" font-family="sans-serif" font-size="13" lengthAdjust="spacing" textLength="121.4053" x="1345.5" y="306.6045">Inherited Capabilities</text><text fill="#000000" font-family="sans-serif" font-size="13" lengthAdjust="spacing" textLength="145.9771" x="1345.5" y="322.9561">(Spark 2.4.5 Hadoop 2.6)</text></g><!--link DataEngineer to Airflow--><g class="link" data-entity-1="ent0002" data-entity-2="ent0006" data-link-type="dependency" data-source-line="57" id="lnk26"><path d="M1120.63,110.6994 C1071.09,116.7594 997.34,129.5494 938,155.6094 C885.315,178.7544 832.65,216.1794 792.7488,248.2206 C772.7981,264.2413 756.0384,278.9159 744.0627,289.7867 C741.0687,292.5044 738.3738,294.9844 736.0027,297.1882 C734.8172,298.2901 733.7126,299.3229 732.6921,300.282 C732.5646,300.4018 736.0795,297.094 735.9546,297.2115" fill="none" id="DataEngineer-to-Airflow" style="stroke:#181818;stroke-width:1;"/><polygon fill="#181818" points="732.3134,300.6381,741.6089,297.3833,735.9546,297.2115,736.1264,291.5573,732.3134,300.6381" style="stroke:#181818;stroke-width:1;stroke-linejoin:miter;stroke-miterlimit:10;"/><text fill="#000000" font-family="sans-serif" font-size="13" lengthAdjust="spacing" textLength="72.9854" x="939" y="170.1045">UI Port 8282</text></g><!--link DataEngineer to SparkMaster--><g class="link" data-entity-1="ent0002" data-entity-2="ent0011" data-link-type="dependency" data-source-line="58" id="lnk27"><path d="M1231.23,109.9294 C1317.37,117.9494 1477.47,138.3894 1512,181.6094 C1537.94,214.0694 1539.82,337.7394 1512,368.6094 C1509.76,371.0994 1034.46,416.3294 1032,418.6094 C1028.875,421.5119 1026.3016,424.8552 1024.1919,428.4899 C1023.1371,430.3073 1022.1983,432.1975 1021.3644,434.142 C1021.3123,434.2635 1023.1994,429.7764 1023.1481,429.8984" fill="none" id="DataEngineer-to-SparkMaster" style="stroke:#181818;stroke-width:1;"/><polygon fill="#181818" points="1021.2093,434.5072,1028.3862,427.7624,1023.1481,429.8984,1021.0121,424.6603,1021.2093,434.5072" style="stroke:#181818;stroke-width:1;stroke-linejoin:miter;stroke-miterlimit:10;"/><text fill="#000000" font-family="sans-serif" font-size="13" lengthAdjust="spacing" textLength="72.9854" x="1533" y="315.1045">UI Port 8181</text></g><!--link DataEngineer to Jupyter--><g class="link" data-entity-1="ent0002" data-entity-2="ent0018" data-link-type="dependency" data-source-line="59" id="lnk28"><path d="M1120.76,115.0494 C1081.67,124.7794 1031.49,144.0794 1004,181.6094 C995.7425,192.8819 990.7013,206.2975 987.7934,220.1188 C986.3395,227.0294 985.419,234.0414 984.8964,240.9377 C984.7658,242.6617 984.903,239.3845 984.82,241.0906" fill="none" id="DataEngineer-to-Jupyter" style="stroke:#181818;stroke-width:1;"/><polygon fill="#181818" points="984.5771,246.0847,989.0096,237.2897,984.82,241.0906,981.0191,236.901,984.5771,246.0847" style="stroke:#181818;stroke-width:1;stroke-linejoin:miter;stroke-miterlimit:10;"/><text fill="#000000" font-family="sans-serif" font-size="13" lengthAdjust="spacing" textLength="72.9854" x="1029" y="170.1045">UI Port 8888</text></g><!--link DataEngineer to Volumes--><g class="link" data-entity-1="ent0002" data-entity-2="ent0021" data-link-type="dependency" data-source-line="60" id="lnk29"><path d="M1231.15,106.9894 C1336.23,110.8794 1558.98,125.6994 1607,181.6094 C1643.89,224.5594 1617,251.9894 1617,308.6094 C1617,308.6094 1617,308.6094 1617,686.6094 C1617,797.9594 1236.42,772.2394 1126,786.6094 C1110.77,788.5894 999.28,784.1794 988,794.6094 C983.865,798.4319 980.5356,802.858 977.8762,807.6813 C977.5438,808.2842 977.2219,808.8933 976.9101,809.5082 C976.7542,809.8157 978.7864,805.6275 978.6356,805.9378" fill="none" id="DataEngineer-to-Volumes" style="stroke:#181818;stroke-width:1;"/><polygon fill="#181818" points="976.4501,810.4349,983.9817,804.0886,978.6356,805.9378,976.7864,800.5918,976.4501,810.4349" style="stroke:#181818;stroke-width:1;stroke-linejoin:miter;stroke-miterlimit:10;"/><text fill="#000000" font-family="sans-serif" font-size="13" lengthAdjust="spacing" textLength="66.46" x="1618" y="503.1045">File Access</text></g><!--link Airflow to Postgres--><g class="link" data-entity-1="ent0006" data-entity-2="ent0004" data-link-type="dependency" data-source-line="63" id="lnk30"><path d="M732.0643,337.3919 C732.1414,337.648 732.2189,337.9055 732.2968,338.1643 C732.6085,339.1997 732.9269,340.2569 733.2514,341.3348 C738.4441,358.5816 745.2281,381.1138 752.0113,403.6431 C758.7944,426.1725 765.5766,448.6991 770.7655,465.9345 C771.0898,467.0117 771.4079,468.0683 771.7193,469.1029 C771.7972,469.3615 770.4333,464.8311 770.5103,465.087" fill="none" id="Airflow-to-Postgres" style="stroke:#181818;stroke-width:1;"/><polygon fill="#181818" points="771.9517,469.8747,773.1874,460.1037,770.5103,465.087,765.527,462.4099,771.9517,469.8747" style="stroke:#181818;stroke-width:1;stroke-linejoin:miter;stroke-miterlimit:10;"/><text fill="#000000" font-family="sans-serif" font-size="13" lengthAdjust="spacing" textLength="54.2026" x="756.0854" y="391.1045">Metadata</text><text fill="#000000" font-family="sans-serif" font-size="13" lengthAdjust="spacing" textLength="56.3735" x="755" y="407.4561">Port 5432</text></g><!--link Airflow to SparkMaster--><g class="link" data-entity-1="ent0006" data-entity-2="ent0011" data-link-type="dependency" data-source-line="64" id="lnk31"><path d="M732.168,317.2452 C732.6058,317.5932 733.0598,317.9531 733.5298,318.3245 C735.4099,319.8102 737.5452,321.4804 739.9153,323.308 C749.3956,330.6184 762.6312,340.4488 778.3025,351.0756 C809.645,372.3294 850.73,396.7694 891,410.6094 C918.53,420.0694 930.61,404.3794 956,418.6094 C974.71,429.0944 989.84,447.7219 1000.4688,464.1444 C1003.1259,468.25 1005.5018,472.2178 1007.5819,475.8861 C1008.102,476.8032 1008.6035,477.7016 1009.0864,478.5787 C1009.3278,479.0173 1009.5645,479.4505 1009.7966,479.8781 C1009.8546,479.985 1007.5341,475.6934 1007.5916,475.7995" fill="none" id="Airflow-to-SparkMaster" style="stroke:#181818;stroke-width:1;"/><polygon fill="#181818" points="1009.9697,480.1978,1009.2076,470.3784,1007.5916,475.7995,1002.1705,474.1835,1009.9697,480.1978" style="stroke:#181818;stroke-width:1;stroke-linejoin:miter;stroke-miterlimit:10;"/><text fill="#000000" font-family="sans-serif" font-size="13" lengthAdjust="spacing" textLength="91.7681" x="899.5886" y="391.1045">Job Submission</text><text fill="#000000" font-family="sans-serif" font-size="13" lengthAdjust="spacing" textLength="106.9453" x="892" y="407.4561">spark://spark:7077</text></g><!--link SparkMaster to Worker1--><g class="link" data-entity-1="ent0011" data-entity-2="ent0014" data-link-type="dependency" data-source-line="65" id="lnk32"><path d="M1012.9952,540.9646 C1012.9364,541.288 1012.8768,541.6123 1012.8166,541.9376 C1012.3349,544.5394 1011.8096,547.1975 1011.2369,549.8937 C1010.0916,555.2862 1008.757,560.8311 1007.2028,566.3828 C1004.0944,577.4862 1000.1075,588.6169 995,598.6094 C992.85,602.8194 990.05,602.3494 988,606.6094 C986.1513,610.4531 984.545,614.5097 983.1496,618.6712 C982.8008,619.7115 982.4651,620.7585 982.1421,621.8103 C982.0614,622.0732 983.42,617.5479 983.3408,617.8114" fill="none" id="SparkMaster-to-Worker1" style="stroke:#181818;stroke-width:1;"/><polygon fill="#181818" points="981.9023,622.6,988.3225,615.1313,983.3408,617.8114,980.6607,612.8297,981.9023,622.6" style="stroke:#181818;stroke-width:1;stroke-linejoin:miter;stroke-miterlimit:10;"/><text fill="#000000" font-family="sans-serif" font-size="13" lengthAdjust="spacing" textLength="82.3608" x="1008" y="587.1045">Task Dispatch</text></g><!--link SparkMaster to Worker2--><g class="link" data-entity-1="ent0011" data-entity-2="ent0016" data-link-type="dependency" data-source-line="66" id="lnk33"><path d="M1009.9719,509.9306 C1009.8531,510.0864 1009.7332,510.2433 1009.612,510.4014 C1008.6429,511.6657 1007.598,513.0006 1006.4817,514.3904 C1004.2493,517.17 1001.7316,520.1688 998.9637,523.2594 C987.8925,535.6219 972.82,549.4544 956,556.6094 C924.67,569.9394 830.61,544.6894 803,564.6094 C769.97,588.4294 760.6823,634.0578 757.7623,661.3278" fill="none" id="SparkMaster-to-Worker2" style="stroke:#181818;stroke-width:1;"/><polygon fill="#181818" points="757.23,666.2994,762.1655,657.7764,757.7623,661.3278,754.211,656.9247,757.23,666.2994" style="stroke:#181818;stroke-width:1;stroke-linejoin:miter;stroke-miterlimit:10;"/><text fill="#000000" font-family="sans-serif" font-size="13" lengthAdjust="spacing" textLength="82.3608" x="804" y="587.1045">Task Dispatch</text></g><!--link SparkMaster to Worker3--><g class="link" data-entity-1="ent0011" data-entity-2="ent0017" data-link-type="dependency" data-source-line="67" id="lnk34"><path d="M1009.9538,509.2786 C1009.8939,509.3534 1009.8336,509.4285 1009.773,509.5038 C1009.6519,509.6546 1009.5297,509.8065 1009.4062,509.9595 C1008.4184,511.1834 1007.3549,512.478 1006.2207,513.8288 C1003.9523,516.5304 1001.4013,519.4566 998.6075,522.4906 C987.4325,534.6269 972.375,548.4894 956,556.6094 C937.02,566.0194 924.31,549.9694 909,564.6094 C881.27,591.1294 879.3973,634.6874 880.8973,661.1774" fill="none" id="SparkMaster-to-Worker3" style="stroke:#181818;stroke-width:1;"/><polygon fill="#181818" points="881.18,666.1694,884.6648,656.9576,880.8973,661.1774,876.6776,657.4099,881.18,666.1694" style="stroke:#181818;stroke-width:1;stroke-linejoin:miter;stroke-miterlimit:10;"/><text fill="#000000" font-family="sans-serif" font-size="13" lengthAdjust="spacing" textLength="82.3608" x="910" y="587.1045">Task Dispatch</text></g><!--link Jupyter to SparkMaster--><g class="link" data-entity-1="ent0018" data-entity-2="ent0011" data-link-type="dependency" data-source-line="68" id="lnk35"><path d="M996.4332,353.3564 C996.524,353.9597 996.6155,354.5671 996.7075,355.1783 C997.4436,360.068 998.217,365.2055 999.0153,370.508 C1000.6118,381.113 1002.3078,392.3784 1004.0038,403.6431 C1005.6997,414.9078 1007.3955,426.1718 1008.9918,436.774 C1009.1913,438.0993 1009.3893,439.4143 1009.5855,440.7176 C1009.6836,441.3692 1009.7813,442.018 1009.8785,442.6637 C1009.9028,442.8251 1009.1827,438.042 1009.2069,438.2031" fill="none" id="Jupyter-to-SparkMaster" style="stroke:#181818;stroke-width:1;"/><polygon fill="#181818" points="1009.9513,443.1473,1012.5668,433.6521,1009.2069,438.2031,1004.656,434.8431,1009.9513,443.1473" style="stroke:#181818;stroke-width:1;stroke-linejoin:miter;stroke-miterlimit:10;"/><text fill="#000000" font-family="sans-serif" font-size="13" lengthAdjust="spacing" textLength="91.0444" x="1006" y="399.1045">Interactive Jobs</text></g><!--link Airflow to Volumes--><g class="link" data-entity-1="ent0006" data-entity-2="ent0021" data-link-type="dependency" data-source-line="71" id="lnk36"><path d="M400.122,427.6296 C395.2714,430.6123 390.5338,433.576 385.9223,436.5353 C376.6994,442.4539 367.9806,448.355 359.87,454.3563 C343.6488,466.3588 329.86,478.7619 319.335,492.5069 C298.285,519.9969 290.29,552.8544 302,598.6094 C325.63,690.9094 328.03,730.4594 405,786.6094 C456.615,824.2644 597.055,851.6294 725.4863,869.6469 C789.7019,878.6556 850.9153,885.3275 896.5223,889.7803 C919.3259,892.0067 938.2278,893.6784 951.6526,894.81 C955.0088,895.0929 958.0226,895.342 960.6696,895.5576 C961.993,895.6654 963.2248,895.7649 964.3617,895.856 C964.9302,895.9015 960.4906,895.5489 961.0113,895.5903" fill="none" id="Airflow-to-Volumes" style="stroke:#181818;stroke-width:1;"/><polygon fill="#181818" points="965.9956,895.9863,957.3407,891.2861,961.0113,895.5903,956.7071,899.2609,965.9956,895.9863" style="stroke:#181818;stroke-width:1;stroke-linejoin:miter;stroke-miterlimit:10;"/><text fill="#000000" font-family="sans-serif" font-size="13" lengthAdjust="spacing" textLength="42.6309" x="334.7891" y="579.1045">Mounts</text><text fill="#000000" font-family="sans-serif" font-size="13" lengthAdjust="spacing" textLength="106.209" x="303" y="595.4561">DAGs, Apps, Data</text></g><!--link SparkMaster to Volumes--><g class="link" data-entity-1="ent0011" data-entity-2="ent0021" data-link-type="dependency" data-source-line="72" id="lnk37"><path d="M1021.7038,540.6567 C1023.9381,546.7019 1027.2225,552.3169 1032,556.6094 C1052.34,574.8894 1074.97,544.0594 1093,564.6094 C1113.33,587.7794 1158.52,579.2894 1084,744.6094 C1073.15,768.6794 1065.58,774.7394 1042,786.6094 C1020.33,797.5194 1005.06,777.3594 988,794.6094 C984.04,798.6119 980.8425,803.1738 978.2798,808.0967 C977.9595,808.7121 977.6491,809.3331 977.3483,809.9594 C977.2731,810.116 979.3275,805.7487 979.2535,805.9059" fill="none" id="SparkMaster-to-Volumes" style="stroke:#181818;stroke-width:1;"/><polygon fill="#181818" points="977.1246,810.4301,984.5759,803.9898,979.2535,805.9059,977.3373,800.5835,977.1246,810.4301" style="stroke:#181818;stroke-width:1;stroke-linejoin:miter;stroke-miterlimit:10;"/><text fill="#000000" font-family="sans-serif" font-size="13" lengthAdjust="spacing" textLength="42.6309" x="1136.8418" y="683.1045">Mounts</text><text fill="#000000" font-family="sans-serif" font-size="13" lengthAdjust="spacing" textLength="64.3145" x="1126" y="699.4561">Apps, Data</text></g><!--link Worker1 to Volumes--><g class="link" data-entity-1="ent0014" data-entity-2="ent0021" data-link-type="dependency" data-source-line="73" id="lnk38"><path d="M974,728.8696 C974,731.4784 974,734.1687 974,736.929 C974,742.4496 974,748.2499 974,754.2365 C974,766.2098 974,778.9288 974,791.6469 C974,794.8264 974,798.0059 974,801.1737 C974,802.7575 974,804.3385 974,805.9151 C974,806.7034 974,807.4906 974,808.2765 C974,808.6694 974,809.0621 974,809.4543 C974,809.6505 974,804.8466 974,805.0425" fill="none" id="Worker1-to-Volumes" style="stroke:#181818;stroke-width:1;"/><polygon fill="#181818" points="974,810.0425,978,801.0425,974,805.0425,970,801.0425,974,810.0425" style="stroke:#181818;stroke-width:1;stroke-linejoin:miter;stroke-miterlimit:10;"/><text fill="#000000" font-family="sans-serif" font-size="13" lengthAdjust="spacing" textLength="42.6309" x="985.8418" y="767.1045">Mounts</text><text fill="#000000" font-family="sans-serif" font-size="13" lengthAdjust="spacing" textLength="64.3145" x="975" y="783.4561">Apps, Data</text></g><!--link Worker2 to Volumes--><g class="link" data-entity-1="ent0016" data-entity-2="ent0021" data-link-type="dependency" data-source-line="74" id="lnk39"><path d="M766.76,704.8294 C779.71,725.8794 802.86,760.9194 828,786.6094 C855.97,815.1894 891.775,842.2844 920.9275,862.4319 C935.5038,872.5056 948.4169,880.8425 957.8559,886.7597 C960.2157,888.239 962.3583,889.5671 964.2556,890.7332 C964.7299,891.0248 965.1888,891.3062 965.632,891.5773 C965.7428,891.6451 961.5862,889.1051 961.695,889.1716" fill="none" id="Worker2-to-Volumes" style="stroke:#181818;stroke-width:1;"/><polygon fill="#181818" points="965.9614,891.7787,960.3675,883.6727,961.695,889.1716,956.1961,890.499,965.9614,891.7787" style="stroke:#181818;stroke-width:1;stroke-linejoin:miter;stroke-miterlimit:10;"/><text fill="#000000" font-family="sans-serif" font-size="13" lengthAdjust="spacing" textLength="42.6309" x="839.8418" y="767.1045">Mounts</text><text fill="#000000" font-family="sans-serif" font-size="13" lengthAdjust="spacing" textLength="64.3145" x="829" y="783.4561">Apps, Data</text></g><!--link Worker3 to Volumes--><g class="link" data-entity-1="ent0017" data-entity-2="ent0021" data-link-type="dependency" data-source-line="75" id="lnk40"><path d="M885.36,704.8594 C888.43,725.3294 894.76,759.2594 906,786.6094 C916.58,812.3594 932.865,838.9719 946.8463,859.5706 C953.8369,869.87 960.2516,878.6659 965.0892,885.0989 C965.3916,885.501 962.6728,881.905 962.9626,882.2884" fill="none" id="Worker3-to-Volumes" style="stroke:#181818;stroke-width:1;"/><polygon fill="#181818" points="965.9776,886.2772,963.7417,876.6855,962.9626,882.2884,957.3597,881.5094,965.9776,886.2772" style="stroke:#181818;stroke-width:1;stroke-linejoin:miter;stroke-miterlimit:10;"/><text fill="#000000" font-family="sans-serif" font-size="13" lengthAdjust="spacing" textLength="42.6309" x="917.8418" y="767.1045">Mounts</text><text fill="#000000" font-family="sans-serif" font-size="13" lengthAdjust="spacing" textLength="64.3145" x="907" y="783.4561">Apps, Data</text></g><!--link Jupyter to Volumes--><g class="link" data-entity-1="ent0018" data-entity-2="ent0021" data-link-type="dependency" data-source-line="76" id="lnk41"><path d="M993.5308,352.8494 C995.7863,358.8719 999.1225,364.4294 1004,368.6094 C1020.25,382.5394 1078.88,373.0994 1100,376.6094 C1175.5,389.1594 1219.94,358.2494 1267,418.6094 C1304.71,466.9794 1278.43,496.3494 1267,556.6094 C1250.26,644.8294 1258.38,683.0594 1193,744.6094 C1149.1,785.9394 1122.97,774.0494 1064,786.6094 C1047.39,790.1494 1000.2,782.7894 988,794.6094 C983.9563,798.5269 980.6956,803.0247 978.0866,807.9007 C977.7605,808.5102 977.4446,809.1256 977.1386,809.7465 C977.0621,809.9017 979.1599,805.5545 979.0846,805.7105" fill="none" id="Jupyter-to-Volumes" style="stroke:#181818;stroke-width:1;"/><polygon fill="#181818" points="976.9109,810.2132,984.4258,803.8472,979.0846,805.7105,977.2214,800.3693,976.9109,810.2132" style="stroke:#181818;stroke-width:1;stroke-linejoin:miter;stroke-miterlimit:10;"/><text fill="#000000" font-family="sans-serif" font-size="13" lengthAdjust="spacing" textLength="42.6309" x="1293.1013" y="579.1045">Mounts</text><text fill="#000000" font-family="sans-serif" font-size="13" lengthAdjust="spacing" textLength="96.8335" x="1266" y="595.4561">Notebooks, Data</text></g><!--link SparkCLI to SparkMaster--><g class="link" data-entity-1="ent0042" data-entity-2="ent0011" data-link-type="dependency" data-source-line="84" id="lnk46"><path d="M273.0462,314.3378 C273.1512,314.3858 273.2572,314.4342 273.3641,314.4831 C273.5779,314.5807 273.7955,314.68 274.0167,314.7809 C275.7867,315.5879 277.793,316.497 280.0141,317.495 C288.8981,321.4869 301.2163,326.8994 315.5725,332.8744 C344.285,344.8244 381.15,359.0244 415,368.6094 C513.72,396.5694 539.96,399.9394 642,410.6094 C659.36,412.4294 940.38,410.8294 956,418.6094 C975.2,428.1794 990.3475,446.7794 1000.8625,463.4156 C1003.4913,467.5747 1005.8305,471.611 1007.8711,475.3528 C1008.3812,476.2883 1008.8727,477.2053 1009.3454,478.1013 C1009.4636,478.3253 1009.5806,478.5479 1009.6964,478.7693 C1009.7543,478.8799 1007.5009,474.5564 1007.5582,474.6664" fill="none" id="SparkCLI-to-SparkMaster" style="stroke:#181818;stroke-width:1;"/><polygon fill="#181818" points="1009.8693,479.1002,1009.2564,469.2704,1007.5582,474.6664,1002.1622,472.9682,1009.8693,479.1002" style="stroke:#181818;stroke-width:1;stroke-linejoin:miter;stroke-miterlimit:10;"/><text fill="#000000" font-family="sans-serif" font-size="13" lengthAdjust="spacing" textLength="100.4136" x="643" y="391.1045">MASTER env var</text><text fill="#000000" font-family="sans-serif" font-size="13" lengthAdjust="spacing" textLength="91.0254" x="647.6941" y="407.4561">(e.g., spark://...)</text></g><!--link SparkCLI to GMN47--><g class="link" data-entity-1="ent0042" data-entity-2="ent0048" data-link-type="association" data-source-line="86" id="lnk49"><path d="M273.1025,297.2628 C273.2965,296.9792 273.4939,296.6915 273.6946,296.3997 C275.2999,294.0655 277.1152,291.472 279.1303,288.6603 C287.1906,277.4137 298.4463,262.6781 312.2325,247.0969 C339.805,215.9344 377.5,181.3894 420,164.6094 C464.03,147.2294 1228.09,146.9394 1272,164.6094 C1334.21,189.6394 1385.18,253.9094 1408.8,287.8494" fill="none" id="SparkCLI-GMN47" style="stroke:#181818;stroke-width:1;stroke-dasharray:7,7;"/></g><?plantuml-src bLNVKnen47w_ls9xBzKP0G6jreVEKAIA1Uk8rWVn8TmjSCEHt2GvbEdultUJNAudfGxbvSZc-xxzaTtaGupJX2FSzhftdUkBGG-Yb2aLg4N2CoRP4YAnp0H7haTwdI98Z3JZinGh42vYL9X1yx1Yb8mlZB5r60GwqKGThPN69NHaD4yqoUGIpw2Jo6agdc54h0MSYsY14lfSuqmodGWU14OTmakXD0mPKJc6y2i0U3ndca6FpyY2yWcO0cFnXk3LKmlHhab48LoZVXPoOKH8fKmFmXjoCPEeOEzp_TD-Q0HBat58BeUeMMpS6ayJfl29xAyREZwb1vmeb2kKLifR2oNQXFl-arkCeZd6UKfPkFL0H2pjlM2KQ-5jja2ZVB9Cz8yCgJXkPzEvg-EGKQcTNsjmwp8BjohTTzFS6eQCinc-8_j0TIDSqmgxHTEBLiDzbzsgi5l_pMvNsErTs5TvjgRa6ZThgsFfXStJhuN6YH0B6DdZAgfI4E0xIevfAHqN9qznpPd467wAD5-YiiB5_q9uAjAOl8JddGiLlh4uvKwMRTXz91lcFizoRNikj65G81-XLgjHJtDEaqHpeioQhFVKSj298gGXheu3RNyfU_0Cmli-DRVKSDewROL_8wjTKqKtJvjRqBwULIJzjY1zWGZvBQ4xmKKQcdowGYASOuOyHXubg08VhY6MaqXCFuLZRbqT7xKfXIfu8_ehCG4xEKfHfSPScUspHiDzJmvFJiAWIZ4Ilhk9ViSKtKm9eNKq_nUojJEolGNf2xWbU7CNIaPdl4AWH5ojN1bXA7AktzQfKc2tE-Qc_GviinqKFRGPs1PI5UvhiJEqjJkqlGkqMfujq79gF9ugrETpbFJCn8qHHeB7JAwXop8sIT94c-QgN15VSnwdDCbkAhk3_f-BanRkiSdMjbj0pJ6rby6Zp7aDNzWoI-qhy3WSG9fCr6e9gM2nkKPUWr9Zoy4EEwExtYqWNy6AoJ7Vm_giVW2-EUlr-dv8BvYcDpUPpJM8QHaIkIlpUviLm9xBebK_gX_39Ok5e3UOthE0vWgCNF0R?></g></svg>