<svg xmlns="http://www.w3.org/2000/svg" xmlns:xlink="http://www.w3.org/1999/xlink" contentStyleType="text/css" data-diagram-type="DESCRIPTION" height="816px" preserveAspectRatio="none" style="width:2159px;height:816px;background:#FEFEFE;" version="1.1" viewBox="0 0 2159 816" width="2159px" zoomAndPan="magnify"><?plantuml 1.2026.6?><defs/><g><rect fill="#FEFEFE" height="816" style="stroke:none;stroke-width:1;" width="2159" x="0" y="0"/><g class="title" data-source-line="35"><text fill="#000000" font-family="sans-serif" font-size="14" font-weight="700" lengthAdjust="spacing" textLength="252.082" x="950.0425" y="24.5332">Prediction Cards System Architecture</text></g><!--cluster External Systems--><g class="cluster" data-qualified-name="External Systems" data-source-line="37" id="ent0001"><path d="M89.2947,388.3752 C99.2337,377.7461 111.2585,377.8422 117.7424,392.2941 C123.702,380.9154 132.8431,380.1756 140.8223,390.1068 C150.1817,376.4688 160.7432,377.1152 167.9922,392.1094 C174.9232,378.0496 186.5869,376.1132 195.3567,390.3299 C202.2301,374.7617 217.4392,375.12 226.1855,388.3231 C233.2728,375.8076 241.9333,375.8728 249.0846,388.2643 C256.926,376.2379 268.6733,377.2901 276.3942,388.4065 C287.0269,375.1532 297.1259,377.411 306.1138,390.2779 C313.7242,378.6163 324.6482,381.356 330.8707,391.8302 C338.6558,377.0531 350.0463,375.9304 358.9492,390.7704 C367.1602,379.937 378.3451,377.7066 386.1531,391.2206 C394.5008,379.7572 402.2516,377.7082 411.0578,390.7548 C420.1084,377.8585 429.0825,373.4848 440.3146,388.4651 C451.2303,375.4504 465.7961,379.7119 471.15,394.6094 C473.5885,394.153 474.5262,395.5659 473.9009,397.7733 C485.1831,405.9667 488.9501,415.0214 475.1987,424.4334 C488.5426,432.8612 487.545,442.6137 474.6116,450.4486 C488.576,457.6523 489.0164,469.5133 476.2201,478.2644 C491.2794,483.6604 495.6698,495.8502 482.4313,507.2996 C493.6395,516.9789 493.714,525.8107 479.3831,532.3869 C491.6987,539.8369 493.0703,550.2947 480.6545,558.9293 C496.0881,565.3224 494.9344,575.983 483.6744,585.4192 C496.5606,595.128 497.2946,605.9251 481.983,613.9629 C496.8572,622.1318 494.5741,631.8143 483.5856,641.489 C494.5211,650.7561 493.5098,661.5752 480.7434,668.3328 C492.6718,675.7273 491.4622,684.5527 479.9604,691.1429 C491.4399,701.0912 489.5867,713.9517 476.2638,720.8096 C489.3343,728.007 486.2188,737.9252 475.9314,744.7988 C488.7737,761.7687 482.7744,772.6042 464.15,778.6094 C467.0899,779.1212 467.6771,780.7624 465.9113,783.1141 C456.7997,794.8954 443.0062,795.4793 437.2907,779.6002 C430.3346,791.5881 421.6145,792.9686 412.8617,781.4691 C405.8722,794.1316 393.7869,793.2493 387.0601,781.1949 C380.6541,795.2832 369.3537,795.0884 360.8638,783.3049 C354.2754,798.8875 342.8166,799.9824 332.6746,786.7856 C323.3464,801.872 314.6848,801.6097 304.9964,787.1227 C295.3316,799.0518 282.6742,800.0989 275.9629,784.057 C269.7062,799.6233 257.8053,797.4409 248.5508,787.2471 C236.4204,799.3561 228.5721,795.5733 221.1935,782.1547 C212.9898,792.8405 203.3757,793.152 195.4808,781.7945 C188.0469,794.8959 178.4933,793.4616 169.4491,783.6218 C160.3099,796.0446 148.0893,793.1634 141.9519,780.3509 C134.6995,790.657 124.2599,792.7879 117.789,779.5488 C101.0488,797.0746 88.1077,791.9587 79.15,771.6094 C80.7862,771.9051 81.1688,772.96 80.1619,774.2634 C67.4431,765.6532 69.3469,756.1867 80.2773,747.6791 C65.8379,741.1577 67.6776,727.8724 79.4215,720.5257 C65.7938,713.8835 62.8805,703.554 76.33,693.7817 C63.5008,686.081 63.2265,675.422 76.892,668.3058 C61.1441,661.9814 61.9548,648.4984 75.1089,640.3317 C59.6415,629.6943 60.9475,619.9849 76.1992,610.4692 C63.6864,605.5056 60.8088,595.6889 72.3646,586.8223 C61.1604,578.5083 59.7935,564.8698 74.4707,558.4791 C62.9249,552.079 64.6582,539.829 74.7372,533.6612 C58.6656,522.6291 63.7092,509.7266 78.5041,502.4157 C68.4256,495.039 67.181,487.4538 77.3151,479.0486 C66.4379,469.8972 65.3378,461.8505 78.1583,453.4807 C65.6313,443.9597 62.2745,431.8169 78.9329,423.0384 C64.0777,410.2916 66.3615,393.299 86.15,387.6094 C87.3041,386.512 88.8603,386.5171 89.2947,388.3752" fill="#E6F9FF" style="stroke:#00B3B3;stroke-width:1;"/><text fill="#006666" font-family="sans-serif" font-size="14" font-weight="700" lengthAdjust="spacing" textLength="116.7305" x="216.7848" y="407.1426">External Systems</text></g><!--cluster frontend--><g class="cluster" data-qualified-name="frontend" data-source-line="44" id="ent0006"><polygon fill="#FFF0E6" points="1151.15,54.6094,1161.15,44.6094,1441.15,44.6094,1441.15,464.1094,1431.15,474.1094,1151.15,474.1094,1151.15,54.6094" style="stroke:#CC6600;stroke-width:1;stroke-linejoin:miter;stroke-miterlimit:10;"/><line style="stroke:#CC6600;stroke-width:1;" x1="1431.15" x2="1441.15" y1="54.6094" y2="44.6094"/><line style="stroke:#CC6600;stroke-width:1;" x1="1151.15" x2="1431.15" y1="54.6094" y2="54.6094"/><line style="stroke:#CC6600;stroke-width:1;" x1="1431.15" x2="1431.15" y1="54.6094" y2="474.1094"/><text fill="#663300" font-family="sans-serif" font-size="14" font-weight="700" lengthAdjust="spacing" textLength="95.6758" x="1244.3121" y="72.1426">User Frontend</text></g><!--cluster services--><g class="cluster" data-qualified-name="services" data-source-line="50" id="ent0010"><polygon fill="#FFF0E6" points="713.15,219.6094,723.15,209.6094,1100.15,209.6094,1100.15,294.6094,1090.15,304.6094,713.15,304.6094,713.15,219.6094" style="stroke:#CC6600;stroke-width:1;stroke-linejoin:miter;stroke-miterlimit:10;"/><line style="stroke:#CC6600;stroke-width:1;" x1="1090.15" x2="1100.15" y1="219.6094" y2="209.6094"/><line style="stroke:#CC6600;stroke-width:1;" x1="713.15" x2="1090.15" y1="219.6094" y2="219.6094"/><line style="stroke:#CC6600;stroke-width:1;" x1="1090.15" x2="1090.15" y1="219.6094" y2="304.6094"/><text fill="#663300" font-family="sans-serif" font-size="14" font-weight="700" lengthAdjust="spacing" textLength="119.8545" x="842.7228" y="237.1426">Backend Services</text></g><!--cluster onchain--><g class="cluster" data-qualified-name="onchain" data-source-line="55" id="ent0013"><polygon fill="#FFF0E6" points="749.15,558.6094,759.15,548.6094,1015.15,548.6094,1015.15,781.1094,1005.15,791.1094,749.15,791.1094,749.15,558.6094" style="stroke:#CC6600;stroke-width:1;stroke-linejoin:miter;stroke-miterlimit:10;"/><line style="stroke:#CC6600;stroke-width:1;" x1="1005.15" x2="1015.15" y1="558.6094" y2="548.6094"/><line style="stroke:#CC6600;stroke-width:1;" x1="749.15" x2="1005.15" y1="558.6094" y2="558.6094"/><line style="stroke:#CC6600;stroke-width:1;" x1="1005.15" x2="1005.15" y1="558.6094" y2="791.1094"/><text fill="#663300" font-family="sans-serif" font-size="14" font-weight="700" lengthAdjust="spacing" textLength="144.6484" x="805.8258" y="576.1426">On-Chain Component</text></g><!--cluster test_env--><g class="cluster" data-qualified-name="test_env" data-source-line="60" id="ent0016"><polygon fill="#FFF0E6" points="1473.15,381.1094,1483.15,371.1094,1896.15,371.1094,1896.15,646.1094,1886.15,656.1094,1473.15,656.1094,1473.15,381.1094" style="stroke:#CC6600;stroke-width:1;stroke-linejoin:miter;stroke-miterlimit:10;"/><line style="stroke:#CC6600;stroke-width:1;" x1="1886.15" x2="1896.15" y1="381.1094" y2="371.1094"/><line style="stroke:#CC6600;stroke-width:1;" x1="1473.15" x2="1886.15" y1="381.1094" y2="381.1094"/><line style="stroke:#CC6600;stroke-width:1;" x1="1886.15" x2="1886.15" y1="381.1094" y2="656.1094"/><text fill="#663300" font-family="sans-serif" font-size="14" font-weight="700" lengthAdjust="spacing" textLength="158.6963" x="1601.3019" y="398.6426">Local Test Environment</text></g><!--entity blockchain--><g class="entity" data-qualified-name="External Systems.blockchain" data-source-line="38" id="ent0002"><rect fill="#E6F3FF" height="37.6094" rx="2.5" ry="2.5" style="stroke:#0066CC;stroke-width:0.5;" width="146.8408" x="215.65" y="732.6094"/><text fill="#003366" font-family="sans-serif" font-size="14" lengthAdjust="spacing" textLength="126.8408" x="225.65" y="757.1426">Aeternity Blockchain</text></g><!--entity price_provider--><g class="entity" data-qualified-name="External Systems.price_provider" data-source-line="39" id="ent0003"><path d="M299.65,425.6094 C299.65,415.6094 381.2325,415.6094 381.2325,415.6094 C381.2325,415.6094 462.815,415.6094 462.815,425.6094 L462.815,452.2188 C462.815,462.2188 381.2325,462.2188 381.2325,462.2188 C381.2325,462.2188 299.65,462.2188 299.65,452.2188 L299.65,425.6094" fill="#E6FFE6" style="stroke:#009900;stroke-width:0.5;"/><path d="M299.65,425.6094 C299.65,435.6094 381.2325,435.6094 381.2325,435.6094 C381.2325,435.6094 462.815,435.6094 462.815,425.6094" fill="none" style="stroke:#009900;stroke-width:0.5;"/><text fill="#006600" font-family="sans-serif" font-size="14" lengthAdjust="spacing" textLength="143.165" x="309.65" y="454.1426">External Price Provider</text></g><!--entity media_storage--><g class="entity" data-qualified-name="External Systems.media_storage" data-source-line="40" id="ent0004"><path d="M87.65,425.6094 C87.65,415.6094 176.2496,415.6094 176.2496,415.6094 C176.2496,415.6094 264.8492,415.6094 264.8492,425.6094 L264.8492,452.2188 C264.8492,462.2188 176.2496,462.2188 176.2496,462.2188 C176.2496,462.2188 87.65,462.2188 87.65,452.2188 L87.65,425.6094" fill="#E6FFE6" style="stroke:#009900;stroke-width:0.5;"/><path d="M87.65,425.6094 C87.65,435.6094 176.2496,435.6094 176.2496,435.6094 C176.2496,435.6094 264.8492,435.6094 264.8492,425.6094" fill="none" style="stroke:#009900;stroke-width:0.5;"/><text fill="#006600" font-family="sans-serif" font-size="14" lengthAdjust="spacing" textLength="157.1992" x="97.65" y="454.1426">Prediction Media Storage</text></g><!--entity wallet--><g class="entity" data-qualified-name="External Systems.wallet" data-source-line="41" id="ent0005"><polygon fill="#FFF0E6" points="325.15,594.6094,335.15,584.6094,463.1842,584.6094,463.1842,622.2188,453.1842,632.2188,325.15,632.2188,325.15,594.6094" style="stroke:#CC6600;stroke-width:0.5;stroke-linejoin:miter;stroke-miterlimit:10;"/><line style="stroke:#CC6600;stroke-width:0.5;" x1="453.1842" x2="463.1842" y1="594.6094" y2="584.6094"/><line style="stroke:#CC6600;stroke-width:0.5;" x1="325.15" x2="453.1842" y1="594.6094" y2="594.6094"/><line style="stroke:#CC6600;stroke-width:0.5;" x1="453.1842" x2="453.1842" y1="594.6094" y2="632.2188"/><text fill="#663300" font-family="sans-serif" font-size="14" lengthAdjust="spacing" textLength="98.0342" x="340.15" y="619.1426">Aeternity Wallet</text></g><!--entity ui--><g class="entity" data-qualified-name="frontend.ui" data-source-line="45" id="ent0007"><ellipse cx="1296.15" cy="115.6094" fill="#F0E6FF" rx="8" ry="8" style="stroke:#6600CC;stroke-width:0.5;"/><text fill="#330066" font-family="sans-serif" font-size="14" lengthAdjust="spacing" textLength="243.5781" x="1174.3609" y="147.1426">Wallet-Connected Frontend Application</text></g><!--entity context--><g class="entity" data-qualified-name="frontend.context" data-source-line="46" id="ent0008"><rect fill="#E6F3FF" height="37.6094" rx="2.5" ry="2.5" style="stroke:#0066CC;stroke-width:0.5;" width="184.1924" x="1167.15" y="250.6094"/><text fill="#003366" font-family="sans-serif" font-size="14" lengthAdjust="spacing" textLength="164.1924" x="1177.15" y="275.1426">Frontend Context/Provider</text></g><!--entity sdk--><g class="entity" data-qualified-name="frontend.sdk" data-source-line="47" id="ent0009"><rect fill="#E6F3FF" height="37.6094" rx="2.5" ry="2.5" style="stroke:#0066CC;stroke-width:0.5;" width="177.9717" x="1170.15" y="420.1094"/><text fill="#003366" font-family="sans-serif" font-size="14" lengthAdjust="spacing" textLength="157.9717" x="1180.15" y="444.6426">Aeternity SDK Integration</text></g><!--entity processing_service--><g class="entity" data-qualified-name="services.processing_service" data-source-line="51" id="ent0011"><rect fill="#E6F3FF" height="37.6094" rx="2.5" ry="2.5" style="stroke:#0066CC;stroke-width:0.5;" width="206.7441" x="876.65" y="250.6094"/><text fill="#003366" font-family="sans-serif" font-size="14" lengthAdjust="spacing" textLength="186.7441" x="886.65" y="275.1426">Prediction-Processing Service</text></g><!--entity oracle_service--><g class="entity" data-qualified-name="services.oracle_service" data-source-line="52" id="ent0012"><rect fill="#E6F3FF" height="37.6094" rx="2.5" ry="2.5" style="stroke:#0066CC;stroke-width:0.5;" width="111.8066" x="729.15" y="250.6094"/><text fill="#003366" font-family="sans-serif" font-size="14" lengthAdjust="spacing" textLength="91.8066" x="739.15" y="275.1426">Oracle Service</text></g><!--entity contract--><g class="entity" data-qualified-name="onchain.contract" data-source-line="56" id="ent0014"><rect fill="#E6F3FF" height="37.6094" rx="2.5" ry="2.5" style="stroke:#0066CC;stroke-width:0.5;" width="217.627" x="773.15" y="589.6094"/><text fill="#003366" font-family="sans-serif" font-size="14" lengthAdjust="spacing" textLength="197.627" x="783.15" y="614.1426">PredictionCards Smart Contract</text></g><!--entity contract_state--><g class="entity" data-qualified-name="onchain.contract_state" data-source-line="57" id="ent0015"><path d="M765.15,738.1094 C765.15,728.1094 882.1256,728.1094 882.1256,728.1094 C882.1256,728.1094 999.1012,728.1094 999.1012,738.1094 L999.1012,764.7188 C999.1012,774.7188 882.1256,774.7188 882.1256,774.7188 C882.1256,774.7188 765.15,774.7188 765.15,764.7188 L765.15,738.1094" fill="#E6FFE6" style="stroke:#009900;stroke-width:0.5;"/><path d="M765.15,738.1094 C765.15,748.1094 882.1256,748.1094 882.1256,748.1094 C882.1256,748.1094 999.1012,748.1094 999.1012,738.1094" fill="none" style="stroke:#009900;stroke-width:0.5;"/><text fill="#006600" font-family="sans-serif" font-size="14" lengthAdjust="spacing" textLength="213.9512" x="775.15" y="766.6426">Contract State (Predictions, NFTs)</text></g><!--entity test_stack--><g class="entity" data-qualified-name="test_env.test_stack" data-source-line="61" id="ent0017"><rect fill="#E6F3FF" height="37.6094" rx="2.5" ry="2.5" style="stroke:#0066CC;stroke-width:0.5;" width="251.1094" x="1497.65" y="420.1094"/><text fill="#003366" font-family="sans-serif" font-size="14" lengthAdjust="spacing" textLength="231.1094" x="1507.65" y="444.6426">Local Contract Integration-Test Stack</text></g><!--entity cors_proxy--><g class="entity" data-qualified-name="test_env.cors_proxy" data-source-line="62" id="ent0018"><rect fill="#E6F3FF" height="37.6094" rx="2.5" ry="2.5" style="stroke:#0066CC;stroke-width:0.5;" width="187.2891" x="1497.65" y="589.6094"/><text fill="#003366" font-family="sans-serif" font-size="14" lengthAdjust="spacing" textLength="167.2891" x="1507.65" y="614.1426">CORS/Proxy Configuration</text></g><!--entity test_node--><g class="entity" data-qualified-name="test_env.test_node" data-source-line="63" id="ent0019"><path d="M1720.15,595.1094 C1720.15,585.1094 1792.0118,585.1094 1792.0118,585.1094 C1792.0118,585.1094 1863.8736,585.1094 1863.8736,595.1094 L1863.8736,621.7188 C1863.8736,631.7188 1792.0118,631.7188 1792.0118,631.7188 C1792.0118,631.7188 1720.15,631.7188 1720.15,621.7188 L1720.15,595.1094" fill="#E6FFE6" style="stroke:#009900;stroke-width:0.5;"/><path d="M1720.15,595.1094 C1720.15,605.1094 1792.0118,605.1094 1792.0118,605.1094 C1792.0118,605.1094 1863.8736,605.1094 1863.8736,595.1094" fill="none" style="stroke:#009900;stroke-width:0.5;"/><text fill="#006600" font-family="sans-serif" font-size="14" lengthAdjust="spacing" textLength="123.7236" x="1730.15" y="623.6426">Test Aeternity Node</text></g><g class="entity" data-qualified-name="GMN37" data-source-line="89" id="ent0038"><path d="M498.15,409.6094 L498.15,468.6641 A0,0 0 0 0 498.15,468.6641 L652.6,468.6641 L852.68,589.4594 L660.6,468.6641 L722.1734,468.6641 A0,0 0 0 0 722.1734,468.6641 L722.1734,419.6094 L712.1734,409.6094 L498.15,409.6094 A0,0 0 0 0 498.15,409.6094" fill="#FEFFDD" style="stroke:#181818;stroke-width:0.5;"/><path d="M712.1734,409.6094 L712.1734,419.6094 L722.1734,419.6094 L712.1734,409.6094" fill="#FEFFDD" style="stroke:#181818;stroke-width:0.5;"/><text fill="#000000" font-family="sans-serif" font-size="13" lengthAdjust="spacing" textLength="141.6353" x="504.15" y="428.1045">Located via AENS name</text><text fill="#000000" font-family="sans-serif" font-size="13" lengthAdjust="spacing" textLength="169.0762" x="504.15" y="444.4561">Maintains prediction lifecycle,</text><text fill="#000000" font-family="sans-serif" font-size="13" lengthAdjust="spacing" textLength="203.0234" x="504.15" y="460.8076">outcome NFT state, funds, rewards</text></g><g class="entity" data-qualified-name="GMN40" data-source-line="95" id="ent0041"><path d="M1457.65,240.1094 L1457.65,299.1641 L1684.5743,299.1641 L1684.5743,250.1094 L1674.5743,240.1094 L1457.65,240.1094" fill="#FEFFDD" style="stroke:#181818;stroke-width:0.5;"/><path d="M1674.5743,240.1094 L1674.5743,250.1094 L1684.5743,250.1094 L1674.5743,240.1094" fill="#FEFFDD" style="stroke:#181818;stroke-width:1;"/><text fill="#000000" font-family="sans-serif" font-size="13" lengthAdjust="spacing" textLength="88.8799" x="1463.65" y="258.6045">Quarkus-based</text><text fill="#000000" font-family="sans-serif" font-size="13" lengthAdjust="spacing" textLength="169.8379" x="1463.65" y="274.9561">Scheduled periodic execution</text><text fill="#000000" font-family="sans-serif" font-size="13" lengthAdjust="spacing" textLength="205.9243" x="1463.65" y="291.3076">Maintains oracle registration/validity</text></g><g class="entity" data-qualified-name="GMN43" data-source-line="101" id="ent0044"><path d="M1719.65,240.1094 L1719.65,299.1641 L1892.3907,299.1641 L1892.3907,250.1094 L1882.3907,240.1094 L1719.65,240.1094" fill="#FEFFDD" style="stroke:#181818;stroke-width:0.5;"/><path d="M1882.3907,240.1094 L1882.3907,250.1094 L1892.3907,250.1094 L1882.3907,240.1094" fill="#FEFFDD" style="stroke:#181818;stroke-width:1;"/><text fill="#000000" font-family="sans-serif" font-size="13" lengthAdjust="spacing" textLength="106.228" x="1725.65" y="258.6045">Scheduled service</text><text fill="#000000" font-family="sans-serif" font-size="13" lengthAdjust="spacing" textLength="144.5044" x="1725.65" y="274.9561">Drives closed predictions</text><text fill="#000000" font-family="sans-serif" font-size="13" lengthAdjust="spacing" textLength="151.7407" x="1725.65" y="291.3076">through outcome workflow</text></g><g class="entity" data-qualified-name="GMN46" data-source-line="107" id="ent0047"><path d="M1920.15,571.1094 L1920.15,646.5156 L2144.1671,646.5156 L2144.1671,581.1094 L2134.1671,571.1094 L1920.15,571.1094" fill="#FEFFDD" style="stroke:#181818;stroke-width:0.5;"/><path d="M2134.1671,571.1094 L2134.1671,581.1094 L2144.1671,581.1094 L2134.1671,571.1094" fill="#FEFFDD" style="stroke:#181818;stroke-width:1;"/><text fill="#000000" font-family="sans-serif" font-size="13" lengthAdjust="spacing" textLength="163.3252" x="1926.15" y="589.6045">Local development &amp; testing</text><text fill="#000000" font-family="sans-serif" font-size="13" lengthAdjust="spacing" textLength="203.0171" x="1926.15" y="605.9561">Browser-compatible CORS support</text><text fill="#000000" font-family="sans-serif" font-size="13" lengthAdjust="spacing" textLength="196.4854" x="1926.15" y="622.3076">(GET, POST, OPTIONS methods,</text><text fill="#000000" font-family="sans-serif" font-size="13" lengthAdjust="spacing" textLength="115.6289" x="1926.15" y="638.6592">configured headers)</text></g><!--link ui to context--><g class="link" data-entity-1="ent0007" data-entity-2="ent0008" data-link-type="dependency" data-source-line="67" id="lnk20"><path d="M1294.16,124.7794 C1288.4,148.4594 1272.7615,212.661 1264.7215,245.721" fill="none" id="ui-to-context" style="stroke:#181818;stroke-width:1;"/><polygon fill="#181818" points="1263.54,250.5794,1269.5535,242.7795,1264.7215,245.721,1261.78,240.889,1263.54,250.5794" style="stroke:#181818;stroke-width:1;stroke-linejoin:miter;stroke-miterlimit:10;"/><text fill="#000000" font-family="sans-serif" font-size="13" lengthAdjust="spacing" textLength="173.437" x="1281.15" y="190.1045">provides prediction operations</text></g><!--link context to sdk--><g class="link" data-entity-1="ent0008" data-entity-2="ent0009" data-link-type="dependency" data-source-line="68" id="lnk21"><path d="M1259.15,288.8494 C1259.15,321.0694 1259.15,382.6794 1259.15,414.8894" fill="none" id="context-to-sdk" style="stroke:#181818;stroke-width:1;"/><polygon fill="#181818" points="1259.15,419.8894,1263.15,410.8894,1259.15,414.8894,1255.15,410.8894,1259.15,419.8894" style="stroke:#181818;stroke-width:1;stroke-linejoin:miter;stroke-miterlimit:10;"/><text fill="#000000" font-family="sans-serif" font-size="13" lengthAdjust="spacing" textLength="27.46" x="1260.15" y="343.6045">uses</text></g><!--link sdk to wallet--><g class="link" data-entity-1="ent0009" data-entity-2="ent0005" data-link-type="dependency" data-source-line="69" id="lnk22"><path d="M1215.73,458.1694 C1194.21,466.5094 1167.65,475.9194 1143.15,482.1094 C1057.33,503.7894 836.43,525.8994 749.15,540.6094 C649.57,557.3894 539.7449,578.5987 468.2949,592.7387" fill="none" id="sdk-to-wallet" style="stroke:#181818;stroke-width:1;"/><polygon fill="#181818" points="463.39,593.7094,472.9953,595.8861,468.2949,592.7387,471.4422,588.0383,463.39,593.7094" style="stroke:#181818;stroke-width:1;stroke-linejoin:miter;stroke-miterlimit:10;"/><text fill="#000000" font-family="sans-serif" font-size="13" lengthAdjust="spacing" textLength="120.6626" x="1054.15" y="521.1045">wallet-mediated calls</text></g><!--link sdk to contract--><g class="link" data-entity-1="ent0009" data-entity-2="ent0014" data-link-type="dependency" data-source-line="70" id="lnk23"><path d="M1250.44,458.4294 C1239.41,479.5994 1218.39,513.9294 1190.15,532.6094 C1131.17,571.6194 1058.739,589.6568 996.299,598.6468" fill="none" id="sdk-to-contract" style="stroke:#181818;stroke-width:1;"/><polygon fill="#181818" points="991.35,599.3594,1000.8282,602.036,996.299,598.6468,999.6881,594.1176,991.35,599.3594" style="stroke:#181818;stroke-width:1;stroke-linejoin:miter;stroke-miterlimit:10;"/><text fill="#000000" font-family="sans-serif" font-size="13" lengthAdjust="spacing" textLength="164.7407" x="1224.15" y="513.1045">submits transactions/queries</text><text fill="#000000" font-family="sans-serif" font-size="13" lengthAdjust="spacing" textLength="91.7617" x="1260.6395" y="529.4561">via AENS name</text></g><!--link contract to contract_state--><g class="link" data-entity-1="ent0014" data-entity-2="ent0015" data-link-type="dependency" data-source-line="71" id="lnk24"><path d="M882.15,627.7494 C882.15,653.3394 882.15,694.9994 882.15,722.8694" fill="none" id="contract-to-contract_state" style="stroke:#181818;stroke-width:1;"/><polygon fill="#181818" points="882.15,727.8694,886.15,718.8694,882.15,722.8694,878.15,718.8694,882.15,727.8694" style="stroke:#181818;stroke-width:1;stroke-linejoin:miter;stroke-miterlimit:10;"/><text fill="#000000" font-family="sans-serif" font-size="13" lengthAdjust="spacing" textLength="53.479" x="883.15" y="694.6045">manages</text></g><!--link contract to blockchain--><g class="link" data-entity-1="ent0014" data-entity-2="ent0002" data-link-type="dependency" data-source-line="72" id="lnk25"><path d="M806.44,627.6094 C692.01,654.8194 481.2044,704.9426 367.8744,731.8926" fill="none" id="contract-to-blockchain" style="stroke:#181818;stroke-width:1;"/><polygon fill="#181818" points="363.01,733.0494,372.6912,734.8587,367.8744,731.8926,370.8404,727.0757,363.01,733.0494" style="stroke:#181818;stroke-width:1;stroke-linejoin:miter;stroke-miterlimit:10;"/><text fill="#000000" font-family="sans-serif" font-size="13" lengthAdjust="spacing" textLength="70.8398" x="586.15" y="694.6045">deployed on</text></g><!--link processing_service to contract--><g class="link" data-entity-1="ent0011" data-entity-2="ent0014" data-link-type="dependency" data-source-line="73" id="lnk26"><path d="M977.18,288.6994 C970.91,325.5794 955.04,411.9094 933.15,482.1094 C920.96,521.1794 903.8595,560.5623 892.8195,584.7023" fill="none" id="processing_service-to-contract" style="stroke:#181818;stroke-width:1;"/><polygon fill="#181818" points="890.74,589.2494,898.1208,582.7283,892.8195,584.7023,890.8455,579.4011,890.74,589.2494" style="stroke:#181818;stroke-width:1;stroke-linejoin:miter;stroke-miterlimit:10;"/><text fill="#000000" font-family="sans-serif" font-size="13" lengthAdjust="spacing" textLength="129.3462" x="981.0414" y="436.6045">initiates oracle queries</text><text fill="#000000" font-family="sans-serif" font-size="13" lengthAdjust="spacing" textLength="161.1289" x="965.15" y="452.9561">completes result processing</text></g><!--link oracle_service to contract--><g class="link" data-entity-1="ent0012" data-entity-2="ent0014" data-link-type="dependency" data-source-line="74" id="lnk27"><path d="M786.21,288.8694 C788.76,326.0594 796.81,412.9194 819.15,482.1094 C832.11,522.2494 853.7388,561.1672 868.0788,584.9572" fill="none" id="oracle_service-to-contract" style="stroke:#181818;stroke-width:1;"/><polygon fill="#181818" points="870.66,589.2394,869.4396,579.4664,868.0788,584.9572,862.5881,583.5964,870.66,589.2394" style="stroke:#181818;stroke-width:1;stroke-linejoin:miter;stroke-miterlimit:10;"/><text fill="#000000" font-family="sans-serif" font-size="13" lengthAdjust="spacing" textLength="78.7681" x="834.9559" y="436.6045">reads queries</text><text fill="#000000" font-family="sans-serif" font-size="13" lengthAdjust="spacing" textLength="108.3799" x="820.15" y="452.9561">submits responses</text></g><!--link oracle_service to price_provider--><g class="link" data-entity-1="ent0012" data-entity-2="ent0003" data-link-type="dependency" data-source-line="75" id="lnk28"><path d="M729.01,278.9194 C665.94,289.8794 561.85,312.8994 481.15,355.1094 C451.16,370.7994 425.5482,393.0968 406.5282,411.7668" fill="none" id="oracle_service-to-price_provider" style="stroke:#181818;stroke-width:1;"/><polygon fill="#181818" points="402.96,415.2694,412.1848,411.8194,406.5282,411.7668,406.5807,406.1102,402.96,415.2694" style="stroke:#181818;stroke-width:1;stroke-linejoin:miter;stroke-miterlimit:10;"/><text fill="#000000" font-family="sans-serif" font-size="13" lengthAdjust="spacing" textLength="102.6226" x="536.15" y="343.6045">obtains price data</text></g><!--link oracle_service to blockchain--><g class="link" data-entity-1="ent0012" data-entity-2="ent0002" data-link-type="dependency" data-source-line="76" id="lnk29"><path d="M763.83,288.6394 C752.03,297.5194 736.65,307.4194 721.15,312.6094 C652.41,335.6194 125.04,307.7694 70.15,355.1094 C9.5,407.4094 6,459.7094 39.15,532.6094 C83.49,630.1094 190.9781,698.6195 248.8481,730.1095" fill="none" id="oracle_service-to-blockchain" style="stroke:#181818;stroke-width:1;"/><polygon fill="#181818" points="253.24,732.4994,247.2465,724.6841,248.8481,730.1095,243.4227,731.7112,253.24,732.4994" style="stroke:#181818;stroke-width:1;stroke-linejoin:miter;stroke-miterlimit:10;"/><text fill="#000000" font-family="sans-serif" font-size="13" lengthAdjust="spacing" textLength="148.1162" x="40.15" y="521.1045">registers/maintains oracle</text></g><!--link ui to media_storage--><g class="link" data-entity-1="ent0007" data-entity-2="ent0004" data-link-type="dependency" data-source-line="77" id="lnk30"><path d="M1287.11,116.3494 C1224.25,114.7694 846.13,109.5494 559.15,201.6094 C410.69,249.2294 264.8513,363.0467 206.0213,412.3767" fill="none" id="ui-to-media_storage" style="stroke:#181818;stroke-width:1;"/><polygon fill="#181818" points="202.19,415.5894,211.6565,412.8717,206.0213,412.3767,206.5163,406.7416,202.19,415.5894" style="stroke:#181818;stroke-width:1;stroke-linejoin:miter;stroke-miterlimit:10;"/><text fill="#000000" font-family="sans-serif" font-size="13" lengthAdjust="spacing" textLength="152.4517" x="560.15" y="275.1045">loads outcome NFT media</text></g><!--link test_stack to cors_proxy--><g class="link" data-entity-1="ent0017" data-entity-2="ent0018" data-link-type="dependency" data-source-line="78" id="lnk31"><path d="M1619.66,458.3494 C1613.51,490.5694 1601.7177,552.2681 1595.5677,584.4781" fill="none" id="test_stack-to-cors_proxy" style="stroke:#181818;stroke-width:1;"/><polygon fill="#181818" points="1594.63,589.3894,1600.2469,581.2993,1595.5677,584.4781,1592.3889,579.7989,1594.63,589.3894" style="stroke:#181818;stroke-width:1;stroke-linejoin:miter;stroke-miterlimit:10;"/><text fill="#000000" font-family="sans-serif" font-size="13" lengthAdjust="spacing" textLength="87.439" x="1612.15" y="521.1045">configured with</text></g><!--link test_stack to test_node--><g class="link" data-entity-1="ent0017" data-entity-2="ent0019" data-link-type="dependency" data-source-line="79" id="lnk32"><path d="M1654.37,458.2894 C1671.25,468.8994 1691.9,483.2094 1708.15,498.6094 C1736.24,525.2294 1759.6568,557.6422 1775.0868,580.9122" fill="none" id="test_stack-to-test_node" style="stroke:#181818;stroke-width:1;"/><polygon fill="#181818" points="1777.85,585.0794,1776.21,575.368,1775.0868,580.9122,1769.5426,579.7891,1777.85,585.0794" style="stroke:#181818;stroke-width:1;stroke-linejoin:miter;stroke-miterlimit:10;"/><text fill="#000000" font-family="sans-serif" font-size="13" lengthAdjust="spacing" textLength="66.4854" x="1739.15" y="521.1045">connects to</text></g><!--link test_stack to contract--><g class="link" data-entity-1="ent0017" data-entity-2="ent0014" data-link-type="dependency" data-source-line="80" id="lnk33"><path d="M1586.92,458.1694 C1543.07,479.2694 1466.47,513.6794 1397.15,532.6094 C1259.87,570.0894 1101.5491,589.3832 996.2191,599.0332" fill="none" id="test_stack-to-contract" style="stroke:#181818;stroke-width:1;"/><polygon fill="#181818" points="991.24,599.4894,1000.5674,602.6516,996.2191,599.0332,999.8375,594.6849,991.24,599.4894" style="stroke:#181818;stroke-width:1;stroke-linejoin:miter;stroke-miterlimit:10;"/><text fill="#000000" font-family="sans-serif" font-size="13" lengthAdjust="spacing" textLength="91.7744" x="1492.15" y="521.1045">tests integration</text></g><!--link wallet to blockchain--><g class="link" data-entity-1="ent0005" data-entity-2="ent0002" data-link-type="dependency" data-source-line="83" id="lnk34"><path d="M376.81,632.8894 C356.07,660.7394 324.7756,702.7586 305.8156,728.2286" fill="none" id="wallet-to-blockchain" style="stroke:#181818;stroke-width:1;"/><polygon fill="#181818" points="302.83,732.2394,311.4127,727.4085,305.8156,728.2286,304.9955,722.6315,302.83,732.2394" style="stroke:#181818;stroke-width:1;stroke-linejoin:miter;stroke-miterlimit:10;"/><text fill="#000000" font-family="sans-serif" font-size="13" lengthAdjust="spacing" textLength="66.4854" x="342.15" y="694.6045">connects to</text></g><!--link price_provider to blockchain--><!--link media_storage to blockchain--><!--link oracle_service to GMN40--><g class="link" data-entity-1="ent0012" data-entity-2="ent0041" data-link-type="association" data-source-line="95" id="lnk42"><path d="M796.48,250.4194 C811.46,227.1794 840.25,189.1994 876.65,173.6094 C932.52,149.6794 1365.38,156.3194 1423.65,173.6094 C1467.29,186.5594 1510.1,216.9594 1538.26,240.0994" fill="none" id="oracle_service-GMN40" style="stroke:#181818;stroke-width:1;stroke-dasharray:7,7;"/></g><!--link GMN43 to processing_service--><g class="link" data-entity-1="ent0044" data-entity-2="ent0011" data-link-type="association" data-source-line="101" id="lnk45"><path d="M1779.59,239.7394 C1756.97,216.7094 1722.23,186.6694 1684.65,173.6094 C1576.33,135.9794 1280.15,146.8494 1168.65,173.6094 C1106.87,188.4394 1042.5,227.0694 1007.26,250.5594" fill="none" id="GMN43-processing_service" style="stroke:#181818;stroke-width:1;stroke-dasharray:7,7;"/></g><!--link test_env to GMN46--><g class="link" data-entity-1="ent0016" data-entity-2="ent0047" data-link-type="association" data-source-line="107" id="lnk48"><path d="M1896.2041,449.4787 C1897.7153,451.2362 1899.4132,453.2108 1901.2755,455.3767 C1908.7247,464.0403 1918.8044,475.7637 1930.0838,488.8831 C1952.6425,515.1219 1980,546.9444 2000.71,571.0394" fill="none" id="test_env-GMN46" style="stroke:#181818;stroke-width:1;stroke-dasharray:7,7;"/></g><?plantuml-src TLPjYnit4Fw-lq9reKtWp1aCXkk7W6_Z3Q79-Hexz4DR3baxjeMrqbRI-eNG_zuPxVlQ9d3npiuyUkRHCsF_bC9MQc3V5l5w_lBfou89nPsBt47gd5kUCM6ot6ZGVkKl2fW5uRdUAUYaRBWuxAmfT1eRPIpxELdGlriWx4V4sFCmVp5Bfab2RunDmLRHoMGsYsEC9aRx9ZQTpcRHVnriRLAu3PiaoMGn6yB6yMmscVHXPxFf56DTs9Hxlk4ExZ9Ehg4dawUd8JHrCO2MseFTSd6FzeJGXzY4CbI3I0_K-BU0uhuSoIqvulXQZYlEGfaYlQl5qwtRUvu-Jw-r27mZBpsQwTL2AeMNHhEOszInrSLvoDZSYhtqwBJ2GXILHuyMPrHDSrKbkL5WqpfhD0TAaFx2dfKH1x7dKeyOTspJF691SwyjuAkLWiYOeqJ-eIIdq5jUXNfb7T9VyHDdAsyitq6eooZovie8bWLpTfZzoPK27r9FuIE9KIPzTs1POb4jq6d8s5OFeT7MDACIP1mRhL4ZI9igDizp9GKdSW6Xa7s9ciIO_Z_xnrxJeWpUKtNryNVs6JDsjZt0fOUs0t86WQ_07b4-LsPK3yFRQcKS8mbCS5BlwjBg3khmMmNIHrXQBj14tH8JGarwmsofnp7TF_PTbPVfEhZYFhNAbHctFaY6yBwHYXvwpgWpq17S0tlNuhW7zfAitVjUBTe4qrgINun0Cwx1URRGHubNbTL4FGRVG1-7JCkIvjpExOm33X8HXnR1qMCV8Lv-Mv4BpXU2sSfTqRbTOQoZ8JXVUdq6wDONByY-FODwePv-PPK_gVsea6my_b0xZFt6HjLiqJKtysHoA4ztewXEfJ9q6PKK3ZqLqGC5o_cXUFbf76QFnW4rKPt4MczATSKcanwfMguTByazuiwq4jpVA3fdyyNBYccUGKaX57PHobiZh8nh778to6kN3UMaa2jpGKweQ7Hjw2j-4XMb9cehiuORtHbsYMyik4BvpdYCehxlhr0jSBHn0rMBW41eWo3g3O3-2YGOi_7OLhKSWnzk5lOLiB2JkA-jUymmKWAKHQFQ5RsbIJNA45zJU6mQQ7BAb57KkhZgiVOdLOdAlwZsIVhzLNPZpogPp8bEC3TWM-debGlBjrvxPEtcgwFPoYwg_7YjGE-eWQhZl_OoJK7_qo-B-fBSoq8cBmOPuW91ItgJCxFjhYPQ3pGGFLzZ_6jp4vtXKt8BueBtye0PNUs3uH_O5h_nSOzPED5IZ6ZHqx5HURYLkxsdumShcB4_2cuFXHlJxaZnUINsa1OAQU6qIuF7CpY3A8X4Zrir0QM1Il4VZrp959VEy7W5st3wpU-CziGszj7A8yuI_hPmnAJTrFZEx_7dpMxVY70ozh1LvZGyT6EyDnaTM-_dIdF5KZY2CZajSFPBU8sKw2UIDISaCQPfneuss1zjOEQAF3UMxkpTfyNwWRqkL_Xt-Rh-lCHhoy3l3OeVLdTZyZrEDSxL-vRM_m00?></g></svg>