<svg xmlns="http://www.w3.org/2000/svg" xmlns:xlink="http://www.w3.org/1999/xlink" contentStyleType="text/css" data-diagram-type="DESCRIPTION" height="1260px" preserveAspectRatio="none" style="width:2727px;height:1260px;background:#FFFFFF;" version="1.1" viewBox="0 0 2727 1260" width="2727px" zoomAndPan="magnify"><?plantuml 1.2026.6?><defs/><g><g class="title" data-source-line="1"><text fill="#000000" font-family="sans-serif" font-size="14" font-weight="700" lengthAdjust="spacing" textLength="213.1787" x="1253.8657" y="24.5332">DeepCode Layered Architecture</text></g><!--cluster Frontend--><g class="cluster" data-qualified-name="Frontend" data-source-line="4" id="ent0002"><path d="M453.5,169.1094 L515.1553,169.1094 A3.75,3.75 0 0 1 517.6553,171.6094 L524.6553,192.7188 L620.5,192.7188 A2.5,2.5 0 0 1 623,195.2188 L623,375.6094 A2.5,2.5 0 0 1 620.5,378.1094 L453.5,378.1094 A2.5,2.5 0 0 1 451,375.6094 L451,171.6094 A2.5,2.5 0 0 1 453.5,169.1094" fill="none" style="stroke:#000000;stroke-width:1.5;"/><line style="stroke:#000000;stroke-width:1.5;" x1="451" x2="524.6553" y1="192.7188" y2="192.7188"/><text fill="#000000" font-family="sans-serif" font-size="14" font-weight="700" lengthAdjust="spacing" textLength="60.6553" x="455" y="185.6426">Frontend</text></g><!--cluster Backend--><g class="cluster" data-qualified-name="Backend" data-source-line="11" id="ent0007"><path d="M8.5,428.1094 L67.8584,428.1094 A3.75,3.75 0 0 1 70.3584,430.6094 L77.3584,451.7188 L1216.5,451.7188 A2.5,2.5 0 0 1 1219,454.2188 L1219,1138.6094 A2.5,2.5 0 0 1 1216.5,1141.1094 L8.5,1141.1094 A2.5,2.5 0 0 1 6,1138.6094 L6,430.6094 A2.5,2.5 0 0 1 8.5,428.1094" fill="none" style="stroke:#000000;stroke-width:1.5;"/><line style="stroke:#000000;stroke-width:1.5;" x1="6" x2="77.3584" y1="451.7188" y2="451.7188"/><text fill="#000000" font-family="sans-serif" font-size="14" font-weight="700" lengthAdjust="spacing" textLength="58.3584" x="10" y="444.6426">Backend</text></g><!--cluster Presentation_Layer--><g class="cluster" data-qualified-name="Backend.Presentation_Layer" data-source-line="12" id="ent0008"><path d="M425.5,472.1094 L556.4443,472.1094 A3.75,3.75 0 0 1 558.9443,474.6094 L565.9443,495.7188 L648.5,495.7188 A2.5,2.5 0 0 1 651,498.2188 L651,678.6094 A2.5,2.5 0 0 1 648.5,681.1094 L425.5,681.1094 A2.5,2.5 0 0 1 423,678.6094 L423,474.6094 A2.5,2.5 0 0 1 425.5,472.1094" fill="none" style="stroke:#000000;stroke-width:1.5;"/><line style="stroke:#000000;stroke-width:1.5;" x1="423" x2="565.9443" y1="495.7188" y2="495.7188"/><text fill="#000000" font-family="sans-serif" font-size="14" font-weight="700" lengthAdjust="spacing" textLength="129.9443" x="427" y="488.6426">Presentation_Layer</text></g><!--cluster Proxy_Layer--><g class="cluster" data-qualified-name="Backend.Proxy_Layer" data-source-line="16" id="ent0011"><path d="M422.5,714.1094 L507.5547,714.1094 A3.75,3.75 0 0 1 510.0547,716.6094 L517.0547,737.7188 L1192.5,737.7188 A2.5,2.5 0 0 1 1195,740.2188 L1195,811.6094 A2.5,2.5 0 0 1 1192.5,814.1094 L422.5,814.1094 A2.5,2.5 0 0 1 420,811.6094 L420,716.6094 A2.5,2.5 0 0 1 422.5,714.1094" fill="none" style="stroke:#000000;stroke-width:1.5;"/><line style="stroke:#000000;stroke-width:1.5;" x1="420" x2="517.0547" y1="737.7188" y2="737.7188"/><text fill="#000000" font-family="sans-serif" font-size="14" font-weight="700" lengthAdjust="spacing" textLength="84.0547" x="424" y="730.6426">Proxy_Layer</text></g><!--cluster Business_Layer--><g class="cluster" data-qualified-name="Backend.Business_Layer" data-source-line="22" id="ent0016"><path d="M32.5,868.1094 L140.8926,868.1094 A3.75,3.75 0 0 1 143.3926,870.6094 L150.3926,891.7188 L1192.5,891.7188 A2.5,2.5 0 0 1 1195,894.2188 L1195,965.6094 A2.5,2.5 0 0 1 1192.5,968.1094 L32.5,968.1094 A2.5,2.5 0 0 1 30,965.6094 L30,870.6094 A2.5,2.5 0 0 1 32.5,868.1094" fill="none" style="stroke:#000000;stroke-width:1.5;"/><line style="stroke:#000000;stroke-width:1.5;" x1="30" x2="150.3926" y1="891.7188" y2="891.7188"/><text fill="#000000" font-family="sans-serif" font-size="14" font-weight="700" lengthAdjust="spacing" textLength="107.3926" x="34" y="884.6426">Business_Layer</text></g><!--cluster Access_Layer--><g class="cluster" data-qualified-name="Backend.Access_Layer" data-source-line="30" id="ent0023"><path d="M46.5,1017.1094 L141.6855,1017.1094 A3.75,3.75 0 0 1 144.1855,1019.6094 L151.1855,1040.7188 L786.5,1040.7188 A2.5,2.5 0 0 1 789,1043.2188 L789,1114.6094 A2.5,2.5 0 0 1 786.5,1117.1094 L46.5,1117.1094 A2.5,2.5 0 0 1 44,1114.6094 L44,1019.6094 A2.5,2.5 0 0 1 46.5,1017.1094" fill="none" style="stroke:#000000;stroke-width:1.5;"/><line style="stroke:#000000;stroke-width:1.5;" x1="44" x2="151.1855" y1="1040.7188" y2="1040.7188"/><text fill="#000000" font-family="sans-serif" font-size="14" font-weight="700" lengthAdjust="spacing" textLength="94.1855" x="48" y="1033.6426">Access_Layer</text></g><!--cluster Judge--><g class="cluster" data-qualified-name="Judge" data-source-line="62" id="ent0050"><polygon fill="none" points="1825,865.1094,1835,855.1094,2143,855.1094,2143,966.1094,2133,976.1094,1825,976.1094,1825,865.1094" style="stroke:#181818;stroke-width:1;stroke-linejoin:miter;stroke-miterlimit:10;"/><line style="stroke:#181818;stroke-width:1;" x1="2133" x2="2143" y1="865.1094" y2="855.1094"/><line style="stroke:#181818;stroke-width:1;" x1="1825" x2="2133" y1="865.1094" y2="865.1094"/><line style="stroke:#181818;stroke-width:1;" x1="2133" x2="2133" y1="865.1094" y2="976.1094"/><text fill="#000000" font-family="sans-serif" font-size="14" font-weight="700" lengthAdjust="spacing" textLength="112.041" x="1923.9795" y="882.6426">Judging_Service</text></g><!--entity UI--><g class="entity" data-qualified-name="Frontend.UI" data-source-line="5" id="ent0003"><rect fill="#F1F1F1" height="47.6094" rx="2.5" ry="2.5" style="stroke:#181818;stroke-width:0.5;" width="95.2344" x="489.5" y="205.1094"/><rect fill="#F1F1F1" height="10" style="stroke:#181818;stroke-width:0.5;" width="15" x="564.7344" y="210.1094"/><rect fill="#F1F1F1" height="2" style="stroke:#181818;stroke-width:0.5;" width="4" x="562.7344" y="212.1094"/><rect fill="#F1F1F1" height="2" style="stroke:#181818;stroke-width:0.5;" width="4" x="562.7344" y="216.1094"/><text fill="#000000" font-family="sans-serif" font-size="14" lengthAdjust="spacing" textLength="55.2344" x="504.5" y="239.6426">UI Views</text></g><!--entity APIClient--><g class="entity" data-qualified-name="Frontend.APIClient" data-source-line="6" id="ent0004"><rect fill="#F1F1F1" height="47.6094" rx="2.5" ry="2.5" style="stroke:#181818;stroke-width:0.5;" width="140.3721" x="467" y="314.1094"/><rect fill="#F1F1F1" height="10" style="stroke:#181818;stroke-width:0.5;" width="15" x="587.3721" y="319.1094"/><rect fill="#F1F1F1" height="2" style="stroke:#181818;stroke-width:0.5;" width="4" x="585.3721" y="321.1094"/><rect fill="#F1F1F1" height="2" style="stroke:#181818;stroke-width:0.5;" width="4" x="585.3721" y="325.1094"/><text fill="#000000" font-family="sans-serif" font-size="14" lengthAdjust="spacing" textLength="100.3721" x="482" y="348.6426">Axios API Client</text></g><!--entity RestControllers--><g class="entity" data-qualified-name="Backend.Presentation_Layer.RestControllers" data-source-line="13" id="ent0009"><rect fill="#F1F1F1" height="47.6094" rx="2.5" ry="2.5" style="stroke:#181818;stroke-width:0.5;" width="148.917" x="462.5" y="508.1094"/><rect fill="#F1F1F1" height="10" style="stroke:#181818;stroke-width:0.5;" width="15" x="591.417" y="513.1094"/><rect fill="#F1F1F1" height="2" style="stroke:#181818;stroke-width:0.5;" width="4" x="589.417" y="515.1094"/><rect fill="#F1F1F1" height="2" style="stroke:#181818;stroke-width:0.5;" width="4" x="589.417" y="519.1094"/><text fill="#000000" font-family="sans-serif" font-size="14" lengthAdjust="spacing" textLength="108.917" x="477.5" y="542.6426">REST Controllers</text></g><!--entity JwtFilter--><g class="entity" data-qualified-name="Backend.Presentation_Layer.JwtFilter" data-source-line="14" id="ent0010"><rect fill="#F1F1F1" height="47.6094" rx="2.5" ry="2.5" style="stroke:#181818;stroke-width:0.5;" width="196.3857" x="439" y="617.1094"/><rect fill="#F1F1F1" height="10" style="stroke:#181818;stroke-width:0.5;" width="15" x="615.3857" y="622.1094"/><rect fill="#F1F1F1" height="2" style="stroke:#181818;stroke-width:0.5;" width="4" x="613.3857" y="624.1094"/><rect fill="#F1F1F1" height="2" style="stroke:#181818;stroke-width:0.5;" width="4" x="613.3857" y="628.1094"/><text fill="#000000" font-family="sans-serif" font-size="14" lengthAdjust="spacing" textLength="156.3857" x="454" y="651.6426">JWT Authentication Filter</text></g><!--entity Interceptors--><g class="entity" data-qualified-name="Backend.Proxy_Layer.Interceptors" data-source-line="17" id="ent0012"><rect fill="#F1F1F1" height="47.6094" rx="2.5" ry="2.5" style="stroke:#181818;stroke-width:0.5;" width="201.0615" x="436.5" y="750.1094"/><rect fill="#F1F1F1" height="10" style="stroke:#181818;stroke-width:0.5;" width="15" x="617.5615" y="755.1094"/><rect fill="#F1F1F1" height="2" style="stroke:#181818;stroke-width:0.5;" width="4" x="615.5615" y="757.1094"/><rect fill="#F1F1F1" height="2" style="stroke:#181818;stroke-width:0.5;" width="4" x="615.5615" y="761.1094"/><text fill="#000000" font-family="sans-serif" font-size="14" lengthAdjust="spacing" textLength="161.0615" x="451.5" y="784.6426">Interceptors / Rate Limiter</text></g><!--entity LangChainClient--><g class="entity" data-qualified-name="Backend.Proxy_Layer.LangChainClient" data-source-line="18" id="ent0013"><rect fill="#F1F1F1" height="47.6094" rx="2.5" ry="2.5" style="stroke:#181818;stroke-width:0.5;" width="158.3027" x="673" y="750.1094"/><rect fill="#F1F1F1" height="10" style="stroke:#181818;stroke-width:0.5;" width="15" x="811.3027" y="755.1094"/><rect fill="#F1F1F1" height="2" style="stroke:#181818;stroke-width:0.5;" width="4" x="809.3027" y="757.1094"/><rect fill="#F1F1F1" height="2" style="stroke:#181818;stroke-width:0.5;" width="4" x="809.3027" y="761.1094"/><text fill="#000000" font-family="sans-serif" font-size="14" lengthAdjust="spacing" textLength="118.3027" x="688" y="784.6426">LangChain4j Client</text></g><!--entity JudgeHttpClient--><g class="entity" data-qualified-name="Backend.Proxy_Layer.JudgeHttpClient" data-source-line="19" id="ent0014"><rect fill="#F1F1F1" height="47.6094" rx="2.5" ry="2.5" style="stroke:#181818;stroke-width:0.5;" width="158.2686" x="866" y="750.1094"/><rect fill="#F1F1F1" height="10" style="stroke:#181818;stroke-width:0.5;" width="15" x="1004.2686" y="755.1094"/><rect fill="#F1F1F1" height="2" style="stroke:#181818;stroke-width:0.5;" width="4" x="1002.2686" y="757.1094"/><rect fill="#F1F1F1" height="2" style="stroke:#181818;stroke-width:0.5;" width="4" x="1002.2686" y="761.1094"/><text fill="#000000" font-family="sans-serif" font-size="14" lengthAdjust="spacing" textLength="118.2686" x="881" y="784.6426">Judge HTTP Client</text></g><!--entity SmtpClient--><g class="entity" data-qualified-name="Backend.Proxy_Layer.SmtpClient" data-source-line="20" id="ent0015"><rect fill="#F1F1F1" height="47.6094" rx="2.5" ry="2.5" style="stroke:#181818;stroke-width:0.5;" width="118.5723" x="1059.5" y="750.1094"/><rect fill="#F1F1F1" height="10" style="stroke:#181818;stroke-width:0.5;" width="15" x="1158.0723" y="755.1094"/><rect fill="#F1F1F1" height="2" style="stroke:#181818;stroke-width:0.5;" width="4" x="1156.0723" y="757.1094"/><rect fill="#F1F1F1" height="2" style="stroke:#181818;stroke-width:0.5;" width="4" x="1156.0723" y="761.1094"/><text fill="#000000" font-family="sans-serif" font-size="14" lengthAdjust="spacing" textLength="78.5723" x="1074.5" y="784.6426">SMTP Client</text></g><!--entity UserService--><g class="entity" data-qualified-name="Backend.Business_Layer.UserService" data-source-line="23" id="ent0017"><rect fill="#F1F1F1" height="47.6094" rx="2.5" ry="2.5" style="stroke:#181818;stroke-width:0.5;" width="120.1309" x="46" y="904.1094"/><rect fill="#F1F1F1" height="10" style="stroke:#181818;stroke-width:0.5;" width="15" x="146.1309" y="909.1094"/><rect fill="#F1F1F1" height="2" style="stroke:#181818;stroke-width:0.5;" width="4" x="144.1309" y="911.1094"/><rect fill="#F1F1F1" height="2" style="stroke:#181818;stroke-width:0.5;" width="4" x="144.1309" y="915.1094"/><text fill="#000000" font-family="sans-serif" font-size="14" lengthAdjust="spacing" textLength="80.1309" x="61" y="938.6426">User Service</text></g><!--entity ProblemService--><g class="entity" data-qualified-name="Backend.Business_Layer.ProblemService" data-source-line="24" id="ent0018"><rect fill="#F1F1F1" height="47.6094" rx="2.5" ry="2.5" style="stroke:#181818;stroke-width:0.5;" width="142.7031" x="367.5" y="904.1094"/><rect fill="#F1F1F1" height="10" style="stroke:#181818;stroke-width:0.5;" width="15" x="490.2031" y="909.1094"/><rect fill="#F1F1F1" height="2" style="stroke:#181818;stroke-width:0.5;" width="4" x="488.2031" y="911.1094"/><rect fill="#F1F1F1" height="2" style="stroke:#181818;stroke-width:0.5;" width="4" x="488.2031" y="915.1094"/><text fill="#000000" font-family="sans-serif" font-size="14" lengthAdjust="spacing" textLength="102.7031" x="382.5" y="938.6426">Problem Service</text></g><!--entity SolutionService--><g class="entity" data-qualified-name="Backend.Business_Layer.SolutionService" data-source-line="25" id="ent0019"><rect fill="#F1F1F1" height="47.6094" rx="2.5" ry="2.5" style="stroke:#181818;stroke-width:0.5;" width="141.165" x="545.5" y="904.1094"/><rect fill="#F1F1F1" height="10" style="stroke:#181818;stroke-width:0.5;" width="15" x="666.665" y="909.1094"/><rect fill="#F1F1F1" height="2" style="stroke:#181818;stroke-width:0.5;" width="4" x="664.665" y="911.1094"/><rect fill="#F1F1F1" height="2" style="stroke:#181818;stroke-width:0.5;" width="4" x="664.665" y="915.1094"/><text fill="#000000" font-family="sans-serif" font-size="14" lengthAdjust="spacing" textLength="101.165" x="560.5" y="938.6426">Solution Service</text></g><!--entity ForumService--><g class="entity" data-qualified-name="Backend.Business_Layer.ForumService" data-source-line="26" id="ent0020"><rect fill="#F1F1F1" height="47.6094" rx="2.5" ry="2.5" style="stroke:#181818;stroke-width:0.5;" width="131.0205" x="201.5" y="904.1094"/><rect fill="#F1F1F1" height="10" style="stroke:#181818;stroke-width:0.5;" width="15" x="312.5205" y="909.1094"/><rect fill="#F1F1F1" height="2" style="stroke:#181818;stroke-width:0.5;" width="4" x="310.5205" y="911.1094"/><rect fill="#F1F1F1" height="2" style="stroke:#181818;stroke-width:0.5;" width="4" x="310.5205" y="915.1094"/><text fill="#000000" font-family="sans-serif" font-size="14" lengthAdjust="spacing" textLength="91.0205" x="216.5" y="938.6426">Forum Service</text></g><!--entity AIService--><g class="entity" data-qualified-name="Backend.Business_Layer.AIService" data-source-line="27" id="ent0021"><rect fill="#F1F1F1" height="47.6094" rx="2.5" ry="2.5" style="stroke:#181818;stroke-width:0.5;" width="175.3857" x="721.5" y="904.1094"/><rect fill="#F1F1F1" height="10" style="stroke:#181818;stroke-width:0.5;" width="15" x="876.8857" y="909.1094"/><rect fill="#F1F1F1" height="2" style="stroke:#181818;stroke-width:0.5;" width="4" x="874.8857" y="911.1094"/><rect fill="#F1F1F1" height="2" style="stroke:#181818;stroke-width:0.5;" width="4" x="874.8857" y="915.1094"/><text fill="#000000" font-family="sans-serif" font-size="14" lengthAdjust="spacing" textLength="135.3857" x="736.5" y="938.6426">AI Assistance Service</text></g><!--entity Orchestrator--><g class="entity" data-qualified-name="Backend.Business_Layer.Orchestrator" data-source-line="28" id="ent0022"><rect fill="#F1F1F1" height="47.6094" rx="2.5" ry="2.5" style="stroke:#181818;stroke-width:0.5;" width="246.9854" x="931.5" y="904.1094"/><rect fill="#F1F1F1" height="10" style="stroke:#181818;stroke-width:0.5;" width="15" x="1158.4854" y="909.1094"/><rect fill="#F1F1F1" height="2" style="stroke:#181818;stroke-width:0.5;" width="4" x="1156.4854" y="911.1094"/><rect fill="#F1F1F1" height="2" style="stroke:#181818;stroke-width:0.5;" width="4" x="1156.4854" y="915.1094"/><text fill="#000000" font-family="sans-serif" font-size="14" lengthAdjust="spacing" textLength="206.9854" x="946.5" y="938.6426">Submission/Judging Orchestrator</text></g><!--entity Repos--><g class="entity" data-qualified-name="Backend.Access_Layer.Repos" data-source-line="31" id="ent0024"><rect fill="#F1F1F1" height="47.6094" rx="2.5" ry="2.5" style="stroke:#181818;stroke-width:0.5;" width="203.3857" x="264.5" y="1053.1094"/><rect fill="#F1F1F1" height="10" style="stroke:#181818;stroke-width:0.5;" width="15" x="447.8857" y="1058.1094"/><rect fill="#F1F1F1" height="2" style="stroke:#181818;stroke-width:0.5;" width="4" x="445.8857" y="1060.1094"/><rect fill="#F1F1F1" height="2" style="stroke:#181818;stroke-width:0.5;" width="4" x="445.8857" y="1064.1094"/><text fill="#000000" font-family="sans-serif" font-size="14" lengthAdjust="spacing" textLength="163.3857" x="279.5" y="1087.6426">MyBatis-Plus Repositories</text></g><!--entity RedisAccess--><g class="entity" data-qualified-name="Backend.Access_Layer.RedisAccess" data-source-line="32" id="ent0025"><rect fill="#F1F1F1" height="47.6094" rx="2.5" ry="2.5" style="stroke:#181818;stroke-width:0.5;" width="169.165" x="60.5" y="1053.1094"/><rect fill="#F1F1F1" height="10" style="stroke:#181818;stroke-width:0.5;" width="15" x="209.665" y="1058.1094"/><rect fill="#F1F1F1" height="2" style="stroke:#181818;stroke-width:0.5;" width="4" x="207.665" y="1060.1094"/><rect fill="#F1F1F1" height="2" style="stroke:#181818;stroke-width:0.5;" width="4" x="207.665" y="1064.1094"/><text fill="#000000" font-family="sans-serif" font-size="14" lengthAdjust="spacing" textLength="129.165" x="75.5" y="1087.6426">Redis Cache Access</text></g><!--entity MinIOAccess--><g class="entity" data-qualified-name="Backend.Access_Layer.MinIOAccess" data-source-line="33" id="ent0026"><rect fill="#F1F1F1" height="47.6094" rx="2.5" ry="2.5" style="stroke:#181818;stroke-width:0.5;" width="269.5371" x="503" y="1053.1094"/><rect fill="#F1F1F1" height="10" style="stroke:#181818;stroke-width:0.5;" width="15" x="752.5371" y="1058.1094"/><rect fill="#F1F1F1" height="2" style="stroke:#181818;stroke-width:0.5;" width="4" x="750.5371" y="1060.1094"/><rect fill="#F1F1F1" height="2" style="stroke:#181818;stroke-width:0.5;" width="4" x="750.5371" y="1064.1094"/><text fill="#000000" font-family="sans-serif" font-size="14" lengthAdjust="spacing" textLength="229.5371" x="518" y="1087.6426">Object Storage Adapter (MinIO SDK)</text></g><!--entity JudgeHost--><g class="entity" data-qualified-name="Judge.JudgeHost" data-source-line="63" id="ent0051"><rect fill="#F1F1F1" height="47.6094" rx="2.5" ry="2.5" style="stroke:#181818;stroke-width:0.5;" width="106.9307" x="2011.5" y="904.1094"/><rect fill="#F1F1F1" height="10" style="stroke:#181818;stroke-width:0.5;" width="15" x="2098.4307" y="909.1094"/><rect fill="#F1F1F1" height="2" style="stroke:#181818;stroke-width:0.5;" width="4" x="2096.4307" y="911.1094"/><rect fill="#F1F1F1" height="2" style="stroke:#181818;stroke-width:0.5;" width="4" x="2096.4307" y="915.1094"/><text fill="#000000" font-family="sans-serif" font-size="14" lengthAdjust="spacing" textLength="66.9307" x="2026.5" y="938.6426">JudgeHost</text></g><!--entity JudgeCore--><g class="entity" data-qualified-name="Judge.JudgeCore" data-source-line="64" id="ent0052"><rect fill="#F1F1F1" height="47.6094" rx="2.5" ry="2.5" style="stroke:#181818;stroke-width:0.5;" width="108.4893" x="1868" y="904.1094"/><rect fill="#F1F1F1" height="10" style="stroke:#181818;stroke-width:0.5;" width="15" x="1956.4893" y="909.1094"/><rect fill="#F1F1F1" height="2" style="stroke:#181818;stroke-width:0.5;" width="4" x="1954.4893" y="911.1094"/><rect fill="#F1F1F1" height="2" style="stroke:#181818;stroke-width:0.5;" width="4" x="1954.4893" y="915.1094"/><text fill="#000000" font-family="sans-serif" font-size="14" lengthAdjust="spacing" textLength="68.4893" x="1883" y="938.6426">JudgeCore</text></g><!--entity User--><g class="entity" data-qualified-name="User" data-source-line="3" id="ent0001"><ellipse cx="536.7793" cy="52.6094" fill="#F1F1F1" rx="8" ry="8" style="stroke:#181818;stroke-width:0.5;"/><path d="M536.7793,60.6094 L536.7793,87.6094 M523.7793,68.6094 L549.7793,68.6094 M536.7793,87.6094 L523.7793,102.6094 M536.7793,87.6094 L549.7793,102.6094" fill="none" style="stroke:#181818;stroke-width:0.5;"/><text fill="#000000" font-family="sans-serif" font-size="14" lengthAdjust="spacing" textLength="29.5586" x="522" y="118.6426">User</text></g><!--entity MySQL--><g class="entity" data-qualified-name="MySQL" data-source-line="58" id="ent0046"><path d="M317,1198.6094 C317,1188.6094 365.9102,1188.6094 365.9102,1188.6094 C365.9102,1188.6094 414.8203,1188.6094 414.8203,1198.6094 L414.8203,1225.2188 C414.8203,1235.2188 365.9102,1235.2188 365.9102,1235.2188 C365.9102,1235.2188 317,1235.2188 317,1225.2188 L317,1198.6094" fill="#F1F1F1" style="stroke:#181818;stroke-width:0.5;"/><path d="M317,1198.6094 C317,1208.6094 365.9102,1208.6094 365.9102,1208.6094 C365.9102,1208.6094 414.8203,1208.6094 414.8203,1198.6094" fill="none" style="stroke:#181818;stroke-width:0.5;"/><text fill="#000000" font-family="sans-serif" font-size="14" lengthAdjust="spacing" textLength="77.8203" x="327" y="1227.1426">MySQL_5_7</text></g><!--entity Redis--><g class="entity" data-qualified-name="Redis" data-source-line="59" id="ent0047"><path d="M106.5,1198.1094 L183.4375,1198.1094 C188.4375,1198.1094 188.4375,1211.9141 188.4375,1211.9141 C188.4375,1211.9141 188.4375,1225.7188 183.4375,1225.7188 L106.5,1225.7188 C101.5,1225.7188 101.5,1211.9141 101.5,1211.9141 C101.5,1211.9141 101.5,1198.1094 106.5,1198.1094" fill="#F1F1F1" style="stroke:#181818;stroke-width:0.5;"/><path d="M183.4375,1198.1094 C178.4375,1198.1094 178.4375,1211.9141 178.4375,1211.9141 C178.4375,1225.7188 183.4375,1225.7188 183.4375,1225.7188" fill="none" style="stroke:#181818;stroke-width:0.5;"/><text fill="#000000" font-family="sans-serif" font-size="14" lengthAdjust="spacing" textLength="66.9375" x="106.5" y="1217.6426">Redis_7_4</text></g><!--entity MinIO--><g class="entity" data-qualified-name="MinIO" data-source-line="60" id="ent0048"><path d="M560.5705,1197.1626 C564.3175,1190.6475 568.7646,1191.3192 572.855,1196.8113 C575.3057,1190.4586 580.0156,1190.6594 583.7616,1195.5554 C586.5765,1190.4757 591.3323,1190.1739 594.1588,1195.5439 C596.7986,1188.7542 601.571,1189.2867 606.0058,1193.6345 C609.2366,1188.8737 612.9197,1188.0011 616.698,1193.0368 C620.7015,1186.8753 624.8152,1187.1532 628.5572,1193.289 C631.2541,1187.8538 634.3802,1188.4155 638.263,1192.0148 C642.7802,1187.2268 646.6437,1186.2304 650.6563,1192.5765 C654.2704,1188.029 658.5865,1188.1284 660.7161,1194.0086 C664.2233,1188.7983 668.9219,1187.9052 672.8738,1193.5086 C676.6673,1188.0221 679.7324,1189.5541 683.1532,1193.8983 C687.1026,1187.8698 691.5032,1189.4974 694.7725,1194.6077 C699.1694,1189.0683 703.5081,1190.1044 707.269,1195.345 C710.7609,1190.7469 714.6164,1192.4087 716.4994,1196.9669 C725.0619,1197.8738 729.6614,1204.7195 723.1178,1212.1928 C730.0583,1220.5501 725.9901,1225.7814 717.2959,1228.5863 C714.6295,1232.9665 709.7632,1233.8656 707.2744,1228.4055 C705.2038,1233.7612 699.8685,1234.4904 696.0957,1230.4252 C692.5468,1235.9973 687.8306,1236.9866 683.6322,1231.1337 C680.1964,1235.5258 677.1321,1236.006 673.4734,1231.3849 C669.4831,1236.9329 665.5055,1236.754 661.2088,1231.7407 C657.6876,1236.2449 654.183,1237.3576 650.6449,1231.7584 C647.7676,1237.3989 642.906,1238.4661 639.1576,1232.6303 C635.7487,1238.1104 631.2504,1237.7662 628.4115,1232.0818 C624.5699,1237.7263 619.5855,1237.7747 615.9524,1231.8571 C612.2331,1236.5445 608.8231,1236.5079 605.4071,1231.5263 C601.365,1236.83 597.7528,1236.8615 594.6276,1230.6667 C590.95,1236.445 586.2437,1236.9072 582.4888,1230.7453 C579.3135,1236.1797 574.418,1234.368 572.0046,1229.9357 C568.775,1233.9904 563.7567,1234.3428 561.6679,1228.7176 C552.4824,1225.1314 551.8461,1218.7513 559.6489,1212.985 C552.3323,1207.7279 553.1876,1201.5635 560.5705,1197.1626" fill="#F1F1F1" style="stroke:#181818;stroke-width:0.5;"/><text fill="#000000" font-family="sans-serif" font-size="14" lengthAdjust="spacing" textLength="142.4063" x="567" y="1217.6426">MinIO_Object_Storage</text></g><!--entity LLM--><g class="entity" data-qualified-name="LLM" data-source-line="61" id="ent0049"><path d="M1244.1285,913.2342 C1246.552,906.4786 1252.6549,906.1612 1256.3475,912.0032 C1259.8076,905.6983 1263.3029,905.9065 1267.6696,911.1114 C1271.1688,906.4892 1275.6913,905.6103 1278.5649,911.745 C1281.899,906.2273 1286.269,905.7005 1290.3765,910.8921 C1292.2194,905.7321 1297.093,904.7724 1300.8211,908.7334 C1304.4416,902.8252 1309.1589,903.1796 1312.0569,909.4025 C1314.5414,903.3598 1319.3057,901.9258 1324.1569,906.7727 C1329.0857,901.3277 1332.86,901.3296 1336.1349,908.3605 C1339.8374,903.2492 1344.3723,902.5553 1348.0314,908.4076 C1352.5799,904.2088 1357.0371,904.6255 1358.866,911.1543 C1361.5469,905.0433 1367.4146,904.8702 1371.1501,910.0021 C1374.6307,904.6798 1379.8845,905.7864 1382.2366,911.1705 C1385.954,906.4733 1391.4159,906.4557 1393.7385,912.6443 C1397.8185,906.8143 1401.8193,907.6534 1405.4736,913.0878 C1413.6479,916.0664 1415.314,923.9229 1407.9772,929.2973 C1414.3172,935.2981 1412.503,941.7946 1404.1749,944.0029 C1401.1393,949.1174 1397.9239,950.0844 1393.6336,945.3451 C1390.6196,950.3222 1386.555,952.1218 1382.3651,946.6082 C1377.3366,951.5463 1372.9021,953.1053 1369.0561,945.3667 C1366.8235,950.8741 1362.2096,951.0864 1359.1192,946.1856 C1356.7579,951.3792 1351.5603,953.1502 1347.9902,947.4168 C1344.5608,952.6662 1339.8004,954.0095 1336.1228,947.6709 C1332.4568,953.8337 1327.5971,953.526 1324.4711,947.1682 C1321.1784,952.6724 1317.2527,953.6615 1312.9768,948.1986 C1308.5156,953.2102 1304.1732,954.2964 1300.3167,947.5477 C1295.9116,952.1632 1292.2348,952.3317 1289.3757,946.0022 C1285.7036,950.9927 1282.4078,950.7582 1279.2318,945.5107 C1275.8361,953.0326 1270.5813,953.3675 1266.0613,946.5428 C1261.9487,951.4558 1257.7422,952.2275 1254.5206,945.6481 C1250.8925,950.6137 1246.5739,949.5529 1243.556,944.9491 C1235.2465,942.9314 1233.1713,936.6245 1238.698,930.0848 C1232.3503,921.8132 1234.2858,916.2881 1244.1285,913.2342" fill="#F1F1F1" style="stroke:#181818;stroke-width:0.5;"/><text fill="#000000" font-family="sans-serif" font-size="14" lengthAdjust="spacing" textLength="146.2959" x="1250" y="933.6426">External_LLM_Provider</text></g><!--entity SMTP--><g class="entity" data-qualified-name="SMTP" data-source-line="66" id="ent0053"><rect fill="#F1F1F1" height="47.6094" rx="2.5" ry="2.5" style="stroke:#181818;stroke-width:0.5;" width="127.9102" x="2586" y="904.1094"/><rect fill="#F1F1F1" height="10" style="stroke:#181818;stroke-width:0.5;" width="15" x="2693.9102" y="909.1094"/><rect fill="#F1F1F1" height="2" style="stroke:#181818;stroke-width:0.5;" width="4" x="2691.9102" y="911.1094"/><rect fill="#F1F1F1" height="2" style="stroke:#181818;stroke-width:0.5;" width="4" x="2691.9102" y="915.1094"/><text fill="#000000" font-family="sans-serif" font-size="14" lengthAdjust="spacing" textLength="87.9102" x="2601" y="938.6426">SMTP_Server</text></g><g class="entity" data-qualified-name="GMN60" data-source-line="76" id="ent0061"><path d="M1446.5,915.1094 L1446.5,924.1094 L1411.18,928.1094 L1446.5,932.1094 L1446.5,941.4609 A0,0 0 0 0 1446.5,941.4609 L1797.0132,941.4609 A0,0 0 0 0 1797.0132,941.4609 L1797.0132,925.1094 L1787.0132,915.1094 L1446.5,915.1094 A0,0 0 0 0 1446.5,915.1094" fill="#FEFFDD" style="stroke:#181818;stroke-width:0.5;"/><path d="M1787.0132,915.1094 L1787.0132,925.1094 L1797.0132,925.1094 L1787.0132,915.1094" fill="#FEFFDD" style="stroke:#181818;stroke-width:0.5;"/><text fill="#000000" font-family="sans-serif" font-size="13" lengthAdjust="spacing" textLength="329.5132" x="1452.5" y="933.6045">AI problem recommendation, analysis, code explanations</text></g><g class="entity" data-qualified-name="GMN63" data-source-line="80" id="ent0064"><path d="M2167,915.1094 L2167,941.4609 L2550.686,941.4609 L2550.686,925.1094 L2540.686,915.1094 L2167,915.1094" fill="#FEFFDD" style="stroke:#181818;stroke-width:0.5;"/><path d="M2540.686,915.1094 L2540.686,925.1094 L2550.686,925.1094 L2540.686,915.1094" fill="#FEFFDD" style="stroke:#181818;stroke-width:1;"/><text fill="#000000" font-family="sans-serif" font-size="13" lengthAdjust="spacing" textLength="362.686" x="2173" y="933.6045">Executes submissions, enforces resource limits, returns results</text></g><!--link User to UI--><g class="link" data-entity-1="ent0001" data-entity-2="ent0003" data-link-type="dependency" data-source-line="8" id="lnk5"><path d="M537,122.3194 C537,148.6494 537,177.7794 537,200.0494" fill="none" id="User-to-UI" style="stroke:#181818;stroke-width:1;"/><polygon fill="#181818" points="537,205.0494,541,196.0494,537,200.0494,533,196.0494,537,205.0494" style="stroke:#181818;stroke-width:1;stroke-linejoin:miter;stroke-miterlimit:10;"/></g><!--link UI to APIClient--><g class="link" data-entity-1="ent0003" data-entity-2="ent0004" data-link-type="dependency" data-source-line="9" id="lnk6"><path d="M537,253.3294 C537,271.2694 537,290.9994 537,308.9394" fill="none" id="UI-to-APIClient" style="stroke:#181818;stroke-width:1;"/><polygon fill="#181818" points="537,313.9394,541,304.9394,537,308.9394,533,304.9394,537,313.9394" style="stroke:#181818;stroke-width:1;stroke-linejoin:miter;stroke-miterlimit:10;"/></g><!--link APIClient to RestControllers--><g class="link" data-entity-1="ent0004" data-entity-2="ent0009" data-link-type="dependency" data-source-line="37" id="lnk27"><path d="M537,362.2694 C537,399.1694 537,465.9094 537,502.8694" fill="none" id="APIClient-to-RestControllers" style="stroke:#181818;stroke-width:1;"/><polygon fill="#181818" points="537,507.8694,541,498.8694,537,502.8694,533,498.8694,537,507.8694" style="stroke:#181818;stroke-width:1;stroke-linejoin:miter;stroke-miterlimit:10;"/><text fill="#000000" font-family="sans-serif" font-size="13" lengthAdjust="spacing" textLength="72.9536" x="538" y="408.6045">REST/JSON</text></g><!--link RestControllers to JwtFilter--><g class="link" data-entity-1="ent0009" data-entity-2="ent0010" data-link-type="dependency" data-source-line="38" id="lnk28"><path d="M537,556.3294 C537,574.2694 537,593.9994 537,611.9394" fill="none" id="RestControllers-to-JwtFilter" style="stroke:#181818;stroke-width:1;"/><polygon fill="#181818" points="537,616.9394,541,607.9394,537,611.9394,533,607.9394,537,616.9394" style="stroke:#181818;stroke-width:1;stroke-linejoin:miter;stroke-miterlimit:10;"/></g><!--link JwtFilter to Interceptors--><g class="link" data-entity-1="ent0010" data-entity-2="ent0012" data-link-type="dependency" data-source-line="39" id="lnk29"><path d="M537,665.2294 C537,689.0294 537,720.9094 537,744.7794" fill="none" id="JwtFilter-to-Interceptors" style="stroke:#181818;stroke-width:1;"/><polygon fill="#181818" points="537,749.7794,541,740.7794,537,744.7794,533,740.7794,537,749.7794" style="stroke:#181818;stroke-width:1;stroke-linejoin:miter;stroke-miterlimit:10;"/></g><!--link Interceptors to UserService--><g class="link" data-entity-1="ent0012" data-entity-2="ent0017" data-link-type="dependency" data-source-line="40" id="lnk30"><path d="M436.45,785.9294 C347.77,796.7894 226.27,815.3294 184,839.1094 C156.42,854.6294 136.4191,879.4529 122.7391,899.9129" fill="none" id="Interceptors-to-UserService" style="stroke:#181818;stroke-width:1;"/><polygon fill="#181818" points="119.96,904.0694,128.2876,898.811,122.7391,899.9129,121.6372,894.3644,119.96,904.0694" style="stroke:#181818;stroke-width:1;stroke-linejoin:miter;stroke-miterlimit:10;"/></g><!--link Interceptors to ProblemService--><g class="link" data-entity-1="ent0012" data-entity-2="ent0018" data-link-type="dependency" data-source-line="41" id="lnk31"><path d="M522.12,798.1994 C503.7,826.7594 475.2199,870.9374 456.7299,899.6074" fill="none" id="Interceptors-to-ProblemService" style="stroke:#181818;stroke-width:1;"/><polygon fill="#181818" points="454.02,903.8094,462.2594,898.4138,456.7299,899.6074,455.5363,894.0779,454.02,903.8094" style="stroke:#181818;stroke-width:1;stroke-linejoin:miter;stroke-miterlimit:10;"/></g><!--link Interceptors to SolutionService--><g class="link" data-entity-1="ent0012" data-entity-2="ent0019" data-link-type="dependency" data-source-line="42" id="lnk32"><path d="M549,798.1994 C563.85,826.7594 586.6843,870.7028 601.5843,899.3728" fill="none" id="Interceptors-to-SolutionService" style="stroke:#181818;stroke-width:1;"/><polygon fill="#181818" points="603.89,903.8094,603.289,893.9789,601.5843,899.3728,596.1904,897.6681,603.89,903.8094" style="stroke:#181818;stroke-width:1;stroke-linejoin:miter;stroke-miterlimit:10;"/></g><!--link Interceptors to ForumService--><g class="link" data-entity-1="ent0012" data-entity-2="ent0020" data-link-type="dependency" data-source-line="43" id="lnk33"><path d="M441.14,798.1094 C410.57,807.9494 377.55,821.3694 350,839.1094 C323.16,856.3894 301.9887,880.2241 286.7387,899.9441" fill="none" id="Interceptors-to-ForumService" style="stroke:#181818;stroke-width:1;"/><polygon fill="#181818" points="283.68,903.8994,292.3499,899.2269,286.7387,899.9441,286.0215,894.3329,283.68,903.8994" style="stroke:#181818;stroke-width:1;stroke-linejoin:miter;stroke-miterlimit:10;"/></g><!--link AIService to LangChainClient--><g class="link" data-entity-1="ent0021" data-entity-2="ent0013" data-link-type="dependency" data-source-line="44" id="lnk34"><path d="M800.26,903.8094 C789.51,875.1394 773.1256,831.441 762.4156,802.881" fill="none" id="AIService-to-LangChainClient" style="stroke:#181818;stroke-width:1;"/><polygon fill="#181818" points="760.66,798.1994,760.0748,808.0308,762.4156,802.881,767.5654,805.2218,760.66,798.1994" style="stroke:#181818;stroke-width:1;stroke-linejoin:miter;stroke-miterlimit:10;"/></g><!--link Orchestrator to JudgeHttpClient--><g class="link" data-entity-1="ent0022" data-entity-2="ent0014" data-link-type="dependency" data-source-line="45" id="lnk35"><path d="M1038.14,903.8094 C1017.39,875.1394 985.3115,830.8099 964.6415,802.2499" fill="none" id="Orchestrator-to-JudgeHttpClient" style="stroke:#181818;stroke-width:1;"/><polygon fill="#181818" points="961.71,798.1994,963.7463,807.8354,964.6415,802.2499,970.2271,803.145,961.71,798.1994" style="stroke:#181818;stroke-width:1;stroke-linejoin:miter;stroke-miterlimit:10;"/></g><!--link UserService to Repos--><g class="link" data-entity-1="ent0017" data-entity-2="ent0024" data-link-type="dependency" data-source-line="47" id="lnk36"><path d="M129.43,952.3994 C144.04,965.7494 163.84,981.8294 184,992.1094 C209.84,1005.2794 220.16,998.1294 247,1009.1094 C276.3,1021.0894 303.1425,1036.1777 326.2025,1050.3777" fill="none" id="UserService-to-Repos" style="stroke:#181818;stroke-width:1;"/><polygon fill="#181818" points="330.46,1052.9994,324.8938,1044.8742,326.2025,1050.3777,320.6991,1051.6863,330.46,1052.9994" style="stroke:#181818;stroke-width:1;stroke-linejoin:miter;stroke-miterlimit:10;"/></g><!--link ProblemService to Repos--><g class="link" data-entity-1="ent0018" data-entity-2="ent0024" data-link-type="dependency" data-source-line="48" id="lnk37"><path d="M427.43,952.3994 C413.76,979.9294 393.3843,1020.9714 379.7343,1048.4514" fill="none" id="ProblemService-to-Repos" style="stroke:#181818;stroke-width:1;"/><polygon fill="#181818" points="377.51,1052.9294,385.0962,1046.6485,379.7343,1048.4514,377.9314,1043.0895,377.51,1052.9294" style="stroke:#181818;stroke-width:1;stroke-linejoin:miter;stroke-miterlimit:10;"/></g><!--link SolutionService to Repos--><g class="link" data-entity-1="ent0019" data-entity-2="ent0024" data-link-type="dependency" data-source-line="49" id="lnk38"><path d="M587.41,952.2194 C570.73,965.0094 548.91,980.6094 528,992.1094 C510.36,1001.8194 504.16,1000.4094 486,1009.1094 C458.14,1022.4594 432.0701,1036.9321 408.8501,1050.4621" fill="none" id="SolutionService-to-Repos" style="stroke:#181818;stroke-width:1;"/><polygon fill="#181818" points="404.53,1052.9794,414.32,1051.9044,408.8501,1050.4621,410.2924,1044.9922,404.53,1052.9794" style="stroke:#181818;stroke-width:1;stroke-linejoin:miter;stroke-miterlimit:10;"/></g><!--link ForumService to Repos--><g class="link" data-entity-1="ent0020" data-entity-2="ent0024" data-link-type="dependency" data-source-line="50" id="lnk39"><path d="M282.69,952.3994 C301.22,979.9294 329.0867,1021.3024 347.5967,1048.7824" fill="none" id="ForumService-to-Repos" style="stroke:#181818;stroke-width:1;"/><polygon fill="#181818" points="350.39,1052.9294,348.6796,1043.2302,347.5967,1048.7824,342.0444,1047.6995,350.39,1052.9294" style="stroke:#181818;stroke-width:1;stroke-linejoin:miter;stroke-miterlimit:10;"/></g><!--link UserService to RedisAccess--><g class="link" data-entity-1="ent0017" data-entity-2="ent0025" data-link-type="dependency" data-source-line="51" id="lnk40"><path d="M112.18,952.3994 C119.48,979.9294 130.2779,1020.6165 137.5679,1048.0965" fill="none" id="UserService-to-RedisAccess" style="stroke:#181818;stroke-width:1;"/><polygon fill="#181818" points="138.85,1052.9294,140.4085,1043.2046,137.5679,1048.0965,132.676,1045.2559,138.85,1052.9294" style="stroke:#181818;stroke-width:1;stroke-linejoin:miter;stroke-miterlimit:10;"/></g><!--link ProblemService to RedisAccess--><g class="link" data-entity-1="ent0018" data-entity-2="ent0025" data-link-type="dependency" data-source-line="52" id="lnk41"><path d="M413.24,952.1394 C396.4,965.9094 373.29,982.5394 350,992.1094 C307.08,1009.7394 290.22,992.2294 247,1009.1094 C219.96,1019.6694 196.6306,1035.0937 177.0806,1049.9537" fill="none" id="ProblemService-to-RedisAccess" style="stroke:#181818;stroke-width:1;"/><polygon fill="#181818" points="173.1,1052.9794,182.6856,1050.7177,177.0806,1049.9537,177.8446,1044.3487,173.1,1052.9794" style="stroke:#181818;stroke-width:1;stroke-linejoin:miter;stroke-miterlimit:10;"/></g><!--link SolutionService to RedisAccess--><g class="link" data-entity-1="ent0019" data-entity-2="ent0025" data-link-type="dependency" data-source-line="53" id="lnk42"><path d="M591.63,952.3494 C575.07,966.5694 551.91,983.6294 528,992.1094 C498.52,1002.5694 276.68,999.2494 247,1009.1094 C218.85,1018.4594 194.9075,1034.5124 175.4275,1049.9624" fill="none" id="SolutionService-to-RedisAccess" style="stroke:#181818;stroke-width:1;"/><polygon fill="#181818" points="171.51,1053.0694,181.047,1050.6107,175.4275,1049.9624,176.0758,1044.3428,171.51,1053.0694" style="stroke:#181818;stroke-width:1;stroke-linejoin:miter;stroke-miterlimit:10;"/></g><!--link ForumService to RedisAccess--><g class="link" data-entity-1="ent0020" data-entity-2="ent0025" data-link-type="dependency" data-source-line="54" id="lnk43"><path d="M245.9,952.1194 C233.47,965.8494 217.58,983.7494 204,1000.1094 C189.59,1017.4594 177.0051,1033.6683 165.4551,1048.8683" fill="none" id="ForumService-to-RedisAccess" style="stroke:#181818;stroke-width:1;"/><polygon fill="#181818" points="162.43,1052.8494,171.06,1048.1035,165.4551,1048.8683,164.6903,1043.2634,162.43,1052.8494" style="stroke:#181818;stroke-width:1;stroke-linejoin:miter;stroke-miterlimit:10;"/></g><!--link ProblemService to MinIOAccess--><g class="link" data-entity-1="ent0018" data-entity-2="ent0026" data-link-type="dependency" data-source-line="55" id="lnk44"><path d="M470.53,952.3994 C507.79,979.9294 565.3983,1022.4785 602.5983,1049.9585" fill="none" id="ProblemService-to-MinIOAccess" style="stroke:#181818;stroke-width:1;"/><polygon fill="#181818" points="606.62,1052.9294,601.7576,1044.3645,602.5983,1049.9585,597.0043,1050.7992,606.62,1052.9294" style="stroke:#181818;stroke-width:1;stroke-linejoin:miter;stroke-miterlimit:10;"/></g><!--link SolutionService to MinIOAccess--><g class="link" data-entity-1="ent0019" data-entity-2="ent0026" data-link-type="dependency" data-source-line="56" id="lnk45"><path d="M619.49,952.3994 C623.61,979.9294 629.6804,1020.5044 633.7904,1047.9844" fill="none" id="SolutionService-to-MinIOAccess" style="stroke:#181818;stroke-width:1;"/><polygon fill="#181818" points="634.53,1052.9294,637.1547,1043.4367,633.7904,1047.9844,629.2427,1044.6201,634.53,1052.9294" style="stroke:#181818;stroke-width:1;stroke-linejoin:miter;stroke-miterlimit:10;"/></g><!--link Repos to MySQL--><g class="link" data-entity-1="ent0024" data-entity-2="ent0046" data-link-type="dependency" data-source-line="68" id="lnk54"><path d="M366,1101.2794 C366,1125.6894 366,1158.8994 366,1183.2094" fill="none" id="Repos-to-MySQL" style="stroke:#181818;stroke-width:1;"/><polygon fill="#181818" points="366,1188.2094,370,1179.2094,366,1183.2094,362,1179.2094,366,1188.2094" style="stroke:#181818;stroke-width:1;stroke-linejoin:miter;stroke-miterlimit:10;"/></g><!--link RedisAccess to Redis--><g class="link" data-entity-1="ent0025" data-entity-2="ent0047" data-link-type="dependency" data-source-line="69" id="lnk55"><path d="M145,1101.2794 C145,1129.2594 145,1170.3794 145,1192.8994" fill="none" id="RedisAccess-to-Redis" style="stroke:#181818;stroke-width:1;"/><polygon fill="#181818" points="145,1197.8994,149,1188.8994,145,1192.8994,141,1188.8994,145,1197.8994" style="stroke:#181818;stroke-width:1;stroke-linejoin:miter;stroke-miterlimit:10;"/></g><!--link MinIOAccess to MinIO--><g class="link" data-entity-1="ent0026" data-entity-2="ent0048" data-link-type="dependency" data-source-line="70" id="lnk56"><path d="M638,1101.2794 C638,1125.5394 638,1158.4294 638,1182.7594" fill="none" id="MinIOAccess-to-MinIO" style="stroke:#181818;stroke-width:1;"/><polygon fill="#181818" points="638,1187.7594,642,1178.7594,638,1182.7594,634,1178.7594,638,1187.7594" style="stroke:#181818;stroke-width:1;stroke-linejoin:miter;stroke-miterlimit:10;"/></g><!--link LangChainClient to LLM--><g class="link" data-entity-1="ent0013" data-entity-2="ent0049" data-link-type="dependency" data-source-line="71" id="lnk57"><path d="M790.74,798.3194 C807.97,807.4494 828.88,816.9694 849,822.1094 C923.59,841.1694 1122.07,814.4794 1195,839.1094 C1235.11,852.6594 1270.409,879.3947 1294.609,900.5947" fill="none" id="LangChainClient-to-LLM" style="stroke:#181818;stroke-width:1;"/><polygon fill="#181818" points="1298.37,903.8894,1294.2361,894.9501,1294.609,900.5947,1288.9645,900.9676,1298.37,903.8894" style="stroke:#181818;stroke-width:1;stroke-linejoin:miter;stroke-miterlimit:10;"/></g><!--link JudgeHttpClient to Judge--><g class="link" data-entity-1="ent0014" data-entity-2="ent0050" data-link-type="dependency" data-source-line="72" id="lnk58"><path d="M983.21,798.3294 C1000.51,807.5894 1021.63,817.1994 1042,822.1094 C1083.76,832.1794 1782.02,811.5894 1815,839.1094 C1818.7713,842.2569 1821.8869,845.9622 1824.4511,850.0404 C1825.0922,851.0599 1825.6988,852.1028 1826.2726,853.166 C1826.5595,853.6977 1824.6025,849.7621 1824.8732,850.3035" fill="none" id="JudgeHttpClient-to-Judge" style="stroke:#181818;stroke-width:1;"/><polygon fill="#181818" points="1827.1088,854.7759,1826.6625,844.9371,1824.8732,850.3035,1819.5068,848.5142,1827.1088,854.7759" style="stroke:#181818;stroke-width:1;stroke-linejoin:miter;stroke-miterlimit:10;"/></g><!--link SmtpClient to SMTP--><g class="link" data-entity-1="ent0015" data-entity-2="ent0053" data-link-type="dependency" data-source-line="73" id="lnk59"><path d="M1178.72,775.0694 C1435.9,775.2694 2441.63,779.8494 2569,839.1094 C2598.56,852.8594 2619.5747,878.667 2633.5347,899.807" fill="none" id="SmtpClient-to-SMTP" style="stroke:#181818;stroke-width:1;"/><polygon fill="#181818" points="2636.29,903.9794,2634.6684,894.2649,2633.5347,899.807,2627.9927,898.6733,2636.29,903.9794" style="stroke:#181818;stroke-width:1;stroke-linejoin:miter;stroke-miterlimit:10;"/></g><!--link Judge to GMN63--><g class="link" data-entity-1="ent0050" data-entity-2="ent0064" data-link-type="association" data-source-line="80" id="lnk65"><path d="M1842.7304,854.8844 C1842.7908,854.7467 1842.8516,854.6093 1842.9127,854.472 C1843.4014,853.3737 1843.912,852.2868 1844.4454,851.2134 C1846.5791,846.9195 1849.0775,842.8406 1852,839.1094 C1857.33,832.2994 1861.07,832.5494 1869.5,830.6094 C1896.35,824.4294 2090.45,825.3594 2117.5,830.6094 C2201.61,846.9494 2293.53,892.5194 2335.61,915.0994" fill="none" id="Judge-GMN63" style="stroke:#181818;stroke-width:1;stroke-dasharray:7,7;"/></g><?plantuml-src VLLDRzim3BthL_2u0IrwwL1WXm5ksgBfaYMhq-qm38PYiuawH_8akKimzB-FalmXEy5EDiadaY8VAIjiYN23M4rKWJ3Z1zHOGABphR2OsreZOpotIiEJGSqgdl_Y6uGxhQH5MS1V1l3ZQGhV1FunFu4RU9ewLR8Noa2odCAa52YjDv4O9FR6d3iuF__ay7JU_VNcBiurVTimhMwfqH28Mw5avZFsPWhwU9kkO4APQLMMg4C-ZsXif0l8X-yhI6gx9JyYzvxWJfGMjJ_oyCS6YS1lWyXgVnY6d58PT8uLLSZ01JnoIrKKEz6wYktXn8pBpMJBXRnyYMlJgPiIX3JhWiBUhrRB6EgrzzPMCJIT3q7fBhB7bxYkZP1epF0UlXqfwbUHOsWZAHev8EZown9t0r2Z6-1ILTQ-e36mLGwGTqhNGtzUCy0aKqYC4SPocUC0cqo7OUlrJX1IoGjN7o4ti20MK_Crf-Bx8x5YL9KapuzgCZzS4pNC-RAi7OqgPGGT5DZoYXGDxx0G1YQSl3UE6WIfWnnmY_KBpHIavCN7B7X5x81tSo6d2qXlFh_tvxpOdNkZOM7TQFX16L4QFe9Z_iL3klZ2nZQ7x_dS_NdzW9m39ll1Z1XmP1nr_iW-RlWHOD3ghfVUD1w5k6tXFgC1O56gJO5SRuOvHePHSf4bpYfI7_llEtioIcy-7QktduZuNzynEKxvZksiu9QlkK6O7zAli-n3TkNvvGJskyOQGxJiAhli2CloKjL5y9C5ncOjOrjoDfZRFJLLyZARpUOPvVeg2cAMMsQpEPFkGMb6CMipRBTNU3T27vM9rnf9dMcYDFOc9z4iv6fNAUb6mQqyxpa4TI9Zlc6X4lwQKJdxyhAeIdtLs8XuWOnqbH7VUWwoVii6rliKfA97G8lDre9wzWveYrND-jH85zZHc-PVdJFWLBy3BRWpo5t1S5-Lf78smzpBvvoDNOROjtlCQui6JBVwo0lAPqM3PYYGKJNzGUcU8x9efETSUaDTsiZxFm00?></g></svg>