<svg xmlns="http://www.w3.org/2000/svg" xmlns:xlink="http://www.w3.org/1999/xlink" contentStyleType="text/css" data-diagram-type="DESCRIPTION" height="545px" preserveAspectRatio="none" style="width:2139px;height:545px;background:#FFFFFF;" version="1.1" viewBox="0 0 2139 545" width="2139px" zoomAndPan="magnify"><?plantuml 1.2026.6?><defs/><g><!--cluster Presentation_Layer--><g class="cluster" data-qualified-name="Presentation_Layer" data-source-line="7" id="ent0002"><rect fill="none" height="90" rx="2.5" ry="2.5" style="stroke:#181818;stroke-width:1;" width="195" x="167" y="292"/><text fill="#000000" font-family="sans-serif" font-size="14" font-weight="700" lengthAdjust="spacing" textLength="129.9443" x="199.5278" y="308.5332">Presentation_Layer</text></g><!--cluster Application_Layer--><g class="cluster" data-qualified-name="Application_Layer" data-source-line="11" id="ent0004"><rect fill="none" height="163" rx="2.5" ry="2.5" style="stroke:#181818;stroke-width:1;" width="490" x="476" y="248"/><text fill="#000000" font-family="sans-serif" font-size="14" font-weight="700" lengthAdjust="spacing" textLength="121.3652" x="660.3174" y="264.5332">Application_Layer</text></g><!--cluster Processing_Layer--><g class="cluster" data-qualified-name="Processing_Layer" data-source-line="17" id="ent0008"><rect fill="none" height="455" rx="2.5" ry="2.5" style="stroke:#181818;stroke-width:1;" width="735" x="999" y="29"/><text fill="#000000" font-family="sans-serif" font-size="14" font-weight="700" lengthAdjust="spacing" textLength="120.6201" x="1306.1899" y="45.5332">Processing_Layer</text></g><!--cluster Data_Layer--><g class="cluster" data-qualified-name="Data_Layer" data-source-line="28" id="ent0017"><rect fill="none" height="163" rx="2.5" ry="2.5" style="stroke:#181818;stroke-width:1;" width="178" x="1905.5" y="177"/><text fill="#000000" font-family="sans-serif" font-size="14" font-weight="700" lengthAdjust="spacing" textLength="75.4893" x="1956.7554" y="193.5332">Data_Layer</text></g><!--cluster External_Dependencies--><g class="cluster" data-qualified-name="External_Dependencies" data-source-line="33" id="ent0020"><rect fill="none" height="90" rx="2.5" ry="2.5" style="stroke:#181818;stroke-width:1;" width="261" x="1864" y="7"/><text fill="#000000" font-family="sans-serif" font-size="14" font-weight="700" lengthAdjust="spacing" textLength="157.958" x="1915.521" y="23.5332">External_Dependencies</text></g><!--entity Frontend--><g class="entity" data-qualified-name="Presentation_Layer.Frontend" data-source-line="8" id="ent0003"><rect fill="#F1F1F1" height="37.6094" rx="2.5" ry="2.5" style="stroke:#181818;stroke-width:0.5;" width="163.1719" x="183" y="328"/><text fill="#000000" font-family="sans-serif" font-size="14" lengthAdjust="spacing" textLength="143.1719" x="193" y="352.5332">Browser Frontend SPA</text></g><!--entity Gateway--><g class="entity" data-qualified-name="Application_Layer.Gateway" data-source-line="12" id="ent0005"><rect fill="#F1F1F1" height="37.6094" rx="2.5" ry="2.5" style="stroke:#181818;stroke-width:0.5;" width="187.2822" x="492" y="285"/><text fill="#000000" font-family="sans-serif" font-size="14" lengthAdjust="spacing" textLength="167.2822" x="502" y="309.5332">Web Server / API Gateway</text></g><!--entity Backend--><g class="entity" data-qualified-name="Application_Layer.Backend" data-source-line="13" id="ent0006"><rect fill="#F1F1F1" height="37.6094" rx="2.5" ry="2.5" style="stroke:#181818;stroke-width:0.5;" width="198.9854" x="745.5" y="284"/><text fill="#000000" font-family="sans-serif" font-size="14" lengthAdjust="spacing" textLength="178.9854" x="755.5" y="308.5332">Backend API Service Python</text></g><!--entity Realtime--><g class="entity" data-qualified-name="Application_Layer.Realtime" data-source-line="14" id="ent0007"><rect fill="#F1F1F1" height="37.6094" rx="2.5" ry="2.5" style="stroke:#181818;stroke-width:0.5;" width="209.8545" x="740" y="357"/><text fill="#000000" font-family="sans-serif" font-size="14" lengthAdjust="spacing" textLength="189.8545" x="750" y="381.5332">Realtime Gateway WebSocket</text></g><!--entity Auth--><g class="entity" data-qualified-name="Processing_Layer.Auth" data-source-line="18" id="ent0009"><rect fill="#F1F1F1" height="37.6094" rx="2.5" ry="2.5" style="stroke:#181818;stroke-width:0.5;" width="185.7305" x="1030" y="430"/><text fill="#000000" font-family="sans-serif" font-size="14" lengthAdjust="spacing" textLength="165.7305" x="1040" y="454.5332">Auth &amp; Permission Service</text></g><!--entity Ingest--><g class="entity" data-qualified-name="Processing_Layer.Ingest" data-source-line="19" id="ent0010"><rect fill="#F1F1F1" height="37.6094" rx="2.5" ry="2.5" style="stroke:#181818;stroke-width:0.5;" width="153.8408" x="1046" y="138"/><text fill="#000000" font-family="sans-serif" font-size="14" lengthAdjust="spacing" textLength="133.8408" x="1056" y="162.5332">File Ingestion Service</text></g><!--entity Recognizer--><g class="entity" data-qualified-name="Processing_Layer.Recognizer" data-source-line="20" id="ent0011"><rect fill="#F1F1F1" height="37.6094" rx="2.5" ry="2.5" style="stroke:#181818;stroke-width:0.5;" width="213.3613" x="1016.5" y="65"/><text fill="#000000" font-family="sans-serif" font-size="14" lengthAdjust="spacing" textLength="193.3613" x="1026.5" y="89.5332">Recognition Service OCR + DL</text></g><!--entity TexGen--><g class="entity" data-qualified-name="Processing_Layer.TexGen" data-source-line="21" id="ent0012"><rect fill="#F1F1F1" height="37.6094" rx="2.5" ry="2.5" style="stroke:#181818;stroke-width:0.5;" width="184.9785" x="1292" y="65"/><text fill="#000000" font-family="sans-serif" font-size="14" lengthAdjust="spacing" textLength="164.9785" x="1302" y="89.5332">LaTeX Generation Service</text></g><!--entity Renderer--><g class="entity" data-qualified-name="Processing_Layer.Renderer" data-source-line="22" id="ent0013"><rect fill="#F1F1F1" height="37.6094" rx="2.5" ry="2.5" style="stroke:#181818;stroke-width:0.5;" width="135.1719" x="1583" y="65"/><text fill="#000000" font-family="sans-serif" font-size="14" lengthAdjust="spacing" textLength="115.1719" x="1593" y="89.5332">Rendering Service</text></g><!--entity Projects--><g class="entity" data-qualified-name="Processing_Layer.Projects" data-source-line="23" id="ent0014"><rect fill="#F1F1F1" height="37.6094" rx="2.5" ry="2.5" style="stroke:#181818;stroke-width:0.5;" width="201.2822" x="1022.5" y="284"/><text fill="#000000" font-family="sans-serif" font-size="14" lengthAdjust="spacing" textLength="181.2822" x="1032.5" y="308.5332">Project &amp; Workspace Service</text></g><!--entity Collab--><g class="entity" data-qualified-name="Processing_Layer.Collab" data-source-line="24" id="ent0015"><rect fill="#F1F1F1" height="37.6094" rx="2.5" ry="2.5" style="stroke:#181818;stroke-width:0.5;" width="216.1025" x="1015" y="357"/><text fill="#000000" font-family="sans-serif" font-size="14" lengthAdjust="spacing" textLength="196.1025" x="1025" y="381.5332">Collaboration &amp; Version Control</text></g><!--entity Exporter--><g class="entity" data-qualified-name="Processing_Layer.Exporter" data-source-line="25" id="ent0016"><rect fill="#F1F1F1" height="37.6094" rx="2.5" ry="2.5" style="stroke:#181818;stroke-width:0.5;" width="111.0342" x="1067.5" y="211"/><text fill="#000000" font-family="sans-serif" font-size="14" lengthAdjust="spacing" textLength="91.0342" x="1077.5" y="235.5332">Export Service</text></g><!--entity DB--><g class="entity" data-qualified-name="Data_Layer.DB" data-source-line="29" id="ent0018"><rect fill="#F1F1F1" height="37.6094" rx="2.5" ry="2.5" style="stroke:#181818;stroke-width:0.5;" width="146.082" x="1921.5" y="286"/><text fill="#000000" font-family="sans-serif" font-size="14" lengthAdjust="spacing" textLength="126.082" x="1931.5" y="310.5332">Relational Database</text></g><!--entity Storage--><g class="entity" data-qualified-name="Data_Layer.Storage" data-source-line="30" id="ent0019"><rect fill="#F1F1F1" height="37.6094" rx="2.5" ry="2.5" style="stroke:#181818;stroke-width:0.5;" width="139.834" x="1924.5" y="213"/><text fill="#000000" font-family="sans-serif" font-size="14" lengthAdjust="spacing" textLength="119.834" x="1934.5" y="237.5332">File/Object Storage</text></g><!--entity TeXEngine--><g class="entity" data-qualified-name="External_Dependencies.TeXEngine" data-source-line="34" id="ent0021"><rect fill="#F1F1F1" height="37.6094" rx="2.5" ry="2.5" style="stroke:#181818;stroke-width:0.5;" width="229.3232" x="1880" y="43"/><text fill="#000000" font-family="sans-serif" font-size="14" lengthAdjust="spacing" textLength="209.3232" x="1890" y="67.5332">LaTeX Engine TeX Live / MiKTeX</text></g><!--entity User--><g class="entity" data-qualified-name="User" data-source-line="5" id="ent0001"><ellipse cx="20.7793" cy="316.5" fill="#F1F1F1" rx="8" ry="8" style="stroke:#181818;stroke-width:0.5;"/><path d="M20.7793,324.5 L20.7793,351.5 M7.7793,332.5 L33.7793,332.5 M20.7793,351.5 L7.7793,366.5 M20.7793,351.5 L33.7793,366.5" fill="none" style="stroke:#181818;stroke-width:0.5;"/><text fill="#000000" font-family="sans-serif" font-size="14" lengthAdjust="spacing" textLength="29.5586" x="6" y="382.5332">User</text></g><!--link User to Frontend--><g class="link" data-entity-1="ent0001" data-entity-2="ent0003" data-link-type="dependency" data-source-line="37" id="lnk22"><path d="M36.03,347 C64.16,347 124.37,347 177.79,347" fill="none" id="User-to-Frontend" style="stroke:#181818;stroke-width:1;"/><polygon fill="#181818" points="182.79,347,173.79,343,177.79,347,173.79,351,182.79,347" style="stroke:#181818;stroke-width:1;stroke-linejoin:miter;stroke-miterlimit:10;"/><text fill="#000000" font-family="sans-serif" font-size="13" lengthAdjust="spacing" textLength="83.0908" x="67" y="343.4951">UI interactions</text></g><!--link Frontend to Gateway--><g class="link" data-entity-1="ent0003" data-entity-2="ent0005" data-link-type="dependency" data-source-line="38" id="lnk23"><path d="M346.41,336.09 C390.71,330.12 440.8349,323.3685 486.8649,317.1585" fill="none" id="Frontend-to-Gateway" style="stroke:#181818;stroke-width:1;"/><polygon fill="#181818" points="491.82,316.49,482.366,313.7292,486.8649,317.1585,483.4356,321.6574,491.82,316.49" style="stroke:#181818;stroke-width:1;stroke-linejoin:miter;stroke-miterlimit:10;"/><text fill="#000000" font-family="sans-serif" font-size="13" lengthAdjust="spacing" textLength="80.8945" x="379" y="318.4951">HTTPS REST</text></g><!--link Frontend to Realtime--><g class="link" data-entity-1="ent0003" data-entity-2="ent0007" data-link-type="dependency" data-source-line="39" id="lnk24"><path d="M346.3,351.51 C383.37,353.55 427.92,355.95 468,358 C559.86,362.69 659.3754,367.4371 734.8554,370.9571" fill="none" id="Frontend-to-Realtime" style="stroke:#181818;stroke-width:1;stroke-dasharray:7,7;"/><polygon fill="#181818" points="739.85,371.19,731.0461,366.7751,734.8554,370.9571,730.6734,374.7664,739.85,371.19" style="stroke:#181818;stroke-width:1;stroke-linejoin:miter;stroke-miterlimit:10;"/><text fill="#000000" font-family="sans-serif" font-size="13" lengthAdjust="spacing" textLength="66.4727" x="552.5" y="354.4951">WebSocket</text></g><!--link Gateway to Backend--><g class="link" data-entity-1="ent0005" data-entity-2="ent0006" data-link-type="dependency" data-source-line="40" id="lnk25"><path d="M679.1,303.64 C700.58,303.56 718.53,303.4907 740.26,303.4007" fill="none" id="Gateway-to-Backend" style="stroke:#181818;stroke-width:1;"/><polygon fill="#181818" points="745.26,303.38,736.2435,299.4173,740.26,303.4007,736.2766,307.4172,745.26,303.38" style="stroke:#181818;stroke-width:1;stroke-linejoin:miter;stroke-miterlimit:10;"/></g><!--link Gateway to Realtime--><g class="link" data-entity-1="ent0005" data-entity-2="ent0007" data-link-type="dependency" data-source-line="41" id="lnk26"><path d="M654.49,323.01 C691.89,333.47 733.3546,345.0641 770.8146,355.5341" fill="none" id="Gateway-to-Realtime" style="stroke:#181818;stroke-width:1;"/><polygon fill="#181818" points="775.63,356.88,768.0389,350.605,770.8146,355.5341,765.8855,358.3097,775.63,356.88" style="stroke:#181818;stroke-width:1;stroke-linejoin:miter;stroke-miterlimit:10;"/></g><!--link Backend to Auth--><g class="link" data-entity-1="ent0006" data-entity-2="ent0009" data-link-type="dependency" data-source-line="43" id="lnk27"><path d="M944.5,318.61 C955.5,323.68 965.71,330.32 974,339 C997.02,363.08 968,387.9 991,412 C1001.61,423.11 1010.5986,429.1872 1025.0886,434.7172" fill="none" id="Backend-to-Auth" style="stroke:#181818;stroke-width:1;"/><polygon fill="#181818" points="1029.76,436.5,1022.7778,429.5539,1025.0886,434.7172,1019.9253,437.0281,1029.76,436.5" style="stroke:#181818;stroke-width:1;stroke-linejoin:miter;stroke-miterlimit:10;"/></g><!--link Backend to Ingest--><g class="link" data-entity-1="ent0006" data-entity-2="ent0010" data-link-type="dependency" data-source-line="44" id="lnk28"><path d="M865.93,283.86 C892.43,259.41 941.7,217.34 991,193 C1008.03,184.59 1022.4888,179.2808 1040.9088,174.0708" fill="none" id="Backend-to-Ingest" style="stroke:#181818;stroke-width:1;"/><polygon fill="#181818" points="1045.72,172.71,1035.9711,171.3105,1040.9088,174.0708,1038.1484,179.0085,1045.72,172.71" style="stroke:#181818;stroke-width:1;stroke-linejoin:miter;stroke-miterlimit:10;"/></g><!--link Backend to Projects--><g class="link" data-entity-1="ent0006" data-entity-2="ent0014" data-link-type="dependency" data-source-line="45" id="lnk29"><path d="M944.86,303 C970.08,303 992.19,303 1017.44,303" fill="none" id="Backend-to-Projects" style="stroke:#181818;stroke-width:1;"/><polygon fill="#181818" points="1022.44,303,1013.44,299,1017.44,303,1013.44,307,1022.44,303" style="stroke:#181818;stroke-width:1;stroke-linejoin:miter;stroke-miterlimit:10;"/></g><!--link Backend to Collab--><g class="link" data-entity-1="ent0006" data-entity-2="ent0015" data-link-type="dependency" data-source-line="46" id="lnk30"><path d="M918.16,322.08 C958.72,332.81 1004.3761,344.8918 1044.9561,355.6218" fill="none" id="Backend-to-Collab" style="stroke:#181818;stroke-width:1;"/><polygon fill="#181818" points="1049.79,356.9,1042.1116,350.7322,1044.9561,355.6218,1040.0665,358.4664,1049.79,356.9" style="stroke:#181818;stroke-width:1;stroke-linejoin:miter;stroke-miterlimit:10;"/></g><!--link Backend to Recognizer--><g class="link" data-entity-1="ent0006" data-entity-2="ent0011" data-link-type="dependency" data-source-line="47" id="lnk31"><path d="M855.7,283.92 C875.71,246.54 925.25,163.5 991,120 C1001.33,113.17 1008.2509,109.3825 1020.1709,104.8925" fill="none" id="Backend-to-Recognizer" style="stroke:#181818;stroke-width:1;"/><polygon fill="#181818" points="1024.85,103.13,1015.0177,102.5592,1020.1709,104.8925,1017.8377,110.0457,1024.85,103.13" style="stroke:#181818;stroke-width:1;stroke-linejoin:miter;stroke-miterlimit:10;"/></g><!--link Backend to Exporter--><g class="link" data-entity-1="ent0006" data-entity-2="ent0016" data-link-type="dependency" data-source-line="48" id="lnk32"><path d="M918.16,283.92 C964.79,271.58 1019.7062,257.0583 1062.4362,245.7583" fill="none" id="Backend-to-Exporter" style="stroke:#181818;stroke-width:1;"/><polygon fill="#181818" points="1067.27,244.48,1057.5465,242.9139,1062.4362,245.7583,1059.5918,250.648,1067.27,244.48" style="stroke:#181818;stroke-width:1;stroke-linejoin:miter;stroke-miterlimit:10;"/></g><!--link Backend to DB--><g class="link" data-entity-1="ent0006" data-entity-2="ent0018" data-link-type="dependency" data-source-line="49" id="lnk33"><path d="M944.51,317.31 C955.72,322.57 965.98,329.61 974,339 C976.63,342.08 988.37,480.91 991,484 C1030.26,530.03 1061.5,521 1122,521 C1122,521 1122,521 1651.5,521 C1798.27,521 1930.1136,380.8497 1974.7636,327.9897" fill="none" id="Backend-to-DB" style="stroke:#181818;stroke-width:1;"/><polygon fill="#181818" points="1977.99,324.17,1969.1267,328.4643,1974.7636,327.9897,1975.2382,333.6266,1977.99,324.17" style="stroke:#181818;stroke-width:1;stroke-linejoin:miter;stroke-miterlimit:10;"/><text fill="#000000" font-family="sans-serif" font-size="13" lengthAdjust="spacing" textLength="91.749" x="1339" y="517.4951">Users, sessions</text></g><!--link Recognizer to TexGen--><g class="link" data-entity-1="ent0011" data-entity-2="ent0012" data-link-type="dependency" data-source-line="51" id="lnk34"><path d="M1229.55,84 C1250.18,84 1266.65,84 1286.78,84" fill="none" id="Recognizer-to-TexGen" style="stroke:#181818;stroke-width:1;"/><polygon fill="#181818" points="1291.78,84,1282.78,80,1286.78,84,1282.78,88,1291.78,84" style="stroke:#181818;stroke-width:1;stroke-linejoin:miter;stroke-miterlimit:10;"/></g><!--link TexGen to Renderer--><g class="link" data-entity-1="ent0012" data-entity-2="ent0013" data-link-type="dependency" data-source-line="52" id="lnk35"><path d="M1477.09,84 C1511.79,84 1545.62,84 1577.62,84" fill="none" id="TexGen-to-Renderer" style="stroke:#181818;stroke-width:1;"/><polygon fill="#181818" points="1582.62,84,1573.62,80,1577.62,84,1573.62,88,1582.62,84" style="stroke:#181818;stroke-width:1;stroke-linejoin:miter;stroke-miterlimit:10;"/></g><!--link Renderer to Storage--><g class="link" data-entity-1="ent0013" data-entity-2="ent0019" data-link-type="dependency" data-source-line="53" id="lnk36"><path d="M1718.12,98.95 C1756.93,108.8 1806.27,123.34 1848,142 C1892.2,161.76 1935.0176,189.9631 1963.2576,209.9331" fill="none" id="Renderer-to-Storage" style="stroke:#181818;stroke-width:1;"/><polygon fill="#181818" points="1967.34,212.82,1962.3012,204.3577,1963.2576,209.9331,1957.6822,210.8895,1967.34,212.82" style="stroke:#181818;stroke-width:1;stroke-linejoin:miter;stroke-miterlimit:10;"/><text fill="#000000" font-family="sans-serif" font-size="13" lengthAdjust="spacing" textLength="96.8018" x="1751" y="105.4951">Preview/Artifacts</text></g><!--link Auth to DB--><g class="link" data-entity-1="ent0009" data-entity-2="ent0018" data-link-type="dependency" data-source-line="55" id="lnk37"><path d="M1216.16,435.18 C1353.86,414.31 1621.4,372.95 1848,333 C1871.94,328.78 1893.1211,324.8103 1916.5211,320.2803" fill="none" id="Auth-to-DB" style="stroke:#181818;stroke-width:1;"/><polygon fill="#181818" points="1921.43,319.33,1911.8338,317.1135,1916.5211,320.2803,1913.3543,324.9676,1921.43,319.33" style="stroke:#181818;stroke-width:1;stroke-linejoin:miter;stroke-miterlimit:10;"/></g><!--link Projects to DB--><g class="link" data-entity-1="ent0014" data-entity-2="ent0018" data-link-type="dependency" data-source-line="56" id="lnk38"><path d="M1223.74,303.23 C1400.83,303.64 1761.1,304.4687 1916.25,304.8187" fill="none" id="Projects-to-DB" style="stroke:#181818;stroke-width:1;"/><polygon fill="#181818" points="1921.25,304.83,1912.259,300.8097,1916.25,304.8187,1912.241,308.8097,1921.25,304.83" style="stroke:#181818;stroke-width:1;stroke-linejoin:miter;stroke-miterlimit:10;"/></g><!--link Collab to DB--><g class="link" data-entity-1="ent0015" data-entity-2="ent0018" data-link-type="dependency" data-source-line="57" id="lnk39"><path d="M1231.05,367.26 C1410.69,352.59 1763.1666,323.807 1916.2266,311.307" fill="none" id="Collab-to-DB" style="stroke:#181818;stroke-width:1;"/><polygon fill="#181818" points="1921.21,310.9,1911.9143,307.6458,1916.2266,311.307,1912.5654,315.6193,1921.21,310.9" style="stroke:#181818;stroke-width:1;stroke-linejoin:miter;stroke-miterlimit:10;"/></g><!--link Ingest to Storage--><g class="link" data-entity-1="ent0010" data-entity-2="ent0019" data-link-type="dependency" data-source-line="58" id="lnk40"><path d="M1200.09,159.41 C1332.28,164.22 1612.76,177.11 1848,206 C1872.96,209.07 1895.2128,212.6839 1919.2528,217.1139" fill="none" id="Ingest-to-Storage" style="stroke:#181818;stroke-width:1;"/><polygon fill="#181818" points="1924.17,218.02,1916.0439,212.4552,1919.2528,217.1139,1914.5941,220.3227,1924.17,218.02" style="stroke:#181818;stroke-width:1;stroke-linejoin:miter;stroke-miterlimit:10;"/></g><!--link Exporter to Storage--><g class="link" data-entity-1="ent0016" data-entity-2="ent0019" data-link-type="dependency" data-source-line="59" id="lnk41"><path d="M1178.72,230.13 C1330.44,230.47 1751.29,231.4384 1919.19,231.8284" fill="none" id="Exporter-to-Storage" style="stroke:#181818;stroke-width:1;"/><polygon fill="#181818" points="1924.19,231.84,1915.1993,227.8191,1919.19,231.8284,1915.1807,235.8191,1924.19,231.84" style="stroke:#181818;stroke-width:1;stroke-linejoin:miter;stroke-miterlimit:10;"/><text fill="#000000" font-family="sans-serif" font-size="13" lengthAdjust="spacing" textLength="44.0718" x="1508" y="227.4951">Exports</text></g><!--link Renderer to TeXEngine--><g class="link" data-entity-1="ent0013" data-entity-2="ent0021" data-link-type="dependency" data-source-line="61" id="lnk42"><path d="M1718.25,79.71 C1764.13,76.75 1821.2003,73.0804 1874.7803,69.6404" fill="none" id="Renderer-to-TeXEngine" style="stroke:#181818;stroke-width:1;"/><polygon fill="#181818" points="1879.77,69.32,1870.5322,65.9049,1874.7803,69.6404,1871.0448,73.8884,1879.77,69.32" style="stroke:#181818;stroke-width:1;stroke-linejoin:miter;stroke-miterlimit:10;"/></g><?plantuml-src PLJ9Rjim4BtpA-QKIvludaC0RqcDk8XWEKs0eWXeUI8pbac1PBsqwBztk4cqSpBvvl7DzkG6torO1LhK6mjheR6oGabcjaAsNFCTL6hNAedIblRK83W2btM36QNbrPRNU4bWlB9AmxD1pLZaGA7Ha1XtMTxc_8GQ_ZA0doEj3aI4UwsaHRc6iXZ-0cuwWFthHOPjsuZgayOBhg14lQVx08R531wunGC_UPruzhb8ngLm5CSN5TLriXibFJE67NE1lB5YX-arK8fIKTXwPWhdjHLQLMYCa7LUsl2ttS0L5AXtWe9AfiHUnqKTwrxG06UoHcClAG4DDLMgbY9dmDDu0LzWCezLUS8V6ZlHvto9h_204ZN_fBh48qM2gboZfghFuW4DGjJO1-sMkdXHUckeNppZnhXntB5g6hvICUCL_43jcnxJBhLgF3zm77jwR9MsPs81eiJPP2VSydoc2soyFczyQCLDU3iPfLaEdbQ-v99yI0e-6i-vyFH8cKZcROAjQrXM0at84QOtbRMG2Euu5tiaTtqNZtIBCtmDSIVfp0xNrtUzZs_XUGQ2pfhxJykmBkHuoLYty6svB4fOJCjbpxYvkUjCHfJEVImzSnB9hpdMEPCbiplK-om7egjog5jZ3iPTvL3ciXpk5fU3av4R0ut6V0M3tl-6iLx1aw8NmqzC4TsN3XwD2oH5-Y_P2pmCXjgAT-vgPlux2obPwYJTGnFf5bhF5Lcg_I9DW7t1MHdzsly3?></g></svg>