<svg xmlns="http://www.w3.org/2000/svg" xmlns:xlink="http://www.w3.org/1999/xlink" contentStyleType="text/css" data-diagram-type="DESCRIPTION" height="822px" preserveAspectRatio="none" style="width:2413px;height:822px;background:#FFFFFF;" version="1.1" viewBox="0 0 2413 822" width="2413px" zoomAndPan="magnify"><?plantuml 1.2026.6?><defs/><g><!--cluster Turing--><g class="cluster" data-qualified-name="Turing" data-source-line="7" id="ent0003"><path d="M279.5,6 L324.0449,6 A3.75,3.75 0 0 1 326.5449,8.5 L333.5449,29.6094 L1123,29.6094 A2.5,2.5 0 0 1 1125.5,32.1094 L1125.5,306.5 A2.5,2.5 0 0 1 1123,309 L279.5,309 A2.5,2.5 0 0 1 277,306.5 L277,8.5 A2.5,2.5 0 0 1 279.5,6" fill="none" style="stroke:#000000;stroke-width:1.5;"/><line style="stroke:#000000;stroke-width:1.5;" x1="277" x2="333.5449" y1="29.6094" y2="29.6094"/><text fill="#000000" font-family="sans-serif" font-size="14" font-weight="700" lengthAdjust="spacing" textLength="43.5449" x="281" y="22.5332">Turing</text></g><!--cluster APIServer--><g class="cluster" data-qualified-name="Turing.APIServer" data-source-line="8" id="ent0004"><rect fill="none" height="219" rx="2.5" ry="2.5" style="stroke:#181818;stroke-width:1;" width="784.5" x="309" y="58"/><text fill="#000000" font-family="sans-serif" font-size="14" font-weight="700" lengthAdjust="spacing" textLength="70.8203" x="665.8398" y="74.5332">API Server</text></g><!--cluster K8s--><g class="cluster" data-qualified-name="K8s" data-source-line="16" id="ent0009"><path d="M864.6052,529.036 C881.0827,491.503 917.1746,492.386 937.3839,525.1738 C954.3991,491.2648 982.9372,486.3936 1007.5843,516.85 C1028.1532,480.8672 1062.9103,479.3048 1080.3441,519.8315 C1102.0851,487.3846 1124.7105,488.4043 1144.0264,522.1641 C1159.292,491.7755 1191.9911,489.5801 1211.2163,517.6099 C1227.9473,486.1914 1257.7254,486.3956 1277.9388,513.6497 C1302.1091,478.5905 1325.7091,483.1037 1346.1529,517.3191 C1361.7342,482.7672 1394.7407,475.26 1416.144,511.5685 C1441.5313,475.1965 1474.4409,483.4386 1489.9293,521.3951 C1506.9878,490.1086 1538.1021,485.271 1557.8872,518.5241 C1577.9464,489.4662 1603.9711,481.8034 1625.542,516.9305 C1653.3136,490.776 1674.3991,493.1851 1695.0633,525.3964 C1721.2433,493.3278 1746.5283,496.6925 1767.971,530.6291 C1788.6565,494.1413 1813.2724,495.6275 1837.5,527 C1844.7692,522.7468 1850.0079,527.8025 1849.3987,535.1092 C1890.449,561.933 1895.9577,600.8503 1849.3519,627.6298 C1880.8608,666.0224 1876.6918,694.1832 1830.5,716 C1836.1006,711.5086 1840.7056,715.163 1841.6013,721.0383 C1824.5883,752.6655 1789.1626,753.9263 1768.375,725.6527 C1750.6035,760.8508 1713.8844,764.9206 1692.3896,729.6685 C1674.7356,761.7477 1654.1124,754.8025 1634.945,731.2307 C1614.5386,767.0878 1577.7573,767.4004 1558.4367,730.0954 C1538.9335,766.5644 1507.2415,766.6005 1484.9944,732.9701 C1467.0242,759.6721 1439.3155,759.1277 1425.5779,728.5774 C1400.1462,758.9136 1377.2239,755.6785 1357.1448,722.7844 C1337.3548,755.2708 1314.6553,763.6169 1286.4336,732.0997 C1266.2,763.8194 1235.3606,760.5502 1218.578,728.4315 C1192.966,758.3381 1161.1444,759.7092 1142.2302,720.9812 C1125.5709,756.3691 1092.0221,759.0568 1072.7962,723.4928 C1055.3813,755.3282 1029.1619,755.4233 1011.4078,723.821 C985.772,757.5283 954.5244,758.5425 934.5373,717.975 C904.2748,756.1233 875.3844,750.5197 854,709 C862.0567,705.8367 866.7056,709.9718 864.5942,718.3409 C815.0525,698.6801 816.6777,662.2157 850.4747,629.3345 C805.5757,594.259 801.3737,545.0132 861,520 C865.7655,520.8311 868.5112,524.7452 864.6052,529.036" fill="none" style="stroke:#181818;stroke-width:1;"/><text fill="#000000" font-family="sans-serif" font-size="14" font-weight="700" lengthAdjust="spacing" textLength="129.1445" x="1281.1777" y="539.5332">Kubernetes Cluster</text></g><!--cluster RouterDepl--><g class="cluster" data-qualified-name="K8s.RouterDepl" data-source-line="18" id="ent0011"><polygon fill="none" points="870,566,880,556,1092,556,1092,641,1082,651,870,651,870,566" style="stroke:#181818;stroke-width:1;stroke-linejoin:miter;stroke-miterlimit:10;"/><line style="stroke:#181818;stroke-width:1;" x1="1082" x2="1092" y1="566" y2="556"/><line style="stroke:#181818;stroke-width:1;" x1="870" x2="1082" y1="566" y2="566"/><line style="stroke:#181818;stroke-width:1;" x1="1082" x2="1082" y1="566" y2="651"/><text fill="#000000" font-family="sans-serif" font-size="14" font-weight="700" lengthAdjust="spacing" textLength="146.2344" x="903.8828" y="583.5332">Router Deployment(s)</text></g><!--entity Handlers--><g class="entity" data-qualified-name="Turing.APIServer.Handlers" data-source-line="9" id="ent0005"><rect fill="#F1F1F1" height="55.2188" rx="2.5" ry="2.5" style="stroke:#181818;stroke-width:0.5;" width="121.165" x="333.5" y="105.5"/><text fill="#000000" font-family="sans-serif" font-size="14" lengthAdjust="spacing" textLength="96.4688" x="343.5" y="130.0332">HTTP Handlers</text><text fill="#000000" font-family="sans-serif" font-size="14" lengthAdjust="spacing" textLength="101.165" x="343.5" y="147.6426">(OpenAPI 3.0.3)</text></g><!--entity AuthMW--><g class="entity" data-qualified-name="Turing.APIServer.AuthMW" data-source-line="10" id="ent0006"><rect fill="#F1F1F1" height="37.6094" rx="2.5" ry="2.5" style="stroke:#181818;stroke-width:0.5;" width="177.1924" x="892.5" y="196"/><text fill="#000000" font-family="sans-serif" font-size="14" lengthAdjust="spacing" textLength="157.1924" x="902.5" y="220.5332">Authorization Middleware</text></g><!--entity ValMW--><g class="entity" data-qualified-name="Turing.APIServer.ValMW" data-source-line="11" id="ent0007"><rect fill="#F1F1F1" height="55.2188" rx="2.5" ry="2.5" style="stroke:#181818;stroke-width:0.5;" width="137.5234" x="912" y="105.5"/><text fill="#000000" font-family="sans-serif" font-size="14" lengthAdjust="spacing" textLength="117.5234" x="922" y="130.0332">Request Validation</text><text fill="#000000" font-family="sans-serif" font-size="14" lengthAdjust="spacing" textLength="66.1377" x="922" y="147.6426">(OpenAPI)</text></g><!--entity Deployer--><g class="entity" data-qualified-name="Turing.APIServer.Deployer" data-source-line="12" id="ent0008"><rect fill="#F1F1F1" height="37.6094" rx="2.5" ry="2.5" style="stroke:#181818;stroke-width:0.5;" width="121.9375" x="333" y="196"/><text fill="#000000" font-family="sans-serif" font-size="14" lengthAdjust="spacing" textLength="101.9375" x="343" y="220.5332">Router Deployer</text></g><!--entity K8sAPI--><g class="entity" data-qualified-name="K8s.K8sAPI" data-source-line="17" id="ent0010"><rect fill="#F1F1F1" height="37.6094" rx="2.5" ry="2.5" style="stroke:#181818;stroke-width:0.5;" width="118.0615" x="922" y="670"/><text fill="#000000" font-family="sans-serif" font-size="14" lengthAdjust="spacing" textLength="98.0615" x="932" y="694.5332">Kubernetes API</text></g><!--entity EnsemblerSvc--><g class="entity" data-qualified-name="K8s.EnsemblerSvc" data-source-line="21" id="ent0013"><polygon fill="#F1F1F1" points="1624.5,639,1634.5,629,1829.4512,629,1829.4512,666.6094,1819.4512,676.6094,1624.5,676.6094,1624.5,639" style="stroke:#181818;stroke-width:0.5;stroke-linejoin:miter;stroke-miterlimit:10;"/><line style="stroke:#181818;stroke-width:0.5;" x1="1819.4512" x2="1829.4512" y1="639" y2="629"/><line style="stroke:#181818;stroke-width:0.5;" x1="1624.5" x2="1819.4512" y1="639" y2="639"/><line style="stroke:#181818;stroke-width:0.5;" x1="1819.4512" x2="1819.4512" y1="639" y2="676.6094"/><text fill="#000000" font-family="sans-serif" font-size="14" lengthAdjust="spacing" textLength="164.9512" x="1639.5" y="663.5332">PyFuncEnsembler Service</text></g><!--entity Router--><g class="entity" data-qualified-name="K8s.RouterDepl.Router" data-source-line="19" id="ent0012"><rect fill="#F1F1F1" height="37.6094" rx="2.5" ry="2.5" style="stroke:#181818;stroke-width:0.5;" width="105.5928" x="928" y="597"/><text fill="#000000" font-family="sans-serif" font-size="14" lengthAdjust="spacing" textLength="85.5928" x="938" y="621.5332">Turing Router</text></g><!--entity Client--><g class="entity" data-qualified-name="Client" data-source-line="4" id="ent0001"><ellipse cx="37.124" cy="102.5" fill="#F1F1F1" rx="8" ry="8" style="stroke:#181818;stroke-width:0.5;"/><path d="M37.124,110.5 L37.124,137.5 M24.124,118.5 L50.124,118.5 M37.124,137.5 L24.124,152.5 M37.124,137.5 L50.124,152.5" fill="none" style="stroke:#181818;stroke-width:0.5;"/><text fill="#000000" font-family="sans-serif" font-size="14" lengthAdjust="spacing" textLength="62.248" x="6" y="168.5332">API Client</text></g><!--entity Operator--><g class="entity" data-qualified-name="Operator" data-source-line="5" id="ent0002"><ellipse cx="394.1309" cy="658.5" fill="#F1F1F1" rx="8" ry="8" style="stroke:#181818;stroke-width:0.5;"/><path d="M394.1309,666.5 L394.1309,693.5 M381.1309,674.5 L407.1309,674.5 M394.1309,693.5 L381.1309,708.5 M394.1309,693.5 L407.1309,708.5" fill="none" style="stroke:#181818;stroke-width:0.5;"/><text fill="#000000" font-family="sans-serif" font-size="14" lengthAdjust="spacing" textLength="111.2617" x="338.5" y="724.5332">Platform Operator</text></g><!--entity Jaeger--><g class="entity" data-qualified-name="Jaeger" data-source-line="24" id="ent0014"><path d="M1700.0582,267.9793 C1702.5239,260.1503 1709.3236,258.8658 1714.4633,265.2739 C1717.7285,258.6222 1722.9995,256.4464 1728.26,263.224 C1733.5393,258.5022 1738.103,258.8751 1741.7123,265.2487 C1748.0075,258.7357 1752.7306,259.6219 1756.0911,268.0693 C1766.455,268.0562 1768.8797,274.3258 1765.4852,282.9805 C1769.7727,292.1493 1766.8318,297.4016 1757.0026,299.177 C1753.6192,307.1651 1749.2022,309.2107 1742.2316,302.8766 C1739.7954,309.9058 1734.6734,312.5439 1728.6088,306.7235 C1722.4197,314.269 1715.4117,312.6718 1712.9926,303.2531 C1706.8194,308.5081 1702.901,307.1782 1699.863,299.9544 C1691.6792,298.1244 1687.6825,291.0473 1694.3818,284.0788 C1689.5545,277.0353 1690.2976,269.8794 1700.0582,267.9793" fill="#F1F1F1" style="stroke:#181818;stroke-width:0.5;"/><text fill="#000000" font-family="sans-serif" font-size="14" lengthAdjust="spacing" textLength="42.8066" x="1705.5" y="288.5332">Jaeger</text></g><!--entity MLflow--><g class="entity" data-qualified-name="MLflow" data-source-line="25" id="ent0015"><path d="M1646,760.5 C1646,750.5 1726.7998,750.5 1726.7998,750.5 C1726.7998,750.5 1807.5996,750.5 1807.5996,760.5 L1807.5996,787.1094 C1807.5996,797.1094 1726.7998,797.1094 1726.7998,797.1094 C1726.7998,797.1094 1646,797.1094 1646,787.1094 L1646,760.5" fill="#F1F1F1" style="stroke:#181818;stroke-width:0.5;"/><path d="M1646,760.5 C1646,770.5 1726.7998,770.5 1726.7998,770.5 C1726.7998,770.5 1807.5996,770.5 1807.5996,760.5" fill="none" style="stroke:#181818;stroke-width:0.5;"/><text fill="#000000" font-family="sans-serif" font-size="14" lengthAdjust="spacing" textLength="141.5996" x="1656" y="789.0332">MLflow Model Registry</text></g><!--entity ImageBuild--><g class="entity" data-qualified-name="ImageBuild" data-source-line="26" id="ent0016"><rect fill="#F1F1F1" height="55.2188" rx="2.5" ry="2.5" style="stroke:#181818;stroke-width:0.5;" width="143.7031" x="909" y="745.5"/><text fill="#000000" font-family="sans-serif" font-size="14" lengthAdjust="spacing" textLength="111.2891" x="919" y="770.0332">Local Image Build</text><text fill="#000000" font-family="sans-serif" font-size="14" lengthAdjust="spacing" textLength="123.7031" x="919" y="787.6426">(PyFuncEnsembler)</text></g><g class="entity" data-qualified-name="GMN26" data-source-line="42" id="ent0027"><path d="M762.5,325 L762.5,416.7578 L1199.6587,416.7578 L1199.6587,335 L1189.6587,325 L762.5,325" fill="#FEFFDD" style="stroke:#181818;stroke-width:0.5;"/><path d="M1189.6587,325 L1189.6587,335 L1199.6587,335 L1189.6587,325" fill="#FEFFDD" style="stroke:#181818;stroke-width:1;"/><text fill="#000000" font-family="sans-serif" font-size="13" lengthAdjust="spacing" textLength="69.3735" x="768.5" y="343.4951">- Endpoints:</text><text fill="#000000" font-family="sans-serif" font-size="13" lengthAdjust="spacing" textLength="255.7598" x="775.7236" y="359.8467">- GET /projects/{project_id}/routers (FR-001)</text><text fill="#000000" font-family="sans-serif" font-size="13" lengthAdjust="spacing" textLength="217.4326" x="775.7236" y="376.1982">- Ensembler CRUD (FR-002..FR-005)</text><text fill="#000000" font-family="sans-serif" font-size="13" lengthAdjust="spacing" textLength="416.1587" x="768.5" y="392.5498">- JSON responses for Ensembler operations (DR-002, DR-008, DR-009)</text><text fill="#000000" font-family="sans-serif" font-size="13" lengthAdjust="spacing" textLength="339.5869" x="768.5" y="408.9014">- Path params: project_id, ensembler_id (DR-004, DR-005)</text></g><g class="entity" data-qualified-name="GMN29" data-source-line="50" id="ent0030"><path d="M691,452.5 L691,495.2031 L1270.5811,495.2031 L1270.5811,462.5 L1260.5811,452.5 L691,452.5" fill="#FEFFDD" style="stroke:#181818;stroke-width:0.5;"/><path d="M1260.5811,452.5 L1260.5811,462.5 L1270.5811,462.5 L1260.5811,452.5" fill="#FEFFDD" style="stroke:#181818;stroke-width:1;"/><text fill="#000000" font-family="sans-serif" font-size="13" lengthAdjust="spacing" textLength="558.5811" x="697" y="470.9951">- API constrained to OpenAPI-defined endpoints and schemas; OpenAPI 3.0.3 (C-001, NFR-004)</text><text fill="#000000" font-family="sans-serif" font-size="13" lengthAdjust="spacing" textLength="351.8823" x="697" y="487.3467">- Middleware mounting controlled by configuration (NFR-001)</text></g><g class="entity" data-qualified-name="GMN32" data-source-line="55" id="ent0033"><path d="M1538,452.5 L1538,495.2031 L1915.9287,495.2031 L1915.9287,462.5 L1905.9287,452.5 L1538,452.5" fill="#FEFFDD" style="stroke:#181818;stroke-width:0.5;"/><path d="M1905.9287,452.5 L1905.9287,462.5 L1915.9287,462.5 L1905.9287,452.5" fill="#FEFFDD" style="stroke:#181818;stroke-width:1;"/><text fill="#000000" font-family="sans-serif" font-size="13" lengthAdjust="spacing" textLength="356.9287" x="1544" y="470.9951">- Uses Kubernetes interfaces for router deployments (FR-007)</text><text fill="#000000" font-family="sans-serif" font-size="13" lengthAdjust="spacing" textLength="315.0405" x="1544" y="487.3467">- Constraint: Kubernetes environment required (C-002)</text></g><g class="entity" data-qualified-name="GMN35" data-source-line="60" id="ent0036"><path d="M1515,342.5 L1515,417.9063 L1939.1777,417.9063 L1939.1777,352.5 L1929.1777,342.5 L1515,342.5" fill="#FEFFDD" style="stroke:#181818;stroke-width:0.5;"/><path d="M1929.1777,342.5 L1929.1777,352.5 L1939.1777,352.5 L1929.1777,342.5" fill="#FEFFDD" style="stroke:#181818;stroke-width:1;"/><text fill="#000000" font-family="sans-serif" font-size="13" lengthAdjust="spacing" textLength="403.1777" x="1521" y="360.9951">- Default port 8080; override via ports.containerPort (NFR-003, C-004)</text><text fill="#000000" font-family="sans-serif" font-size="13" lengthAdjust="spacing" textLength="300.5361" x="1521" y="377.3467">- Router protocol: HTTP_JSON or UPI_V1 (DR-007)</text><text fill="#000000" font-family="sans-serif" font-size="13" lengthAdjust="spacing" textLength="270.8862" x="1521" y="393.6982">- Timeout pattern: ^[0-9]+(ms|s|m|h)$ (DR-006)</text><text fill="#000000" font-family="sans-serif" font-size="13" lengthAdjust="spacing" textLength="364.1523" x="1521" y="410.0498">- Jaeger tracing integrated; sampling controls traces (NFR-002)</text></g><g class="entity" data-qualified-name="GMN38" data-source-line="67" id="ent0039"><path d="M2000,631.5 L2000,649 L1829.69,653 L2000,657 L2000,674.2031 A0,0 0 0 0 2000,674.2031 L2398.1206,674.2031 A0,0 0 0 0 2398.1206,674.2031 L2398.1206,641.5 L2388.1206,631.5 L2000,631.5 A0,0 0 0 0 2000,631.5" fill="#FEFFDD" style="stroke:#181818;stroke-width:0.5;"/><path d="M2388.1206,631.5 L2388.1206,641.5 L2398.1206,641.5 L2388.1206,631.5" fill="#FEFFDD" style="stroke:#181818;stroke-width:0.5;"/><text fill="#000000" font-family="sans-serif" font-size="13" lengthAdjust="spacing" textLength="356.9287" x="2006" y="649.9951">- Exposes user-defined ensemblers as a webservice (FR-006)</text><text fill="#000000" font-family="sans-serif" font-size="13" lengthAdjust="spacing" textLength="377.1206" x="2006" y="666.3467">- Docker-based runtime; image built from MLflow artifacts (C-003)</text></g><!--link Client to Handlers--><g class="link" data-entity-1="ent0001" data-entity-2="ent0005" data-link-type="dependency" data-source-line="28" id="lnk17"><path d="M68.27,133 C126.87,133 251.78,133 328.34,133" fill="none" id="Client-to-Handlers" style="stroke:#181818;stroke-width:1;"/><polygon fill="#181818" points="333.34,133,324.34,129,328.34,133,324.34,137,333.34,133" style="stroke:#181818;stroke-width:1;stroke-linejoin:miter;stroke-miterlimit:10;"/><text fill="#000000" font-family="sans-serif" font-size="13" lengthAdjust="spacing" textLength="72.2236" x="143.4463" y="113.4951">HTTP/JSON</text><text fill="#000000" font-family="sans-serif" font-size="13" lengthAdjust="spacing" textLength="161.1162" x="99" y="129.8467">Routers &amp; Ensemblers APIs</text></g><!--link Handlers to AuthMW--><g class="link" data-entity-1="ent0005" data-entity-2="ent0006" data-link-type="dependency" data-source-line="29" id="lnk18"><path d="M446.17,160.69 C458.56,166.32 472,171.56 485,175 C623.99,211.77 786.93,217.63 887.14,217.23" fill="none" id="Handlers-to-AuthMW" style="stroke:#181818;stroke-width:1;"/><polygon fill="#181818" points="892.14,217.21,883.1241,213.246,887.14,217.23,883.156,221.2459,892.14,217.21" style="stroke:#181818;stroke-width:1;stroke-linejoin:miter;stroke-miterlimit:10;"/><text fill="#000000" font-family="sans-serif" font-size="13" lengthAdjust="spacing" textLength="119.9517" x="513.5" y="155.4951">Authorization checks</text><text fill="#000000" font-family="sans-serif" font-size="13" lengthAdjust="spacing" textLength="65.0381" x="540.9568" y="171.8467">(if enabled)</text></g><!--link Handlers to ValMW--><g class="link" data-entity-1="ent0005" data-entity-2="ent0007" data-link-type="dependency" data-source-line="30" id="lnk19"><path d="M454.58,133 C563.94,133 791.04,133 906.63,133" fill="none" id="Handlers-to-ValMW" style="stroke:#181818;stroke-width:1;"/><polygon fill="#181818" points="911.63,133,902.63,129,906.63,133,902.63,137,911.63,133" style="stroke:#181818;stroke-width:1;stroke-linejoin:miter;stroke-miterlimit:10;"/><text fill="#000000" font-family="sans-serif" font-size="13" lengthAdjust="spacing" textLength="106.958" x="520" y="113.4951">Request validation</text><text fill="#000000" font-family="sans-serif" font-size="13" lengthAdjust="spacing" textLength="65.0381" x="540.96" y="129.8467">(if enabled)</text></g><!--link Deployer to K8sAPI--><g class="link" data-entity-1="ent0008" data-entity-2="ent0010" data-link-type="dependency" data-source-line="31" id="lnk20"><path d="M450.87,234.07 C452.33,235.3 453.71,236.61 455,238 C486.56,272.01 465.37,295.95 485,338 C555.45,488.9 549.88,562.58 691,651 C761.22,695 854.8574,698.5315 916.8274,695.1615" fill="none" id="Deployer-to-K8sAPI" style="stroke:#181818;stroke-width:1;"/><polygon fill="#181818" points="921.82,694.89,912.6161,691.3846,916.8274,695.1615,913.0505,699.3728,921.82,694.89" style="stroke:#181818;stroke-width:1;stroke-linejoin:miter;stroke-miterlimit:10;"/><text fill="#000000" font-family="sans-serif" font-size="13" lengthAdjust="spacing" textLength="125.7407" x="510.1877" y="318.4951">Create/Update/Delete</text><text fill="#000000" font-family="sans-serif" font-size="13" lengthAdjust="spacing" textLength="174.1162" x="486" y="334.8467">Router Deployments (FR-007)</text></g><!--link Router to EnsemblerSvc--><g class="link" data-entity-1="ent0012" data-entity-2="ent0013" data-link-type="dependency" data-source-line="33" id="lnk21"><path d="M1034.02,618.59 C1156.26,624.67 1458.5762,639.7015 1619.3662,647.7015" fill="none" id="Router-to-EnsemblerSvc" style="stroke:#181818;stroke-width:1;"/><polygon fill="#181818" points="1624.36,647.95,1615.5699,643.5077,1619.3662,647.7015,1615.1723,651.4978,1624.36,647.95" style="stroke:#181818;stroke-width:1;stroke-linejoin:miter;stroke-miterlimit:10;"/><text fill="#000000" font-family="sans-serif" font-size="13" lengthAdjust="spacing" textLength="33.9409" x="1376.1436" y="613.4951">HTTP</text><text fill="#000000" font-family="sans-serif" font-size="13" lengthAdjust="spacing" textLength="171.228" x="1307.5" y="629.8467">Ensembler requests (FR-006)</text></g><!--link Router to Jaeger--><g class="link" data-entity-1="ent0012" data-entity-2="ent0014" data-link-type="dependency" data-source-line="34" id="lnk22"><path d="M1034.13,609.73 C1097.28,599.63 1203.58,574.24 1271,513 C1294.25,491.88 1279.77,472.16 1301,449 C1375.28,367.97 1412.15,363.81 1515,325 C1574.23,302.65 1642.5637,292.0594 1685.3337,287.0694" fill="none" id="Router-to-Jaeger" style="stroke:#181818;stroke-width:1;stroke-dasharray:7,7;"/><polygon fill="#181818" points="1690.3,286.49,1680.8971,283.5599,1685.3337,287.0694,1681.8242,291.506,1690.3,286.49" style="stroke:#181818;stroke-width:1;stroke-linejoin:miter;stroke-miterlimit:10;"/><text fill="#000000" font-family="sans-serif" font-size="13" lengthAdjust="spacing" textLength="81.6499" x="1352.5718" y="318.4951">Tracing spans</text><text fill="#000000" font-family="sans-serif" font-size="13" lengthAdjust="spacing" textLength="182.7935" x="1302" y="334.8467">(if enabled/sampled) (NFR-002)</text></g><!--link ImageBuild to MLflow--><g class="link" data-entity-1="ent0016" data-entity-2="ent0015" data-link-type="dependency" data-source-line="36" id="lnk23"><path d="M1053,773.1 C1192.11,773.28 1494.69,773.6935 1640.85,773.8835" fill="none" id="ImageBuild-to-MLflow" style="stroke:#181818;stroke-width:1;"/><polygon fill="#181818" points="1645.85,773.89,1636.8552,769.8783,1640.85,773.8835,1636.8448,777.8783,1645.85,773.89" style="stroke:#181818;stroke-width:1;stroke-linejoin:miter;stroke-miterlimit:10;"/><text fill="#000000" font-family="sans-serif" font-size="13" lengthAdjust="spacing" textLength="96.8335" x="1345" y="753.4951">Download model</text><text fill="#000000" font-family="sans-serif" font-size="13" lengthAdjust="spacing" textLength="93.1899" x="1346.8218" y="769.8467">artifacts (C-003)</text></g><!--link ImageBuild to EnsemblerSvc--><g class="link" data-entity-1="ent0016" data-entity-2="ent0013" data-link-type="dependency" data-source-line="37" id="lnk24"><path d="M1053,761.55 C1185.57,740.17 1466.2138,694.8959 1619.2738,670.2159" fill="none" id="ImageBuild-to-EnsemblerSvc" style="stroke:#181818;stroke-width:1;stroke-dasharray:7,7;"/><polygon fill="#181818" points="1624.21,669.42,1614.688,666.9037,1619.2738,670.2159,1615.9615,674.8017,1624.21,669.42" style="stroke:#181818;stroke-width:1;stroke-linejoin:miter;stroke-miterlimit:10;"/><text fill="#000000" font-family="sans-serif" font-size="13" lengthAdjust="spacing" textLength="149.5635" x="1318.5" y="676.4951">Builds local Docker image</text><text fill="#000000" font-family="sans-serif" font-size="13" lengthAdjust="spacing" textLength="117.749" x="1334.4072" y="692.8467">for runtime (FR-006)</text></g><!--link Operator to K8sAPI--><g class="link" data-entity-1="ent0002" data-entity-2="ent0010" data-link-type="dependency" data-source-line="39" id="lnk25"><path d="M449.51,689 C559.85,689 803.75,689 916.97,689" fill="none" id="Operator-to-K8sAPI" style="stroke:#181818;stroke-width:1;"/><polygon fill="#181818" points="921.97,689,912.97,685,916.97,689,912.97,693,921.97,689" style="stroke:#181818;stroke-width:1;stroke-linejoin:miter;stroke-miterlimit:10;"/><text fill="#000000" font-family="sans-serif" font-size="13" lengthAdjust="spacing" textLength="105.498" x="520.5" y="669.4951">Cluster operations</text><text fill="#000000" font-family="sans-serif" font-size="13" lengthAdjust="spacing" textLength="69.3799" x="538.5591" y="685.8467">(as needed)</text></g><!--link Handlers to GMN26--><g class="link" data-entity-1="ent0005" data-entity-2="ent0027" data-link-type="association" data-source-line="42" id="lnk28"><path d="M434.48,160.54 C441.55,166.05 448.68,171.99 455,178 C470.1,192.35 467.71,202.38 485,214 C567.69,269.56 671.22,306.41 762.2,330.34" fill="none" id="Handlers-GMN26" style="stroke:#181818;stroke-width:1;stroke-dasharray:7,7;"/></g><!--link APIServer to GMN29--><g class="link" data-entity-1="ent0004" data-entity-2="ent0030" data-link-type="association" data-source-line="50" id="lnk31"><path d="M396.1187,277.2956 C396.1391,277.4309 396.1599,277.5676 396.181,277.7058 C396.2654,278.2587 396.3549,278.8352 396.4496,279.4345 C396.639,280.6332 396.8494,281.9233 397.0823,283.2985 C397.5479,286.0488 398.1031,289.1395 398.7589,292.52 C401.3822,306.0419 405.6156,324.2 412.1688,343.7575 C425.275,382.8725 447.66,427.585 485,452 C606.86,531.68 783.95,515.61 889.98,495.58" fill="none" id="APIServer-GMN29" style="stroke:#181818;stroke-width:1;stroke-dasharray:7,7;"/></g><!--link K8sAPI to GMN32--><g class="link" data-entity-1="ent0010" data-entity-2="ent0033" data-link-type="association" data-source-line="55" id="lnk34"><path d="M1040.1,696.39 C1102.9,701.22 1203.09,699.37 1271,651 C1295.28,633.7 1277.97,609.93 1301,591 C1377.21,528.35 1419.88,558.19 1515,532 C1558.77,519.95 1607.65,506.51 1647.34,495.61" fill="none" id="K8sAPI-GMN32" style="stroke:#181818;stroke-width:1;stroke-dasharray:7,7;"/></g><!--link Router to GMN35--><g class="link" data-entity-1="ent0012" data-entity-2="ent0036" data-link-type="association" data-source-line="60" id="lnk37"><path d="M1034.17,596.88 C1129.15,562.38 1336.9,488.37 1515,435 C1534.76,429.08 1555.67,423.18 1576.35,417.57" fill="none" id="Router-GMN35" style="stroke:#181818;stroke-width:1;stroke-dasharray:7,7;"/></g><?plantuml-src TLNRSjis47tdL-neEXrfQagodQQEF9EPLCh5IPneR3bzi5mFHAmar2J00g1SDVQ_Tt6XI3dr4mdk1RjdpnwQEo5Bfba1cIfA9L7QIxlD4JHcbibLZacEImjMWHQhjGKkd4KecIGiiqf3vytq3CQveCWEC1DVQ-CqPtQfT05VIzICFdcV-f0a9Slks0gXCwkqaAiEV4-WAIKalqIzmH18nt3oVW3N7sQpANnWakUepLnsARDqCSVzOV-uT-DYQci8U5FPjTBYN-PwW7F1oNRFD7fNPpp_8pXUuDyL6WlVM2wuzsxIXyHasJchob9H4onpjKNjpVM1F1wJnoJ9SbLnw7og5gWbMdHGLSR6pZwT6D_JTSjEDzr46xsIKIfEKErTLX1CNTFpEOB1VQ_X2QX6mqtZuskgyqstxogPlPK6YmK1vV4M6VgKkw-NcwpLn4U6grXuU4q88hPWXjATVrxcwXxEANSE5xWInkgjTmsMf3NUpofZEPmLZWA_LoBdXF6JSa9htiLx94bW6AJfwzriOGIE2OEFbr-_p6NeqS3FJVaUJ9Fi_5EkxYKb21Edy7rUP6lCxXoVn19GCih0Upy6Um9GR4sLJPigxSYQ2hxcC4qA6sja5WTN9NUF2UOqzBhurdGDTDzTfCFXRxqaYKQNfZsPsFvSDaFKeQOw-6MlZkttNyUPKTHCiymHn9HCxhSxCAmeNV7G_U8p7D7rpHHy2N7I8vWG7hbY70etzBbaseebAG3TFgRGuruxqXNmf7XlC91xDanKTaV52HSnboGUe2jfHO5DAqaj84y03Vi4objf3Aub8ez4v6uCYLGMeuwfPICCATN3IoK8wn5jHGhltyvWK6hr5qcT6NoFRxU2Fmvqv5QevR3d_HlOnnTNasWxwlVzyzSUNU28IJCnH7n3c-swQeAQUg4xyQ47u9ydyVdAfPWokmQlrMO4JKa7DB6OY4unmOiOI7UZvE3wVjhzJaefjOCle-kjPa8YTseVbIxbkFIVi4O823Kmj205CwUmfxTXseS741ZpmbNTA2oHmysHs4PNMQroOXSijkwq5Aig852pxV3vmgCQfd3ba6p99LM7ccWNyGsJ0lv_YvJ2k6xNZjevK6w4LjAv-nMYlnqFRHqzNr7Kr9IMTicgt4Afj8MJuSdm51GXh0N9x4Om_ztqNViEPprrRh7XumCOrvZ5JQKPMvMfF2pthQSGzNKrFRlzTXW7xNkPqN9G2973KfmSmP_Nm_JLpI_TmZoOX-9XtVifkh_qN0pRR-FkEzXMX3xoK_1BtngHyLw4IoC2pu6mzwUWbVYdL6u-bK7T8j5EZcaj6TpZmeIVJRFRQHI0rFrDUBtxfq4FO45AOM6fLL6hpuzQKrVu7m00?></g></svg>