<svg xmlns="http://www.w3.org/2000/svg" xmlns:xlink="http://www.w3.org/1999/xlink" contentStyleType="text/css" data-diagram-type="DESCRIPTION" height="1174px" preserveAspectRatio="none" style="width:2077px;height:1174px;background:#FFFFFF;" version="1.1" viewBox="0 0 2077 1174" width="2077px" zoomAndPan="magnify"><?plantuml 1.2026.6?><defs/><g><!--cluster browser--><g class="cluster" data-qualified-name="browser" data-source-line="9" id="ent0004"><polygon fill="none" points="224,119,234,109,1738.22,109,1738.22,618,1728.22,628,224,628,224,119" style="stroke:#181818;stroke-width:1;stroke-linejoin:miter;stroke-miterlimit:10;"/><line style="stroke:#181818;stroke-width:1;" x1="1728.22" x2="1738.22" y1="119" y2="109"/><line style="stroke:#181818;stroke-width:1;" x1="224" x2="1728.22" y1="119" y2="119"/><line style="stroke:#181818;stroke-width:1;" x1="1728.22" x2="1728.22" y1="119" y2="628"/><text fill="#000000" font-family="sans-serif" font-size="14" font-weight="700" lengthAdjust="spacing" textLength="56.0205" x="949.0997" y="136.5332">Browser</text></g><!--cluster admin_spa--><g class="cluster" data-qualified-name="browser.admin_spa" data-source-line="10" id="ent0005"><rect fill="none" height="430" rx="2.5" ry="2.5" style="stroke:#181818;stroke-width:1;" width="1450.22" x="256" y="166"/><text fill="#000000" font-family="sans-serif" font-size="14" font-weight="700" lengthAdjust="spacing" textLength="129.9033" x="916.1583" y="182.5332">MyEMS Admin SPA</text></g><!--cluster webhost--><g class="cluster" data-qualified-name="webhost" data-source-line="26" id="ent0017"><polygon fill="none" points="464.72,662,474.72,652,708.72,652,708.72,765,698.72,775,464.72,775,464.72,662" style="stroke:#181818;stroke-width:1;stroke-linejoin:miter;stroke-miterlimit:10;"/><line style="stroke:#181818;stroke-width:1;" x1="698.72" x2="708.72" y1="662" y2="652"/><line style="stroke:#181818;stroke-width:1;" x1="464.72" x2="698.72" y1="662" y2="662"/><line style="stroke:#181818;stroke-width:1;" x1="698.72" x2="698.72" y1="662" y2="775"/><text fill="#000000" font-family="sans-serif" font-size="14" font-weight="700" lengthAdjust="spacing" textLength="151.6826" x="506.8787" y="679.5332">Same-Origin Web Host</text></g><!--cluster runtime--><g class="cluster" data-qualified-name="runtime" data-source-line="30" id="ent0019"><polygon fill="none" points="975.72,853,985.72,843,1671.72,843,1671.72,954,1661.72,964,975.72,964,975.72,853" style="stroke:#181818;stroke-width:1;stroke-linejoin:miter;stroke-miterlimit:10;"/><line style="stroke:#181818;stroke-width:1;" x1="1661.72" x2="1671.72" y1="853" y2="843"/><line style="stroke:#181818;stroke-width:1;" x1="975.72" x2="1661.72" y1="853" y2="853"/><line style="stroke:#181818;stroke-width:1;" x1="1661.72" x2="1661.72" y1="853" y2="964"/><text fill="#000000" font-family="sans-serif" font-size="14" font-weight="700" lengthAdjust="spacing" textLength="142.3311" x="1248.5545" y="870.5332">Python Runtime Host</text></g><!--entity routing_cfg--><g class="entity" data-qualified-name="browser.admin_spa.routing_cfg" data-source-line="11" id="ent0006"><rect fill="#F1F1F1" height="37.6094" rx="2.5" ry="2.5" style="stroke:#181818;stroke-width:0.5;" width="156.1855" x="508.72" y="358"/><text fill="#000000" font-family="sans-serif" font-size="14" lengthAdjust="spacing" textLength="136.1855" x="518.72" y="382.5332">Admin Routing Config</text></g><!--entity basepath--><g class="entity" data-qualified-name="browser.admin_spa.basepath" data-source-line="12" id="ent0007"><rect fill="#F1F1F1" height="55.2188" rx="2.5" ry="2.5" style="stroke:#181818;stroke-width:0.5;" width="221.5986" x="475.72" y="516.5"/><text fill="#000000" font-family="sans-serif" font-size="14" lengthAdjust="spacing" textLength="150.1855" x="485.72" y="541.0332">API Base Path Resolver</text><text fill="#000000" font-family="sans-serif" font-size="14" lengthAdjust="spacing" textLength="201.5986" x="485.72" y="558.6426">{protocol}//{hostname}:{port}/api/</text></g><!--entity user_route--><g class="entity" data-qualified-name="browser.admin_spa.user_route" data-source-line="13" id="ent0008"><rect fill="#F1F1F1" height="72.8281" rx="2.5" ry="2.5" style="stroke:#181818;stroke-width:0.5;" width="241.6895" x="964.22" y="390.5"/><text fill="#000000" font-family="sans-serif" font-size="14" lengthAdjust="spacing" textLength="72.3721" x="974.22" y="415.0332">/user Route</text><text fill="#000000" font-family="sans-serif" font-size="14" lengthAdjust="spacing" textLength="221.6895" x="974.22" y="432.6426">Title: MENU.USERSETTING.USER</text><text fill="#000000" font-family="sans-serif" font-size="14" lengthAdjust="spacing" textLength="85.5996" x="974.22" y="450.252">(Lazy-loaded)</text></g><!--entity contact_route--><g class="entity" data-qualified-name="browser.admin_spa.contact_route" data-source-line="14" id="ent0009"><rect fill="#F1F1F1" height="72.8281" rx="2.5" ry="2.5" style="stroke:#181818;stroke-width:0.5;" width="240.8965" x="964.72" y="498.5"/><text fill="#000000" font-family="sans-serif" font-size="14" lengthAdjust="spacing" textLength="90.2754" x="974.72" y="523.0332">/contact Route</text><text fill="#000000" font-family="sans-serif" font-size="14" lengthAdjust="spacing" textLength="220.8965" x="974.72" y="540.6426">Title: MENU.SETTINGS.CONTACT</text><text fill="#000000" font-family="sans-serif" font-size="14" lengthAdjust="spacing" textLength="85.5996" x="974.72" y="558.252">(Lazy-loaded)</text></g><!--entity tariff_mod--><g class="entity" data-qualified-name="browser.admin_spa.tariff_mod" data-source-line="15" id="ent0010"><rect fill="#F1F1F1" height="55.2188" rx="2.5" ry="2.5" style="stroke:#181818;stroke-width:0.5;" width="156.1719" x="1007.22" y="210.5"/><text fill="#000000" font-family="sans-serif" font-size="14" lengthAdjust="spacing" textLength="136.1719" x="1017.22" y="235.0332">Tariff Settings Module</text><text fill="#000000" font-family="sans-serif" font-size="14" lengthAdjust="spacing" textLength="58.3652" x="1017.22" y="252.6426">(optional)</text></g><!--entity category_mod--><g class="entity" data-qualified-name="browser.admin_spa.category_mod" data-source-line="16" id="ent0011"><rect fill="#F1F1F1" height="55.2188" rx="2.5" ry="2.5" style="stroke:#181818;stroke-width:0.5;" width="181.0889" x="994.72" y="300.5"/><text fill="#000000" font-family="sans-serif" font-size="14" lengthAdjust="spacing" textLength="161.0889" x="1004.72" y="325.0332">Category Settings Module</text><text fill="#000000" font-family="sans-serif" font-size="14" lengthAdjust="spacing" textLength="58.3652" x="1004.72" y="342.6426">(optional)</text></g><!--entity lazy_loader--><g class="entity" data-qualified-name="browser.admin_spa.lazy_loader" data-source-line="18" id="ent0012"><rect fill="#F1F1F1" height="37.6094" rx="2.5" ry="2.5" style="stroke:#181818;stroke-width:0.5;" width="179.5303" x="496.72" y="432"/><text fill="#000000" font-family="sans-serif" font-size="14" lengthAdjust="spacing" textLength="159.5303" x="506.72" y="456.5332">Lazy-Loading Mechanism</text></g><!--entity user_services--><g class="entity" data-qualified-name="browser.admin_spa.user_services" data-source-line="19" id="ent0013"><rect fill="#F1F1F1" height="55.2188" rx="2.5" ry="2.5" style="stroke:#181818;stroke-width:0.5;" width="178.71" x="1501.22" y="422.5"/><text fill="#000000" font-family="sans-serif" font-size="14" lengthAdjust="spacing" textLength="158.71" x="1511.22" y="447.0332">User Services/Controllers</text><text fill="#000000" font-family="sans-serif" font-size="14" lengthAdjust="spacing" textLength="80.9238" x="1511.22" y="464.6426">(lazy-loaded)</text></g><!--entity login_services--><g class="entity" data-qualified-name="browser.admin_spa.login_services" data-source-line="20" id="ent0014"><rect fill="#F1F1F1" height="55.2188" rx="2.5" ry="2.5" style="stroke:#181818;stroke-width:0.5;" width="183.4063" x="1499.22" y="332.5"/><text fill="#000000" font-family="sans-serif" font-size="14" lengthAdjust="spacing" textLength="163.4063" x="1509.22" y="357.0332">Login Services/Controllers</text><text fill="#000000" font-family="sans-serif" font-size="14" lengthAdjust="spacing" textLength="80.9238" x="1509.22" y="374.6426">(lazy-loaded)</text></g><!--entity ui_libs--><g class="entity" data-qualified-name="browser.admin_spa.ui_libs" data-source-line="21" id="ent0015"><rect fill="#F1F1F1" height="55.2188" rx="2.5" ry="2.5" style="stroke:#181818;stroke-width:0.5;" width="100.9238" x="1540.22" y="242.5"/><text fill="#000000" font-family="sans-serif" font-size="14" lengthAdjust="spacing" textLength="71.5791" x="1550.22" y="267.0332">UI Libraries</text><text fill="#000000" font-family="sans-serif" font-size="14" lengthAdjust="spacing" textLength="80.9238" x="1550.22" y="284.6426">(lazy-loaded)</text></g><!--entity contact_modules--><g class="entity" data-qualified-name="browser.admin_spa.contact_modules" data-source-line="22" id="ent0016"><rect fill="#F1F1F1" height="55.2188" rx="2.5" ry="2.5" style="stroke:#181818;stroke-width:0.5;" width="125.0547" x="1528.22" y="512.5"/><text fill="#000000" font-family="sans-serif" font-size="14" lengthAdjust="spacing" textLength="105.0547" x="1538.22" y="537.0332">Contact Modules</text><text fill="#000000" font-family="sans-serif" font-size="14" lengthAdjust="spacing" textLength="80.9238" x="1538.22" y="554.6426">(lazy-loaded)</text></g><!--entity proxy--><g class="entity" data-qualified-name="webhost.proxy" data-source-line="27" id="ent0018"><polygon fill="#F1F1F1" points="480.72,703.5,490.72,693.5,692.6643,693.5,692.6643,748.7188,682.6643,758.7188,480.72,758.7188,480.72,703.5" style="stroke:#181818;stroke-width:0.5;stroke-linejoin:miter;stroke-miterlimit:10;"/><line style="stroke:#181818;stroke-width:0.5;" x1="682.6643" x2="692.6643" y1="703.5" y2="693.5"/><line style="stroke:#181818;stroke-width:0.5;" x1="480.72" x2="682.6643" y1="703.5" y2="703.5"/><line style="stroke:#181818;stroke-width:0.5;" x1="682.6643" x2="682.6643" y1="703.5" y2="758.7188"/><text fill="#000000" font-family="sans-serif" font-size="14" lengthAdjust="spacing" textLength="171.9443" x="495.72" y="728.0332">Reverse Proxy (e.g., Nginx)</text><text fill="#000000" font-family="sans-serif" font-size="14" lengthAdjust="spacing" textLength="58.3652" x="495.72" y="745.6426">(optional)</text></g><!--entity api--><g class="entity" data-qualified-name="runtime.api" data-source-line="31" id="ent0020"><rect fill="#F1F1F1" height="55.2188" rx="2.5" ry="2.5" style="stroke:#181818;stroke-width:0.5;" width="187.2549" x="991.72" y="888.5"/><text fill="#000000" font-family="sans-serif" font-size="14" lengthAdjust="spacing" textLength="167.2549" x="1001.72" y="913.0332">MyEMS REST API Service</text><text fill="#000000" font-family="sans-serif" font-size="14" lengthAdjust="spacing" textLength="117.4824" x="1001.72" y="930.6426">(WSGI application)</text></g><!--entity mysql--><g class="entity" data-qualified-name="runtime.mysql" data-source-line="32" id="ent0021"><path d="M1525.72,894 C1525.72,884 1590.968,884 1590.968,884 C1590.968,884 1656.2161,884 1656.2161,894 L1656.2161,938.2188 C1656.2161,948.2188 1590.968,948.2188 1590.968,948.2188 C1590.968,948.2188 1525.72,948.2188 1525.72,938.2188 L1525.72,894" fill="#F1F1F1" style="stroke:#181818;stroke-width:0.5;"/><path d="M1525.72,894 C1525.72,904 1590.968,904 1590.968,904 C1590.968,904 1656.2161,904 1656.2161,894" fill="none" style="stroke:#181818;stroke-width:0.5;"/><text fill="#000000" font-family="sans-serif" font-size="14" lengthAdjust="spacing" textLength="110.4961" x="1535.72" y="922.5332">MySQL Database</text><text fill="#000000" font-family="sans-serif" font-size="14" lengthAdjust="spacing" textLength="58.3652" x="1535.72" y="940.1426">(optional)</text></g><!--entity admin--><g class="entity" data-qualified-name="admin" data-source-line="5" id="ent0001"><ellipse cx="47.2344" cy="557.5" fill="#F1F1F1" rx="8" ry="8" style="stroke:#181818;stroke-width:0.5;"/><path d="M47.2344,565.5 L47.2344,592.5 M34.2344,573.5 L60.2344,573.5 M47.2344,592.5 L34.2344,607.5 M47.2344,592.5 L60.2344,607.5" fill="none" style="stroke:#181818;stroke-width:0.5;"/><text fill="#000000" font-family="sans-serif" font-size="14" lengthAdjust="spacing" textLength="82.4688" x="6" y="623.5332">Administrator</text></g><!--entity myems_client--><g class="entity" data-qualified-name="myems_client" data-source-line="6" id="ent0002"><ellipse cx="586.8543" cy="802.5" fill="#F1F1F1" rx="8" ry="8" style="stroke:#181818;stroke-width:0.5;"/><path d="M586.8543,810.5 L586.8543,837.5 M573.8543,818.5 L599.8543,818.5 M586.8543,837.5 L573.8543,852.5 M586.8543,837.5 L599.8543,852.5" fill="none" style="stroke:#181818;stroke-width:0.5;"/><text fill="#000000" font-family="sans-serif" font-size="14" lengthAdjust="spacing" textLength="125.2686" x="524.22" y="868.5332">MyEMS Component</text></g><!--entity thirdparty--><g class="entity" data-qualified-name="thirdparty" data-source-line="7" id="ent0003"><ellipse cx="586.5266" cy="915.5" fill="#F1F1F1" rx="8" ry="8" style="stroke:#181818;stroke-width:0.5;"/><path d="M586.5266,923.5 L586.5266,950.5 M573.5266,931.5 L599.5266,931.5 M586.5266,950.5 L573.5266,965.5 M586.5266,950.5 L599.5266,965.5" fill="none" style="stroke:#181818;stroke-width:0.5;"/><text fill="#000000" font-family="sans-serif" font-size="14" lengthAdjust="spacing" textLength="141.6133" x="515.72" y="981.5332">Third-Party Application</text></g><g class="entity" data-qualified-name="GMN40" data-source-line="69" id="ent0041"><path d="M934.72,644.5 L934.72,719.9063 A0,0 0 0 0 934.72,719.9063 L1235.3343,719.9063 A0,0 0 0 0 1235.3343,719.9063 L1235.3343,654.5 L1225.3343,644.5 L953.22,644.5 L686.7,571.51 L945.22,644.5 L934.72,644.5 A0,0 0 0 0 934.72,644.5" fill="#FEFFDD" style="stroke:#181818;stroke-width:0.5;"/><path d="M1225.3343,644.5 L1225.3343,654.5 L1235.3343,654.5 L1225.3343,644.5" fill="#FEFFDD" style="stroke:#181818;stroke-width:0.5;"/><text fill="#000000" font-family="sans-serif" font-size="13" lengthAdjust="spacing" textLength="279.6143" x="940.72" y="662.9951">- Computes API base path from current browser:</text><text fill="#000000" font-family="sans-serif" font-size="13" lengthAdjust="spacing" textLength="187.1987" x="947.9436" y="679.3467">{protocol}//{hostname}:{port}/api/</text><text fill="#000000" font-family="sans-serif" font-size="13" lengthAdjust="spacing" textLength="124.9917" x="940.72" y="695.6982">- Enforces suffix: /api/</text><text fill="#000000" font-family="sans-serif" font-size="13" lengthAdjust="spacing" textLength="243.4644" x="940.72" y="712.0498">- Same-origin access preferred (NFR-001)</text></g><g class="entity" data-qualified-name="GMN43" data-source-line="76" id="ent0044"><path d="M1461.22,644.5 L1461.22,703.5547 L1719.8572,703.5547 L1719.8572,654.5 L1709.8572,644.5 L1461.22,644.5" fill="#FEFFDD" style="stroke:#181818;stroke-width:0.5;"/><path d="M1709.8572,644.5 L1709.8572,654.5 L1719.8572,654.5 L1709.8572,644.5" fill="#FEFFDD" style="stroke:#181818;stroke-width:1;"/><text fill="#000000" font-family="sans-serif" font-size="13" lengthAdjust="spacing" textLength="70.8081" x="1467.22" y="662.9951">- Path: /user</text><text fill="#000000" font-family="sans-serif" font-size="13" lengthAdjust="spacing" textLength="237.6372" x="1467.22" y="679.3467">- Title key: MENU.USERSETTING.USER</text><text fill="#000000" font-family="sans-serif" font-size="13" lengthAdjust="spacing" textLength="224.7261" x="1467.22" y="695.6982">- Declares route-specific dependencies</text></g><g class="entity" data-qualified-name="GMN46" data-source-line="82" id="ent0047"><path d="M1461.72,738.5 L1461.72,797.5547 L1719.6209,797.5547 L1719.6209,748.5 L1709.6209,738.5 L1461.72,738.5" fill="#FEFFDD" style="stroke:#181818;stroke-width:0.5;"/><path d="M1709.6209,738.5 L1709.6209,748.5 L1719.6209,748.5 L1709.6209,738.5" fill="#FEFFDD" style="stroke:#181818;stroke-width:1;"/><text fill="#000000" font-family="sans-serif" font-size="13" lengthAdjust="spacing" textLength="87.4326" x="1467.72" y="756.9951">- Path: /contact</text><text fill="#000000" font-family="sans-serif" font-size="13" lengthAdjust="spacing" textLength="236.9009" x="1467.72" y="773.3467">- Title key: MENU.SETTINGS.CONTACT</text><text fill="#000000" font-family="sans-serif" font-size="13" lengthAdjust="spacing" textLength="224.7261" x="1467.72" y="789.6982">- Declares route-specific dependencies</text></g><g class="entity" data-qualified-name="GMN49" data-source-line="88" id="ent0050"><path d="M1455.72,6 L1455.72,32.3516 L1725.9925,32.3516 L1725.9925,16 L1715.9925,6 L1455.72,6" fill="#FEFFDD" style="stroke:#181818;stroke-width:0.5;"/><path d="M1715.9925,6 L1715.9925,16 L1725.9925,16 L1715.9925,6" fill="#FEFFDD" style="stroke:#181818;stroke-width:1;"/><text fill="#000000" font-family="sans-serif" font-size="13" lengthAdjust="spacing" textLength="249.2725" x="1461.72" y="24.4951">- Settings workflow coverage (if configured)</text></g><g class="entity" data-qualified-name="GMN52" data-source-line="92" id="ent0053"><path d="M1455.72,67 L1455.72,93.3516 L1725.9925,93.3516 L1725.9925,77 L1715.9925,67 L1455.72,67" fill="#FEFFDD" style="stroke:#181818;stroke-width:0.5;"/><path d="M1715.9925,67 L1715.9925,77 L1725.9925,77 L1715.9925,67" fill="#FEFFDD" style="stroke:#181818;stroke-width:1;"/><text fill="#000000" font-family="sans-serif" font-size="13" lengthAdjust="spacing" textLength="249.2725" x="1461.72" y="85.4951">- Settings workflow coverage (if configured)</text></g><g class="entity" data-qualified-name="GMN55" data-source-line="96" id="ent0056"><path d="M461.72,49.5 L461.72,92.2031 L711.7561,92.2031 L711.7561,59.5 L701.7561,49.5 L461.72,49.5" fill="#FEFFDD" style="stroke:#181818;stroke-width:0.5;"/><path d="M701.7561,49.5 L701.7561,59.5 L711.7561,59.5 L701.7561,49.5" fill="#FEFFDD" style="stroke:#181818;stroke-width:1;"/><text fill="#000000" font-family="sans-serif" font-size="13" lengthAdjust="spacing" textLength="229.0361" x="467.72" y="67.9951">- Optional reverse proxy to avoid CORS</text><text fill="#000000" font-family="sans-serif" font-size="13" lengthAdjust="spacing" textLength="221.1016" x="467.72" y="84.3467">- Not the only valid routing mechanism</text></g><g class="entity" data-qualified-name="GMN58" data-source-line="101" id="ent0059"><path d="M1457.22,983.5 L1457.22,1019.47 L1178.86,942.86 L1457.22,1027.47 L1457.22,1140.6641 A0,0 0 0 0 1457.22,1140.6641 L1724.6106,1140.6641 A0,0 0 0 0 1724.6106,1140.6641 L1724.6106,993.5 L1714.6106,983.5 L1457.22,983.5 A0,0 0 0 0 1457.22,983.5" fill="#FEFFDD" style="stroke:#181818;stroke-width:0.5;"/><path d="M1714.6106,983.5 L1714.6106,993.5 L1724.6106,993.5 L1714.6106,983.5" fill="#FEFFDD" style="stroke:#181818;stroke-width:0.5;"/><text fill="#000000" font-family="sans-serif" font-size="13" lengthAdjust="spacing" textLength="208.8252" x="1463.22" y="1001.9951">- Python runtime with required deps:</text><text fill="#000000" font-family="sans-serif" font-size="13" lengthAdjust="spacing" textLength="189.2427" x="1470.4436" y="1018.3467">REST framework, CORS, WSGI,</text><text fill="#000000" font-family="sans-serif" font-size="13" lengthAdjust="spacing" textLength="166.9497" x="1470.4436" y="1034.6982">spreadsheet/image handling,</text><text fill="#000000" font-family="sans-serif" font-size="13" lengthAdjust="spacing" textLength="104.0444" x="1470.4436" y="1051.0498">MySQL connector</text><text fill="#000000" font-family="sans-serif" font-size="13" lengthAdjust="spacing" textLength="198.7134" x="1463.22" y="1067.4014">- Supports development quick-run:</text><text fill="#000000" font-family="sans-serif" font-size="13" lengthAdjust="spacing" textLength="99.709" x="1470.4436" y="1083.7529">Linux &amp; Windows</text><text fill="#000000" font-family="sans-serif" font-size="13" lengthAdjust="spacing" textLength="209.5488" x="1463.22" y="1100.1045">- Supports Docker-based installation</text><text fill="#000000" font-family="sans-serif" font-size="13" lengthAdjust="spacing" textLength="189.2871" x="1463.22" y="1116.4561">- Provides RESTful interfaces for</text><text fill="#000000" font-family="sans-serif" font-size="13" lengthAdjust="spacing" textLength="239.167" x="1470.4436" y="1132.8076">MyEMS components and third-party apps</text></g><g class="entity" data-qualified-name="GMN61" data-source-line="113" id="ent0062"><path d="M1786.72,894.5 L1786.72,912 L1656.03,916 L1786.72,920 L1786.72,937.2031 A0,0 0 0 0 1786.72,937.2031 L2062.0896,937.2031 A0,0 0 0 0 2062.0896,937.2031 L2062.0896,904.5 L2052.0896,894.5 L1786.72,894.5 A0,0 0 0 0 1786.72,894.5" fill="#FEFFDD" style="stroke:#181818;stroke-width:0.5;"/><path d="M2052.0896,894.5 L2052.0896,904.5 L2062.0896,904.5 L2052.0896,894.5" fill="#FEFFDD" style="stroke:#181818;stroke-width:0.5;"/><text fill="#000000" font-family="sans-serif" font-size="13" lengthAdjust="spacing" textLength="196.5488" x="1792.72" y="912.9951">- Provide compatible configuration</text><text fill="#000000" font-family="sans-serif" font-size="13" lengthAdjust="spacing" textLength="247.146" x="1799.9436" y="929.3467">when MySQL-backed features are enabled</text></g><!--link admin to admin_spa--><g class="link" data-entity-1="ent0001" data-entity-2="ent0005" data-link-type="dependency" data-source-line="36" id="lnk22"><path d="M88,588 C118.655,588 161.615,588 197.3413,588 C215.2044,588 231.2591,588 243.063,588 C246.0139,588 248.6992,588 251.0807,588 C252.2714,588 253.3862,588 254.4203,588 C254.9373,588 250.4341,588 250.9102,588" fill="none" id="admin-to-admin_spa" style="stroke:#181818;stroke-width:1;"/><polygon fill="#181818" points="255.9102,588,246.9102,584,250.9102,588,246.9102,592,255.9102,588" style="stroke:#181818;stroke-width:1;stroke-linejoin:miter;stroke-miterlimit:10;"/><text fill="#000000" font-family="sans-serif" font-size="13" lengthAdjust="spacing" textLength="88.1245" x="119" y="584.4951">Uses (browser)</text></g><!--link routing_cfg to user_route--><g class="link" data-entity-1="ent0006" data-entity-2="ent0008" data-link-type="dependency" data-source-line="39" id="lnk23"><path d="M664.75,384.76 C744.7,392.81 865.8552,405.0087 958.9452,414.3887" fill="none" id="routing_cfg-to-user_route" style="stroke:#181818;stroke-width:1;"/><polygon fill="#181818" points="963.92,414.89,955.3664,410.0079,958.9452,414.3887,954.5643,417.9676,963.92,414.89" style="stroke:#181818;stroke-width:1;stroke-linejoin:miter;stroke-miterlimit:10;"/></g><!--link routing_cfg to contact_route--><g class="link" data-entity-1="ent0006" data-entity-2="ent0009" data-link-type="dependency" data-source-line="40" id="lnk24"><path d="M656.15,396.09 C675.76,401.71 697.12,407.97 716.72,414 C804.67,441.08 899.0012,472.2351 972.0912,496.8351" fill="none" id="routing_cfg-to-contact_route" style="stroke:#181818;stroke-width:1;"/><polygon fill="#181818" points="976.83,498.43,969.5761,491.7681,972.0912,496.8351,967.0242,499.3501,976.83,498.43" style="stroke:#181818;stroke-width:1;stroke-linejoin:miter;stroke-miterlimit:10;"/></g><!--link routing_cfg to tariff_mod--><g class="link" data-entity-1="ent0006" data-entity-2="ent0010" data-link-type="dependency" data-source-line="41" id="lnk25"><path d="M635.81,357.95 C665.95,346.4 705.77,331.86 741.72,321 C831.77,293.81 932.3145,270.4038 1002.1645,255.1938" fill="none" id="routing_cfg-to-tariff_mod" style="stroke:#181818;stroke-width:1;stroke-dasharray:7,7;"/><polygon fill="#181818" points="1007.05,254.13,997.405,252.1365,1002.1645,255.1938,999.1071,259.9533,1007.05,254.13" style="stroke:#181818;stroke-width:1;stroke-linejoin:miter;stroke-miterlimit:10;"/><text fill="#000000" font-family="sans-serif" font-size="13" lengthAdjust="spacing" textLength="161.8843" x="742.72" y="275.4951">configured where applicable</text></g><!--link routing_cfg to category_mod--><g class="link" data-entity-1="ent0006" data-entity-2="ent0011" data-link-type="dependency" data-source-line="42" id="lnk26"><path d="M664.75,369.4 C753.82,360.61 895.2442,346.6509 989.4142,337.3609" fill="none" id="routing_cfg-to-category_mod" style="stroke:#181818;stroke-width:1;stroke-dasharray:7,7;"/><polygon fill="#181818" points="994.39,336.87,985.0408,333.7729,989.4142,337.3609,985.8262,341.7343,994.39,336.87" style="stroke:#181818;stroke-width:1;stroke-linejoin:miter;stroke-miterlimit:10;"/><text fill="#000000" font-family="sans-serif" font-size="13" lengthAdjust="spacing" textLength="161.8843" x="742.72" y="343.4951">configured where applicable</text></g><!--link admin_spa to basepath--><g class="link" data-entity-1="ent0005" data-entity-2="ent0007" data-link-type="dependency" data-source-line="43" id="lnk27"><path d="M264.78,587.99 C267.75,587.58 378.7064,572.3793 470.3764,559.8093" fill="none" id="admin_spa-to-basepath" style="stroke:#181818;stroke-width:1;"/><polygon fill="#181818" points="475.33,559.13,465.87,556.3897,470.3764,559.8093,466.9568,564.3156,475.33,559.13" style="stroke:#181818;stroke-width:1;stroke-linejoin:miter;stroke-miterlimit:10;"/><text fill="#000000" font-family="sans-serif" font-size="13" lengthAdjust="spacing" textLength="135.1416" x="295.72" y="562.4951">compute API base path</text></g><!--link lazy_loader to user_route--><g class="link" data-entity-1="ent0012" data-entity-2="ent0008" data-link-type="dependency" data-source-line="46" id="lnk28"><path d="M676.77,446.7 C757,442.82 870.6058,437.3213 959.1858,433.0413" fill="none" id="lazy_loader-to-user_route" style="stroke:#181818;stroke-width:1;"/><polygon fill="#181818" points="964.18,432.8,954.9974,429.239,959.1858,433.0413,955.3835,437.2297,964.18,432.8" style="stroke:#181818;stroke-width:1;stroke-linejoin:miter;stroke-miterlimit:10;"/></g><!--link lazy_loader to contact_route--><g class="link" data-entity-1="ent0012" data-entity-2="ent0009" data-link-type="dependency" data-source-line="47" id="lnk29"><path d="M676.77,466.07 C757.14,479.66 871.0801,498.9357 959.7101,513.9357" fill="none" id="lazy_loader-to-contact_route" style="stroke:#181818;stroke-width:1;"/><polygon fill="#181818" points="964.64,514.77,956.4337,509.3243,959.7101,513.9357,955.0987,517.2121,964.64,514.77" style="stroke:#181818;stroke-width:1;stroke-linejoin:miter;stroke-miterlimit:10;"/></g><!--link user_route to user_services--><g class="link" data-entity-1="ent0008" data-entity-2="ent0013" data-link-type="dependency" data-source-line="48" id="lnk30"><path d="M1206.5,432.49 C1297.12,436.63 1414.3252,441.9923 1496.1352,445.7223" fill="none" id="user_route-to-user_services" style="stroke:#181818;stroke-width:1;stroke-dasharray:7,7;"/><polygon fill="#181818" points="1501.13,445.95,1492.3215,441.5442,1496.1352,445.7223,1491.9572,449.5359,1501.13,445.95" style="stroke:#181818;stroke-width:1;stroke-linejoin:miter;stroke-miterlimit:10;"/><text fill="#000000" font-family="sans-serif" font-size="13" lengthAdjust="spacing" textLength="52.0254" x="1319.72" y="432.4951">lazy-load</text></g><!--link user_route to login_services--><g class="link" data-entity-1="ent0008" data-entity-2="ent0014" data-link-type="dependency" data-source-line="49" id="lnk31"><path d="M1206.5,410.99 C1296.39,399.03 1412.4037,383.5998 1494.2037,372.7098" fill="none" id="user_route-to-login_services" style="stroke:#181818;stroke-width:1;stroke-dasharray:7,7;"/><polygon fill="#181818" points="1499.16,372.05,1489.7108,369.2727,1494.2037,372.7098,1490.7666,377.2027,1499.16,372.05" style="stroke:#181818;stroke-width:1;stroke-linejoin:miter;stroke-miterlimit:10;"/><text fill="#000000" font-family="sans-serif" font-size="13" lengthAdjust="spacing" textLength="52.0254" x="1319.72" y="380.4951">lazy-load</text></g><!--link user_route to ui_libs--><g class="link" data-entity-1="ent0008" data-entity-2="ent0015" data-link-type="dependency" data-source-line="50" id="lnk32"><path d="M1192.19,390.47 C1206.91,384.89 1221.77,378.98 1235.72,373 C1249.42,367.12 1251.79,363.31 1265.72,358 C1360.34,321.9 1470.8846,295.3342 1535.2946,281.3042" fill="none" id="user_route-to-ui_libs" style="stroke:#181818;stroke-width:1;stroke-dasharray:7,7;"/><polygon fill="#181818" points="1540.18,280.24,1530.5349,278.2471,1535.2946,281.3042,1532.2375,286.0638,1540.18,280.24" style="stroke:#181818;stroke-width:1;stroke-linejoin:miter;stroke-miterlimit:10;"/><text fill="#000000" font-family="sans-serif" font-size="13" lengthAdjust="spacing" textLength="52.0254" x="1319.72" y="305.4951">lazy-load</text></g><!--link contact_route to contact_modules--><g class="link" data-entity-1="ent0009" data-entity-2="ent0016" data-link-type="dependency" data-source-line="51" id="lnk33"><path d="M1205.86,536.19 C1307.07,537.19 1443.0303,538.54 1522.9503,539.34" fill="none" id="contact_route-to-contact_modules" style="stroke:#181818;stroke-width:1;stroke-dasharray:7,7;"/><polygon fill="#181818" points="1527.95,539.39,1518.9905,535.3001,1522.9503,539.34,1518.9104,543.2997,1527.95,539.39" style="stroke:#181818;stroke-width:1;stroke-linejoin:miter;stroke-miterlimit:10;"/><text fill="#000000" font-family="sans-serif" font-size="13" lengthAdjust="spacing" textLength="52.0254" x="1319.72" y="533.4951">lazy-load</text></g><!--link admin_spa to proxy--><g class="link" data-entity-1="ent0005" data-entity-2="ent0018" data-link-type="dependency" data-source-line="54" id="lnk34"><path d="M274.3141,596.0098 C274.4865,596.1461 274.6606,596.2832 274.8363,596.4213 C280.4575,600.8375 287.715,606.12 294.72,610 C355.73,643.81 423.9314,671.1779 481.5114,691.7479" fill="none" id="admin_spa-to-proxy" style="stroke:#181818;stroke-width:1;"/><polygon fill="#181818" points="486.22,693.43,479.0903,686.6354,481.5114,691.7479,476.3989,694.1691,486.22,693.43" style="stroke:#181818;stroke-width:1;stroke-linejoin:miter;stroke-miterlimit:10;"/><text fill="#000000" font-family="sans-serif" font-size="13" lengthAdjust="spacing" textLength="122.8018" x="302.22" y="606.4951">HTTP/HTTPS to /api/</text></g><!--link proxy to api--><g class="link" data-entity-1="ent0018" data-entity-2="ent0020" data-link-type="dependency" data-source-line="55" id="lnk35"><path d="M691.82,758.56 C754.15,778.77 834.62,806.13 904.72,834 C946.59,850.65 988.2839,869.684 1023.3439,886.344" fill="none" id="proxy-to-api" style="stroke:#181818;stroke-width:1;"/><polygon fill="#181818" points="1027.86,888.49,1021.4479,881.0144,1023.3439,886.344,1018.0143,888.2401,1027.86,888.49" style="stroke:#181818;stroke-width:1;stroke-linejoin:miter;stroke-miterlimit:10;"/><text fill="#000000" font-family="sans-serif" font-size="13" lengthAdjust="spacing" textLength="129.3335" x="758.72" y="774.4951">Forward /api/ requests</text></g><!--link admin_spa to api--><g class="link" data-entity-1="ent0005" data-entity-2="ent0020" data-link-type="dependency" data-source-line="58" id="lnk36"><path d="M265.0989,596.1753 C265.1237,596.617 265.1499,597.0755 265.1778,597.5507 C265.2891,599.4512 265.4255,601.6176 265.5917,604.0335 C266.2567,613.6969 267.3999,627.3526 269.333,643.9602 C273.1991,677.1753 280.2244,722.1981 292.9013,770.7063 C318.255,867.7225 366.215,978.68 456.72,1037 C647.44,1159.89 929.6114,1011.8337 1037.1414,946.2437" fill="none" id="admin_spa-to-api" style="stroke:#181818;stroke-width:1;stroke-dasharray:7,7;"/><polygon fill="#181818" points="1041.41,943.64,1031.6436,944.9118,1037.1414,946.2437,1035.8095,951.7415,1041.41,943.64" style="stroke:#181818;stroke-width:1;stroke-linejoin:miter;stroke-miterlimit:10;"/><text fill="#000000" font-family="sans-serif" font-size="13" lengthAdjust="spacing" textLength="139.4707" x="517.2722" y="1017.4951">/api/ (equivalent routing)</text><text fill="#000000" font-family="sans-serif" font-size="13" lengthAdjust="spacing" textLength="140.5752" x="516.72" y="1033.8467">(dashed = optional path)</text></g><!--link myems_client to api--><g class="link" data-entity-1="ent0002" data-entity-2="ent0020" data-link-type="dependency" data-source-line="61" id="lnk37"><path d="M649.6,843.34 C735.51,857.71 886.6785,882.9754 986.5485,899.6754" fill="none" id="myems_client-to-api" style="stroke:#181818;stroke-width:1;"/><polygon fill="#181818" points="991.48,900.5,983.263,895.0704,986.5485,899.6754,981.9435,902.9609,991.48,900.5" style="stroke:#181818;stroke-width:1;stroke-linejoin:miter;stroke-miterlimit:10;"/><text fill="#000000" font-family="sans-serif" font-size="13" lengthAdjust="spacing" textLength="102.5845" x="772.22" y="856.4951">RESTful API calls</text></g><!--link thirdparty to api--><g class="link" data-entity-1="ent0003" data-entity-2="ent0020" data-link-type="dependency" data-source-line="62" id="lnk38"><path d="M657.8,941.77 C745.21,936.48 889.9191,927.7417 986.6791,921.8917" fill="none" id="thirdparty-to-api" style="stroke:#181818;stroke-width:1;"/><polygon fill="#181818" points="991.67,921.59,982.445,918.1404,986.6791,921.8917,982.9278,926.1258,991.67,921.59" style="stroke:#181818;stroke-width:1;stroke-linejoin:miter;stroke-miterlimit:10;"/><text fill="#000000" font-family="sans-serif" font-size="13" lengthAdjust="spacing" textLength="102.5845" x="772.22" y="924.4951">RESTful API calls</text></g><!--link api to mysql--><g class="link" data-entity-1="ent0020" data-entity-2="ent0021" data-link-type="dependency" data-source-line="65" id="lnk39"><path d="M1178.86,916 C1279.55,916 1432.77,916 1520.59,916" fill="none" id="api-to-mysql" style="stroke:#181818;stroke-width:1;"/><polygon fill="#181818" points="1525.59,916,1516.59,912,1520.59,916,1516.59,920,1525.59,916" style="stroke:#181818;stroke-width:1;stroke-linejoin:miter;stroke-miterlimit:10;"/><text fill="#000000" font-family="sans-serif" font-size="13" lengthAdjust="spacing" textLength="158.2407" x="1266.72" y="912.4951">DB connectivity (if enabled)</text></g><!--link user_route to GMN43--><g class="link" data-entity-1="ent0008" data-entity-2="ent0044" data-link-type="association" data-source-line="76" id="lnk45"><path d="M1206.37,460.23 C1216.99,466.08 1227,472.95 1235.72,481 C1259.4,502.85 1242.34,524.83 1265.72,547 C1319.42,597.93 1395.92,629.2 1461.1,647.96" fill="none" id="user_route-GMN43" style="stroke:#181818;stroke-width:1;stroke-dasharray:7,7;"/></g><!--link contact_route to GMN46--><g class="link" data-entity-1="ent0009" data-entity-2="ent0047" data-link-type="association" data-source-line="82" id="lnk48"><path d="M1165.82,571.54 C1190.74,586.01 1216.67,604.59 1235.72,627 C1258.44,653.73 1238.75,677.57 1265.72,700 C1319.85,745.03 1396.36,762.53 1461.44,768.54" fill="none" id="contact_route-GMN46" style="stroke:#181818;stroke-width:1;stroke-dasharray:7,7;"/></g><!--link tariff_mod to GMN49--><g class="link" data-entity-1="ent0010" data-entity-2="ent0050" data-link-type="association" data-source-line="88" id="lnk51"><path d="M1103.77,210.36 C1132.11,168.4 1192.28,89.72 1265.72,54 C1323.98,25.67 1394.93,15.68 1455.58,13.29" fill="none" id="tariff_mod-GMN49" style="stroke:#181818;stroke-width:1;stroke-dasharray:7,7;"/></g><!--link category_mod to GMN52--><g class="link" data-entity-1="ent0011" data-entity-2="ent0053" data-link-type="association" data-source-line="92" id="lnk54"><path d="M1175.95,304.62 C1195.94,298.42 1216.8,291.15 1235.72,283 C1370.42,225.01 1518.74,128.08 1570.58,93.09" fill="none" id="category_mod-GMN52" style="stroke:#181818;stroke-width:1;stroke-dasharray:7,7;"/></g><!--link proxy to GMN55--><g class="link" data-entity-1="ent0018" data-entity-2="ent0056" data-link-type="association" data-source-line="96" id="lnk57"><path d="M504.45,693.46 C452.99,668.28 390.92,627.94 360.72,570.5 C286.47,429.28 283.21,350.96 360.72,211.5 C394.16,151.33 465.24,113.61 518.81,92.58" fill="none" id="proxy-GMN55" style="stroke:#181818;stroke-width:1;stroke-dasharray:7,7;"/></g><?plantuml-src fLTDRziu4BthLmnws7M0AEvU0so1VBXjW7ojvI2N00OjZMmYbAYIb1DlaF--CwHaIRRJBj1B4OipRnw7ysQc2dC7JeEHovM3J1fCdTHb5DbdMLR2Y09INLIwnD8bRgCGs4AKIuLH95Ad3NmwomfPIkkCe9-VG5WG_AKzljbCRXAuQ56yGR71mivJ9Ub3QpTRIPF5zyAu3PnLbPAfO2hUtl5PnKTHLEeCuTEvqIyMGxX5-1lU8kZOje4zEqZkppfcSri9Rpmm3uPJNJjPBeblcSkbzp7XqppDbti-zrTmBYp2lN0hcABLQetcgNohZ7OwrUfzF7vRQUjAKU3xwLkbZNiVYqgE0t5ohSXp5tPSytMO2ZwLC-aKdiBDvFRXv26PJ9F9R7Pr-yt__LIEhiM_crXfaM5sv47PTywSSGysrQMZR1z2Rb2JaukxszdPnUmGSkD-67mcZCnpID1niYpSwAnM56IaAtv6eGA6ysRpGcUx01V2uLARpIyXqiRGW-oYUDBNH9eVyGRJbQ3IBBoVegEvlu_PzNhWV2TerZ95EwQtTqOhXSPIS7KmmROnteklbrnk_nDAiVM7M0zNS2qNXZA6Xud8kPABFRUBvfL3-WvwjYzP11D2U8_UMsabLAln7NK4kiWZBk0xrQ_tUi45rxANJZ2T8fKxbx_HhniOuSdov1XkoV7rQE_PAhRfejnlt4gJtkhIoGAx8ARvS53Cqqao0nPTas0AyfXykmBHzOiGZ2H6_fbmWZN6xia_rt3P_DxZLcpi3yNS_WHV2h9qQ2X1T6T9mjxsaCZt3uZZBxrESie-5aPD6pfYbAr7WA90G0soJbrj44IPjKqbwZKN3zjJx-xHK7xzqvEJBprX4Q7KTo-AbS7B2ZbaID12xJlsvVGBr-xEpAVjNjwfg8YKVngVSD_LA0_R7i9opB32CiCofNgEUchSlVZkqV3YdQ6dFr0ZKTdM-gxXK6i_isnqDJ0PS0Xv6sfeO3se01gld9Ur561PMZf8ou-1dPHwZH3IzzdiVip_9EmTBCEPBxrAairNRLw4oS8fZUKVDLfdVMZbIyx9DG9zbckXM4FDmyE8Qvh-9f-WNezyrAF2rmj10lXe7uNrdGcxeZBv6ren-MVtzJzvRQe-p7ZR927g3_xUNLZNUQrydbAXb8swYVzJCxuj_I3qLjlGIJjYB_RsyYR_otD-jP9tdBKav97C0KikxSopljME7ZAdRUGPDpwbj10LdZzhbdnvoo55MsfYL0PXQz9vDyXZl-ZK33FG0kH6qofL6yCNRph5ARMeNsyAX3afYHCNhQtpNBuspq87IQ-UH4eMt6OnHyFo7Tr-dSQVF_zr597gW0b7ExHxcelz2aF8_8r--Ts0q_31va4cbvWgOJ0iI1ZR2bEPotGeyuz23pMzZTvyFa1WTq7vNGAzHIJkLeuNRPvpfL-87sb3BD7NIDSJFyxbO2lv7SI5TevgXI33n8pXhfNNGB1Sz6AjPGONTzE4pAXwQL56qANQ0AbLRgSC5EqYz25z7fZq2c4ejpFO3xz61XcdrNB9-Y6SqtyDaEzsxCCV0y_XOpgrL80YeyQ0RYmBlYz5pXInuDCmXniHQYwqfAwurYt1hr7fYkK6535zZea6nxkMPVqAVy2ZB3FIJT_dKgVFQ6AMMKQJrZfg2duBuBiOlPOPLKVRDVmapaKQ9Ex9y4wnNJA2o7tZYKFdeT7tSG65dM4Rn-DGR6ecszSDL807QHckJbI9SGOv2bu5A2HDsAO5TP7-0m00?></g></svg>