<svg xmlns="http://www.w3.org/2000/svg" xmlns:xlink="http://www.w3.org/1999/xlink" contentStyleType="text/css" data-diagram-type="DESCRIPTION" height="760px" preserveAspectRatio="none" style="width:1212px;height:760px;background:#FFFFFF;" version="1.1" viewBox="0 0 1212 760" width="1212px" zoomAndPan="magnify"><?plantuml 1.2026.6?><defs/><g><g class="title" data-source-line="7"><text fill="#000000" font-family="sans-serif" font-size="14" font-weight="700" lengthAdjust="spacing" textLength="253.6406" x="476.1587" y="24.5332">AwesomeMusic - System Architecture</text></g><!--cluster External--><g class="cluster" data-qualified-name="External" data-source-line="9" id="ent0001"><rect fill="none" height="90" rx="2.5" ry="2.5" style="stroke:#181818;stroke-width:1;" width="104" x="566" y="45.6094"/><text fill="#000000" font-family="sans-serif" font-size="14" font-weight="700" lengthAdjust="spacing" textLength="55.248" x="590.376" y="62.1426">External</text></g><!--cluster Cluster--><g class="cluster" data-qualified-name="Cluster" data-source-line="13" id="ent0003"><polygon fill="none" points="16,169.6094,26,159.6094,725,159.6094,725,725.6094,715,735.6094,16,735.6094,16,169.6094" style="stroke:#181818;stroke-width:1;stroke-linejoin:miter;stroke-miterlimit:10;"/><line style="stroke:#181818;stroke-width:1;" x1="715" x2="725" y1="169.6094" y2="159.6094"/><line style="stroke:#181818;stroke-width:1;" x1="16" x2="715" y1="169.6094" y2="169.6094"/><line style="stroke:#181818;stroke-width:1;" x1="715" x2="715" y1="169.6094" y2="735.6094"/><text fill="#000000" font-family="sans-serif" font-size="14" font-weight="700" lengthAdjust="spacing" textLength="126.7998" x="303.1001" y="187.1426">VM Cluster (4 VMs)</text></g><!--cluster DMZ--><g class="cluster" data-qualified-name="Cluster.DMZ" data-source-line="14" id="ent0004"><rect fill="none" height="107" rx="2.5" ry="2.5" style="stroke:#181818;stroke-width:1;" width="166" x="535" y="208.6094"/><path d="M621.2207,208.6094 L621.2207,219.2188 L611.2207,229.2188 L535,229.2188" fill="none" style="stroke:#181818;stroke-width:1;"/><text fill="#000000" font-family="sans-serif" font-size="14" font-weight="700" lengthAdjust="spacing" textLength="76.2207" x="538" y="224.1426">DMZ / Edge</text></g><!--cluster App--><g class="cluster" data-qualified-name="Cluster.App" data-source-line="18" id="ent0006"><path d="M172.5,339.6094 L290.9688,339.6094 A3.75,3.75 0 0 1 293.4688,342.1094 L300.4688,363.2188 L671.5,363.2188 A2.5,2.5 0 0 1 674,365.7188 L674,569.1094 A2.5,2.5 0 0 1 671.5,571.6094 L172.5,571.6094 A2.5,2.5 0 0 1 170,569.1094 L170,342.1094 A2.5,2.5 0 0 1 172.5,339.6094" fill="none" style="stroke:#000000;stroke-width:1.5;"/><line style="stroke:#000000;stroke-width:1.5;" x1="170" x2="300.4688" y1="363.2188" y2="363.2188"/><text fill="#000000" font-family="sans-serif" font-size="14" font-weight="700" lengthAdjust="spacing" textLength="117.4688" x="174" y="356.1426">Application Layer</text></g><!--cluster Infra--><g class="cluster" data-qualified-name="Cluster.Infra" data-source-line="25" id="ent0011"><path d="M42.5,595.6094 L175.7686,595.6094 A3.75,3.75 0 0 1 178.2686,598.1094 L185.2686,619.2188 L698.5,619.2188 A2.5,2.5 0 0 1 701,621.7188 L701,709.1094 A2.5,2.5 0 0 1 698.5,711.6094 L42.5,711.6094 A2.5,2.5 0 0 1 40,709.1094 L40,598.1094 A2.5,2.5 0 0 1 42.5,595.6094" fill="none" style="stroke:#000000;stroke-width:1.5;"/><line style="stroke:#000000;stroke-width:1.5;" x1="40" x2="185.2686" y1="619.2188" y2="619.2188"/><text fill="#000000" font-family="sans-serif" font-size="14" font-weight="700" lengthAdjust="spacing" textLength="132.2686" x="44" y="612.1426">Infrastructure Layer</text></g><!--entity Browser--><g class="entity" data-qualified-name="External.Browser" data-source-line="10" id="ent0002"><rect fill="#F1F1F1" height="37.6094" rx="2.5" ry="2.5" style="stroke:#181818;stroke-width:0.5;" width="71.3447" x="582.5" y="81.6094"/><text fill="#000000" font-family="sans-serif" font-size="14" lengthAdjust="spacing" textLength="51.3447" x="592.5" y="106.1426">Browser</text></g><!--entity Nginx--><g class="entity" data-qualified-name="Cluster.DMZ.Nginx" data-source-line="15" id="ent0005"><rect fill="#F1F1F1" height="55.2188" rx="2.5" ry="2.5" style="stroke:#181818;stroke-width:0.5;" width="134.3516" x="551" y="244.6094"/><text fill="#000000" font-family="sans-serif" font-size="14" lengthAdjust="spacing" textLength="35.793" x="561" y="269.1426">Nginx</text><text fill="#000000" font-family="sans-serif" font-size="14" lengthAdjust="spacing" textLength="3.8896" x="596.793" y="269.1426">&#160;</text><text fill="#000000" font-family="sans-serif" font-size="14" lengthAdjust="spacing" textLength="38.9238" x="600.6826" y="269.1426">1.19.8</text><text fill="#000000" font-family="sans-serif" font-size="14" lengthAdjust="spacing" textLength="50.5518" x="561" y="286.752">(HTTPS</text><text fill="#000000" font-family="sans-serif" font-size="14" lengthAdjust="spacing" textLength="3.8896" x="611.5518" y="286.752">&#160;</text><text fill="#000000" font-family="sans-serif" font-size="14" lengthAdjust="spacing" textLength="59.9102" x="615.4414" y="286.752">Gateway)</text></g><!--entity Frontend--><g class="entity" data-qualified-name="Cluster.App.Frontend" data-source-line="19" id="ent0007"><rect fill="#F1F1F1" height="55.2188" rx="2.5" ry="2.5" style="stroke:#181818;stroke-width:0.5;" width="188.041" x="470" y="375.6094"/><text fill="#000000" font-family="sans-serif" font-size="14" lengthAdjust="spacing" textLength="28.7861" x="480" y="400.1426">Web</text><text fill="#000000" font-family="sans-serif" font-size="14" lengthAdjust="spacing" textLength="3.8896" x="508.7861" y="400.1426">&#160;</text><text fill="#000000" font-family="sans-serif" font-size="14" lengthAdjust="spacing" textLength="56.0342" x="512.6758" y="400.1426">Frontend</text><text fill="#000000" font-family="sans-serif" font-size="14" lengthAdjust="spacing" textLength="99.5654" x="480" y="417.752">(HTML/CSS/JS,</text><text fill="#000000" font-family="sans-serif" font-size="14" lengthAdjust="spacing" textLength="3.8896" x="579.5654" y="417.752">&#160;</text><text fill="#000000" font-family="sans-serif" font-size="14" lengthAdjust="spacing" textLength="64.5859" x="583.4551" y="417.752">Bootstrap)</text></g><!--entity Backend--><g class="entity" data-qualified-name="Cluster.App.Backend" data-source-line="20" id="ent0008"><rect fill="#F1F1F1" height="55.2188" rx="2.5" ry="2.5" style="stroke:#181818;stroke-width:0.5;" width="107.1582" x="443.5" y="500.6094"/><text fill="#000000" font-family="sans-serif" font-size="14" lengthAdjust="spacing" textLength="28.7861" x="453.5" y="525.1426">Web</text><text fill="#000000" font-family="sans-serif" font-size="14" lengthAdjust="spacing" textLength="3.8896" x="482.2861" y="525.1426">&#160;</text><text fill="#000000" font-family="sans-serif" font-size="14" lengthAdjust="spacing" textLength="54.4824" x="486.1758" y="525.1426">Backend</text><text fill="#000000" font-family="sans-serif" font-size="14" lengthAdjust="spacing" textLength="53.6963" x="453.5" y="542.752">(Golang,</text><text fill="#000000" font-family="sans-serif" font-size="14" lengthAdjust="spacing" textLength="3.8896" x="507.1963" y="542.752">&#160;</text><text fill="#000000" font-family="sans-serif" font-size="14" lengthAdjust="spacing" textLength="26.4482" x="511.0859" y="542.752">Gin)</text></g><!--entity Scheduler--><g class="entity" data-qualified-name="Cluster.App.Scheduler" data-source-line="21" id="ent0009"><rect fill="#F1F1F1" height="37.6094" rx="2.5" ry="2.5" style="stroke:#181818;stroke-width:0.5;" width="83.041" x="186.5" y="384.1094"/><text fill="#000000" font-family="sans-serif" font-size="14" lengthAdjust="spacing" textLength="63.041" x="196.5" y="408.6426">Scheduler</text></g><!--entity Algo--><g class="entity" data-qualified-name="Cluster.App.Algo" data-source-line="22" id="ent0010"><rect fill="#F1F1F1" height="37.6094" rx="2.5" ry="2.5" style="stroke:#181818;stroke-width:0.5;" width="129.7031" x="305" y="384.1094"/><text fill="#000000" font-family="sans-serif" font-size="14" lengthAdjust="spacing" textLength="59.1309" x="315" y="408.6426">Algorithm</text><text fill="#000000" font-family="sans-serif" font-size="14" lengthAdjust="spacing" textLength="3.8896" x="374.1309" y="408.6426">&#160;</text><text fill="#000000" font-family="sans-serif" font-size="14" lengthAdjust="spacing" textLength="46.6826" x="378.0205" y="408.6426">Service</text></g><!--entity MQ--><g class="entity" data-qualified-name="Cluster.Infra.MQ" data-source-line="26" id="ent0012"><rect fill="#F1F1F1" height="55.2188" rx="2.5" ry="2.5" style="stroke:#181818;stroke-width:0.5;" width="125.834" x="412" y="636.1094"/><text fill="#000000" font-family="sans-serif" font-size="14" lengthAdjust="spacing" textLength="63.0205" x="422" y="660.6426">RabbitMQ</text><text fill="#000000" font-family="sans-serif" font-size="14" lengthAdjust="spacing" textLength="3.8896" x="485.0205" y="660.6426">&#160;</text><text fill="#000000" font-family="sans-serif" font-size="14" lengthAdjust="spacing" textLength="38.9238" x="488.9102" y="660.6426">3.8.14</text><text fill="#000000" font-family="sans-serif" font-size="14" lengthAdjust="spacing" textLength="35" x="422" y="678.252">(Task</text><text fill="#000000" font-family="sans-serif" font-size="14" lengthAdjust="spacing" textLength="3.8896" x="457" y="678.252">&#160;</text><text fill="#000000" font-family="sans-serif" font-size="14" lengthAdjust="spacing" textLength="46.6963" x="460.8896" y="678.252">Queue)</text></g><!--entity Etcd--><g class="entity" data-qualified-name="Cluster.Infra.Etcd" data-source-line="27" id="ent0013"><rect fill="#F1F1F1" height="55.2188" rx="2.5" ry="2.5" style="stroke:#181818;stroke-width:0.5;" width="175.5996" x="56" y="636.1094"/><text fill="#000000" font-family="sans-serif" font-size="14" lengthAdjust="spacing" textLength="26.4619" x="66" y="660.6426">etcd</text><text fill="#000000" font-family="sans-serif" font-size="14" lengthAdjust="spacing" textLength="3.8896" x="92.4619" y="660.6426">&#160;</text><text fill="#000000" font-family="sans-serif" font-size="14" lengthAdjust="spacing" textLength="38.9238" x="96.3516" y="660.6426">3.4.15</text><text fill="#000000" font-family="sans-serif" font-size="14" lengthAdjust="spacing" textLength="95.7031" x="66" y="678.252">(Config/Service</text><text fill="#000000" font-family="sans-serif" font-size="14" lengthAdjust="spacing" textLength="3.8896" x="161.7031" y="678.252">&#160;</text><text fill="#000000" font-family="sans-serif" font-size="14" lengthAdjust="spacing" textLength="56.0068" x="165.5928" y="678.252">Registry)</text></g><!--entity Hadoop--><g class="entity" data-qualified-name="Cluster.Infra.Hadoop" data-source-line="28" id="ent0014"><rect fill="#F1F1F1" height="55.2188" rx="2.5" ry="2.5" style="stroke:#181818;stroke-width:0.5;" width="110.2207" x="267" y="636.1094"/><text fill="#000000" font-family="sans-serif" font-size="14" lengthAdjust="spacing" textLength="49.041" x="277" y="660.6426">Hadoop</text><text fill="#000000" font-family="sans-serif" font-size="14" lengthAdjust="spacing" textLength="3.8896" x="326.041" y="660.6426">&#160;</text><text fill="#000000" font-family="sans-serif" font-size="14" lengthAdjust="spacing" textLength="31.1377" x="329.9307" y="660.6426">3.2.2</text><text fill="#000000" font-family="sans-serif" font-size="14" lengthAdjust="spacing" textLength="90.2207" x="277" y="678.252">(HDFS/YARN)</text></g><!--entity DB--><g class="entity" data-qualified-name="Cluster.Infra.DB" data-source-line="29" id="ent0015"><path d="M573,641.6094 C573,631.6094 628.9102,631.6094 628.9102,631.6094 C628.9102,631.6094 684.8203,631.6094 684.8203,641.6094 L684.8203,685.8281 C684.8203,695.8281 628.9102,695.8281 628.9102,695.8281 C628.9102,695.8281 573,695.8281 573,685.8281 L573,641.6094" fill="#F1F1F1" style="stroke:#181818;stroke-width:0.5;"/><path d="M573,641.6094 C573,651.6094 628.9102,651.6094 628.9102,651.6094 C628.9102,651.6094 684.8203,651.6094 684.8203,641.6094" fill="none" style="stroke:#181818;stroke-width:0.5;"/><text fill="#000000" font-family="sans-serif" font-size="14" lengthAdjust="spacing" textLength="59.9307" x="583" y="670.1426">Database</text><text fill="#000000" font-family="sans-serif" font-size="14" lengthAdjust="spacing" textLength="34.2344" x="583" y="687.752">(Data</text><text fill="#000000" font-family="sans-serif" font-size="14" lengthAdjust="spacing" textLength="3.8896" x="617.2344" y="687.752">&#160;</text><text fill="#000000" font-family="sans-serif" font-size="14" lengthAdjust="spacing" textLength="53.6963" x="621.124" y="687.752">Storage)</text></g><g class="entity" data-qualified-name="GMN31" data-source-line="64" id="ent0032"><path d="M741.5,250.6094 L741.5,268.6094 L685.21,272.6094 L741.5,276.6094 L741.5,293.3125 A0,0 0 0 0 741.5,293.3125 L936.6543,293.3125 A0,0 0 0 0 936.6543,293.3125 L936.6543,260.6094 L926.6543,250.6094 L741.5,250.6094 A0,0 0 0 0 741.5,250.6094" fill="#FEFFDD" style="stroke:#181818;stroke-width:0.5;"/><path d="M926.6543,250.6094 L926.6543,260.6094 L936.6543,260.6094 L926.6543,250.6094" fill="#FEFFDD" style="stroke:#181818;stroke-width:0.5;"/><text fill="#000000" font-family="sans-serif" font-size="13" lengthAdjust="spacing" textLength="51.3018" x="747.5" y="269.1045">Gateway</text><text fill="#000000" font-family="sans-serif" font-size="13" lengthAdjust="spacing" textLength="3.6118" x="798.8018" y="269.1045">&#160;</text><text fill="#000000" font-family="sans-serif" font-size="13" lengthAdjust="spacing" textLength="44.0781" x="802.4136" y="269.1045">isolates</text><text fill="#000000" font-family="sans-serif" font-size="13" lengthAdjust="spacing" textLength="3.6118" x="846.4917" y="269.1045">&#160;</text><text fill="#000000" font-family="sans-serif" font-size="13" lengthAdjust="spacing" textLength="46.249" x="850.1035" y="269.1045">external</text><text fill="#000000" font-family="sans-serif" font-size="13" lengthAdjust="spacing" textLength="3.6118" x="896.3525" y="269.1045">&#160;</text><text fill="#000000" font-family="sans-serif" font-size="13" lengthAdjust="spacing" textLength="21.6899" x="899.9644" y="269.1045">and</text><text fill="#000000" font-family="sans-serif" font-size="13" lengthAdjust="spacing" textLength="42.6372" x="747.5" y="285.4561">internal</text><text fill="#000000" font-family="sans-serif" font-size="13" lengthAdjust="spacing" textLength="3.6118" x="790.1372" y="285.4561">&#160;</text><text fill="#000000" font-family="sans-serif" font-size="13" lengthAdjust="spacing" textLength="52.019" x="793.749" y="285.4561">networks</text><text fill="#000000" font-family="sans-serif" font-size="13" lengthAdjust="spacing" textLength="3.6118" x="845.7681" y="285.4561">&#160;</text><text fill="#000000" font-family="sans-serif" font-size="13" lengthAdjust="spacing" textLength="54.8818" x="849.3799" y="285.4561">(HTTPS).</text></g><g class="entity" data-qualified-name="GMN34" data-source-line="68" id="ent0035"><path d="M741.5,365.6094 L741.5,441.0156 L956.186,441.0156 L956.186,375.6094 L946.186,365.6094 L741.5,365.6094" fill="#FEFFDD" style="stroke:#181818;stroke-width:0.5;"/><path d="M946.186,365.6094 L946.186,375.6094 L956.186,375.6094 L946.186,365.6094" fill="#FEFFDD" style="stroke:#181818;stroke-width:1;"/><text fill="#000000" font-family="sans-serif" font-size="13" lengthAdjust="spacing" textLength="47.6772" x="747.5" y="384.1045">Triggers</text><text fill="#000000" font-family="sans-serif" font-size="13" lengthAdjust="spacing" textLength="3.6118" x="795.1772" y="384.1045">&#160;</text><text fill="#000000" font-family="sans-serif" font-size="13" lengthAdjust="spacing" textLength="46.249" x="798.7891" y="384.1045">training,</text><text fill="#000000" font-family="sans-serif" font-size="13" lengthAdjust="spacing" textLength="3.6118" x="845.0381" y="384.1045">&#160;</text><text fill="#000000" font-family="sans-serif" font-size="13" lengthAdjust="spacing" textLength="77.3081" x="848.6499" y="384.1045">classification,</text><text fill="#000000" font-family="sans-serif" font-size="13" lengthAdjust="spacing" textLength="96.8271" x="747.5" y="400.4561">recommendation</text><text fill="#000000" font-family="sans-serif" font-size="13" lengthAdjust="spacing" textLength="3.6118" x="844.3271" y="400.4561">&#160;</text><text fill="#000000" font-family="sans-serif" font-size="13" lengthAdjust="spacing" textLength="39.0063" x="847.939" y="400.4561">(daily),</text><text fill="#000000" font-family="sans-serif" font-size="13" lengthAdjust="spacing" textLength="21.6899" x="747.5" y="416.8076">and</text><text fill="#000000" font-family="sans-serif" font-size="13" lengthAdjust="spacing" textLength="3.6118" x="769.1899" y="416.8076">&#160;</text><text fill="#000000" font-family="sans-serif" font-size="13" lengthAdjust="spacing" textLength="65.7681" x="772.8018" y="416.8076">on-demand</text><text fill="#000000" font-family="sans-serif" font-size="13" lengthAdjust="spacing" textLength="3.6118" x="838.5698" y="416.8076">&#160;</text><text fill="#000000" font-family="sans-serif" font-size="13" lengthAdjust="spacing" textLength="61.439" x="842.1816" y="416.8076">generation</text><text fill="#000000" font-family="sans-serif" font-size="13" lengthAdjust="spacing" textLength="3.6118" x="903.6206" y="416.8076">&#160;</text><text fill="#000000" font-family="sans-serif" font-size="13" lengthAdjust="spacing" textLength="33.9536" x="907.2324" y="416.8076">tasks;</text><text fill="#000000" font-family="sans-serif" font-size="13" lengthAdjust="spacing" textLength="36.1182" x="747.5" y="433.1592">retries</text><text fill="#000000" font-family="sans-serif" font-size="13" lengthAdjust="spacing" textLength="3.6118" x="783.6182" y="433.1592">&#160;</text><text fill="#000000" font-family="sans-serif" font-size="13" lengthAdjust="spacing" textLength="21.6899" x="787.23" y="433.1592">and</text><text fill="#000000" font-family="sans-serif" font-size="13" lengthAdjust="spacing" textLength="3.6118" x="808.9199" y="433.1592">&#160;</text><text fill="#000000" font-family="sans-serif" font-size="13" lengthAdjust="spacing" textLength="23.8481" x="812.5317" y="433.1592">logs</text><text fill="#000000" font-family="sans-serif" font-size="13" lengthAdjust="spacing" textLength="3.6118" x="836.3799" y="433.1592">&#160;</text><text fill="#000000" font-family="sans-serif" font-size="13" lengthAdjust="spacing" textLength="45.519" x="839.9917" y="433.1592">failures.</text></g><g class="entity" data-qualified-name="GMN37" data-source-line="73" id="ent0038"><path d="M992,365.6094 L992,441.0156 L1197.958,441.0156 L1197.958,375.6094 L1187.958,365.6094 L992,365.6094" fill="#FEFFDD" style="stroke:#181818;stroke-width:0.5;"/><path d="M1187.958,365.6094 L1187.958,375.6094 L1197.958,375.6094 L1187.958,365.6094" fill="#FEFFDD" style="stroke:#181818;stroke-width:1;"/><text fill="#000000" font-family="sans-serif" font-size="13" lengthAdjust="spacing" textLength="41.1899" x="998" y="384.1045">Online:</text><text fill="#000000" font-family="sans-serif" font-size="13" lengthAdjust="spacing" textLength="3.6118" x="1039.1899" y="384.1045">&#160;</text><text fill="#000000" font-family="sans-serif" font-size="13" lengthAdjust="spacing" textLength="59.6108" x="1042.8018" y="384.1045">midi&#8596;abc,</text><text fill="#000000" font-family="sans-serif" font-size="13" lengthAdjust="spacing" textLength="3.6118" x="1102.4126" y="384.1045">&#160;</text><text fill="#000000" font-family="sans-serif" font-size="13" lengthAdjust="spacing" textLength="33.96" x="1106.0244" y="384.1045">select</text><text fill="#000000" font-family="sans-serif" font-size="13" lengthAdjust="spacing" textLength="3.6118" x="1139.9844" y="384.1045">&#160;</text><text fill="#000000" font-family="sans-serif" font-size="13" lengthAdjust="spacing" textLength="7.23" x="1143.5962" y="384.1045">5</text><text fill="#000000" font-family="sans-serif" font-size="13" lengthAdjust="spacing" textLength="3.6118" x="1150.8262" y="384.1045">&#160;</text><text fill="#000000" font-family="sans-serif" font-size="13" lengthAdjust="spacing" textLength="28.1709" x="1154.438" y="384.1045">track</text><text fill="#000000" font-family="sans-serif" font-size="13" lengthAdjust="spacing" textLength="38.3018" x="998" y="400.4561">seeds,</text><text fill="#000000" font-family="sans-serif" font-size="13" lengthAdjust="spacing" textLength="3.6118" x="1036.3018" y="400.4561">&#160;</text><text fill="#000000" font-family="sans-serif" font-size="13" lengthAdjust="spacing" textLength="51.3208" x="1039.9136" y="400.4561">generate</text><text fill="#000000" font-family="sans-serif" font-size="13" lengthAdjust="spacing" textLength="3.6118" x="1091.2344" y="400.4561">&#160;</text><text fill="#000000" font-family="sans-serif" font-size="13" lengthAdjust="spacing" textLength="35.4009" x="1094.8462" y="400.4561">score.</text><text fill="#000000" font-family="sans-serif" font-size="13" lengthAdjust="spacing" textLength="41.1836" x="998" y="416.8076">Offline:</text><text fill="#000000" font-family="sans-serif" font-size="13" lengthAdjust="spacing" textLength="3.6118" x="1039.1836" y="416.8076">&#160;</text><text fill="#000000" font-family="sans-serif" font-size="13" lengthAdjust="spacing" textLength="48.4072" x="1042.7954" y="416.8076">per-user</text><text fill="#000000" font-family="sans-serif" font-size="13" lengthAdjust="spacing" textLength="3.6118" x="1091.2026" y="416.8076">&#160;</text><text fill="#000000" font-family="sans-serif" font-size="13" lengthAdjust="spacing" textLength="38.2827" x="1094.8145" y="416.8076">GPT-2</text><text fill="#000000" font-family="sans-serif" font-size="13" lengthAdjust="spacing" textLength="3.6118" x="1133.0972" y="416.8076">&#160;</text><text fill="#000000" font-family="sans-serif" font-size="13" lengthAdjust="spacing" textLength="46.249" x="1136.709" y="416.8076">training,</text><text fill="#000000" font-family="sans-serif" font-size="13" lengthAdjust="spacing" textLength="77.3081" x="998" y="433.1592">classification,</text><text fill="#000000" font-family="sans-serif" font-size="13" lengthAdjust="spacing" textLength="3.6118" x="1075.3081" y="433.1592">&#160;</text><text fill="#000000" font-family="sans-serif" font-size="13" lengthAdjust="spacing" textLength="100.439" x="1078.9199" y="433.1592">recommendation.</text></g><!--link Browser to Nginx--><g class="link" data-entity-1="ent0002" data-entity-2="ent0005" data-link-type="dependency" data-source-line="34" id="lnk16"><path d="M618,119.6194 C618,149.9694 618,204.5094 618,239.5394" fill="none" id="Browser-to-Nginx" style="stroke:#0000FF;stroke-width:1;"/><polygon fill="#0000FF" points="618,244.5394,622,235.5394,618,239.5394,614,235.5394,618,244.5394" style="stroke:#0000FF;stroke-width:1;stroke-linejoin:miter;stroke-miterlimit:10;"/><text fill="#000000" font-family="sans-serif" font-size="13" lengthAdjust="spacing" textLength="42.6118" x="575" y="178.5745">HTTPS</text></g><!--link Nginx to Frontend--><g class="link" data-entity-1="ent0005" data-entity-2="ent0007" data-link-type="dependency" data-source-line="35" id="lnk17"><path d="M604.5,299.8894 C604.5,322.1194 604.5,348.1494 604.5,370.3694" fill="none" id="Nginx-to-Frontend" style="stroke:#0000FF;stroke-width:1;"/><polygon fill="#0000FF" points="604.5,375.3694,608.5,366.3694,604.5,370.3694,600.5,366.3694,604.5,375.3694" style="stroke:#0000FF;stroke-width:1;stroke-linejoin:miter;stroke-miterlimit:10;"/><text fill="#000000" font-family="sans-serif" font-size="13" lengthAdjust="spacing" textLength="30.3418" x="527.5" y="334.1245">static</text><text fill="#000000" font-family="sans-serif" font-size="13" lengthAdjust="spacing" textLength="3.6118" x="557.8418" y="334.1245">&#160;</text><text fill="#000000" font-family="sans-serif" font-size="13" lengthAdjust="spacing" textLength="42.6436" x="561.4536" y="334.1245">content</text></g><!--link Nginx to Backend--><g class="link" data-entity-1="ent0005" data-entity-2="ent0008" data-link-type="dependency" data-source-line="36" id="lnk18"><path d="M550.55,272.6094 C506.36,272.6094 456.75,272.6094 456.75,272.6094 C456.75,272.6094 456.75,429.0594 456.75,495.2794" fill="none" id="Nginx-to-Backend" style="stroke:#0000FF;stroke-width:1;"/><polygon fill="#0000FF" points="456.75,500.2794,460.75,491.2794,456.75,495.2794,452.75,491.2794,456.75,500.2794" style="stroke:#0000FF;stroke-width:1;stroke-linejoin:miter;stroke-miterlimit:10;"/><text fill="#000000" font-family="sans-serif" font-size="13" lengthAdjust="spacing" textLength="43.3481" x="292.75" y="336.0445">reverse</text><text fill="#000000" font-family="sans-serif" font-size="13" lengthAdjust="spacing" textLength="3.6118" x="336.0981" y="336.0445">&#160;</text><text fill="#000000" font-family="sans-serif" font-size="13" lengthAdjust="spacing" textLength="31.7891" x="339.71" y="336.0445">proxy</text><text fill="#000000" font-family="sans-serif" font-size="13" lengthAdjust="spacing" textLength="3.6118" x="371.499" y="336.0445">&#160;</text><text fill="#000000" font-family="sans-serif" font-size="13" lengthAdjust="spacing" textLength="80.8818" x="375.1108" y="336.0445">(HTTPS/TCP)</text></g><!--link Frontend to Backend--><g class="link" data-entity-1="ent0007" data-entity-2="ent0008" data-link-type="dependency" data-source-line="39" id="lnk19"><path d="M510.25,430.8494 C510.25,451.5694 510.25,474.7494 510.25,495.4494" fill="none" id="Frontend-to-Backend" style="stroke:#008000;stroke-width:1;"/><polygon fill="#008000" points="510.25,500.4494,514.25,491.4494,510.25,495.4494,506.25,491.4494,510.25,500.4494" style="stroke:#008000;stroke-width:1;stroke-linejoin:miter;stroke-miterlimit:10;"/><text fill="#000000" font-family="sans-serif" font-size="13" lengthAdjust="spacing" textLength="80.8945" x="429.25" y="480.1445">REST/HTTPS</text></g><!--link Backend to DB--><g class="link" data-entity-1="ent0008" data-entity-2="ent0015" data-link-type="dependency" data-source-line="42" id="lnk20"><path d="M544.25,555.8594 C544.25,595.4994 544.25,663.6094 544.25,663.6094 C544.25,663.6094 552.18,663.6094 567.94,663.6094" fill="none" id="Backend-to-DB" style="stroke:#A52A2A;stroke-width:1;"/><polygon fill="#A52A2A" points="572.94,663.6094,563.94,659.6094,567.94,663.6094,563.94,667.6094,572.94,663.6094" style="stroke:#A52A2A;stroke-width:1;stroke-linejoin:miter;stroke-miterlimit:10;"/><text fill="#000000" font-family="sans-serif" font-size="13" lengthAdjust="spacing" textLength="37.5527" x="506.25" y="620.5745">CRUD</text></g><!--link Backend to Etcd--><g class="link" data-entity-1="ent0008" data-entity-2="ent0013" data-link-type="dependency" data-source-line="43" id="lnk21"><path d="M443.38,537.6094 C363.01,537.6094 220.62,537.6094 220.62,537.6094 C220.62,537.6094 220.62,593.8694 220.62,630.9594" fill="none" id="Backend-to-Etcd" style="stroke:#808080;stroke-width:1;"/><polygon fill="#808080" points="220.62,635.9594,224.62,626.9594,220.62,630.9594,216.62,626.9594,220.62,635.9594" style="stroke:#808080;stroke-width:1;stroke-linejoin:miter;stroke-miterlimit:10;"/><text fill="#000000" font-family="sans-serif" font-size="13" lengthAdjust="spacing" textLength="109.1289" x="172.83" y="552.1045">config/coordination</text></g><!--link Scheduler to MQ--><g class="link" data-entity-1="ent0009" data-entity-2="ent0012" data-link-type="dependency" data-source-line="46" id="lnk22"><path d="M258.25,422.5194 C258.25,424.9494 258.25,426.6094 258.25,426.6094 C258.25,426.6094 416.6,426.6094 416.6,426.6094 C416.6,426.6094 416.6,568.4394 416.6,630.9594" fill="none" id="Scheduler-to-MQ" style="stroke:#FFA500;stroke-width:1;"/><polygon fill="#FFA500" points="416.6,635.9594,420.6,626.9594,416.6,630.9594,412.6,626.9594,416.6,635.9594" style="stroke:#FFA500;stroke-width:1;stroke-linejoin:miter;stroke-miterlimit:10;"/><text fill="#000000" font-family="sans-serif" font-size="13" lengthAdjust="spacing" textLength="50.6099" x="256.6" y="446.5545">enqueue</text><text fill="#000000" font-family="sans-serif" font-size="13" lengthAdjust="spacing" textLength="3.6118" x="307.2099" y="446.5545">&#160;</text><text fill="#000000" font-family="sans-serif" font-size="13" lengthAdjust="spacing" textLength="26.7363" x="310.8217" y="446.5545">daily</text><text fill="#000000" font-family="sans-serif" font-size="13" lengthAdjust="spacing" textLength="3.6118" x="337.558" y="446.5545">&#160;</text><text fill="#000000" font-family="sans-serif" font-size="13" lengthAdjust="spacing" textLength="30.3418" x="341.1698" y="446.5545">tasks</text><text fill="#000000" font-family="sans-serif" font-size="13" lengthAdjust="spacing" textLength="3.6118" x="371.5116" y="446.5545">&#160;</text><text fill="#000000" font-family="sans-serif" font-size="13" lengthAdjust="spacing" textLength="41.1899" x="375.1234" y="446.5545">(02:00)</text></g><!--link Scheduler to Backend--><g class="link" data-entity-1="ent0009" data-entity-2="ent0008" data-link-type="dependency" data-source-line="47" id="lnk23"><path d="M240.75,422.3494 C240.75,455.4394 240.75,519.6094 240.75,519.6094 C240.75,519.6094 363.14,519.6094 438.28,519.6094" fill="none" id="Scheduler-to-Backend" style="stroke:#008080;stroke-width:1;"/><polygon fill="#008080" points="443.28,519.6094,434.28,515.6094,438.28,519.6094,434.28,523.6094,443.28,519.6094" style="stroke:#008080;stroke-width:1;stroke-linejoin:miter;stroke-miterlimit:10;"/><text fill="#000000" font-family="sans-serif" font-size="13" lengthAdjust="spacing" textLength="20.2363" x="207.38" y="516.1045">poll</text><text fill="#000000" font-family="sans-serif" font-size="13" lengthAdjust="spacing" textLength="3.6118" x="227.6163" y="516.1045">&#160;</text><text fill="#000000" font-family="sans-serif" font-size="13" lengthAdjust="spacing" textLength="23.8418" x="231.2281" y="516.1045">task</text><text fill="#000000" font-family="sans-serif" font-size="13" lengthAdjust="spacing" textLength="3.6118" x="255.0699" y="516.1045">&#160;</text><text fill="#000000" font-family="sans-serif" font-size="13" lengthAdjust="spacing" textLength="34.6836" x="258.6818" y="516.1045">status</text></g><!--link Scheduler to Etcd--><g class="link" data-entity-1="ent0009" data-entity-2="ent0013" data-link-type="dependency" data-source-line="48" id="lnk24"><path d="M197.88,422.2694 C197.88,467.8494 197.88,577.9494 197.88,631.0194" fill="none" id="Scheduler-to-Etcd" style="stroke:#808080;stroke-width:1;"/><polygon fill="#808080" points="197.88,636.0194,201.88,627.0194,197.88,631.0194,193.88,627.0194,197.88,636.0194" style="stroke:#808080;stroke-width:1;stroke-linejoin:miter;stroke-miterlimit:10;"/><text fill="#000000" font-family="sans-serif" font-size="13" lengthAdjust="spacing" textLength="109.1289" x="87.88" y="525.6345">config/coordination</text></g><!--link Backend to MQ--><g class="link" data-entity-1="ent0008" data-entity-2="ent0012" data-link-type="dependency" data-source-line="51" id="lnk25"><path d="M475,555.8594 C475,579.2394 475,607.5294 475,630.8994" fill="none" id="Backend-to-MQ" style="stroke:#FFA500;stroke-width:1;"/><polygon fill="#FFA500" points="475,635.8994,479,626.8994,475,630.8994,471,626.8994,475,635.8994" style="stroke:#FFA500;stroke-width:1;stroke-linejoin:miter;stroke-miterlimit:10;"/><text fill="#000000" font-family="sans-serif" font-size="13" lengthAdjust="spacing" textLength="50.6099" x="325" y="592.3745">enqueue</text><text fill="#000000" font-family="sans-serif" font-size="13" lengthAdjust="spacing" textLength="3.6118" x="375.6099" y="592.3745">&#160;</text><text fill="#000000" font-family="sans-serif" font-size="13" lengthAdjust="spacing" textLength="61.439" x="379.2217" y="592.3745">generation</text><text fill="#000000" font-family="sans-serif" font-size="13" lengthAdjust="spacing" textLength="3.6118" x="440.6606" y="592.3745">&#160;</text><text fill="#000000" font-family="sans-serif" font-size="13" lengthAdjust="spacing" textLength="30.3418" x="444.2725" y="592.3745">tasks</text></g><!--link MQ to Backend--><g class="link" data-entity-1="ent0012" data-entity-2="ent0008" data-link-type="dependency" data-source-line="60" id="lnk30"><path d="M506.5,635.8594 C506.5,612.4794 506.5,584.1894 506.5,560.8194" fill="none" id="MQ-to-Backend" style="stroke:#FFA500;stroke-width:1;"/><polygon fill="#FFA500" points="506.5,555.8194,502.5,564.8194,506.5,560.8194,510.5,564.8194,506.5,555.8194" style="stroke:#FFA500;stroke-width:1;stroke-linejoin:miter;stroke-miterlimit:10;"/><text fill="#000000" font-family="sans-serif" font-size="13" lengthAdjust="spacing" textLength="23.8418" x="507.5" y="592.3345">task</text><text fill="#000000" font-family="sans-serif" font-size="13" lengthAdjust="spacing" textLength="3.6118" x="531.3418" y="592.3345">&#160;</text><text fill="#000000" font-family="sans-serif" font-size="13" lengthAdjust="spacing" textLength="34.6836" x="534.9536" y="592.3345">status</text><text fill="#000000" font-family="sans-serif" font-size="13" lengthAdjust="spacing" textLength="3.6118" x="569.6372" y="592.3345">&#160;</text><text fill="#000000" font-family="sans-serif" font-size="13" lengthAdjust="spacing" textLength="38.3018" x="573.249" y="592.3345">events</text></g><!--link Algo to MQ--><g class="link" data-entity-1="ent0010" data-entity-2="ent0012" data-link-type="dependency" data-source-line="54" id="lnk26"><path d="M421.2,422.2694 C421.2,467.8494 421.2,577.9494 421.2,631.0194" fill="none" id="Algo-to-MQ" style="stroke:#FFA500;stroke-width:1;"/><polygon fill="#FFA500" points="421.2,636.0194,425.2,627.0194,421.2,631.0194,417.2,627.0194,421.2,636.0194" style="stroke:#FFA500;stroke-width:1;stroke-linejoin:miter;stroke-miterlimit:10;"/><text fill="#000000" font-family="sans-serif" font-size="13" lengthAdjust="spacing" textLength="52.749" x="243.2" y="543.6345">consume</text><text fill="#000000" font-family="sans-serif" font-size="13" lengthAdjust="spacing" textLength="3.6118" x="295.949" y="543.6345">&#160;</text><text fill="#000000" font-family="sans-serif" font-size="13" lengthAdjust="spacing" textLength="30.3418" x="299.5608" y="543.6345">tasks</text><text fill="#000000" font-family="sans-serif" font-size="13" lengthAdjust="spacing" textLength="3.6118" x="329.9026" y="543.6345">&#160;</text><text fill="#000000" font-family="sans-serif" font-size="13" lengthAdjust="spacing" textLength="3.6118" x="333.5145" y="543.6345">/</text><text fill="#000000" font-family="sans-serif" font-size="13" lengthAdjust="spacing" textLength="3.6118" x="337.1263" y="543.6345">&#160;</text><text fill="#000000" font-family="sans-serif" font-size="13" lengthAdjust="spacing" textLength="41.1963" x="340.7381" y="543.6345">publish</text><text fill="#000000" font-family="sans-serif" font-size="13" lengthAdjust="spacing" textLength="3.6118" x="381.9344" y="543.6345">&#160;</text><text fill="#000000" font-family="sans-serif" font-size="13" lengthAdjust="spacing" textLength="34.6836" x="385.5462" y="543.6345">status</text></g><!--link Algo to DB--><g class="link" data-entity-1="ent0010" data-entity-2="ent0015" data-link-type="dependency" data-source-line="55" id="lnk27"><path d="M430.4,422.3894 C430.4,429.3894 430.4,435.6094 430.4,435.6094 C430.4,435.6094 615.5,435.6094 615.5,435.6094 C615.5,435.6094 615.5,563.5794 615.5,626.4294" fill="none" id="Algo-to-DB" style="stroke:#A52A2A;stroke-width:1;"/><polygon fill="#A52A2A" points="615.5,631.4294,619.5,622.4294,615.5,626.4294,611.5,622.4294,615.5,631.4294" style="stroke:#A52A2A;stroke-width:1;stroke-linejoin:miter;stroke-miterlimit:10;"/><text fill="#000000" font-family="sans-serif" font-size="13" lengthAdjust="spacing" textLength="186.4243" x="427.25" y="450.1045">models/labels/recommendations</text></g><!--link Algo to Hadoop--><g class="link" data-entity-1="ent0010" data-entity-2="ent0014" data-link-type="dependency" data-source-line="56" id="lnk28"><path d="M353,422.2694 C353,467.8494 353,577.9494 353,631.0194" fill="none" id="Algo-to-Hadoop" style="stroke:#800080;stroke-width:1;"/><polygon fill="#800080" points="353,636.0194,357,627.0194,353,631.0194,349,627.0194,353,636.0194" style="stroke:#800080;stroke-width:1;stroke-linejoin:miter;stroke-miterlimit:10;"/><text fill="#000000" font-family="sans-serif" font-size="13" lengthAdjust="spacing" textLength="119.9453" x="183" y="525.6345">training/classification</text><text fill="#000000" font-family="sans-serif" font-size="13" lengthAdjust="spacing" textLength="3.6118" x="302.9453" y="525.6345">&#160;</text><text fill="#000000" font-family="sans-serif" font-size="13" lengthAdjust="spacing" textLength="25.3018" x="306.5571" y="525.6345">data</text><text fill="#000000" font-family="sans-serif" font-size="13" lengthAdjust="spacing" textLength="3.6118" x="331.8589" y="525.6345">&#160;</text><text fill="#000000" font-family="sans-serif" font-size="13" lengthAdjust="spacing" textLength="17.3354" x="335.4707" y="525.6345">I/O</text></g><!--link Algo to Etcd--><g class="link" data-entity-1="ent0010" data-entity-2="ent0013" data-link-type="dependency" data-source-line="57" id="lnk29"><path d="M329,422.5194 C329,430.8094 329,438.6094 329,438.6094 C329,438.6094 209.25,438.6094 209.25,438.6094 C209.25,438.6094 209.25,570.9394 209.25,631.0194" fill="none" id="Algo-to-Etcd" style="stroke:#808080;stroke-width:1;"/><polygon fill="#808080" points="209.25,636.0194,213.25,627.0194,209.25,631.0194,205.25,627.0194,209.25,636.0194" style="stroke:#808080;stroke-width:1;stroke-linejoin:miter;stroke-miterlimit:10;"/><text fill="#000000" font-family="sans-serif" font-size="13" lengthAdjust="spacing" textLength="109.1289" x="99.25" y="465.8945">config/coordination</text></g><!--link Scheduler to GMN34--><g class="link" data-entity-1="ent0009" data-entity-2="ent0035" data-link-type="association" data-source-line="68" id="lnk36"><path d="M249.5,422.2494 C249.5,428.3794 249.5,433.6094 249.5,433.6094 C249.5,433.6094 568.96,433.6094 741.48,433.6094" fill="none" id="Scheduler-GMN34" style="stroke:#181818;stroke-width:1;stroke-dasharray:7,7;"/></g><!--link Algo to GMN37--><g class="link" data-entity-1="ent0010" data-entity-2="ent0038" data-link-type="association" data-source-line="73" id="lnk39"><path d="M425.8,422.2694 C425.8,442.2294 425.8,470.6094 425.8,470.6094 C425.8,470.6094 1095,470.6094 1095,470.6094 C1095,470.6094 1095,456.2694 1095,440.8094" fill="none" id="Algo-GMN37" style="stroke:#181818;stroke-width:1;stroke-dasharray:7,7;"/></g><?plantuml-src ZLRRRXit47tVhnYu3x40IIkh3f2wG05T72L5v8jMJT3R0yKThGXJv8RaMXQAlEOB-eNzaWx9NTsS07xIafmpS-RCSAXNCDYWrMkSLbPmw42sjGxNC31y9HnoLnbCx8DG9JDi3LolIwrGkSnj9O8X0wOAUMWYXKAtBH6qSIjzS61NBDSReGfOCcaF8Hl3oayYToleztf9ueGZto_WbUpYmzdraqEZc3m3Pg5Pm3y9x3d3sT3eZKKJREhlv4kIA9sJXuzJ6CcAeXWuluIFKziATisUTxKajcGvdlu1ALpd1GOBl_IdHw5k2g6UuA9xyLFtpL_g_DryVfV1X3dSi6rq72m8HWG0IiOVM46-1sKf1MTEQ0KVsBOcIxlFGtp21RmrMZbKUGWn_P2EiYpzDMl3K6jd7UaQOpLctt8nfD3HmqHBKhCD4w4Yh3uwHMLyXNabQswxrQdPG1RQ2BTQGuRcKV2ebjzzblLxHT8ItoeKzY3nSF0yzHbRB8IRtiEFtJVTYqlYFcVs0Uuhh31IdzwVOj3ndEmlknUloNwarL8KQSqCPbW8Yb-NvffCJ-7lg7jrIGxwtRvNU_msItyVp6uY8fu6JCuSMp3h-wJ-8dF_2PdJXjADYF4mg40wlDhtA-CShGMcSYXYhoHrdqBdpnyMiiA_Ex_4pe4h24sLnDN1SLDiih2EEebJ6dx3FJUj2qoM1X_H4EdIwASjn7vDvwExbkVNUEmiQdj1IyEuxz9a5uxy5WPH7JkUNMVpD38bJys-5ocaAKA1Sonf5nKNQ9F6nlEav8E_yP1SZMQ_ZGzF2yEs_j2NYuvvB2dNskH2XIlaGzRzwGUF3_ZPzuXDTbth7L5PL144ePQw0bJ1Y4WAkGL7dMNXlDU_wlLQnpY7J1vdMsef0o98Nvt4UHdX2IeIDqm0WyJ4EWkFWaNcX_b_XtQnnmVktkV-BcwqUQ1A--2secaMq_FAKEdpYlkfRYlfRE8ntmXp34oXh1PIs5MJS8CwBjsQHgoqgMGB_qDpMw_Nb4LWkSUKbIbbY5JVjYkW6IOKrIxbabahbiri30tqFhtTOL-cxMtfl-YcHRPGbUG8exwKdUzlS1hgFazewqY0VQ4FQWnqTPGBCjzeSaRlYICLHR5oe9UxELyFVn2MngoFYRjRtzmelw3NqvV8rdUmrKryGEyoEN5yE7Zdj5luiZPwjU5Oi3OSYmxdeRjRRGBx-5frSbo7mNFIFZyJqXcwcC5EwiBI0ouapMdxVMxrbBzL_ky0bL_auh-l_x85RuD5ISyslFPKIMsBcDjs4nN1Scsmwx7BPGINQ3gL7u6Jktcd_-8C3yZz3m00?></g></svg>