<svg xmlns="http://www.w3.org/2000/svg" xmlns:xlink="http://www.w3.org/1999/xlink" contentStyleType="text/css" data-diagram-type="DESCRIPTION" height="758px" preserveAspectRatio="none" style="width:4020px;height:758px;background:#FFFFFF;" version="1.1" viewBox="0 0 4020 758" width="4020px" zoomAndPan="magnify"><?plantuml 1.2026.6?><defs/><g><g class="title" data-source-line="1"><text fill="#000000" font-family="sans-serif" font-size="14" font-weight="700" lengthAdjust="spacing" textLength="266.0752" x="1873.5071" y="24.5332">EIVAS - High-Level System Architecture</text></g><!--cluster FE--><g class="cluster" data-qualified-name="FE" data-source-line="10" id="ent0003"><rect fill="none" height="228" rx="2.5" ry="2.5" style="stroke:#181818;stroke-width:1;" width="908" x="884" y="233.1094"/><text fill="#000000" font-family="sans-serif" font-size="14" font-weight="700" lengthAdjust="spacing" textLength="163.3311" x="1256.3345" y="249.6426">Web Frontend (Browser)</text></g><!--cluster BE--><g class="cluster" data-qualified-name="BE" data-source-line="19" id="ent0010"><rect fill="none" height="373.5" rx="2.5" ry="2.5" style="stroke:#181818;stroke-width:1;" width="775" x="1816" y="371.1094"/><text fill="#000000" font-family="sans-serif" font-size="14" font-weight="700" lengthAdjust="spacing" textLength="168.8682" x="2119.0659" y="387.6426">Backend APIs &amp; Services</text></g><!--cluster ALG--><g class="cluster" data-qualified-name="ALG" data-source-line="29" id="ent0018"><rect fill="none" height="90" rx="2.5" ry="2.5" style="stroke:#181818;stroke-width:1;" width="319" x="2973" y="654.6094"/><text fill="#000000" font-family="sans-serif" font-size="14" font-weight="700" lengthAdjust="spacing" textLength="118.9863" x="3073.0068" y="671.1426">Algorithm Module</text></g><!--cluster Reliability & Deployment--><g class="cluster" data-qualified-name="Reliability . Deployment" data-source-line="37" id="ent0023"><rect fill="none" height="100" rx="2.5" ry="2.5" style="stroke:#181818;stroke-width:1;" width="893" x="7" y="45.6094"/><text fill="#000000" font-family="sans-serif" font-size="14" font-weight="700" lengthAdjust="spacing" textLength="164.1445" x="371.4277" y="62.1426">Reliability &amp; Deployment</text></g><!--entity FE_Report--><g class="entity" data-qualified-name="FE.FE_Report" data-source-line="11" id="ent0004"><rect fill="#F1F1F1" height="37.6094" rx="2.5" ry="2.5" style="stroke:#181818;stroke-width:0.5;" width="135.1445" x="900.5" y="269.1094"/><text fill="#000000" font-family="sans-serif" font-size="14" lengthAdjust="spacing" textLength="115.1445" x="910.5" y="293.6426">Reporting Form UI</text></g><!--entity FE_Case--><g class="entity" data-qualified-name="FE.FE_Case" data-source-line="12" id="ent0005"><rect fill="#F1F1F1" height="37.6094" rx="2.5" ry="2.5" style="stroke:#181818;stroke-width:0.5;" width="156.1787" x="1071" y="269.1094"/><text fill="#000000" font-family="sans-serif" font-size="14" lengthAdjust="spacing" textLength="136.1787" x="1081" y="293.6426">Case Management UI</text></g><!--entity FE_Map--><g class="entity" data-qualified-name="FE.FE_Map" data-source-line="13" id="ent0006"><rect fill="#F1F1F1" height="37.6094" rx="2.5" ry="2.5" style="stroke:#181818;stroke-width:0.5;" width="132.8135" x="1262.5" y="269.1094"/><text fill="#000000" font-family="sans-serif" font-size="14" lengthAdjust="spacing" textLength="112.8135" x="1272.5" y="293.6426">Itinerary &amp; Map UI</text></g><!--entity FE_Graph--><g class="entity" data-qualified-name="FE.FE_Graph" data-source-line="14" id="ent0007"><rect fill="#F1F1F1" height="37.6094" rx="2.5" ry="2.5" style="stroke:#181818;stroke-width:0.5;" width="165.5098" x="1431" y="269.1094"/><text fill="#000000" font-family="sans-serif" font-size="14" lengthAdjust="spacing" textLength="145.5098" x="1441" y="293.6426">Association &amp; Graph UI</text></g><!--entity FE_Stats--><g class="entity" data-qualified-name="FE.FE_Stats" data-source-line="15" id="ent0008"><rect fill="#F1F1F1" height="37.6094" rx="2.5" ry="2.5" style="stroke:#181818;stroke-width:0.5;" width="142.9238" x="1632.5" y="269.1094"/><text fill="#000000" font-family="sans-serif" font-size="14" lengthAdjust="spacing" textLength="122.9238" x="1642.5" y="293.6426">Statistical Charts UI</text></g><!--entity FE_MapSDK--><g class="entity" data-qualified-name="FE.FE_MapSDK" data-source-line="16" id="ent0009"><rect fill="#F1F1F1" height="37.6094" rx="2.5" ry="2.5" style="stroke:#181818;stroke-width:0.5;" width="162.3994" x="1248" y="407.1094"/><text fill="#000000" font-family="sans-serif" font-size="14" lengthAdjust="spacing" textLength="142.3994" x="1258" y="431.6426">Map Visualization SDK</text></g><!--entity APIGW--><g class="entity" data-qualified-name="BE.APIGW" data-source-line="20" id="ent0011"><rect fill="#F1F1F1" height="37.6094" rx="2.5" ry="2.5" style="stroke:#181818;stroke-width:0.5;" width="187.2822" x="1832.5" y="407.1094"/><text fill="#000000" font-family="sans-serif" font-size="14" lengthAdjust="spacing" textLength="167.2822" x="1842.5" y="431.6426">API Gateway / Web Server</text></g><!--entity RateLimiter--><g class="entity" data-qualified-name="BE.RateLimiter" data-source-line="21" id="ent0012"><rect fill="#F1F1F1" height="55.2188" rx="2.5" ry="2.5" style="stroke:#181818;stroke-width:0.5;" width="108.7031" x="1832.5" y="530.6094"/><text fill="#000000" font-family="sans-serif" font-size="14" lengthAdjust="spacing" textLength="75.4688" x="1842.5" y="555.1426">Rate Limiter</text><text fill="#000000" font-family="sans-serif" font-size="14" lengthAdjust="spacing" textLength="88.7031" x="1842.5" y="572.752">(IP Cooldown)</text></g><!--entity CaseSvc--><g class="entity" data-qualified-name="BE.CaseSvc" data-source-line="22" id="ent0013"><rect fill="#F1F1F1" height="37.6094" rx="2.5" ry="2.5" style="stroke:#181818;stroke-width:0.5;" width="103.2549" x="2138.5" y="539.1094"/><text fill="#000000" font-family="sans-serif" font-size="14" lengthAdjust="spacing" textLength="83.2549" x="2148.5" y="563.6426">Case Service</text></g><!--entity ItinSvc--><g class="entity" data-qualified-name="BE.ItinSvc" data-source-line="23" id="ent0014"><rect fill="#F1F1F1" height="37.6094" rx="2.5" ry="2.5" style="stroke:#181818;stroke-width:0.5;" width="121.1445" x="2276.5" y="539.1094"/><text fill="#000000" font-family="sans-serif" font-size="14" lengthAdjust="spacing" textLength="101.1445" x="2286.5" y="563.6426">Itinerary Service</text></g><!--entity AssocSvc--><g class="entity" data-qualified-name="BE.AssocSvc" data-source-line="24" id="ent0015"><rect fill="#F1F1F1" height="37.6094" rx="2.5" ry="2.5" style="stroke:#181818;stroke-width:0.5;" width="142.165" x="2433" y="539.1094"/><text fill="#000000" font-family="sans-serif" font-size="14" lengthAdjust="spacing" textLength="122.165" x="2443" y="563.6426">Association Service</text></g><!--entity AnalyticSvc--><g class="entity" data-qualified-name="BE.AnalyticSvc" data-source-line="25" id="ent0016"><rect fill="#F1F1F1" height="37.6094" rx="2.5" ry="2.5" style="stroke:#181818;stroke-width:0.5;" width="126.5928" x="1976.5" y="539.1094"/><text fill="#000000" font-family="sans-serif" font-size="14" lengthAdjust="spacing" textLength="106.5928" x="1986.5" y="563.6426">Analytics Service</text></g><!--entity DQ--><g class="entity" data-qualified-name="BE.DQ" data-source-line="26" id="ent0017"><rect fill="#F1F1F1" height="37.6094" rx="2.5" ry="2.5" style="stroke:#181818;stroke-width:0.5;" width="153.0547" x="1902.5" y="690.6094"/><text fill="#000000" font-family="sans-serif" font-size="14" lengthAdjust="spacing" textLength="133.0547" x="1912.5" y="715.1426">Data Quality Checker</text></g><!--entity RiskCalc--><g class="entity" data-qualified-name="ALG.RiskCalc" data-source-line="30" id="ent0019"><rect fill="#F1F1F1" height="37.6094" rx="2.5" ry="2.5" style="stroke:#181818;stroke-width:0.5;" width="120.3721" x="3156" y="690.6094"/><text fill="#000000" font-family="sans-serif" font-size="14" lengthAdjust="spacing" textLength="100.3721" x="3166" y="715.1426">Risk Calculation</text></g><!--entity ClusterEng--><g class="entity" data-qualified-name="ALG.ClusterEng" data-source-line="31" id="ent0020"><rect fill="#F1F1F1" height="37.6094" rx="2.5" ry="2.5" style="stroke:#181818;stroke-width:0.5;" width="130.5098" x="2989.5" y="690.6094"/><text fill="#000000" font-family="sans-serif" font-size="14" lengthAdjust="spacing" textLength="110.5098" x="2999.5" y="715.1426">Clustering Engine</text></g><!--entity Primary--><g class="entity" data-qualified-name="Reliability . Deployment.Primary" data-source-line="38" id="ent0024"><polygon fill="#F1F1F1" points="190,91.6094,200,81.6094,381.7168,81.6094,381.7168,119.2188,371.7168,129.2188,190,129.2188,190,91.6094" style="stroke:#181818;stroke-width:0.5;stroke-linejoin:miter;stroke-miterlimit:10;"/><line style="stroke:#181818;stroke-width:0.5;" x1="371.7168" x2="381.7168" y1="91.6094" y2="81.6094"/><line style="stroke:#181818;stroke-width:0.5;" x1="190" x2="371.7168" y1="91.6094" y2="91.6094"/><line style="stroke:#181818;stroke-width:0.5;" x1="371.7168" x2="371.7168" y1="91.6094" y2="129.2188"/><text fill="#000000" font-family="sans-serif" font-size="14" lengthAdjust="spacing" textLength="151.7168" x="205" y="116.1426">Primary Backend Server</text></g><!--entity Backup--><g class="entity" data-qualified-name="Reliability . Deployment.Backup" data-source-line="39" id="ent0025"><polygon fill="#F1F1F1" points="23,91.6094,33,81.6094,154.8203,81.6094,154.8203,119.2188,144.8203,129.2188,23,129.2188,23,91.6094" style="stroke:#181818;stroke-width:0.5;stroke-linejoin:miter;stroke-miterlimit:10;"/><line style="stroke:#181818;stroke-width:0.5;" x1="144.8203" x2="154.8203" y1="91.6094" y2="81.6094"/><line style="stroke:#181818;stroke-width:0.5;" x1="23" x2="144.8203" y1="91.6094" y2="91.6094"/><line style="stroke:#181818;stroke-width:0.5;" x1="144.8203" x2="144.8203" y1="91.6094" y2="129.2188"/><text fill="#000000" font-family="sans-serif" font-size="14" lengthAdjust="spacing" textLength="91.8203" x="38" y="116.1426">Backup Server</text></g><!--entity Failover--><g class="entity" data-qualified-name="Reliability . Deployment.Failover" data-source-line="40" id="ent0026"><rect fill="#F1F1F1" height="37.6094" rx="2.5" ry="2.5" style="stroke:#181818;stroke-width:0.5;" width="134.3721" x="417" y="86.6094"/><text fill="#000000" font-family="sans-serif" font-size="14" lengthAdjust="spacing" textLength="114.3721" x="427" y="111.1426">Failover Controller</text></g><g class="entity" data-qualified-name="Reliability . Deployment.GMN27" data-source-line="42" id="ent0028"><path d="M586,84.1094 L586,101.6094 L551.16,105.6094 L586,109.6094 L586,126.8125 A0,0 0 0 0 586,126.8125 L884.4561,126.8125 A0,0 0 0 0 884.4561,126.8125 L884.4561,94.1094 L874.4561,84.1094 L586,84.1094 A0,0 0 0 0 586,84.1094" fill="#FEFFDD" style="stroke:#181818;stroke-width:0.5;"/><path d="M874.4561,84.1094 L874.4561,94.1094 L884.4561,94.1094 L874.4561,84.1094" fill="#FEFFDD" style="stroke:#181818;stroke-width:0.5;"/><text fill="#000000" font-family="sans-serif" font-size="13" lengthAdjust="spacing" textLength="277.4561" x="592" y="102.6045">System shall switch to backup within 20 minutes</text><text fill="#000000" font-family="sans-serif" font-size="13" lengthAdjust="spacing" textLength="104.0254" x="592" y="118.9561">(NFR-003, C-005)</text></g><!--entity Filler--><g class="entity" data-qualified-name="Filler" data-source-line="7" id="ent0001"><ellipse cx="968.0273" cy="66.6094" fill="#F1F1F1" rx="8" ry="8" style="stroke:#181818;stroke-width:0.5;"/><path d="M968.0273,74.6094 L968.0273,101.6094 M955.0273,82.6094 L981.0273,82.6094 M968.0273,101.6094 L955.0273,116.6094 M968.0273,101.6094 L981.0273,116.6094" fill="none" style="stroke:#181818;stroke-width:0.5;"/><text fill="#000000" font-family="sans-serif" font-size="14" lengthAdjust="spacing" textLength="98.0547" x="919" y="132.6426">Epidemiological</text><text fill="#000000" font-family="sans-serif" font-size="14" lengthAdjust="spacing" textLength="66.8828" x="919" y="150.252">Form Filler</text></g><!--entity Analyst--><g class="entity" data-qualified-name="Analyst" data-source-line="8" id="ent0002"><ellipse cx="1422.0273" cy="66.6094" fill="#F1F1F1" rx="8" ry="8" style="stroke:#181818;stroke-width:0.5;"/><path d="M1422.0273,74.6094 L1422.0273,101.6094 M1409.0273,82.6094 L1435.0273,82.6094 M1422.0273,101.6094 L1409.0273,116.6094 M1422.0273,101.6094 L1435.0273,116.6094" fill="none" style="stroke:#181818;stroke-width:0.5;"/><text fill="#000000" font-family="sans-serif" font-size="14" lengthAdjust="spacing" textLength="98.0547" x="1373" y="132.6426">Epidemiological</text><text fill="#000000" font-family="sans-serif" font-size="14" lengthAdjust="spacing" textLength="45.9102" x="1373" y="150.252">Analyst</text></g><!--entity DB--><g class="entity" data-qualified-name="DB" data-source-line="34" id="ent0021"><path d="M2607.5,696.1094 C2607.5,686.1094 2670.0308,686.1094 2670.0308,686.1094 C2670.0308,686.1094 2732.5615,686.1094 2732.5615,696.1094 L2732.5615,722.7188 C2732.5615,732.7188 2670.0308,732.7188 2670.0308,732.7188 C2670.0308,732.7188 2607.5,732.7188 2607.5,722.7188 L2607.5,696.1094" fill="#F1F1F1" style="stroke:#181818;stroke-width:0.5;"/><path d="M2607.5,696.1094 C2607.5,706.1094 2670.0308,706.1094 2670.0308,706.1094 C2670.0308,706.1094 2732.5615,706.1094 2732.5615,696.1094" fill="none" style="stroke:#181818;stroke-width:0.5;"/><text fill="#000000" font-family="sans-serif" font-size="14" lengthAdjust="spacing" textLength="105.0615" x="2617.5" y="724.6426">EIVAS Database</text></g><!--entity MapSvc--><g class="entity" data-qualified-name="MapSvc" data-source-line="35" id="ent0022"><path d="M1268.2548,533.8595 C1270.8248,527.5683 1276.3701,527.0589 1280.7933,531.7423 C1283.9588,525.405 1287.5558,524.6701 1292.333,530.1713 C1295.2022,524.2237 1300.9273,522.1792 1305.5479,528.2447 C1308.4718,522.5566 1314.0879,521.7748 1317.8335,527.3484 C1320.723,520.9252 1324.7237,520.2827 1329.4867,525.4678 C1334.3389,519.9833 1339.0378,520.1417 1342.2381,527.1535 C1347.0308,521.1981 1352.5992,523.0374 1355.5458,529.1835 C1360.1543,522.6566 1365.7092,523.3477 1368.7646,530.6663 C1373.8217,526.1914 1378.1862,526.474 1380.2259,533.6377 C1383.6442,528.5378 1388.9881,528.5762 1392.3101,533.7508 C1400.5731,536.2062 1401.5382,540.7233 1396.4335,547.2591 C1402.5932,549.2241 1403.9165,555.0138 1399.6056,559.6576 C1404.6875,565.3393 1402.1797,570.036 1395.2453,571.1641 C1400.2391,577.0956 1398.3584,581.5649 1391.5654,584.1585 C1388.4376,589.4422 1385.1008,590.875 1380.5544,585.644 C1378.1015,592.9929 1373.0628,594.3194 1367.6882,588.4985 C1364.1833,595.7618 1358.7587,595.5132 1354.7347,588.9862 C1352.3585,596.085 1346.9074,596.9806 1342.1723,591.3061 C1338.8106,596.9373 1334.6085,596.9272 1330.3761,592.3082 C1325.3954,598.6881 1319.6481,596.8557 1316.8314,590.0801 C1313.4125,594.7528 1309.2841,593.9423 1306.4483,589.4215 C1302.1054,594.087 1295.5215,593.4757 1293.5755,586.72 C1289.5675,592.8902 1283.9792,590.9239 1281.0441,585.5549 C1275.8362,591.3157 1271.4722,591.0534 1267.9055,583.8869 C1262.4261,581.2957 1260.8044,576.9558 1265.797,572.4364 C1258.7759,569.5717 1256.8212,562.9141 1264.122,558.3468 C1260.2965,553.5901 1261.2684,550.1913 1266.5904,547.5203 C1261.2437,543.0497 1261.0766,536.8041 1268.2548,533.8595" fill="#F1F1F1" style="stroke:#181818;stroke-width:0.5;"/><text fill="#000000" font-family="sans-serif" font-size="14" lengthAdjust="spacing" textLength="77.8066" x="1274" y="555.1426">Map Service</text><text fill="#000000" font-family="sans-serif" font-size="14" lengthAdjust="spacing" textLength="110.4893" x="1274" y="572.752">(Tiles/Geocoding)</text></g><g class="entity" data-qualified-name="GMN41" data-source-line="64" id="ent0042"><path d="M3472,404.6094 L3472,447.3125 L3769.7515,447.3125 L3769.7515,414.6094 L3759.7515,404.6094 L3472,404.6094" fill="#FEFFDD" style="stroke:#181818;stroke-width:0.5;"/><path d="M3759.7515,404.6094 L3759.7515,414.6094 L3769.7515,414.6094 L3759.7515,404.6094" fill="#FEFFDD" style="stroke:#181818;stroke-width:1;"/><text fill="#000000" font-family="sans-serif" font-size="13" lengthAdjust="spacing" textLength="276.7515" x="3478" y="423.1045">Personal-information queries must be encrypted</text><text fill="#000000" font-family="sans-serif" font-size="13" lengthAdjust="spacing" textLength="61.3945" x="3478" y="439.4561">(NFR-004)</text></g><g class="entity" data-qualified-name="GMN62" data-source-line="97" id="ent0063"><path d="M3394.5,536.6094 L3394.5,579.3125 L4005.0894,579.3125 L4005.0894,546.6094 L3995.0894,536.6094 L3394.5,536.6094" fill="#FEFFDD" style="stroke:#181818;stroke-width:0.5;"/><path d="M3995.0894,536.6094 L3995.0894,546.6094 L4005.0894,546.6094 L3995.0894,536.6094" fill="#FEFFDD" style="stroke:#181818;stroke-width:1;"/><text fill="#000000" font-family="sans-serif" font-size="13" lengthAdjust="spacing" textLength="410.395" x="3400.5" y="555.1045">Web application; supports various OS and browsers (C-001, NFR-006).</text><text fill="#000000" font-family="sans-serif" font-size="13" lengthAdjust="spacing" textLength="589.5894" x="3400.5" y="571.4561">Interfaces target professional epidemiological workers; concise and clear (C-006, NFR-008, NFR-009).</text></g><!--link Filler to FE_Report--><g class="link" data-entity-1="ent0001" data-entity-2="ent0004" data-link-type="dependency" data-source-line="48" id="lnk30"><path d="M968,153.5594 C968,191.1694 968,236.9094 968,263.7294" fill="none" id="Filler-to-FE_Report" style="stroke:#181818;stroke-width:1;"/><polygon fill="#181818" points="968,268.7294,972,259.7294,968,263.7294,964,259.7294,968,268.7294" style="stroke:#181818;stroke-width:1;stroke-linejoin:miter;stroke-miterlimit:10;"/><text fill="#000000" font-family="sans-serif" font-size="13" lengthAdjust="spacing" textLength="135.8652" x="969" y="205.6045">Enter investigation data</text></g><!--link Analyst to FE_Case--><g class="link" data-entity-1="ent0002" data-entity-2="ent0005" data-link-type="dependency" data-source-line="49" id="lnk31"><path d="M1372.9,114.5994 C1326.84,124.1994 1258.16,144.1494 1211,183.1094 C1182.8,206.4094 1166.1029,241.4196 1157.1429,264.4496" fill="none" id="Analyst-to-FE_Case" style="stroke:#181818;stroke-width:1;"/><polygon fill="#181818" points="1155.33,269.1094,1162.3211,262.1721,1157.1429,264.4496,1154.8654,259.2715,1155.33,269.1094" style="stroke:#181818;stroke-width:1;stroke-linejoin:miter;stroke-miterlimit:10;"/><text fill="#000000" font-family="sans-serif" font-size="13" lengthAdjust="spacing" textLength="120.6816" x="1212" y="205.6045">Manage/query cases</text></g><!--link Analyst to FE_Map--><g class="link" data-entity-1="ent0002" data-entity-2="ent0006" data-link-type="dependency" data-source-line="50" id="lnk32"><path d="M1373.41,153.1794 C1365.68,162.4894 1358.45,172.6394 1353,183.1094 C1338.53,210.8794 1333.2383,242.3374 1330.9483,263.8874" fill="none" id="Analyst-to-FE_Map" style="stroke:#181818;stroke-width:1;"/><polygon fill="#181818" points="1330.42,268.8594,1335.3486,260.3324,1330.9483,263.8874,1327.3934,259.4871,1330.42,268.8594" style="stroke:#181818;stroke-width:1;stroke-linejoin:miter;stroke-miterlimit:10;"/><text fill="#000000" font-family="sans-serif" font-size="13" lengthAdjust="spacing" textLength="88.1436" x="1360.1414" y="197.6045">View itineraries</text><text fill="#000000" font-family="sans-serif" font-size="13" lengthAdjust="spacing" textLength="100.4263" x="1354" y="213.9561">Confirm locations</text></g><!--link Analyst to FE_Graph--><g class="link" data-entity-1="ent0002" data-entity-2="ent0007" data-link-type="dependency" data-source-line="51" id="lnk33"><path d="M1445.93,153.5594 C1465.1,191.1694 1488.6895,237.4546 1502.3595,264.2746" fill="none" id="Analyst-to-FE_Graph" style="stroke:#181818;stroke-width:1;"/><polygon fill="#181818" points="1504.63,268.7294,1504.1068,258.8944,1502.3595,264.2746,1496.9792,262.5273,1504.63,268.7294" style="stroke:#181818;stroke-width:1;stroke-linejoin:miter;stroke-miterlimit:10;"/><text fill="#000000" font-family="sans-serif" font-size="13" lengthAdjust="spacing" textLength="106.9453" x="1478" y="205.6045">Case relationships</text></g><!--link Analyst to FE_Stats--><g class="link" data-entity-1="ent0002" data-entity-2="ent0008" data-link-type="dependency" data-source-line="52" id="lnk34"><path d="M1471.02,123.5394 C1506.48,136.9494 1554.68,157.6294 1593,183.1094 C1630.82,208.2594 1664.5767,242.8506 1684.8567,265.2806" fill="none" id="Analyst-to-FE_Stats" style="stroke:#181818;stroke-width:1;"/><polygon fill="#181818" points="1688.21,268.9894,1685.1411,259.6309,1684.8567,265.2806,1679.207,264.9962,1688.21,268.9894" style="stroke:#181818;stroke-width:1;stroke-linejoin:miter;stroke-miterlimit:10;"/><text fill="#000000" font-family="sans-serif" font-size="13" lengthAdjust="spacing" textLength="91.7554" x="1637" y="205.6045">Overall analysis</text></g><!--link FE_Report to APIGW--><g class="link" data-entity-1="ent0004" data-entity-2="ent0011" data-link-type="dependency" data-source-line="55" id="lnk35"><path d="M1035.67,303.8194 C1041.52,304.9794 1047.36,306.0894 1053,307.1094 C1194.96,332.7294 1230.25,343.0394 1374,355.1094 C1420.29,358.9994 1746.73,352.6894 1792,363.1094 C1829.97,371.8494 1865.7441,389.5969 1892.0741,404.5769" fill="none" id="FE_Report-to-APIGW" style="stroke:#181818;stroke-width:1;"/><polygon fill="#181818" points="1896.42,407.0494,1890.5754,399.1221,1892.0741,404.5769,1886.6194,406.0756,1896.42,407.0494" style="stroke:#181818;stroke-width:1;stroke-linejoin:miter;stroke-miterlimit:10;"/><text fill="#000000" font-family="sans-serif" font-size="13" lengthAdjust="spacing" textLength="123.5127" x="1375" y="351.6045">Submit forms (REST)</text></g><!--link FE_Case to APIGW--><g class="link" data-entity-1="ent0005" data-entity-2="ent0011" data-link-type="dependency" data-source-line="56" id="lnk36"><path d="M1227.25,304.2594 C1233.25,305.2694 1239.22,306.2394 1245,307.1094 C1360.89,324.5894 1393.47,307.9794 1507,337.1094 C1527.47,342.3594 1530.34,350.6894 1551,355.1094 C1603.4,366.3194 1739.87,350.7194 1792,363.1094 C1829.78,372.0894 1865.4269,389.6895 1891.7769,404.5795" fill="none" id="FE_Case-to-APIGW" style="stroke:#181818;stroke-width:1;"/><polygon fill="#181818" points="1896.13,407.0394,1890.2624,399.1292,1891.7769,404.5795,1886.3266,406.0941,1896.13,407.0394" style="stroke:#181818;stroke-width:1;stroke-linejoin:miter;stroke-miterlimit:10;"/><text fill="#000000" font-family="sans-serif" font-size="13" lengthAdjust="spacing" textLength="92.46" x="1552" y="351.6045">Queries (REST)</text></g><!--link FE_Map to APIGW--><g class="link" data-entity-1="ent0006" data-entity-2="ent0011" data-link-type="dependency" data-source-line="57" id="lnk37"><path d="M1395.84,303.9794 C1401.63,305.0994 1407.41,306.1594 1413,307.1094 C1518.99,325.0594 1550.29,305.3794 1653,337.1094 C1669.71,342.2694 1671.17,350.3494 1688,355.1094 C1732.61,367.7394 1747.14,351.4094 1792,363.1094 C1829.21,372.8094 1864.4424,390.0136 1890.8624,404.5936" fill="none" id="FE_Map-to-APIGW" style="stroke:#181818;stroke-width:1;"/><polygon fill="#181818" points="1895.24,407.0094,1889.2929,399.1588,1890.8624,404.5936,1885.4276,406.163,1895.24,407.0094" style="stroke:#181818;stroke-width:1;stroke-linejoin:miter;stroke-miterlimit:10;"/><text fill="#000000" font-family="sans-serif" font-size="13" lengthAdjust="spacing" textLength="163.2998" x="1689" y="351.6045">Itinerary/Association queries</text></g><!--link FE_Graph to APIGW--><g class="link" data-entity-1="ent0007" data-entity-2="ent0011" data-link-type="dependency" data-source-line="58" id="lnk38"><path d="M1597.17,304.3094 C1603.2,305.2894 1609.19,306.2394 1615,307.1094 C1723.93,323.4494 1765.86,281.6194 1861,337.1094 C1888.56,353.1894 1905.7527,381.5632 1915.8227,402.2632" fill="none" id="FE_Graph-to-APIGW" style="stroke:#181818;stroke-width:1;"/><polygon fill="#181818" points="1918.01,406.7594,1917.6699,396.9164,1915.8227,402.2632,1910.4759,400.416,1918.01,406.7594" style="stroke:#181818;stroke-width:1;stroke-linejoin:miter;stroke-miterlimit:10;"/><text fill="#000000" font-family="sans-serif" font-size="13" lengthAdjust="spacing" textLength="112.0171" x="1883" y="351.6045">Graph data request</text></g><!--link FE_Stats to APIGW--><g class="link" data-entity-1="ent0008" data-entity-2="ent0011" data-link-type="dependency" data-source-line="59" id="lnk39"><path d="M1775.6,289.4994 C1859.44,291.6594 1990.87,300.9194 2022,337.1094 C2044.78,363.5894 2009.6033,387.9867 1974.5533,404.8967" fill="none" id="FE_Stats-to-APIGW" style="stroke:#181818;stroke-width:1;"/><polygon fill="#181818" points="1970.05,407.0694,1979.894,406.7613,1974.5533,404.8967,1976.4178,399.556,1970.05,407.0694" style="stroke:#181818;stroke-width:1;stroke-linejoin:miter;stroke-miterlimit:10;"/><text fill="#000000" font-family="sans-serif" font-size="13" lengthAdjust="spacing" textLength="105.4917" x="2030" y="351.6045">Analytics requests</text></g><!--link APIGW to RateLimiter--><g class="link" data-entity-1="ent0011" data-entity-2="ent0012" data-link-type="dependency" data-source-line="62" id="lnk40"><path d="M1894.1,445.2194 C1882.73,453.4994 1871.2,464.4194 1865,477.6094 C1857.08,494.4594 1860.7002,510.1847 1868.3302,526.0247" fill="none" id="APIGW-to-RateLimiter" style="stroke:#181818;stroke-width:1;"/><polygon fill="#181818" points="1870.5,530.5294,1870.198,520.6851,1868.3302,526.0247,1862.9906,524.1569,1870.5,530.5294" style="stroke:#181818;stroke-width:1;stroke-linejoin:miter;stroke-miterlimit:10;"/><text fill="#000000" font-family="sans-serif" font-size="13" lengthAdjust="spacing" textLength="166.9053" x="1866" y="492.1045">enforce cooldown (NFR-005)</text></g><!--link APIGW to GMN41--><g class="link" data-entity-1="ent0011" data-entity-2="ent0042" data-link-type="association" data-source-line="64" id="lnk43"><path d="M1946.52,406.9494 C1971.94,384.6594 2017.64,349.1294 2064.5,335.1094 C2172.87,302.6894 2460.5,330.2094 2573.5,335.1094 C2894.25,349.0194 3268.68,386.7694 3471.65,409.0294" fill="none" id="APIGW-GMN41" style="stroke:#181818;stroke-width:1;stroke-dasharray:7,7;"/></g><!--link APIGW to CaseSvc--><g class="link" data-entity-1="ent0011" data-entity-2="ent0013" data-link-type="dependency" data-source-line="69" id="lnk44"><path d="M1990.34,445.1394 C2009.8,452.8494 2030.18,463.4294 2046,477.6094 C2052.81,483.7194 2049.29,489.3894 2056,495.6094 C2056.48,496.0494 2106.4625,518.941 2145.8025,536.921" fill="none" id="APIGW-to-CaseSvc" style="stroke:#181818;stroke-width:1;"/><polygon fill="#181818" points="2150.35,538.9994,2143.8271,531.6202,2145.8025,536.921,2140.5017,538.8963,2150.35,538.9994" style="stroke:#181818;stroke-width:1;stroke-linejoin:miter;stroke-miterlimit:10;"/></g><!--link APIGW to ItinSvc--><g class="link" data-entity-1="ent0011" data-entity-2="ent0014" data-link-type="dependency" data-source-line="70" id="lnk45"><path d="M1996.6,445.1394 C2016.75,452.7594 2037.65,463.2794 2054,477.6094 C2060.88,483.6394 2056.49,490.3794 2064,495.6094 C2135.96,545.7094 2174.45,502.3694 2259,525.6094 C2271.67,529.0894 2280.4523,532.1261 2292.5023,537.0561" fill="none" id="APIGW-to-ItinSvc" style="stroke:#181818;stroke-width:1;"/><polygon fill="#181818" points="2297.13,538.9494,2290.3148,531.8393,2292.5023,537.0561,2287.2855,539.2435,2297.13,538.9494" style="stroke:#181818;stroke-width:1;stroke-linejoin:miter;stroke-miterlimit:10;"/></g><!--link APIGW to AssocSvc--><g class="link" data-entity-1="ent0011" data-entity-2="ent0015" data-link-type="dependency" data-source-line="71" id="lnk46"><path d="M1971.66,445.1594 C1994.07,453.4494 2021.64,462.8194 2047,469.1094 C2207.6,508.9594 2254.52,485.2694 2415,525.6094 C2429.31,529.2094 2439.8419,532.486 2453.6019,537.406" fill="none" id="APIGW-to-AssocSvc" style="stroke:#181818;stroke-width:1;"/><polygon fill="#181818" points="2458.31,539.0894,2451.1822,532.2928,2453.6019,537.406,2448.4887,539.8257,2458.31,539.0894" style="stroke:#181818;stroke-width:1;stroke-linejoin:miter;stroke-miterlimit:10;"/></g><!--link APIGW to AnalyticSvc--><g class="link" data-entity-1="ent0011" data-entity-2="ent0016" data-link-type="dependency" data-source-line="72" id="lnk47"><path d="M1996.15,445.1294 C2012.1,452.5794 2027.21,463.0194 2037,477.6094 C2049.16,495.7294 2048.3301,516.8474 2045.2401,534.1274" fill="none" id="APIGW-to-AnalyticSvc" style="stroke:#181818;stroke-width:1;"/><polygon fill="#181818" points="2044.36,539.0494,2049.8818,530.894,2045.2401,534.1274,2042.0067,529.4858,2044.36,539.0494" style="stroke:#181818;stroke-width:1;stroke-linejoin:miter;stroke-miterlimit:10;"/></g><!--link CaseSvc to DB--><g class="link" data-entity-1="ent0013" data-entity-2="ent0021" data-link-type="dependency" data-source-line="75" id="lnk48"><path d="M2229.4,577.1094 C2239.08,581.5294 2249.41,586.2394 2259,590.6094 C2288.32,603.9694 2296.27,606.0294 2325,620.6094 C2339.55,627.9894 2341.29,634.2094 2357,638.6094 C2407.1,652.6494 2542.12,628.7794 2591,646.6094 C2613.28,654.7394 2630.5765,668.2631 2645.2765,682.4031" fill="none" id="CaseSvc-to-DB" style="stroke:#181818;stroke-width:1;"/><polygon fill="#181818" points="2648.88,685.8694,2645.1667,676.7474,2645.2765,682.4031,2639.6207,682.513,2648.88,685.8694" style="stroke:#181818;stroke-width:1;stroke-linejoin:miter;stroke-miterlimit:10;"/><text fill="#000000" font-family="sans-serif" font-size="13" lengthAdjust="spacing" textLength="212.4434" x="2358" y="635.1045">Create/Update/Read case &amp; itinerary</text></g><!--link ItinSvc to DB--><g class="link" data-entity-1="ent0014" data-entity-2="ent0021" data-link-type="dependency" data-source-line="76" id="lnk49"><path d="M2377.34,577.2094 C2389.29,582.0794 2402.52,586.9894 2415,590.6094 C2486.16,611.2594 2513.1,586.7394 2579,620.6094 C2609.49,636.2794 2633.4666,661.641 2650.0066,682.101" fill="none" id="ItinSvc-to-DB" style="stroke:#181818;stroke-width:1;"/><polygon fill="#181818" points="2653.15,685.9894,2650.6026,676.4757,2650.0066,682.101,2644.3813,681.505,2653.15,685.9894" style="stroke:#181818;stroke-width:1;stroke-linejoin:miter;stroke-miterlimit:10;"/><text fill="#000000" font-family="sans-serif" font-size="13" lengthAdjust="spacing" textLength="125.0171" x="2606" y="635.1045">Read formatted paths</text></g><!--link AssocSvc to DB--><g class="link" data-entity-1="ent0015" data-entity-2="ent0021" data-link-type="dependency" data-source-line="77" id="lnk50"><path d="M2575.27,560.4294 C2671.83,563.8994 2836.48,576.3394 2874,620.6094 C2917.39,671.8094 2812.5241,693.4616 2737.7041,702.4716" fill="none" id="AssocSvc-to-DB" style="stroke:#181818;stroke-width:1;"/><polygon fill="#181818" points="2732.74,703.0694,2742.1537,705.9647,2737.7041,702.4716,2741.1972,698.022,2732.74,703.0694" style="stroke:#181818;stroke-width:1;stroke-linejoin:miter;stroke-miterlimit:10;"/><text fill="#000000" font-family="sans-serif" font-size="13" lengthAdjust="spacing" textLength="136.5825" x="2885" y="635.1045">Read location/time data</text></g><!--link AnalyticSvc to DB--><g class="link" data-entity-1="ent0016" data-entity-2="ent0021" data-link-type="dependency" data-source-line="78" id="lnk51"><path d="M2063.15,577.1194 C2089.67,596.5394 2135.26,626.3294 2180,638.6094 C2224.05,650.6994 2547.98,631.2694 2591,646.6094 C2613.5,654.6294 2630.9499,668.3392 2645.6499,682.5892" fill="none" id="AnalyticSvc-to-DB" style="stroke:#181818;stroke-width:1;"/><polygon fill="#181818" points="2649.24,686.0694,2645.562,676.933,2645.6499,682.5892,2639.9938,682.6771,2649.24,686.0694" style="stroke:#181818;stroke-width:1;stroke-linejoin:miter;stroke-miterlimit:10;"/><text fill="#000000" font-family="sans-serif" font-size="13" lengthAdjust="spacing" textLength="135.8716" x="2181" y="635.1045">Read investigation data</text></g><!--link AnalyticSvc to DQ--><g class="link" data-entity-1="ent0016" data-entity-2="ent0017" data-link-type="dependency" data-source-line="81" id="lnk52"><path d="M1995.21,577.1294 C1983.48,581.6794 1970.81,586.4494 1959,590.6094 C1917.23,605.3094 1890.17,584.8994 1864,620.6094 C1842.15,650.4194 1878.675,673.159 1917.685,688.699" fill="none" id="AnalyticSvc-to-DQ" style="stroke:#181818;stroke-width:1;"/><polygon fill="#181818" points="1922.33,690.5494,1915.4493,683.5027,1917.685,688.699,1912.4887,690.9347,1922.33,690.5494" style="stroke:#181818;stroke-width:1;stroke-linejoin:miter;stroke-miterlimit:10;"/><text fill="#000000" font-family="sans-serif" font-size="13" lengthAdjust="spacing" textLength="140.8989" x="1865" y="635.1045">pre-check completeness</text></g><!--link DQ to AnalyticSvc--><g class="link" data-entity-1="ent0017" data-entity-2="ent0016" data-link-type="dependency" data-source-line="82" id="lnk53"><path d="M1987.31,690.5994 C1993.72,676.5294 2002.69,656.4394 2010,638.6094 C2018.56,617.7194 2025.8906,598.1081 2031.7806,581.9181" fill="none" id="DQ-to-AnalyticSvc" style="stroke:#181818;stroke-width:1;"/><polygon fill="#181818" points="2033.49,577.2194,2026.6541,584.3095,2031.7806,581.9181,2034.172,587.0446,2033.49,577.2194" style="stroke:#181818;stroke-width:1;stroke-linejoin:miter;stroke-miterlimit:10;"/><text fill="#000000" font-family="sans-serif" font-size="13" lengthAdjust="spacing" textLength="96.0845" x="2018" y="635.1045">ok / error prompt</text></g><!--link AnalyticSvc to RiskCalc--><g class="link" data-entity-1="ent0016" data-entity-2="ent0019" data-link-type="dependency" data-source-line="83" id="lnk54"><path d="M2078.74,577.2394 C2091.87,582.5494 2106.81,587.6994 2121,590.6094 C2319,631.1494 2829.72,593.4794 3030,620.6094 C3078.92,627.2394 3093.63,624.9594 3138,646.6094 C3160.85,657.7594 3179.5371,673.1245 3194.4071,687.1045" fill="none" id="AnalyticSvc-to-RiskCalc" style="stroke:#181818;stroke-width:1;"/><polygon fill="#181818" points="3198.05,690.5294,3194.2327,681.4504,3194.4071,687.1045,3188.753,687.279,3198.05,690.5294" style="stroke:#181818;stroke-width:1;stroke-linejoin:miter;stroke-miterlimit:10;"/><text fill="#000000" font-family="sans-serif" font-size="13" lengthAdjust="spacing" textLength="123.5317" x="3120" y="635.1045">movement &amp; risk calc</text></g><!--link AnalyticSvc to ClusterEng--><g class="link" data-entity-1="ent0016" data-entity-2="ent0020" data-link-type="dependency" data-source-line="84" id="lnk55"><path d="M2078.77,577.1094 C2091.9,582.4094 2106.83,587.5994 2121,590.6094 C2390.4,647.9394 2472.82,553.6894 2740,620.6094 C2758.13,625.1494 2760.41,632.2894 2778,638.6094 C2848.6,663.9794 2927.5774,682.7785 2984.3874,694.7485" fill="none" id="AnalyticSvc-to-ClusterEng" style="stroke:#181818;stroke-width:1;"/><polygon fill="#181818" points="2989.28,695.7794,2981.2981,690.0097,2984.3874,694.7485,2979.6487,697.8379,2989.28,695.7794" style="stroke:#181818;stroke-width:1;stroke-linejoin:miter;stroke-miterlimit:10;"/><text fill="#000000" font-family="sans-serif" font-size="13" lengthAdjust="spacing" textLength="86.709" x="2779" y="635.1045">case clustering</text></g><!--link FE_Map to FE_MapSDK--><g class="link" data-entity-1="ent0006" data-entity-2="ent0009" data-link-type="dependency" data-source-line="87" id="lnk56"><path d="M1329,307.1694 C1329,333.1794 1329,375.9194 1329,401.9794" fill="none" id="FE_Map-to-FE_MapSDK" style="stroke:#181818;stroke-width:1;"/><polygon fill="#181818" points="1329,406.9794,1333,397.9794,1329,401.9794,1325,397.9794,1329,406.9794" style="stroke:#181818;stroke-width:1;stroke-linejoin:miter;stroke-miterlimit:10;"/></g><!--link FE_MapSDK to MapSvc--><g class="link" data-entity-1="ent0009" data-entity-2="ent0022" data-link-type="dependency" data-source-line="88" id="lnk57"><path d="M1329,445.1894 C1329,465.9094 1329,495.2494 1329,520.4394" fill="none" id="FE_MapSDK-to-MapSvc" style="stroke:#181818;stroke-width:1;"/><polygon fill="#181818" points="1329,525.4394,1333,516.4394,1329,520.4394,1325,516.4394,1329,525.4394" style="stroke:#181818;stroke-width:1;stroke-linejoin:miter;stroke-miterlimit:10;"/><text fill="#000000" font-family="sans-serif" font-size="13" lengthAdjust="spacing" textLength="93.9517" x="1330" y="492.1045">tiles / geocoding</text></g><!--link ItinSvc to FE_Map--><g class="link" data-entity-1="ent0014" data-entity-2="ent0006" data-link-type="dependency" data-source-line="91" id="lnk58"><path d="M2293.45,538.9794 C2282.28,534.4694 2270.24,529.7494 2259,525.6094 C2184.69,498.2094 2149.81,521.0294 2090,469.1094 C2037.12,423.2094 2069.56,361.7094 2004,337.1094 C1880.88,290.9094 1543.38,324.2794 1413,307.1094 C1407.38,306.3694 1406.5047,306.3139 1400.6947,305.2939" fill="none" id="ItinSvc-to-FE_Map" style="stroke:#181818;stroke-width:1;"/><polygon fill="#181818" points="1395.77,304.4294,1403.9428,309.9254,1400.6947,305.2939,1405.3261,302.0459,1395.77,304.4294" style="stroke:#181818;stroke-width:1;stroke-linejoin:miter;stroke-miterlimit:10;"/><text fill="#000000" font-family="sans-serif" font-size="13" lengthAdjust="spacing" textLength="108.3989" x="2091" y="431.6045">formatted path info</text></g><!--link AssocSvc to FE_Graph--><g class="link" data-entity-1="ent0015" data-entity-2="ent0007" data-link-type="dependency" data-source-line="92" id="lnk59"><path d="M2481.63,538.9494 C2434.05,501.1394 2318.13,413.3294 2208,363.1094 C2169.34,345.4794 2157.89,344.1994 2116,337.1094 C1896.06,299.8994 1836.51,333.3894 1615,307.1094 C1609.16,306.4194 1608.0966,306.3283 1602.0566,305.4383" fill="none" id="AssocSvc-to-FE_Graph" style="stroke:#181818;stroke-width:1;"/><polygon fill="#181818" points="1597.11,304.7094,1605.4307,309.9786,1602.0566,305.4383,1606.597,302.0641,1597.11,304.7094" style="stroke:#181818;stroke-width:1;stroke-linejoin:miter;stroke-miterlimit:10;"/><text fill="#000000" font-family="sans-serif" font-size="13" lengthAdjust="spacing" textLength="141.6162" x="2388" y="431.6045">confirmed-case relations</text></g><!--link RiskCalc to FE_Stats--><g class="link" data-entity-1="ent0019" data-entity-2="ent0008" data-link-type="dependency" data-source-line="93" id="lnk60"><path d="M3225.07,690.2894 C3244.69,647.7694 3285.41,541.1194 3235,477.6094 C3125.08,339.1094 3027.83,395.4794 2854,363.1094 C2645.52,324.2794 1998.667,299.182 1780.757,291.652" fill="none" id="RiskCalc-to-FE_Stats" style="stroke:#181818;stroke-width:1;"/><polygon fill="#181818" points="1775.76,291.4794,1784.6165,295.7878,1780.757,291.652,1784.8928,287.7926,1775.76,291.4794" style="stroke:#181818;stroke-width:1;stroke-linejoin:miter;stroke-miterlimit:10;"/><text fill="#000000" font-family="sans-serif" font-size="13" lengthAdjust="spacing" textLength="130.7998" x="3247" y="492.1045">regional flow map data</text></g><!--link ClusterEng to FE_Stats--><g class="link" data-entity-1="ent0020" data-entity-2="ent0008" data-link-type="dependency" data-source-line="94" id="lnk61"><path d="M3072.97,690.5594 C3088.68,675.9994 3112.86,656.3994 3138,646.6094 C3154.44,640.2094 3205.17,651.6994 3217,638.6094 C3222.36,632.6794 3221.45,627.2594 3217,620.6094 C3049.56,370.6794 2883.45,433.6694 2591,363.1094 C2436.56,325.8494 1962.9546,300.9308 1780.5746,292.4808" fill="none" id="ClusterEng-to-FE_Stats" style="stroke:#181818;stroke-width:1;"/><polygon fill="#181818" points="1775.58,292.2494,1784.3852,296.6616,1780.5746,292.4808,1784.7555,288.6702,1775.58,292.2494" style="stroke:#181818;stroke-width:1;stroke-linejoin:miter;stroke-miterlimit:10;"/><text fill="#000000" font-family="sans-serif" font-size="13" lengthAdjust="spacing" textLength="121.4116" x="3105" y="492.1045">clustering graph data</text></g><!--link GMN41 to GMN62--><g class="link" data-entity-1="ent0042" data-entity-2="ent0063" data-link-type="association" data-source-line="97" id="lnk64"><path d="M3633.52,447.7094 C3648.31,472.0494 3672.77,512.3094 3687.54,536.6094" fill="none" id="GMN41-GMN62" style="stroke:#181818;stroke-width:1;stroke-dasharray:7,7;"/></g><?plantuml-src TLRRRXit47tVhnZumRM1g4vlGUi01NolqAInhJXvg8k2eYY9C7Uv9haMrAB_tZFaNhXIygJLy70uStZcx0OTZAAhwQUp6KteDxrQJzwf5sLejlL1bNJcv5e79KFZL57u9rtLmecIf2rhMwagpC8M2HmGebePbK7yMYpiHbShMWhZyvLQo2UnKhjR2o63TNHmLUk5AhKrTgMbC8_LjNKbNMjZb3iWuTl7hyBFAc5GVOIspqNHdaa7dzMShfsjWgeMT7JkxCOhTvpoNj6_1GszqS6zggqBt4EiuM7QulvE2sFmXV2AteiAnvGS6D2yCiPEaLGvuRPqY2rrXiM_CVJCUokr2DfM0DyuKQypUFm_tZ0B0Fl0PD35MhZWCpml-Z6Up_-aVIEC_YSTCxlyFIi7_uh_CWRFyS3adTrEFIgQAVUYfV9nntcYy4-iqOq8QYEsT4BCESEK-ojUoktqvlCEqS3IErr2Q-wnEfhUqeMr1lgfqjNmUhly1TBR4YAI0xCN-JMwSoX7zw0vtJaunlVHh2zGxSVODhe7lnH1q1qp7RQu6mKYawGlxqOKdvcLTJgiItfl5urfixwxsTEdza_esCZ6n8eJLmXoR8Seqs2Y7Mlvgbg1ZiHMYYB2vozGtfm9FKYESDd-JoMU5zBOPf44qxQBk_geZV8dDyfAkq3sT5yi6pG_T7IlZ1Pp7Hi_f4jL6xlbAJc8BLLs0SojqoNVKIUm99cOhrtgeGnfwXoH8kEUhuKs5W28gGhE3WRIncCw2C_1zmBPPRv0dGN2numXlz51hYbOcgUZyN-jA_h-DPMwQeBoSS_H7zVtazUlVtX55_ZvwHX1xeHFOOA_eGUu3McuZuDzuSPyaToC9fDV1sEXKrnIYCWNXL5U9Jto_HIjfNKRuW2Sjhvpyjme42WHyxj0lhLJ3BhQa6x7GIl_M86RfOQv6Ij5gcXdOxASqpXPiEkaDB_MzHuocWkG7q0XaoRYilRSUE-vBOLuB8P-EK6q1UoUDNCCEYtXk9wExgzc7u-Bhj4STuTUqK46uHPpH3_s9_bKFwTzHTzQlYL5c6Yq2YJU7NrZEMuO_1OMcvmfsJYMk42ZJddREAceTfPVeJYxIDivKUPeIASgj0keR5sl4n8KD5PevvstodcB6YQQTvQZpgZ4KDDS8QjqspgeHT4hyyVZeXSa2hwtJNozuL9yw-DPZPsN3f7ECeT8xujPABE_I4fA74c94cxpHl3bEKlBAT1nyb0l-ETUYKNKC9oYa-gsQ8yUDaLOQXujugiYh55yMyuEh1FtIT2bokOeLRa3_iBGeOtetS-jTtChefF0VgexfAgTcaYs-EX8Ha7yoli2QpiS0MkVy9PKpk5x1c8fwx2NiZDrW4iuLFp0E8GiuF-IlNuNFnWxTaGkPVy2u6vuLAIeMqlEXsTuwVTFCPui7Ta26pxgNNMMp_a-DA5kC2CGqiDqT5UzzOolYbYuu-lAl4OcKrABYHovJj7pi6CvJgqqpmCjZTrGYGEJqWOQTZOCTD2gd_aYJTlSXc1B30r_k8YwDZgfvotvfcQ_ylG2zxIDfm-pg8Lv-ew46R7lV_UAqhIzEVuMMQPivKl18n24Mwd0bxo465B5Qlm1Inlhy5dWtp89KgDxFa0Q9LpA_gRB_dFty0kEwQVwVm00?></g></svg>