<svg xmlns="http://www.w3.org/2000/svg" xmlns:xlink="http://www.w3.org/1999/xlink" contentStyleType="text/css" data-diagram-type="DESCRIPTION" height="767px" preserveAspectRatio="none" style="width:3225px;height:767px;background:#FFFFFF;" version="1.1" viewBox="0 0 3225 767" width="3225px" zoomAndPan="magnify"><?plantuml 1.2026.6?><defs/><g><g class="title" data-source-line="1"><text fill="#000000" font-family="sans-serif" font-size="14" font-weight="700" lengthAdjust="spacing" textLength="198.3926" x="1509.8037" y="24.5332">MyTorch System Architecture</text></g><!--cluster FE--><g class="cluster" data-qualified-name="FE" data-source-line="11" id="ent0004"><rect fill="none" height="90" rx="2.5" ry="2.5" style="stroke:#181818;stroke-width:1;" width="1054" x="2157" y="169.1094"/><text fill="#000000" font-family="sans-serif" font-size="14" font-weight="700" lengthAdjust="spacing" textLength="111.2275" x="2628.3862" y="185.6426">Visual Front End</text></g><!--cluster BE--><g class="cluster" data-qualified-name="BE" data-source-line="20" id="ent0011"><rect fill="none" height="462" rx="2.5" ry="2.5" style="stroke:#181818;stroke-width:1;" width="903" x="1230" y="169.1094"/><text fill="#000000" font-family="sans-serif" font-size="14" font-weight="700" lengthAdjust="spacing" textLength="117.4961" x="1622.752" y="185.6426">System Back End</text></g><!--cluster Core--><g class="cluster" data-qualified-name="Core" data-source-line="33" id="ent0022"><rect fill="none" height="107" rx="2.5" ry="2.5" style="stroke:#181818;stroke-width:1;" width="886" x="189" y="524.1094"/><text fill="#000000" font-family="sans-serif" font-size="14" font-weight="700" lengthAdjust="spacing" textLength="178.1514" x="542.9243" y="540.6426">MyTorch / NNE Framework</text></g><!--entity FE_Main--><g class="entity" data-qualified-name="FE.FE_Main" data-source-line="12" id="ent0005"><rect fill="#F1F1F1" height="37.6094" rx="2.5" ry="2.5" style="stroke:#181818;stroke-width:0.5;" width="108.71" x="2337.5" y="205.1094"/><text fill="#000000" font-family="sans-serif" font-size="14" lengthAdjust="spacing" textLength="88.71" x="2347.5" y="229.6426">Main Interface</text></g><!--entity FE_Config--><g class="entity" data-qualified-name="FE.FE_Config" data-source-line="13" id="ent0006"><rect fill="#F1F1F1" height="37.6094" rx="2.5" ry="2.5" style="stroke:#181818;stroke-width:0.5;" width="161.6406" x="2482" y="205.1094"/><text fill="#000000" font-family="sans-serif" font-size="14" lengthAdjust="spacing" textLength="141.6406" x="2492" y="229.6426">Configuration Interface</text></g><!--entity FE_Train--><g class="entity" data-qualified-name="FE.FE_Train" data-source-line="14" id="ent0007"><rect fill="#F1F1F1" height="37.6094" rx="2.5" ry="2.5" style="stroke:#181818;stroke-width:0.5;" width="128.9443" x="2173.5" y="205.1094"/><text fill="#000000" font-family="sans-serif" font-size="14" lengthAdjust="spacing" textLength="108.9443" x="2183.5" y="229.6426">Training Interface</text></g><!--entity FE_Infer--><g class="entity" data-qualified-name="FE.FE_Infer" data-source-line="15" id="ent0008"><rect fill="#F1F1F1" height="37.6094" rx="2.5" ry="2.5" style="stroke:#181818;stroke-width:0.5;" width="136.7373" x="2679.5" y="205.1094"/><text fill="#000000" font-family="sans-serif" font-size="14" lengthAdjust="spacing" textLength="116.7373" x="2689.5" y="229.6426">Inference Interface</text></g><!--entity FE_Help--><g class="entity" data-qualified-name="FE.FE_Help" data-source-line="16" id="ent0009"><rect fill="#F1F1F1" height="37.6094" rx="2.5" ry="2.5" style="stroke:#181818;stroke-width:0.5;" width="125.8408" x="2852" y="205.1094"/><text fill="#000000" font-family="sans-serif" font-size="14" lengthAdjust="spacing" textLength="105.8408" x="2862" y="229.6426">Guidance &amp; Help</text></g><!--entity FE_Monitor--><g class="entity" data-qualified-name="FE.FE_Monitor" data-source-line="17" id="ent0010"><rect fill="#F1F1F1" height="37.6094" rx="2.5" ry="2.5" style="stroke:#181818;stroke-width:0.5;" width="181.082" x="3013.5" y="205.1094"/><text fill="#000000" font-family="sans-serif" font-size="14" lengthAdjust="spacing" textLength="161.082" x="3023.5" y="229.6426">Monitoring &amp; Visualization</text></g><!--entity BE_API--><g class="entity" data-qualified-name="BE.BE_API" data-source-line="21" id="ent0012"><rect fill="#F1F1F1" height="37.6094" rx="2.5" ry="2.5" style="stroke:#181818;stroke-width:0.5;" width="101.7031" x="1761" y="306.1094"/><text fill="#000000" font-family="sans-serif" font-size="14" lengthAdjust="spacing" textLength="81.7031" x="1771" y="330.6426">API Gateway</text></g><!--entity BE_Model--><g class="entity" data-qualified-name="BE.BE_Model" data-source-line="22" id="ent0013"><rect fill="#F1F1F1" height="37.6094" rx="2.5" ry="2.5" style="stroke:#181818;stroke-width:0.5;" width="194.3096" x="1246" y="422.1094"/><text fill="#000000" font-family="sans-serif" font-size="14" lengthAdjust="spacing" textLength="174.3096" x="1256" y="446.6426">Model Management Service</text></g><!--entity BE_Data--><g class="entity" data-qualified-name="BE.BE_Data" data-source-line="23" id="ent0014"><rect fill="#F1F1F1" height="37.6094" rx="2.5" ry="2.5" style="stroke:#181818;stroke-width:0.5;" width="153.8613" x="1642" y="422.1094"/><text fill="#000000" font-family="sans-serif" font-size="14" lengthAdjust="spacing" textLength="133.8613" x="1652" y="446.6426">Data Loading Service</text></g><!--entity BE_Training--><g class="entity" data-qualified-name="BE.BE_Training" data-source-line="24" id="ent0015"><rect fill="#F1F1F1" height="37.6094" rx="2.5" ry="2.5" style="stroke:#181818;stroke-width:0.5;" width="121.1514" x="1831.5" y="422.1094"/><text fill="#000000" font-family="sans-serif" font-size="14" lengthAdjust="spacing" textLength="101.1514" x="1841.5" y="446.6426">Training Service</text></g><!--entity BE_Inference--><g class="entity" data-qualified-name="BE.BE_Inference" data-source-line="25" id="ent0016"><rect fill="#F1F1F1" height="37.6094" rx="2.5" ry="2.5" style="stroke:#181818;stroke-width:0.5;" width="128.9443" x="1987.5" y="422.1094"/><text fill="#000000" font-family="sans-serif" font-size="14" lengthAdjust="spacing" textLength="108.9443" x="1997.5" y="446.6426">Inference Service</text></g><!--entity BE_GPU--><g class="entity" data-qualified-name="BE.BE_GPU" data-source-line="26" id="ent0017"><rect fill="#F1F1F1" height="55.2188" rx="2.5" ry="2.5" style="stroke:#181818;stroke-width:0.5;" width="264.3096" x="1821" y="560.1094"/><text fill="#000000" font-family="sans-serif" font-size="14" lengthAdjust="spacing" textLength="95.7031" x="1831" y="584.6426">GPU API Layer</text><text fill="#000000" font-family="sans-serif" font-size="14" lengthAdjust="spacing" textLength="244.3096" x="1831" y="602.252">(Auto-detect, Resource Mgmt, Compat)</text></g><!--entity BE_Log--><g class="entity" data-qualified-name="BE.BE_Log" data-source-line="27" id="ent0018"><rect fill="#F1F1F1" height="37.6094" rx="2.5" ry="2.5" style="stroke:#181818;stroke-width:0.5;" width="132.0547" x="1475" y="422.1094"/><text fill="#000000" font-family="sans-serif" font-size="14" lengthAdjust="spacing" textLength="112.0547" x="1485" y="446.6426">Logging &amp; Metrics</text></g><!--entity BE_Fault--><g class="entity" data-qualified-name="BE.BE_Fault" data-source-line="28" id="ent0019"><rect fill="#F1F1F1" height="37.6094" rx="2.5" ry="2.5" style="stroke:#181818;stroke-width:0.5;" width="186.5234" x="1905.5" y="306.1094"/><text fill="#000000" font-family="sans-serif" font-size="14" lengthAdjust="spacing" textLength="166.5234" x="1915.5" y="330.6426">Fault Handling &amp; Recovery</text></g><!--entity BE_Backup--><g class="entity" data-qualified-name="BE.BE_Backup" data-source-line="29" id="ent0020"><rect fill="#F1F1F1" height="37.6094" rx="2.5" ry="2.5" style="stroke:#181818;stroke-width:0.5;" width="132.834" x="1246.5" y="205.1094"/><text fill="#000000" font-family="sans-serif" font-size="14" lengthAdjust="spacing" textLength="112.834" x="1256.5" y="229.6426">Backup &amp; Restore</text></g><!--entity BE_Sec--><g class="entity" data-qualified-name="BE.BE_Sec" data-source-line="30" id="ent0021"><rect fill="#F1F1F1" height="37.6094" rx="2.5" ry="2.5" style="stroke:#181818;stroke-width:0.5;" width="189.6064" x="1566" y="205.1094"/><text fill="#000000" font-family="sans-serif" font-size="14" lengthAdjust="spacing" textLength="169.6064" x="1576" y="229.6426">Security &amp; Privacy Controls</text></g><!--entity Core_Tensor--><g class="entity" data-qualified-name="Core.Core_Tensor" data-source-line="34" id="ent0023"><rect fill="#F1F1F1" height="37.6094" rx="2.5" ry="2.5" style="stroke:#181818;stroke-width:0.5;" width="178.7441" x="879.5" y="568.6094"/><text fill="#000000" font-family="sans-serif" font-size="14" lengthAdjust="spacing" textLength="158.7441" x="889.5" y="593.1426">Core Tensors &amp; Autograd</text></g><!--entity Core_Opt--><g class="entity" data-qualified-name="Core.Core_Opt" data-source-line="35" id="ent0024"><rect fill="#F1F1F1" height="37.6094" rx="2.5" ry="2.5" style="stroke:#181818;stroke-width:0.5;" width="86.8965" x="205.5" y="568.6094"/><text fill="#000000" font-family="sans-serif" font-size="14" lengthAdjust="spacing" textLength="66.8965" x="215.5" y="593.1426">Optimizers</text></g><!--entity Core_Loss--><g class="entity" data-qualified-name="Core.Core_Loss" data-source-line="36" id="ent0025"><rect fill="#F1F1F1" height="37.6094" rx="2.5" ry="2.5" style="stroke:#181818;stroke-width:0.5;" width="114.1582" x="328" y="568.6094"/><text fill="#000000" font-family="sans-serif" font-size="14" lengthAdjust="spacing" textLength="94.1582" x="338" y="593.1426">Loss Functions</text></g><!--entity Core_Init--><g class="entity" data-qualified-name="Core.Core_Init" data-source-line="37" id="ent0026"><rect fill="#F1F1F1" height="55.2188" rx="2.5" ry="2.5" style="stroke:#181818;stroke-width:0.5;" width="140.6133" x="477.5" y="560.1094"/><text fill="#000000" font-family="sans-serif" font-size="14" lengthAdjust="spacing" textLength="120.6133" x="487.5" y="584.6426">Weight Initialization</text><text fill="#000000" font-family="sans-serif" font-size="14" lengthAdjust="spacing" textLength="112.8271" x="487.5" y="602.252">(He/Xavier/Lecun)</text></g><!--entity Core_Zoo--><g class="entity" data-qualified-name="Core.Core_Zoo" data-source-line="38" id="ent0027"><rect fill="#F1F1F1" height="55.2188" rx="2.5" ry="2.5" style="stroke:#181818;stroke-width:0.5;" width="191.1377" x="653.5" y="560.1094"/><text fill="#000000" font-family="sans-serif" font-size="14" lengthAdjust="spacing" textLength="94.1377" x="663.5" y="584.6426">Classic Models</text><text fill="#000000" font-family="sans-serif" font-size="14" lengthAdjust="spacing" textLength="171.1377" x="663.5" y="602.252">(ResNet/VGG/Transformer)</text></g><!--entity U1--><g class="entity" data-qualified-name="U1" data-source-line="7" id="ent0001"><ellipse cx="2422.8892" cy="52.6094" fill="#F1F1F1" rx="8" ry="8" style="stroke:#181818;stroke-width:0.5;"/><path d="M2422.8892,60.6094 L2422.8892,87.6094 M2409.8892,68.6094 L2435.8892,68.6094 M2422.8892,87.6094 L2409.8892,102.6094 M2422.8892,87.6094 L2435.8892,102.6094" fill="none" style="stroke:#181818;stroke-width:0.5;"/><text fill="#000000" font-family="sans-serif" font-size="14" lengthAdjust="spacing" textLength="151.7783" x="2347" y="118.6426">Deep Learning Beginner</text></g><!--entity U2--><g class="entity" data-qualified-name="U2" data-source-line="8" id="ent0002"><ellipse cx="2617.7515" cy="52.6094" fill="#F1F1F1" rx="8" ry="8" style="stroke:#181818;stroke-width:0.5;"/><path d="M2617.7515,60.6094 L2617.7515,87.6094 M2604.7515,68.6094 L2630.7515,68.6094 M2617.7515,87.6094 L2604.7515,102.6094 M2617.7515,87.6094 L2630.7515,102.6094" fill="none" style="stroke:#181818;stroke-width:0.5;"/><text fill="#000000" font-family="sans-serif" font-size="14" lengthAdjust="spacing" textLength="166.5029" x="2534.5" y="118.6426">Developer / Team Member</text></g><!--entity U3--><g class="entity" data-qualified-name="U3" data-source-line="9" id="ent0003"><ellipse cx="2273.8584" cy="52.6094" fill="#F1F1F1" rx="8" ry="8" style="stroke:#181818;stroke-width:0.5;"/><path d="M2273.8584,60.6094 L2273.8584,87.6094 M2260.8584,68.6094 L2286.8584,68.6094 M2273.8584,87.6094 L2260.8584,102.6094 M2273.8584,87.6094 L2286.8584,102.6094" fill="none" style="stroke:#181818;stroke-width:0.5;"/><text fill="#000000" font-family="sans-serif" font-size="14" lengthAdjust="spacing" textLength="74.7168" x="2236.5" y="118.6426">Stakeholder</text></g><!--entity DB--><g class="entity" data-qualified-name="DB" data-source-line="41" id="ent0028"><path d="M6,574.1094 C6,564.1094 87.9893,564.1094 87.9893,564.1094 C87.9893,564.1094 169.9785,564.1094 169.9785,574.1094 L169.9785,600.7188 C169.9785,610.7188 87.9893,610.7188 87.9893,610.7188 C87.9893,610.7188 6,610.7188 6,600.7188 L6,574.1094" fill="#F1F1F1" style="stroke:#181818;stroke-width:0.5;"/><path d="M6,574.1094 C6,584.1094 87.9893,584.1094 87.9893,584.1094 C87.9893,584.1094 169.9785,584.1094 169.9785,574.1094" fill="none" style="stroke:#181818;stroke-width:0.5;"/><text fill="#000000" font-family="sans-serif" font-size="14" lengthAdjust="spacing" textLength="143.9785" x="16" y="602.6426">SQLite Local Database</text></g><!--entity DS--><g class="entity" data-qualified-name="DS" data-source-line="42" id="ent0029"><rect fill="#F1F1F1" height="33.6094" rx="2.5" ry="2.5" style="stroke:#181818;stroke-width:0.5;" width="115.5996" x="1098" y="572.6094"/><rect fill="#F1F1F1" height="33.6094" rx="2.5" ry="2.5" style="stroke:#181818;stroke-width:0.5;" width="115.5996" x="1094" y="568.6094"/><text fill="#000000" font-family="sans-serif" font-size="14" lengthAdjust="spacing" textLength="99.5996" x="1102" y="591.1426">Preset Datasets</text></g><!--entity GPU--><g class="entity" data-qualified-name="GPU" data-source-line="43" id="ent0030"><polygon fill="#F1F1F1" points="1886.5,705.1094,1896.5,695.1094,2019.8447,695.1094,2019.8447,732.7188,2009.8447,742.7188,1886.5,742.7188,1886.5,705.1094" style="stroke:#181818;stroke-width:0.5;stroke-linejoin:miter;stroke-miterlimit:10;"/><line style="stroke:#181818;stroke-width:0.5;" x1="2009.8447" x2="2019.8447" y1="705.1094" y2="695.1094"/><line style="stroke:#181818;stroke-width:0.5;" x1="1886.5" x2="2009.8447" y1="705.1094" y2="705.1094"/><line style="stroke:#181818;stroke-width:0.5;" x1="2009.8447" x2="2009.8447" y1="705.1094" y2="742.7188"/><text fill="#000000" font-family="sans-serif" font-size="14" lengthAdjust="spacing" textLength="93.3447" x="1901.5" y="729.6426">GPU Device(s)</text></g><!--link U1 to FE_Main--><g class="link" data-entity-1="ent0001" data-entity-2="ent0005" data-link-type="dependency" data-source-line="45" id="lnk31"><path d="M2414.45,122.4594 C2408.46,149.2994 2401.8179,179.0692 2397.1679,199.9292" fill="none" id="U1-to-FE_Main" style="stroke:#181818;stroke-width:1;"/><polygon fill="#181818" points="2396.08,204.8094,2401.9423,196.8953,2397.1679,199.9292,2394.134,195.1547,2396.08,204.8094" style="stroke:#181818;stroke-width:1;stroke-linejoin:miter;stroke-miterlimit:10;"/></g><!--link U1 to FE_Config--><g class="link" data-entity-1="ent0001" data-entity-2="ent0006" data-link-type="dependency" data-source-line="46" id="lnk32"><path d="M2461.63,122.4594 C2488.66,149.2994 2520.0127,180.4257 2541.0127,201.2857" fill="none" id="U1-to-FE_Config" style="stroke:#181818;stroke-width:1;"/><polygon fill="#181818" points="2544.56,204.8094,2540.9937,195.6289,2541.0127,201.2857,2535.3558,201.3046,2544.56,204.8094" style="stroke:#181818;stroke-width:1;stroke-linejoin:miter;stroke-miterlimit:10;"/></g><!--link U1 to FE_Train--><g class="link" data-entity-1="ent0001" data-entity-2="ent0007" data-link-type="dependency" data-source-line="47" id="lnk33"><path d="M2346.99,115.0094 C2305.31,132.0794 2261.71,150.2294 2260,152.1094 C2246.72,166.7194 2242.1046,184.2624 2240.0246,200.0124" fill="none" id="U1-to-FE_Train" style="stroke:#181818;stroke-width:1;"/><polygon fill="#181818" points="2239.37,204.9694,2244.5139,196.5706,2240.0246,200.0124,2236.5828,195.5231,2239.37,204.9694" style="stroke:#181818;stroke-width:1;stroke-linejoin:miter;stroke-miterlimit:10;"/></g><!--link U1 to FE_Infer--><g class="link" data-entity-1="ent0001" data-entity-2="ent0008" data-link-type="dependency" data-source-line="48" id="lnk34"><path d="M2499.15,115.7994 C2505.16,118.0194 2511.16,120.1494 2517,122.1094 C2580.27,143.3194 2601.73,132.4594 2662,161.1094 C2686.27,172.6494 2706.9843,187.9939 2723.6043,201.8039" fill="none" id="U1-to-FE_Infer" style="stroke:#181818;stroke-width:1;"/><polygon fill="#181818" points="2727.45,204.9994,2723.0842,196.171,2723.6043,201.8039,2717.9715,202.3241,2727.45,204.9994" style="stroke:#181818;stroke-width:1;stroke-linejoin:miter;stroke-miterlimit:10;"/></g><!--link U2 to FE_Main--><g class="link" data-entity-1="ent0002" data-entity-2="ent0005" data-link-type="dependency" data-source-line="49" id="lnk35"><path d="M2534.2,121.7894 C2511.14,133.3494 2486.57,146.8194 2465,161.1094 C2445.32,174.1494 2428.6788,188.4023 2414.4988,201.5323" fill="none" id="U2-to-FE_Main" style="stroke:#181818;stroke-width:1;"/><polygon fill="#181818" points="2410.83,204.9294,2420.1514,201.7496,2414.4988,201.5323,2414.7161,195.8796,2410.83,204.9294" style="stroke:#181818;stroke-width:1;stroke-linejoin:miter;stroke-miterlimit:10;"/></g><!--link U2 to FE_Config--><g class="link" data-entity-1="ent0002" data-entity-2="ent0006" data-link-type="dependency" data-source-line="50" id="lnk36"><path d="M2602.83,122.4594 C2592.21,149.2994 2580.3289,179.2998 2572.0789,200.1598" fill="none" id="U2-to-FE_Config" style="stroke:#181818;stroke-width:1;"/><polygon fill="#181818" points="2570.24,204.8094,2577.2696,197.9112,2572.0789,200.1598,2569.8303,194.969,2570.24,204.8094" style="stroke:#181818;stroke-width:1;stroke-linejoin:miter;stroke-miterlimit:10;"/></g><!--link U2 to FE_Train--><g class="link" data-entity-1="ent0002" data-entity-2="ent0007" data-link-type="dependency" data-source-line="51" id="lnk37"><path d="M2534.31,116.7894 C2528.48,118.6994 2522.68,120.4894 2517,122.1094 C2431.16,146.5694 2401.45,124.5994 2320,161.1094 C2295.9,171.9094 2275.971,187.5985 2260.311,201.7385" fill="none" id="U2-to-FE_Train" style="stroke:#181818;stroke-width:1;"/><polygon fill="#181818" points="2256.6,205.0894,2265.9606,202.0267,2260.311,201.7385,2260.5992,196.089,2256.6,205.0894" style="stroke:#181818;stroke-width:1;stroke-linejoin:miter;stroke-miterlimit:10;"/></g><!--link U2 to FE_Infer--><g class="link" data-entity-1="ent0002" data-entity-2="ent0008" data-link-type="dependency" data-source-line="52" id="lnk38"><path d="M2653.87,122.4594 C2678.97,149.2994 2707.9655,180.2968 2727.4655,201.1568" fill="none" id="U2-to-FE_Infer" style="stroke:#181818;stroke-width:1;"/><polygon fill="#181818" points="2730.88,204.8094,2727.656,195.5031,2727.4655,201.1568,2721.8119,200.9663,2730.88,204.8094" style="stroke:#181818;stroke-width:1;stroke-linejoin:miter;stroke-miterlimit:10;"/></g><!--link U3 to FE_Main--><g class="link" data-entity-1="ent0003" data-entity-2="ent0005" data-link-type="dependency" data-source-line="53" id="lnk39"><path d="M2306.56,122.4594 C2329.34,149.2994 2355.525,180.1369 2373.225,200.9969" fill="none" id="U3-to-FE_Main" style="stroke:#181818;stroke-width:1;"/><polygon fill="#181818" points="2376.46,204.8094,2373.6871,195.3589,2373.225,200.9969,2367.5871,200.5349,2376.46,204.8094" style="stroke:#181818;stroke-width:1;stroke-linejoin:miter;stroke-miterlimit:10;"/></g><!--link FE_Main to BE_API--><g class="link" data-entity-1="ent0005" data-entity-2="ent0012" data-link-type="dependency" data-source-line="55" id="lnk40"><path d="M2367.68,243.1394 C2354.31,252.0194 2337.03,261.9194 2320,267.1094 C2293.16,275.2894 2221.96,272.8094 2194,275.1094 C2057.77,286.3294 2022.8,283.4194 1888,306.1094 C1879.98,307.4594 1876.4218,308.0885 1868.2018,309.9085" fill="none" id="FE_Main-to-BE_API" style="stroke:#181818;stroke-width:1;"/><polygon fill="#181818" points="1863.32,310.9894,1872.9719,312.9492,1868.2018,309.9085,1871.2425,305.1384,1863.32,310.9894" style="stroke:#181818;stroke-width:1;stroke-linejoin:miter;stroke-miterlimit:10;"/></g><!--link FE_Config to BE_API--><g class="link" data-entity-1="ent0006" data-entity-2="ent0012" data-link-type="dependency" data-source-line="56" id="lnk41"><path d="M2528.75,243.2794 C2510.14,252.1994 2486.41,262.0994 2464,267.1094 C2419.51,277.0594 2304.5,272.3194 2259,275.1094 C2093.85,285.2294 2051.4,280.0794 1888,306.1094 C1879.97,307.3894 1876.4043,307.9898 1868.1843,309.7898" fill="none" id="FE_Config-to-BE_API" style="stroke:#181818;stroke-width:1;"/><polygon fill="#181818" points="1863.3,310.8594,1872.9473,312.8416,1868.1843,309.7898,1871.236,305.0268,1863.3,310.8594" style="stroke:#181818;stroke-width:1;stroke-linejoin:miter;stroke-miterlimit:10;"/></g><!--link FE_Train to BE_API--><g class="link" data-entity-1="ent0007" data-entity-2="ent0012" data-link-type="dependency" data-source-line="57" id="lnk42"><path d="M2198.83,243.1894 C2179.39,251.5394 2155.33,260.9494 2133,267.1094 C2026.71,296.4294 1996.17,284.7194 1888,306.1094 C1880.02,307.6894 1876.4748,308.4077 1868.2748,310.2777" fill="none" id="FE_Train-to-BE_API" style="stroke:#181818;stroke-width:1;"/><polygon fill="#181818" points="1863.4,311.3894,1873.0641,313.2882,1868.2748,310.2777,1871.2854,305.4884,1863.4,311.3894" style="stroke:#181818;stroke-width:1;stroke-linejoin:miter;stroke-miterlimit:10;"/></g><!--link FE_Infer to BE_API--><g class="link" data-entity-1="ent0008" data-entity-2="ent0012" data-link-type="dependency" data-source-line="58" id="lnk43"><path d="M2718.95,243.2094 C2702.82,252.2294 2682.02,262.2394 2662,267.1094 C2624.2,276.2994 2350.85,273.2494 2312,275.1094 C2123.27,284.1594 2074.75,277.3594 1888,306.1094 C1879.96,307.3494 1876.3943,307.9198 1868.1743,309.7198" fill="none" id="FE_Infer-to-BE_API" style="stroke:#181818;stroke-width:1;"/><polygon fill="#181818" points="1863.29,310.7894,1872.9373,312.7716,1868.1743,309.7198,1871.226,304.9568,1863.29,310.7894" style="stroke:#181818;stroke-width:1;stroke-linejoin:miter;stroke-miterlimit:10;"/></g><!--link FE_Monitor to BE_API--><g class="link" data-entity-1="ent0010" data-entity-2="ent0012" data-link-type="dependency" data-source-line="59" id="lnk44"><path d="M3067,243.2894 C3046.59,252.3394 3020.49,262.3394 2996,267.1094 C2931.76,279.6094 2472.41,272.7094 2407,275.1094 C2176.08,283.5694 2116.62,272.4694 1888,306.1094 C1879.95,307.2894 1876.3855,307.8455 1868.1655,309.6355" fill="none" id="FE_Monitor-to-BE_API" style="stroke:#181818;stroke-width:1;"/><polygon fill="#181818" points="1863.28,310.6994,1872.925,312.6928,1868.1655,309.6355,1871.2228,304.876,1863.28,310.6994" style="stroke:#181818;stroke-width:1;stroke-linejoin:miter;stroke-miterlimit:10;"/></g><!--link FE_Help to BE_API--><g class="link" data-entity-1="ent0009" data-entity-2="ent0012" data-link-type="dependency" data-source-line="60" id="lnk45"><path d="M2887.79,243.2494 C2872.64,252.2894 2853.04,262.2994 2834,267.1094 C2808.47,273.5594 2386.31,274.0194 2360,275.1094 C2149.95,283.7794 2095.9,274.8894 1888,306.1094 C1879.95,307.3194 1876.3958,307.8867 1868.1658,309.6767" fill="none" id="FE_Help-to-BE_API" style="stroke:#181818;stroke-width:1;"/><polygon fill="#181818" points="1863.28,310.7394,1872.9245,312.7352,1868.1658,309.6767,1871.2243,304.918,1863.28,310.7394" style="stroke:#181818;stroke-width:1;stroke-linejoin:miter;stroke-miterlimit:10;"/></g><!--link BE_API to BE_Model--><g class="link" data-entity-1="ent0012" data-entity-2="ent0013" data-link-type="dependency" data-source-line="62" id="lnk46"><path d="M1760.92,338.5294 C1677.82,358.7194 1517.8986,397.5987 1421.9386,420.9187" fill="none" id="BE_API-to-BE_Model" style="stroke:#181818;stroke-width:1;"/><polygon fill="#181818" points="1417.08,422.0994,1426.77,423.8609,1421.9386,420.9187,1424.8809,416.0872,1417.08,422.0994" style="stroke:#181818;stroke-width:1;stroke-linejoin:miter;stroke-miterlimit:10;"/></g><!--link BE_API to BE_Data--><g class="link" data-entity-1="ent0012" data-entity-2="ent0014" data-link-type="dependency" data-source-line="63" id="lnk47"><path d="M1797.26,344.1694 C1779.95,365.3894 1754.5507,396.5351 1737.1407,417.8751" fill="none" id="BE_API-to-BE_Data" style="stroke:#181818;stroke-width:1;"/><polygon fill="#181818" points="1733.98,421.7494,1742.7687,417.3044,1737.1407,417.8751,1736.57,412.2472,1733.98,421.7494" style="stroke:#181818;stroke-width:1;stroke-linejoin:miter;stroke-miterlimit:10;"/></g><!--link BE_API to BE_Training--><g class="link" data-entity-1="ent0012" data-entity-2="ent0015" data-link-type="dependency" data-source-line="64" id="lnk48"><path d="M1804.92,344.1694 C1800.64,358.1894 1797.5,377.6194 1806,392.1094 C1813.62,405.0894 1821.7692,412.4174 1834.9492,419.5974" fill="none" id="BE_API-to-BE_Training" style="stroke:#181818;stroke-width:1;"/><polygon fill="#181818" points="1839.34,421.9894,1833.3502,414.1713,1834.9492,419.5974,1829.5231,421.1965,1839.34,421.9894" style="stroke:#181818;stroke-width:1;stroke-linejoin:miter;stroke-miterlimit:10;"/></g><!--link BE_API to BE_Inference--><g class="link" data-entity-1="ent0012" data-entity-2="ent0016" data-link-type="dependency" data-source-line="65" id="lnk49"><path d="M1827.39,344.2994 C1840.9,359.1694 1861.8,379.6894 1884,392.1094 C1901.93,402.1394 1943.1008,413.7806 1982.4508,423.6706" fill="none" id="BE_API-to-BE_Inference" style="stroke:#181818;stroke-width:1;"/><polygon fill="#181818" points="1987.3,424.8894,1979.5465,418.8162,1982.4508,423.6706,1977.5965,426.5749,1987.3,424.8894" style="stroke:#181818;stroke-width:1;stroke-linejoin:miter;stroke-miterlimit:10;"/></g><!--link BE_API to BE_Log--><g class="link" data-entity-1="ent0012" data-entity-2="ent0018" data-link-type="dependency" data-source-line="66" id="lnk50"><path d="M1769.06,344.1694 C1718.46,365.4594 1639.4987,398.6704 1588.7987,420.0004" fill="none" id="BE_API-to-BE_Log" style="stroke:#181818;stroke-width:1;"/><polygon fill="#181818" points="1584.19,421.9394,1594.0369,422.1363,1588.7987,420.0004,1590.9346,414.7623,1584.19,421.9394" style="stroke:#181818;stroke-width:1;stroke-linejoin:miter;stroke-miterlimit:10;"/></g><!--link BE_Model to Core_Zoo--><g class="link" data-entity-1="ent0013" data-entity-2="ent0027" data-link-type="dependency" data-source-line="68" id="lnk51"><path d="M1245.59,445.8594 C1160.2,450.8994 1033.32,462.6794 926,490.1094 C896.25,497.7094 889.35,502.1594 862,516.1094 C836.46,529.1394 813.3315,543.348 791.9615,557.358" fill="none" id="BE_Model-to-Core_Zoo" style="stroke:#181818;stroke-width:1;"/><polygon fill="#181818" points="787.78,560.0994,797.4998,558.5101,791.9615,557.358,793.1136,551.8197,787.78,560.0994" style="stroke:#181818;stroke-width:1;stroke-linejoin:miter;stroke-miterlimit:10;"/><text fill="#000000" font-family="sans-serif" font-size="13" lengthAdjust="spacing" textLength="138.7407" x="927" y="504.6045">create/configure models</text></g><!--link BE_Training to Core_Tensor--><g class="link" data-entity-1="ent0015" data-entity-2="ent0023" data-link-type="dependency" data-source-line="69" id="lnk52"><path d="M1831.26,456.9094 C1825.44,458.0894 1819.62,459.1794 1814,460.1094 C1604.21,494.7494 1550.17,494.1794 1338,508.1094 C1309.05,510.0094 1104.68,507.4094 1077,516.1094 C1043.04,526.7794 1013.4346,548.1807 992.9746,565.3007" fill="none" id="BE_Training-to-Core_Tensor" style="stroke:#181818;stroke-width:1;"/><polygon fill="#181818" points="989.14,568.5094,998.6093,565.8015,992.9746,565.3007,993.4754,559.6661,989.14,568.5094" style="stroke:#181818;stroke-width:1;stroke-linejoin:miter;stroke-miterlimit:10;"/><text fill="#000000" font-family="sans-serif" font-size="13" lengthAdjust="spacing" textLength="25.2891" x="1593" y="504.6045">train</text></g><!--link BE_Training to Core_Opt--><g class="link" data-entity-1="ent0015" data-entity-2="ent0024" data-link-type="dependency" data-source-line="70" id="lnk53"><path d="M1831.32,457.2994 C1825.49,458.3994 1819.65,459.3694 1814,460.1094 C1620.88,485.4594 1128.45,449.2594 938,490.1094 C917.34,494.5394 914.7,503.8894 894,508.1094 C862.26,514.5794 340.42,502.5594 311,516.1094 C287.46,526.9494 271.8462,547.2523 261.4262,564.3123" fill="none" id="BE_Training-to-Core_Opt" style="stroke:#181818;stroke-width:1;"/><polygon fill="#181818" points="258.82,568.5794,266.9249,562.9837,261.4262,564.3123,260.0976,558.8137,258.82,568.5794" style="stroke:#181818;stroke-width:1;stroke-linejoin:miter;stroke-miterlimit:10;"/></g><!--link BE_Training to Core_Loss--><g class="link" data-entity-1="ent0015" data-entity-2="ent0025" data-link-type="dependency" data-source-line="71" id="lnk54"><path d="M1831.31,457.2894 C1825.49,458.3894 1819.65,459.3594 1814,460.1094 C1459.09,507.2394 1363.01,436.6594 1009,490.1094 C978.51,494.7094 972.53,503.8194 942,508.1094 C915.48,511.8294 484.82,506.0394 460,516.1094 C433.67,526.7994 414.1903,547.4531 400.8703,564.5731" fill="none" id="BE_Training-to-Core_Loss" style="stroke:#181818;stroke-width:1;"/><polygon fill="#181818" points="397.8,568.5194,406.4836,563.8724,400.8703,564.5731,400.1696,558.9598,397.8,568.5194" style="stroke:#181818;stroke-width:1;stroke-linejoin:miter;stroke-miterlimit:10;"/></g><!--link BE_Training to Core_Init--><g class="link" data-entity-1="ent0015" data-entity-2="ent0026" data-link-type="dependency" data-source-line="72" id="lnk55"><path d="M1831.31,457.2694 C1825.49,458.3794 1819.65,459.3494 1814,460.1094 C1483.8,504.4294 1392.37,428.2894 1065,490.1094 C1040.97,494.6494 1037.07,503.7994 1013,508.1094 C971.76,515.4994 675.38,501.8094 636,516.1094 C611.34,525.0594 591.9583,540.4569 575.6783,556.4369" fill="none" id="BE_Training-to-Core_Init" style="stroke:#181818;stroke-width:1;"/><polygon fill="#181818" points="572.11,559.9394,581.3349,556.4895,575.6783,556.4369,575.7309,550.7803,572.11,559.9394" style="stroke:#181818;stroke-width:1;stroke-linejoin:miter;stroke-miterlimit:10;"/></g><!--link BE_Training to Core_Zoo--><g class="link" data-entity-1="ent0015" data-entity-2="ent0027" data-link-type="dependency" data-source-line="73" id="lnk56"><path d="M1831.31,457.2194 C1825.48,458.3394 1819.64,459.3294 1814,460.1094 C1536.32,498.4494 1462.88,461.7294 1184,490.1094 C1132.53,495.3494 1120.49,503.0994 1069,508.1094 C1023.18,512.5694 906,502.5794 862,516.1094 C832.38,525.2094 806.8239,541.118 785.3639,557.058" fill="none" id="BE_Training-to-Core_Zoo" style="stroke:#181818;stroke-width:1;"/><polygon fill="#181818" points="781.35,560.0394,790.9601,557.8839,785.3639,557.058,786.1898,551.4617,781.35,560.0394" style="stroke:#181818;stroke-width:1;stroke-linejoin:miter;stroke-miterlimit:10;"/></g><!--link BE_Inference to Core_Tensor--><g class="link" data-entity-1="ent0016" data-entity-2="ent0023" data-link-type="dependency" data-source-line="74" id="lnk57"><path d="M1987.18,456.7894 C1981.38,457.9594 1975.59,459.0894 1970,460.1094 C1824.19,486.6794 1787.74,496.3694 1640,508.1094 C1608.82,510.5894 1106.92,506.9794 1077,516.1094 C1042.95,526.4994 1013.354,547.9581 992.924,565.1681" fill="none" id="BE_Inference-to-Core_Tensor" style="stroke:#181818;stroke-width:1;"/><polygon fill="#181818" points="989.1,568.3894,998.5603,565.6502,992.924,565.1681,993.4062,559.5318,989.1,568.3894" style="stroke:#181818;stroke-width:1;stroke-linejoin:miter;stroke-miterlimit:10;"/><text fill="#000000" font-family="sans-serif" font-size="13" lengthAdjust="spacing" textLength="52.0063" x="1801" y="504.6045">forward()</text></g><!--link BE_Inference to Core_Zoo--><g class="link" data-entity-1="ent0016" data-entity-2="ent0027" data-link-type="dependency" data-source-line="75" id="lnk58"><path d="M1987.24,457.1194 C1981.43,458.2294 1975.62,459.2394 1970,460.1094 C1822.7,482.7994 1780.81,454.8294 1636,490.1094 C1615.47,495.1094 1612.71,503.9194 1592,508.1094 C1552.25,516.1494 900.93,504.7294 862,516.1094 C832.26,524.7994 806.6913,540.7112 785.2713,556.7612" fill="none" id="BE_Inference-to-Core_Zoo" style="stroke:#181818;stroke-width:1;"/><polygon fill="#181818" points="781.27,559.7594,790.871,557.5637,785.2713,556.7612,786.0739,551.1615,781.27,559.7594" style="stroke:#181818;stroke-width:1;stroke-linejoin:miter;stroke-miterlimit:10;"/></g><!--link BE_Data to DS--><g class="link" data-entity-1="ent0014" data-entity-2="ent0029" data-link-type="dependency" data-source-line="77" id="lnk59"><path d="M1641.91,457.6194 C1636.2,458.5394 1630.52,459.3794 1625,460.1094 C1533.99,472.0994 1291.39,442.3294 1213,490.1094 C1183.99,507.7894 1168.8773,540.9116 1161.0673,563.6016" fill="none" id="BE_Data-to-DS" style="stroke:#181818;stroke-width:1;"/><polygon fill="#181818" points="1159.44,568.3294,1166.1514,561.1212,1161.0673,563.6016,1158.587,558.5175,1159.44,568.3294" style="stroke:#181818;stroke-width:1;stroke-linejoin:miter;stroke-miterlimit:10;"/><text fill="#000000" font-family="sans-serif" font-size="13" lengthAdjust="spacing" textLength="119.228" x="1214" y="504.6045">load/preprocess/split</text></g><!--link BE_Training to BE_GPU--><g class="link" data-entity-1="ent0015" data-entity-2="ent0017" data-link-type="dependency" data-source-line="78" id="lnk60"><path d="M1899.6,460.1194 C1910.21,485.2394 1927.5653,526.3631 1939.8253,555.4031" fill="none" id="BE_Training-to-BE_GPU" style="stroke:#181818;stroke-width:1;"/><polygon fill="#181818" points="1941.77,560.0094,1941.9546,550.1622,1939.8253,555.4031,1934.5845,553.2737,1941.77,560.0094" style="stroke:#181818;stroke-width:1;stroke-linejoin:miter;stroke-miterlimit:10;"/><text fill="#000000" font-family="sans-serif" font-size="13" lengthAdjust="spacing" textLength="59.96" x="1919" y="504.6045">matrix ops</text></g><!--link BE_Inference to BE_GPU--><g class="link" data-entity-1="ent0016" data-entity-2="ent0017" data-link-type="dependency" data-source-line="79" id="lnk61"><path d="M2039.66,460.1194 C2022.45,485.2394 1993.9464,526.8449 1974.0464,555.8849" fill="none" id="BE_Inference-to-BE_GPU" style="stroke:#181818;stroke-width:1;"/><polygon fill="#181818" points="1971.22,560.0094,1979.6071,554.8463,1974.0464,555.8849,1973.0079,550.3242,1971.22,560.0094" style="stroke:#181818;stroke-width:1;stroke-linejoin:miter;stroke-miterlimit:10;"/><text fill="#000000" font-family="sans-serif" font-size="13" lengthAdjust="spacing" textLength="59.96" x="2018" y="504.6045">matrix ops</text></g><!--link BE_GPU to GPU--><g class="link" data-entity-1="ent0017" data-entity-2="ent0030" data-link-type="dependency" data-source-line="80" id="lnk62"><path d="M1953,615.1294 C1953,638.6594 1953,667.6894 1953,690.0894" fill="none" id="BE_GPU-to-GPU" style="stroke:#181818;stroke-width:1;"/><polygon fill="#181818" points="1953,695.0894,1957,686.0894,1953,690.0894,1949,686.0894,1953,695.0894" style="stroke:#181818;stroke-width:1;stroke-linejoin:miter;stroke-miterlimit:10;"/><text fill="#000000" font-family="sans-serif" font-size="13" lengthAdjust="spacing" textLength="54.1963" x="1954" y="661.6045">utilization</text></g><!--link BE_Log to DB--><g class="link" data-entity-1="ent0018" data-entity-2="ent0028" data-link-type="dependency" data-source-line="82" id="lnk63"><path d="M1474.59,457.6294 C1469,458.5994 1463.42,459.4494 1458,460.1094 C1239.53,486.8794 682.48,440.6694 468,490.1094 C449,494.4894 446.99,503.6994 428,508.1094 C376.24,520.1294 239.42,499.3194 189,516.1094 C159.58,525.9094 134.8658,543.9417 115.6858,560.5917" fill="none" id="BE_Log-to-DB" style="stroke:#181818;stroke-width:1;"/><polygon fill="#181818" points="111.91,563.8694,121.3286,560.9901,115.6858,560.5917,116.0842,554.9488,111.91,563.8694" style="stroke:#181818;stroke-width:1;stroke-linejoin:miter;stroke-miterlimit:10;"/><text fill="#000000" font-family="sans-serif" font-size="13" lengthAdjust="spacing" textLength="127.188" x="469" y="504.6045">training/inference logs</text></g><!--link BE_Model to DB--><g class="link" data-entity-1="ent0013" data-entity-2="ent0028" data-link-type="dependency" data-source-line="83" id="lnk64"><path d="M1245.85,443.4194 C1026.47,446.8994 498.21,458.4094 323,490.1094 C297.27,494.7594 292.59,502.7494 267,508.1094 C232.89,515.2594 221.67,503.9694 189,516.1094 C160.14,526.8394 135.6093,544.5724 116.3293,560.8624" fill="none" id="BE_Model-to-DB" style="stroke:#181818;stroke-width:1;"/><polygon fill="#181818" points="112.51,564.0894,121.9662,561.3363,116.3293,560.8624,116.8031,555.2254,112.51,564.0894" style="stroke:#181818;stroke-width:1;stroke-linejoin:miter;stroke-miterlimit:10;"/><text fill="#000000" font-family="sans-serif" font-size="13" lengthAdjust="spacing" textLength="99.7217" x="324" y="504.6045">models/metadata</text></g><!--link BE_Data to DB--><g class="link" data-entity-1="ent0014" data-entity-2="ent0028" data-link-type="dependency" data-source-line="84" id="lnk65"><path d="M1641.94,457.8494 C1636.22,458.7094 1630.53,459.4794 1625,460.1094 C1260.86,501.3594 1166.74,467.0094 801,490.1094 C711.93,495.7394 690.12,503.2394 601,508.1094 C578.14,509.3594 210.77,509.0294 189,516.1094 C159.31,525.7594 134.3943,544.0485 115.2343,560.7985" fill="none" id="BE_Data-to-DB" style="stroke:#181818;stroke-width:1;"/><polygon fill="#181818" points="111.47,564.0894,120.8785,561.1773,115.2343,560.7985,115.6131,555.1544,111.47,564.0894" style="stroke:#181818;stroke-width:1;stroke-linejoin:miter;stroke-miterlimit:10;"/><text fill="#000000" font-family="sans-serif" font-size="13" lengthAdjust="spacing" textLength="67.9263" x="802" y="504.6045">dataset refs</text></g><!--link BE_Backup to DB--><g class="link" data-entity-1="ent0020" data-entity-2="ent0028" data-link-type="dependency" data-source-line="85" id="lnk66"><path d="M1246.24,225.1894 C1022.51,225.8494 308.05,231.3894 215,275.1094 C161.18,300.3994 151.14,320.6994 125,374.1094 C93.81,437.8494 88.5994,518.66 87.9594,558.95" fill="none" id="BE_Backup-to-DB" style="stroke:#181818;stroke-width:1;"/><polygon fill="#181818" points="87.88,563.9494,92.0224,555.014,87.9594,558.95,84.0235,554.887,87.88,563.9494" style="stroke:#181818;stroke-width:1;stroke-linejoin:miter;stroke-miterlimit:10;"/><text fill="#000000" font-family="sans-serif" font-size="13" lengthAdjust="spacing" textLength="88.8799" x="126" y="388.6045">backup/recover</text></g><!--link BE_Fault to BE_Training--><g class="link" data-entity-1="ent0019" data-entity-2="ent0015" data-link-type="dependency" data-source-line="86" id="lnk67"><path d="M1937.86,344.1894 C1923.35,351.2794 1909.38,360.9694 1900,374.1094 C1890.14,387.9194 1888.6973,402.6368 1889.4773,416.9168" fill="none" id="BE_Fault-to-BE_Training" style="stroke:#181818;stroke-width:1;"/><polygon fill="#181818" points="1889.75,421.9094,1893.2532,412.7046,1889.4773,416.9168,1885.2651,413.1409,1889.75,421.9094" style="stroke:#181818;stroke-width:1;stroke-linejoin:miter;stroke-miterlimit:10;"/><text fill="#000000" font-family="sans-serif" font-size="13" lengthAdjust="spacing" textLength="112.7407" x="1901" y="388.6045">manage exceptions</text></g><!--link BE_Fault to BE_Inference--><g class="link" data-entity-1="ent0019" data-entity-2="ent0016" data-link-type="dependency" data-source-line="87" id="lnk68"><path d="M2007.4,344.1694 C2017.26,365.3894 2031.4306,395.8761 2041.3606,417.2161" fill="none" id="BE_Fault-to-BE_Inference" style="stroke:#181818;stroke-width:1;"/><polygon fill="#181818" points="2043.47,421.7494,2043.2996,411.902,2041.3606,417.2161,2036.0464,415.2771,2043.47,421.7494" style="stroke:#181818;stroke-width:1;stroke-linejoin:miter;stroke-miterlimit:10;"/><text fill="#000000" font-family="sans-serif" font-size="13" lengthAdjust="spacing" textLength="112.7407" x="2029" y="388.6045">manage exceptions</text></g><!--link BE_Log to FE_Monitor--><g class="link" data-entity-1="ent0018" data-entity-2="ent0010" data-link-type="dependency" data-source-line="88" id="lnk69"><path d="M1607.32,424.9094 C1613.28,423.8494 1619.24,422.8894 1625,422.1094 C1856.62,390.8694 1917.5,415.8794 2150,392.1094 C2528.11,353.4494 2628.57,364.3794 2996,267.1094 C3019.05,261.0094 3039.2887,253.4923 3059.3287,245.0923" fill="none" id="BE_Log-to-FE_Monitor" style="stroke:#181818;stroke-width:1;"/><polygon fill="#181818" points="3063.94,243.1594,3054.0934,242.9495,3059.3287,245.0923,3057.186,250.3276,3063.94,243.1594" style="stroke:#181818;stroke-width:1;stroke-linejoin:miter;stroke-miterlimit:10;"/><text fill="#000000" font-family="sans-serif" font-size="13" lengthAdjust="spacing" textLength="80.1836" x="2837" y="330.6045">metrics/status</text></g><!--link BE_Sec to BE_API--><g class="link" data-entity-1="ent0021" data-entity-2="ent0012" data-link-type="dependency" data-source-line="89" id="lnk70"><path d="M1688.7,243.2694 C1715.94,261.1294 1753.1193,285.4968 1780.2993,303.3268" fill="none" id="BE_Sec-to-BE_API" style="stroke:#181818;stroke-width:1;stroke-dasharray:7,7;"/><polygon fill="#181818" points="1784.48,306.0694,1779.1487,297.7882,1780.2993,303.3268,1774.7607,304.4774,1784.48,306.0694" style="stroke:#181818;stroke-width:1;stroke-linejoin:miter;stroke-miterlimit:10;"/></g><!--link BE_Sec to DB--><g class="link" data-entity-1="ent0021" data-entity-2="ent0028" data-link-type="dependency" data-source-line="90" id="lnk71"><path d="M1565.58,241.2594 C1292.82,287.7494 513.34,422.8194 263,490.1094 C229.34,499.1594 220.02,500.2094 189,516.1094 C162.74,529.5694 139.4042,545.9623 119.8242,561.0123" fill="none" id="BE_Sec-to-DB" style="stroke:#181818;stroke-width:1;stroke-dasharray:7,7;"/><polygon fill="#181818" points="115.86,564.0594,125.4333,561.746,119.8242,561.0123,120.558,555.4032,115.86,564.0594" style="stroke:#181818;stroke-width:1;stroke-linejoin:miter;stroke-miterlimit:10;"/></g><?plantuml-src TLPDR-Cs4BthLn0-B1AWMM6zjnuAn76-03jDrycsA0e44sgi4958WQISzHRzxnsI-Y9jdoozUJFa31-VR8MjaAttJqhpDxRP6uirkwHdOP7RLcEMcNSX6z1GCwxgHacKTcFtbAM90RAiS49fWBz3YQS9vWqAzI5aoRPG6IeFt2hDPal4XgqGj7In1PP2IjGp1eOzVnb9EwnKWvhbx0cfsXhhrvurxraR2-_ufggYZtpDicvVRFPTc1OgTgELjEnQ5fvnSyt-pTZO7vkjGKXsBotgBN3iI2yEZNbNIcv5sMgmGXr92E4uvKbJ5TVa0Tj7OlAztA96oV6GxKCn-xOL1JZo9tQ7LTCptNFIdfA2PkLsyOc5aOYVleUXrS38_flChfF7Wjw7qIqEHdVvUCzkmU87x3l62q7f-WLMR0sIwjOEsQ3UYQwtXLkTud7A4YombOB2RJgXkzY98IVC7ZyrvOG-198vFpupr-OAzgZ_aMUNhLKN1RehymlxXaQrccgjovfUhoWDx7bVaLBZMYjLbk4SrcYruAPdKY1cta1RMNO7igX2mZVaQeTw6BCdn3dkhDh6SmqTvz1Om6Fk1dchXTqJ-r6B7V0zRLvQhQfXJqI95D4RHyuU7gxfKa6D7qg_U_eLBPTgmsDFA8tIXfPnSoir50F_9SJYfDyRAshn4xKPUOIbOpIasrPo9-89qU4nyqyKvPkb-oIi66HFXtY7-L-m4wZp5Gr2deyr73Nfem9Z16TUfuQIQRmFQFFljxSvIKoQhT8rwacDlvLoaoj8gQzWt6NwOqKUIuhcP4VB3lRyvIBZggemjC9cZneDMi-Xtz3RSfD9MZj8aMoHD7jcmd9EOTdp5tPnyTlWMUDhvqWZ44ndV0-syZoFy-Tf_Zp9doVvNwFyh7lmO6S8Gx44z0KJp1TDiCwX4jHvtHJAmcyF1ME9CUyUCJJOH0oFTX3ZxgfcVNKFzcVEVcLS8xbXphil1RBQYoQRB3Ec1FrJblLZFSfnsZyQy5e_6l4AFXfnkfnsTcGhfEKFqCNP-GcYAv5rS_JeSaDP5LbrtcXijE9eJ6wQwiWUWYCIlGOolnzCDUPmbHCaXxbmYBLMz9VPxuRE96ncqK-Jrip5KBXIfOdFp3F3uUGrMYWwNOnzEK8HhY7zkTdw_CvXX_YhVyzryEQij-LKMRuRz_bZ-8DZuw_w0NaSmmbst-JaEX0pV4ToOy6sdaQspJv_7kx4126l-Hy0?></g></svg>