<svg xmlns="http://www.w3.org/2000/svg" xmlns:xlink="http://www.w3.org/1999/xlink" contentStyleType="text/css" data-diagram-type="DESCRIPTION" height="1111px" preserveAspectRatio="none" style="width:2057px;height:1111px;background:#FFFFFF;" version="1.1" viewBox="0 0 2057 1111" width="2057px" zoomAndPan="magnify"><?plantuml 1.2026.6?><defs/><g><g class="title" data-source-line="1"><text fill="#000000" font-family="sans-serif" font-size="14" font-weight="700" lengthAdjust="spacing" textLength="454.3301" x="797.8512" y="24.5332">AI-Driven Text Adventure Game &amp; Community - System Architecture</text></g><!--cluster Browser--><g class="cluster" data-qualified-name="Browser" data-source-line="8" id="ent0002"><polygon fill="none" points="201,420.7694,211,410.7694,396.72,410.7694,396.72,529.7694,386.72,539.7694,201,539.7694,201,420.7694" style="stroke:#181818;stroke-width:1;stroke-linejoin:miter;stroke-miterlimit:10;"/><line style="stroke:#181818;stroke-width:1;" x1="386.72" x2="396.72" y1="420.7694" y2="410.7694"/><line style="stroke:#181818;stroke-width:1;" x1="201" x2="386.72" y1="420.7694" y2="420.7694"/><line style="stroke:#181818;stroke-width:1;" x1="386.72" x2="386.72" y1="420.7694" y2="539.7694"/><text fill="#000000" font-family="sans-serif" font-size="14" font-weight="700" lengthAdjust="spacing" textLength="89.4619" x="250.129" y="438.3026">Web Browser</text></g><!--cluster K8s--><g class="cluster" data-qualified-name="K8s" data-source-line="14" id="ent0005"><polygon fill="none" points="549.72,56.7694,559.72,46.7694,1573.72,46.7694,1573.72,701.7694,1563.72,711.7694,549.72,711.7694,549.72,56.7694" style="stroke:#181818;stroke-width:1;stroke-linejoin:miter;stroke-miterlimit:10;"/><line style="stroke:#181818;stroke-width:1;" x1="1563.72" x2="1573.72" y1="56.7694" y2="46.7694"/><line style="stroke:#181818;stroke-width:1;" x1="549.72" x2="1563.72" y1="56.7694" y2="56.7694"/><line style="stroke:#181818;stroke-width:1;" x1="1563.72" x2="1563.72" y1="56.7694" y2="711.7694"/><text fill="#000000" font-family="sans-serif" font-size="14" font-weight="700" lengthAdjust="spacing" textLength="129.1445" x="993.1477" y="74.3026">Kubernetes Cluster</text><text fill="#000000" font-family="sans-serif" font-size="14" font-weight="700" lengthAdjust="spacing" textLength="145.5166" x="984.9617" y="91.912">(Dockerized Services)</text></g><!--cluster Backend--><g class="cluster" data-qualified-name="K8s.Backend" data-source-line="17" id="ent0007"><path d="M808.22,121.7694 L1051.9915,121.7694 A3.75,3.75 0 0 1 1054.4915,124.2694 L1061.4915,145.3787 L1539.22,145.3787 A2.5,2.5 0 0 1 1541.72,147.8787 L1541.72,677.2694 A2.5,2.5 0 0 1 1539.22,679.7694 L808.22,679.7694 A2.5,2.5 0 0 1 805.72,677.2694 L805.72,124.2694 A2.5,2.5 0 0 1 808.22,121.7694" fill="none" style="stroke:#000000;stroke-width:1.5;"/><line style="stroke:#000000;stroke-width:1.5;" x1="805.72" x2="1061.4915" y1="145.3787" y2="145.3787"/><text fill="#000000" font-family="sans-serif" font-size="14" font-weight="700" lengthAdjust="spacing" textLength="242.7715" x="809.72" y="138.3026">Backend Services (Go + Iris + Gorm)</text></g><!--entity Frontend--><g class="entity" data-qualified-name="Browser.Frontend" data-source-line="9" id="ent0003"><rect fill="#F1F1F1" height="55.2188" rx="2.5" ry="2.5" style="stroke:#181818;stroke-width:0.5;" width="102.0791" x="270.72" y="460.2694"/><text fill="#000000" font-family="sans-serif" font-size="14" lengthAdjust="spacing" textLength="60.6758" x="280.72" y="484.8026">Nuxt.js UI</text><text fill="#000000" font-family="sans-serif" font-size="14" lengthAdjust="spacing" textLength="82.0791" x="280.72" y="502.412">(SSR + SPA)</text></g><!--entity APIGW--><g class="entity" data-qualified-name="K8s.APIGW" data-source-line="15" id="ent0006"><rect fill="#F1F1F1" height="55.2188" rx="2.5" ry="2.5" style="stroke:#181818;stroke-width:0.5;" width="155.3926" x="565.72" y="365.2694"/><text fill="#000000" font-family="sans-serif" font-size="14" lengthAdjust="spacing" textLength="135.3926" x="575.72" y="389.8026">API Gateway / Router</text><text fill="#000000" font-family="sans-serif" font-size="14" lengthAdjust="spacing" textLength="50.5518" x="575.72" y="407.412">(Go Iris)</text></g><!--entity AuthSvc--><g class="entity" data-qualified-name="K8s.Backend.AuthSvc" data-source-line="18" id="ent0008"><rect fill="#F1F1F1" height="72.8281" rx="2.5" ry="2.5" style="stroke:#181818;stroke-width:0.5;" width="195.0615" x="851.72" y="239.2694"/><text fill="#000000" font-family="sans-serif" font-size="14" lengthAdjust="spacing" textLength="126.0479" x="861.72" y="263.8026">Auth &amp; User Service</text><text fill="#000000" font-family="sans-serif" font-size="14" lengthAdjust="spacing" textLength="161.0889" x="861.72" y="281.412">(registration, login, logout,</text><text fill="#000000" font-family="sans-serif" font-size="14" lengthAdjust="spacing" textLength="175.0615" x="861.72" y="299.0213">password recovery, profiles)</text></g><!--entity CommunitySvc--><g class="entity" data-qualified-name="K8s.Backend.CommunitySvc" data-source-line="19" id="ent0009"><rect fill="#F1F1F1" height="72.8281" rx="2.5" ry="2.5" style="stroke:#181818;stroke-width:0.5;" width="185.7373" x="1331.72" y="166.2694"/><text fill="#000000" font-family="sans-serif" font-size="14" lengthAdjust="spacing" textLength="121.3652" x="1341.72" y="190.8026">Community Service</text><text fill="#000000" font-family="sans-serif" font-size="14" lengthAdjust="spacing" textLength="163.3857" x="1341.72" y="208.412">(posts, comments, replies,</text><text fill="#000000" font-family="sans-serif" font-size="14" lengthAdjust="spacing" textLength="165.7373" x="1341.72" y="226.0213">search, recommendations)</text></g><!--entity FavoritesSvc--><g class="entity" data-qualified-name="K8s.Backend.FavoritesSvc" data-source-line="20" id="ent0010"><rect fill="#F1F1F1" height="37.6094" rx="2.5" ry="2.5" style="stroke:#181818;stroke-width:0.5;" width="128.1445" x="885.22" y="165.7694"/><text fill="#000000" font-family="sans-serif" font-size="14" lengthAdjust="spacing" textLength="108.1445" x="895.22" y="190.3026">Favorites Service</text></g><!--entity NotifySvc--><g class="entity" data-qualified-name="K8s.Backend.NotifySvc" data-source-line="21" id="ent0011"><rect fill="#F1F1F1" height="55.2188" rx="2.5" ry="2.5" style="stroke:#181818;stroke-width:0.5;" width="238.6748" x="829.72" y="581.2694"/><text fill="#000000" font-family="sans-serif" font-size="14" lengthAdjust="spacing" textLength="119.8271" x="839.72" y="605.8026">Notification Service</text><text fill="#000000" font-family="sans-serif" font-size="14" lengthAdjust="spacing" textLength="218.6748" x="839.72" y="623.412">(create/view/delete, unread counts)</text></g><!--entity AdminSvc--><g class="entity" data-qualified-name="K8s.Backend.AdminSvc" data-source-line="22" id="ent0012"><rect fill="#F1F1F1" height="72.8281" rx="2.5" ry="2.5" style="stroke:#181818;stroke-width:0.5;" width="146.834" x="875.72" y="473.2694"/><text fill="#000000" font-family="sans-serif" font-size="14" lengthAdjust="spacing" textLength="90.2549" x="885.72" y="497.8026">Admin Service</text><text fill="#000000" font-family="sans-serif" font-size="14" lengthAdjust="spacing" textLength="126.8271" x="885.72" y="515.412">(review, moderation,</text><text fill="#000000" font-family="sans-serif" font-size="14" lengthAdjust="spacing" textLength="126.834" x="885.72" y="533.0213">ban/restore, reports)</text></g><!--entity GameSvc--><g class="entity" data-qualified-name="K8s.Backend.GameSvc" data-source-line="23" id="ent0013"><rect fill="#F1F1F1" height="90.4375" rx="2.5" ry="2.5" style="stroke:#181818;stroke-width:0.5;" width="196.6543" x="850.72" y="347.7694"/><text fill="#000000" font-family="sans-serif" font-size="14" lengthAdjust="spacing" textLength="88.6963" x="860.72" y="372.3026">Game Service</text><text fill="#000000" font-family="sans-serif" font-size="14" lengthAdjust="spacing" textLength="120.6064" x="860.72" y="389.912">(LLM orchestration,</text><text fill="#000000" font-family="sans-serif" font-size="14" lengthAdjust="spacing" textLength="176.6543" x="860.72" y="407.5213">saves, background, choices,</text><text fill="#000000" font-family="sans-serif" font-size="14" lengthAdjust="spacing" textLength="126.8203" x="860.72" y="425.1307">share to community)</text></g><!--entity EndUser--><g class="entity" data-qualified-name="EndUser" data-source-line="6" id="ent0001"><ellipse cx="76.0273" cy="457.2694" fill="#F1F1F1" rx="8" ry="8" style="stroke:#181818;stroke-width:0.5;"/><path d="M76.0273,465.2694 L76.0273,492.2694 M63.0273,473.2694 L89.0273,473.2694 M76.0273,492.2694 L63.0273,507.2694 M76.0273,492.2694 L89.0273,507.2694" fill="none" style="stroke:#181818;stroke-width:0.5;"/><text fill="#000000" font-family="sans-serif" font-size="14" lengthAdjust="spacing" textLength="140.0547" x="6" y="523.3026">Guest / Player / Admin</text></g><!--entity LLM--><g class="entity" data-qualified-name="LLM" data-source-line="12" id="ent0004"><path d="M1341.8759,738.2998 C1344.6717,731.4379 1349.2612,730.6357 1353.8186,736.6683 C1356.4183,729.8695 1362.3169,729.9313 1366.6487,734.7566 C1369.079,729.681 1373.3033,728.6954 1377.4723,732.6792 C1380.643,727.1635 1386.0546,727.6875 1389.3934,732.4848 C1392.5114,725.7558 1397.4031,724.8148 1402.1416,730.8687 C1404.274,724.9911 1409.6041,723.2334 1414.058,728.3532 C1416.8207,723.4201 1420.9986,721.3738 1425.0948,726.9532 C1429.9088,722.0393 1436.551,723.2522 1438.8031,729.972 C1442.1543,724.7636 1448.0166,725.0987 1450.6174,730.7858 C1455.0181,725.9977 1459.0746,725.928 1461.8864,732.3789 C1465.6484,726.1128 1469.7909,726.8244 1473.4109,732.5156 C1477.834,727.1009 1482.3904,728.5171 1485.4394,734.0283 C1489.2732,729.4396 1494.391,730.7391 1496.7022,735.8045 C1501.2811,730.2189 1506.5782,731.5685 1509.1532,737.8984 C1514.9307,739.9236 1516.1888,743.4886 1512.8056,748.6312 C1520.0344,752.8337 1519.9394,757.3757 1513.7169,762.4643 C1519.466,766.5086 1518.9372,771.6804 1512.452,774.4316 C1517.0447,779.4328 1515.7372,784.567 1508.7472,785.7902 C1505.8636,792.4905 1500.3221,792.5948 1496.7585,786.4236 C1494.0097,791.2972 1489.3878,791.8858 1485.7152,787.5289 C1482.1698,793.5919 1478.3153,795.1274 1472.709,789.9038 C1469.3745,795.0854 1465.0816,794.3632 1462.5206,789.146 C1459.7198,795.4871 1455.4747,796.659 1450.5741,791.2879 C1446.7454,796.8667 1442.1496,798.0355 1437.8507,791.7941 C1434.6495,798.2697 1431.0671,798.8852 1426.3848,793.1893 C1422.1943,797.2821 1417.055,796.3265 1414.6717,790.9531 C1411.0958,797.2248 1406.7768,797.6014 1402.7375,791.3964 C1398.6146,796.6391 1393.4093,795.0846 1390.901,789.6127 C1385.6833,795.5247 1381.483,794.6585 1377.4114,788.3478 C1373.8329,793.0917 1370.0468,792.2874 1366.9088,787.8443 C1362.288,795.0208 1357.6058,794.9152 1353.4347,787.431 C1349.6916,791.9742 1345.4499,793.1921 1342.0285,787.0864 C1334.8312,783.425 1334.8966,778.6856 1340.8495,773.8526 C1335.1133,770.2314 1335.8091,766.5724 1340.6351,762.7473 C1333.9501,758.6541 1335.0532,753.5946 1340.9031,749.7601 C1335.5314,745.5313 1335.4548,741.5277 1341.8759,738.2998" fill="#F1F1F1" style="stroke:#181818;stroke-width:0.5;"/><text fill="#000000" font-family="sans-serif" font-size="14" lengthAdjust="spacing" textLength="83.2549" x="1348.22" y="757.8026">LLM Provider</text><text fill="#000000" font-family="sans-serif" font-size="14" lengthAdjust="spacing" textLength="153.3301" x="1348.22" y="775.412">(Large Language Model)</text></g><!--entity MySQL--><g class="entity" data-qualified-name="MySQL" data-source-line="27" id="ent0014"><path d="M1620.72,377.7694 C1620.72,367.7694 1708.5198,367.7694 1708.5198,367.7694 C1708.5198,367.7694 1796.3196,367.7694 1796.3196,377.7694 L1796.3196,421.9881 C1796.3196,431.9881 1708.5198,431.9881 1708.5198,431.9881 C1708.5198,431.9881 1620.72,431.9881 1620.72,421.9881 L1620.72,377.7694" fill="#F1F1F1" style="stroke:#181818;stroke-width:0.5;"/><path d="M1620.72,377.7694 C1620.72,387.7694 1708.5198,387.7694 1708.5198,387.7694 C1708.5198,387.7694 1796.3196,387.7694 1796.3196,377.7694" fill="none" style="stroke:#181818;stroke-width:0.5;"/><text fill="#000000" font-family="sans-serif" font-size="14" lengthAdjust="spacing" textLength="46.6758" x="1630.72" y="406.3026">MySQL</text><text fill="#000000" font-family="sans-serif" font-size="14" lengthAdjust="spacing" textLength="155.5996" x="1630.72" y="423.912">(Relational DB via Gorm)</text></g><g class="entity" data-qualified-name="GMN33" data-source-line="62" id="ent0034"><path d="M781.72,728.2694 L781.72,787.3241 L1116.3133,787.3241 L1116.3133,738.2694 L1106.3133,728.2694 L781.72,728.2694" fill="#FEFFDD" style="stroke:#181818;stroke-width:0.5;"/><path d="M1106.3133,728.2694 L1106.3133,738.2694 L1116.3133,738.2694 L1106.3133,728.2694" fill="#FEFFDD" style="stroke:#181818;stroke-width:1;"/><text fill="#000000" font-family="sans-serif" font-size="13" lengthAdjust="spacing" textLength="277.4751" x="787.72" y="746.7645">- Modular components per SRS functional areas</text><text fill="#000000" font-family="sans-serif" font-size="13" lengthAdjust="spacing" textLength="313.5933" x="787.72" y="763.1161">- Access control enforced in API gateway and services</text><text fill="#000000" font-family="sans-serif" font-size="13" lengthAdjust="spacing" textLength="255.0679" x="787.72" y="779.4676">- Sensitive data encrypted in transit &amp; at rest</text></g><g class="entity" data-qualified-name="GMN36" data-source-line="68" id="ent0037"><path d="M1857.72,329.2694 L1857.72,395.7694 L1797.02,399.7694 L1857.72,403.7694 L1857.72,470.0819 A0,0 0 0 0 1857.72,470.0819 L2042.0325,470.0819 A0,0 0 0 0 2042.0325,470.0819 L2042.0325,339.2694 L2032.0325,329.2694 L1857.72,329.2694 A0,0 0 0 0 1857.72,329.2694" fill="#FEFFDD" style="stroke:#181818;stroke-width:0.5;"/><path d="M2032.0325,329.2694 L2032.0325,339.2694 L2042.0325,339.2694 L2032.0325,329.2694" fill="#FEFFDD" style="stroke:#181818;stroke-width:0.5;"/><text fill="#000000" font-family="sans-serif" font-size="13" lengthAdjust="spacing" textLength="119.2153" x="1863.72" y="347.7645">Core tables (logical):</text><text fill="#000000" font-family="sans-serif" font-size="13" lengthAdjust="spacing" textLength="137.9917" x="1863.72" y="364.1161">- users, profiles, admins</text><text fill="#000000" font-family="sans-serif" font-size="13" lengthAdjust="spacing" textLength="122.1035" x="1863.72" y="380.4676">- posts, post_reviews</text><text fill="#000000" font-family="sans-serif" font-size="13" lengthAdjust="spacing" textLength="113.4199" x="1863.72" y="396.8192">- comments, replies</text><text fill="#000000" font-family="sans-serif" font-size="13" lengthAdjust="spacing" textLength="132.9453" x="1863.72" y="413.1707">- favorites, notifications</text><text fill="#000000" font-family="sans-serif" font-size="13" lengthAdjust="spacing" textLength="163.3125" x="1863.72" y="429.5223">- game_saves, backgrounds</text><text fill="#000000" font-family="sans-serif" font-size="13" lengthAdjust="spacing" textLength="127.1753" x="1863.72" y="445.8739">- game_state, choices</text><text fill="#000000" font-family="sans-serif" font-size="13" lengthAdjust="spacing" textLength="126.4326" x="1863.72" y="462.2254">- achievements, items</text></g><g class="entity" data-qualified-name="GMN39" data-source-line="79" id="ent0040"><path d="M1337.22,828.2694 L1337.22,903.6756 A0,0 0 0 0 1337.22,903.6756 L1512.1316,903.6756 A0,0 0 0 0 1512.1316,903.6756 L1512.1316,838.2694 L1502.1316,828.2694 L1428.72,828.2694 L1424.72,793.3494 L1420.72,828.2694 L1337.22,828.2694 A0,0 0 0 0 1337.22,828.2694" fill="#FEFFDD" style="stroke:#181818;stroke-width:0.5;"/><path d="M1502.1316,828.2694 L1502.1316,838.2694 L1512.1316,838.2694 L1502.1316,828.2694" fill="#FEFFDD" style="stroke:#181818;stroke-width:0.5;"/><text fill="#000000" font-family="sans-serif" font-size="13" lengthAdjust="spacing" textLength="153.9116" x="1343.22" y="846.7645">Non-functional constraints:</text><text fill="#000000" font-family="sans-serif" font-size="13" lengthAdjust="spacing" textLength="141.6416" x="1343.22" y="863.1161">- Text generation &lt;= 20s</text><text fill="#000000" font-family="sans-serif" font-size="13" lengthAdjust="spacing" textLength="145.9517" x="1343.22" y="879.4676">- Game/UX actions &lt;= 3s</text><text fill="#000000" font-family="sans-serif" font-size="13" lengthAdjust="spacing" textLength="148.8589" x="1343.22" y="895.8192">- &gt;= 100 concurrent users</text></g><!--link EndUser to Browser--><g class="link" data-entity-1="ent0001" data-entity-2="ent0002" data-link-type="dependency" data-source-line="30" id="lnk15"><path d="M146.14,487.7694 C161.47,487.7694 176.5475,487.7694 188.02,487.7694 C190.8881,487.7694 193.5309,487.7694 195.8961,487.7694 C197.0786,487.7694 198.1917,487.7694 199.2289,487.7694 C199.7475,487.7694 200.2471,487.7694 200.7269,487.7694 C200.7868,487.7694 195.8465,487.7694 195.9058,487.7694" fill="none" id="EndUser-to-Browser" style="stroke:#181818;stroke-width:1;"/><polygon fill="#181818" points="200.9058,487.7694,191.9058,483.7694,195.9058,487.7694,191.9058,491.7694,200.9058,487.7694" style="stroke:#181818;stroke-width:1;stroke-linejoin:miter;stroke-miterlimit:10;"/></g><!--link Browser to Frontend--><g class="link" data-entity-1="ent0002" data-entity-2="ent0003" data-link-type="dependency" data-source-line="31" id="lnk16"><path d="M209.8,487.7694 C211.57,487.7694 237.09,487.7694 265.67,487.7694" fill="none" id="Browser-to-Frontend" style="stroke:#181818;stroke-width:1;"/><polygon fill="#181818" points="270.67,487.7694,261.67,483.7694,265.67,487.7694,261.67,491.7694,270.67,487.7694" style="stroke:#181818;stroke-width:1;stroke-linejoin:miter;stroke-miterlimit:10;"/></g><!--link Frontend to APIGW--><g class="link" data-entity-1="ent0003" data-entity-2="ent0006" data-link-type="dependency" data-source-line="34" id="lnk17"><path d="M372.99,472.8194 C424.66,457.4594 500.9673,434.7643 560.6673,417.0143" fill="none" id="Frontend-to-APIGW" style="stroke:#181818;stroke-width:1;"/><polygon fill="#181818" points="565.46,415.5894,555.6933,414.3202,560.6673,417.0143,557.9732,421.9884,565.46,415.5894" style="stroke:#181818;stroke-width:1;stroke-linejoin:miter;stroke-miterlimit:10;"/><text fill="#000000" font-family="sans-serif" font-size="13" lengthAdjust="spacing" textLength="111.96" x="421.72" y="423.2645">HTTPS/JSON APIs</text></g><!--link APIGW to AuthSvc--><g class="link" data-entity-1="ent0006" data-entity-2="ent0008" data-link-type="dependency" data-source-line="37" id="lnk18"><path d="M700.45,365.2094 C725.11,353.5994 754.56,340.3494 781.72,329.7694 C804.09,321.0494 823.7586,314.1264 846.8286,306.5664" fill="none" id="APIGW-to-AuthSvc" style="stroke:#181818;stroke-width:1;"/><polygon fill="#181818" points="851.58,305.0094,841.7819,304.0109,846.8286,306.5664,844.2731,311.6131,851.58,305.0094" style="stroke:#181818;stroke-width:1;stroke-linejoin:miter;stroke-miterlimit:10;"/></g><!--link APIGW to CommunitySvc--><g class="link" data-entity-1="ent0006" data-entity-2="ent0009" data-link-type="dependency" data-source-line="38" id="lnk19"><path d="M650.14,365.0294 C663.2,311.6194 700.06,195.5794 781.72,147.7694 C957.9,44.6094 1204.4917,114.6987 1334.2417,164.4687" fill="none" id="APIGW-to-CommunitySvc" style="stroke:#181818;stroke-width:1;"/><polygon fill="#181818" points="1338.91,166.2594,1331.9395,159.3014,1334.2417,164.4687,1329.0744,166.7708,1338.91,166.2594" style="stroke:#181818;stroke-width:1;stroke-linejoin:miter;stroke-miterlimit:10;"/></g><!--link APIGW to FavoritesSvc--><g class="link" data-entity-1="ent0006" data-entity-2="ent0010" data-link-type="dependency" data-source-line="39" id="lnk20"><path d="M658.52,365.1094 C679.9,326.6394 723.97,257.6594 781.72,221.7694 C812.65,202.5394 847.3457,193.9237 880.1857,189.4537" fill="none" id="APIGW-to-FavoritesSvc" style="stroke:#181818;stroke-width:1;"/><polygon fill="#181818" points="885.14,188.7794,875.6827,186.0298,880.1857,189.4537,876.7617,193.9567,885.14,188.7794" style="stroke:#181818;stroke-width:1;stroke-linejoin:miter;stroke-miterlimit:10;"/></g><!--link APIGW to NotifySvc--><g class="link" data-entity-1="ent0006" data-entity-2="ent0011" data-link-type="dependency" data-source-line="40" id="lnk21"><path d="M679.07,420.4094 C701.95,439.8994 731.3,467.6394 751.72,496.7694 C770.45,523.4794 756.91,542.5794 781.72,563.7694 C795.5,575.5294 807.3763,582.4991 824.6363,588.9491" fill="none" id="APIGW-to-NotifySvc" style="stroke:#181818;stroke-width:1;"/><polygon fill="#181818" points="829.32,590.6994,822.2896,583.802,824.6363,588.9491,819.4892,591.2958,829.32,590.6994" style="stroke:#181818;stroke-width:1;stroke-linejoin:miter;stroke-miterlimit:10;"/></g><!--link APIGW to AdminSvc--><g class="link" data-entity-1="ent0006" data-entity-2="ent0012" data-link-type="dependency" data-source-line="41" id="lnk22"><path d="M701.86,420.3694 C726.25,431.6294 755.12,444.4094 781.72,454.7694 C812.07,466.5894 841.3798,476.5994 870.7498,486.0394" fill="none" id="APIGW-to-AdminSvc" style="stroke:#181818;stroke-width:1;"/><polygon fill="#181818" points="875.51,487.5694,868.1657,481.0073,870.7498,486.0394,865.7177,488.6235,875.51,487.5694" style="stroke:#181818;stroke-width:1;stroke-linejoin:miter;stroke-miterlimit:10;"/></g><!--link APIGW to GameSvc--><g class="link" data-entity-1="ent0006" data-entity-2="ent0013" data-link-type="dependency" data-source-line="42" id="lnk23"><path d="M720.93,392.7694 C760.24,392.7694 803.55,392.7694 845.5,392.7694" fill="none" id="APIGW-to-GameSvc" style="stroke:#181818;stroke-width:1;"/><polygon fill="#181818" points="850.5,392.7694,841.5,388.7694,845.5,392.7694,841.5,396.7694,850.5,392.7694" style="stroke:#181818;stroke-width:1;stroke-linejoin:miter;stroke-miterlimit:10;"/></g><!--link AuthSvc to MySQL--><g class="link" data-entity-1="ent0008" data-entity-2="ent0014" data-link-type="dependency" data-source-line="45" id="lnk24"><path d="M1046.89,298.3694 C1078.6,305.3994 1114.08,312.8494 1146.72,318.7694 C1313.5,349.0094 1504.8691,374.6054 1615.4691,388.5154" fill="none" id="AuthSvc-to-MySQL" style="stroke:#181818;stroke-width:1;"/><polygon fill="#181818" points="1620.43,389.1394,1611.9995,384.0476,1615.4691,388.5154,1611.0012,391.985,1620.43,389.1394" style="stroke:#181818;stroke-width:1;stroke-linejoin:miter;stroke-miterlimit:10;"/></g><!--link CommunitySvc to MySQL--><g class="link" data-entity-1="ent0009" data-entity-2="ent0014" data-link-type="dependency" data-source-line="46" id="lnk25"><path d="M1517.85,229.5994 C1542.73,239.1694 1568.8,251.4594 1590.72,266.7694 C1630.18,294.3194 1662.2158,333.8193 1683.4158,363.5293" fill="none" id="CommunitySvc-to-MySQL" style="stroke:#181818;stroke-width:1;"/><polygon fill="#181818" points="1686.32,367.5994,1684.3484,357.9499,1683.4158,363.5293,1677.8363,362.5967,1686.32,367.5994" style="stroke:#181818;stroke-width:1;stroke-linejoin:miter;stroke-miterlimit:10;"/></g><!--link FavoritesSvc to MySQL--><g class="link" data-entity-1="ent0010" data-entity-2="ent0014" data-link-type="dependency" data-source-line="47" id="lnk26"><path d="M1013.54,187.1194 C1046.84,191.0794 1086.84,200.4294 1116.72,221.7694 C1137.5,236.5994 1125.52,256.5194 1146.72,270.7694 C1228.02,325.3894 1488.05,313.1394 1581.72,341.7694 C1603.6,348.4494 1622.0686,356.0247 1642.3386,365.5947" fill="none" id="FavoritesSvc-to-MySQL" style="stroke:#181818;stroke-width:1;"/><polygon fill="#181818" points="1646.86,367.7294,1640.4292,360.2698,1642.3386,365.5947,1637.0137,367.5041,1646.86,367.7294" style="stroke:#181818;stroke-width:1;stroke-linejoin:miter;stroke-miterlimit:10;"/></g><!--link NotifySvc to MySQL--><g class="link" data-entity-1="ent0011" data-entity-2="ent0014" data-link-type="dependency" data-source-line="48" id="lnk27"><path d="M1069.09,611.6494 C1087.1,617.1494 1103.91,625.9794 1116.72,639.7694 C1199.19,728.5594 1070.86,816.2694 1146.72,910.7694 C1269.01,1063.0994 1429.5,1096.1994 1581.72,973.7694 C1667.68,904.6294 1697.9844,547.6981 1705.4344,436.9681" fill="none" id="NotifySvc-to-MySQL" style="stroke:#181818;stroke-width:1;"/><polygon fill="#181818" points="1705.77,431.9794,1701.1749,440.6906,1705.4344,436.9681,1709.1568,441.2276,1705.77,431.9794" style="stroke:#181818;stroke-width:1;stroke-linejoin:miter;stroke-miterlimit:10;"/></g><!--link AdminSvc to MySQL--><g class="link" data-entity-1="ent0012" data-entity-2="ent0014" data-link-type="dependency" data-source-line="49" id="lnk28"><path d="M1022.87,518.0994 C1055.38,525.3094 1091.89,538.7394 1116.72,563.7694 C1147.91,595.1994 1127.05,619.0994 1146.72,658.7694 C1210.05,786.4694 1205.15,855.1894 1331.72,920.7694 C1430.38,971.8794 1494.41,989.4794 1581.72,920.7694 C1660.06,859.1094 1695.0754,540.7187 1704.5554,436.8787" fill="none" id="AdminSvc-to-MySQL" style="stroke:#181818;stroke-width:1;"/><polygon fill="#181818" points="1705.01,431.8994,1700.2083,440.4984,1704.5554,436.8787,1708.1752,441.2258,1705.01,431.8994" style="stroke:#181818;stroke-width:1;stroke-linejoin:miter;stroke-miterlimit:10;"/></g><!--link GameSvc to MySQL--><g class="link" data-entity-1="ent0013" data-entity-2="ent0014" data-link-type="dependency" data-source-line="50" id="lnk29"><path d="M1048.09,393.6694 C1197.07,395.0494 1473.4202,397.6033 1615.6802,398.9133" fill="none" id="GameSvc-to-MySQL" style="stroke:#181818;stroke-width:1;"/><polygon fill="#181818" points="1620.68,398.9594,1611.7172,394.8767,1615.6802,398.9133,1611.6435,402.8763,1620.68,398.9594" style="stroke:#181818;stroke-width:1;stroke-linejoin:miter;stroke-miterlimit:10;"/></g><!--link GameSvc to LLM--><g class="link" data-entity-1="ent0013" data-entity-2="ent0004" data-link-type="dependency" data-source-line="53" id="lnk30"><path d="M1047.77,419.4194 C1071.67,428.6294 1096.24,440.5694 1116.72,455.7694 C1134.28,468.7994 1132.13,478.4794 1146.72,494.7694 C1226.81,584.1394 1327.477,676.0243 1382.407,724.6743" fill="none" id="GameSvc-to-LLM" style="stroke:#181818;stroke-width:1;"/><polygon fill="#181818" points="1386.15,727.9894,1382.0646,719.0278,1382.407,724.6743,1376.7605,725.0166,1386.15,727.9894" style="stroke:#181818;stroke-width:1;stroke-linejoin:miter;stroke-miterlimit:10;"/><text fill="#000000" font-family="sans-serif" font-size="13" lengthAdjust="spacing" textLength="124.3062" x="1162.22" y="475.2645">generate plots/events</text><text fill="#000000" font-family="sans-serif" font-size="13" lengthAdjust="spacing" textLength="107.688" x="1170.5291" y="491.6161">update game state</text></g><!--link Frontend to NotifySvc--><g class="link" data-entity-1="ent0003" data-entity-2="ent0011" data-link-type="dependency" data-source-line="56" id="lnk31"><path d="M372.72,497.6494 C417.1,506.3994 483.71,519.5094 541.72,530.7694 C638.54,549.5594 743.479,569.6804 824.549,585.1804" fill="none" id="Frontend-to-NotifySvc" style="stroke:#181818;stroke-width:1;stroke-dasharray:7,7;"/><polygon fill="#181818" points="829.46,586.1194,821.3713,580.5004,824.549,585.1804,819.869,588.3581,829.46,586.1194" style="stroke:#181818;stroke-width:1;stroke-linejoin:miter;stroke-miterlimit:10;"/><text fill="#000000" font-family="sans-serif" font-size="13" lengthAdjust="spacing" textLength="100.4453" x="593.22" y="527.2645">fetch notifications</text></g><!--link GameSvc to CommunitySvc--><g class="link" data-entity-1="ent0013" data-entity-2="ent0009" data-link-type="dependency" data-source-line="59" id="lnk32"><path d="M1048.14,356.2894 C1070.71,347.7194 1094.59,338.5294 1116.72,329.7694 C1191.53,300.1494 1271.3601,267.0355 1332.7201,241.2655" fill="none" id="GameSvc-to-CommunitySvc" style="stroke:#181818;stroke-width:1;stroke-dasharray:7,7;"/><polygon fill="#181818" points="1337.33,239.3294,1327.4832,239.1264,1332.7201,241.2655,1330.581,246.5023,1337.33,239.3294" style="stroke:#181818;stroke-width:1;stroke-linejoin:miter;stroke-miterlimit:10;"/><text fill="#000000" font-family="sans-serif" font-size="13" lengthAdjust="spacing" textLength="153.918" x="1147.72" y="252.2645">publish save-sharing posts</text></g><!--link GMN33 to Backend--><g class="link" data-entity-1="ent0034" data-entity-2="ent0007" data-link-type="association" data-source-line="62" id="lnk35"><path d="M949.22,728.1994 C949.22,718.8694 949.22,709.5369 949.22,700.2044 C949.22,695.5381 949.22,690.8719 949.22,686.2059 C949.22,685.0395 949.22,683.873 949.22,682.7065 C949.22,682.1233 949.22,681.5401 949.22,680.9569 C949.22,680.6653 949.22,680.3737 949.22,680.0821 C949.22,680.0092 949.22,679.9363 949.22,679.8634" fill="none" id="GMN33-Backend" style="stroke:#181818;stroke-width:1;stroke-dasharray:7,7;"/></g><?plantuml-src RLPDRzj64BtpLmnyQ6j4ijpcKXXD03bEN3UswvesqeE1O4MEfAsNkyJkKhPQvB_tpP8KASSdBMRdu-tCUqFTwMYOvXVJCwytREcEdoFDInnZuvdELSNq0trmLTLO7RSqfNmR8bSqzyLQHox4BSl2exQryggYmbMrimZFunQPFJoKNHdE32yZHKTUhzQHIYqtsjaiKqLqdWxE6mwHPdHZr9Oz3lEoqlQ0LA2FjhmFxBFCkfBfu0ilwDIx9vZITNUc_p8QojF1TVCSZ_u9T7_nO7_AyrjwG_dD_325VFBEHhPbzYtB2kEQaWukBw_enhkDBjaZu5Bv5TCbi3SAXojKDcqi77iadvi5UykH0tqm3VeYaMUkU6Il_-MISlORNN1e0p__6bvYdDzSeCUHdzGMBxvrJPlYtD65rrqOVCw_P8YhLV4eM0vESG3uNNgIW3Sf13_dpbTjPEydHVVBDd6DiKfJ-oIewdcbG_HAnZ8XurQw_G6goGF66yAJywMCr6tORoTKUxVKfd-U9CqtnSjQ0tU6IhKBCKp4gu8FJfvhepcWJ605ParI5Raj4vokn2xNAtK-gOtpMaRHrMa7tLjVYRXsKIzraGgCm1MUCP7PHlFJ34F7T2VKM1XB13U0ss99qQy1IRpTQwkacb05odJDVR0BPMSUX7UUq-kTx_Ecy5VI9YaEMOMk3ftYtSJGExL13sc1iQyye9PeyTe9G-HohI1e2B3eczZMaxnjkM-Y1lHRBLG0owws-L-Ng7JB9XLGXivEQQFLY6799yj-1FsreDHGbLT9s27hP4lJwVjUerclLR7jH8Zu_Ym05orjivrDd9CAw8H-lxkxoMT_v7zUYob8h8XerOd8YuI2P0cTEB8sCkNe63fOzWWrcFTOCvY7aOzozkCQJ7r70UqCtQIQVO2ms1QSTH2INzkyCOIHUGnXPDv16Dbw22DJ1s5a0PYFpnYEZ56OQ32hZMl9l-Skn3gX5LiXArDjN0mpbWz2UB1DNOfn9LmC4KV9kwUZfN5F184Re-qgiGMDEHncUNGqwYCABJaMQxAZ56ccEQXCGbd9CYRj3giasklT2TNDmkYm9j71j0zEkqOMTXJsr-IM_LxCfhBM6wFyeBCWqwByDgTbOukEzX2E2l2U5-1JWBEDtXbYkuG2iUOXzp475PwvOny-c6o3ZlYwacWBKONVrh4DWtRb4hjOHP9za4cF16k7kFrQ0dDF5j6mMXXP-hAX2sKEJr2aGS4mREG9AI65bEzshVnyRLUHMBzRlR0jUyfDNinZcWR-zRlrCjm85NRB1bQ5FmVWJ5S2EQlmycKB5wEhv6doGRrsTZhgE5eiUmth9CZhqh-IZf92ij_UqI_7KaV8CBl_cxgL8nTlnVx-7VryV2nfYiPxsKofGGE6_m40?></g></svg>