<svg xmlns="http://www.w3.org/2000/svg" xmlns:xlink="http://www.w3.org/1999/xlink" contentStyleType="text/css" data-diagram-type="DESCRIPTION" height="493px" preserveAspectRatio="none" style="width:2368px;height:493px;background:#FFFFFF;" version="1.1" viewBox="0 0 2368 493" width="2368px" zoomAndPan="magnify"><?plantuml 1.2026.6?><defs/><g><g class="title" data-source-line="1"><text fill="#000000" font-family="sans-serif" font-size="14" font-weight="700" lengthAdjust="spacing" textLength="297.9922" x="1031.5039" y="24.5332">Requirements Review Checklist Architecture</text></g><!--cluster Input Evidence--><g class="cluster" data-qualified-name="Input Evidence" data-source-line="9" id="ent0004"><path d="M277.5,353.1094 L378.0723,353.1094 A3.75,3.75 0 0 1 380.5723,355.6094 L387.5723,376.7188 L907.5,376.7188 A2.5,2.5 0 0 1 910,379.2188 L910,475.6094 A2.5,2.5 0 0 1 907.5,478.1094 L277.5,478.1094 A2.5,2.5 0 0 1 275,475.6094 L275,355.6094 A2.5,2.5 0 0 1 277.5,353.1094" fill="none" style="stroke:#000000;stroke-width:1.5;"/><line style="stroke:#000000;stroke-width:1.5;" x1="275" x2="387.5723" y1="376.7188" y2="376.7188"/><text fill="#000000" font-family="sans-serif" font-size="14" font-weight="700" lengthAdjust="spacing" textLength="99.5723" x="279" y="369.6426">Input Evidence</text></g><!--cluster ChecklistPkg--><g class="cluster" data-qualified-name="ChecklistPkg" data-source-line="14" id="ent0007"><path d="M90.5,54.7494 L341.2236,54.7494 A3.75,3.75 0 0 1 343.7236,57.2494 L350.7236,78.3587 L2350.5,78.3587 A2.5,2.5 0 0 1 2353,80.8587 L2353,292.6094 A2.5,2.5 0 0 1 2350.5,295.1094 L90.5,295.1094 A2.5,2.5 0 0 1 88,292.6094 L88,57.2494 A2.5,2.5 0 0 1 90.5,54.7494" fill="none" style="stroke:#000000;stroke-width:1.5;"/><line style="stroke:#000000;stroke-width:1.5;" x1="88" x2="350.7236" y1="78.3587" y2="78.3587"/><text fill="#000000" font-family="sans-serif" font-size="14" font-weight="700" lengthAdjust="spacing" textLength="249.7236" x="92" y="71.2826">Review Artifact (Markdown Checklist)</text></g><!--entity SRS--><g class="entity" data-qualified-name="Input Evidence.SRS" data-source-line="10" id="ent0005"><path d="M626,409.1094 L626,441.7188 A2.5,2.5 0 0 0 628.5,444.2188 L891.7129,444.2188 A2.5,2.5 0 0 0 894.2129,441.7188 L894.2129,416.6094 L884.2129,406.6094 L628.5,406.6094 A2.5,2.5 0 0 0 626,409.1094" fill="#F1F1F1" style="stroke:#181818;stroke-width:0.5;"/><path d="M884.2129,406.6094 L884.2129,414.1094 A2.5,2.5 0 0 0 886.7129,416.6094 L894.2129,416.6094" fill="#F1F1F1" style="stroke:#181818;stroke-width:0.5;"/><text fill="#000000" font-family="sans-serif" font-size="14" lengthAdjust="spacing" textLength="248.2129" x="636" y="431.1426">Requirements Document (under review)</text></g><!--entity Standards--><g class="entity" data-qualified-name="Input Evidence.Standards" data-source-line="11" id="ent0006"><path d="M293.5,389.1094 L334.5,389.1094 A3.75,3.75 0 0 1 337,391.6094 L344,410.1094 L588.5127,410.1094 A2.5,2.5 0 0 1 591.0127,412.6094 L591.0127,459.8281 A2.5,2.5 0 0 1 588.5127,462.3281 L293.5,462.3281 A2.5,2.5 0 0 1 291,459.8281 L291,391.6094 A2.5,2.5 0 0 1 293.5,389.1094" fill="#F1F1F1" style="stroke:#181818;stroke-width:0.5;"/><line style="stroke:#181818;stroke-width:0.5;" x1="291" x2="344" y1="410.1094" y2="410.1094"/><text fill="#000000" font-family="sans-serif" font-size="14" lengthAdjust="spacing" textLength="167.3164" x="301" y="431.6426">Standards &amp; Specifications</text><text fill="#000000" font-family="sans-serif" font-size="14" lengthAdjust="spacing" textLength="270.0127" x="301" y="449.252">(Industry/Product/Business/Documentation)</text></g><!--entity Purpose--><g class="entity" data-qualified-name="ChecklistPkg.Purpose" data-source-line="15" id="ent0008"><rect fill="#F1F1F1" height="37.6094" rx="2.5" ry="2.5" style="stroke:#181818;stroke-width:0.5;" width="173.2891" x="112.5" y="224.6094"/><text fill="#000000" font-family="sans-serif" font-size="14" lengthAdjust="spacing" textLength="153.2891" x="122.5" y="249.1426">Review Purpose &amp; Basis</text></g><!--entity Completeness--><g class="entity" data-qualified-name="ChecklistPkg.Completeness" data-source-line="16" id="ent0009"><rect fill="#F1F1F1" height="55.2188" rx="2.5" ry="2.5" style="stroke:#181818;stroke-width:0.5;" width="244.0752" x="807" y="216.1094"/><text fill="#000000" font-family="sans-serif" font-size="14" lengthAdjust="spacing" textLength="133.0615" x="817" y="240.6426">Completeness Check</text><text fill="#000000" font-family="sans-serif" font-size="14" lengthAdjust="spacing" textLength="224.0752" x="817" y="258.252">(Core/Basic Functions, User Needs)</text></g><!--entity ExceptionCoverage--><g class="entity" data-qualified-name="ChecklistPkg.ExceptionCoverage" data-source-line="17" id="ent0010"><rect fill="#F1F1F1" height="55.2188" rx="2.5" ry="2.5" style="stroke:#181818;stroke-width:0.5;" width="151.5029" x="321" y="216.1094"/><text fill="#000000" font-family="sans-serif" font-size="14" lengthAdjust="spacing" textLength="131.5029" x="331" y="240.6426">Exception &amp; Auxiliary</text><text fill="#000000" font-family="sans-serif" font-size="14" lengthAdjust="spacing" textLength="104.2754" x="331" y="258.252">Coverage Check</text></g><!--entity Understandability--><g class="entity" data-qualified-name="ChecklistPkg.Understandability" data-source-line="18" id="ent0011"><rect fill="#F1F1F1" height="55.2188" rx="2.5" ry="2.5" style="stroke:#181818;stroke-width:0.5;" width="262.7373" x="508.5" y="216.1094"/><text fill="#000000" font-family="sans-serif" font-size="14" lengthAdjust="spacing" textLength="151.7441" x="518.5" y="240.6426">Understandability Check</text><text fill="#000000" font-family="sans-serif" font-size="14" lengthAdjust="spacing" textLength="242.7373" x="518.5" y="258.252">(Clarity, Specificity, Detail, Refinement)</text></g><!--entity ModelAccuracy--><g class="entity" data-qualified-name="ChecklistPkg.ModelAccuracy" data-source-line="19" id="ent0012"><rect fill="#F1F1F1" height="55.2188" rx="2.5" ry="2.5" style="stroke:#181818;stroke-width:0.5;" width="332.0264" x="1455" y="216.1094"/><text fill="#000000" font-family="sans-serif" font-size="14" lengthAdjust="spacing" textLength="143.165" x="1465" y="240.6426">Model Accuracy Check</text><text fill="#000000" font-family="sans-serif" font-size="14" lengthAdjust="spacing" textLength="312.0264" x="1465" y="258.252">(Conformance, Reasonableness, Rigor, Accuracy)</text></g><!--entity ExtImprove--><g class="entity" data-qualified-name="ChecklistPkg.ExtImprove" data-source-line="20" id="ent0013"><rect fill="#F1F1F1" height="55.2188" rx="2.5" ry="2.5" style="stroke:#181818;stroke-width:0.5;" width="334.3301" x="1086" y="216.1094"/><text fill="#000000" font-family="sans-serif" font-size="14" lengthAdjust="spacing" textLength="190.6406" x="1096" y="240.6426">Extension/Improvement Check</text><text fill="#000000" font-family="sans-serif" font-size="14" lengthAdjust="spacing" textLength="314.3301" x="1096" y="258.252">(Goals, Feasibility, Concreteness, Demonstrability)</text></g><!--entity ProblemReport--><g class="entity" data-qualified-name="ChecklistPkg.ProblemReport" data-source-line="21" id="ent0014"><rect fill="#F1F1F1" height="37.6094" rx="2.5" ry="2.5" style="stroke:#181818;stroke-width:0.5;" width="118.041" x="1822" y="224.6094"/><text fill="#000000" font-family="sans-serif" font-size="14" lengthAdjust="spacing" textLength="98.041" x="1832" y="249.1426">Problem Report</text></g><!--entity Scoring--><g class="entity" data-qualified-name="ChecklistPkg.Scoring" data-source-line="22" id="ent0015"><rect fill="#F1F1F1" height="55.2188" rx="2.5" ry="2.5" style="stroke:#181818;stroke-width:0.5;" width="130.5098" x="1975.5" y="216.1094"/><text fill="#000000" font-family="sans-serif" font-size="14" lengthAdjust="spacing" textLength="47.4688" x="1985.5" y="240.6426">Scoring</text><text fill="#000000" font-family="sans-serif" font-size="14" lengthAdjust="spacing" textLength="110.5098" x="1985.5" y="258.252">(4x10 + Total=40)</text></g><!--entity Metadata--><g class="entity" data-qualified-name="ChecklistPkg.Metadata" data-source-line="23" id="ent0016"><rect fill="#F1F1F1" height="37.6094" rx="2.5" ry="2.5" style="stroke:#181818;stroke-width:0.5;" width="187.3027" x="2141.5" y="224.6094"/><text fill="#000000" font-family="sans-serif" font-size="14" lengthAdjust="spacing" textLength="167.3027" x="2151.5" y="249.1426">Reviewer &amp; Date Metadata</text></g><!--entity Reviewer--><g class="entity" data-qualified-name="Reviewer" data-source-line="5" id="ent0001"><ellipse cx="35.1758" cy="52.6094" fill="#F1F1F1" rx="8" ry="8" style="stroke:#181818;stroke-width:0.5;"/><path d="M35.1758,60.6094 L35.1758,87.6094 M22.1758,68.6094 L48.1758,68.6094 M35.1758,87.6094 L22.1758,102.6094 M35.1758,87.6094 L48.1758,102.6094" fill="none" style="stroke:#181818;stroke-width:0.5;"/><text fill="#000000" font-family="sans-serif" font-size="14" lengthAdjust="spacing" textLength="58.3516" x="6" y="118.6426">Reviewer</text></g><!--entity ReqOwner--><g class="entity" data-qualified-name="ReqOwner" data-source-line="6" id="ent0002"><ellipse cx="1660.1377" cy="395.1094" fill="#F1F1F1" rx="8" ry="8" style="stroke:#181818;stroke-width:0.5;"/><path d="M1660.1377,403.1094 L1660.1377,430.1094 M1647.1377,411.1094 L1673.1377,411.1094 M1660.1377,430.1094 L1647.1377,445.1094 M1660.1377,430.1094 L1673.1377,445.1094" fill="none" style="stroke:#181818;stroke-width:0.5;"/><text fill="#000000" font-family="sans-serif" font-size="14" lengthAdjust="spacing" textLength="132.2754" x="1594" y="461.1426">Requirements Owner</text></g><!--entity Stakeholder--><g class="entity" data-qualified-name="Stakeholder" data-source-line="7" id="ent0003"><ellipse cx="1919.0894" cy="395.1094" fill="#F1F1F1" rx="8" ry="8" style="stroke:#181818;stroke-width:0.5;"/><path d="M1919.0894,403.1094 L1919.0894,430.1094 M1906.0894,411.1094 L1932.0894,411.1094 M1919.0894,430.1094 L1906.0894,445.1094 M1919.0894,430.1094 L1932.0894,445.1094" fill="none" style="stroke:#181818;stroke-width:0.5;"/><text fill="#000000" font-family="sans-serif" font-size="14" lengthAdjust="spacing" textLength="122.1787" x="1858" y="461.1426">Project Stakeholder</text></g><!--entity Archive--><g class="entity" data-qualified-name="Archive" data-source-line="26" id="ent0017"><rect fill="#F1F1F1" height="37.6094" rx="35" ry="35" style="stroke:#181818;stroke-width:0.5;" width="116.4756" x="2133" y="406.6094"/><text fill="#000000" font-family="sans-serif" font-size="14" lengthAdjust="spacing" textLength="96.4756" x="2143" y="431.1426">Review Archive</text></g><!--link Reviewer to Purpose--><g class="link" data-entity-1="ent0001" data-entity-2="ent0008" data-link-type="dependency" data-source-line="29" id="lnk18"><path d="M58.48,122.1094 C72.22,142.5194 90.81,167.2794 111,186.1094 C127.06,201.0894 143.2786,212.0244 160.4786,222.0344" fill="none" id="Reviewer-to-Purpose" style="stroke:#181818;stroke-width:1;"/><polygon fill="#181818" points="164.8,224.5494,159.0334,216.5653,160.4786,222.0344,155.0094,223.4796,164.8,224.5494" style="stroke:#181818;stroke-width:1;stroke-linejoin:miter;stroke-miterlimit:10;"/><text fill="#000000" font-family="sans-serif" font-size="13" lengthAdjust="spacing" textLength="100.4517" x="143.0591" y="166.6045">define objectives,</text><text fill="#000000" font-family="sans-serif" font-size="13" lengthAdjust="spacing" textLength="162.5698" x="112" y="182.9561">review &amp; verification method</text></g><!--link Reviewer to Completeness--><g class="link" data-entity-1="ent0001" data-entity-2="ent0009" data-link-type="dependency" data-source-line="30" id="lnk19"><path d="M64.24,113.1694 C69.18,116.7294 74.5,119.8994 80,122.1094 C176.89,161.0994 445.45,138.5094 549,152.1094 C656.85,166.2794 683.5,173.6094 789,200.1094 C807.72,204.8094 822.8804,209.0343 841.6704,214.6643" fill="none" id="Reviewer-to-Completeness" style="stroke:#181818;stroke-width:1;"/><polygon fill="#181818" points="846.46,216.0994,838.9868,209.6845,841.6704,214.6643,836.6906,217.3479,846.46,216.0994" style="stroke:#181818;stroke-width:1;stroke-linejoin:miter;stroke-miterlimit:10;"/><text fill="#000000" font-family="sans-serif" font-size="13" lengthAdjust="spacing" textLength="41.1899" x="730" y="174.6045">inspect</text></g><!--link Reviewer to ExceptionCoverage--><g class="link" data-entity-1="ent0001" data-entity-2="ent0010" data-link-type="dependency" data-source-line="31" id="lnk20"><path d="M64.17,112.5594 C69.15,116.2594 74.5,119.6194 80,122.1094 C161.47,159.0294 196.68,117.1194 279,152.1094 C314.16,167.0594 344.4549,191.5576 366.8349,212.4476" fill="none" id="Reviewer-to-ExceptionCoverage" style="stroke:#181818;stroke-width:1;"/><polygon fill="#181818" points="370.49,215.8594,366.6402,206.7941,366.8349,212.4476,361.1814,212.6423,370.49,215.8594" style="stroke:#181818;stroke-width:1;stroke-linejoin:miter;stroke-miterlimit:10;"/><text fill="#000000" font-family="sans-serif" font-size="13" lengthAdjust="spacing" textLength="41.1899" x="335" y="174.6045">inspect</text></g><!--link Reviewer to Understandability--><g class="link" data-entity-1="ent0001" data-entity-2="ent0011" data-link-type="dependency" data-source-line="32" id="lnk21"><path d="M64.06,112.8094 C69.06,116.4794 74.44,119.7594 80,122.1094 C205.48,175.1094 252.06,122.4494 385,152.1094 C452.97,167.2794 523.1028,193.3349 574.0028,214.1749" fill="none" id="Reviewer-to-Understandability" style="stroke:#181818;stroke-width:1;"/><polygon fill="#181818" points="578.63,216.0694,571.8167,208.9575,574.0028,214.1749,568.7855,216.361,578.63,216.0694" style="stroke:#181818;stroke-width:1;stroke-linejoin:miter;stroke-miterlimit:10;"/><text fill="#000000" font-family="sans-serif" font-size="13" lengthAdjust="spacing" textLength="41.1899" x="499" y="174.6045">inspect</text></g><!--link Reviewer to ModelAccuracy--><g class="link" data-entity-1="ent0001" data-entity-2="ent0012" data-link-type="dependency" data-source-line="33" id="lnk22"><path d="M64.18,113.3294 C69.12,116.8794 74.46,119.9894 80,122.1094 C180.37,160.5894 939.82,143.8894 1047,152.1094 C1221.57,165.5094 1265.6,169.5994 1438,200.1094 C1463.21,204.5694 1485.2964,209.1723 1510.5564,214.9623" fill="none" id="Reviewer-to-ModelAccuracy" style="stroke:#181818;stroke-width:1;"/><polygon fill="#181818" points="1515.43,216.0794,1507.5512,210.1697,1510.5564,214.9623,1505.7638,217.9675,1515.43,216.0794" style="stroke:#181818;stroke-width:1;stroke-linejoin:miter;stroke-miterlimit:10;"/><text fill="#000000" font-family="sans-serif" font-size="13" lengthAdjust="spacing" textLength="41.1899" x="1356" y="174.6045">inspect</text></g><!--link Reviewer to ExtImprove--><g class="link" data-entity-1="ent0001" data-entity-2="ent0013" data-link-type="dependency" data-source-line="34" id="lnk23"><path d="M64.2,113.2694 C69.14,116.8194 74.48,119.9494 80,122.1094 C152.52,150.4094 702.57,144.0494 780,152.1094 C909.5,165.5894 941.28,174.7794 1069,200.1094 C1093.12,204.8894 1114.0254,209.4066 1138.4254,214.9766" fill="none" id="Reviewer-to-ExtImprove" style="stroke:#181818;stroke-width:1;"/><polygon fill="#181818" points="1143.3,216.0894,1135.4159,210.1867,1138.4254,214.9766,1133.6355,217.9861,1143.3,216.0894" style="stroke:#181818;stroke-width:1;stroke-linejoin:miter;stroke-miterlimit:10;"/><text fill="#000000" font-family="sans-serif" font-size="13" lengthAdjust="spacing" textLength="41.1899" x="997" y="174.6045">inspect</text></g><!--link Reviewer to ProblemReport--><g class="link" data-entity-1="ent0001" data-entity-2="ent0014" data-link-type="dependency" data-source-line="35" id="lnk24"><path d="M64.16,113.3694 C69.11,116.9094 74.45,120.0094 80,122.1094 C217.82,174.2894 1259.43,136.7894 1406,152.1094 C1487.41,160.6194 1505.79,175.9094 1587,186.1094 C1683.33,198.2094 1711.88,172.6294 1805,200.1094 C1822.98,205.4194 1837.1544,212.8608 1851.3444,221.9108" fill="none" id="Reviewer-to-ProblemReport" style="stroke:#181818;stroke-width:1;"/><polygon fill="#181818" points="1855.56,224.5994,1850.1228,216.3874,1851.3444,221.9108,1845.821,223.1324,1855.56,224.5994" style="stroke:#181818;stroke-width:1;stroke-linejoin:miter;stroke-miterlimit:10;"/><text fill="#000000" font-family="sans-serif" font-size="13" lengthAdjust="spacing" textLength="80.9199" x="1615.4758" y="166.6045">record issues,</text><text fill="#000000" font-family="sans-serif" font-size="13" lengthAdjust="spacing" textLength="135.8716" x="1588" y="182.9561">evaluation, suggestions</text></g><!--link Reviewer to Scoring--><g class="link" data-entity-1="ent0001" data-entity-2="ent0015" data-link-type="dependency" data-source-line="36" id="lnk25"><path d="M64.15,113.3994 C69.1,116.9294 74.45,120.0194 80,122.1094 C251.42,186.5794 1547.85,119.1494 1728,152.1094 C1772.11,160.1794 1779.27,176.1694 1823,186.1094 C1881.82,199.4794 1900.17,182.9594 1958,200.1094 C1971.04,203.9794 1980.0056,207.6082 1992.1456,213.7982" fill="none" id="Reviewer-to-Scoring" style="stroke:#181818;stroke-width:1;"/><polygon fill="#181818" points="1996.6,216.0694,1990.3991,208.4177,1992.1456,213.7982,1986.7651,215.5447,1996.6,216.0694" style="stroke:#181818;stroke-width:1;stroke-linejoin:miter;stroke-miterlimit:10;"/><text fill="#000000" font-family="sans-serif" font-size="13" lengthAdjust="spacing" textLength="71.5317" x="1824" y="174.6045">enter scores</text></g><!--link Reviewer to Metadata--><g class="link" data-entity-1="ent0001" data-entity-2="ent0016" data-link-type="dependency" data-source-line="37" id="lnk26"><path d="M64.15,113.3994 C69.1,116.9394 74.45,120.0294 80,122.1094 C174.68,157.6294 1824.02,85.3794 1900,152.1094 C1911.48,162.1894 1893.77,175.7594 1905,186.1094 C1922.94,202.6294 2100.18,194.9094 2124,200.1094 C2148.9,205.5394 2171.0137,213.6511 2191.9837,222.6311" fill="none" id="Reviewer-to-Metadata" style="stroke:#181818;stroke-width:1;"/><polygon fill="#181818" points="2196.58,224.5994,2189.8813,217.3794,2191.9837,222.6311,2186.7321,224.7335,2196.58,224.5994" style="stroke:#181818;stroke-width:1;stroke-linejoin:miter;stroke-miterlimit:10;"/><text fill="#000000" font-family="sans-serif" font-size="13" lengthAdjust="spacing" textLength="42.6309" x="1906" y="174.6045">sign-off</text></g><!--link Purpose to Standards--><g class="link" data-entity-1="ent0008" data-entity-2="ent0006" data-link-type="dependency" data-source-line="39" id="lnk27"><path d="M223.54,262.8594 C263.19,292.3494 338.0585,369.0347 389.1185,407.0247" fill="none" id="Purpose-to-Standards" style="stroke:#181818;stroke-width:1;stroke-dasharray:7,7;"/><polygon fill="#181818" points="393.13,410.0094,388.2971,401.4278,389.1185,407.0247,383.5216,407.8462,393.13,410.0094" style="stroke:#181818;stroke-width:1;stroke-linejoin:miter;stroke-miterlimit:10;"/><text fill="#000000" font-family="sans-serif" font-size="13" lengthAdjust="spacing" textLength="61.4199" x="321" y="333.6045">references</text></g><!--link Completeness to SRS--><g class="link" data-entity-1="ent0009" data-entity-2="ent0005" data-link-type="dependency" data-source-line="40" id="lnk28"><path d="M904.06,271.1694 C869.26,308.2294 810.4725,370.8543 780.4925,402.7843" fill="none" id="Completeness-to-SRS" style="stroke:#181818;stroke-width:1;stroke-dasharray:7,7;"/><polygon fill="#181818" points="777.07,406.4294,786.1465,402.6062,780.4925,402.7843,780.3144,397.1302,777.07,406.4294" style="stroke:#181818;stroke-width:1;stroke-linejoin:miter;stroke-miterlimit:10;"/><text fill="#000000" font-family="sans-serif" font-size="13" lengthAdjust="spacing" textLength="47.6899" x="855" y="333.6045">inspects</text></g><!--link ExceptionCoverage to SRS--><g class="link" data-entity-1="ent0010" data-entity-2="ent0005" data-link-type="dependency" data-source-line="41" id="lnk29"><path d="M428.81,271.1794 C446.27,284.6894 468.84,300.4594 491,311.1094 C540.19,334.7594 558.37,324.7394 609,345.1094 C652.7,362.6994 696.0564,386.571 725.8964,404.061" fill="none" id="ExceptionCoverage-to-SRS" style="stroke:#181818;stroke-width:1;stroke-dasharray:7,7;"/><polygon fill="#181818" points="730.21,406.5894,724.4681,398.5875,725.8964,404.061,720.4228,405.4893,730.21,406.5894" style="stroke:#181818;stroke-width:1;stroke-linejoin:miter;stroke-miterlimit:10;"/><text fill="#000000" font-family="sans-serif" font-size="13" lengthAdjust="spacing" textLength="47.6899" x="585" y="333.6045">inspects</text></g><!--link Understandability to SRS--><g class="link" data-entity-1="ent0011" data-entity-2="ent0005" data-link-type="dependency" data-source-line="42" id="lnk30"><path d="M657.71,271.1694 C682.42,308.2294 723.8162,370.3393 745.1062,402.2693" fill="none" id="Understandability-to-SRS" style="stroke:#181818;stroke-width:1;stroke-dasharray:7,7;"/><polygon fill="#181818" points="747.88,406.4294,746.2152,396.7222,745.1062,402.2693,739.5591,401.1603,747.88,406.4294" style="stroke:#181818;stroke-width:1;stroke-linejoin:miter;stroke-miterlimit:10;"/><text fill="#000000" font-family="sans-serif" font-size="13" lengthAdjust="spacing" textLength="47.6899" x="701" y="333.6045">inspects</text></g><!--link ModelAccuracy to SRS--><g class="link" data-entity-1="ent0012" data-entity-2="ent0005" data-link-type="dependency" data-source-line="43" id="lnk31"><path d="M1556.7,271.2394 C1522.03,284.7694 1478.21,300.5294 1438,311.1094 C1252.17,359.9894 1036.8814,391.6594 899.0014,408.8894" fill="none" id="ModelAccuracy-to-SRS" style="stroke:#181818;stroke-width:1;stroke-dasharray:7,7;"/><polygon fill="#181818" points="894.04,409.5094,903.4665,412.3625,899.0014,408.8894,902.4745,404.4243,894.04,409.5094" style="stroke:#181818;stroke-width:1;stroke-linejoin:miter;stroke-miterlimit:10;"/><text fill="#000000" font-family="sans-serif" font-size="13" lengthAdjust="spacing" textLength="47.6899" x="1403" y="333.6045">inspects</text></g><!--link ExtImprove to SRS--><g class="link" data-entity-1="ent0013" data-entity-2="ent0005" data-link-type="dependency" data-source-line="44" id="lnk32"><path d="M1180.26,271.1694 C1078.61,308.2794 901.4567,372.9644 814.1467,404.8444" fill="none" id="ExtImprove-to-SRS" style="stroke:#181818;stroke-width:1;stroke-dasharray:7,7;"/><polygon fill="#181818" points="809.45,406.5594,819.276,407.2299,814.1467,404.8444,816.5321,399.7151,809.45,406.5594" style="stroke:#181818;stroke-width:1;stroke-linejoin:miter;stroke-miterlimit:10;"/><text fill="#000000" font-family="sans-serif" font-size="13" lengthAdjust="spacing" textLength="47.6899" x="1037" y="333.6045">inspects</text></g><!--link ChecklistPkg to ProblemReport--><g class="link" data-entity-1="ent0007" data-entity-2="ent0014" data-link-type="dependency" data-source-line="46" id="lnk33"><path d="M2040.99,84.1594 C2040.58,86.1994 2027.09,151.9394 1991,186.1094 C1979.43,197.0594 1972.33,193.1394 1958,200.1094 C1942.62,207.5894 1930.3135,214.2003 1916.4335,222.0403" fill="none" id="ChecklistPkg-to-ProblemReport" style="stroke:#181818;stroke-width:1;"/><polygon fill="#181818" points="1912.08,224.4994,1921.8836,223.5559,1916.4335,222.0403,1917.9491,216.5903,1912.08,224.4994" style="stroke:#181818;stroke-width:1;stroke-linejoin:miter;stroke-miterlimit:10;"/></g><!--link ChecklistPkg to Scoring--><g class="link" data-entity-1="ent0007" data-entity-2="ent0015" data-link-type="dependency" data-source-line="47" id="lnk34"><path d="M2041,84.2194 C2041,87.7494 2041,166.5194 2041,210.7694" fill="none" id="ChecklistPkg-to-Scoring" style="stroke:#181818;stroke-width:1;"/><polygon fill="#181818" points="2041,215.7694,2045,206.7694,2041,210.7694,2037,206.7694,2041,215.7694" style="stroke:#181818;stroke-width:1;stroke-linejoin:miter;stroke-miterlimit:10;"/></g><!--link ChecklistPkg to Metadata--><g class="link" data-entity-1="ent0007" data-entity-2="ent0016" data-link-type="dependency" data-source-line="48" id="lnk35"><path d="M2041.14,84.2194 C2045.75,87.9894 2158.758,180.3158 2208.768,221.1758" fill="none" id="ChecklistPkg-to-Metadata" style="stroke:#181818;stroke-width:1;"/><polygon fill="#181818" points="2212.64,224.3394,2208.2013,215.5475,2208.768,221.1758,2203.1396,221.7426,2212.64,224.3394" style="stroke:#181818;stroke-width:1;stroke-linejoin:miter;stroke-miterlimit:10;"/></g><!--link ProblemReport to ReqOwner--><g class="link" data-entity-1="ent0014" data-entity-2="ent0002" data-link-type="dependency" data-source-line="50" id="lnk36"><path d="M1866.57,262.6394 C1852.67,278.5294 1830.11,300.7094 1805,311.1094 C1780.31,321.3394 1705.4,301.8394 1685,319.1094 C1665.82,335.3394 1660.1256,358.3475 1658.8056,381.4175" fill="none" id="ProblemReport-to-ReqOwner" style="stroke:#181818;stroke-width:1;"/><polygon fill="#181818" points="1658.52,386.4094,1663.0276,377.6526,1658.8056,381.4175,1655.0406,377.1956,1658.52,386.4094" style="stroke:#181818;stroke-width:1;stroke-linejoin:miter;stroke-miterlimit:10;"/><text fill="#000000" font-family="sans-serif" font-size="13" lengthAdjust="spacing" textLength="86.7153" x="1686" y="333.6045">deliver findings</text></g><!--link ProblemReport to Stakeholder--><g class="link" data-entity-1="ent0014" data-entity-2="ent0003" data-link-type="dependency" data-source-line="51" id="lnk37"><path d="M1863.65,262.8894 C1849.07,277.4494 1827.13,297.5494 1805,311.1094 C1796.84,316.1094 1790.37,311.1794 1785,319.1094 C1780.51,325.7294 1781.19,330.0694 1785,337.1094 C1800.61,365.9394 1825.8511,384.5074 1853.3211,398.5974" fill="none" id="ProblemReport-to-Stakeholder" style="stroke:#181818;stroke-width:1;"/><polygon fill="#181818" points="1857.77,400.8794,1851.5875,393.2128,1853.3211,398.5974,1847.9364,400.331,1857.77,400.8794" style="stroke:#181818;stroke-width:1;stroke-linejoin:miter;stroke-miterlimit:10;"/><text fill="#000000" font-family="sans-serif" font-size="13" lengthAdjust="spacing" textLength="115.6035" x="1786" y="333.6045">communicate status</text></g><!--link Scoring to Stakeholder--><g class="link" data-entity-1="ent0015" data-entity-2="ent0003" data-link-type="dependency" data-source-line="52" id="lnk38"><path d="M2023,271.1694 C2002.38,301.5794 1971.2446,347.52 1947.7746,382.16" fill="none" id="Scoring-to-Stakeholder" style="stroke:#181818;stroke-width:1;"/><polygon fill="#181818" points="1944.97,386.2994,1953.3297,381.0922,1947.7746,382.16,1946.7068,376.6049,1944.97,386.2994" style="stroke:#181818;stroke-width:1;stroke-linejoin:miter;stroke-miterlimit:10;"/><text fill="#000000" font-family="sans-serif" font-size="13" lengthAdjust="spacing" textLength="134.3672" x="1988" y="333.6045">communicate summary</text></g><!--link ProblemReport to Archive--><g class="link" data-entity-1="ent0014" data-entity-2="ent0017" data-link-type="dependency" data-source-line="54" id="lnk39"><path d="M1887.68,262.9894 C1896.54,284.5594 1914.38,319.5994 1942,337.1094 C1963.24,350.5694 1973.74,338.4894 1998,345.1094 C2054.64,360.5594 2112.3727,386.1251 2150.4427,404.4051" fill="none" id="ProblemReport-to-Archive" style="stroke:#181818;stroke-width:1;"/><polygon fill="#181818" points="2154.95,406.5694,2148.5682,399.0678,2150.4427,404.4051,2145.1054,406.2795,2154.95,406.5694" style="stroke:#181818;stroke-width:1;stroke-linejoin:miter;stroke-miterlimit:10;"/><text fill="#000000" font-family="sans-serif" font-size="13" lengthAdjust="spacing" textLength="28.9009" x="1943" y="333.6045">store</text></g><!--link Scoring to Archive--><g class="link" data-entity-1="ent0015" data-entity-2="ent0017" data-link-type="dependency" data-source-line="55" id="lnk40"><path d="M2079.18,271.2494 C2096.32,284.3894 2116,301.2394 2131,319.1094 C2154.16,346.7094 2171.0754,379.9601 2181.1354,402.0201" fill="none" id="Scoring-to-Archive" style="stroke:#181818;stroke-width:1;"/><polygon fill="#181818" points="2183.21,406.5694,2183.1151,396.721,2181.1354,402.0201,2175.8363,400.0403,2183.21,406.5694" style="stroke:#181818;stroke-width:1;stroke-linejoin:miter;stroke-miterlimit:10;"/><text fill="#000000" font-family="sans-serif" font-size="13" lengthAdjust="spacing" textLength="28.9009" x="2144" y="333.6045">store</text></g><!--link Metadata to Archive--><g class="link" data-entity-1="ent0016" data-entity-2="ent0017" data-link-type="dependency" data-source-line="56" id="lnk41"><path d="M2233.52,262.8894 C2231.75,281.6994 2228.21,311.7494 2222,337.1094 C2215.98,361.6894 2207.5657,384.3945 2200.4957,401.8645" fill="none" id="Metadata-to-Archive" style="stroke:#181818;stroke-width:1;"/><polygon fill="#181818" points="2198.62,406.4994,2205.7041,399.6572,2200.4957,401.8645,2198.2884,396.6561,2198.62,406.4994" style="stroke:#181818;stroke-width:1;stroke-linejoin:miter;stroke-miterlimit:10;"/><text fill="#000000" font-family="sans-serif" font-size="13" lengthAdjust="spacing" textLength="28.9009" x="2226" y="333.6045">store</text></g><?plantuml-src XLLDJnin4BtxLunoeA06GgMUa8eK0bGSQ14fDox6Exjnisil_WX4LVzxnzwFnEn6lQtjDszctZnxdNGbmYE-UccmGkKiBJOIts2nGh4kfNKmDs8b7Ghd3J9crrBLtF0AXAvghIXcwRP4OWZ1LL4IXWkd3KmQ9ZGJu1qjcjtXNiwVRwg7lSP51tim-ZSHmzBnDQvqcRMulJLZDHThNY1CxbJj7TniP8PAu0J-C81SKd5fkcijVFY2Ow-8W4eFjPqqn8_B41IPOK9fLCPDPk48bZKAcKl1dTJAFglZEvLvwynsHaLcNhZPbRTIeRMpBa64ddG5Dqpixrx1hTXpusHE7SFnFJVhJB-fdVvDUBzyM1UnhLxzdkJ1crfRf4glk9KsXhLxANv1doKw3AKsnDJCGXkSXK01jrw9sECKdYofy0CnisqPUw4fwSsxm3f4KVwvVvUbv6Rxh1PwWoQq6lD4ZXxPdQL4Js4aDghrGYnkkoknv8RMqtuISN6DZijoIix9IVoWUbFgW2TDSwypB64kX3TSxENGAjUcucIVGCcjLlobZFtIMXRQJFkW9ayawhO-Qa9AMUfqTbVLXhgDfkjIVTUy9D9RIYAR2gUahnAcrJUqLj4Kd6aRE6dbSorRcenCI8LML7IjZMkctsmrEobwARIHgg0olhv_EOVFy4ixNdxxUjwwjJaUynaPuWYkkKEu9-KpxdWZGxi8zhPqTLDxqmkomOXhlndxH9MMpLrQoTgodltqzBBtyWLaSQoWNy8pG85s-goQ-qfba7_w6maLkfNEKfx4wXSWbINhk1GpyECXuD2P1u299GwdxUPu296CZq3qmcgJWRJMHnbmmqiVUv-2zKM1DggPahIJf72Q8UrPMkC7J3Sx0bbPg5ETvunr8pWxkzmzNh6A74ruNYrBr8sun-Mk6Sk6oew0XggEW595HrFrQewSikJv76WxFExyFpZeRSxIwOIpxjyLNLkILmtzV5H6F7O4lVS7em2wPfLNmSe898RpbdMJ-m_OLnMzj6Frj5SjJ9Kk92Q47yzw2umT_WC0?></g></svg>