<svg xmlns="http://www.w3.org/2000/svg" xmlns:xlink="http://www.w3.org/1999/xlink" contentStyleType="text/css" data-diagram-type="DESCRIPTION" height="957px" preserveAspectRatio="none" style="width:1453px;height:957px;background:#FFFFFF;" version="1.1" viewBox="0 0 1453 957" width="1453px" zoomAndPan="magnify"><?plantuml 1.2026.6?><defs/><g><g class="title" data-source-line="4"><text fill="#000000" font-family="sans-serif" font-size="14" font-weight="700" lengthAdjust="spacing" textLength="253.6406" x="596.6599" y="24.5332">AwesomeMusic - System Architecture</text></g><!--cluster Web Layer--><g class="cluster" data-qualified-name="Web Layer" data-source-line="8" id="ent0002"><path d="M387.58,147.6094 L459.3798,147.6094 A3.75,3.75 0 0 1 461.8798,150.1094 L468.8798,171.2188 L598.58,171.2188 A2.5,2.5 0 0 1 601.08,173.7188 L601.08,385.1094 A2.5,2.5 0 0 1 598.58,387.6094 L387.58,387.6094 A2.5,2.5 0 0 1 385.08,385.1094 L385.08,150.1094 A2.5,2.5 0 0 1 387.58,147.6094" fill="none" style="stroke:#000000;stroke-width:1.5;"/><line style="stroke:#000000;stroke-width:1.5;" x1="385.08" x2="468.8798" y1="171.2188" y2="171.2188"/><text fill="#000000" font-family="sans-serif" font-size="14" font-weight="700" lengthAdjust="spacing" textLength="70.7998" x="389.08" y="164.1426">Web Layer</text></g><!--cluster Backend Layer--><g class="cluster" data-qualified-name="Backend Layer" data-source-line="13" id="ent0005"><path d="M423.58,437.6094 L524.1864,437.6094 A3.75,3.75 0 0 1 526.6864,440.1094 L533.6864,461.2188 L562.58,461.2188 A2.5,2.5 0 0 1 565.08,463.7188 L565.08,542.1094 A2.5,2.5 0 0 1 562.58,544.6094 L423.58,544.6094 A2.5,2.5 0 0 1 421.08,542.1094 L421.08,440.1094 A2.5,2.5 0 0 1 423.58,437.6094" fill="none" style="stroke:#000000;stroke-width:1.5;"/><line style="stroke:#000000;stroke-width:1.5;" x1="421.08" x2="533.6864" y1="461.2188" y2="461.2188"/><text fill="#000000" font-family="sans-serif" font-size="14" font-weight="700" lengthAdjust="spacing" textLength="99.6064" x="425.08" y="454.1426">Backend Layer</text></g><!--cluster Algorithm Layer--><g class="cluster" data-qualified-name="Algorithm Layer" data-source-line="17" id="ent0007"><path d="M148.58,619.1094 L256.9316,619.1094 A3.75,3.75 0 0 1 259.4316,621.6094 L266.4316,642.7188 L305.58,642.7188 A2.5,2.5 0 0 1 308.08,645.2188 L308.08,706.6094 A2.5,2.5 0 0 1 305.58,709.1094 L148.58,709.1094 A2.5,2.5 0 0 1 146.08,706.6094 L146.08,621.6094 A2.5,2.5 0 0 1 148.58,619.1094" fill="none" style="stroke:#000000;stroke-width:1.5;"/><line style="stroke:#000000;stroke-width:1.5;" x1="146.08" x2="266.4316" y1="642.7188" y2="642.7188"/><text fill="#000000" font-family="sans-serif" font-size="14" font-weight="700" lengthAdjust="spacing" textLength="107.3516" x="150.08" y="635.6426">Algorithm Layer</text></g><!--cluster Scheduling--><g class="cluster" data-qualified-name="Scheduling" data-source-line="21" id="ent0009"><path d="M792.58,610.6094 L869.0282,610.6094 A3.75,3.75 0 0 1 871.5282,613.1094 L878.5282,634.2188 L1003.58,634.2188 A2.5,2.5 0 0 1 1006.08,636.7188 L1006.08,715.1094 A2.5,2.5 0 0 1 1003.58,717.6094 L792.58,717.6094 A2.5,2.5 0 0 1 790.08,715.1094 L790.08,613.1094 A2.5,2.5 0 0 1 792.58,610.6094" fill="none" style="stroke:#000000;stroke-width:1.5;"/><line style="stroke:#000000;stroke-width:1.5;" x1="790.08" x2="878.5282" y1="634.2188" y2="634.2188"/><text fill="#000000" font-family="sans-serif" font-size="14" font-weight="700" lengthAdjust="spacing" textLength="75.4482" x="794.08" y="627.1426">Scheduling</text></g><!--cluster Infrastructure--><g class="cluster" data-qualified-name="Infrastructure" data-source-line="25" id="ent0011"><path d="M97.58,791.6094 L189.6005,791.6094 A3.75,3.75 0 0 1 192.1005,794.1094 L199.1005,815.2188 L829.58,815.2188 A2.5,2.5 0 0 1 832.08,817.7188 L832.08,940.1094 A2.5,2.5 0 0 1 829.58,942.6094 L97.58,942.6094 A2.5,2.5 0 0 1 95.08,940.1094 L95.08,794.1094 A2.5,2.5 0 0 1 97.58,791.6094" fill="none" style="stroke:#000000;stroke-width:1.5;"/><line style="stroke:#000000;stroke-width:1.5;" x1="95.08" x2="199.1005" y1="815.2188" y2="815.2188"/><text fill="#000000" font-family="sans-serif" font-size="14" font-weight="700" lengthAdjust="spacing" textLength="91.0205" x="99.08" y="808.1426">Infrastructure</text></g><!--entity FE--><g class="entity" data-qualified-name="Web Layer.FE" data-source-line="9" id="ent0003"><rect fill="#F1F1F1" height="55.2188" rx="2.5" ry="2.5" style="stroke:#181818;stroke-width:0.5;" width="184.1514" x="401.08" y="183.6094"/><text fill="#000000" font-family="sans-serif" font-size="14" lengthAdjust="spacing" textLength="88.71" x="411.08" y="208.1426">Web Frontend</text><text fill="#000000" font-family="sans-serif" font-size="14" lengthAdjust="spacing" textLength="164.1514" x="411.08" y="225.752">(HTML/CSS/JS/Bootstrap)</text></g><!--entity NGINX--><g class="entity" data-qualified-name="Web Layer.NGINX" data-source-line="10" id="ent0004"><rect fill="#F1F1F1" height="55.2188" rx="2.5" ry="2.5" style="stroke:#181818;stroke-width:0.5;" width="101.7031" x="442.08" y="316.6094"/><text fill="#000000" font-family="sans-serif" font-size="14" lengthAdjust="spacing" textLength="81.7031" x="452.08" y="341.1426">API Gateway</text><text fill="#000000" font-family="sans-serif" font-size="14" lengthAdjust="spacing" textLength="78.6064" x="452.08" y="358.752">Nginx 1.19.8</text></g><!--entity BE--><g class="entity" data-qualified-name="Backend Layer.BE" data-source-line="14" id="ent0006"><rect fill="#F1F1F1" height="55.2188" rx="2.5" ry="2.5" style="stroke:#181818;stroke-width:0.5;" width="112.21" x="437.08" y="473.6094"/><text fill="#000000" font-family="sans-serif" font-size="14" lengthAdjust="spacing" textLength="87.1582" x="447.08" y="498.1426">Web Backend</text><text fill="#000000" font-family="sans-serif" font-size="14" lengthAdjust="spacing" textLength="92.21" x="447.08" y="515.752">(Golang + Gin)</text></g><!--entity ALG--><g class="entity" data-qualified-name="Algorithm Layer.ALG" data-source-line="18" id="ent0008"><rect fill="#F1F1F1" height="37.6094" rx="2.5" ry="2.5" style="stroke:#181818;stroke-width:0.5;" width="129.7031" x="162.08" y="655.1094"/><text fill="#000000" font-family="sans-serif" font-size="14" lengthAdjust="spacing" textLength="109.7031" x="172.08" y="679.6426">Algorithm Service</text></g><!--entity SCH--><g class="entity" data-qualified-name="Scheduling.SCH" data-source-line="22" id="ent0010"><rect fill="#F1F1F1" height="55.2188" rx="2.5" ry="2.5" style="stroke:#181818;stroke-width:0.5;" width="183.8232" x="806.08" y="646.6094"/><text fill="#000000" font-family="sans-serif" font-size="14" lengthAdjust="spacing" textLength="119.082" x="816.08" y="671.1426">Scheduling Module</text><text fill="#000000" font-family="sans-serif" font-size="14" lengthAdjust="spacing" textLength="163.8232" x="816.08" y="688.752">(02:00 daily + on-demand)</text></g><!--entity DB--><g class="entity" data-qualified-name="Infrastructure.DB" data-source-line="26" id="ent0012"><path d="M111.58,837.6094 C111.58,827.6094 210.2797,827.6094 210.2797,827.6094 C210.2797,827.6094 308.9794,827.6094 308.9794,837.6094 L308.9794,917.0469 C308.9794,927.0469 210.2797,927.0469 210.2797,927.0469 C210.2797,927.0469 111.58,927.0469 111.58,917.0469 L111.58,837.6094" fill="#F1F1F1" style="stroke:#181818;stroke-width:0.5;"/><path d="M111.58,837.6094 C111.58,847.6094 210.2797,847.6094 210.2797,847.6094 C210.2797,847.6094 308.9794,847.6094 308.9794,837.6094" fill="none" style="stroke:#181818;stroke-width:0.5;"/><text fill="#000000" font-family="sans-serif" font-size="14" lengthAdjust="spacing" textLength="85.5996" x="121.58" y="866.1426">Relational DB</text><text fill="#000000" font-family="sans-serif" font-size="14" lengthAdjust="spacing" textLength="177.3994" x="121.58" y="883.752">(Accounts, favorites, follows,</text><text fill="#000000" font-family="sans-serif" font-size="14" lengthAdjust="spacing" textLength="169.6406" x="121.58" y="901.3613">score metadata, hot charts,</text><text fill="#000000" font-family="sans-serif" font-size="14" lengthAdjust="spacing" textLength="105.0547" x="121.58" y="918.9707">model metadata)</text></g><!--entity HDFS--><g class="entity" data-qualified-name="Infrastructure.HDFS" data-source-line="27" id="ent0013"><rect fill="#F1F1F1" height="55.2188" rx="2.5" ry="2.5" style="stroke:#181818;stroke-width:0.5;" width="149.9238" x="344.08" y="849.6094"/><text fill="#000000" font-family="sans-serif" font-size="14" lengthAdjust="spacing" textLength="84.0684" x="354.08" y="874.1426">Hadoop 3.2.2</text><text fill="#000000" font-family="sans-serif" font-size="14" lengthAdjust="spacing" textLength="129.9238" x="354.08" y="891.752">(Score/MIDI storage)</text></g><!--entity MQ--><g class="entity" data-qualified-name="Infrastructure.MQ" data-source-line="28" id="ent0014"><rect fill="#F1F1F1" height="55.2188" rx="2.5" ry="2.5" style="stroke:#181818;stroke-width:0.5;" width="125.834" x="529.08" y="849.6094"/><text fill="#000000" font-family="sans-serif" font-size="14" lengthAdjust="spacing" textLength="105.834" x="539.08" y="874.1426">RabbitMQ 3.8.14</text><text fill="#000000" font-family="sans-serif" font-size="14" lengthAdjust="spacing" textLength="85.5859" x="539.08" y="891.752">(Task Queue)</text></g><!--entity ETCD--><g class="entity" data-qualified-name="Infrastructure.ETCD" data-source-line="29" id="ent0015"><rect fill="#F1F1F1" height="55.2188" rx="2.5" ry="2.5" style="stroke:#181818;stroke-width:0.5;" width="125.0273" x="690.58" y="849.6094"/><text fill="#000000" font-family="sans-serif" font-size="14" lengthAdjust="spacing" textLength="69.2754" x="700.58" y="874.1426">etcd 3.4.15</text><text fill="#000000" font-family="sans-serif" font-size="14" lengthAdjust="spacing" textLength="105.0273" x="700.58" y="891.752">(Registry/Config)</text></g><!--entity user--><g class="entity" data-qualified-name="user" data-source-line="6" id="ent0001"><rect fill="#F1F1F1" height="37.6094" rx="2.5" ry="2.5" style="stroke:#181818;stroke-width:0.5;" width="114.1172" x="436.08" y="45.6094"/><text fill="#000000" font-family="sans-serif" font-size="14" lengthAdjust="spacing" textLength="94.1172" x="446.08" y="70.1426">User (Browser)</text></g><g class="entity" data-qualified-name="GMN29" data-source-line="54" id="ent0030"><path d="M1025.58,636.6094 L1025.58,712.0156 L1438.9604,712.0156 L1438.9604,646.6094 L1428.9604,636.6094 L1025.58,636.6094" fill="#FEFFDD" style="stroke:#181818;stroke-width:0.5;"/><path d="M1428.9604,636.6094 L1428.9604,646.6094 L1438.9604,646.6094 L1428.9604,636.6094" fill="#FEFFDD" style="stroke:#181818;stroke-width:1;"/><text fill="#000000" font-family="sans-serif" font-size="13" lengthAdjust="spacing" textLength="392.3804" x="1031.58" y="655.1045">- Online generation: midi-&gt;abc, seed extraction, generate, abc-&gt;midi</text><text fill="#000000" font-family="sans-serif" font-size="13" lengthAdjust="spacing" textLength="205.1689" x="1031.58" y="671.4561">- Daily training: user-specific GPT-2</text><text fill="#000000" font-family="sans-serif" font-size="13" lengthAdjust="spacing" textLength="171.9644" x="1031.58" y="687.8076">- Classification: score labeling</text><text fill="#000000" font-family="sans-serif" font-size="13" lengthAdjust="spacing" textLength="228.3062" x="1031.58" y="704.1592">- Recommendation: user/song similarity</text></g><!--link user to FE--><g class="link" data-entity-1="ent0001" data-entity-2="ent0003" data-link-type="dependency" data-source-line="33" id="lnk16"><path d="M493.08,83.6194 C493.08,108.7394 493.08,149.4694 493.08,178.5094" fill="none" id="user-to-FE" style="stroke:#181818;stroke-width:1;"/><polygon fill="#181818" points="493.08,183.5094,497.08,174.5094,493.08,178.5094,489.08,174.5094,493.08,183.5094" style="stroke:#181818;stroke-width:1;stroke-linejoin:miter;stroke-miterlimit:10;"/><text fill="#000000" font-family="sans-serif" font-size="13" lengthAdjust="spacing" textLength="42.6118" x="494.08" y="128.1045">HTTPS</text></g><!--link FE to NGINX--><g class="link" data-entity-1="ent0003" data-entity-2="ent0004" data-link-type="dependency" data-source-line="34" id="lnk17"><path d="M493.08,238.6194 C493.08,261.1994 493.08,288.4894 493.08,311.1894" fill="none" id="FE-to-NGINX" style="stroke:#181818;stroke-width:1;"/><polygon fill="#181818" points="493.08,316.1894,497.08,307.1894,493.08,311.1894,489.08,307.1894,493.08,316.1894" style="stroke:#181818;stroke-width:1;stroke-linejoin:miter;stroke-miterlimit:10;"/><text fill="#000000" font-family="sans-serif" font-size="13" lengthAdjust="spacing" textLength="42.6118" x="494.08" y="283.1045">HTTPS</text></g><!--link NGINX to BE--><g class="link" data-entity-1="ent0004" data-entity-2="ent0006" data-link-type="dependency" data-source-line="35" id="lnk18"><path d="M493.08,371.7594 C493.08,400.2294 493.08,440.1094 493.08,468.5494" fill="none" id="NGINX-to-BE" style="stroke:#181818;stroke-width:1;"/><polygon fill="#181818" points="493.08,473.5494,497.08,464.5494,493.08,468.5494,489.08,464.5494,493.08,473.5494" style="stroke:#181818;stroke-width:1;stroke-linejoin:miter;stroke-miterlimit:10;"/><text fill="#000000" font-family="sans-serif" font-size="13" lengthAdjust="spacing" textLength="63.5527" x="494.08" y="418.1045">HTTP/TCP</text></g><!--link BE to DB--><g class="link" data-entity-1="ent0006" data-entity-2="ent0012" data-link-type="dependency" data-source-line="37" id="lnk19"><path d="M479.75,528.6194 C453.51,579.4394 391.64,692.8794 322.08,775.6094 C306.78,793.8094 291.9519,808.453 274.3619,824.043" fill="none" id="BE-to-DB" style="stroke:#181818;stroke-width:1;"/><polygon fill="#181818" points="270.62,827.3594,280.0085,824.3833,274.3619,824.043,274.7022,818.3964,270.62,827.3594" style="stroke:#181818;stroke-width:1;stroke-linejoin:miter;stroke-miterlimit:10;"/></g><!--link BE to HDFS--><g class="link" data-entity-1="ent0006" data-entity-2="ent0013" data-link-type="dependency" data-source-line="38" id="lnk20"><path d="M498.83,528.6394 C508.46,578.5494 524.09,689.1794 495.08,775.6094 C485.55,804.0194 467.8658,827.158 450.3158,845.918" fill="none" id="BE-to-HDFS" style="stroke:#181818;stroke-width:1;"/><polygon fill="#181818" points="446.9,849.5694,455.9695,845.7296,450.3158,845.918,450.1274,840.2643,446.9,849.5694" style="stroke:#181818;stroke-width:1;stroke-linejoin:miter;stroke-miterlimit:10;"/></g><!--link BE to ETCD--><g class="link" data-entity-1="ent0006" data-entity-2="ent0015" data-link-type="dependency" data-source-line="39" id="lnk21"><path d="M549.3,513.7294 C597.97,526.8294 666.3,553.0994 704.08,602.6094 C761,677.1994 760.0773,791.3329 756.1773,844.2729" fill="none" id="BE-to-ETCD" style="stroke:#181818;stroke-width:1;"/><polygon fill="#181818" points="755.81,849.2594,760.4604,840.5776,756.1773,844.2729,752.482,839.9898,755.81,849.2594" style="stroke:#181818;stroke-width:1;stroke-linejoin:miter;stroke-miterlimit:10;"/></g><!--link BE to MQ--><g class="link" data-entity-1="ent0006" data-entity-2="ent0014" data-link-type="dependency" data-source-line="42" id="lnk22"><path d="M514.72,528.7194 C521.53,538.2794 528.47,549.4694 533.08,560.6094 C574.95,661.7894 586.9877,788.5391 590.4777,844.3091" fill="none" id="BE-to-MQ" style="stroke:#181818;stroke-width:1;"/><polygon fill="#181818" points="590.79,849.2994,594.2201,840.0671,590.4777,844.3091,586.2357,840.5668,590.79,849.2994" style="stroke:#181818;stroke-width:1;stroke-linejoin:miter;stroke-miterlimit:10;"/><text fill="#000000" font-family="sans-serif" font-size="13" lengthAdjust="spacing" textLength="117.1016" x="578.08" y="671.6045">Enqueue generation</text><text fill="#000000" font-family="sans-serif" font-size="13" lengthAdjust="spacing" textLength="82.3926" x="595.4345" y="687.9561">and other jobs</text></g><!--link SCH to MQ--><g class="link" data-entity-1="ent0010" data-entity-2="ent0014" data-link-type="dependency" data-source-line="43" id="lnk23"><path d="M824.74,701.6794 C778.59,720.4494 719.24,748.4894 673.08,783.6094 C648.45,802.3494 628.7441,825.5425 613.6741,845.5925" fill="none" id="SCH-to-MQ" style="stroke:#181818;stroke-width:1;"/><polygon fill="#181818" points="610.67,849.5894,619.275,844.7983,613.6741,845.5925,612.88,839.9917,610.67,849.5894" style="stroke:#181818;stroke-width:1;stroke-linejoin:miter;stroke-miterlimit:10;"/><text fill="#000000" font-family="sans-serif" font-size="13" lengthAdjust="spacing" textLength="82.3989" x="768.7646" y="756.1045">Enqueue daily</text><text fill="#000000" font-family="sans-serif" font-size="13" lengthAdjust="spacing" textLength="143.7681" x="738.08" y="772.4561">train/classify/recommend</text></g><!--link SCH to ETCD--><g class="link" data-entity-1="ent0010" data-entity-2="ent0015" data-link-type="dependency" data-source-line="44" id="lnk24"><path d="M930.92,701.7794 C951.88,722.1694 972.47,750.8694 957.08,775.6094 C926.43,824.8894 868.5335,849.3926 820.6935,862.4526" fill="none" id="SCH-to-ETCD" style="stroke:#181818;stroke-width:1;"/><polygon fill="#181818" points="815.87,863.7694,825.6057,865.258,820.6935,862.4526,823.4989,857.5404,815.87,863.7694" style="stroke:#181818;stroke-width:1;stroke-linejoin:miter;stroke-miterlimit:10;"/><text fill="#000000" font-family="sans-serif" font-size="13" lengthAdjust="spacing" textLength="112.0171" x="963.08" y="764.1045">Config/coordination</text></g><!--link ALG to MQ--><g class="link" data-entity-1="ent0008" data-entity-2="ent0014" data-link-type="dependency" data-source-line="46" id="lnk25"><path d="M262.1,693.1494 C307.35,715.7194 389.13,754.0294 463.08,775.6094 C483.85,781.6694 492.19,773.0794 511.08,783.6094 C538.87,799.0894 558.9725,823.7318 573.2425,845.0918" fill="none" id="ALG-to-MQ" style="stroke:#181818;stroke-width:1;"/><polygon fill="#181818" points="576.02,849.2494,574.3465,839.5437,573.2425,845.0918,567.6944,843.9878,576.02,849.2494" style="stroke:#181818;stroke-width:1;stroke-linejoin:miter;stroke-miterlimit:10;"/><text fill="#000000" font-family="sans-serif" font-size="13" lengthAdjust="spacing" textLength="89.5908" x="464.6322" y="756.1045">Consume tasks</text><text fill="#000000" font-family="sans-serif" font-size="13" lengthAdjust="spacing" textLength="90.6953" x="464.08" y="772.4561">+ publish status</text></g><!--link ALG to HDFS--><g class="link" data-entity-1="ent0008" data-entity-2="ent0013" data-link-type="dependency" data-source-line="47" id="lnk26"><path d="M228.84,693.2394 C232.11,716.2894 241.34,755.4894 267.08,775.6094 C287.93,791.9094 302.36,771.8894 326.08,783.6094 C356.71,798.7394 380.3033,823.948 397.1333,845.508" fill="none" id="ALG-to-HDFS" style="stroke:#181818;stroke-width:1;"/><polygon fill="#181818" points="400.21,849.4494,397.8251,839.8936,397.1333,845.508,391.5189,844.8163,400.21,849.4494" style="stroke:#181818;stroke-width:1;stroke-linejoin:miter;stroke-miterlimit:10;"/><text fill="#000000" font-family="sans-serif" font-size="13" lengthAdjust="spacing" textLength="65.019" x="280.7245" y="756.1045">Read/Write</text><text fill="#000000" font-family="sans-serif" font-size="13" lengthAdjust="spacing" textLength="90.3081" x="268.08" y="772.4561">midi/abc/scores</text></g><!--link ALG to DB--><g class="link" data-entity-1="ent0008" data-entity-2="ent0012" data-link-type="dependency" data-source-line="48" id="lnk27"><path d="M162.05,679.0894 C118.63,685.5294 64.46,701.6794 36.08,741.6094 C6,783.9394 52.4094,817.2449 106.8194,841.0549" fill="none" id="ALG-to-DB" style="stroke:#181818;stroke-width:1;"/><polygon fill="#181818" points="111.4,843.0594,104.7585,835.7868,106.8194,841.0549,101.5513,843.1158,111.4,843.0594" style="stroke:#181818;stroke-width:1;stroke-linejoin:miter;stroke-miterlimit:10;"/><text fill="#000000" font-family="sans-serif" font-size="13" lengthAdjust="spacing" textLength="83.1099" x="69.9482" y="756.1045">Update labels,</text><text fill="#000000" font-family="sans-serif" font-size="13" lengthAdjust="spacing" textLength="148.8462" x="37.08" y="772.4561">models,recommendations</text></g><!--link BE to ALG--><g class="link" data-entity-1="ent0006" data-entity-2="ent0008" data-link-type="dependency" data-source-line="51" id="lnk28"><path d="M436.81,505.9794 C364.74,512.2494 245.93,527.4294 219.08,560.6094 C197.41,587.3994 207.4921,625.8755 217.0521,650.2155" fill="none" id="BE-to-ALG" style="stroke:#181818;stroke-width:1;"/><polygon fill="#181818" points="218.88,654.8694,219.3129,645.03,217.0521,650.2155,211.8667,647.9547,218.88,654.8694" style="stroke:#181818;stroke-width:1;stroke-linejoin:miter;stroke-miterlimit:10;"/><text fill="#000000" font-family="sans-serif" font-size="13" lengthAdjust="spacing" textLength="98.2617" x="220.08" y="575.1045">Recommend API</text><text fill="#000000" font-family="sans-serif" font-size="13" lengthAdjust="spacing" textLength="74.4263" x="231.9977" y="591.4561">(on-demand)</text></g><!--link ALG to GMN29--><g class="link" data-entity-1="ent0008" data-entity-2="ent0030" data-link-type="association" data-source-line="54" id="lnk31"><path d="M275.64,655.0794 C338.9,631.3994 453.5,592.2894 555.58,577.6094 C746.07,550.2094 799.55,541.5194 988.58,577.6094 C1047.99,588.9494 1111.39,614.5594 1158.61,636.5394" fill="none" id="ALG-GMN29" style="stroke:#181818;stroke-width:1;stroke-dasharray:7,7;"/></g><?plantuml-src VLJ1Rjiu4BtpAmQvj4KjAyccGEj30CjER6_ZDB5ST0--qDHOueOYLP9gAXJxxpiK7RjkiNiRQTwyUJDyf7kIkk6Mro1CtHYDskU-KmWMXUUwLCZS0U8gNfXdgKlOSUMGCIyzGSVFw4oDozP90GdadVDOmzYAIdfYQIqX3tHmzjcXXTUPDSyKl3a3xg2bYB66YoTU4k8BRk6ETsZFu0U3exAOkRL6UzJ5Hh-UhvTtwIJFqp_pD3F6Eszv4oblRquhnmyBc76FpxpRwFjIwkzmCRpuC7pVe-zdY_k_s3y_QSWee2R_esEF81apesWsU0ipgMFtxEQ4RAnAOwMlwl-WE-PpjD-am9vaV3SxOSb5XKMhQF-_4HnJi3GK8AawlnoTdqF1fUf8cj59WJNNHHIOJ-Odt0kzivpMr_Rd5VaBxlcMEygkK74lZUOAfXbHZuKmhVPkG4Ru5fHZ28rITAQ3ZNR2M8GQFGyK0wYC1r5nwqEoDWMgGpAgcMQduyp9PwQ1FuQNmqjgbmU-TBcOBi1vOqbmB9jFR_FJmXNVRgLVFbBf--755TMkkNk2nnRRVStoyRG2lIW8VJMyU4Ve5PQIjj2b4wDtiembD-l9D2ph5Np43YIPpt8Hrk5OC2uaoJNP3KOmNwyVSaPX-DDRwl0pVeN_sGioNKyU6CiYcZQmZ_gXzd7VcVhsGnYwK1WS7bg_86ZK4Tpehs50A55ZJ6yqdJGONv6ylytMCJhlt_6zDpQQAALEXUBEoLsNqbKrTKtEFXG56LGMTv8AOsmXTPJ1oAH7OaAujaRmfDTjz5jesgsIhg9Zuxvr1t2OaU0hv4Nw9TY7R24BcVAjI7lp7A7JZ82V6_8AWk9RL0SFkS51AO-dGPkQol3IqEj54peF3VSL6TF2hz3z-aANe6EV17ebo0N7kyAODjJOohBoO7RzbKpWawQRzlEwHn3a9zUaVm0EiG3yxlSc6RpWS02KJwu3b4Yc_SNiTq_NTjI_WObhKCWTFQEpXtLoIQX9F1KfzdtYrUeNGLK4M9qC5cbIP-WXSBAMYjDsEnP62uEmVm40?></g></svg>