<svg xmlns="http://www.w3.org/2000/svg" xmlns:xlink="http://www.w3.org/1999/xlink" contentStyleType="text/css" data-diagram-type="DESCRIPTION" height="859px" preserveAspectRatio="none" style="width:3434px;height:859px;background:#FFFFFF;" version="1.1" viewBox="0 0 3434 859" width="3434px" zoomAndPan="magnify"><?plantuml 1.2026.6?><defs/><g><g class="title" data-source-line="1"><text fill="#000000" font-family="sans-serif" font-size="14" font-weight="700" lengthAdjust="spacing" textLength="214.7646" x="1606.5836" y="24.5332">EasyLaTeX System Architecture</text></g><!--cluster Client (Browser)--><g class="cluster" data-qualified-name="Client .Browser." data-source-line="7" id="ent0002"><path d="M909.63,186.1094 L1018.754,186.1094 A3.75,3.75 0 0 1 1021.254,188.6094 L1028.254,209.7188 L1166.63,209.7188 A2.5,2.5 0 0 1 1169.13,212.2188 L1169.13,512.6094 A2.5,2.5 0 0 1 1166.63,515.1094 L909.63,515.1094 A2.5,2.5 0 0 1 907.13,512.6094 L907.13,188.6094 A2.5,2.5 0 0 1 909.63,186.1094" fill="none" style="stroke:#000000;stroke-width:1.5;"/><line style="stroke:#000000;stroke-width:1.5;" x1="907.13" x2="1028.254" y1="209.7188" y2="209.7188"/><text fill="#000000" font-family="sans-serif" font-size="14" font-weight="700" lengthAdjust="spacing" textLength="108.124" x="911.13" y="202.6426">Client (Browser)</text></g><!--cluster Edge/Web Tier--><g class="cluster" data-qualified-name="Edge.Web Tier" data-source-line="12" id="ent0005"><path d="M1882.63,195.1094 L1980.8644,195.1094 A3.75,3.75 0 0 1 1983.3644,197.6094 L1990.3644,218.7188 L2278.63,218.7188 A2.5,2.5 0 0 1 2281.13,221.2188 L2281.13,319.6094 A2.5,2.5 0 0 1 2278.63,322.1094 L1882.63,322.1094 A2.5,2.5 0 0 1 1880.13,319.6094 L1880.13,197.6094 A2.5,2.5 0 0 1 1882.63,195.1094" fill="none" style="stroke:#000000;stroke-width:1.5;"/><line style="stroke:#000000;stroke-width:1.5;" x1="1880.13" x2="1990.3644" y1="218.7188" y2="218.7188"/><text fill="#000000" font-family="sans-serif" font-size="14" font-weight="700" lengthAdjust="spacing" textLength="97.2344" x="1884.13" y="211.6426">Edge/Web Tier</text></g><!--cluster Application Services (Backend)--><g class="cluster" data-qualified-name="Application Services .Backend." data-source-line="17" id="ent0008"><path d="M1195.63,379.1094 L1405.9191,379.1094 A3.75,3.75 0 0 1 1408.4191,381.6094 L1415.4191,402.7188 L3157.63,402.7188 A2.5,2.5 0 0 1 3160.13,405.2188 L3160.13,841.6094 A2.5,2.5 0 0 1 3157.63,844.1094 L1195.63,844.1094 A2.5,2.5 0 0 1 1193.13,841.6094 L1193.13,381.6094 A2.5,2.5 0 0 1 1195.63,379.1094" fill="none" style="stroke:#000000;stroke-width:1.5;"/><line style="stroke:#000000;stroke-width:1.5;" x1="1193.13" x2="1415.4191" y1="402.7188" y2="402.7188"/><text fill="#000000" font-family="sans-serif" font-size="14" font-weight="700" lengthAdjust="spacing" textLength="209.2891" x="1197.13" y="395.6426">Application Services (Backend)</text></g><!--cluster Data & Infrastructure--><g class="cluster" data-qualified-name="Data . Infrastructure" data-source-line="31" id="ent0020"><path d="M229.63,572.1094 L369.8849,572.1094 A3.75,3.75 0 0 1 372.3849,574.6094 L379.3849,595.7188 L1166.63,595.7188 A2.5,2.5 0 0 1 1169.13,598.2188 L1169.13,706.6094 A2.5,2.5 0 0 1 1166.63,709.1094 L229.63,709.1094 A2.5,2.5 0 0 1 227.13,706.6094 L227.13,574.6094 A2.5,2.5 0 0 1 229.63,572.1094" fill="none" style="stroke:#000000;stroke-width:1.5;"/><line style="stroke:#000000;stroke-width:1.5;" x1="227.13" x2="379.3849" y1="595.7188" y2="595.7188"/><text fill="#000000" font-family="sans-serif" font-size="14" font-weight="700" lengthAdjust="spacing" textLength="139.2549" x="231.13" y="588.6426">Data &amp; Infrastructure</text></g><!--entity WebUI--><g class="entity" data-qualified-name="Client .Browser..WebUI" data-source-line="8" id="ent0003"><rect fill="#F1F1F1" height="72.8281" rx="2.5" ry="2.5" style="stroke:#181818;stroke-width:0.5;" width="208.2822" x="945.13" y="242.1094"/><text fill="#000000" font-family="sans-serif" font-size="14" lengthAdjust="spacing" textLength="46.6758" x="955.13" y="266.6426">Web UI</text><text fill="#000000" font-family="sans-serif" font-size="14" lengthAdjust="spacing" textLength="137.7305" x="955.13" y="284.252">Upload, Edit, Preview,</text><text fill="#000000" font-family="sans-serif" font-size="14" lengthAdjust="spacing" textLength="188.2822" x="955.13" y="301.8613">Projects, Versions, Comments</text></g><!--entity WSClient--><g class="entity" data-qualified-name="Client .Browser..WSClient" data-source-line="9" id="ent0004"><rect fill="#F1F1F1" height="55.2188" rx="2.5" ry="2.5" style="stroke:#181818;stroke-width:0.5;" width="228.5371" x="923.63" y="444.1094"/><text fill="#000000" font-family="sans-serif" font-size="14" lengthAdjust="spacing" textLength="111.2686" x="933.63" y="468.6426">WebSocket Client</text><text fill="#000000" font-family="sans-serif" font-size="14" lengthAdjust="spacing" textLength="208.5371" x="933.63" y="486.252">Realtime Preview &amp; Collaboration</text></g><!--entity Gateway--><g class="entity" data-qualified-name="Edge.Web Tier.Gateway" data-source-line="13" id="ent0006"><rect fill="#F1F1F1" height="55.2188" rx="2.5" ry="2.5" style="stroke:#181818;stroke-width:0.5;" width="187.2822" x="2077.63" y="251.1094"/><text fill="#000000" font-family="sans-serif" font-size="14" lengthAdjust="spacing" textLength="167.2822" x="2087.63" y="275.6426">Web Server / API Gateway</text><text fill="#000000" font-family="sans-serif" font-size="14" lengthAdjust="spacing" textLength="159.9131" x="2087.63" y="293.252">(Nginx/Apache + Node.js)</text></g><!--entity WS--><g class="entity" data-qualified-name="Edge.Web Tier.WS" data-source-line="14" id="ent0007"><rect fill="#F1F1F1" height="55.2188" rx="2.5" ry="2.5" style="stroke:#181818;stroke-width:0.5;" width="146.0342" x="1896.13" y="251.1094"/><text fill="#000000" font-family="sans-serif" font-size="14" lengthAdjust="spacing" textLength="114.3789" x="1906.13" y="275.6426">Realtime Gateway</text><text fill="#000000" font-family="sans-serif" font-size="14" lengthAdjust="spacing" textLength="126.0342" x="1906.13" y="293.252">(WebSocket Server)</text></g><!--entity Auth--><g class="entity" data-qualified-name="Application Services .Backend..Auth" data-source-line="18" id="ent0009"><rect fill="#F1F1F1" height="72.8281" rx="2.5" ry="2.5" style="stroke:#181818;stroke-width:0.5;" width="272.8955" x="2028.63" y="435.1094"/><text fill="#000000" font-family="sans-serif" font-size="14" lengthAdjust="spacing" textLength="91.0547" x="2038.63" y="459.6426">Auth &amp; Identity</text><text fill="#000000" font-family="sans-serif" font-size="14" lengthAdjust="spacing" textLength="252.8955" x="2038.63" y="477.252">Registration, Login, Password Recovery,</text><text fill="#000000" font-family="sans-serif" font-size="14" lengthAdjust="spacing" textLength="118.2617" x="2038.63" y="494.8613">Permission Control</text></g><!--entity UserSvc--><g class="entity" data-qualified-name="Application Services .Backend..UserSvc" data-source-line="19" id="ent0010"><rect fill="#F1F1F1" height="37.6094" rx="2.5" ry="2.5" style="stroke:#181818;stroke-width:0.5;" width="100.1309" x="2337.13" y="452.6094"/><text fill="#000000" font-family="sans-serif" font-size="14" lengthAdjust="spacing" textLength="80.1309" x="2347.13" y="477.1426">User Service</text></g><!--entity ProjectSvc--><g class="entity" data-qualified-name="Application Services .Backend..ProjectSvc" data-source-line="20" id="ent0011"><rect fill="#F1F1F1" height="37.6094" rx="2.5" ry="2.5" style="stroke:#181818;stroke-width:0.5;" width="114.1445" x="1713.13" y="452.6094"/><text fill="#000000" font-family="sans-serif" font-size="14" lengthAdjust="spacing" textLength="94.1445" x="1723.13" y="477.1426">Project Service</text></g><!--entity GroupSvc--><g class="entity" data-qualified-name="Application Services .Backend..GroupSvc" data-source-line="21" id="ent0012"><rect fill="#F1F1F1" height="37.6094" rx="2.5" ry="2.5" style="stroke:#181818;stroke-width:0.5;" width="209.0957" x="1468.63" y="452.6094"/><text fill="#000000" font-family="sans-serif" font-size="14" lengthAdjust="spacing" textLength="189.0957" x="1478.63" y="477.1426">Group &amp; Collaboration Service</text></g><!--entity VersionSvc--><g class="entity" data-qualified-name="Application Services .Backend..VersionSvc" data-source-line="22" id="ent0013"><rect fill="#F1F1F1" height="55.2188" rx="2.5" ry="2.5" style="stroke:#181818;stroke-width:0.5;" width="223.8682" x="1209.13" y="444.1094"/><text fill="#000000" font-family="sans-serif" font-size="14" lengthAdjust="spacing" textLength="147.0615" x="1219.13" y="468.6426">Version Control Service</text><text fill="#000000" font-family="sans-serif" font-size="14" lengthAdjust="spacing" textLength="203.8682" x="1219.13" y="486.252">Version Tree, Branches, Restore</text></g><!--entity CommentSvc--><g class="entity" data-qualified-name="Application Services .Backend..CommentSvc" data-source-line="23" id="ent0014"><rect fill="#F1F1F1" height="37.6094" rx="2.5" ry="2.5" style="stroke:#181818;stroke-width:0.5;" width="131.2549" x="1862.63" y="452.6094"/><text fill="#000000" font-family="sans-serif" font-size="14" lengthAdjust="spacing" textLength="111.2549" x="1872.63" y="477.1426">Comment Service</text></g><!--entity FileSvc--><g class="entity" data-qualified-name="Application Services .Backend..FileSvc" data-source-line="24" id="ent0015"><rect fill="#F1F1F1" height="55.2188" rx="2.5" ry="2.5" style="stroke:#181818;stroke-width:0.5;" width="240.2266" x="2723.13" y="444.1094"/><text fill="#000000" font-family="sans-serif" font-size="14" lengthAdjust="spacing" textLength="73.1309" x="2733.13" y="468.6426">File Service</text><text fill="#000000" font-family="sans-serif" font-size="14" lengthAdjust="spacing" textLength="220.2266" x="2733.13" y="486.252">Upload/Download, MIME Validation</text></g><!--entity RecognitionSvc--><g class="entity" data-qualified-name="Application Services .Backend..RecognitionSvc" data-source-line="25" id="ent0016"><rect fill="#F1F1F1" height="55.2188" rx="2.5" ry="2.5" style="stroke:#181818;stroke-width:0.5;" width="144.5098" x="2998.63" y="444.1094"/><text fill="#000000" font-family="sans-serif" font-size="14" lengthAdjust="spacing" textLength="124.5098" x="3008.63" y="468.6426">Recognition Service</text><text fill="#000000" font-family="sans-serif" font-size="14" lengthAdjust="spacing" textLength="113.9824" x="3008.63" y="486.252">OCR + DL Models</text></g><!--entity LatexGenSvc--><g class="entity" data-qualified-name="Application Services .Backend..LatexGenSvc" data-source-line="26" id="ent0017"><rect fill="#F1F1F1" height="55.2188" rx="2.5" ry="2.5" style="stroke:#181818;stroke-width:0.5;" width="213.751" x="2930.13" y="633.1094"/><text fill="#000000" font-family="sans-serif" font-size="14" lengthAdjust="spacing" textLength="164.9785" x="2940.13" y="657.6426">LaTeX Generation Service</text><text fill="#000000" font-family="sans-serif" font-size="14" lengthAdjust="spacing" textLength="193.751" x="2940.13" y="675.252">Normalize &amp; Synthesize LaTeX</text></g><!--entity RenderSvc--><g class="entity" data-qualified-name="Application Services .Backend..RenderSvc" data-source-line="27" id="ent0018"><rect fill="#F1F1F1" height="55.2188" rx="2.5" ry="2.5" style="stroke:#181818;stroke-width:0.5;" width="166.3027" x="2954.13" y="773.1094"/><text fill="#000000" font-family="sans-serif" font-size="14" lengthAdjust="spacing" textLength="96.4893" x="2964.13" y="797.6426">Render Service</text><text fill="#000000" font-family="sans-serif" font-size="14" lengthAdjust="spacing" textLength="146.3027" x="2964.13" y="815.252">LaTeX Engine Wrapper</text></g><!--entity ExportSvc--><g class="entity" data-qualified-name="Application Services .Backend..ExportSvc" data-source-line="28" id="ent0019"><rect fill="#F1F1F1" height="55.2188" rx="2.5" ry="2.5" style="stroke:#181818;stroke-width:0.5;" width="216.0684" x="2472.13" y="444.1094"/><text fill="#000000" font-family="sans-serif" font-size="14" lengthAdjust="spacing" textLength="91.0342" x="2482.13" y="468.6426">Export Service</text><text fill="#000000" font-family="sans-serif" font-size="14" lengthAdjust="spacing" textLength="196.0684" x="2482.13" y="486.252">PDF/LaTeX Source/PNG/JPEG</text></g><!--entity RDB--><g class="entity" data-qualified-name="Data . Infrastructure.RDB" data-source-line="32" id="ent0021"><path d="M416.13,638.6094 C416.13,628.6094 494.2057,628.6094 494.2057,628.6094 C494.2057,628.6094 572.2814,628.6094 572.2814,638.6094 L572.2814,682.8281 C572.2814,692.8281 494.2057,692.8281 494.2057,692.8281 C494.2057,692.8281 416.13,692.8281 416.13,682.8281 L416.13,638.6094" fill="#F1F1F1" style="stroke:#181818;stroke-width:0.5;"/><path d="M416.13,638.6094 C416.13,648.6094 494.2057,648.6094 494.2057,648.6094 C494.2057,648.6094 572.2814,648.6094 572.2814,638.6094" fill="none" style="stroke:#181818;stroke-width:0.5;"/><text fill="#000000" font-family="sans-serif" font-size="14" lengthAdjust="spacing" textLength="85.5996" x="426.13" y="667.1426">Relational DB</text><text fill="#000000" font-family="sans-serif" font-size="14" lengthAdjust="spacing" textLength="136.1514" x="426.13" y="684.752">(MySQL/PostgreSQL)</text></g><!--entity ObjStore--><g class="entity" data-qualified-name="Data . Infrastructure.ObjStore" data-source-line="33" id="ent0022"><path d="M616.7267,638.1109 C619.1038,631.1907 622.8773,629.1197 628.8736,634.5519 C632.4162,628.7049 635.8545,629.4832 640.0342,633.8562 C643.2361,628.8065 647.1901,628.2754 650.9809,633.2105 C653.3421,627.3365 658.2871,625.8579 663.1301,630.2827 C667.2875,623.3454 671.5997,623.9309 676.4659,629.5285 C678.7619,623.3099 682.335,622.3441 687.0702,627.1911 C691.6009,622.6124 696.2278,622.7738 698.5423,629.4501 C703.7589,623.3398 708.0177,624.5228 711.5721,631.1504 C715.8941,627.1253 719.9453,627.5469 722.2726,633.3272 C725.8296,626.1954 732.3555,628.044 735.5812,633.6727 C739.9697,628.6467 745.2393,630.0819 747.2291,636.1836 C750.9755,631.3548 755.2062,631.514 757.9559,637.2004 C766.4498,638.3293 766.9585,644.6809 762.56,650.3306 C769.8757,649.9695 772.4495,654.5353 768.7206,660.7221 C774.4487,668.1021 772.7413,672.6622 763.5705,674.4549 C768.729,680.5991 766.6416,686.1783 758.4651,686.814 C754.8309,692.7283 750.4562,691.2168 747.1943,686.4222 C743.7121,692.0231 738.9447,692.4313 735.0117,686.9162 C731.6258,692.4169 725.8477,691.937 722.6888,686.6568 C719.4822,691.5348 714.5576,692.6108 710.9699,687.0862 C707.8796,693.2829 702.4479,693.6507 698.6034,687.8646 C695.6538,693.089 691.1642,693.3994 687.6635,688.4576 C683.0458,693.0322 678.8641,694.4322 675.34,687.3057 C671.8744,693.7686 666.3959,692.8826 662.9325,687.3035 C659.269,692.599 655.7113,692.2412 652.1441,687.2031 C648.183,693.158 644.0203,693.0182 640.4202,686.8538 C636.5493,692.9647 632.1319,692.6476 628.1565,686.9625 C624.6948,692.3303 620.0225,692.7721 616.2723,687.2782 C609.341,683.3199 608.8322,679.2819 614.9675,674.0361 C607.7509,670.387 608.6857,665.8739 613.8398,661.1429 C609.5255,656.8572 611.1143,652.7232 616.2004,650.5281 C610.4255,646.9278 611.4872,641.2443 616.7267,638.1109" fill="#F1F1F1" style="stroke:#181818;stroke-width:0.5;"/><text fill="#000000" font-family="sans-serif" font-size="14" lengthAdjust="spacing" textLength="93.3857" x="622.13" y="657.6426">Object Storage</text><text fill="#000000" font-family="sans-serif" font-size="14" lengthAdjust="spacing" textLength="128.3721" x="622.13" y="675.252">(Uploads &amp; Artifacts)</text></g><!--entity MQ--><g class="entity" data-qualified-name="Data . Infrastructure.MQ" data-source-line="34" id="ent0023"><rect fill="#F1F1F1" height="55.2188" rx="2.5" ry="2.5" style="stroke:#181818;stroke-width:0.5;" width="122.7305" x="800.63" y="633.1094"/><text fill="#000000" font-family="sans-serif" font-size="14" lengthAdjust="spacing" textLength="102.7305" x="810.63" y="657.6426">Message Queue</text><text fill="#000000" font-family="sans-serif" font-size="14" lengthAdjust="spacing" textLength="79.3516" x="810.63" y="675.252">Async Tasks</text></g><!--entity ModelStore--><g class="entity" data-qualified-name="Data . Infrastructure.ModelStore" data-source-line="35" id="ent0024"><rect fill="#F1F1F1" height="55.2188" rx="2.5" ry="2.5" style="stroke:#181818;stroke-width:0.5;" width="194.2754" x="959.13" y="633.1094"/><text fill="#000000" font-family="sans-serif" font-size="14" lengthAdjust="spacing" textLength="84.0342" x="969.13" y="657.6426">Model Assets</text><text fill="#000000" font-family="sans-serif" font-size="14" lengthAdjust="spacing" textLength="174.2754" x="969.13" y="675.252">OCR/Formula/Table Models</text></g><!--entity LatexEngine--><g class="entity" data-qualified-name="Data . Infrastructure.LatexEngine" data-source-line="36" id="ent0025"><rect fill="#F1F1F1" height="55.2188" rx="2.5" ry="2.5" style="stroke:#181818;stroke-width:0.5;" width="138.248" x="243.13" y="633.1094"/><text fill="#000000" font-family="sans-serif" font-size="14" lengthAdjust="spacing" textLength="88.7305" x="253.13" y="657.6426">LaTeX Engine</text><text fill="#000000" font-family="sans-serif" font-size="14" lengthAdjust="spacing" textLength="118.248" x="253.13" y="675.252">(TeX Live/MiKTeX)</text></g><!--entity User--><g class="entity" data-qualified-name="User" data-source-line="5" id="ent0001"><ellipse cx="1048.9093" cy="52.6094" fill="#F1F1F1" rx="8" ry="8" style="stroke:#181818;stroke-width:0.5;"/><path d="M1048.9093,60.6094 L1048.9093,87.6094 M1035.9093,68.6094 L1061.9093,68.6094 M1048.9093,87.6094 L1035.9093,102.6094 M1048.9093,87.6094 L1061.9093,102.6094" fill="none" style="stroke:#181818;stroke-width:0.5;"/><text fill="#000000" font-family="sans-serif" font-size="14" lengthAdjust="spacing" textLength="29.5586" x="1034.13" y="118.6426">User</text></g><!--link User to WebUI--><g class="link" data-entity-1="ent0001" data-entity-2="ent0003" data-link-type="dependency" data-source-line="39" id="lnk26"><path d="M1049.13,122.3394 C1049.13,157.1394 1049.13,203.1294 1049.13,237.0694" fill="none" id="User-to-WebUI" style="stroke:#181818;stroke-width:1;"/><polygon fill="#181818" points="1049.13,242.0694,1053.13,233.0694,1049.13,237.0694,1045.13,233.0694,1049.13,242.0694" style="stroke:#181818;stroke-width:1;stroke-linejoin:miter;stroke-miterlimit:10;"/></g><!--link WebUI to Gateway--><g class="link" data-entity-1="ent0003" data-entity-2="ent0006" data-link-type="dependency" data-source-line="40" id="lnk27"><path d="M1153.39,262.0794 C1310.47,238.0894 1617.42,194.7794 1880.13,179.1094 C1959.99,174.3494 1985.41,150.5194 2060.13,179.1094 C2097.59,193.4394 2127.1879,223.051 2147.2279,247.211" fill="none" id="WebUI-to-Gateway" style="stroke:#181818;stroke-width:1;"/><polygon fill="#181818" points="2150.42,251.0594,2147.7529,241.5785,2147.2279,247.211,2141.5954,246.686,2150.42,251.0594" style="stroke:#181818;stroke-width:1;stroke-linejoin:miter;stroke-miterlimit:10;"/><text fill="#000000" font-family="sans-serif" font-size="13" lengthAdjust="spacing" textLength="72.2236" x="1561.13" y="166.6045">REST/HTTP</text></g><!--link WebUI to WSClient--><g class="link" data-entity-1="ent0003" data-entity-2="ent0004" data-link-type="dependency" data-source-line="41" id="lnk28"><path d="M995.5,315.1794 C986.42,323.8194 978.28,333.8694 973.13,345.1094 C957.18,379.9094 981.3574,415.2828 1005.3674,440.4328" fill="none" id="WebUI-to-WSClient" style="stroke:#181818;stroke-width:1;stroke-dasharray:7,7;"/><polygon fill="#181818" points="1008.82,444.0494,1005.4985,434.7775,1005.3674,440.4328,999.712,440.3017,1008.82,444.0494" style="stroke:#181818;stroke-width:1;stroke-linejoin:miter;stroke-miterlimit:10;"/></g><!--link WSClient to WS--><g class="link" data-entity-1="ent0004" data-entity-2="ent0007" data-link-type="dependency" data-source-line="42" id="lnk29"><path d="M1056.82,444.0094 C1079.54,414.0894 1120.88,366.8194 1169.13,345.1094 C1297.88,287.1794 1719,279.9342 1891.09,279.4242" fill="none" id="WSClient-to-WS" style="stroke:#181818;stroke-width:1;stroke-dasharray:7,7;"/><polygon fill="#181818" points="1896.09,279.4094,1887.0782,275.4361,1891.09,279.4242,1887.1019,283.436,1896.09,279.4094" style="stroke:#181818;stroke-width:1;stroke-linejoin:miter;stroke-miterlimit:10;"/><text fill="#000000" font-family="sans-serif" font-size="13" lengthAdjust="spacing" textLength="66.4727" x="1170.13" y="359.6045">WebSocket</text></g><!--link Gateway to Auth--><g class="link" data-entity-1="ent0006" data-entity-2="ent0009" data-link-type="dependency" data-source-line="44" id="lnk30"><path d="M2194.23,306.2394 C2205.26,322.0794 2215.26,342.9494 2211.13,363.1094 C2205.99,388.1694 2196.9841,410.1163 2186.9141,430.5063" fill="none" id="Gateway-to-Auth" style="stroke:#181818;stroke-width:1;"/><polygon fill="#181818" points="2184.7,434.9894,2192.2718,428.6911,2186.9141,430.5063,2185.0988,425.1486,2184.7,434.9894" style="stroke:#181818;stroke-width:1;stroke-linejoin:miter;stroke-miterlimit:10;"/></g><!--link Gateway to UserSvc--><g class="link" data-entity-1="ent0006" data-entity-2="ent0010" data-link-type="dependency" data-source-line="45" id="lnk31"><path d="M2264.65,285.1594 C2306.99,292.8294 2353.62,309.5294 2381.13,345.1094 C2405.14,376.1694 2399.4742,420.7274 2393.3342,447.3374" fill="none" id="Gateway-to-UserSvc" style="stroke:#181818;stroke-width:1;"/><polygon fill="#181818" points="2392.21,452.2094,2398.1311,444.3391,2393.3342,447.3374,2390.3359,442.5405,2392.21,452.2094" style="stroke:#181818;stroke-width:1;stroke-linejoin:miter;stroke-miterlimit:10;"/></g><!--link Gateway to ProjectSvc--><g class="link" data-entity-1="ent0006" data-entity-2="ent0011" data-link-type="dependency" data-source-line="46" id="lnk32"><path d="M2156.09,306.3594 C2143.43,325.9694 2123.37,351.1694 2098.13,363.1094 C2072.71,375.1394 1870.1,358.1694 1845.13,371.1094 C1811.52,388.5294 1790.9201,424.0965 1779.9201,447.7265" fill="none" id="Gateway-to-ProjectSvc" style="stroke:#181818;stroke-width:1;"/><polygon fill="#181818" points="1777.81,452.2594,1785.2346,445.7882,1779.9201,447.7265,1777.9819,442.412,1777.81,452.2594" style="stroke:#181818;stroke-width:1;stroke-linejoin:miter;stroke-miterlimit:10;"/></g><!--link Gateway to GroupSvc--><g class="link" data-entity-1="ent0006" data-entity-2="ent0012" data-link-type="dependency" data-source-line="47" id="lnk33"><path d="M2122.47,306.1594 C2103.54,315.2994 2081.34,324.6094 2060.13,330.1094 C1980.28,350.8294 1955.36,325.9294 1875.13,345.1094 C1854.58,350.0194 1851.73,358.4194 1831.13,363.1094 C1801.83,369.7794 1724.15,360.2494 1696.13,371.1094 C1651.31,388.4794 1613.6508,424.8973 1592.1808,448.5473" fill="none" id="Gateway-to-GroupSvc" style="stroke:#181818;stroke-width:1;"/><polygon fill="#181818" points="1588.82,452.2494,1597.8311,448.2743,1592.1808,448.5473,1591.9078,442.8971,1588.82,452.2494" style="stroke:#181818;stroke-width:1;stroke-linejoin:miter;stroke-miterlimit:10;"/></g><!--link Gateway to VersionSvc--><g class="link" data-entity-1="ent0006" data-entity-2="ent0013" data-link-type="dependency" data-source-line="48" id="lnk34"><path d="M2123.71,306.2294 C2104.57,315.6194 2081.89,325.0794 2060.13,330.1094 C1942.09,357.4094 1633.68,320.0994 1515.13,345.1094 C1494.46,349.4694 1490.72,355.1894 1471.13,363.1094 C1462.25,366.6994 1459.45,366.3794 1451.13,371.1094 C1414.31,392.0394 1380.1108,419.0607 1354.7808,440.7107" fill="none" id="Gateway-to-VersionSvc" style="stroke:#181818;stroke-width:1;"/><polygon fill="#181818" points="1350.98,443.9594,1360.4204,441.1525,1354.7808,440.7107,1355.2226,435.0712,1350.98,443.9594" style="stroke:#181818;stroke-width:1;stroke-linejoin:miter;stroke-miterlimit:10;"/></g><!--link Gateway to CommentSvc--><g class="link" data-entity-1="ent0006" data-entity-2="ent0014" data-link-type="dependency" data-source-line="49" id="lnk35"><path d="M2179.37,306.4994 C2183.18,324.8794 2184.2,348.4894 2170.13,363.1094 C2157.86,375.8594 2026.96,363.2094 2011.13,371.1094 C1975.91,388.6894 1952.4397,424.3374 1939.6097,447.9174" fill="none" id="Gateway-to-CommentSvc" style="stroke:#181818;stroke-width:1;"/><polygon fill="#181818" points="1937.22,452.3094,1945.035,446.3156,1939.6097,447.9174,1938.0079,442.4921,1937.22,452.3094" style="stroke:#181818;stroke-width:1;stroke-linejoin:miter;stroke-miterlimit:10;"/></g><!--link Gateway to FileSvc--><g class="link" data-entity-1="ent0006" data-entity-2="ent0015" data-link-type="dependency" data-source-line="50" id="lnk36"><path d="M2265.12,282.7894 C2374.88,289.3794 2560.03,309.5494 2706.13,371.1094 C2747.71,388.6294 2784.9291,417.6032 2811.0791,440.6532" fill="none" id="Gateway-to-FileSvc" style="stroke:#181818;stroke-width:1;"/><polygon fill="#181818" points="2814.83,443.9594,2810.7234,435.0075,2811.0791,440.6532,2805.4335,441.0089,2814.83,443.9594" style="stroke:#181818;stroke-width:1;stroke-linejoin:miter;stroke-miterlimit:10;"/></g><!--link Gateway to RenderSvc--><g class="link" data-entity-1="ent0006" data-entity-2="ent0018" data-link-type="dependency" data-source-line="51" id="lnk37"><path d="M2264.69,283.2994 C2506.81,293.4794 3140.87,324.3094 3223.13,371.1094 C3308.31,419.5694 3370.71,462.0694 3343.13,556.1094 C3315.34,650.8694 3301.89,683.5394 3223.13,743.1094 C3193.39,765.6094 3159.5341,778.0517 3125.1241,786.2417" fill="none" id="Gateway-to-RenderSvc" style="stroke:#181818;stroke-width:1;"/><polygon fill="#181818" points="3120.26,787.3994,3129.9416,789.2068,3125.1241,786.2417,3128.0892,781.4242,3120.26,787.3994" style="stroke:#181818;stroke-width:1;stroke-linejoin:miter;stroke-miterlimit:10;"/><text fill="#000000" font-family="sans-serif" font-size="13" lengthAdjust="spacing" textLength="70.8018" x="3348.13" y="552.6045">Preview API</text></g><!--link Gateway to ExportSvc--><g class="link" data-entity-1="ent0006" data-entity-2="ent0019" data-link-type="dependency" data-source-line="52" id="lnk38"><path d="M2264.82,299.0194 C2309.99,309.9194 2364.39,325.3394 2411.13,345.1094 C2432.05,353.9594 2436.42,358.2294 2455.13,371.1094 C2488.48,394.0794 2520.6222,419.9925 2545.3722,440.7925" fill="none" id="Gateway-to-ExportSvc" style="stroke:#181818;stroke-width:1;"/><polygon fill="#181818" points="2549.2,444.0094,2544.8835,435.1568,2545.3722,440.7925,2539.7365,441.2812,2549.2,444.0094" style="stroke:#181818;stroke-width:1;stroke-linejoin:miter;stroke-miterlimit:10;"/></g><!--link WS to ProjectSvc--><g class="link" data-entity-1="ent0007" data-entity-2="ent0011" data-link-type="dependency" data-source-line="54" id="lnk39"><path d="M1896.07,291.6294 C1838.87,302.7094 1766.09,321.0594 1748.13,345.1094 C1724.31,377.0194 1742.4724,421.7063 1756.7824,448.0363" fill="none" id="WS-to-ProjectSvc" style="stroke:#181818;stroke-width:1;"/><polygon fill="#181818" points="1759.17,452.4294,1758.3868,442.6117,1756.7824,448.0363,1751.3578,446.4319,1759.17,452.4294" style="stroke:#181818;stroke-width:1;stroke-linejoin:miter;stroke-miterlimit:10;"/><text fill="#000000" font-family="sans-serif" font-size="13" lengthAdjust="spacing" textLength="118.5171" x="1749.13" y="359.6045">Collaboration events</text></g><!--link WS to VersionSvc--><g class="link" data-entity-1="ent0007" data-entity-2="ent0013" data-link-type="dependency" data-source-line="55" id="lnk40"><path d="M1896,280.8494 C1722.42,284.5394 1296.82,298.3194 1254.13,345.1094 C1227.24,374.5694 1257.318,413.3625 1285.868,440.5325" fill="none" id="WS-to-VersionSvc" style="stroke:#181818;stroke-width:1;"/><polygon fill="#181818" points="1289.49,443.9794,1285.728,434.8773,1285.868,440.5325,1280.2129,440.6725,1289.49,443.9794" style="stroke:#181818;stroke-width:1;stroke-linejoin:miter;stroke-miterlimit:10;"/><text fill="#000000" font-family="sans-serif" font-size="13" lengthAdjust="spacing" textLength="73.7217" x="1255.13" y="359.6045">Live updates</text></g><!--link WS to CommentSvc--><g class="link" data-entity-1="ent0007" data-entity-2="ent0014" data-link-type="dependency" data-source-line="56" id="lnk41"><path d="M1988.51,306.3994 C1997.89,322.6394 2005.98,343.8794 2000.13,363.1094 C1989.42,398.3594 1966.1898,428.8117 1948.4998,448.8417" fill="none" id="WS-to-CommentSvc" style="stroke:#181818;stroke-width:1;"/><polygon fill="#181818" points="1945.19,452.5894,1954.1458,448.4915,1948.4998,448.8417,1948.1496,443.1957,1945.19,452.5894" style="stroke:#181818;stroke-width:1;stroke-linejoin:miter;stroke-miterlimit:10;"/><text fill="#000000" font-family="sans-serif" font-size="13" lengthAdjust="spacing" textLength="87.4199" x="2002.13" y="359.6045">Live comments</text></g><!--link WS to RenderSvc--><g class="link" data-entity-1="ent0007" data-entity-2="ent0018" data-link-type="dependency" data-source-line="57" id="lnk42"><path d="M2007.69,306.2694 C2023.26,315.5994 2041.85,325.0094 2060.13,330.1094 C2119.09,346.5494 3118.55,327.1394 3161.13,371.1094 C3187.87,398.7294 3180.35,683.2594 3162.13,717.1094 C3149.01,741.4894 3129.5283,757.4189 3106.1583,770.5589" fill="none" id="WS-to-RenderSvc" style="stroke:#181818;stroke-width:1;"/><polygon fill="#181818" points="3101.8,773.0094,3111.6054,772.0851,3106.1583,770.5589,3107.6846,765.1118,3101.8,773.0094" style="stroke:#181818;stroke-width:1;stroke-linejoin:miter;stroke-miterlimit:10;"/><text fill="#000000" font-family="sans-serif" font-size="13" lengthAdjust="spacing" textLength="143.0444" x="3179.13" y="552.6045">Realtime preview stream</text></g><!--link FileSvc to ObjStore--><g class="link" data-entity-1="ent0015" data-entity-2="ent0022" data-link-type="dependency" data-source-line="59" id="lnk43"><path d="M2784.7,499.1794 C2760.85,508.6794 2732.68,518.2394 2706.13,523.1094 C2536.94,554.1494 1329.64,525.0894 1158.13,538.1094 C1101.72,542.3894 1088.48,551.1894 1032.13,556.1094 C1004.55,558.5194 808.57,553.2094 783.13,564.1094 C752.07,577.4194 728.5179,601.719 711.0679,624.059" fill="none" id="FileSvc-to-ObjStore" style="stroke:#181818;stroke-width:1;"/><polygon fill="#181818" points="707.99,627.9994,716.6825,623.369,711.0679,624.059,710.3779,618.4444,707.99,627.9994" style="stroke:#181818;stroke-width:1;stroke-linejoin:miter;stroke-miterlimit:10;"/></g><!--link ExportSvc to ObjStore--><g class="link" data-entity-1="ent0019" data-entity-2="ent0022" data-link-type="dependency" data-source-line="60" id="lnk44"><path d="M2527.04,499.1594 C2505.31,508.6594 2479.57,518.2194 2455.13,523.1094 C2300.4,554.0294 1189.79,506.8494 1035.13,538.1094 C1014.42,542.2994 1011.78,551.6394 991.13,556.1094 C968.53,561.0094 804.36,554.9294 783.13,564.1094 C752.11,577.5194 728.5635,601.8134 711.0935,624.1134" fill="none" id="ExportSvc-to-ObjStore" style="stroke:#181818;stroke-width:1;"/><polygon fill="#181818" points="708.01,628.0494,716.7091,623.4314,711.0935,624.1134,710.4115,618.4978,708.01,628.0494" style="stroke:#181818;stroke-width:1;stroke-linejoin:miter;stroke-miterlimit:10;"/></g><!--link RenderSvc to LatexEngine--><g class="link" data-entity-1="ent0018" data-entity-2="ent0025" data-link-type="dependency" data-source-line="61" id="lnk45"><path d="M2953.85,799.6294 C2532.71,799.3694 647.79,793.9094 399.13,717.1094 C379.61,711.0794 364.2964,702.3288 348.7964,691.2388" fill="none" id="RenderSvc-to-LatexEngine" style="stroke:#181818;stroke-width:1;"/><polygon fill="#181818" points="344.73,688.3294,349.7219,696.8194,348.7964,691.2388,354.377,690.3132,344.73,688.3294" style="stroke:#181818;stroke-width:1;stroke-linejoin:miter;stroke-miterlimit:10;"/></g><!--link RecognitionSvc to ModelStore--><g class="link" data-entity-1="ent0016" data-entity-2="ent0024" data-link-type="dependency" data-source-line="62" id="lnk46"><path d="M3033.01,499.1794 C3017.6,508.4994 2999.21,517.9194 2981.13,523.1094 C2831.65,565.9694 2437.58,551.8694 2282.13,556.1094 C2251.89,556.9294 1221.96,554.9394 1193.13,564.1094 C1150.31,577.7394 1112.8376,606.5258 1086.9976,629.7658" fill="none" id="RecognitionSvc-to-ModelStore" style="stroke:#181818;stroke-width:1;"/><polygon fill="#181818" points="1083.28,633.1094,1092.6465,630.0651,1086.9976,629.7658,1087.2969,624.1169,1083.28,633.1094" style="stroke:#181818;stroke-width:1;stroke-linejoin:miter;stroke-miterlimit:10;"/></g><!--link Auth to RDB--><g class="link" data-entity-1="ent0009" data-entity-2="ent0021" data-link-type="dependency" data-source-line="64" id="lnk47"><path d="M2071.79,508.1994 C2052.03,514.3194 2031.11,519.7694 2011.13,523.1094 C1778.77,561.9194 1183.04,496.6894 951.13,538.1094 C927.47,542.3394 923.77,551.7494 900.13,556.1094 C866.25,562.3594 621.81,550.5594 590.13,564.1094 C559.01,577.4294 535.5648,602.0134 518.3448,624.4434" fill="none" id="Auth-to-RDB" style="stroke:#181818;stroke-width:1;"/><polygon fill="#181818" points="515.3,628.4094,523.9534,623.7064,518.3448,624.4434,517.6078,618.8347,515.3,628.4094" style="stroke:#181818;stroke-width:1;stroke-linejoin:miter;stroke-miterlimit:10;"/></g><!--link UserSvc to RDB--><g class="link" data-entity-1="ent0010" data-entity-2="ent0021" data-link-type="dependency" data-source-line="65" id="lnk48"><path d="M2369.36,490.7794 C2356.62,502.4594 2338.36,516.6294 2319.13,523.1094 C2249.32,546.6394 1065.33,523.4894 993.13,538.1094 C972.42,542.2994 969.81,551.7994 949.13,556.1094 C910.07,564.2394 626.84,548.4794 590.13,564.1094 C558.98,577.3694 535.542,601.9612 518.332,624.4112" fill="none" id="UserSvc-to-RDB" style="stroke:#181818;stroke-width:1;"/><polygon fill="#181818" points="515.29,628.3794,523.9401,623.6702,518.332,624.4112,517.591,618.8031,515.29,628.3794" style="stroke:#181818;stroke-width:1;stroke-linejoin:miter;stroke-miterlimit:10;"/></g><!--link ProjectSvc to RDB--><g class="link" data-entity-1="ent0011" data-entity-2="ent0021" data-link-type="dependency" data-source-line="66" id="lnk49"><path d="M1750.18,490.7594 C1735.97,502.4294 1715.79,516.5994 1695.13,523.1094 C1606.63,550.9994 952.37,528.0394 860.13,538.1094 C820.01,542.4894 811.19,551.1994 771.13,556.1094 C751.15,558.5594 608.56,556.0194 590.13,564.1094 C559.13,577.7094 535.685,602.2712 518.435,624.6212" fill="none" id="ProjectSvc-to-RDB" style="stroke:#181818;stroke-width:1;"/><polygon fill="#181818" points="515.38,628.5794,524.0455,623.8986,518.435,624.6212,517.7124,619.0107,515.38,628.5794" style="stroke:#181818;stroke-width:1;stroke-linejoin:miter;stroke-miterlimit:10;"/></g><!--link GroupSvc to RDB--><g class="link" data-entity-1="ent0012" data-entity-2="ent0021" data-link-type="dependency" data-source-line="67" id="lnk50"><path d="M1539.25,490.6194 C1515.36,502.3094 1482.19,516.5494 1451.13,523.1094 C1312.15,552.4394 953.73,526.8994 812.13,538.1094 C752.67,542.8194 738.41,549.4394 679.13,556.1094 C659.4,558.3294 608.13,555.7194 590.13,564.1094 C559.66,578.3094 536.3712,602.5195 519.0112,624.5895" fill="none" id="GroupSvc-to-RDB" style="stroke:#181818;stroke-width:1;"/><polygon fill="#181818" points="515.92,628.5194,524.6282,623.9185,519.0112,624.5895,518.3403,618.9725,515.92,628.5194" style="stroke:#181818;stroke-width:1;stroke-linejoin:miter;stroke-miterlimit:10;"/></g><!--link VersionSvc to RDB--><g class="link" data-entity-1="ent0013" data-entity-2="ent0021" data-link-type="dependency" data-source-line="68" id="lnk51"><path d="M1254.86,499.1794 C1228.6,508.4894 1197.86,517.9194 1169.13,523.1094 C1042.19,546.0394 705.29,506.0094 590.13,564.1094 C560.33,579.1494 537.1859,602.995 519.6959,624.715" fill="none" id="VersionSvc-to-RDB" style="stroke:#181818;stroke-width:1;"/><polygon fill="#181818" points="516.56,628.6094,525.3201,624.1083,519.6959,624.715,519.0892,619.0908,516.56,628.6094" style="stroke:#181818;stroke-width:1;stroke-linejoin:miter;stroke-miterlimit:10;"/></g><!--link CommentSvc to RDB--><g class="link" data-entity-1="ent0014" data-entity-2="ent0021" data-link-type="dependency" data-source-line="69" id="lnk52"><path d="M1905.74,490.7894 C1889.86,502.4794 1867.49,516.6494 1845.13,523.1094 C1744.99,552.0494 1010.33,523.4494 907.13,538.1094 C877.03,542.3894 871.2,551.5894 841.13,556.1094 C813.54,560.2494 615.75,553.0594 590.13,564.1094 C559.05,577.5194 535.6076,602.0955 518.3776,624.5055" fill="none" id="CommentSvc-to-RDB" style="stroke:#181818;stroke-width:1;"/><polygon fill="#181818" points="515.33,628.4694,523.9868,623.7725,518.3776,624.5055,517.6446,618.8964,515.33,628.4694" style="stroke:#181818;stroke-width:1;stroke-linejoin:miter;stroke-miterlimit:10;"/></g><!--link FileSvc to MQ--><g class="link" data-entity-1="ent0015" data-entity-2="ent0023" data-link-type="dependency" data-source-line="71" id="lnk53"><path d="M2784.33,499.1294 C2760.55,508.5594 2732.53,518.0794 2706.13,523.1094 C2682.06,527.6894 964.21,553.4894 942.13,564.1094 C912.11,578.5494 891.7914,605.8675 878.3414,628.7775" fill="none" id="FileSvc-to-MQ" style="stroke:#181818;stroke-width:1;"/><polygon fill="#181818" points="875.81,633.0894,883.816,627.3532,878.3414,628.7775,876.917,623.3029,875.81,633.0894" style="stroke:#181818;stroke-width:1;stroke-linejoin:miter;stroke-miterlimit:10;"/><text fill="#000000" font-family="sans-serif" font-size="13" lengthAdjust="spacing" textLength="153.9497" x="1980.13" y="552.6045">enqueue parse/recognition</text></g><!--link MQ to RecognitionSvc--><g class="link" data-entity-1="ent0023" data-entity-2="ent0016" data-link-type="dependency" data-source-line="72" id="lnk54"><path d="M875.76,632.9694 C889.17,609.9794 912,578.2994 942.13,564.1094 C957.21,557.0094 2125.5,557.2594 2142.13,556.1094 C2202.96,551.8994 2217.34,542.7694 2278.13,538.1094 C2356.03,532.1394 2905.76,543.6694 2981.13,523.1094 C2999.45,518.1094 3013.7599,511.1906 3029.2399,501.7606" fill="none" id="MQ-to-RecognitionSvc" style="stroke:#181818;stroke-width:1;"/><polygon fill="#181818" points="3033.51,499.1594,3023.7429,500.4255,3029.2399,501.7606,3027.9048,507.2576,3033.51,499.1594" style="stroke:#181818;stroke-width:1;stroke-linejoin:miter;stroke-miterlimit:10;"/></g><!--link RecognitionSvc to LatexGenSvc--><g class="link" data-entity-1="ent0016" data-entity-2="ent0017" data-link-type="dependency" data-source-line="73" id="lnk55"><path d="M3066.26,499.3994 C3059.79,534.9494 3049.3444,592.42 3042.8844,627.95" fill="none" id="RecognitionSvc-to-LatexGenSvc" style="stroke:#181818;stroke-width:1;"/><polygon fill="#181818" points="3041.99,632.8694,3047.5354,624.7301,3042.8844,627.95,3039.6645,623.299,3041.99,632.8694" style="stroke:#181818;stroke-width:1;stroke-linejoin:miter;stroke-miterlimit:10;"/></g><!--link LatexGenSvc to RenderSvc--><g class="link" data-entity-1="ent0017" data-entity-2="ent0018" data-link-type="dependency" data-source-line="74" id="lnk56"><path d="M3037.13,688.2194 C3037.13,712.6494 3037.13,743.6694 3037.13,768.0794" fill="none" id="LatexGenSvc-to-RenderSvc" style="stroke:#181818;stroke-width:1;"/><polygon fill="#181818" points="3037.13,773.0794,3041.13,764.0794,3037.13,768.0794,3033.13,764.0794,3037.13,773.0794" style="stroke:#181818;stroke-width:1;stroke-linejoin:miter;stroke-miterlimit:10;"/><text fill="#000000" font-family="sans-serif" font-size="13" lengthAdjust="spacing" textLength="70.1035" x="3038.13" y="739.6045">LaTeX code</text></g><!--link RenderSvc to WebUI--><g class="link" data-entity-1="ent0018" data-entity-2="ent0003" data-link-type="dependency" data-source-line="75" id="lnk57"><path d="M2953.85,798.9594 C2566.81,795.7694 941.14,780.3494 434.13,743.1094 C341.66,736.3194 288.47,786.6394 227.13,717.1094 C6,466.4694 673.2485,336.0822 940.0685,294.8922" fill="none" id="RenderSvc-to-WebUI" style="stroke:#181818;stroke-width:1;"/><polygon fill="#181818" points="945.01,294.1294,935.5051,291.5493,940.0685,294.8922,936.7256,299.4556,945.01,294.1294" style="stroke:#181818;stroke-width:1;stroke-linejoin:miter;stroke-miterlimit:10;"/><text fill="#000000" font-family="sans-serif" font-size="13" lengthAdjust="spacing" textLength="96.1099" x="217.13" y="552.6045">Preview updates</text></g><!--link ExportSvc to WebUI--><g class="link" data-entity-1="ent0019" data-entity-2="ent0003" data-link-type="dependency" data-source-line="76" id="lnk58"><path d="M2556.32,443.9794 C2533.13,420.1094 2495.56,386.5294 2455.13,371.1094 C2425.81,359.9194 2345.44,365.2994 2314.13,363.1094 C2218.03,356.3794 2194.21,352.1094 2098.13,345.1094 C1916.59,331.8794 1385.931,299.7887 1158.331,286.1387" fill="none" id="ExportSvc-to-WebUI" style="stroke:#181818;stroke-width:1;"/><polygon fill="#181818" points="1153.34,285.8394,1162.0844,290.371,1158.331,286.1387,1162.5633,282.3853,1153.34,285.8394" style="stroke:#181818;stroke-width:1;stroke-linejoin:miter;stroke-miterlimit:10;"/><text fill="#000000" font-family="sans-serif" font-size="13" lengthAdjust="spacing" textLength="87.4326" x="2315.13" y="359.6045">Download links</text></g><!--link WebUI to VersionSvc--><g class="link" data-entity-1="ent0003" data-entity-2="ent0013" data-link-type="dependency" data-source-line="78" id="lnk59"><path d="M1012.6,315.3394 C1000.56,331.2994 993.2,349.5294 1006.13,363.1094 C1018.63,376.2394 1151.88,365.4994 1169.13,371.1094 C1215.92,386.3194 1258.2769,416.7529 1287.2369,440.7029" fill="none" id="WebUI-to-VersionSvc" style="stroke:#181818;stroke-width:1;"/><polygon fill="#181818" points="1291.09,443.8894,1286.7037,435.0712,1287.2369,440.7029,1281.6053,441.2361,1291.09,443.8894" style="stroke:#181818;stroke-width:1;stroke-linejoin:miter;stroke-miterlimit:10;"/><text fill="#000000" font-family="sans-serif" font-size="13" lengthAdjust="spacing" textLength="94.6499" x="1007.13" y="359.6045">Edit version files</text></g><!--link WebUI to CommentSvc--><g class="link" data-entity-1="ent0003" data-entity-2="ent0014" data-link-type="dependency" data-source-line="79" id="lnk60"><path d="M1153.31,282.0194 C1361.66,287.6694 1814.7,304.5194 1872.13,345.1094 C1907.98,370.4494 1920.4125,419.265 1925.0325,447.495" fill="none" id="WebUI-to-CommentSvc" style="stroke:#181818;stroke-width:1;"/><polygon fill="#181818" points="1925.84,452.4294,1928.3339,442.9015,1925.0325,447.495,1920.4389,444.1936,1925.84,452.4294" style="stroke:#181818;stroke-width:1;stroke-linejoin:miter;stroke-miterlimit:10;"/><text fill="#000000" font-family="sans-serif" font-size="13" lengthAdjust="spacing" textLength="86.7026" x="1891.13" y="359.6045">Add comments</text></g><!--link WebUI to ProjectSvc--><g class="link" data-entity-1="ent0003" data-entity-2="ent0011" data-link-type="dependency" data-source-line="80" id="lnk61"><path d="M1153.19,293.1994 C1247.14,305.7294 1389.09,325.3394 1512.13,345.1094 C1556.72,352.2694 1567.39,356.9394 1612.13,363.1094 C1630.49,365.6394 1678.96,362.0594 1695.13,371.1094 C1728.16,389.6094 1748.9123,424.8037 1760.1123,448.0837" fill="none" id="WebUI-to-ProjectSvc" style="stroke:#181818;stroke-width:1;"/><polygon fill="#181818" points="1762.28,452.5894,1761.9827,442.745,1760.1123,448.0837,1754.7736,446.2133,1762.28,452.5894" style="stroke:#181818;stroke-width:1;stroke-linejoin:miter;stroke-miterlimit:10;"/><text fill="#000000" font-family="sans-serif" font-size="13" lengthAdjust="spacing" textLength="117.7681" x="1613.13" y="359.6045">Create/view projects</text></g><!--link WebUI to GroupSvc--><g class="link" data-entity-1="ent0003" data-entity-2="ent0012" data-link-type="dependency" data-source-line="81" id="lnk62"><path d="M1153.52,304.0394 C1258.6,328.6194 1405.33,362.9494 1406.13,363.1094 C1426.03,367.1994 1432.67,362.6394 1451.13,371.1094 C1494.11,390.8194 1531.2609,425.7095 1553.0809,448.6095" fill="none" id="WebUI-to-GroupSvc" style="stroke:#181818;stroke-width:1;"/><polygon fill="#181818" points="1556.53,452.2294,1553.2174,442.9543,1553.0809,448.6095,1547.4257,448.4729,1556.53,452.2294" style="stroke:#181818;stroke-width:1;stroke-linejoin:miter;stroke-miterlimit:10;"/><text fill="#000000" font-family="sans-serif" font-size="13" lengthAdjust="spacing" textLength="100.4517" x="1407.13" y="359.6045">Group operations</text></g><?plantuml-src RLPBS-8u4BxxLtHns9hKCl5z3bD50c7PXGm1ChC7BiBk40r6yaeoXDdQ_xwjbos7N2YvzVNxwnQ6cmfXmlHbpZRuDwmlsk0HHgfuvGOBqoZCCdtWecQA7Q6GnreA56PjBgId2C74lY8CAunKC7ZMg0R0DDX3bjMiEB0zmk2-ugG5d-wKFDFDpG3-pQ0p1uCVk8FdsLOyrvLavH0c9JT3M2eySJmFjsAfv4_ofeVm7PNcKj3fNXwFfAoTGpBmFBkokPR50GruzrknGbOPViHe67uZ8rN5Tb8nGqQzfRM7P_yb2KpAFUOso0st6NuG_HhL2HNaC5hEOCeCdjbbApuzxhbuoqTaw1NXTtYK9Tx-r3VEKq3rRRKnTZQwHBoJcn1dBy9HNLUyS6au62zGKy7f6aLvNV1HOruf_Lb9NznSR6tsN1jVXo7C9SLD3M1QdwKgOOM59CyNsmfKHwvj3wXumYXPkN2imRuBou4OIakAzQdeeq9dUy0Wky9EbMpgzqthQJh4bLxWJ8mtQcn5lDWen27SAIQeJKIj5MhYipSPC5T60_rwxeFi2ll0QLnQhvxa-LYUXMVxOhQOm7TMyRAZeLMvicFRi1SyJNihljslY5dZEIo8N9KVXmHuPSIF-XG5zWku5OzI7IcANqWrNb-4eLhO3wVWpCw9as-a-K5WekowlHNUnqGGYn1-A5RNOJ5uu9N-vAsModJwo_537bQIR5I1-V9ncl-vd4oT4O-sHj8963F3BAN5YsB4vCQjBqzygYlRCOqsqCebpIeOtz5iBIxhftc-bDhi5TBHpzPgV6VZgsHJmk3RpXEK645-ICVtJvElaJByXNPV66X2MXJsSrkWrZR0fmORKX_fYoXWm_J1jshnz0vkkmWZhT5erzpyWThIL2pVi1tHAEcoEtxWCQq-nMi_vlo4-OB_HUURhfKUOgleXlNpvwzXaRfVzntM47o1rMIzoV_OR9RXzlRsQxSiuo582TvkhIoBDgmzjoTIGTmAgInP0AcudUvKcCndAav6CHN7iKfbBISfwlWoq1RlOJhAKQhlOYIr_aR2atsN8h0Ba82s3z3KH4Xi0Lse4L24foqYqWZR1w8EeHBNaHspBAJc55ecjd7tnPr1AqwvqDySxZgXMURU3HSIZKXeNVkTb2IAOijQGLADA4hoZw9UCeidIXl5FtP-WFw9QCnL5sL6rxv6lPNtGHxfzahELnNsurDGrk_gv7dVaIJsiL_aY8hx7Iek3ZfBPgh72FjN1qxX8NgXj7M2x55ZL9O9CrfCduZ41OEv2wyEVvhIQOxj-EAF8Elm2kZiVm00?></g></svg>