<svg xmlns="http://www.w3.org/2000/svg" xmlns:xlink="http://www.w3.org/1999/xlink" contentStyleType="text/css" data-diagram-type="DESCRIPTION" height="910px" preserveAspectRatio="none" style="width:3160px;height:910px;background:#FFFFFF;" version="1.1" viewBox="0 0 3160 910" width="3160px" zoomAndPan="magnify"><?plantuml 1.2026.6?><defs/><g><g class="title" data-source-line="1"><text fill="#000000" font-family="sans-serif" font-size="14" font-weight="700" lengthAdjust="spacing" textLength="276.1582" x="1438.689" y="24.5332">Indoor Fitness App - System Architecture</text></g><!--cluster Mobile App (Android/iOS)--><g class="cluster" data-qualified-name="Mobile App .Android.iOS." data-source-line="6" id="ent0001"><rect fill="none" height="574" rx="2.5" ry="2.5" style="stroke:#181818;stroke-width:1;" width="1393" x="940" y="45.6094"/><text fill="#000000" font-family="sans-serif" font-size="14" font-weight="700" lengthAdjust="spacing" textLength="170.3105" x="1551.3447" y="62.1426">Mobile App (Android/iOS)</text></g><!--cluster Server-side Processing--><g class="cluster" data-qualified-name="Server-side Processing" data-source-line="21" id="ent0014"><rect fill="none" height="693" rx="2.5" ry="2.5" style="stroke:#181818;stroke-width:1;" width="589" x="7" y="203.6094"/><text fill="#000000" font-family="sans-serif" font-size="14" font-weight="700" lengthAdjust="spacing" textLength="155.6338" x="223.6831" y="220.1426">Server-side Processing</text></g><!--cluster Casting Target Device (Android)--><g class="cluster" data-qualified-name="Casting Target Device .Android." data-source-line="31" id="ent0022"><rect fill="none" height="239.5" rx="2.5" ry="2.5" style="stroke:#181818;stroke-width:1;" width="229" x="2465" y="380.1094"/><text fill="#000000" font-family="sans-serif" font-size="14" font-weight="700" lengthAdjust="spacing" textLength="213.917" x="2472.5415" y="396.6426">Casting Target Device (Android)</text></g><!--entity UI--><g class="entity" data-qualified-name="Mobile App .Android.iOS..UI" data-source-line="7" id="ent0002"><rect fill="#F1F1F1" height="37.6094" rx="2.5" ry="2.5" style="stroke:#181818;stroke-width:0.5;" width="149.9375" x="1426" y="565.6094"/><text fill="#000000" font-family="sans-serif" font-size="14" lengthAdjust="spacing" textLength="129.9375" x="1436" y="590.1426">Exercise Interface UI</text></g><!--entity Camera--><g class="entity" data-qualified-name="Mobile App .Android.iOS..Camera" data-source-line="8" id="ent0003"><rect fill="#F1F1F1" height="37.6094" rx="2.5" ry="2.5" style="stroke:#181818;stroke-width:0.5;" width="123.4893" x="1677.5" y="101.6094"/><text fill="#000000" font-family="sans-serif" font-size="14" lengthAdjust="spacing" textLength="103.4893" x="1687.5" y="126.1426">Camera Capture</text></g><!--entity Pose--><g class="entity" data-qualified-name="Mobile App .Android.iOS..Pose" data-source-line="9" id="ent0004"><rect fill="#F1F1F1" height="37.6094" rx="2.5" ry="2.5" style="stroke:#181818;stroke-width:0.5;" width="168.6406" x="1888.5" y="259.6094"/><text fill="#000000" font-family="sans-serif" font-size="14" lengthAdjust="spacing" textLength="148.6406" x="1898.5" y="284.1426">Pose Estimation Engine</text></g><!--entity Eval--><g class="entity" data-qualified-name="Mobile App .Android.iOS..Eval" data-source-line="10" id="ent0005"><rect fill="#F1F1F1" height="37.6094" rx="2.5" ry="2.5" style="stroke:#181818;stroke-width:0.5;" width="202.1025" x="2115" y="436.1094"/><text fill="#000000" font-family="sans-serif" font-size="14" lengthAdjust="spacing" textLength="182.1025" x="2125" y="460.6426">Posture Evaluation &amp; Scoring</text></g><!--entity Monitor--><g class="entity" data-qualified-name="Mobile App .Android.iOS..Monitor" data-source-line="11" id="ent0006"><rect fill="#F1F1F1" height="55.2188" rx="2.5" ry="2.5" style="stroke:#181818;stroke-width:0.5;" width="206.7646" x="1872.5" y="427.6094"/><text fill="#000000" font-family="sans-serif" font-size="14" lengthAdjust="spacing" textLength="137.7305" x="1882.5" y="452.1426">Training State Monitor</text><text fill="#000000" font-family="sans-serif" font-size="14" lengthAdjust="spacing" textLength="186.7646" x="1882.5" y="469.752">(start/end, completion degree)</text></g><!--entity PlanMgr--><g class="entity" data-qualified-name="Mobile App .Android.iOS..PlanMgr" data-source-line="12" id="ent0007"><rect fill="#F1F1F1" height="55.2188" rx="2.5" ry="2.5" style="stroke:#181818;stroke-width:0.5;" width="158.5029" x="956.5" y="427.6094"/><text fill="#000000" font-family="sans-serif" font-size="14" lengthAdjust="spacing" textLength="87.165" x="966.5" y="452.1426">Plan Manager</text><text fill="#000000" font-family="sans-serif" font-size="14" lengthAdjust="spacing" textLength="138.5029" x="966.5" y="469.752">(custom plan creation)</text></g><!--entity History--><g class="entity" data-qualified-name="Mobile App .Android.iOS..History" data-source-line="13" id="ent0008"><rect fill="#F1F1F1" height="37.6094" rx="2.5" ry="2.5" style="stroke:#181818;stroke-width:0.5;" width="196.5928" x="1640.5" y="436.1094"/><text fill="#000000" font-family="sans-serif" font-size="14" lengthAdjust="spacing" textLength="176.5928" x="1650.5" y="460.6426">Exercise History &amp; Overview</text></g><!--entity Personal--><g class="entity" data-qualified-name="Mobile App .Android.iOS..Personal" data-source-line="14" id="ent0009"><rect fill="#F1F1F1" height="37.6094" rx="2.5" ry="2.5" style="stroke:#181818;stroke-width:0.5;" width="211.4268" x="1150.5" y="436.1094"/><text fill="#000000" font-family="sans-serif" font-size="14" lengthAdjust="spacing" textLength="191.4268" x="1160.5" y="460.6426">Personal Profile &amp; Preferences</text></g><!--entity Auth--><g class="entity" data-qualified-name="Mobile App .Android.iOS..Auth" data-source-line="15" id="ent0010"><rect fill="#F1F1F1" height="55.2188" rx="2.5" ry="2.5" style="stroke:#181818;stroke-width:0.5;" width="207.5645" x="1397" y="427.6094"/><text fill="#000000" font-family="sans-serif" font-size="14" lengthAdjust="spacing" textLength="187.5645" x="1407" y="452.1426">Authentication &amp; Authorization</text><text fill="#000000" font-family="sans-serif" font-size="14" lengthAdjust="spacing" textLength="124.4688" x="1407" y="469.752">(Admin vs Ordinary)</text></g><!--entity DLP--><g class="entity" data-qualified-name="Mobile App .Android.iOS..DLP" data-source-line="16" id="ent0011"><rect fill="#F1F1F1" height="37.6094" rx="2.5" ry="2.5" style="stroke:#181818;stroke-width:0.5;" width="230.123" x="2087" y="101.6094"/><text fill="#000000" font-family="sans-serif" font-size="14" lengthAdjust="spacing" textLength="210.123" x="2097" y="126.1426">Data Leakage Protection Controls</text></g><!--entity Discovery--><g class="entity" data-qualified-name="Mobile App .Android.iOS..Discovery" data-source-line="17" id="ent0012"><rect fill="#F1F1F1" height="37.6094" rx="2.5" ry="2.5" style="stroke:#181818;stroke-width:0.5;" width="216.082" x="1836" y="101.6094"/><text fill="#000000" font-family="sans-serif" font-size="14" lengthAdjust="spacing" textLength="196.082" x="1846" y="126.1426">Device Discovery &amp; Connection</text></g><!--entity CastServer--><g class="entity" data-qualified-name="Mobile App .Android.iOS..CastServer" data-source-line="18" id="ent0013"><rect fill="#F1F1F1" height="37.6094" rx="2.5" ry="2.5" style="stroke:#181818;stroke-width:0.5;" width="222.3096" x="2093" y="259.6094"/><text fill="#000000" font-family="sans-serif" font-size="14" lengthAdjust="spacing" textLength="202.3096" x="2103" y="284.1426">Casting Server (Source Android)</text></g><!--entity API--><g class="entity" data-qualified-name="Server-side Processing.API" data-source-line="22" id="ent0015"><rect fill="#F1F1F1" height="37.6094" rx="2.5" ry="2.5" style="stroke:#181818;stroke-width:0.5;" width="208.2891" x="372" y="565.6094"/><text fill="#000000" font-family="sans-serif" font-size="14" lengthAdjust="spacing" textLength="188.2891" x="382" y="590.1426">API Gateway / HTTP Interface</text></g><!--entity Reco--><g class="entity" data-qualified-name="Server-side Processing.Reco" data-source-line="23" id="ent0016"><rect fill="#F1F1F1" height="37.6094" rx="2.5" ry="2.5" style="stroke:#181818;stroke-width:0.5;" width="180.2959" x="80" y="436.1094"/><text fill="#000000" font-family="sans-serif" font-size="14" lengthAdjust="spacing" textLength="160.2959" x="90" y="460.6426">Recommendation Service</text></g><!--entity ReportSvc--><g class="entity" data-qualified-name="Server-side Processing.ReportSvc" data-source-line="24" id="ent0017"><rect fill="#F1F1F1" height="37.6094" rx="2.5" ry="2.5" style="stroke:#181818;stroke-width:0.5;" width="170.1719" x="260" y="686.6094"/><text fill="#000000" font-family="sans-serif" font-size="14" lengthAdjust="spacing" textLength="150.1719" x="270" y="711.1426">Poster &amp; Report Service</text></g><!--entity ProfileSvc--><g class="entity" data-qualified-name="Server-side Processing.ProfileSvc" data-source-line="25" id="ent0018"><rect fill="#F1F1F1" height="37.6094" rx="2.5" ry="2.5" style="stroke:#181818;stroke-width:0.5;" width="143.7031" x="75" y="686.6094"/><text fill="#000000" font-family="sans-serif" font-size="14" lengthAdjust="spacing" textLength="123.7031" x="85" y="711.1426">User Profile Service</text></g><!--entity DB--><g class="entity" data-qualified-name="Server-side Processing.DB" data-source-line="26" id="ent0019"><path d="M53.5,826.6094 C53.5,816.6094 146.7651,816.6094 146.7651,816.6094 C146.7651,816.6094 240.0303,816.6094 240.0303,826.6094 L240.0303,870.8281 C240.0303,880.8281 146.7651,880.8281 146.7651,880.8281 C146.7651,880.8281 53.5,880.8281 53.5,870.8281 L53.5,826.6094" fill="#F1F1F1" style="stroke:#181818;stroke-width:0.5;"/><path d="M53.5,826.6094 C53.5,836.6094 146.7651,836.6094 146.7651,836.6094 C146.7651,836.6094 240.0303,836.6094 240.0303,826.6094" fill="none" style="stroke:#181818;stroke-width:0.5;"/><text fill="#000000" font-family="sans-serif" font-size="14" lengthAdjust="spacing" textLength="126.082" x="63.5" y="855.1426">Relational Database</text><text fill="#000000" font-family="sans-serif" font-size="14" lengthAdjust="spacing" textLength="166.5303" x="63.5" y="872.752">(SQL, product unspecified)</text></g><!--entity MediaStore--><g class="entity" data-qualified-name="Server-side Processing.MediaStore" data-source-line="27" id="ent0020"><path d="M284.3676,833.0615 C288.2939,826.5614 292.3359,827.6317 296.3024,833.021 C298.9244,826.8156 304.4022,825.2978 308.9347,830.993 C312.8551,823.3754 317.7175,824.5712 322.5832,830.0045 C327.0839,824.4562 331.2501,824.6718 334.7213,831.0521 C338.7085,824.7011 342.7678,824.7925 347.9006,829.7126 C350.5303,823.5098 355.061,822.9942 359.0346,828.4267 C363.0818,822.2341 367.6678,824.0419 371.0072,829.1749 C376.1311,822.4081 381.2515,824.4886 384.7207,830.8972 C388.0849,824.9832 391.4831,824.7653 395.7285,830.0295 C400.8202,824.153 404.6975,824.3113 408.0648,831.6404 C412.3548,826.1436 418.8389,827.3211 421.4007,833.5979 C425.0394,827.1293 431.2148,828.6729 434.0495,834.4297 C443.886,835.2756 447.3629,839.5084 442.8926,849.0234 C448.1544,859.4159 445.4964,865.1027 433.5749,866.1428 C431.0207,871.2737 425.5717,872.5873 422.5032,866.6576 C419.3708,874.5103 413.9729,873.9213 409.1258,868.3688 C406.1048,876.0551 400.4246,876.7885 395.6872,869.9577 C394.0206,876.186 389.1921,876.9956 385.2679,872.066 C382.2506,878.89 375.9608,879.6261 371.3039,873.8887 C367.6831,880.5984 363.7609,880.7343 358.9618,875.0633 C354.031,879.691 349.9925,880.0366 346.8379,873.1871 C342.0362,879.9247 335.912,877.1625 333.3356,870.8794 C330.6566,875.6452 325.7645,876.4063 323.05,870.9151 C316.8455,877.8875 312.352,875.0583 308.7191,868.2424 C304.2616,874.0536 299.9896,872.8936 296.6623,867.0711 C291.8899,871.2162 287.8486,871.5384 284.7659,865.1608 C274.5845,863.6268 272.5106,857.9975 277.8788,849.5871 C271.2923,841.1038 273.8453,834.8269 284.3676,833.0615" fill="#F1F1F1" style="stroke:#181818;stroke-width:0.5;"/><text fill="#000000" font-family="sans-serif" font-size="14" lengthAdjust="spacing" textLength="135.4063" x="290.5" y="854.1426">Object/Media Storage</text></g><!--entity StdRepo--><g class="entity" data-qualified-name="Server-side Processing.StdRepo" data-source-line="28" id="ent0021"><rect fill="#F1F1F1" height="37.6094" rx="2.5" ry="2.5" style="stroke:#181818;stroke-width:0.5;" width="216.875" x="119.5" y="259.6094"/><text fill="#000000" font-family="sans-serif" font-size="14" lengthAdjust="spacing" textLength="196.875" x="129.5" y="284.1426">Standard Movement Repository</text></g><!--entity CastClient--><g class="entity" data-qualified-name="Casting Target Device .Android..CastClient" data-source-line="32" id="ent0023"><rect fill="#F1F1F1" height="37.6094" rx="2.5" ry="2.5" style="stroke:#181818;stroke-width:0.5;" width="107.1514" x="2485.5" y="436.1094"/><text fill="#000000" font-family="sans-serif" font-size="14" lengthAdjust="spacing" textLength="87.1514" x="2495.5" y="460.6426">Casting Client</text></g><!--entity Display--><g class="entity" data-qualified-name="Casting Target Device .Android..Display" data-source-line="33" id="ent0024"><rect fill="#F1F1F1" height="37.6094" rx="2.5" ry="2.5" style="stroke:#181818;stroke-width:0.5;" width="129.6963" x="2482" y="565.6094"/><text fill="#000000" font-family="sans-serif" font-size="14" lengthAdjust="spacing" textLength="109.6963" x="2492" y="590.1426">Real-time Display</text></g><!--entity LAN--><g class="entity" data-qualified-name="LAN" data-source-line="36" id="ent0025"><path d="M2357.5911,569.5365 C2359.9803,562.1217 2366.3626,560.5026 2371.119,567.2801 C2375.1527,560.623 2381.5432,560.3222 2385.8767,566.9469 C2389.3485,559.5255 2393.3917,560.432 2398.5776,565.1542 C2403.1561,559.1928 2410.5648,559.5226 2413.3599,567.1013 C2417.0287,560.9872 2422.3795,561.7695 2425.2499,567.878 C2430.0319,561.6496 2437.5029,561.5206 2440.0029,570.1448 C2447.3929,572.9799 2449.7518,579.8925 2443.7306,585.9006 C2449.1004,592.5434 2449.1291,598.6139 2439.5931,601.2349 C2436.5166,608.1703 2431.5903,609.0865 2426.8625,602.8281 C2423.527,610.4812 2419.3423,610.3032 2413.5462,605.4475 C2410.6681,613.6391 2405.3006,612.9227 2399.9979,607.9412 C2393.8537,614.9459 2389.0972,613.5685 2384.5153,606.2522 C2379.259,610.9036 2373.5295,610.3108 2371.0231,603.1193 C2365.8005,609.4731 2360.8191,608.2322 2358.0063,600.8378 C2349.2158,596.4674 2348.8551,591.4996 2355.857,584.9877 C2349.8057,579.2154 2349.0243,573.668 2357.5911,569.5365" fill="#F1F1F1" style="stroke:#181818;stroke-width:0.5;"/><text fill="#000000" font-family="sans-serif" font-size="14" lengthAdjust="spacing" textLength="67.6963" x="2364" y="590.1426">Same LAN</text></g><g class="entity" data-qualified-name="GMN58" data-source-line="79" id="ent0059"><path d="M2350,249.1094 L2350,308.1641 L2627.5088,308.1641 L2627.5088,259.1094 L2617.5088,249.1094 L2350,249.1094" fill="#FEFFDD" style="stroke:#181818;stroke-width:0.5;"/><path d="M2617.5088,249.1094 L2617.5088,259.1094 L2627.5088,259.1094 L2617.5088,249.1094" fill="#FEFFDD" style="stroke:#181818;stroke-width:1;"/><text fill="#000000" font-family="sans-serif" font-size="13" lengthAdjust="spacing" textLength="114.1689" x="2356" y="267.6045">- Runtime &gt;= 20 fps</text><text fill="#000000" font-family="sans-serif" font-size="13" lengthAdjust="spacing" textLength="206.6416" x="2356" y="283.9561">- Normal scenario accuracy &gt;= 95%</text><text fill="#000000" font-family="sans-serif" font-size="13" lengthAdjust="spacing" textLength="256.5088" x="2356" y="300.3076">- Occlusion robustness: visible parts &gt;= 90%</text></g><g class="entity" data-qualified-name="GMN61" data-source-line="85" id="ent0062"><path d="M638,563.1094 L638,605.8125 L924.1162,605.8125 L924.1162,573.1094 L914.1162,563.1094 L638,563.1094" fill="#FEFFDD" style="stroke:#181818;stroke-width:0.5;"/><path d="M914.1162,563.1094 L914.1162,573.1094 L924.1162,573.1094 L914.1162,563.1094" fill="#FEFFDD" style="stroke:#181818;stroke-width:1;"/><text fill="#000000" font-family="sans-serif" font-size="13" lengthAdjust="spacing" textLength="115.6035" x="644" y="581.6045">- Identity verification</text><text fill="#000000" font-family="sans-serif" font-size="13" lengthAdjust="spacing" textLength="265.1162" x="644" y="597.9561">- Permission control (Admin vs Ordinary User)</text></g><g class="entity" data-qualified-name="GMN64" data-source-line="90" id="ent0065"><path d="M612.5,802.6094 L612.5,894.3672 L813.4307,894.3672 L813.4307,812.6094 L803.4307,802.6094 L612.5,802.6094" fill="#FEFFDD" style="stroke:#181818;stroke-width:0.5;"/><path d="M803.4307,802.6094 L803.4307,812.6094 L813.4307,812.6094 L803.4307,802.6094" fill="#FEFFDD" style="stroke:#181818;stroke-width:1;"/><text fill="#000000" font-family="sans-serif" font-size="13" lengthAdjust="spacing" textLength="143.7998" x="618.5" y="821.1045">SQL Injection Protection:</text><text fill="#000000" font-family="sans-serif" font-size="13" lengthAdjust="spacing" textLength="179.9307" x="618.5" y="837.4561">- Input validation &amp; type checks</text><text fill="#000000" font-family="sans-serif" font-size="13" lengthAdjust="spacing" textLength="140.8862" x="618.5" y="853.8076">- Special symbol filtering</text><text fill="#000000" font-family="sans-serif" font-size="13" lengthAdjust="spacing" textLength="101.1689" x="618.5" y="870.1592">- Bound variables</text><text fill="#000000" font-family="sans-serif" font-size="13" lengthAdjust="spacing" textLength="128.6162" x="618.5" y="886.5107">- Prepared statements</text></g><g class="entity" data-qualified-name="GMN67" data-source-line="98" id="ent0068"><path d="M2928,241.1094 L2928,316.5156 L3145.5361,316.5156 L3145.5361,251.1094 L3135.5361,241.1094 L2928,241.1094" fill="#FEFFDD" style="stroke:#181818;stroke-width:0.5;"/><path d="M3135.5361,241.1094 L3135.5361,251.1094 L3145.5361,251.1094 L3135.5361,241.1094" fill="#FEFFDD" style="stroke:#181818;stroke-width:1;"/><text fill="#000000" font-family="sans-serif" font-size="13" lengthAdjust="spacing" textLength="169.8252" x="2934" y="259.6045">User data leakage protection:</text><text fill="#000000" font-family="sans-serif" font-size="13" lengthAdjust="spacing" textLength="175.5889" x="2934" y="275.9561">- Clipboard, drag/drop controls</text><text fill="#000000" font-family="sans-serif" font-size="13" lengthAdjust="spacing" textLength="196.5361" x="2934" y="292.3076">- Screen copy/screenshot controls</text><text fill="#000000" font-family="sans-serif" font-size="13" lengthAdjust="spacing" textLength="132.9263" x="2934" y="308.6592">- Memory theft controls</text></g><g class="entity" data-qualified-name="GMN70" data-source-line="105" id="ent0071"><path d="M2663.5,249.1094 L2663.5,308.1641 L2892.5952,308.1641 L2892.5952,259.1094 L2882.5952,249.1094 L2663.5,249.1094" fill="#FEFFDD" style="stroke:#181818;stroke-width:0.5;"/><path d="M2882.5952,249.1094 L2882.5952,259.1094 L2892.5952,259.1094 L2882.5952,249.1094" fill="#FEFFDD" style="stroke:#181818;stroke-width:1;"/><text fill="#000000" font-family="sans-serif" font-size="13" lengthAdjust="spacing" textLength="75.8799" x="2669.5" y="267.6045">Precondition:</text><text fill="#000000" font-family="sans-serif" font-size="13" lengthAdjust="spacing" textLength="207.397" x="2669.5" y="283.9561">- Source and target Android devices</text><text fill="#000000" font-family="sans-serif" font-size="13" lengthAdjust="spacing" textLength="208.0952" x="2669.5" y="300.3076">- Same LAN discovery &amp; connection</text></g><g class="entity" data-qualified-name="GMN73" data-source-line="111" id="ent0074"><path d="M612.5,433.6094 L612.5,476.3125 L921.8232,476.3125 L921.8232,443.6094 L911.8232,433.6094 L612.5,433.6094" fill="#FEFFDD" style="stroke:#181818;stroke-width:0.5;"/><path d="M911.8232,433.6094 L911.8232,443.6094 L921.8232,443.6094 L911.8232,433.6094" fill="#FEFFDD" style="stroke:#181818;stroke-width:1;"/><text fill="#000000" font-family="sans-serif" font-size="13" lengthAdjust="spacing" textLength="288.3232" x="618.5" y="452.1045">Protocol, tokens, and message format unspecified</text><text fill="#000000" font-family="sans-serif" font-size="13" lengthAdjust="spacing" textLength="218.2451" x="618.5" y="468.4561">Modules exchange data via interfaces</text></g><!--link Camera to Pose--><g class="link" data-entity-1="ent0003" data-entity-2="ent0004" data-link-type="dependency" data-source-line="38" id="lnk26"><path d="M1766.3,139.8094 C1811.39,169.8694 1896.7402,226.7652 1941.7102,256.7552" fill="none" id="Camera-to-Pose" style="stroke:#181818;stroke-width:1;"/><polygon fill="#181818" points="1945.87,259.5294,1940.6016,251.2081,1941.7102,256.7552,1936.163,257.8638,1945.87,259.5294" style="stroke:#181818;stroke-width:1;stroke-linejoin:miter;stroke-miterlimit:10;"/></g><!--link Pose to Eval--><g class="link" data-entity-1="ent0004" data-entity-2="ent0005" data-link-type="dependency" data-source-line="39" id="lnk27"><path d="M1998.09,297.6294 C2044.65,331.0694 2139.8888,399.4528 2186.6188,433.0128" fill="none" id="Pose-to-Eval" style="stroke:#181818;stroke-width:1;"/><polygon fill="#181818" points="2190.68,435.9294,2185.7031,427.4305,2186.6188,433.0128,2181.0365,433.9284,2190.68,435.9294" style="stroke:#181818;stroke-width:1;stroke-linejoin:miter;stroke-miterlimit:10;"/></g><!--link Eval to UI--><g class="link" data-entity-1="ent0005" data-entity-2="ent0002" data-link-type="dependency" data-source-line="40" id="lnk28"><path d="M2137.71,474.1394 C2124.16,477.0894 2110.19,480.0294 2097,482.6094 C1910.33,519.1894 1694.1709,553.833 1580.9609,571.393" fill="none" id="Eval-to-UI" style="stroke:#181818;stroke-width:1;"/><polygon fill="#181818" points="1576.02,572.1594,1585.5268,574.7326,1580.9609,571.393,1584.3005,566.8271,1576.02,572.1594" style="stroke:#181818;stroke-width:1;stroke-linejoin:miter;stroke-miterlimit:10;"/></g><!--link Monitor to UI--><g class="link" data-entity-1="ent0006" data-entity-2="ent0002" data-link-type="dependency" data-source-line="41" id="lnk29"><path d="M1877,482.6794 C1784.42,507.5294 1653.509,542.6731 1572.969,564.2931" fill="none" id="Monitor-to-UI" style="stroke:#181818;stroke-width:1;"/><polygon fill="#181818" points="1568.14,565.5894,1577.8693,567.1193,1572.969,564.2931,1575.7952,559.3928,1568.14,565.5894" style="stroke:#181818;stroke-width:1;stroke-linejoin:miter;stroke-miterlimit:10;"/></g><!--link PlanMgr to UI--><g class="link" data-entity-1="ent0007" data-entity-2="ent0002" data-link-type="dependency" data-source-line="42" id="lnk30"><path d="M1115.7,478.9294 C1121.53,480.2794 1127.34,481.5294 1133,482.6094 C1250.28,505.0794 1288.58,469.6594 1400,512.6094 C1412.78,517.5294 1413.83,522.6894 1425,530.6094 C1441.54,542.3294 1456.103,552.4977 1470.793,562.6977" fill="none" id="PlanMgr-to-UI" style="stroke:#181818;stroke-width:1;"/><polygon fill="#181818" points="1474.9,565.5494,1469.7887,557.1307,1470.793,562.6977,1465.226,563.7019,1474.9,565.5494" style="stroke:#181818;stroke-width:1;stroke-linejoin:miter;stroke-miterlimit:10;"/></g><!--link History to UI--><g class="link" data-entity-1="ent0008" data-entity-2="ent0002" data-link-type="dependency" data-source-line="43" id="lnk31"><path d="M1705.15,474.2394 C1659.85,498.5094 1584.3772,538.9379 1539.1372,563.1779" fill="none" id="History-to-UI" style="stroke:#181818;stroke-width:1;"/><polygon fill="#181818" points="1534.73,565.5394,1544.5522,564.8146,1539.1372,563.1779,1540.7739,557.763,1534.73,565.5394" style="stroke:#181818;stroke-width:1;stroke-linejoin:miter;stroke-miterlimit:10;"/></g><!--link Personal to UI--><g class="link" data-entity-1="ent0009" data-entity-2="ent0002" data-link-type="dependency" data-source-line="44" id="lnk32"><path d="M1336.86,474.1394 C1367.12,482.9894 1400.94,495.5194 1429,512.6094 C1452.09,526.6694 1470.2418,545.6744 1483.6018,561.6444" fill="none" id="Personal-to-UI" style="stroke:#181818;stroke-width:1;"/><polygon fill="#181818" points="1486.81,565.4794,1484.1032,556.0098,1483.6018,561.6444,1477.9672,561.143,1486.81,565.4794" style="stroke:#181818;stroke-width:1;stroke-linejoin:miter;stroke-miterlimit:10;"/></g><!--link Auth to UI--><g class="link" data-entity-1="ent0010" data-entity-2="ent0002" data-link-type="dependency" data-source-line="45" id="lnk33"><path d="M1501,482.8394 C1501,507.6694 1501,538.9594 1501,560.5394" fill="none" id="Auth-to-UI" style="stroke:#181818;stroke-width:1;"/><polygon fill="#181818" points="1501,565.5394,1505,556.5394,1501,560.5394,1497,556.5394,1501,565.5394" style="stroke:#181818;stroke-width:1;stroke-linejoin:miter;stroke-miterlimit:10;"/></g><!--link StdRepo to Eval--><g class="link" data-entity-1="ent0021" data-entity-2="ent0005" data-link-type="dependency" data-source-line="47" id="lnk34"><path d="M336.81,285.6194 C602.1,300.1794 1303.44,338.0394 1889,364.1094 C1912.11,365.1394 2075.05,364.8094 2097,372.1094 C2136.76,385.3294 2171.5809,412.8364 2193.5609,432.7064" fill="none" id="StdRepo-to-Eval" style="stroke:#181818;stroke-width:1;"/><polygon fill="#181818" points="2197.27,436.0594,2193.2761,427.0567,2193.5609,432.7064,2187.9112,432.9912,2197.27,436.0594" style="stroke:#181818;stroke-width:1;stroke-linejoin:miter;stroke-miterlimit:10;"/><text fill="#000000" font-family="sans-serif" font-size="13" lengthAdjust="spacing" textLength="173.4243" x="1890" y="360.6045">standard skeleton movements</text></g><!--link StdRepo to Reco--><g class="link" data-entity-1="ent0021" data-entity-2="ent0016" data-link-type="dependency" data-source-line="48" id="lnk35"><path d="M222.01,297.6294 C210.9,331.0694 188.7777,397.6248 177.6177,431.1848" fill="none" id="StdRepo-to-Reco" style="stroke:#181818;stroke-width:1;"/><polygon fill="#181818" points="176.04,435.9294,182.6756,428.6514,177.6177,431.1848,175.0843,426.127,176.04,435.9294" style="stroke:#181818;stroke-width:1;stroke-linejoin:miter;stroke-miterlimit:10;"/><text fill="#000000" font-family="sans-serif" font-size="13" lengthAdjust="spacing" textLength="169.0825" x="206" y="360.6045">training templates/constraints</text></g><!--link UI to API--><g class="link" data-entity-1="ent0002" data-entity-2="ent0015" data-link-type="dependency" data-source-line="50" id="lnk36"><path d="M1461.71,565.4594 C1426.87,549.5994 1374.11,528.3194 1325.5,519.6094 C1283.28,512.0394 1175.35,517.8994 1132.5,519.6094 C904.18,528.7294 846.79,532.6894 620,560.6094 C607.05,562.1994 598.412,563.3702 585.002,565.4302" fill="none" id="UI-to-API" style="stroke:#181818;stroke-width:1;"/><polygon fill="#181818" points="580.06,566.1894,589.563,568.7765,585.002,565.4302,588.3483,560.8692,580.06,566.1894" style="stroke:#181818;stroke-width:1;stroke-linejoin:miter;stroke-miterlimit:10;"/><text fill="#000000" font-family="sans-serif" font-size="13" lengthAdjust="spacing" textLength="191.5151" x="1133.5" y="527.1045">training/evaluation data, requests</text></g><!--link API to UI--><g class="link" data-entity-1="ent0015" data-entity-2="ent0002" data-link-type="dependency" data-source-line="69" id="lnk51"><path d="M580.03,565.9094 C593.45,563.8994 607.03,562.0594 620,560.6094 C934.34,525.4494 1014.33,528.7194 1330.5,519.6094 C1357.6,518.8294 1365.36,512.4294 1391.5,519.6094 C1423.91,528.4994 1452.4291,546.7506 1473.5091,562.5506" fill="none" id="API-to-UI" style="stroke:#181818;stroke-width:1;"/><polygon fill="#181818" points="1477.51,565.5494,1472.7074,556.9508,1473.5091,562.5506,1467.9093,563.3523,1477.51,565.5494" style="stroke:#181818;stroke-width:1;stroke-linejoin:miter;stroke-miterlimit:10;"/><text fill="#000000" font-family="sans-serif" font-size="13" lengthAdjust="spacing" textLength="59.979" x="1331.5" y="527.1045">responses</text></g><!--link Auth to API--><g class="link" data-entity-1="ent0010" data-entity-2="ent0015" data-link-type="dependency" data-source-line="51" id="lnk37"><path d="M1396.7,479.8894 C1390.73,480.8994 1384.8,481.8194 1379,482.6094 C1148.31,514.0794 1079.44,447.1794 856,512.6094 C840.34,517.1994 839.44,525.3294 824,530.6094 C737.28,560.2394 710.58,546.7194 620,560.6094 C607.11,562.5894 598.5191,563.9211 585.1291,566.0311" fill="none" id="Auth-to-API" style="stroke:#181818;stroke-width:1;"/><polygon fill="#181818" points="580.19,566.8094,589.7029,569.3597,585.1291,566.0311,588.4577,561.4572,580.19,566.8094" style="stroke:#181818;stroke-width:1;stroke-linejoin:miter;stroke-miterlimit:10;"/><text fill="#000000" font-family="sans-serif" font-size="13" lengthAdjust="spacing" textLength="95.3862" x="857" y="527.1045">login/registration</text></g><!--link PlanMgr to API--><g class="link" data-entity-1="ent0007" data-entity-2="ent0015" data-link-type="dependency" data-source-line="52" id="lnk38"><path d="M956.35,479.1794 C950.5,480.4694 944.68,481.6394 939,482.6094 C849.4,497.9894 611.1,469.6194 531,512.6094 C509.29,524.2594 495.771,544.1513 486.811,561.0613" fill="none" id="PlanMgr-to-API" style="stroke:#181818;stroke-width:1;"/><polygon fill="#181818" points="484.47,565.4794,492.2183,559.3996,486.811,561.0613,485.1493,555.654,484.47,565.4794" style="stroke:#181818;stroke-width:1;stroke-linejoin:miter;stroke-miterlimit:10;"/><text fill="#000000" font-family="sans-serif" font-size="13" lengthAdjust="spacing" textLength="160.4116" x="532" y="527.1045">goals, condition, restrictions</text></g><!--link History to API--><g class="link" data-entity-1="ent0008" data-entity-2="ent0015" data-link-type="dependency" data-source-line="53" id="lnk39"><path d="M1669.12,474.1294 C1654,477.4494 1638.04,480.5194 1623,482.6094 C1365.13,518.3994 1295.78,476.1694 1038,512.6094 C1003.2,517.5294 995.7,525.0594 961,530.6094 C810.77,554.6494 770.99,541.9294 620,560.6094 C607.06,562.2094 598.4458,563.3654 585.0358,565.3554" fill="none" id="History-to-API" style="stroke:#181818;stroke-width:1;"/><polygon fill="#181818" points="580.09,566.0894,589.5797,568.7249,585.0358,565.3554,588.4054,560.8116,580.09,566.0894" style="stroke:#181818;stroke-width:1;stroke-linejoin:miter;stroke-miterlimit:10;"/><text fill="#000000" font-family="sans-serif" font-size="13" lengthAdjust="spacing" textLength="84.5381" x="1039" y="527.1045">history queries</text></g><!--link Personal to API--><g class="link" data-entity-1="ent0009" data-entity-2="ent0015" data-link-type="dependency" data-source-line="54" id="lnk40"><path d="M1180.18,474.1494 C1164.65,477.3694 1148.35,480.3894 1133,482.6094 C956.56,508.1094 904.85,465.1894 733,512.6094 C715.76,517.3694 713.81,524.4794 697,530.6094 C656.96,545.1994 616.253,555.8442 576.923,564.5042" fill="none" id="Personal-to-API" style="stroke:#181818;stroke-width:1;"/><polygon fill="#181818" points="572.04,565.5794,581.6896,567.5505,576.923,564.5042,579.9693,559.7376,572.04,565.5794" style="stroke:#181818;stroke-width:1;stroke-linejoin:miter;stroke-miterlimit:10;"/><text fill="#000000" font-family="sans-serif" font-size="13" lengthAdjust="spacing" textLength="85.2808" x="734" y="527.1045">profile updates</text></g><!--link API to Reco--><g class="link" data-entity-1="ent0015" data-entity-2="ent0016" data-link-type="dependency" data-source-line="56" id="lnk41"><path d="M371.71,576.4494 C262.62,567.8694 104.62,551.9394 86,530.6094 C67.47,509.3894 92.1364,490.6025 121.0464,476.3325" fill="none" id="API-to-Reco" style="stroke:#181818;stroke-width:1;"/><polygon fill="#181818" points="125.53,474.1194,115.6891,474.5161,121.0464,476.3325,119.2301,481.6898,125.53,474.1194" style="stroke:#181818;stroke-width:1;stroke-linejoin:miter;stroke-miterlimit:10;"/><text fill="#000000" font-family="sans-serif" font-size="13" lengthAdjust="spacing" textLength="150.2998" x="87" y="527.1045">recommendation requests</text></g><!--link Reco to API--><g class="link" data-entity-1="ent0016" data-entity-2="ent0015" data-link-type="dependency" data-source-line="65" id="lnk48"><path d="M198.87,474.1294 C225.84,490.4294 267.59,514.2994 306,530.6094 C338.44,544.3894 370.8978,555.017 402.2478,564.107" fill="none" id="Reco-to-API" style="stroke:#181818;stroke-width:1;"/><polygon fill="#181818" points="407.05,565.4994,399.52,559.1513,402.2478,564.107,397.2921,566.8348,407.05,565.4994" style="stroke:#181818;stroke-width:1;stroke-linejoin:miter;stroke-miterlimit:10;"/><text fill="#000000" font-family="sans-serif" font-size="13" lengthAdjust="spacing" textLength="170.5488" x="307" y="527.1045">recommended/adjusted plans</text></g><!--link API to ReportSvc--><g class="link" data-entity-1="ent0015" data-entity-2="ent0017" data-link-type="dependency" data-source-line="57" id="lnk42"><path d="M378.54,603.6594 C360.64,611.4694 344.12,622.6394 333,638.6094 C323.22,652.6594 326.582,667.778 332.962,681.988" fill="none" id="API-to-ReportSvc" style="stroke:#181818;stroke-width:1;"/><polygon fill="#181818" points="335.01,686.5494,334.9728,676.7006,332.962,681.988,327.6746,679.9773,335.01,686.5494" style="stroke:#181818;stroke-width:1;stroke-linejoin:miter;stroke-miterlimit:10;"/><text fill="#000000" font-family="sans-serif" font-size="13" lengthAdjust="spacing" textLength="138.7534" x="334" y="653.1045">poster/report generation</text></g><!--link ReportSvc to API--><g class="link" data-entity-1="ent0017" data-entity-2="ent0015" data-link-type="dependency" data-source-line="66" id="lnk49"><path d="M430.17,690.5294 C448.51,683.3994 465.74,672.6894 477,656.6094 C487.75,641.2594 486.5431,623.9722 482.8431,608.5022" fill="none" id="ReportSvc-to-API" style="stroke:#181818;stroke-width:1;"/><polygon fill="#181818" points="481.68,603.6394,479.8832,613.3229,482.8431,608.5022,487.6638,611.4621,481.68,603.6394" style="stroke:#181818;stroke-width:1;stroke-linejoin:miter;stroke-miterlimit:10;"/><text fill="#000000" font-family="sans-serif" font-size="13" lengthAdjust="spacing" textLength="62.8735" x="485" y="653.1045">report data</text></g><!--link API to ProfileSvc--><g class="link" data-entity-1="ent0015" data-entity-2="ent0018" data-link-type="dependency" data-source-line="58" id="lnk43"><path d="M371.75,594.3594 C299.06,602.2894 209.94,616.2094 180,638.6094 C164.41,650.2694 157.1214,666.5557 152.6114,681.7657" fill="none" id="API-to-ProfileSvc" style="stroke:#181818;stroke-width:1;"/><polygon fill="#181818" points="151.19,686.5594,157.5835,679.0678,152.6114,681.7657,149.9136,676.7936,151.19,686.5594" style="stroke:#181818;stroke-width:1;stroke-linejoin:miter;stroke-miterlimit:10;"/><text fill="#000000" font-family="sans-serif" font-size="13" lengthAdjust="spacing" textLength="138.7534" x="181" y="653.1045">user/account operations</text></g><!--link ProfileSvc to API--><g class="link" data-entity-1="ent0018" data-entity-2="ent0015" data-link-type="dependency" data-source-line="67" id="lnk50"><path d="M123.33,686.4794 C108.04,672.5994 93.19,653.3894 106,638.6094 C139.85,599.5694 269.762,588.7293 366.912,586.0093" fill="none" id="ProfileSvc-to-API" style="stroke:#181818;stroke-width:1;"/><polygon fill="#181818" points="371.91,585.8694,362.8016,582.1228,366.912,586.0093,363.0255,590.1197,371.91,585.8694" style="stroke:#181818;stroke-width:1;stroke-linejoin:miter;stroke-miterlimit:10;"/><text fill="#000000" font-family="sans-serif" font-size="13" lengthAdjust="spacing" textLength="49.8608" x="107" y="653.1045">user info</text></g><!--link Reco to DB--><g class="link" data-entity-1="ent0016" data-entity-2="ent0019" data-link-type="dependency" data-source-line="60" id="lnk44"><path d="M119.54,474.1394 C101.95,482.9894 83.9,495.5194 73,512.6094 C31.25,578.0994 60.56,609.0294 57,686.6094 C56.23,703.4794 51.75,708.5594 57,724.6094 C68.51,759.8194 90.9722,789.6137 112.0322,812.7237" fill="none" id="Reco-to-DB" style="stroke:#181818;stroke-width:1;"/><polygon fill="#181818" points="115.4,816.4194,112.2944,807.073,112.0322,812.7237,106.3814,812.4615,115.4,816.4194" style="stroke:#181818;stroke-width:1;stroke-linejoin:miter;stroke-miterlimit:10;"/></g><!--link ReportSvc to DB--><g class="link" data-entity-1="ent0017" data-entity-2="ent0019" data-link-type="dependency" data-source-line="61" id="lnk45"><path d="M319.52,724.7494 C287.04,747.8894 234.4329,785.3491 194.9429,813.4691" fill="none" id="ReportSvc-to-DB" style="stroke:#181818;stroke-width:1;"/><polygon fill="#181818" points="190.87,816.3694,200.5214,814.4073,194.9429,813.4691,195.8811,807.8906,190.87,816.3694" style="stroke:#181818;stroke-width:1;stroke-linejoin:miter;stroke-miterlimit:10;"/></g><!--link ProfileSvc to DB--><g class="link" data-entity-1="ent0018" data-entity-2="ent0019" data-link-type="dependency" data-source-line="62" id="lnk46"><path d="M147,724.7494 C147,747.8894 147,783.2494 147,811.3694" fill="none" id="ProfileSvc-to-DB" style="stroke:#181818;stroke-width:1;"/><polygon fill="#181818" points="147,816.3694,151,807.3694,147,811.3694,143,807.3694,147,816.3694" style="stroke:#181818;stroke-width:1;stroke-linejoin:miter;stroke-miterlimit:10;"/></g><!--link ReportSvc to MediaStore--><g class="link" data-entity-1="ent0017" data-entity-2="ent0020" data-link-type="dependency" data-source-line="63" id="lnk47"><path d="M346.67,724.7494 C349.02,750.1894 352.8199,791.4806 355.3999,819.4006" fill="none" id="ReportSvc-to-MediaStore" style="stroke:#181818;stroke-width:1;"/><polygon fill="#181818" points="355.86,824.3794,359.0149,815.0495,355.3999,819.4006,351.0488,815.7856,355.86,824.3794" style="stroke:#181818;stroke-width:1;stroke-linejoin:miter;stroke-miterlimit:10;"/><text fill="#000000" font-family="sans-serif" font-size="13" lengthAdjust="spacing" textLength="161.8462" x="352" y="769.1045">images/charts/poster assets</text></g><!--link Discovery to CastServer--><g class="link" data-entity-1="ent0012" data-entity-2="ent0013" data-link-type="dependency" data-source-line="71" id="lnk52"><path d="M1977.11,139.6894 C2003.76,154.3894 2042.07,175.8594 2075,195.6094 C2110.5,216.8994 2146.4514,239.9589 2172.3914,256.8689" fill="none" id="Discovery-to-CastServer" style="stroke:#181818;stroke-width:1;"/><polygon fill="#181818" points="2176.58,259.5994,2171.2249,251.3336,2172.3914,256.8689,2166.8561,258.0354,2176.58,259.5994" style="stroke:#181818;stroke-width:1;stroke-linejoin:miter;stroke-miterlimit:10;"/><text fill="#000000" font-family="sans-serif" font-size="13" lengthAdjust="spacing" textLength="123.5762" x="2061" y="184.1045">connect target device</text></g><!--link CastServer to LAN--><g class="link" data-entity-1="ent0013" data-entity-2="ent0025" data-link-type="association" data-source-line="72" id="lnk53"><path d="M2242.34,297.7194 C2271.75,313.4694 2311.21,338.9794 2335,372.1094 C2377.46,431.2394 2391.6,519.0994 2396.06,560.4794" fill="none" id="CastServer-LAN" style="stroke:#181818;stroke-width:1;stroke-dasharray:7,7;"/></g><!--link CastClient to LAN--><g class="link" data-entity-1="ent0023" data-entity-2="ent0025" data-link-type="association" data-source-line="73" id="lnk54"><path d="M2518.8,474.3794 C2493.82,496.9594 2451.27,535.4394 2423.91,560.1794" fill="none" id="CastClient-LAN" style="stroke:#181818;stroke-width:1;stroke-dasharray:7,7;"/></g><!--link CastServer to CastClient--><g class="link" data-entity-1="ent0013" data-entity-2="ent0023" data-link-type="dependency" data-source-line="74" id="lnk55"><path d="M2267.94,297.7294 C2304.45,309.2694 2350.49,325.8394 2389,346.1094 C2438.41,372.1194 2486.1095,409.4678 2514.0595,432.7678" fill="none" id="CastServer-to-CastClient" style="stroke:#181818;stroke-width:1;"/><polygon fill="#181818" points="2517.9,435.9694,2513.5483,427.1341,2514.0595,432.7678,2508.4257,433.2789,2517.9,435.9694" style="stroke:#181818;stroke-width:1;stroke-linejoin:miter;stroke-miterlimit:10;"/><text fill="#000000" font-family="sans-serif" font-size="13" lengthAdjust="spacing" textLength="144.5044" x="2420" y="360.6045">video stream (&lt;=100 ms)</text></g><!--link CastServer to CastClient--><g class="link" data-entity-1="ent0013" data-entity-2="ent0023" data-link-type="dependency" data-source-line="75" id="lnk56"><path d="M2260.7,297.6594 C2283.04,304.2394 2309.05,311.2494 2333,316.1094 C2385.68,326.7894 2537.43,305.8194 2573,346.1094 C2595.64,371.7494 2574.7919,408.4308 2557.2019,431.8608" fill="none" id="CastServer-to-CastClient-1" style="stroke:#181818;stroke-width:1;"/><polygon fill="#181818" points="2554.2,435.8594,2562.8023,431.0635,2557.2019,431.8608,2556.4046,426.2604,2554.2,435.8594" style="stroke:#181818;stroke-width:1;stroke-linejoin:miter;stroke-miterlimit:10;"/><text fill="#000000" font-family="sans-serif" font-size="13" lengthAdjust="spacing" textLength="169.0635" x="2582" y="360.6045">control commands (&lt;=50 ms)</text></g><!--link CastClient to Display--><g class="link" data-entity-1="ent0023" data-entity-2="ent0024" data-link-type="dependency" data-source-line="76" id="lnk57"><path d="M2540.15,474.3794 C2541.67,498.6194 2544.0268,536.1692 2545.5468,560.3892" fill="none" id="CastClient-to-Display" style="stroke:#181818;stroke-width:1;"/><polygon fill="#181818" points="2545.86,565.3794,2549.2884,556.1465,2545.5468,560.3892,2541.3041,556.6476,2545.86,565.3794" style="stroke:#181818;stroke-width:1;stroke-linejoin:miter;stroke-miterlimit:10;"/></g><!--link Pose to GMN58--><g class="link" data-entity-1="ent0004" data-entity-2="ent0059" data-link-type="association" data-source-line="79" id="lnk60"><path d="M1986.27,259.5494 C2006.06,233.0194 2046.07,186.1294 2093.5,167.6094 C2185.41,131.7294 2220.8,139.9094 2315.5,167.6094 C2369.55,183.4194 2422.77,221.7894 2455.72,248.9794" fill="none" id="Pose-GMN58" style="stroke:#181818;stroke-width:1;stroke-dasharray:7,7;"/></g><!--link Auth to GMN61--><g class="link" data-entity-1="ent0010" data-entity-2="ent0062" data-link-type="association" data-source-line="85" id="lnk63"><path d="M1396.68,479.7294 C1390.71,480.7794 1384.79,481.7494 1379,482.6094 C1214.04,507.0294 1167.2,473.9094 1005,512.6094 C984.45,517.5094 980.94,523.6194 961,530.6094 C927.34,542.4194 889.54,553.8194 857.31,562.9994" fill="none" id="Auth-GMN61" style="stroke:#181818;stroke-width:1;stroke-dasharray:7,7;"/></g><!--link DB to GMN64--><g class="link" data-entity-1="ent0019" data-entity-2="ent0065" data-link-type="association" data-source-line="90" id="lnk66"><path d="M182.81,816.5594 C207.08,797.0794 240.92,774.0094 275.5,763.6094 C404.46,724.8194 449.14,726.1594 578.5,763.6094 C605.96,771.5594 633.2,786.9794 655.91,802.5194" fill="none" id="DB-GMN64" style="stroke:#181818;stroke-width:1;stroke-dasharray:7,7;"/></g><!--link DLP to GMN67--><g class="link" data-entity-1="ent0011" data-entity-2="ent0068" data-link-type="association" data-source-line="98" id="lnk69"><path d="M2317.27,127.1394 C2489.11,136.4794 2803.64,158.1394 2910,195.6094 C2939.33,205.9394 2968.72,224.2794 2991.83,240.9994" fill="none" id="DLP-GMN67" style="stroke:#181818;stroke-width:1;stroke-dasharray:7,7;"/></g><!--link Discovery to GMN70--><g class="link" data-entity-1="ent0012" data-entity-2="ent0071" data-link-type="association" data-source-line="105" id="lnk72"><path d="M2052.21,137.3894 C2058.23,138.1694 2064.19,138.9094 2070,139.6094 C2325.38,170.2494 2402.37,113.1394 2646,195.6094 C2681.26,207.5494 2716.87,230.4394 2742.2,249.0094" fill="none" id="Discovery-GMN70" style="stroke:#181818;stroke-width:1;stroke-dasharray:7,7;"/></g><!--link GMN73 to API--><g class="link" data-entity-1="ent0074" data-entity-2="ent0015" data-link-type="association" data-source-line="111" id="lnk75"><path d="M640.97,476.6494 C576.54,488.1994 509.29,502.3294 498,512.6094 C483.21,526.0794 478.27,549.2594 476.67,565.4594" fill="none" id="GMN73-API" style="stroke:#181818;stroke-width:1;stroke-dasharray:7,7;"/></g><?plantuml-src VLPDRnit4BtlhnWOY643LkGMoA564q2ntSQ07QkHVUk5ub8IxLroItALA47_Uz-GNArs7VTYQuTlE5zlPXXqg1JTcD9QHt_eO9JtD6iQcj1YvuEgQURaHWSbG-jKKVXdRHhXH4tIreqroeH5sE4A1uGmwqeTG1eXdyLQZG55bjFHdLrg7B6zavafdTNbLDylJe_eHq6z1Jgw_gQSr9uz3SgjX5JqU7D4mkFV47afQkK4NOg67OwG91h2vXQNNVkWQn6qDNHjrjeaE1-z0FDbTBqLLPlmnxIGrccpZYfyC5HvS48R7DCYYA3epXeThFlRdFWWN9WgKvv5UANYTQLQEwLEusKPEtAX4eRkX47Q-1RP-c2HO9PAfw9FIPk1TsltIle-QUYv7To_togtrUfhLChYaKdbl3MYehcpAoxJCNwfbNBAIEMJiGmPAixQiC4FBRjKiG39-Xw_uVsihBMXhQTxLseZt2wvph3XJLSY2BfL8h85RZ0D-SfBQuApLNBYwdO-qb9R3O9SQIyjekHeeM2IRbBfZiRS0I6uPaYDSdIoiAt3HPcPfvbCFgJpujy39YVHnEioEee4-KYE4Ozdynlw4uJuAdOqfKyF3_EUqIa7yn6VloXyrE1BIYRRqHdBHo-92iUFSTHO5qPe5YssSgZowA7GLVWGdsL90TR5Ke10yAUAde0NLrc8YYx-kZsZnjcobO5QunibzKghdBEhZsopicr9H_VB9nHYUgTABT0SrY5zYVOiOS6e-T102DwLw8kjgbd4aNXkaLrKN8II9ODoT9Ly46wj0cL6dFIL_F7pobzM6j_xGgVFSK54DS7SY0H30-uwHl5lTY87ki3KeTlPvtYC_qMHHzDayY7Dc3Y3-2kE3_uJlp3HyWZeFdDFTvzT4tUdNP_cRswZxdUHaxCtGnVakuJwPuNn0rBLERD-06Tw0HwwIOPbW123ybDfZOzYQ1IFDn7DpEx1KzMFIkRE6SR_FwtoKDYxbpGgYy4xTMgj-KfM68IRG6ihAiy3qvIQ8NmTu3fsj1ya92biiWGsdLP-cAC4QJBdswRae8g2nGTnks7ZzVxlORcV-AxOTuWYTjrQ6PL3wS1zCm7TekMcGahRWa-soLXu42qp70tJNvy51rVy5DBt3qnWhQsvK1ii6pzDxe67NeL3CoaH-q1LEHNb4pQBAkDcyICB7Jm6oLKT-vG071vfix9zIX-JeaSFUKvrFvhvj1-fGCaqgIcapYrZvnO7aBTlOpVrxNaeoPZkrWoue2tciWNpiIfhEldz_I_dvrJxq__LaMd9SE_Nw1ZFUkzwjOoBjSZDNnXiA79wlK5TLwd99_G5PUPnyU4z_NfEgyP3zjcw6cpqKc7zQKjWG-k4t37ejtTlWBYNicfzP9vTeYRyCECul5w2j0tNDOBFtnGe7R7bR7zf0xyDu41Sg1EwANaRXnqXJ4pbj9OXHrFKsaSRNQmlLpFnWZWTszZ721fYzcE9FUNLt6_f2pPjcZOGPe4kkyT0s3MAv4R9Pqx4WZS5Ps9NBs4VR09JCK1mz17zKKBNQO6G6Opd1m87Epq_gjB4UZLuVXR4vSPCfIe_8fg1UwXXixIOXMTKOX5DiHsQBXVHExoj56UdsKrz_EqtDXmYxbJDSmOFdjM1_7MdzW-FERTT7cViIdvhW6WTzVEooYqGtSahXSg3futSFst6PWE2OHRWIS5LiT9MPn0-8ugpQAW6fpWfAsRZO6zZ0vKjaaxg6sQ80IPcSOkThRltoa6O_m40?></g></svg>