<svg xmlns="http://www.w3.org/2000/svg" xmlns:xlink="http://www.w3.org/1999/xlink" contentStyleType="text/css" data-diagram-type="DESCRIPTION" height="1294px" preserveAspectRatio="none" style="width:1908px;height:1294px;background:#FFFFFF;" version="1.1" viewBox="0 0 1908 1294" width="1908px" zoomAndPan="magnify"><?plantuml 1.2026.6?><defs/><g><g class="title" data-source-line="1"><text fill="#000000" font-family="sans-serif" font-size="14" font-weight="700" lengthAdjust="spacing" textLength="370.2549" x="765.3726" y="24.5332">Intelligent Text Annotation System (ITAS) - Architecture</text></g><!--cluster TC--><g class="cluster" data-qualified-name="TC" data-source-line="13" id="ent0004"><polygon fill="none" points="16,196.1094,26,186.1094,1883,186.1094,1883,1147.1094,1873,1157.1094,16,1157.1094,16,196.1094" style="stroke:#181818;stroke-width:1;stroke-linejoin:miter;stroke-miterlimit:10;"/><line style="stroke:#181818;stroke-width:1;" x1="1873" x2="1883" y1="196.1094" y2="186.1094"/><line style="stroke:#181818;stroke-width:1;" x1="16" x2="1873" y1="196.1094" y2="196.1094"/><line style="stroke:#181818;stroke-width:1;" x1="1873" x2="1873" y1="196.1094" y2="1157.1094"/><text fill="#000000" font-family="sans-serif" font-size="14" font-weight="700" lengthAdjust="spacing" textLength="97.2207" x="896.8896" y="213.6426">Tencent Cloud</text></g><!--cluster Docker--><g class="cluster" data-qualified-name="TC.Docker" data-source-line="14" id="ent0005"><polygon fill="none" points="40,245.1094,50,235.1094,1859,235.1094,1859,1123.1094,1849,1133.1094,40,1133.1094,40,245.1094" style="stroke:#181818;stroke-width:1;stroke-linejoin:miter;stroke-miterlimit:10;"/><line style="stroke:#181818;stroke-width:1;" x1="1849" x2="1859" y1="245.1094" y2="235.1094"/><line style="stroke:#181818;stroke-width:1;" x1="40" x2="1849" y1="245.1094" y2="245.1094"/><line style="stroke:#181818;stroke-width:1;" x1="1849" x2="1849" y1="245.1094" y2="1133.1094"/><text fill="#000000" font-family="sans-serif" font-size="14" font-weight="700" lengthAdjust="spacing" textLength="213.1377" x="838.9312" y="262.6426">Containerized Runtime (Docker)</text></g><!--cluster Backend--><g class="cluster" data-qualified-name="TC.Docker.Backend" data-source-line="21" id="ent0011"><rect fill="none" height="500" rx="2.5" ry="2.5" style="stroke:#181818;stroke-width:1;" width="1130" x="373" y="601.1094"/><text fill="#000000" font-family="sans-serif" font-size="14" font-weight="700" lengthAdjust="spacing" textLength="99.5791" x="888.2104" y="617.6426">ITAS Back End</text><text fill="#000000" font-family="sans-serif" font-size="14" font-weight="700" lengthAdjust="spacing" textLength="188.9658" x="843.5171" y="635.252">(Spring Boot / Spring Cloud)</text></g><!--cluster AnnotSub--><g class="cluster" data-qualified-name="TC.Docker.Backend.AnnotSub" data-source-line="22" id="ent0012"><rect fill="none" height="107" rx="2.5" ry="2.5" style="stroke:#181818;stroke-width:1;" width="1058" x="413" y="671.1094"/><text fill="#000000" font-family="sans-serif" font-size="14" font-weight="700" lengthAdjust="spacing" textLength="152.4551" x="865.7725" y="687.6426">Annotation Subsystem</text></g><!--cluster MiningSub--><g class="cluster" data-qualified-name="TC.Docker.Backend.MiningSub" data-source-line="31" id="ent0019"><rect fill="none" height="241" rx="2.5" ry="2.5" style="stroke:#181818;stroke-width:1;" width="477" x="819" y="828.1094"/><text fill="#000000" font-family="sans-serif" font-size="14" font-weight="700" lengthAdjust="spacing" textLength="193.6826" x="960.6587" y="844.6426">Intelligent Mining Subsystem</text></g><!--entity Frontend--><g class="entity" data-qualified-name="TC.Docker.Frontend" data-source-line="15" id="ent0006"><rect fill="#F1F1F1" height="55.2188" rx="2.5" ry="2.5" style="stroke:#181818;stroke-width:0.5;" width="200.5371" x="958.5" y="276.1094"/><text fill="#000000" font-family="sans-serif" font-size="14" lengthAdjust="spacing" textLength="90.2754" x="968.5" y="300.6426">Vue Front End</text><text fill="#000000" font-family="sans-serif" font-size="14" lengthAdjust="spacing" textLength="180.5371" x="968.5" y="318.252">(Vue 3 + Ant Design + Axios)</text></g><!--entity Nginx--><g class="entity" data-qualified-name="TC.Docker.Nginx" data-source-line="16" id="ent0007"><rect fill="#F1F1F1" height="37.6094" rx="2.5" ry="2.5" style="stroke:#181818;stroke-width:0.5;" width="151.4893" x="983.5" y="392.1094"/><text fill="#000000" font-family="sans-serif" font-size="14" lengthAdjust="spacing" textLength="131.4893" x="993.5" y="416.6426">Nginx Reverse Proxy</text></g><!--entity APIGW--><g class="entity" data-qualified-name="TC.Docker.APIGW" data-source-line="17" id="ent0008"><rect fill="#F1F1F1" height="55.2188" rx="2.5" ry="2.5" style="stroke:#181818;stroke-width:0.5;" width="280.2852" x="919" y="491.1094"/><text fill="#000000" font-family="sans-serif" font-size="14" lengthAdjust="spacing" textLength="81.7031" x="929" y="515.6426">API Gateway</text><text fill="#000000" font-family="sans-serif" font-size="14" lengthAdjust="spacing" textLength="260.2852" x="929" y="533.252">(Spring Cloud Gateway + Spring Security)</text></g><!--entity Registry--><g class="entity" data-qualified-name="TC.Docker.Registry" data-source-line="18" id="ent0009"><rect fill="#F1F1F1" height="55.2188" rx="2.5" ry="2.5" style="stroke:#181818;stroke-width:0.5;" width="141.3516" x="1527.5" y="864.1094"/><text fill="#000000" font-family="sans-serif" font-size="14" lengthAdjust="spacing" textLength="101.917" x="1537.5" y="888.6426">Service Registry</text><text fill="#000000" font-family="sans-serif" font-size="14" lengthAdjust="spacing" textLength="121.3516" x="1537.5" y="906.252">(Service Discovery)</text></g><!--entity ConfigSrv--><g class="entity" data-qualified-name="TC.Docker.ConfigSrv" data-source-line="19" id="ent0010"><rect fill="#F1F1F1" height="37.6094" rx="2.5" ry="2.5" style="stroke:#181818;stroke-width:0.5;" width="105.5928" x="138" y="872.6094"/><text fill="#000000" font-family="sans-serif" font-size="14" lengthAdjust="spacing" textLength="85.5928" x="148" y="897.1426">Config Server</text></g><!--entity MySQL--><g class="entity" data-qualified-name="TC.Docker.MySQL" data-source-line="38" id="ent0023"><path d="M56,1012.1094 C56,1002.1094 129.8032,1002.1094 129.8032,1002.1094 C129.8032,1002.1094 203.6064,1002.1094 203.6064,1012.1094 L203.6064,1056.3281 C203.6064,1066.3281 129.8032,1066.3281 129.8032,1066.3281 C129.8032,1066.3281 56,1066.3281 56,1056.3281 L56,1012.1094" fill="#F1F1F1" style="stroke:#181818;stroke-width:0.5;"/><path d="M56,1012.1094 C56,1022.1094 129.8032,1022.1094 129.8032,1022.1094 C129.8032,1022.1094 203.6064,1022.1094 203.6064,1012.1094" fill="none" style="stroke:#181818;stroke-width:0.5;"/><text fill="#000000" font-family="sans-serif" font-size="14" lengthAdjust="spacing" textLength="46.6758" x="66" y="1040.6426">MySQL</text><text fill="#000000" font-family="sans-serif" font-size="14" lengthAdjust="spacing" textLength="127.6064" x="66" y="1058.252">(Relational Records)</text></g><!--entity Minio--><g class="entity" data-qualified-name="TC.Docker.Minio" data-source-line="39" id="ent0024"><path d="M1535.9708,1010.8223 C1538.1536,1003.8666 1542.6872,1002.4841 1547.9472,1007.8253 C1551.5571,1001.4598 1556.2684,1001.9147 1560.6341,1006.9869 C1563.5691,1000.5487 1567.7761,999.4586 1572.5056,1005.2439 C1575.0124,999.5024 1579.0983,999.2859 1583.2951,1003.3923 C1585.3318,997.064 1590.2681,995.95 1594.6493,1001.0662 C1598.7423,994.9509 1603.1102,996.6815 1606.3654,1001.93 C1610.3415,997.0829 1615.8248,998.2367 1617.6138,1004.2047 C1622.486,998.7069 1628.6945,999.6565 1630.485,1007.2375 C1634.7915,1002.3219 1638.5863,1002.1668 1641.9279,1008.2421 C1646.5094,1004.0814 1651.2127,1004.7762 1652.8762,1011.2471 C1659.1966,1014.1842 1658.9688,1018.3803 1653.8511,1022.324 C1660.9964,1024.5968 1661.8777,1030.6037 1656.331,1035.3017 C1661.0374,1039.4094 1660.0105,1044.6082 1654.573,1047.2195 C1660.7838,1051.4989 1659.6979,1056.8102 1652.9487,1059.355 C1650.3866,1064.701 1646.4329,1065.7366 1641.7394,1061.9797 C1638.8741,1067.9587 1633.5962,1069.1995 1629.3327,1063.4601 C1626.9163,1070.0717 1621.5676,1069.6905 1617.4019,1065.369 C1614.8857,1071.8384 1610.4093,1072.0697 1606.2996,1066.8875 C1602.733,1071.3089 1598.2755,1072.1472 1595.1201,1066.434 C1590.4853,1072.0724 1585.821,1070.6113 1582.4953,1064.969 C1579.2637,1069.8724 1574.835,1070.4355 1571.7224,1064.8467 C1566.3271,1070.4592 1562.3841,1069.8946 1559.0204,1062.8138 C1555.1144,1067.1673 1550.4947,1066.7102 1548.8709,1060.6001 C1544.4156,1065.8627 1538.9921,1066.1579 1536.1718,1058.9369 C1529.1471,1057.7791 1528.9163,1053.0637 1532.1073,1048.081 C1523.9284,1047.3103 1522.8809,1042.201 1526.0513,1035.8232 C1522.2102,1028.9577 1524.0164,1023.0701 1532.6433,1022.2679 C1527.827,1017.3785 1528.9252,1012.2631 1535.9708,1010.8223" fill="#F1F1F1" style="stroke:#181818;stroke-width:0.5;"/><text fill="#000000" font-family="sans-serif" font-size="14" lengthAdjust="spacing" textLength="33.4551" x="1542.5" y="1031.1426">Minio</text><text fill="#000000" font-family="sans-serif" font-size="14" lengthAdjust="spacing" textLength="102.71" x="1542.5" y="1048.752">(Object Storage)</text></g><!--entity MQ--><g class="entity" data-qualified-name="TC.Docker.MQ" data-source-line="40" id="ent0025"><path d="M244.5,1011.6094 L343.1758,1011.6094 C348.1758,1011.6094 348.1758,1034.2188 348.1758,1034.2188 C348.1758,1034.2188 348.1758,1056.8281 343.1758,1056.8281 L244.5,1056.8281 C239.5,1056.8281 239.5,1034.2188 239.5,1034.2188 C239.5,1034.2188 239.5,1011.6094 244.5,1011.6094" fill="#F1F1F1" style="stroke:#181818;stroke-width:0.5;"/><path d="M343.1758,1011.6094 C338.1758,1011.6094 338.1758,1034.2188 338.1758,1034.2188 C338.1758,1056.8281 343.1758,1056.8281 343.1758,1056.8281" fill="none" style="stroke:#181818;stroke-width:0.5;"/><text fill="#000000" font-family="sans-serif" font-size="14" lengthAdjust="spacing" textLength="63.0205" x="244.5" y="1031.1426">RabbitMQ</text><text fill="#000000" font-family="sans-serif" font-size="14" lengthAdjust="spacing" textLength="88.6758" x="244.5" y="1048.752">(Async Tasks)</text></g><!--entity Redis--><g class="entity" data-qualified-name="TC.Docker.Redis" data-source-line="41" id="ent0026"><path d="M279,869.6094 C279,859.6094 313.8965,859.6094 313.8965,859.6094 C313.8965,859.6094 348.793,859.6094 348.793,869.6094 L348.793,913.8281 C348.793,923.8281 313.8965,923.8281 313.8965,923.8281 C313.8965,923.8281 279,923.8281 279,913.8281 L279,869.6094" fill="#F1F1F1" style="stroke:#181818;stroke-width:0.5;"/><path d="M279,869.6094 C279,879.6094 313.8965,879.6094 313.8965,879.6094 C313.8965,879.6094 348.793,879.6094 348.793,869.6094" fill="none" style="stroke:#181818;stroke-width:0.5;"/><text fill="#000000" font-family="sans-serif" font-size="14" lengthAdjust="spacing" textLength="35.793" x="289" y="898.1426">Redis</text><text fill="#000000" font-family="sans-serif" font-size="14" lengthAdjust="spacing" textLength="49.793" x="289" y="915.752">(Cache)</text></g><!--entity AuthSvc--><g class="entity" data-qualified-name="TC.Docker.Backend.AnnotSub.AuthSvc" data-source-line="23" id="ent0013"><rect fill="#F1F1F1" height="55.2188" rx="2.5" ry="2.5" style="stroke:#181818;stroke-width:0.5;" width="185.7441" x="883" y="707.1094"/><text fill="#000000" font-family="sans-serif" font-size="14" lengthAdjust="spacing" textLength="79.3721" x="893" y="731.6426">Auth Service</text><text fill="#000000" font-family="sans-serif" font-size="14" lengthAdjust="spacing" textLength="165.7441" x="893" y="749.252">(Registration/Login/Profile)</text></g><!--entity ProjectSvc--><g class="entity" data-qualified-name="TC.Docker.Backend.AnnotSub.ProjectSvc" data-source-line="24" id="ent0014"><rect fill="#F1F1F1" height="37.6094" rx="2.5" ry="2.5" style="stroke:#181818;stroke-width:0.5;" width="114.1445" x="429" y="715.6094"/><text fill="#000000" font-family="sans-serif" font-size="14" lengthAdjust="spacing" textLength="94.1445" x="439" y="740.1426">Project Service</text></g><!--entity DocSvc--><g class="entity" data-qualified-name="TC.Docker.Backend.AnnotSub.DocSvc" data-source-line="25" id="ent0015"><rect fill="#F1F1F1" height="37.6094" rx="2.5" ry="2.5" style="stroke:#181818;stroke-width:0.5;" width="134.3789" x="1321" y="715.6094"/><text fill="#000000" font-family="sans-serif" font-size="14" lengthAdjust="spacing" textLength="114.3789" x="1331" y="740.1426">Document Service</text></g><!--entity TagSvc--><g class="entity" data-qualified-name="TC.Docker.Backend.AnnotSub.TagSvc" data-source-line="26" id="ent0016"><rect fill="#F1F1F1" height="37.6094" rx="2.5" ry="2.5" style="stroke:#181818;stroke-width:0.5;" width="132.8408" x="578.5" y="715.6094"/><text fill="#000000" font-family="sans-serif" font-size="14" lengthAdjust="spacing" textLength="112.8408" x="588.5" y="740.1426">Tag/Label Service</text></g><!--entity TaskSvc--><g class="entity" data-qualified-name="TC.Docker.Backend.AnnotSub.TaskSvc" data-source-line="27" id="ent0017"><rect fill="#F1F1F1" height="37.6094" rx="2.5" ry="2.5" style="stroke:#181818;stroke-width:0.5;" width="100.9102" x="746.5" y="715.6094"/><text fill="#000000" font-family="sans-serif" font-size="14" lengthAdjust="spacing" textLength="80.9102" x="756.5" y="740.1426">Task Service</text></g><!--entity ResultSvc--><g class="entity" data-qualified-name="TC.Docker.Backend.AnnotSub.ResultSvc" data-source-line="28" id="ent0018"><rect fill="#F1F1F1" height="55.2188" rx="2.5" ry="2.5" style="stroke:#181818;stroke-width:0.5;" width="181.0889" x="1104.5" y="707.1094"/><text fill="#000000" font-family="sans-serif" font-size="14" lengthAdjust="spacing" textLength="161.0889" x="1114.5" y="731.6426">Annotation Result Service</text><text fill="#000000" font-family="sans-serif" font-size="14" lengthAdjust="spacing" textLength="130.6963" x="1114.5" y="749.252">(Mark/Export/Return)</text></g><!--entity MiningSvc--><g class="entity" data-qualified-name="TC.Docker.Backend.MiningSub.MiningSvc" data-source-line="32" id="ent0020"><rect fill="#F1F1F1" height="55.2188" rx="2.5" ry="2.5" style="stroke:#181818;stroke-width:0.5;" width="243.3301" x="1036.5" y="864.1094"/><text fill="#000000" font-family="sans-serif" font-size="14" lengthAdjust="spacing" textLength="91.8135" x="1046.5" y="888.6426">Mining Service</text><text fill="#000000" font-family="sans-serif" font-size="14" lengthAdjust="spacing" textLength="223.3301" x="1046.5" y="906.252">(Upload/Model Selection/Extraction)</text></g><!--entity ConvWorker--><g class="entity" data-qualified-name="TC.Docker.Backend.MiningSub.ConvWorker" data-source-line="33" id="ent0021"><rect fill="#F1F1F1" height="37.6094" rx="2.5" ry="2.5" style="stroke:#181818;stroke-width:0.5;" width="166.2617" x="835" y="872.6094"/><text fill="#000000" font-family="sans-serif" font-size="14" lengthAdjust="spacing" textLength="146.2617" x="845" y="897.1426">File Conversion Worker</text></g><!--entity ModelMgr--><g class="entity" data-qualified-name="TC.Docker.Backend.MiningSub.ModelMgr" data-source-line="34" id="ent0022"><rect fill="#F1F1F1" height="37.6094" rx="2.5" ry="2.5" style="stroke:#181818;stroke-width:0.5;" width="117.2754" x="1099.5" y="1015.1094"/><text fill="#000000" font-family="sans-serif" font-size="14" lengthAdjust="spacing" textLength="97.2754" x="1109.5" y="1039.6426">Model Manager</text></g><!--entity Admin--><g class="entity" data-qualified-name="Admin" data-source-line="8" id="ent0001"><ellipse cx="933.7549" cy="52.6094" fill="#F1F1F1" rx="8" ry="8" style="stroke:#181818;stroke-width:0.5;"/><path d="M933.7549,60.6094 L933.7549,87.6094 M920.7549,68.6094 L946.7549,68.6094 M933.7549,87.6094 L920.7549,102.6094 M933.7549,87.6094 L946.7549,102.6094" fill="none" style="stroke:#181818;stroke-width:0.5;"/><text fill="#000000" font-family="sans-serif" font-size="14" lengthAdjust="spacing" textLength="117.5098" x="875" y="118.6426">System Annotation</text><text fill="#000000" font-family="sans-serif" font-size="14" lengthAdjust="spacing" textLength="82.4688" x="875" y="136.252">Administrator</text></g><!--entity Annotator--><g class="entity" data-qualified-name="Annotator" data-source-line="9" id="ent0002"><ellipse cx="1058.855" cy="52.6094" fill="#F1F1F1" rx="8" ry="8" style="stroke:#181818;stroke-width:0.5;"/><path d="M1058.855,60.6094 L1058.855,87.6094 M1045.855,68.6094 L1071.855,68.6094 M1058.855,87.6094 L1045.855,102.6094 M1058.855,87.6094 L1071.855,102.6094" fill="none" style="stroke:#181818;stroke-width:0.5;"/><text fill="#000000" font-family="sans-serif" font-size="14" lengthAdjust="spacing" textLength="29.5723" x="1028.5" y="118.6426">Data</text><text fill="#000000" font-family="sans-serif" font-size="14" lengthAdjust="spacing" textLength="60.71" x="1028.5" y="136.252">Annotator</text></g><!--entity Researcher--><g class="entity" data-qualified-name="Researcher" data-source-line="10" id="ent0003"><ellipse cx="1161.1826" cy="61.1094" fill="#F1F1F1" rx="8" ry="8" style="stroke:#181818;stroke-width:0.5;"/><path d="M1161.1826,69.1094 L1161.1826,96.1094 M1148.1826,77.1094 L1174.1826,77.1094 M1161.1826,96.1094 L1148.1826,111.1094 M1161.1826,96.1094 L1174.1826,111.1094" fill="none" style="stroke:#181818;stroke-width:0.5;"/><text fill="#000000" font-family="sans-serif" font-size="14" lengthAdjust="spacing" textLength="72.3652" x="1125" y="127.1426">Researcher</text></g><!--entity GPT--><g class="entity" data-qualified-name="GPT" data-source-line="45" id="ent0027"><path d="M938.0784,1233.923 C942.7017,1226.2722 948.8515,1226.1616 953.8825,1233.4929 C958.9763,1225.7963 964.129,1224.7109 969.9845,1232.7116 C973.246,1222.4566 981.7064,1223.0809 987.4958,1230.1576 C992.8538,1221.9084 997.4425,1223.0997 1002.653,1230.3022 C1006.1493,1222.8392 1012.8592,1223.5116 1017.3446,1229.197 C1022.016,1221.5019 1030.0799,1221.8539 1035.0116,1228.8847 C1037.426,1221.7467 1044.5345,1219.0629 1049.8593,1225.7618 C1055.1565,1218.3323 1062.2146,1220.2342 1065.6573,1227.7253 C1071.3136,1220.6048 1078.9276,1219.7934 1083.429,1228.9836 C1088.4677,1221.8656 1094.3952,1221.2447 1098.9509,1229.4721 C1105.0569,1222.6363 1110.5069,1223.9347 1115.2409,1231.0717 C1120.8337,1223.745 1126.926,1223.6688 1131.6794,1231.9554 C1137.0373,1224.6385 1142.1334,1226.5942 1146.3579,1233.1542 C1152.2338,1225.0655 1157.8976,1226.2411 1162.6135,1234.3204 C1174.6778,1232.8141 1178.0154,1241.0306 1173.763,1250.6589 C1177.1375,1260.8885 1173.331,1268.6079 1161.2715,1267.1384 C1155.9064,1274.5496 1148.948,1273.6911 1145.8045,1265.0039 C1142.7507,1273.7462 1136.3059,1273.7846 1130.2749,1268.2401 C1125.2073,1275.9136 1118.3458,1276.1584 1113.529,1267.9752 C1110.3456,1273.9842 1104.2824,1276.7548 1099.6077,1269.5458 C1094.9055,1276.6957 1086.4324,1278.5439 1082.0147,1269.2415 C1078.747,1277.6935 1070.7369,1279.0795 1065.6431,1271.0561 C1061.5324,1277.3028 1054.428,1277.8269 1051.3149,1270.0377 C1045.0259,1276.8993 1039.7065,1278.1433 1034.5007,1268.9064 C1028.9451,1275.9483 1023.3874,1277.5289 1017.4149,1269.3752 C1012.8708,1275.5355 1005.834,1275.6652 1002.5194,1268.0461 C998.0727,1276.1988 991.2613,1274.3561 987.0507,1267.7978 C981.4605,1276.2836 974.4445,1274.6144 970.3153,1266.339 C965.0101,1273.23 960.3559,1271.6834 955.8763,1265.432 C950.9899,1273.174 944.0804,1272.3186 939.4156,1265.1868 C929.952,1263.659 925.8469,1258.3491 932.1229,1249.5027 C926.0278,1241.5254 929.1499,1236.1573 938.0784,1233.923" fill="#F1F1F1" style="stroke:#181818;stroke-width:0.5;"/><text fill="#000000" font-family="sans-serif" font-size="14" lengthAdjust="spacing" textLength="209.2891" x="944.5" y="1254.1426">GPT API / ChatGPT-like Interface</text></g><!--entity BERT--><g class="entity" data-qualified-name="BERT" data-source-line="46" id="ent0028"><rect fill="#F1F1F1" height="55.2188" rx="2.5" ry="2.5" style="stroke:#181818;stroke-width:0.5;" width="127.3994" x="1203.5" y="1221.1094"/><text fill="#000000" font-family="sans-serif" font-size="14" lengthAdjust="spacing" textLength="107.3994" x="1213.5" y="1245.6426">Paragraph Model</text><text fill="#000000" font-family="sans-serif" font-size="14" lengthAdjust="spacing" textLength="46.6621" x="1213.5" y="1263.252">(BERT)</text></g><!--link Admin to Frontend--><g class="link" data-entity-1="ent0001" data-entity-2="ent0006" data-link-type="dependency" data-source-line="49" id="lnk29"><path d="M961.74,139.2194 C986.77,181.2694 1020.1528,237.3428 1040.6028,271.7028" fill="none" id="Admin-to-Frontend" style="stroke:#181818;stroke-width:1;"/><polygon fill="#181818" points="1043.16,275.9994,1041.9943,266.2197,1040.6028,271.7028,1035.1198,270.3113,1043.16,275.9994" style="stroke:#181818;stroke-width:1;stroke-linejoin:miter;stroke-miterlimit:10;"/></g><!--link Annotator to Frontend--><g class="link" data-entity-1="ent0002" data-entity-2="ent0006" data-link-type="dependency" data-source-line="50" id="lnk30"><path d="M1059,139.2194 C1059,181.2694 1059,236.6394 1059,270.9994" fill="none" id="Annotator-to-Frontend" style="stroke:#181818;stroke-width:1;"/><polygon fill="#181818" points="1059,275.9994,1063,266.9994,1059,270.9994,1055,266.9994,1059,275.9994" style="stroke:#181818;stroke-width:1;stroke-linejoin:miter;stroke-miterlimit:10;"/></g><!--link Researcher to Frontend--><g class="link" data-entity-1="ent0003" data-entity-2="ent0006" data-link-type="dependency" data-source-line="51" id="lnk31"><path d="M1142.53,130.6394 C1122.15,172.5994 1092.0541,234.5516 1074.1841,271.3516" fill="none" id="Researcher-to-Frontend" style="stroke:#181818;stroke-width:1;"/><polygon fill="#181818" points="1072,275.8494,1079.5296,269.5007,1074.1841,271.3516,1072.3332,266.0062,1072,275.8494" style="stroke:#181818;stroke-width:1;stroke-linejoin:miter;stroke-miterlimit:10;"/></g><!--link Frontend to Nginx--><g class="link" data-entity-1="ent0006" data-entity-2="ent0007" data-link-type="dependency" data-source-line="53" id="lnk32"><path d="M1059,331.2294 C1059,350.1594 1059,370.0794 1059,386.7994" fill="none" id="Frontend-to-Nginx" style="stroke:#181818;stroke-width:1;"/><polygon fill="#181818" points="1059,391.7994,1063,382.7994,1059,386.7994,1055,382.7994,1059,391.7994" style="stroke:#181818;stroke-width:1;stroke-linejoin:miter;stroke-miterlimit:10;"/></g><!--link Nginx to APIGW--><g class="link" data-entity-1="ent0007" data-entity-2="ent0008" data-link-type="dependency" data-source-line="54" id="lnk33"><path d="M1059,430.4894 C1059,447.1294 1059,466.8694 1059,485.7394" fill="none" id="Nginx-to-APIGW" style="stroke:#181818;stroke-width:1;"/><polygon fill="#181818" points="1059,490.7394,1063,481.7394,1059,485.7394,1055,481.7394,1059,490.7394" style="stroke:#181818;stroke-width:1;stroke-linejoin:miter;stroke-miterlimit:10;"/></g><!--link APIGW to AuthSvc--><g class="link" data-entity-1="ent0008" data-entity-2="ent0013" data-link-type="dependency" data-source-line="56" id="lnk34"><path d="M1048.66,546.2794 C1032.71,587.3994 1004.0982,661.1578 988.1482,702.2778" fill="none" id="APIGW-to-AuthSvc" style="stroke:#181818;stroke-width:1;"/><polygon fill="#181818" points="986.34,706.9394,993.324,699.995,988.1482,702.2778,985.8655,697.102,986.34,706.9394" style="stroke:#181818;stroke-width:1;stroke-linejoin:miter;stroke-miterlimit:10;"/></g><!--link APIGW to ProjectSvc--><g class="link" data-entity-1="ent0008" data-entity-2="ent0014" data-link-type="dependency" data-source-line="57" id="lnk35"><path d="M918.83,523.6194 C792.05,529.7894 616.92,545.4394 561,585.1094 C516.24,616.8594 497.6958,678.3987 490.5458,710.5387" fill="none" id="APIGW-to-ProjectSvc" style="stroke:#181818;stroke-width:1;"/><polygon fill="#181818" points="489.46,715.4194,495.3189,707.5028,490.5458,710.5387,487.5099,705.7655,489.46,715.4194" style="stroke:#181818;stroke-width:1;stroke-linejoin:miter;stroke-miterlimit:10;"/></g><!--link APIGW to DocSvc--><g class="link" data-entity-1="ent0008" data-entity-2="ent0015" data-link-type="dependency" data-source-line="58" id="lnk36"><path d="M1199.05,537.3594 C1235.57,547.0494 1273.04,562.0194 1303,585.1094 C1347.47,619.3794 1371.0807,679.229 1381.1907,710.699" fill="none" id="APIGW-to-DocSvc" style="stroke:#181818;stroke-width:1;"/><polygon fill="#181818" points="1382.72,715.4594,1383.7755,705.6672,1381.1907,710.699,1376.1589,708.1141,1382.72,715.4594" style="stroke:#181818;stroke-width:1;stroke-linejoin:miter;stroke-miterlimit:10;"/></g><!--link APIGW to TagSvc--><g class="link" data-entity-1="ent0008" data-entity-2="ent0016" data-link-type="dependency" data-source-line="59" id="lnk37"><path d="M918.91,535.6194 C843.41,546.5094 759.59,562.9894 729,585.1094 C683.51,617.9994 660.7682,678.7777 651.2782,710.6177" fill="none" id="APIGW-to-TagSvc" style="stroke:#181818;stroke-width:1;"/><polygon fill="#181818" points="649.85,715.4094,656.2541,707.9269,651.2782,710.6177,648.5874,705.6418,649.85,715.4094" style="stroke:#181818;stroke-width:1;stroke-linejoin:miter;stroke-miterlimit:10;"/></g><!--link APIGW to TaskSvc--><g class="link" data-entity-1="ent0008" data-entity-2="ent0017" data-link-type="dependency" data-source-line="60" id="lnk38"><path d="M932.34,546.1994 C908.36,555.5494 884.89,568.1494 866,585.1094 C826.23,620.8094 808.7655,679.2831 801.7055,710.4231" fill="none" id="APIGW-to-TaskSvc" style="stroke:#181818;stroke-width:1;"/><polygon fill="#181818" points="800.6,715.2994,806.491,707.4066,801.7055,710.4231,798.689,705.6377,800.6,715.2994" style="stroke:#181818;stroke-width:1;stroke-linejoin:miter;stroke-miterlimit:10;"/></g><!--link APIGW to ResultSvc--><g class="link" data-entity-1="ent0008" data-entity-2="ent0018" data-link-type="dependency" data-source-line="61" id="lnk39"><path d="M1075.95,546.2794 C1102.08,587.3994 1149.2383,661.5993 1175.3683,702.7193" fill="none" id="APIGW-to-ResultSvc" style="stroke:#181818;stroke-width:1;"/><polygon fill="#181818" points="1178.05,706.9394,1176.5991,697.198,1175.3683,702.7193,1169.847,701.4886,1178.05,706.9394" style="stroke:#181818;stroke-width:1;stroke-linejoin:miter;stroke-miterlimit:10;"/></g><!--link APIGW to MiningSvc--><g class="link" data-entity-1="ent0008" data-entity-2="ent0020" data-link-type="dependency" data-source-line="62" id="lnk40"><path d="M1199.21,525.0094 C1303.04,532.0194 1432.84,548.1294 1471,585.1094 C1538.92,650.9294 1502.07,699.9594 1511,794.1094 C1511.76,802.0694 1516.56,806.3494 1511,812.1094 C1502.24,821.1894 1296.15,816.7094 1284,820.1094 C1251.65,829.1594 1222.8206,845.2915 1198.7006,861.2415" fill="none" id="APIGW-to-MiningSvc" style="stroke:#181818;stroke-width:1;"/><polygon fill="#181818" points="1194.53,863.9994,1204.2434,862.3716,1198.7006,861.2415,1199.8307,855.6986,1194.53,863.9994" style="stroke:#181818;stroke-width:1;stroke-linejoin:miter;stroke-miterlimit:10;"/></g><!--link Backend to Registry--><g class="link" data-entity-1="ent0011" data-entity-2="ent0009" data-link-type="dependency" data-source-line="65" id="lnk41"><path d="M1503.4386,836.6275 C1503.6497,836.7309 1503.8606,836.8344 1504.0713,836.9378 C1504.4928,837.1448 1504.9133,837.3518 1505.3331,837.5588 C1507.012,838.387 1508.6772,839.2157 1510.328,840.0442 C1513.6296,841.701 1516.8733,843.3567 1520.0527,845.0044 C1532.77,851.595 1540.1235,855.5635 1550.366,861.456" fill="none" id="Backend-to-Registry" style="stroke:#181818;stroke-width:1;stroke-dasharray:7,7;"/><polygon fill="#181818" points="1554.7,863.9494,1548.8935,855.9942,1550.366,861.456,1544.9042,862.9286,1554.7,863.9494" style="stroke:#181818;stroke-width:1;stroke-linejoin:miter;stroke-miterlimit:10;"/><text fill="#000000" font-family="sans-serif" font-size="13" lengthAdjust="spacing" textLength="101.8672" x="1444" y="808.6045">register/discovery</text></g><!--link APIGW to Registry--><g class="link" data-entity-1="ent0008" data-entity-2="ent0009" data-link-type="dependency" data-source-line="66" id="lnk42"><path d="M1199.27,523.0494 C1312.2,528.8694 1458.83,544.3194 1501,585.1094 C1580.8,662.2894 1594.9237,799.7136 1597.3637,858.8136" fill="none" id="APIGW-to-Registry" style="stroke:#181818;stroke-width:1;stroke-dasharray:7,7;"/><polygon fill="#181818" points="1597.57,863.8094,1601.1953,854.652,1597.3637,858.8136,1593.2021,854.982,1597.57,863.8094" style="stroke:#181818;stroke-width:1;stroke-linejoin:miter;stroke-miterlimit:10;"/><text fill="#000000" font-family="sans-serif" font-size="13" lengthAdjust="spacing" textLength="83.0972" x="1590" y="740.1045">service lookup</text></g><!--link Backend to ConfigSrv--><g class="link" data-entity-1="ent0011" data-entity-2="ent0010" data-link-type="dependency" data-source-line="67" id="lnk43"><path d="M372.8469,737.3906 C372.7416,737.4153 372.6354,737.4402 372.5282,737.4654 C372.3139,737.5159 372.096,737.5674 371.8746,737.62 C370.103,738.0406 368.1046,738.5297 365.9072,739.0898 C357.1175,741.3303 345.1437,744.7063 331.77,749.3731 C305.0225,758.7069 272.675,773.2044 249,794.1094 C224.24,815.9794 208.8232,846.4182 199.8932,867.7182" fill="none" id="Backend-to-ConfigSrv" style="stroke:#181818;stroke-width:1;stroke-dasharray:7,7;"/><polygon fill="#181818" points="197.96,872.3294,205.1287,865.5759,199.8932,867.7182,197.7509,862.4827,197.96,872.3294" style="stroke:#181818;stroke-width:1;stroke-linejoin:miter;stroke-miterlimit:10;"/><text fill="#000000" font-family="sans-serif" font-size="13" lengthAdjust="spacing" textLength="74.439" x="250" y="808.6045">configuration</text></g><!--link AuthSvc to MySQL--><g class="link" data-entity-1="ent0013" data-entity-2="ent0023" data-link-type="dependency" data-source-line="70" id="lnk44"><path d="M928.86,762.1094 C909.66,771.5394 886.87,781.0694 865,786.1094 C831.86,793.7494 589.14,778.3394 559,794.1094 C495.75,827.1994 518.26,877.2294 464,923.6094 C428.64,953.8294 414.89,956.1994 371,971.6094 C307.26,993.9794 287.21,983.9594 222,1001.6094 C216.13,1003.1994 214.8786,1003.4878 208.8386,1005.3478" fill="none" id="AuthSvc-to-MySQL" style="stroke:#181818;stroke-width:1;"/><polygon fill="#181818" points="204.06,1006.8194,213.8386,1007.9934,208.8386,1005.3478,211.4842,1000.3478,204.06,1006.8194" style="stroke:#181818;stroke-width:1;stroke-linejoin:miter;stroke-miterlimit:10;"/></g><!--link ProjectSvc to MySQL--><g class="link" data-entity-1="ent0014" data-entity-2="ent0023" data-link-type="dependency" data-source-line="71" id="lnk45"><path d="M464.33,753.6994 C452.71,763.3594 438.12,775.4394 425,786.1094 C420.59,789.6994 418.33,789.4994 415,794.1094 C379.06,843.8694 408.68,878.5494 367,923.6094 C343.65,948.8594 269.3644,980.8483 208.9444,1004.1783" fill="none" id="ProjectSvc-to-MySQL" style="stroke:#181818;stroke-width:1;"/><polygon fill="#181818" points="204.28,1005.9794,214.1167,1006.469,208.9444,1004.1783,211.235,999.006,204.28,1005.9794" style="stroke:#181818;stroke-width:1;stroke-linejoin:miter;stroke-miterlimit:10;"/></g><!--link DocSvc to MySQL--><g class="link" data-entity-1="ent0015" data-entity-2="ent0023" data-link-type="dependency" data-source-line="72" id="lnk46"><path d="M1365,753.8094 C1348.72,765.5094 1325.8,779.6794 1303,786.1094 C1240.33,803.7794 781.09,782.5894 717,794.1094 C683.1,800.1994 673.04,801.5994 644,820.1094 C589.54,854.8194 594.84,886.4794 542,923.6094 C500.35,952.8794 486.85,957.2894 438,971.6094 C344.99,998.8794 316.28,979.1394 222,1001.6094 C216.17,1002.9994 214.9909,1003.2125 209.0109,1004.9525" fill="none" id="DocSvc-to-MySQL" style="stroke:#181818;stroke-width:1;"/><polygon fill="#181818" points="204.21,1006.3494,213.9692,1007.6756,209.0109,1004.9525,211.7341,999.9942,204.21,1006.3494" style="stroke:#181818;stroke-width:1;stroke-linejoin:miter;stroke-miterlimit:10;"/></g><!--link TagSvc to MySQL--><g class="link" data-entity-1="ent0016" data-entity-2="ent0023" data-link-type="dependency" data-source-line="73" id="lnk47"><path d="M621.44,753.7694 C605.33,765.1394 583,778.9394 561,786.1094 C541.91,792.3294 488.06,783.5194 471,794.1094 C413.73,829.6794 439.72,875.9794 392,923.6094 C362.92,952.6294 350.31,954.3994 313,971.6094 C274.33,989.4494 262.37,988.0494 222,1001.6094 C216.24,1003.5494 215.0155,1003.9545 209.0255,1005.9845" fill="none" id="TagSvc-to-MySQL" style="stroke:#181818;stroke-width:1;"/><polygon fill="#181818" points="204.29,1007.5894,214.0977,1008.489,209.0255,1005.9845,211.5299,1000.9123,204.29,1007.5894" style="stroke:#181818;stroke-width:1;stroke-linejoin:miter;stroke-miterlimit:10;"/></g><!--link TaskSvc to MySQL--><g class="link" data-entity-1="ent0017" data-entity-2="ent0023" data-link-type="dependency" data-source-line="74" id="lnk48"><path d="M779.18,753.6094 C766.41,765.2294 748.14,779.3794 729,786.1094 C706.76,793.9294 537.71,782.8494 517,794.1094 C455.2,827.7094 478.13,876.3794 426,923.6094 C393.85,952.7394 381.28,955.4994 341,971.6094 C290.36,991.8694 274.29,986.0994 222,1001.6094 C216.17,1003.3394 214.932,1003.6752 208.902,1005.6052" fill="none" id="TaskSvc-to-MySQL" style="stroke:#181818;stroke-width:1;"/><polygon fill="#181818" points="204.14,1007.1294,213.931,1008.1955,208.902,1005.6052,211.4923,1000.5763,204.14,1007.1294" style="stroke:#181818;stroke-width:1;stroke-linejoin:miter;stroke-miterlimit:10;"/></g><!--link ResultSvc to MySQL--><g class="link" data-entity-1="ent0018" data-entity-2="ent0023" data-link-type="dependency" data-source-line="75" id="lnk49"><path d="M1149.23,762.2194 C1130.57,771.6694 1108.38,781.1694 1087,786.1094 C1060.53,792.2194 622.14,781.6294 598,794.1094 C534.59,826.8894 557.93,878.0194 503,923.6094 C465.06,955.0894 450.01,956.7594 403,971.6094 C325.24,996.1694 301.07,981.6694 222,1001.6094 C216.19,1003.0794 215.0116,1003.3107 209.0416,1005.0907" fill="none" id="ResultSvc-to-MySQL" style="stroke:#181818;stroke-width:1;"/><polygon fill="#181818" points="204.25,1006.5194,214.0177,1007.7811,209.0416,1005.0907,211.7319,1000.1146,204.25,1006.5194" style="stroke:#181818;stroke-width:1;stroke-linejoin:miter;stroke-miterlimit:10;"/></g><!--link MiningSvc to MySQL--><g class="link" data-entity-1="ent0020" data-entity-2="ent0023" data-link-type="dependency" data-source-line="76" id="lnk50"><path d="M1041.31,919.1794 C1033.77,920.7294 1026.29,922.2194 1019,923.6094 C935.45,939.5394 906.29,916.0094 830,953.6094 C819.57,958.7494 821.69,967.0294 811,971.6094 C690.52,1023.2094 350.69,976.8094 222,1001.6094 C216.11,1002.7394 214.9192,1002.8735 208.9192,1004.4835" fill="none" id="MiningSvc-to-MySQL" style="stroke:#181818;stroke-width:1;"/><polygon fill="#181818" points="204.09,1005.7794,213.8192,1007.3102,208.9192,1004.4835,211.7458,999.5836,204.09,1005.7794" style="stroke:#181818;stroke-width:1;stroke-linejoin:miter;stroke-miterlimit:10;"/></g><!--link DocSvc to Minio--><g class="link" data-entity-1="ent0015" data-entity-2="ent0024" data-link-type="dependency" data-source-line="78" id="lnk51"><path d="M1407.9,753.6694 C1421.35,764.8394 1440.06,778.4694 1459,786.1094 C1506.3,805.1894 1652.71,781.4594 1686,820.1094 C1716.02,854.9594 1701.75,880.3894 1686,923.6094 C1675.04,953.7094 1655.3339,977.7726 1634.9439,997.7226" fill="none" id="DocSvc-to-Minio" style="stroke:#181818;stroke-width:1;"/><polygon fill="#181818" points="1631.37,1001.2194,1640.6004,997.7843,1634.9439,997.7226,1635.0056,992.0661,1631.37,1001.2194" style="stroke:#181818;stroke-width:1;stroke-linejoin:miter;stroke-miterlimit:10;"/><text fill="#000000" font-family="sans-serif" font-size="13" lengthAdjust="spacing" textLength="102.5908" x="1704" y="889.1045">store/retrieve files</text><text fill="#000000" font-family="sans-serif" font-size="13" lengthAdjust="spacing" textLength="101.8228" x="1704.384" y="905.4561">(PDF/HTML/TXT)</text></g><!--link MiningSvc to Minio--><g class="link" data-entity-1="ent0020" data-entity-2="ent0024" data-link-type="dependency" data-source-line="79" id="lnk52"><path d="M1263.75,919.1694 C1270.59,920.7194 1277.39,922.2094 1284,923.6094 C1359.07,939.4494 1381.81,927.6194 1454,953.6094 C1487,965.4894 1517.0703,982.163 1543.4503,998.793" fill="none" id="MiningSvc-to-Minio" style="stroke:#181818;stroke-width:1;"/><polygon fill="#181818" points="1547.68,1001.4594,1542.1997,993.2761,1543.4503,998.793,1537.9334,1000.0436,1547.68,1001.4594" style="stroke:#181818;stroke-width:1;stroke-linejoin:miter;stroke-miterlimit:10;"/><text fill="#000000" font-family="sans-serif" font-size="13" lengthAdjust="spacing" textLength="127.8926" x="1495" y="968.1045">access converted files</text></g><!--link Backend to Redis--><g class="link" data-entity-1="ent0011" data-entity-2="ent0026" data-link-type="dependency" data-source-line="81" id="lnk53"><path d="M372.9417,745.2292 C372.7336,745.4879 372.5225,745.751 372.3086,746.0183 C371.881,746.553 371.4422,747.1046 370.9935,747.6724 C369.1985,749.9434 367.2441,752.4722 365.2012,755.2031 C357.03,766.1269 347.445,780.2844 341,794.1094 C331.3,814.9194 325.5244,835.0529 321.1444,854.3929" fill="none" id="Backend-to-Redis" style="stroke:#181818;stroke-width:1;"/><polygon fill="#181818" points="320.04,859.2694,325.9291,851.3752,321.1444,854.3929,318.1267,849.6081,320.04,859.2694" style="stroke:#181818;stroke-width:1;stroke-linejoin:miter;stroke-miterlimit:10;"/><text fill="#000000" font-family="sans-serif" font-size="13" lengthAdjust="spacing" textLength="34.6899" x="342" y="808.6045">cache</text></g><!--link DocSvc to MQ--><g class="link" data-entity-1="ent0015" data-entity-2="ent0025" data-link-type="dependency" data-source-line="84" id="lnk54"><path d="M1364.57,753.7894 C1348.27,765.3194 1325.51,779.3094 1303,786.1094 C1269.56,796.2194 1180.88,792.1894 1146,794.1094 C1048.42,799.4894 790.59,769.4894 707,820.1094 C639.81,860.7994 680.41,926.6594 616,971.6094 C573.53,1001.2494 433.6737,1019.317 353.4937,1027.577" fill="none" id="DocSvc-to-MQ" style="stroke:#181818;stroke-width:1;"/><polygon fill="#181818" points="348.52,1028.0894,357.8825,1031.146,353.4937,1027.577,357.0627,1023.1882,348.52,1028.0894" style="stroke:#181818;stroke-width:1;stroke-linejoin:miter;stroke-miterlimit:10;"/><text fill="#000000" font-family="sans-serif" font-size="13" lengthAdjust="spacing" textLength="110.5571" x="708" y="897.1045">file conversion jobs</text></g><!--link MiningSvc to MQ--><g class="link" data-entity-1="ent0020" data-entity-2="ent0025" data-link-type="dependency" data-source-line="85" id="lnk55"><path d="M1082.84,919.1194 C1054.25,929.4894 1021.48,941.7394 992,953.6094 C973.54,961.0494 970.26,966.6194 951,971.6094 C733.08,1028.0694 467.61,1034.1003 353.66,1033.8503" fill="none" id="MiningSvc-to-MQ" style="stroke:#181818;stroke-width:1;"/><polygon fill="#181818" points="348.66,1033.8394,357.6512,1037.8591,353.66,1033.8503,357.6688,1029.8591,348.66,1033.8394" style="stroke:#181818;stroke-width:1;stroke-linejoin:miter;stroke-miterlimit:10;"/><text fill="#000000" font-family="sans-serif" font-size="13" lengthAdjust="spacing" textLength="156.8062" x="993" y="968.1045">conversion/processing jobs</text></g><!--reverse link ConvWorker to MQ--><g class="link" data-entity-1="ent0021" data-entity-2="ent0025" data-link-type="dependency" data-source-line="86" id="lnk56"><path d="M899.7461,914.6223 C883.2661,933.3423 858.21,957.8594 827,971.6094 C742.18,1008.9694 467.16,1025.4094 348.89,1030.8794" fill="none" id="ConvWorker-backto-MQ" style="stroke:#181818;stroke-width:1;"/><polygon fill="#181818" points="903.05,910.8694,894.1007,914.9816,899.7461,914.6223,900.1054,920.2677,903.05,910.8694" style="stroke:#181818;stroke-width:1;stroke-linejoin:miter;stroke-miterlimit:10;"/><text fill="#000000" font-family="sans-serif" font-size="13" lengthAdjust="spacing" textLength="86.709" x="856" y="968.1045">consumes jobs</text></g><!--link ConvWorker to Minio--><g class="link" data-entity-1="ent0021" data-entity-2="ent0024" data-link-type="dependency" data-source-line="87" id="lnk57"><path d="M973,910.6894 C987.84,915.2394 1003.96,919.8794 1019,923.6094 C1115.05,947.4194 1392.8069,997.4961 1522.5769,1020.5161" fill="none" id="ConvWorker-to-Minio" style="stroke:#181818;stroke-width:1;"/><polygon fill="#181818" points="1527.5,1021.3894,1519.337,1015.8789,1522.5769,1020.5161,1517.9397,1023.7559,1527.5,1021.3894" style="stroke:#181818;stroke-width:1;stroke-linejoin:miter;stroke-miterlimit:10;"/><text fill="#000000" font-family="sans-serif" font-size="13" lengthAdjust="spacing" textLength="137.2744" x="1245" y="968.1045">write converted artifacts</text></g><!--link ConvWorker to MySQL--><g class="link" data-entity-1="ent0021" data-entity-2="ent0023" data-link-type="dependency" data-source-line="88" id="lnk58"><path d="M870.48,910.7294 C857.76,915.2494 843.94,919.8794 831,923.6094 C783.97,937.1794 664.42,964.3994 616,971.6094 C442.3,997.4794 394.01,966.2094 222,1001.6094 C216.13,1002.8194 214.941,1002.9736 208.941,1004.6236" fill="none" id="ConvWorker-to-MySQL" style="stroke:#181818;stroke-width:1;"/><polygon fill="#181818" points="204.12,1005.9494,213.8585,1007.4198,208.941,1004.6236,211.7372,999.7061,204.12,1005.9494" style="stroke:#181818;stroke-width:1;stroke-linejoin:miter;stroke-miterlimit:10;"/><text fill="#000000" font-family="sans-serif" font-size="13" lengthAdjust="spacing" textLength="97.5762" x="705" y="968.1045">update metadata</text></g><!--link MiningSvc to ModelMgr--><g class="link" data-entity-1="ent0020" data-entity-2="ent0022" data-link-type="dependency" data-source-line="91" id="lnk59"><path d="M1158,919.3694 C1158,947.3894 1158,985.6394 1158,1009.9394" fill="none" id="MiningSvc-to-ModelMgr" style="stroke:#181818;stroke-width:1;"/><polygon fill="#181818" points="1158,1014.9394,1162,1005.9394,1158,1009.9394,1154,1005.9394,1158,1014.9394" style="stroke:#181818;stroke-width:1;stroke-linejoin:miter;stroke-miterlimit:10;"/></g><!--link ModelMgr to BERT--><g class="link" data-entity-1="ent0022" data-entity-2="ent0028" data-link-type="dependency" data-source-line="92" id="lnk60"><path d="M1166.44,1053.3594 C1178.23,1078.6594 1200.5,1125.7294 1221,1165.1094 C1230.84,1184.0194 1240.078,1200.6532 1249.218,1216.7232" fill="none" id="ModelMgr-to-BERT" style="stroke:#181818;stroke-width:1;"/><polygon fill="#181818" points="1251.69,1221.0694,1250.7174,1211.2687,1249.218,1216.7232,1243.7635,1215.2238,1251.69,1221.0694" style="stroke:#181818;stroke-width:1;stroke-linejoin:miter;stroke-miterlimit:10;"/><text fill="#000000" font-family="sans-serif" font-size="13" lengthAdjust="spacing" textLength="127.1943" x="1235" y="1187.6045">paragraph localization</text></g><!--link ModelMgr to GPT--><g class="link" data-entity-1="ent0022" data-entity-2="ent0027" data-link-type="dependency" data-source-line="93" id="lnk61"><path d="M1154.64,1053.4494 C1148.41,1081.9994 1132.23,1136.7494 1096,1165.1094 C1082.07,1176.0194 1068.9,1160.0194 1057,1173.1094 C1044.58,1186.7794 1043.0168,1203.23 1044.5068,1219.6" fill="none" id="ModelMgr-to-GPT" style="stroke:#181818;stroke-width:1;"/><polygon fill="#181818" points="1044.96,1224.5794,1048.1277,1215.2538,1044.5068,1219.6,1040.1607,1215.979,1044.96,1224.5794" style="stroke:#181818;stroke-width:1;stroke-linejoin:miter;stroke-miterlimit:10;"/><text fill="#000000" font-family="sans-serif" font-size="13" lengthAdjust="spacing" textLength="158.2534" x="1058" y="1187.6045">entity recognition/extraction</text></g><!--link ResultSvc to MiningSvc--><g class="link" data-entity-1="ent0018" data-entity-2="ent0020" data-link-type="dependency" data-source-line="96" id="lnk62"><path d="M1173.66,762.3194 C1167.34,771.7994 1161.24,782.9094 1158,794.1094 C1151.38,816.9594 1151.6047,839.174 1153.5647,858.864" fill="none" id="ResultSvc-to-MiningSvc" style="stroke:#181818;stroke-width:1;"/><polygon fill="#181818" points="1154.06,863.8394,1157.1488,854.4874,1153.5647,858.864,1149.1882,855.2798,1154.06,863.8394" style="stroke:#181818;stroke-width:1;stroke-linejoin:miter;stroke-miterlimit:10;"/><text fill="#000000" font-family="sans-serif" font-size="13" lengthAdjust="spacing" textLength="221.8569" x="1159" y="808.6045">annotated data for downstream mining</text></g><?plantuml-src TLPDR-Cs4BthLmnyQOB2gqDlYs81vxC1uZQnlTq2tHveQI9pBPCgIINs5ltldHbINmvwalJqPZXyd7bIqA56U301wrfNQ09iy1XWOOmDAcXhO7to0GzmyR1Ph2zX3WjNx7J08hGEiypljMcKKmSexA6nXZAimubIEc8eKzKueZIgsAiA_v_WTwgqRzfKyA9gJ-b_W4KHhFEPuWlCKZ53UL_DeZneetrmYXWpK1u4wI9kL514YW4TeNjAf1LwLBGjTBpYTMtR4fGfmRKcw0DcnfO8imsQWWMIzv9dSmt_P03nzRKrGMc3Jd_74bOn52vkRB57TodyU2yn07_-tYBSEOg2MrD-DHVy_1FyIDK5k46lAyCFHstzvLySBLmqPOp-jTBcI9M_elC8JyuUJy8IF58MJmzmhmA-gHEbNpUEXOsxIp0jaE0r5gtJuHINeiZxBp796jshBf1MgbXaoPIW6-qBI-kde8uHuqYE5yrv7J7aVKJMxZKJHce6c75ZmHKz9HrIHLVM1iXXN7PKaQaaGv9nb6ZSjEtMIwiCvqrG7yBYj647QIUqQ2fUelD7IoBcfEcBhZ4fGlJrQp74qzjlrC5T2Y4bRCAZCsyFt3PZ8e4JqaPL-QFQOZrX4Nh6ylipWjzF62C5gAVREensk5HkdzyU6-j2laAQNjCT6nE7DFzcvxgEtM59iyRjCj4tWcS2Tyo-WCzDRLMPBsbQU9yrASLYtnv9ThcDzQHaustTqJ5m-t2lyzw-MBSVckerFevMbXMMob3raIN8idBz5aSRBSaWjefcQBOyhPyVfHTgqL3L94vXNUbZuybxYIbaY6PSggM0txQn5SXBQCdBNXChvBzRfCcUhTHsgyFocVWBVpA5d5wN-Vcib1MMsXFpMf4hHOv06PTDXQS2xfysFAiq9jSx5UXfNkjzj7FteWgKG8AptfnXzaHEMpdLxA8gjCZLxMgJHelks08_Fy1BRTzy9bOAy_cdmNrwyvp2WuTEyQox4pYwK_GkVev6ayab0cdE1cGqL0EO1cW0qgoCWJWR0p8q-e0DpKQxxdojx7nDFWA5s5ORhI7hpEV3Xq-zuS57-fZnBRgyZqsBdF5yMgAsTjysasozFH9jkYQLnbyny2Gwqfb4YMBzqfA3H2CmIZG2eaGJG2GQ8Rr48woNQ8HDadEZyzQukjnXS9e-Ii3MoHtyT7EN_x9PFkQRFpQNvybIg2eAz9vtJSe5-dfASDRB4q-Ff6LfU29OaYM5g4h-5QWN5O_KZbhDjXuQPpaXlPiK-apXd3aj95RopMxzULNFyGGI9H-oHVPWEV3pVDxJFTcyVySOR_EDFh0usgLoGTEKXlS1B385j0qv0i81Ws9ha5tpp7ffJFfFGyScfMc-gjWhx_RI6Lzt8oYFEQLlUYUeRQ5g_JsssuJA3lCHo3Zetu1_sMnbjDWszhOjezDz3yJ3n3pEcwclYyuxMWX94DbqVlJRPsX6a7u23yBC_WC0?></g></svg>