<svg xmlns="http://www.w3.org/2000/svg" xmlns:xlink="http://www.w3.org/1999/xlink" contentStyleType="text/css" data-diagram-type="DESCRIPTION" height="568px" preserveAspectRatio="none" style="width:4266px;height:568px;background:#FFFFFF;" version="1.1" viewBox="0 0 4266 568" width="4266px" zoomAndPan="magnify"><?plantuml 1.2026.6?><defs/><g><g class="title" data-source-line="1"><text fill="#000000" font-family="Arial" font-size="14" font-weight="700" lengthAdjust="spacing" textLength="297.9922" x="1980.8033" y="23.1318">Requirements Review Checklist Architecture</text></g><!--cluster External Inputs & Consumers--><g class="cluster" data-qualified-name="External Inputs . Consumers" data-source-line="7" id="ent0001"><path d="M1499.9,43.0986 L1696.941,43.0986 A3.75,3.75 0 0 1 1699.441,45.5986 L1706.441,65.1973 L2498.9,65.1973 A2.5,2.5 0 0 1 2501.4,67.6973 L2501.4,159.5986 A2.5,2.5 0 0 1 2498.9,162.0986 L1499.9,162.0986 A2.5,2.5 0 0 1 1497.4,159.5986 L1497.4,45.5986 A2.5,2.5 0 0 1 1499.9,43.0986" fill="none" style="stroke:#000000;stroke-width:1.5;"/><line style="stroke:#000000;stroke-width:1.5;" x1="1497.4" x2="1706.441" y1="65.1973" y2="65.1973"/><text fill="#000000" font-family="Arial" font-size="14" font-weight="700" lengthAdjust="spacing" textLength="196.041" x="1501.4" y="58.2305">External Inputs &amp; Consumers</text></g><!--cluster artifact--><g class="cluster" data-qualified-name="artifact" data-source-line="15" id="ent0007"><path d="M376.9,233.0986 L627.6236,233.0986 A3.75,3.75 0 0 1 630.1236,235.5986 L637.1236,255.1973 L2326.9,255.1973 A2.5,2.5 0 0 1 2329.4,257.6973 L2329.4,333.5986 A2.5,2.5 0 0 1 2326.9,336.0986 L376.9,336.0986 A2.5,2.5 0 0 1 374.4,333.5986 L374.4,235.5986 A2.5,2.5 0 0 1 376.9,233.0986" fill="none" style="stroke:#000000;stroke-width:1.5;"/><line style="stroke:#000000;stroke-width:1.5;" x1="374.4" x2="637.1236" y1="255.1973" y2="255.1973"/><text fill="#000000" font-family="Arial" font-size="14" font-weight="700" lengthAdjust="spacing" textLength="249.7236" x="378.4" y="248.2305">Review Checklist Artifact (Markdown)</text></g><!--entity reviewer--><g class="entity" data-qualified-name="External Inputs . Consumers.reviewer" data-source-line="8" id="ent0002"><rect fill="#F1F1F1" height="52.1973" rx="2.5" ry="2.5" style="stroke:#181818;stroke-width:0.5;" width="78.3516" x="1690.4" y="86.0986"/><text fill="#000000" font-family="Arial" font-size="14" font-style="italic" lengthAdjust="spacing" textLength="45.1309" x="1707.0104" y="109.2305">&#171;User&#187;</text><text fill="#000000" font-family="Arial" font-size="14" lengthAdjust="spacing" textLength="58.3516" x="1700.4" y="125.3291">Reviewer</text></g><!--entity owner--><g class="entity" data-qualified-name="External Inputs . Consumers.owner" data-source-line="9" id="ent0003"><rect fill="#F1F1F1" height="52.1973" rx="2.5" ry="2.5" style="stroke:#181818;stroke-width:0.5;" width="152.2754" x="1803.4" y="86.0986"/><text fill="#000000" font-family="Arial" font-size="14" font-style="italic" lengthAdjust="spacing" textLength="90.2891" x="1834.3932" y="109.2305">&#171;Stakeholder&#187;</text><text fill="#000000" font-family="Arial" font-size="14" lengthAdjust="spacing" textLength="132.2754" x="1813.4" y="125.3291">Requirements Owner</text></g><!--entity stakeholder--><g class="entity" data-qualified-name="External Inputs . Consumers.stakeholder" data-source-line="10" id="ent0004"><rect fill="#F1F1F1" height="52.1973" rx="2.5" ry="2.5" style="stroke:#181818;stroke-width:0.5;" width="142.1787" x="1513.4" y="86.0986"/><text fill="#000000" font-family="Arial" font-size="14" font-style="italic" lengthAdjust="spacing" textLength="90.2891" x="1539.3448" y="109.2305">&#171;Stakeholder&#187;</text><text fill="#000000" font-family="Arial" font-size="14" lengthAdjust="spacing" textLength="122.1787" x="1523.4" y="125.3291">Project Stakeholder</text></g><!--entity reqdoc--><g class="entity" data-qualified-name="External Inputs . Consumers.reqdoc" data-source-line="11" id="ent0005"><rect fill="#F1F1F1" height="68.2959" rx="2.5" ry="2.5" style="stroke:#181818;stroke-width:0.5;" width="174.8477" x="2309.9" y="78.0986"/><text fill="#000000" font-family="Arial" font-size="14" font-style="italic" lengthAdjust="spacing" textLength="59.1377" x="2367.755" y="101.2305">&#171;Artifact&#187;</text><text fill="#000000" font-family="Arial" font-size="14" lengthAdjust="spacing" textLength="154.8477" x="2319.9" y="117.3291">Requirements Document</text><text fill="#000000" font-family="Arial" font-size="14" lengthAdjust="spacing" textLength="89.4756" x="2319.9" y="133.4277">(under review)</text></g><!--entity standards--><g class="entity" data-qualified-name="External Inputs . Consumers.standards" data-source-line="12" id="ent0006"><rect fill="#F1F1F1" height="68.2959" rx="2.5" ry="2.5" style="stroke:#181818;stroke-width:0.5;" width="283.8057" x="1990.4" y="78.0986"/><text fill="#000000" font-family="Arial" font-size="14" font-style="italic" lengthAdjust="spacing" textLength="80.165" x="2092.2203" y="101.2305">&#171;Reference&#187;</text><text fill="#000000" font-family="Arial" font-size="14" lengthAdjust="spacing" textLength="167.3164" x="2000.4" y="117.3291">Standards &amp; Specifications</text><text fill="#000000" font-family="Arial" font-size="14" lengthAdjust="spacing" textLength="263.8057" x="2000.4" y="133.4277">(industry/product/business/documentation)</text></g><!--entity goals--><g class="entity" data-qualified-name="artifact.goals" data-source-line="16" id="ent0008"><rect fill="#F1F1F1" height="36.0986" rx="2.5" ry="2.5" style="stroke:#181818;stroke-width:0.5;" width="157.7168" x="1736.4" y="276.0986"/><text fill="#000000" font-family="Arial" font-size="14" lengthAdjust="spacing" textLength="137.7168" x="1746.4" y="299.2305">Review Goals &amp; Basis</text></g><!--entity completeness--><g class="entity" data-qualified-name="artifact.completeness" data-source-line="17" id="ent0009"><rect fill="#F1F1F1" height="36.0986" rx="2.5" ry="2.5" style="stroke:#181818;stroke-width:0.5;" width="153.0615" x="1092.9" y="276.0986"/><text fill="#000000" font-family="Arial" font-size="14" lengthAdjust="spacing" textLength="133.0615" x="1102.9" y="299.2305">Completeness Check</text></g><!--entity exceptions--><g class="entity" data-qualified-name="artifact.exceptions" data-source-line="18" id="ent0010"><rect fill="#F1F1F1" height="36.0986" rx="2.5" ry="2.5" style="stroke:#181818;stroke-width:0.5;" width="266.6611" x="1280.9" y="276.0986"/><text fill="#000000" font-family="Arial" font-size="14" lengthAdjust="spacing" textLength="246.6611" x="1290.9" y="299.2305">Exceptions &amp; Auxiliary Functions Check</text></g><!--entity understandability--><g class="entity" data-qualified-name="artifact.understandability" data-source-line="19" id="ent0011"><rect fill="#F1F1F1" height="36.0986" rx="2.5" ry="2.5" style="stroke:#181818;stroke-width:0.5;" width="171.7441" x="2114.4" y="276.0986"/><text fill="#000000" font-family="Arial" font-size="14" lengthAdjust="spacing" textLength="151.7441" x="2124.4" y="299.2305">Understandability Check</text></g><!--entity modelquality--><g class="entity" data-qualified-name="artifact.modelquality" data-source-line="20" id="ent0012"><rect fill="#F1F1F1" height="36.0986" rx="2.5" ry="2.5" style="stroke:#181818;stroke-width:0.5;" width="149.165" x="1929.9" y="276.0986"/><text fill="#000000" font-family="Arial" font-size="14" lengthAdjust="spacing" textLength="129.165" x="1939.9" y="299.2305">Model Quality Check</text></g><!--entity improvement--><g class="entity" data-qualified-name="artifact.improvement" data-source-line="21" id="ent0013"><rect fill="#F1F1F1" height="36.0986" rx="2.5" ry="2.5" style="stroke:#181818;stroke-width:0.5;" width="223.8682" x="611.4" y="276.0986"/><text fill="#000000" font-family="Arial" font-size="14" lengthAdjust="spacing" textLength="203.8682" x="621.4" y="299.2305">Extension &amp; Improvement Check</text></g><!--entity problemreport--><g class="entity" data-qualified-name="artifact.problemreport" data-source-line="22" id="ent0014"><rect fill="#F1F1F1" height="36.0986" rx="2.5" ry="2.5" style="stroke:#181818;stroke-width:0.5;" width="118.041" x="1583.4" y="276.0986"/><text fill="#000000" font-family="Arial" font-size="14" lengthAdjust="spacing" textLength="98.041" x="1593.4" y="299.2305">Problem Report</text></g><!--entity scoring--><g class="entity" data-qualified-name="artifact.scoring" data-source-line="23" id="ent0015"><rect fill="#F1F1F1" height="36.0986" rx="2.5" ry="2.5" style="stroke:#181818;stroke-width:0.5;" width="177.582" x="398.4" y="276.0986"/><text fill="#000000" font-family="Arial" font-size="14" lengthAdjust="spacing" textLength="157.582" x="408.4" y="299.2305">Scoring (4x10 + Total 40)</text></g><!--entity metadata--><g class="entity" data-qualified-name="artifact.metadata" data-source-line="24" id="ent0016"><rect fill="#F1F1F1" height="36.0986" rx="2.5" ry="2.5" style="stroke:#181818;stroke-width:0.5;" width="187.3027" x="870.9" y="276.0986"/><text fill="#000000" font-family="Arial" font-size="14" lengthAdjust="spacing" textLength="167.3027" x="880.9" y="299.2305">Reviewer &amp; Date Metadata</text></g><!--entity storage--><g class="entity" data-qualified-name="storage" data-source-line="27" id="ent0017"><path d="M2246.9,416.0986 C2246.9,406.0986 2321.4688,406.0986 2321.4688,406.0986 C2321.4688,406.0986 2396.0377,406.0986 2396.0377,416.0986 L2396.0377,457.2959 C2396.0377,467.2959 2321.4688,467.2959 2321.4688,467.2959 C2321.4688,467.2959 2246.9,467.2959 2246.9,457.2959 L2246.9,416.0986" fill="#F1F1F1" style="stroke:#181818;stroke-width:0.5;"/><path d="M2246.9,416.0986 C2246.9,426.0986 2321.4688,426.0986 2321.4688,426.0986 C2321.4688,426.0986 2396.0377,426.0986 2396.0377,416.0986" fill="none" style="stroke:#181818;stroke-width:0.5;"/><text fill="#000000" font-family="Arial" font-size="14" lengthAdjust="spacing" textLength="117.5029" x="2256.9" y="443.2305">Markdown Storage</text><text fill="#000000" font-family="Arial" font-size="14" lengthAdjust="spacing" textLength="129.1377" x="2256.9" y="459.3291">(review checklist file)</text></g><g class="entity" data-qualified-name="GMN35" data-source-line="56" id="ent0036"><path d="M3958.9,274.0986 L3958.9,313.9961 L4251.5987,313.9961 L4251.5987,284.0986 L4241.5987,274.0986 L3958.9,274.0986" fill="#FEFFDD" style="stroke:#181818;stroke-width:0.5;"/><path d="M4241.5987,274.0986 L4241.5987,284.0986 L4251.5987,284.0986 L4241.5987,274.0986" fill="#FEFFDD" style="stroke:#181818;stroke-width:1;"/><text fill="#000000" font-family="Arial" font-size="13" lengthAdjust="spacing" textLength="226.1479" x="3964.9" y="291.2925">C-001: Use review/verification methods</text><text fill="#000000" font-family="Arial" font-size="13" lengthAdjust="spacing" textLength="271.6987" x="3964.9" y="306.2412">C-004: Business requirements are out of scope</text></g><g class="entity" data-qualified-name="GMN38" data-source-line="61" id="ent0039"><path d="M2356.4,281.5986 L2356.4,306.5474 L2630.3033,306.5474 L2630.3033,291.5986 L2620.3033,281.5986 L2356.4,281.5986" fill="#FEFFDD" style="stroke:#181818;stroke-width:0.5;"/><path d="M2620.3033,281.5986 L2620.3033,291.5986 L2630.3033,291.5986 L2620.3033,281.5986" fill="#FEFFDD" style="stroke:#181818;stroke-width:1;"/><text fill="#000000" font-family="Arial" font-size="13" lengthAdjust="spacing" textLength="252.9033" x="2362.4" y="298.7925">NFR-004: 4x10 scoring and total 40 (C-003)</text></g><g class="entity" data-qualified-name="GMN41" data-source-line="65" id="ent0042"><path d="M2665.4,281.5986 L2665.4,306.5474 L3109.0777,306.5474 L3109.0777,291.5986 L3099.0777,281.5986 L2665.4,281.5986" fill="#FEFFDD" style="stroke:#181818;stroke-width:0.5;"/><path d="M3099.0777,281.5986 L3099.0777,291.5986 L3109.0777,291.5986 L3099.0777,281.5986" fill="#FEFFDD" style="stroke:#181818;stroke-width:1;"/><text fill="#000000" font-family="Arial" font-size="13" lengthAdjust="spacing" textLength="422.6777" x="2671.4" y="298.7925">NFR-001: Explicit checks for core/basic, user needs, exceptions, auxiliary</text></g><g class="entity" data-qualified-name="GMN44" data-source-line="69" id="ent0045"><path d="M3529.4,281.5986 L3529.4,306.5474 L3923.2232,306.5474 L3923.2232,291.5986 L3913.2232,281.5986 L3529.4,281.5986" fill="#FEFFDD" style="stroke:#181818;stroke-width:0.5;"/><path d="M3913.2232,281.5986 L3913.2232,291.5986 L3923.2232,291.5986 L3913.2232,281.5986" fill="#FEFFDD" style="stroke:#181818;stroke-width:1;"/><text fill="#000000" font-family="Arial" font-size="13" lengthAdjust="spacing" textLength="372.8232" x="3535.4" y="298.7925">NFR-002: Clarity, understandability, specificity, detail, refinement</text></g><g class="entity" data-qualified-name="GMN47" data-source-line="73" id="ent0048"><path d="M3144.4,281.5986 L3144.4,306.5474 L3494.8814,306.5474 L3494.8814,291.5986 L3484.8814,281.5986 L3144.4,281.5986" fill="#FEFFDD" style="stroke:#181818;stroke-width:0.5;"/><path d="M3484.8814,281.5986 L3484.8814,291.5986 L3494.8814,291.5986 L3484.8814,281.5986" fill="#FEFFDD" style="stroke:#181818;stroke-width:1;"/><text fill="#000000" font-family="Arial" font-size="13" lengthAdjust="spacing" textLength="329.4814" x="3150.4" y="298.7925">NFR-003: Conformance, reasonableness, rigor, accuracy</text></g><g class="entity" data-qualified-name="GMN50" data-source-line="77" id="ent0051"><path d="M1899.4,528.0986 L1899.4,553.0474 A0,0 0 0 0 1899.4,553.0474 L2743.7037,553.0474 A0,0 0 0 0 2743.7037,553.0474 L2743.7037,538.0986 L2733.7037,528.0986 L2325.4,528.0986 L2321.4,467.0986 L2317.4,528.0986 L1899.4,528.0986 A0,0 0 0 0 1899.4,528.0986" fill="#FEFFDD" style="stroke:#181818;stroke-width:0.5;"/><path d="M2733.7037,528.0986 L2733.7037,538.0986 L2743.7037,538.0986 L2733.7037,528.0986" fill="#FEFFDD" style="stroke:#181818;stroke-width:0.5;"/><text fill="#000000" font-family="Arial" font-size="13" lengthAdjust="spacing" textLength="823.3037" x="1905.4" y="545.2925">DR-001..DR-005 stored in Markdown:\n- review purpose &amp; basis\n- checklist items\n- problem report\n- scores (4x10 + total)\n- reviewer &amp; date</text></g><!--link reqdoc to artifact--><g class="link" data-entity-1="ent0005" data-entity-2="ent0007" data-link-type="dependency" data-source-line="30" id="lnk18"><path d="M2485.14,112.5586 C2706.72,112.0886 3275.34,116.9386 3332.4,178.0986 C3341.8,188.1686 3342.11,199.3186 3332.4,209.0986 C3312.98,228.6786 2360.97,199.8986 2339.4,217.0986 C2336.1137,219.7199 2333.3595,222.8207 2331.0567,226.2464 C2329.9053,227.9593 2328.8667,229.7534 2327.9308,231.6094 C2327.6969,232.0734 2329.5937,250.1137 2329.3724,250.5851" fill="none" id="reqdoc-to-artifact" style="stroke:#181818;stroke-width:1;"/><polygon fill="#181818" points="2327.2481,255.1114,2334.693,248.6636,2329.3724,250.5851,2327.4509,245.2646,2327.2481,255.1114" style="stroke:#181818;stroke-width:1;stroke-linejoin:miter;stroke-miterlimit:10;"/><text fill="#000000" font-family="Arial" font-size="13" lengthAdjust="spacing" textLength="126.4644" x="3340.4" y="198.7925">Content for inspection</text></g><!--link standards to goals--><g class="link" data-entity-1="ent0006" data-entity-2="ent0008" data-link-type="dependency" data-source-line="31" id="lnk19"><path d="M2210.43,146.2086 C2236.08,155.6486 2265.05,164.7986 2292.4,170.0986 C2380.89,187.2286 2554.69,144.9286 2491.4,209.0986 C2480.11,220.5486 1927.57,211.7486 1912.4,217.0986 C1878.91,228.9186 1851.5063,253.7266 1833.9563,272.2766" fill="none" id="standards-to-goals" style="stroke:#181818;stroke-width:1;"/><polygon fill="#181818" points="1830.52,275.9086,1839.611,272.1199,1833.9563,272.2766,1833.7996,266.6219,1830.52,275.9086" style="stroke:#181818;stroke-width:1;stroke-linejoin:miter;stroke-miterlimit:10;"/><text fill="#000000" font-family="Arial" font-size="13" lengthAdjust="spacing" textLength="182.7744" x="2505.4" y="198.7925">Review basis (FR-001, FR-002)</text></g><!--link standards to modelquality--><g class="link" data-entity-1="ent0006" data-entity-2="ent0012" data-link-type="dependency" data-source-line="32" id="lnk20"><path d="M2209.12,146.2386 C2235.07,155.8686 2264.54,165.1286 2292.4,170.0986 C2302.56,171.9086 3028.15,170.7586 3035.4,178.0986 C3045.09,187.8886 3045.11,199.3186 3035.4,209.0986 C3026.23,218.3486 2109.66,212.6686 2097.4,217.0986 C2064.85,228.8686 2038.7511,253.6088 2022.0811,272.1688" fill="none" id="standards-to-modelquality" style="stroke:#181818;stroke-width:1;"/><polygon fill="#181818" points="2018.74,275.8886,2027.7298,271.8657,2022.0811,272.1688,2021.778,266.52,2018.74,275.8886" style="stroke:#181818;stroke-width:1;stroke-linejoin:miter;stroke-miterlimit:10;"/><text fill="#000000" font-family="Arial" font-size="13" lengthAdjust="spacing" textLength="111.998" x="3043.4" y="198.7925">Conformance basis</text></g><!--link standards to understandability--><g class="link" data-entity-1="ent0006" data-entity-2="ent0011" data-link-type="dependency" data-source-line="33" id="lnk21"><path d="M2208.71,146.1186 C2234.76,155.8086 2264.39,165.1286 2292.4,170.0986 C2304.66,172.2686 3179.64,169.2586 3188.4,178.0986 C3198.1,187.8886 3198.1,199.3086 3188.4,209.0986 C3179.62,217.9586 2302.1,212.7586 2290.4,217.0986 C2258.57,228.8986 2233.4492,253.5655 2217.4192,272.1155" fill="none" id="standards-to-understandability" style="stroke:#181818;stroke-width:1;"/><polygon fill="#181818" points="2214.15,275.8986,2223.0611,271.7043,2217.4192,272.1155,2217.0081,266.4736,2214.15,275.8986" style="stroke:#181818;stroke-width:1;stroke-linejoin:miter;stroke-miterlimit:10;"/><text fill="#000000" font-family="Arial" font-size="13" lengthAdjust="spacing" textLength="127.1689" x="3196.4" y="198.7925">Documentation norms</text></g><!--link reviewer to goals--><g class="link" data-entity-1="ent0002" data-entity-2="ent0008" data-link-type="dependency" data-source-line="36" id="lnk22"><path d="M1751.05,138.3586 C1761.07,149.0486 1773.58,161.0886 1786.4,170.0986 C1793.24,174.8986 1798.57,171.2886 1803.4,178.0986 C1824.21,207.3986 1822.475,246.9958 1819.135,271.1458" fill="none" id="reviewer-to-goals" style="stroke:#181818;stroke-width:1;"/><polygon fill="#181818" points="1818.45,276.0986,1823.6453,267.7315,1819.135,271.1458,1815.7207,266.6355,1818.45,276.0986" style="stroke:#181818;stroke-width:1;stroke-linejoin:miter;stroke-miterlimit:10;"/><text fill="#000000" font-family="Arial" font-size="13" lengthAdjust="spacing" textLength="151.7534" x="1816.4" y="191.2925">Define objective &amp; method</text><text fill="#000000" font-family="Arial" font-size="13" lengthAdjust="spacing" textLength="43.3481" x="1870.6026" y="206.2412">FR-001</text></g><!--link reviewer to completeness--><g class="link" data-entity-1="ent0002" data-entity-2="ent0009" data-link-type="dependency" data-source-line="37" id="lnk23"><path d="M1711.84,138.1586 C1701.83,150.2186 1688.14,163.4786 1672.4,170.0986 C1653.58,178.0186 951.76,163.5786 937.4,178.0986 C927.72,187.8986 927.95,199.0786 937.4,209.0986 C947.95,220.2686 1061.08,211.5586 1075.4,217.0986 C1107.7,229.5886 1134.0127,253.8894 1151.0527,272.1894" fill="none" id="reviewer-to-completeness" style="stroke:#181818;stroke-width:1;"/><polygon fill="#181818" points="1154.46,275.8486,1151.2542,266.5361,1151.0527,272.1894,1145.3994,271.9878,1154.46,275.8486" style="stroke:#181818;stroke-width:1;stroke-linejoin:miter;stroke-miterlimit:10;"/><text fill="#000000" font-family="Arial" font-size="13" lengthAdjust="spacing" textLength="235.5679" x="938.4" y="191.2925">Check core/basic functions &amp; user needs</text><text fill="#000000" font-family="Arial" font-size="13" lengthAdjust="spacing" textLength="43.3481" x="1034.5099" y="206.2412">FR-003</text></g><!--link reviewer to exceptions--><g class="link" data-entity-1="ent0002" data-entity-2="ent0010" data-link-type="dependency" data-source-line="38" id="lnk24"><path d="M1711.55,138.3686 C1701.55,150.3286 1687.97,163.4186 1672.4,170.0986 C1656.06,177.1086 1364.82,165.3686 1352.4,178.0986 C1324.06,207.1686 1361.9025,248.5099 1389.5025,272.7399" fill="none" id="reviewer-to-exceptions" style="stroke:#181818;stroke-width:1;"/><polygon fill="#181818" points="1393.26,276.0386,1389.1355,267.095,1389.5025,272.7399,1383.8576,273.107,1393.26,276.0386" style="stroke:#181818;stroke-width:1;stroke-linejoin:miter;stroke-miterlimit:10;"/><text fill="#000000" font-family="Arial" font-size="13" lengthAdjust="spacing" textLength="237.7197" x="1353.4" y="191.2925">Check special cases &amp; auxiliary functions</text><text fill="#000000" font-family="Arial" font-size="13" lengthAdjust="spacing" textLength="43.3481" x="1450.5858" y="206.2412">FR-004</text></g><!--link reviewer to understandability--><g class="link" data-entity-1="ent0002" data-entity-2="ent0011" data-link-type="dependency" data-source-line="39" id="lnk25"><path d="M1746.97,138.1686 C1756.98,150.2386 1770.66,163.4986 1786.4,170.0986 C1809.72,179.8786 2678.61,160.1486 2696.4,178.0986 C2706.1,187.8886 2706.05,199.2586 2696.4,209.0986 C2680.61,225.2086 2311.51,209.1386 2290.4,217.0986 C2258.64,229.0686 2233.5086,253.7036 2217.4586,272.1836" fill="none" id="reviewer-to-understandability" style="stroke:#181818;stroke-width:1;"/><polygon fill="#181818" points="2214.18,275.9586,2223.1015,271.7865,2217.4586,272.1836,2217.0615,266.5407,2214.18,275.9586" style="stroke:#181818;stroke-width:1;stroke-linejoin:miter;stroke-miterlimit:10;"/><text fill="#000000" font-family="Arial" font-size="13" lengthAdjust="spacing" textLength="207.3525" x="2704.4" y="191.2925">Clarity, specificity, detail, refinement</text><text fill="#000000" font-family="Arial" font-size="13" lengthAdjust="spacing" textLength="43.3481" x="2786.4022" y="206.2412">FR-005</text></g><!--link reviewer to modelquality--><g class="link" data-entity-1="ent0002" data-entity-2="ent0012" data-link-type="dependency" data-source-line="40" id="lnk26"><path d="M1746.99,138.1086 C1757.01,150.1586 1770.69,163.4186 1786.4,170.0986 C1807.83,179.2086 2189.1,161.4786 2205.4,178.0986 C2215.05,187.9286 2214.78,198.9986 2205.4,209.0986 C2189.03,226.7286 2119.76,208.1786 2097.4,217.0986 C2065.45,229.8486 2039.4459,254.0588 2022.5859,272.2788" fill="none" id="reviewer-to-modelquality" style="stroke:#181818;stroke-width:1;"/><polygon fill="#181818" points="2019.19,275.9486,2028.2385,272.0596,2022.5859,272.2788,2022.3668,266.6262,2019.19,275.9486" style="stroke:#181818;stroke-width:1;stroke-linejoin:miter;stroke-miterlimit:10;"/><text fill="#000000" font-family="Arial" font-size="13" lengthAdjust="spacing" textLength="269.5215" x="2213.4" y="191.2925">Conformance, reasonableness, rigor, accuracy</text><text fill="#000000" font-family="Arial" font-size="13" lengthAdjust="spacing" textLength="43.3481" x="2326.4867" y="206.2412">FR-006</text></g><!--link reviewer to improvement--><g class="link" data-entity-1="ent0002" data-entity-2="ent0013" data-link-type="dependency" data-source-line="41" id="lnk27"><path d="M1711.85,138.1886 C1701.84,150.2586 1688.16,163.5086 1672.4,170.0986 C1657.9,176.1686 551.48,166.9386 540.4,178.0986 C530.7,187.8786 531.42,198.6586 540.4,209.0986 C548.17,218.1286 582.17,213.1286 593.4,217.0986 C633.59,231.2886 671.2179,255.3313 696.2279,273.0213" fill="none" id="reviewer-to-improvement" style="stroke:#181818;stroke-width:1;"/><polygon fill="#181818" points="700.31,275.9086,695.2721,267.4458,696.2279,273.0213,690.6524,273.9771,700.31,275.9086" style="stroke:#181818;stroke-width:1;stroke-linejoin:miter;stroke-miterlimit:10;"/><text fill="#000000" font-family="Arial" font-size="13" lengthAdjust="spacing" textLength="182.8125" x="541.4" y="191.2925">Extension &amp; improvement goals</text><text fill="#000000" font-family="Arial" font-size="13" lengthAdjust="spacing" textLength="43.3481" x="611.1322" y="206.2412">FR-007</text></g><!--link reviewer to problemreport--><g class="link" data-entity-1="ent0002" data-entity-2="ent0014" data-link-type="dependency" data-source-line="42" id="lnk28"><path d="M1710.75,138.2986 C1700.73,149.9386 1687.36,162.7686 1672.4,170.0986 C1659.73,176.3086 1618.73,167.5086 1609.4,178.0986 C1584.83,205.9986 1607.8176,247.0588 1625.6376,271.6688" fill="none" id="reviewer-to-problemreport" style="stroke:#181818;stroke-width:1;"/><polygon fill="#181818" points="1628.57,275.7186,1626.5314,266.0831,1625.6376,271.6688,1620.0518,270.775,1628.57,275.7186" style="stroke:#181818;stroke-width:1;stroke-linejoin:miter;stroke-miterlimit:10;"/><text fill="#000000" font-family="Arial" font-size="13" lengthAdjust="spacing" textLength="184.2598" x="1610.4" y="191.2925">Record problems &amp; suggestions</text><text fill="#000000" font-family="Arial" font-size="13" lengthAdjust="spacing" textLength="43.3481" x="1680.8558" y="206.2412">FR-008</text></g><!--link reviewer to scoring--><g class="link" data-entity-1="ent0002" data-entity-2="ent0015" data-link-type="dependency" data-source-line="43" id="lnk29"><path d="M1711.85,138.1886 C1701.84,150.2586 1688.16,163.5186 1672.4,170.0986 C1656.19,176.8686 419.79,165.6386 407.4,178.0986 C376.98,208.7186 423.1148,249.2858 456.7848,273.0458" fill="none" id="reviewer-to-scoring" style="stroke:#181818;stroke-width:1;"/><polygon fill="#181818" points="460.87,275.9286,455.8228,267.4713,456.7848,273.0458,451.2103,274.0077,460.87,275.9286" style="stroke:#181818;stroke-width:1;stroke-linejoin:miter;stroke-miterlimit:10;"/><text fill="#000000" font-family="Arial" font-size="13" lengthAdjust="spacing" textLength="116.3589" x="408.4" y="191.2925">Enter 4x10 and total</text><text fill="#000000" font-family="Arial" font-size="13" lengthAdjust="spacing" textLength="43.3481" x="444.9054" y="206.2412">FR-009</text></g><!--link reviewer to metadata--><g class="link" data-entity-1="ent0002" data-entity-2="ent0016" data-link-type="dependency" data-source-line="44" id="lnk30"><path d="M1711.84,138.1786 C1701.83,150.2386 1688.15,163.4986 1672.4,170.0986 C1660.45,175.1086 748.53,168.8986 739.4,178.0986 C729.7,187.8786 730.01,199.0186 739.4,209.0986 C747.98,218.3086 840.51,212.9786 852.4,217.0986 C889.04,229.7886 921.2113,254.4027 942.1313,272.6427" fill="none" id="reviewer-to-metadata" style="stroke:#181818;stroke-width:1;"/><polygon fill="#181818" points="945.9,275.9286,941.7451,266.9991,942.1313,272.6427,936.4877,273.029,945.9,275.9286" style="stroke:#181818;stroke-width:1;stroke-linejoin:miter;stroke-miterlimit:10;"/><text fill="#000000" font-family="Arial" font-size="13" lengthAdjust="spacing" textLength="181.3589" x="740.4" y="191.2925">Reviewer identity &amp; review date</text><text fill="#000000" font-family="Arial" font-size="13" lengthAdjust="spacing" textLength="43.3481" x="809.4054" y="206.2412">FR-010</text></g><!--link artifact to storage--><g class="link" data-entity-1="ent0007" data-entity-2="ent0017" data-link-type="dependency" data-source-line="47" id="lnk31"><path d="M2321.4,336.5699 C2321.4,358.8436 2321.4,380.7836 2321.4,400.9386" fill="none" id="artifact-to-storage" style="stroke:#181818;stroke-width:1;"/><polygon fill="#181818" points="2321.4,405.9386,2325.4,396.9386,2321.4,400.9386,2317.4,396.9386,2321.4,405.9386" style="stroke:#181818;stroke-width:1;stroke-linejoin:miter;stroke-miterlimit:10;"/><text fill="#000000" font-family="Arial" font-size="13" lengthAdjust="spacing" textLength="291.8906" x="2322.4" y="373.2925">Persist checklist, scores, metadata, problem report</text></g><!--link problemreport to owner--><g class="link" data-entity-1="ent0014" data-entity-2="ent0003" data-link-type="dependency" data-source-line="50" id="lnk32"><path d="M1653.64,276.0786 C1666.88,257.6886 1690.75,229.3886 1719.4,217.0986 C1732.53,211.4686 1966.46,219.3586 1976.4,209.0986 C1985.99,199.2086 1982.89,190.2586 1976.4,178.0986 C1967.48,161.3786 1956.3729,150.8599 1940.4829,140.8699" fill="none" id="problemreport-to-owner" style="stroke:#181818;stroke-width:1;"/><polygon fill="#181818" points="1936.25,138.2086,1941.7403,146.3852,1940.4829,140.8699,1945.9983,139.6125,1936.25,138.2086" style="stroke:#181818;stroke-width:1;stroke-linejoin:miter;stroke-miterlimit:10;"/><text fill="#000000" font-family="Arial" font-size="13" lengthAdjust="spacing" textLength="213.1606" x="1983.4" y="198.7925">Findings &amp; improvement suggestions</text></g><!--link problemreport to stakeholder--><g class="link" data-entity-1="ent0014" data-entity-2="ent0004" data-link-type="dependency" data-source-line="51" id="lnk33"><path d="M1631.19,276.0286 C1617.97,257.5886 1594.12,229.2386 1565.4,217.0986 C1546.11,208.9386 1203.06,224.0686 1188.4,209.0986 C1178.77,199.2486 1179.49,188.5986 1188.4,178.0986 C1229.27,129.9686 1405.7825,117.5661 1508.2925,114.3361" fill="none" id="problemreport-to-stakeholder" style="stroke:#181818;stroke-width:1;"/><polygon fill="#181818" points="1513.29,114.1786,1504.1685,110.4641,1508.2925,114.3361,1504.4204,118.4601,1513.29,114.1786" style="stroke:#181818;stroke-width:1;stroke-linejoin:miter;stroke-miterlimit:10;"/><text fill="#000000" font-family="Arial" font-size="13" lengthAdjust="spacing" textLength="104.0571" x="1189.4" y="198.7925">Overall evaluation</text></g><!--link scoring to stakeholder--><g class="link" data-entity-1="ent0015" data-entity-2="ent0004" data-link-type="dependency" data-source-line="52" id="lnk34"><path d="M398.35,293.3286 C256.97,290.9086 6,273.5886 97.4,178.0986 C146.88,126.4186 1218.9501,115.5432 1508.3601,113.5432" fill="none" id="scoring-to-stakeholder" style="stroke:#181818;stroke-width:1;"/><polygon fill="#181818" points="1513.36,113.5086,1504.3326,109.5709,1508.3601,113.5432,1504.3879,117.5707,1513.36,113.5086" style="stroke:#181818;stroke-width:1;stroke-linejoin:miter;stroke-miterlimit:10;"/><text fill="#000000" font-family="Arial" font-size="13" lengthAdjust="spacing" textLength="167.6099" x="98.4" y="198.7925">Quantitative review summary</text></g><!--link artifact to GMN35--><g class="link" data-entity-1="ent0007" data-entity-2="ent0036" data-link-type="association" data-source-line="56" id="lnk37"><path d="M2327.6398,254.9527 C2329.3482,249.5702 2331.6292,221.7111 2334.2597,216.8144 C2339.5206,207.0211 2346.815,198.6636 2356.9,193.5986 C2434.7,154.5286 3839.62,171.8186 3923.9,193.5986 C3984.06,209.1386 4045.56,249.3686 4079.27,273.9586" fill="none" id="artifact-GMN35" style="stroke:#181818;stroke-width:1;stroke-dasharray:7,7;"/></g><!--link scoring to GMN38--><g class="link" data-entity-1="ent0015" data-entity-2="ent0039" data-link-type="association" data-source-line="61" id="lnk40"><path d="M502.26,275.9786 C523.41,251.7586 564.8,209.9886 610.9,193.5986 C700.37,161.7986 2228.21,168.9586 2319.9,193.5986 C2384.11,210.8486 2449.09,258.3086 2477.95,281.2886" fill="none" id="scoring-GMN38" style="stroke:#181818;stroke-width:1;stroke-dasharray:7,7;"/></g><!--link completeness to GMN41--><g class="link" data-entity-1="ent0009" data-entity-2="ent0042" data-link-type="association" data-source-line="65" id="lnk43"><path d="M1182.4,276.0186 C1201.03,251.8486 1237.85,210.1386 1280.9,193.5986 C1350.92,166.6986 2557.21,179.6786 2630.9,193.5986 C2721.14,210.6486 2820.3,258.6486 2864.25,281.5886" fill="none" id="completeness-GMN41" style="stroke:#181818;stroke-width:1;stroke-dasharray:7,7;"/></g><!--link understandability to GMN44--><g class="link" data-entity-1="ent0011" data-entity-2="ent0045" data-link-type="association" data-source-line="69" id="lnk46"><path d="M2212.78,276.0386 C2230.55,251.8886 2265.84,210.1986 2307.9,193.5986 C2369.25,169.3886 3430.34,180.1886 3494.9,193.5986 C3577.06,210.6586 3665.84,258.4386 3705.37,281.4186" fill="none" id="understandability-GMN44" style="stroke:#181818;stroke-width:1;stroke-dasharray:7,7;"/></g><!--link modelquality to GMN47--><g class="link" data-entity-1="ent0012" data-entity-2="ent0048" data-link-type="association" data-source-line="73" id="lnk49"><path d="M2017.25,276.0186 C2035.66,251.8586 2072.1,210.1586 2114.9,193.5986 C2166.46,173.6586 3056,181.3386 3109.9,193.5986 C3185.23,210.7286 3265.09,258.4686 3300.55,281.4386" fill="none" id="modelquality-GMN47" style="stroke:#181818;stroke-width:1;stroke-dasharray:7,7;"/></g><?plantuml-src bLPBS-Cs3BxhLs1yIEEfiqassJuycSnay-Zi8SaswPwQ7cWAjjb8f49IUKod_xq0IKcqahJJYsrHm0SG-3x0NlaAuGOVMcMnHkqTFJmgV8BJDShxIZaF9rQkbKVfMuj5uUwLReGLDKXJDqQJpwr_8H1B5aAlAinCt5gKvadf5In5vV8t9Iv5M_aBe_sLg962A54LHIFalLWXJCwVFLejAlYYcvQose9JerrRetKJ-Ai0-3tcYVOF48w2nmSuElhcq1uVHuliMjTFEjaQ_aM6jrxSuzfKPMV_rPe_wHAGlGWERdX-osqZp9cHBV-wqzkjPeUOsJHb-L0QIHWdrgkba3u24A8kXItvbhSDIhLKKdX5zoKKfSlMUVkosrXJjjBlBbgdD3gtMwPGmNJQPPgGZevkS8aMjKGAydTMsJVw6vE1xKjXxwbVUZfXCD6TP-M6NmmralByB9no8UQAJzZYbFXGeKTEBiA7zp8xPhFpPubDk1t1dBJFgbB2li15gsKy7LonDsN7RrpFUCC5EVcNpB8TlsE7IrDY1R-sOcHSy_b3F8uPKNQEmb12NsggysDePkQXXjD4b4M5DKcbCTO7YoOUsN0IcYgDPU9l7pxlxy7ty9lnnER3lTIe-3RdCGK_4nxX4hqeXHSnrVJ07UJlXN3KmgvFn5HZgQb4aqWpa7rNbwh2s4SNZOhYkqvCte1VOw9ct-SYqNDdvtZe_Hmc93pFvLWQ2qex8YYtP58CP6EFG0CsJqHPC45W--9cPszlVmRX--Dqx9Mt8iMYCBKWsaQ4iSEhHhFNMQu4q0H0VdJTlhIARc15ujUJykkiKAMgO_TTqK-HZGkTuP841sR1mq4z8ZMAsh8svPsEjvjiEkQ43tVYK7HgSPUl967PKtqBMffMe15Bbz0EHcY31WOixW6DIv341WOHlOfww8HsE49xitodbR3qSnPnQVY4XvAefwePiOIl7sTQmFmqmloN7hAtS4OBqWQNWvxLojWP22bRQiXBWlnX19dfZH5pWUQlGeiIn8yZY0r1HbvI2yhkdClcsjKANLwkdqOWIQOX1wOG135JzKX29EVazVEu84cqWngOWYLbp1NQwdH79XWHzlS2NRzIQvYHhCrUbBqIGpvHoWpS6VT4deLiaMhSnPzrbuLOXH3aklNT393THYqsYyMHufAaE1UqWAW4RbJwh7QJDzppbKaWruyalwe2V1HLAzBuIBLzmvn6DjTA1BMbQb6cDJ4yt87_2dWh52zSRiRLnGsftgCh-9CvjlPWbaCHJrccSw2_1WbkbnBgrsoIimjcXtFud3Oix-jXimjBCw0Dk9HwWmLIP8vNZA9si_qgAd0UITDTjoSFxGBOveW7qtUXDdPdnADhd3yt5Oiqzjw5mJoCbrasKsRP-9WDO-BTUA_NQ0pwSGxza7Xbyvzpuzrm6uiuHZgOm_-P7sFeXV7UrA4BQUkTXQ9z-12-FuLZB6aXGBT4vtTwfoDPqzh6E9xmOVdmcs5Hq7_WEXnjgefFelBwNH_wEnrmmt9dkG_f_WC0?></g></svg>