<svg xmlns="http://www.w3.org/2000/svg" xmlns:xlink="http://www.w3.org/1999/xlink" contentStyleType="text/css" data-diagram-type="DESCRIPTION" height="1181px" preserveAspectRatio="none" style="width:1578px;height:1181px;background:#FFFFFF;" version="1.1" viewBox="0 0 1578 1181" width="1578px" zoomAndPan="magnify"><?plantuml 1.2026.6?><defs/><g><g class="title" data-source-line="1"><text fill="#000000" font-family="sans-serif" font-size="14" font-weight="700" lengthAdjust="spacing" textLength="335.2959" x="618.0089" y="24.5332">Campus Helper Platform - Four-Layer Architecture</text></g><!--cluster Presentation Layer--><g class="cluster" data-qualified-name="Presentation Layer" data-source-line="9" id="ent0002"><rect fill="none" height="233" rx="2.5" ry="2.5" style="stroke:#181818;stroke-width:1;" width="268" x="273.3136" y="262.8394"/><text fill="#000000" font-family="sans-serif" font-size="14" font-weight="700" lengthAdjust="spacing" textLength="126.0479" x="344.2897" y="279.3726">Presentation Layer</text></g><!--cluster Business Layer--><g class="cluster" data-qualified-name="Business Layer" data-source-line="14" id="ent0005"><rect fill="none" height="601" rx="2.5" ry="2.5" style="stroke:#181818;stroke-width:1;" width="526" x="569.3136" y="178.8394"/><text fill="#000000" font-family="sans-serif" font-size="14" font-weight="700" lengthAdjust="spacing" textLength="103.4961" x="780.5656" y="195.3726">Business Layer</text></g><!--cluster Data Layer--><g class="cluster" data-qualified-name="Data Layer" data-source-line="28" id="ent0017"><rect fill="none" height="455" rx="2.5" ry="2.5" style="stroke:#181818;stroke-width:1;" width="208" x="1123.3136" y="494.8394"/><text fill="#000000" font-family="sans-serif" font-size="14" font-weight="700" lengthAdjust="spacing" textLength="71.5928" x="1191.5173" y="511.3726">Data Layer</text></g><!--cluster Data Entity Layer (Database)--><g class="cluster" data-qualified-name="Data Entity Layer .Database." data-source-line="37" id="ent0024"><rect fill="none" height="100" rx="2.5" ry="2.5" style="stroke:#181818;stroke-width:1;" width="205" x="1359.3136" y="672.8394"/><text fill="#000000" font-family="sans-serif" font-size="14" font-weight="700" lengthAdjust="spacing" textLength="189.8408" x="1366.8932" y="689.3726">Data Entity Layer (Database)</text></g><!--entity ClientApp--><g class="entity" data-qualified-name="Presentation Layer.ClientApp" data-source-line="10" id="ent0003"><rect fill="#F1F1F1" height="90.4375" rx="2.5" ry="2.5" style="stroke:#181818;stroke-width:0.5;" width="197.3857" x="308.8136" y="298.8394"/><text fill="#000000" font-family="sans-serif" font-size="14" lengthAdjust="spacing" textLength="177.3857" x="318.8136" y="323.3726">WeChat Mini Program Client</text><text fill="#000000" font-family="sans-serif" font-size="14" lengthAdjust="spacing" textLength="162.627" x="318.8136" y="340.982">(Home/Popular, Category,</text><text fill="#000000" font-family="sans-serif" font-size="14" lengthAdjust="spacing" textLength="135.3857" x="318.8136" y="358.5913">Product Detail, Order,</text><text fill="#000000" font-family="sans-serif" font-size="14" lengthAdjust="spacing" textLength="105.8271" x="318.8136" y="376.2007">Personal Center)</text></g><!--entity AdminConsole--><g class="entity" data-qualified-name="Presentation Layer.AdminConsole" data-source-line="11" id="ent0004"><rect fill="#F1F1F1" height="55.2188" rx="2.5" ry="2.5" style="stroke:#181818;stroke-width:0.5;" width="236.3027" x="289.3136" y="424.3394"/><text fill="#000000" font-family="sans-serif" font-size="14" lengthAdjust="spacing" textLength="127.6133" x="299.3136" y="448.8726">Admin Web Console</text><text fill="#000000" font-family="sans-serif" font-size="14" lengthAdjust="spacing" textLength="216.3027" x="299.3136" y="466.482">(Product/Order/User Management)</text></g><!--entity AuthService--><g class="entity" data-qualified-name="Business Layer.AuthService" data-source-line="15" id="ent0006"><rect fill="#F1F1F1" height="37.6094" rx="2.5" ry="2.5" style="stroke:#181818;stroke-width:0.5;" width="185.7305" x="893.3136" y="214.8394"/><text fill="#000000" font-family="sans-serif" font-size="14" lengthAdjust="spacing" textLength="165.7305" x="903.3136" y="239.3726">Auth &amp; Permission Service</text></g><!--entity UserService--><g class="entity" data-qualified-name="Business Layer.UserService" data-source-line="16" id="ent0007"><rect fill="#F1F1F1" height="37.6094" rx="2.5" ry="2.5" style="stroke:#181818;stroke-width:0.5;" width="100.1309" x="659.3136" y="287.8394"/><text fill="#000000" font-family="sans-serif" font-size="14" lengthAdjust="spacing" textLength="80.1309" x="669.3136" y="312.3726">User Service</text></g><!--entity ProductService--><g class="entity" data-qualified-name="Business Layer.ProductService" data-source-line="17" id="ent0008"><rect fill="#F1F1F1" height="37.6094" rx="2.5" ry="2.5" style="stroke:#181818;stroke-width:0.5;" width="118.8203" x="926.8136" y="287.8394"/><text fill="#000000" font-family="sans-serif" font-size="14" lengthAdjust="spacing" textLength="98.8203" x="936.8136" y="312.3726">Product Service</text></g><!--entity SearchService--><g class="entity" data-qualified-name="Business Layer.SearchService" data-source-line="18" id="ent0009"><rect fill="#F1F1F1" height="37.6094" rx="2.5" ry="2.5" style="stroke:#181818;stroke-width:0.5;" width="189.627" x="614.3136" y="360.8394"/><text fill="#000000" font-family="sans-serif" font-size="14" lengthAdjust="spacing" textLength="169.627" x="624.3136" y="385.3726">Search &amp; Browsing Service</text></g><!--entity OrderService--><g class="entity" data-qualified-name="Business Layer.OrderService" data-source-line="19" id="ent0010"><rect fill="#F1F1F1" height="37.6094" rx="2.5" ry="2.5" style="stroke:#181818;stroke-width:0.5;" width="106.3584" x="933.3136" y="360.8394"/><text fill="#000000" font-family="sans-serif" font-size="14" lengthAdjust="spacing" textLength="86.3584" x="943.3136" y="385.3726">Order Service</text></g><!--entity FavoritesService--><g class="entity" data-qualified-name="Business Layer.FavoritesService" data-source-line="20" id="ent0011"><rect fill="#F1F1F1" height="37.6094" rx="2.5" ry="2.5" style="stroke:#181818;stroke-width:0.5;" width="128.1445" x="645.3136" y="433.8394"/><text fill="#000000" font-family="sans-serif" font-size="14" lengthAdjust="spacing" textLength="108.1445" x="655.3136" y="458.3726">Favorites Service</text></g><!--entity AdminProductService--><g class="entity" data-qualified-name="Business Layer.AdminProductService" data-source-line="21" id="ent0012"><rect fill="#F1F1F1" height="37.6094" rx="2.5" ry="2.5" style="stroke:#181818;stroke-width:0.5;" width="247.999" x="585.3136" y="579.8394"/><text fill="#000000" font-family="sans-serif" font-size="14" lengthAdjust="spacing" textLength="227.999" x="595.3136" y="604.3726">Admin Product Management Service</text></g><!--entity AdminOrderService--><g class="entity" data-qualified-name="Business Layer.AdminOrderService" data-source-line="22" id="ent0013"><rect fill="#F1F1F1" height="37.6094" rx="2.5" ry="2.5" style="stroke:#181818;stroke-width:0.5;" width="235.5371" x="591.3136" y="652.8394"/><text fill="#000000" font-family="sans-serif" font-size="14" lengthAdjust="spacing" textLength="215.5371" x="601.3136" y="677.3726">Admin Order Management Service</text></g><!--entity AdminUserService--><g class="entity" data-qualified-name="Business Layer.AdminUserService" data-source-line="23" id="ent0014"><rect fill="#F1F1F1" height="37.6094" rx="2.5" ry="2.5" style="stroke:#181818;stroke-width:0.5;" width="229.3096" x="594.8136" y="506.8394"/><text fill="#000000" font-family="sans-serif" font-size="14" lengthAdjust="spacing" textLength="209.3096" x="604.8136" y="531.3726">Admin User Management Service</text></g><!--entity SecurityValidation--><g class="entity" data-qualified-name="Business Layer.SecurityValidation" data-source-line="24" id="ent0015"><rect fill="#F1F1F1" height="37.6094" rx="2.5" ry="2.5" style="stroke:#181818;stroke-width:0.5;" width="184.2061" x="617.3136" y="214.8394"/><text fill="#000000" font-family="sans-serif" font-size="14" lengthAdjust="spacing" textLength="164.2061" x="627.3136" y="239.3726">Input Validation &amp; Security</text></g><!--entity Observability--><g class="entity" data-qualified-name="Business Layer.Observability" data-source-line="25" id="ent0016"><rect fill="#F1F1F1" height="37.6094" rx="2.5" ry="2.5" style="stroke:#181818;stroke-width:0.5;" width="211.4404" x="603.8136" y="725.8394"/><text fill="#000000" font-family="sans-serif" font-size="14" lengthAdjust="spacing" textLength="191.4404" x="613.8136" y="750.3726">Logging &amp; Monitoring Collector</text></g><!--entity UserRepo--><g class="entity" data-qualified-name="Data Layer.UserRepo" data-source-line="29" id="ent0018"><rect fill="#F1F1F1" height="37.6094" rx="2.5" ry="2.5" style="stroke:#181818;stroke-width:0.5;" width="120.3652" x="1167.3136" y="530.8394"/><text fill="#000000" font-family="sans-serif" font-size="14" lengthAdjust="spacing" textLength="100.3652" x="1177.3136" y="555.3726">User Repository</text></g><!--entity ProductRepo--><g class="entity" data-qualified-name="Data Layer.ProductRepo" data-source-line="30" id="ent0019"><rect fill="#F1F1F1" height="37.6094" rx="2.5" ry="2.5" style="stroke:#181818;stroke-width:0.5;" width="139.0547" x="1157.8136" y="603.8394"/><text fill="#000000" font-family="sans-serif" font-size="14" lengthAdjust="spacing" textLength="119.0547" x="1167.8136" y="628.3726">Product Repository</text></g><!--entity OrderRepo--><g class="entity" data-qualified-name="Data Layer.OrderRepo" data-source-line="31" id="ent0020"><rect fill="#F1F1F1" height="37.6094" rx="2.5" ry="2.5" style="stroke:#181818;stroke-width:0.5;" width="126.5928" x="1163.8136" y="822.8394"/><text fill="#000000" font-family="sans-serif" font-size="14" lengthAdjust="spacing" textLength="106.5928" x="1173.8136" y="847.3726">Order Repository</text></g><!--entity FavoritesRepo--><g class="entity" data-qualified-name="Data Layer.FavoritesRepo" data-source-line="32" id="ent0021"><rect fill="#F1F1F1" height="37.6094" rx="2.5" ry="2.5" style="stroke:#181818;stroke-width:0.5;" width="148.3789" x="1153.3136" y="749.8394"/><text fill="#000000" font-family="sans-serif" font-size="14" lengthAdjust="spacing" textLength="128.3789" x="1163.3136" y="774.3726">Favorites Repository</text></g><!--entity TagRepo--><g class="entity" data-qualified-name="Data Layer.TagRepo" data-source-line="33" id="ent0022"><rect fill="#F1F1F1" height="37.6094" rx="2.5" ry="2.5" style="stroke:#181818;stroke-width:0.5;" width="175.627" x="1139.3136" y="676.8394"/><text fill="#000000" font-family="sans-serif" font-size="14" lengthAdjust="spacing" textLength="155.627" x="1149.3136" y="701.3726">Tag/Category Repository</text></g><!--entity AdminLogRepo--><g class="entity" data-qualified-name="Data Layer.AdminLogRepo" data-source-line="34" id="ent0023"><rect fill="#F1F1F1" height="37.6094" rx="2.5" ry="2.5" style="stroke:#181818;stroke-width:0.5;" width="157.7373" x="1148.3136" y="895.8394"/><text fill="#000000" font-family="sans-serif" font-size="14" lengthAdjust="spacing" textLength="137.7373" x="1158.3136" y="920.3726">Admin Log Repository</text></g><!--entity MainDB--><g class="entity" data-qualified-name="Data Entity Layer .Database..MainDB" data-source-line="38" id="ent0025"><path d="M1391.3136,719.3394 C1391.3136,709.3394 1461.2306,709.3394 1461.2306,709.3394 C1461.2306,709.3394 1531.1476,709.3394 1531.1476,719.3394 L1531.1476,745.9488 C1531.1476,755.9488 1461.2306,755.9488 1461.2306,755.9488 C1461.2306,755.9488 1391.3136,755.9488 1391.3136,745.9488 L1391.3136,719.3394" fill="#F1F1F1" style="stroke:#181818;stroke-width:0.5;"/><path d="M1391.3136,719.3394 C1391.3136,729.3394 1461.2306,729.3394 1461.2306,729.3394 C1461.2306,729.3394 1531.1476,729.3394 1531.1476,719.3394" fill="none" style="stroke:#181818;stroke-width:0.5;"/><text fill="#000000" font-family="sans-serif" font-size="14" lengthAdjust="spacing" textLength="119.834" x="1401.3136" y="747.8726">Main Relational DB</text></g><!--entity WeChatPlatform--><g class="entity" data-qualified-name="WeChatPlatform" data-source-line="7" id="ent0001"><path d="M15.8475,329.4164 C19.0314,322.179 25.945,323.0014 29.9999,328.4441 C34.6424,321.4223 41.2221,320.5782 45.6785,328.6376 C48.2321,321.5874 55.5672,319.8069 60.6169,325.7728 C63.8915,319.3353 70.2315,319.1794 73.7428,325.5299 C78.2603,319.2117 84.545,318.2502 88.9828,325.6188 C92.2329,317.797 99.0718,318.7219 103.2835,324.6161 C107.2646,316.7119 112.8434,317.9172 117.5516,323.8672 C122.098,317.0542 130.0691,315.8308 133.9498,324.5692 C138.239,318.6872 144.8163,317.6151 148.5599,325.1629 C153.5694,317.8463 158.8513,318.4351 163.7599,325.2713 C168.708,319.5019 173.2386,320.0107 177.662,325.897 C183.5115,318.2238 189.6376,320.9905 193.5448,327.9983 C197.8378,321.7356 204.7984,320.4569 208.5175,328.595 C213.4271,320.894 220.5676,323.9231 223.6216,330.551 C232.8498,330.7126 236.4031,334.9627 231.9079,343.7438 C237.6236,352.9743 233.104,359.6032 223.0883,360.605 C220.2516,367.834 213.3552,369.2939 208.08,363.3922 C203.6348,371.5812 195.8466,370.1352 191.9012,362.869 C188.2242,370.2982 181.0345,370.4832 176.7294,363.5317 C174.2798,371.8558 169.5749,372.0787 163.4274,367.2801 C158.835,376.002 151.5994,374.1026 147.2258,367.0554 C143.5719,374.1079 138.5129,374.161 133.5375,368.4754 C129.8017,374.9071 122.9674,375.1195 118.9349,368.8155 C113.8018,375.2211 108.2697,377.0956 103.2315,368.7147 C98.0244,375.2561 93.7064,374.0182 90.0711,367.1699 C85.368,373.8075 79.5295,373.4958 74.7077,367.3122 C69.3105,374.3715 61.7081,372.4531 58.4597,364.9197 C53.5491,371.6529 48.4513,370.5202 44.2321,364.168 C39.2077,371.4392 32.5339,371.2531 28.5761,363.0863 C23.554,369.276 19.2999,367.3707 15.9129,361.3856 C8.0928,356.8153 6,350.6968 13.8836,344.2652 C8.4105,339.6731 8.5441,332.3186 15.8475,329.4164" fill="#F1F1F1" style="stroke:#181818;stroke-width:0.5;"/><text fill="#000000" font-family="sans-serif" font-size="14" lengthAdjust="spacing" textLength="193.7168" x="20.3136" y="349.3726">WeChat Mini Program Platform</text></g><!--link WeChatPlatform to ClientApp--><g class="link" data-entity-1="ent0001" data-entity-2="ent0003" data-link-type="dependency" data-source-line="41" id="lnk26"><path d="M229.6636,343.8394 C255.6236,343.8394 278.0736,343.8394 303.4036,343.8394" fill="none" id="WeChatPlatform-to-ClientApp" style="stroke:#808080;stroke-width:1;stroke-dasharray:7,7;"/><polygon fill="#808080" points="308.4036,343.8394,299.4036,339.8394,303.4036,343.8394,299.4036,347.8394,308.4036,343.8394" style="stroke:#808080;stroke-width:1;stroke-linejoin:miter;stroke-miterlimit:10;"/></g><!--link ClientApp to AuthService--><g class="link" data-entity-1="ent0003" data-entity-2="ent0006" data-link-type="dependency" data-source-line="43" id="lnk27"><path d="M421.9136,298.7794 C441.9736,241.3394 485.5236,144.4894 561.3136,102.8394 C667.2536,44.6094 719.9936,60.7394 833.3136,102.8394 C893.7336,125.2794 943.0861,179.7903 967.5461,210.4603" fill="none" id="ClientApp-to-AuthService" style="stroke:#181818;stroke-width:1;"/><polygon fill="#181818" points="970.6636,214.3694,968.1793,204.839,967.5461,210.4603,961.9248,209.8271,970.6636,214.3694" style="stroke:#181818;stroke-width:1;stroke-linejoin:miter;stroke-miterlimit:10;"/></g><!--link ClientApp to SearchService--><g class="link" data-entity-1="ent0003" data-entity-2="ent0009" data-link-type="dependency" data-source-line="44" id="lnk28"><path d="M506.1336,355.5694 C540.8436,359.7394 574.8491,363.8246 609.2391,367.9446" fill="none" id="ClientApp-to-SearchService" style="stroke:#181818;stroke-width:1;"/><polygon fill="#181818" points="614.2036,368.5394,605.7434,363.4972,609.2391,367.9446,604.7917,371.4404,614.2036,368.5394" style="stroke:#181818;stroke-width:1;stroke-linejoin:miter;stroke-miterlimit:10;"/></g><!--link ClientApp to ProductService--><g class="link" data-entity-1="ent0003" data-entity-2="ent0008" data-link-type="dependency" data-source-line="45" id="lnk29"><path d="M428.8636,298.5694 C453.0236,251.5094 498.0136,180.5294 561.3136,149.8394 C670.0836,97.0894 730.4836,86.2794 833.3136,149.8394 C884.0336,181.1794 849.4736,229.4194 893.3136,269.8394 C902.8036,278.5894 910.0527,283.3857 922.0327,288.6257" fill="none" id="ClientApp-to-ProductService" style="stroke:#181818;stroke-width:1;"/><polygon fill="#181818" points="926.6136,290.6294,919.9709,283.358,922.0327,288.6257,916.765,290.6875,926.6136,290.6294" style="stroke:#181818;stroke-width:1;stroke-linejoin:miter;stroke-miterlimit:10;"/></g><!--link ClientApp to OrderService--><g class="link" data-entity-1="ent0003" data-entity-2="ent0010" data-link-type="dependency" data-source-line="46" id="lnk30"><path d="M439.7536,298.6494 C467.2136,263.4594 510.5736,217.2594 561.3136,196.8394 C673.4536,151.6894 732.8936,129.5294 833.3136,196.8394 C891.5936,235.8894 843.5236,293.4194 893.3136,342.8394 C904.3136,353.7494 914.2799,359.7569 928.6399,365.3069" fill="none" id="ClientApp-to-OrderService" style="stroke:#181818;stroke-width:1;"/><polygon fill="#181818" points="933.3036,367.1094,926.3508,360.1338,928.6399,365.3069,923.4668,367.5959,933.3036,367.1094" style="stroke:#181818;stroke-width:1;stroke-linejoin:miter;stroke-miterlimit:10;"/></g><!--link ClientApp to FavoritesService--><g class="link" data-entity-1="ent0003" data-entity-2="ent0011" data-link-type="dependency" data-source-line="47" id="lnk31"><path d="M506.0736,384.0894 C520.8436,391.1394 535.6836,398.8094 549.3136,406.8394 C555.0636,410.2194 555.2936,412.9694 561.3136,415.8394 C587.5636,428.3494 613.645,435.91 640.385,441.65" fill="none" id="ClientApp-to-FavoritesService" style="stroke:#181818;stroke-width:1;"/><polygon fill="#181818" points="645.2736,442.6994,637.3136,436.8996,640.385,441.65,635.6346,444.7214,645.2736,442.6994" style="stroke:#181818;stroke-width:1;stroke-linejoin:miter;stroke-miterlimit:10;"/></g><!--link ClientApp to UserService--><g class="link" data-entity-1="ent0003" data-entity-2="ent0007" data-link-type="dependency" data-source-line="48" id="lnk32"><path d="M506.1336,331.7694 C557.2536,325.4694 612.6612,318.6311 654.0312,313.5311" fill="none" id="ClientApp-to-UserService" style="stroke:#181818;stroke-width:1;"/><polygon fill="#181818" points="658.9936,312.9194,649.5719,310.0506,654.0312,313.5311,650.5507,317.9905,658.9936,312.9194" style="stroke:#181818;stroke-width:1;stroke-linejoin:miter;stroke-miterlimit:10;"/></g><!--link AdminConsole to AuthService--><g class="link" data-entity-1="ent0004" data-entity-2="ent0006" data-link-type="dependency" data-source-line="50" id="lnk33"><path d="M525.3336,427.0994 C534.4836,421.3994 542.7136,414.3994 549.3136,405.8394 C563.5136,387.4094 544.4036,212.7994 561.3136,196.8394 C668.7636,95.3794 862.6172,172.8426 944.2472,212.5426" fill="none" id="AdminConsole-to-AuthService" style="stroke:#181818;stroke-width:1;"/><polygon fill="#181818" points="948.7436,214.7294,942.3995,207.196,944.2472,212.5426,938.9006,214.3903,948.7436,214.7294" style="stroke:#181818;stroke-width:1;stroke-linejoin:miter;stroke-miterlimit:10;"/></g><!--link AdminConsole to AdminProductService--><g class="link" data-entity-1="ent0004" data-entity-2="ent0012" data-link-type="dependency" data-source-line="51" id="lnk34"><path d="M439.2136,479.4694 C468.6436,504.4194 515.1736,540.3994 561.3136,561.8394 C576.8236,569.0394 589.1371,573.602 606.0271,578.442" fill="none" id="AdminConsole-to-AdminProductService" style="stroke:#181818;stroke-width:1;"/><polygon fill="#181818" points="610.8336,579.8194,603.2838,573.4949,606.0271,578.442,601.08,581.1854,610.8336,579.8194" style="stroke:#181818;stroke-width:1;stroke-linejoin:miter;stroke-miterlimit:10;"/></g><!--link AdminConsole to AdminOrderService--><g class="link" data-entity-1="ent0004" data-entity-2="ent0013" data-link-type="dependency" data-source-line="52" id="lnk35"><path d="M423.6636,479.4894 C447.6336,520.0094 497.8236,594.9894 561.3136,634.8394 C573.0136,642.1794 581.3873,646.4093 594.7973,651.1293" fill="none" id="AdminConsole-to-AdminOrderService" style="stroke:#181818;stroke-width:1;"/><polygon fill="#181818" points="599.5136,652.7894,592.3522,646.0282,594.7973,651.1293,589.6961,653.5744,599.5136,652.7894" style="stroke:#181818;stroke-width:1;stroke-linejoin:miter;stroke-miterlimit:10;"/></g><!--link AdminConsole to AdminUserService--><g class="link" data-entity-1="ent0004" data-entity-2="ent0014" data-link-type="dependency" data-source-line="53" id="lnk36"><path d="M520.0236,479.3894 C557.0036,488.5094 592.4589,497.2629 626.2589,505.5929" fill="none" id="AdminConsole-to-AdminUserService" style="stroke:#181818;stroke-width:1;"/><polygon fill="#181818" points="631.1136,506.7894,623.3323,500.752,626.2589,505.5929,621.418,508.5196,631.1136,506.7894" style="stroke:#181818;stroke-width:1;stroke-linejoin:miter;stroke-miterlimit:10;"/></g><!--link SecurityValidation to AuthService--><g class="link" data-entity-1="ent0015" data-entity-2="ent0006" data-link-type="dependency" data-source-line="55" id="lnk37"><path d="M801.5036,233.8394 C830.8936,233.8394 858.4836,233.8394 887.9636,233.8394" fill="none" id="SecurityValidation-to-AuthService" style="stroke:#181818;stroke-width:1;stroke-dasharray:7,7;"/><polygon fill="#181818" points="892.9636,233.8394,883.9636,229.8394,887.9636,233.8394,883.9636,237.8394,892.9636,233.8394" style="stroke:#181818;stroke-width:1;stroke-linejoin:miter;stroke-miterlimit:10;"/></g><!--link SecurityValidation to ProductService--><g class="link" data-entity-1="ent0015" data-entity-2="ent0008" data-link-type="dependency" data-source-line="56" id="lnk38"><path d="M782.2036,252.9194 C827.2436,264.8794 879.7109,278.8071 921.9609,290.0171" fill="none" id="SecurityValidation-to-ProductService" style="stroke:#181818;stroke-width:1;stroke-dasharray:7,7;"/><polygon fill="#181818" points="926.7936,291.2994,919.1204,285.1251,921.9609,290.0171,917.0688,292.8575,926.7936,291.2994" style="stroke:#181818;stroke-width:1;stroke-linejoin:miter;stroke-miterlimit:10;"/></g><!--link SecurityValidation to OrderService--><g class="link" data-entity-1="ent0015" data-entity-2="ent0010" data-link-type="dependency" data-source-line="57" id="lnk39"><path d="M799.1936,252.8494 C811.1836,257.3794 822.9136,262.9694 833.3136,269.8394 C868.3536,292.9794 859.4436,317.9994 893.3136,342.8394 C905.2536,351.5894 914.9122,356.7801 928.6422,362.2801" fill="none" id="SecurityValidation-to-OrderService" style="stroke:#181818;stroke-width:1;stroke-dasharray:7,7;"/><polygon fill="#181818" points="933.2836,364.1394,926.4165,357.0795,928.6422,362.2801,923.4416,364.5058,933.2836,364.1394" style="stroke:#181818;stroke-width:1;stroke-linejoin:miter;stroke-miterlimit:10;"/></g><!--link AuthService to UserRepo--><g class="link" data-entity-1="ent0006" data-entity-2="ent0018" data-link-type="dependency" data-source-line="59" id="lnk40"><path d="M1077.0736,252.8894 C1086.6036,257.3894 1095.6036,262.9494 1103.3136,269.8394 C1185.0936,342.8594 1214.1423,475.329 1222.6423,525.739" fill="none" id="AuthService-to-UserRepo" style="stroke:#181818;stroke-width:1;"/><polygon fill="#181818" points="1223.4736,530.6694,1225.9215,521.1296,1222.6423,525.739,1218.0329,522.4597,1223.4736,530.6694" style="stroke:#181818;stroke-width:1;stroke-linejoin:miter;stroke-miterlimit:10;"/></g><!--link UserService to UserRepo--><g class="link" data-entity-1="ent0007" data-entity-2="ent0018" data-link-type="dependency" data-source-line="60" id="lnk41"><path d="M759.6036,314.2594 C783.3236,319.5094 811.3136,328.2994 833.3136,342.8394 C868.3536,365.9794 859.2636,391.2494 893.3136,415.8394 C974.4136,474.4094 1010.6936,459.0394 1103.3136,496.8394 C1130.0136,507.7294 1155.1214,518.5086 1178.6414,528.7786" fill="none" id="UserService-to-UserRepo" style="stroke:#181818;stroke-width:1;"/><polygon fill="#181818" points="1183.2236,530.7794,1176.5763,523.5121,1178.6414,528.7786,1173.375,530.8437,1183.2236,530.7794" style="stroke:#181818;stroke-width:1;stroke-linejoin:miter;stroke-miterlimit:10;"/></g><!--link ProductService to ProductRepo--><g class="link" data-entity-1="ent0008" data-entity-2="ent0019" data-link-type="dependency" data-source-line="61" id="lnk42"><path d="M1046.0136,311.2394 C1067.3736,315.9594 1089.6136,325.1694 1103.3136,342.8394 C1136.4436,385.5594 1082.6236,542.7694 1115.3136,585.8394 C1125.6936,599.5094 1136.5761,606.5908 1152.8461,612.0808" fill="none" id="ProductService-to-ProductRepo" style="stroke:#181818;stroke-width:1;"/><polygon fill="#181818" points="1157.5836,613.6794,1150.3349,607.0118,1152.8461,612.0808,1147.7772,614.5919,1157.5836,613.6794" style="stroke:#181818;stroke-width:1;stroke-linejoin:miter;stroke-miterlimit:10;"/></g><!--link SearchService to TagRepo--><g class="link" data-entity-1="ent0009" data-entity-2="ent0022" data-link-type="dependency" data-source-line="62" id="lnk43"><path d="M804.5536,397.3294 C815.0636,402.0994 824.9636,408.1494 833.3136,415.8394 C887.9636,466.1494 840.9536,519.1394 893.3136,571.8394 C959.5136,638.4594 1059.8443,668.7515 1134.2743,683.1215" fill="none" id="SearchService-to-TagRepo" style="stroke:#181818;stroke-width:1;"/><polygon fill="#181818" points="1139.1836,684.0694,1131.1051,678.4358,1134.2743,683.1215,1129.5886,686.2907,1139.1836,684.0694" style="stroke:#181818;stroke-width:1;stroke-linejoin:miter;stroke-miterlimit:10;"/></g><!--link SearchService to ProductRepo--><g class="link" data-entity-1="ent0009" data-entity-2="ent0019" data-link-type="dependency" data-source-line="63" id="lnk44"><path d="M801.5836,398.9094 C812.8236,403.4194 823.7236,408.9794 833.3136,415.8394 C870.9336,442.7194 856.0136,473.4994 893.3136,500.8394 C972.3336,558.7494 1025.0736,508.8694 1103.3136,567.8394 C1110.9936,573.6194 1107.6736,579.9994 1115.3136,585.8394 C1127.7436,595.3294 1138.0258,600.7753 1152.9258,606.1053" fill="none" id="SearchService-to-ProductRepo" style="stroke:#181818;stroke-width:1;"/><polygon fill="#181818" points="1157.6336,607.7894,1150.5068,600.9917,1152.9258,606.1053,1147.8123,608.5243,1157.6336,607.7894" style="stroke:#181818;stroke-width:1;stroke-linejoin:miter;stroke-miterlimit:10;"/></g><!--link OrderService to OrderRepo--><g class="link" data-entity-1="ent0010" data-entity-2="ent0020" data-link-type="dependency" data-source-line="64" id="lnk45"><path d="M987.2236,398.9794 C987.9536,464.9594 999.3536,685.4294 1115.3136,804.8394 C1128.2636,818.1694 1141.3569,825.2219 1158.9769,830.6719" fill="none" id="OrderService-to-OrderRepo" style="stroke:#181818;stroke-width:1;"/><polygon fill="#181818" points="1163.7536,832.1494,1156.3375,825.6685,1158.9769,830.6719,1153.9736,833.3113,1163.7536,832.1494" style="stroke:#181818;stroke-width:1;stroke-linejoin:miter;stroke-miterlimit:10;"/></g><!--link FavoritesService to FavoritesRepo--><g class="link" data-entity-1="ent0011" data-entity-2="ent0021" data-link-type="dependency" data-source-line="65" id="lnk46"><path d="M773.4036,459.0794 C794.8036,464.1094 817.3236,473.0394 833.3136,488.8394 C898.1236,552.8594 827.3036,622.0494 893.3136,684.8394 C930.3036,720.0194 1061.8707,744.966 1148.2107,758.126" fill="none" id="FavoritesService-to-FavoritesRepo" style="stroke:#181818;stroke-width:1;"/><polygon fill="#181818" points="1153.1536,758.8794,1144.8591,753.5689,1148.2107,758.126,1143.6537,761.4776,1153.1536,758.8794" style="stroke:#181818;stroke-width:1;stroke-linejoin:miter;stroke-miterlimit:10;"/></g><!--link AdminProductService to ProductRepo--><g class="link" data-entity-1="ent0012" data-entity-2="ent0019" data-link-type="dependency" data-source-line="66" id="lnk47"><path d="M794.8336,617.8694 C808.1436,622.4694 821.4236,628.0594 833.3136,634.8394 C865.0036,652.8894 859.3736,677.4594 893.3136,690.8394 C980.1436,725.0594 1026.6036,743.9994 1103.3136,690.8394 C1115.7936,682.1794 1104.3336,669.3294 1115.3136,658.8394 C1127.0336,647.6394 1137.5364,641.5483 1152.9464,636.2383" fill="none" id="AdminProductService-to-ProductRepo" style="stroke:#181818;stroke-width:1;"/><polygon fill="#181818" points="1157.6736,634.6094,1147.8615,633.7596,1152.9464,636.2383,1150.4678,641.3232,1157.6736,634.6094" style="stroke:#181818;stroke-width:1;stroke-linejoin:miter;stroke-miterlimit:10;"/></g><!--link AdminOrderService to OrderRepo--><g class="link" data-entity-1="ent0013" data-entity-2="ent0020" data-link-type="dependency" data-source-line="67" id="lnk48"><path d="M780.3436,690.8794 C797.7636,696.0194 816.3236,701.8294 833.3136,707.8394 C860.5536,717.4594 866.2336,722.7794 893.3136,732.8394 C986.4036,767.4094 1091.404,800.7413 1158.734,821.4213" fill="none" id="AdminOrderService-to-OrderRepo" style="stroke:#181818;stroke-width:1;"/><polygon fill="#181818" points="1163.5136,822.8894,1156.0847,816.4232,1158.734,821.4213,1153.7359,824.0706,1163.5136,822.8894" style="stroke:#181818;stroke-width:1;stroke-linejoin:miter;stroke-miterlimit:10;"/></g><!--link AdminUserService to UserRepo--><g class="link" data-entity-1="ent0014" data-entity-2="ent0018" data-link-type="dependency" data-source-line="68" id="lnk49"><path d="M823.8736,531.1194 C929.8036,536.0394 1078.679,542.9672 1162.129,546.8472" fill="none" id="AdminUserService-to-UserRepo" style="stroke:#181818;stroke-width:1;"/><polygon fill="#181818" points="1167.1236,547.0794,1158.3191,542.6657,1162.129,546.8472,1157.9476,550.6571,1167.1236,547.0794" style="stroke:#181818;stroke-width:1;stroke-linejoin:miter;stroke-miterlimit:10;"/></g><!--link AdminProductService to AdminLogRepo--><g class="link" data-entity-1="ent0012" data-entity-2="ent0023" data-link-type="dependency" data-source-line="69" id="lnk50"><path d="M811.9836,617.9794 C819.9336,622.4994 827.2236,628.0394 833.3136,634.8394 C935.6836,749.1394 775.7636,876.2094 893.3136,974.8394 C982.6436,1049.7794 1129.3821,975.0282 1192.7121,936.4982" fill="none" id="AdminProductService-to-AdminLogRepo" style="stroke:#181818;stroke-width:1;"/><polygon fill="#181818" points="1196.9836,933.8994,1187.2158,935.16,1192.7121,936.4982,1191.3739,941.9945,1196.9836,933.8994" style="stroke:#181818;stroke-width:1;stroke-linejoin:miter;stroke-miterlimit:10;"/></g><!--link AdminOrderService to AdminLogRepo--><g class="link" data-entity-1="ent0013" data-entity-2="ent0023" data-link-type="dependency" data-source-line="70" id="lnk51"><path d="M811.9736,690.9894 C819.9336,695.4994 827.2236,701.0394 833.3136,707.8394 C935.1536,821.4394 776.3836,947.8294 893.3136,1045.8394 C964.8436,1105.7894 1017.6536,1082.9094 1103.3136,1045.8394 C1156.2836,1022.9094 1194.3339,968.9864 1212.8139,938.4664" fill="none" id="AdminOrderService-to-AdminLogRepo" style="stroke:#181818;stroke-width:1;"/><polygon fill="#181818" points="1215.4036,934.1894,1207.3204,939.8162,1212.8139,938.4664,1214.1637,943.9599,1215.4036,934.1894" style="stroke:#181818;stroke-width:1;stroke-linejoin:miter;stroke-miterlimit:10;"/></g><!--link AdminUserService to AdminLogRepo--><g class="link" data-entity-1="ent0014" data-entity-2="ent0023" data-link-type="dependency" data-source-line="71" id="lnk52"><path d="M809.3436,544.8494 C818.1536,549.3694 826.3536,554.9494 833.3136,561.8394 C898.3836,626.1994 835.2536,688.0794 893.3136,758.8394 C958.1136,837.7994 1067.1538,877.7439 1143.4438,897.5339" fill="none" id="AdminUserService-to-AdminLogRepo" style="stroke:#181818;stroke-width:1;"/><polygon fill="#181818" points="1148.2836,898.7894,1140.5764,892.6577,1143.4438,897.5339,1138.5676,900.4014,1148.2836,898.7894" style="stroke:#181818;stroke-width:1;stroke-linejoin:miter;stroke-miterlimit:10;"/></g><!--link Observability to AdminLogRepo--><g class="link" data-entity-1="ent0016" data-entity-2="ent0023" data-link-type="dependency" data-source-line="72" id="lnk53"><path d="M712.7836,764.1094 C722.1536,828.2494 761.9436,1035.0594 893.3136,1116.8394 C972.5436,1166.1594 1021.9436,1162.5594 1103.3136,1116.8394 C1174.7236,1076.7094 1208.1806,981.2628 1220.0706,938.9628" fill="none" id="Observability-to-AdminLogRepo" style="stroke:#181818;stroke-width:1;"/><polygon fill="#181818" points="1221.4236,934.1494,1215.1375,941.7312,1220.0706,938.9628,1222.839,943.896,1221.4236,934.1494" style="stroke:#181818;stroke-width:1;stroke-linejoin:miter;stroke-miterlimit:10;"/></g><!--link UserRepo to MainDB--><g class="link" data-entity-1="ent0018" data-entity-2="ent0025" data-link-type="dependency" data-source-line="74" id="lnk54"><path d="M1287.3536,562.2194 C1305.0336,567.6594 1323.8236,575.2894 1339.3136,585.8394 C1387.8036,618.8594 1424.6347,672.4818 1444.2447,704.8818" fill="none" id="UserRepo-to-MainDB" style="stroke:#181818;stroke-width:1;"/><polygon fill="#181818" points="1446.8336,709.1594,1445.5955,699.3886,1444.2447,704.8818,1438.7515,703.531,1446.8336,709.1594" style="stroke:#181818;stroke-width:1;stroke-linejoin:miter;stroke-miterlimit:10;"/></g><!--link ProductRepo to MainDB--><g class="link" data-entity-1="ent0019" data-entity-2="ent0025" data-link-type="dependency" data-source-line="75" id="lnk55"><path d="M1295.6136,641.8494 C1310.2636,646.7594 1325.5136,652.4794 1339.3136,658.8394 C1370.1836,673.0394 1398.7764,690.6514 1422.4064,706.4414" fill="none" id="ProductRepo-to-MainDB" style="stroke:#181818;stroke-width:1;"/><polygon fill="#181818" points="1426.5636,709.2194,1421.3029,700.8932,1422.4064,706.4414,1416.8582,707.5449,1426.5636,709.2194" style="stroke:#181818;stroke-width:1;stroke-linejoin:miter;stroke-miterlimit:10;"/></g><!--link OrderRepo to MainDB--><g class="link" data-entity-1="ent0020" data-entity-2="ent0025" data-link-type="dependency" data-source-line="76" id="lnk56"><path d="M1290.8736,823.5994 C1306.9236,818.2094 1323.9836,811.8494 1339.3136,804.8394 C1369.5436,790.9994 1397.6001,774.2468 1421.2001,759.0468" fill="none" id="OrderRepo-to-MainDB" style="stroke:#181818;stroke-width:1;"/><polygon fill="#181818" points="1425.4036,756.3394,1415.6713,757.8498,1421.2001,759.0468,1420.0031,764.5755,1425.4036,756.3394" style="stroke:#181818;stroke-width:1;stroke-linejoin:miter;stroke-miterlimit:10;"/></g><!--link FavoritesRepo to MainDB--><g class="link" data-entity-1="ent0021" data-entity-2="ent0025" data-link-type="dependency" data-source-line="77" id="lnk57"><path d="M1301.4036,757.4894 C1330.0936,753.0394 1357.9127,748.7258 1386.2127,744.3358" fill="none" id="FavoritesRepo-to-MainDB" style="stroke:#181818;stroke-width:1;"/><polygon fill="#181818" points="1391.1536,743.5694,1381.6469,740.9963,1386.2127,744.3358,1382.8732,748.9017,1391.1536,743.5694" style="stroke:#181818;stroke-width:1;stroke-linejoin:miter;stroke-miterlimit:10;"/></g><!--link TagRepo to MainDB--><g class="link" data-entity-1="ent0022" data-entity-2="ent0025" data-link-type="dependency" data-source-line="78" id="lnk58"><path d="M1315.3636,709.7194 C1340.4336,713.7194 1362.4961,717.2317 1386.3161,721.0317" fill="none" id="TagRepo-to-MainDB" style="stroke:#181818;stroke-width:1;"/><polygon fill="#181818" points="1391.2536,721.8194,1382.9962,716.4515,1386.3161,721.0317,1381.7359,724.3516,1391.2536,721.8194" style="stroke:#181818;stroke-width:1;stroke-linejoin:miter;stroke-miterlimit:10;"/></g><!--link AdminLogRepo to MainDB--><g class="link" data-entity-1="ent0023" data-entity-2="ent0025" data-link-type="dependency" data-source-line="79" id="lnk59"><path d="M1304.4236,895.7494 C1316.6536,890.9494 1328.7436,885.0494 1339.3136,877.8394 C1387.2536,845.1394 1424.1083,792.5885 1443.9183,760.6485" fill="none" id="AdminLogRepo-to-MainDB" style="stroke:#181818;stroke-width:1;"/><polygon fill="#181818" points="1446.5536,756.3994,1438.4107,761.9394,1443.9183,760.6485,1445.2092,766.156,1446.5536,756.3994" style="stroke:#181818;stroke-width:1;stroke-linejoin:miter;stroke-miterlimit:10;"/></g><?plantuml-src VLJRRjim37ttLn0PKBH0qlp1W5nMT4231Uqk3siV55jrXCgI8SaTWc7_Fbgo4z6o-sRp79A7DpdX98SDg-h6mZsNDJUmbyozQbF10kvqOnOFx8JMbScFml7SDOPdcUIl3fm68ygZWq8O18HMcNqJgcQ6LP3hgjQAA_VaJfYY9J1LIXvHQfQ_iP8F2LakTLF0x1VV79c3dL02zaQNhKklRGRCGY3qfYphui5iRxZ5pAoL15x-3FvcSD4q7dmZ1MBFwlfULtovrtKZcPbZTnmljJdDdnKoYoPtiEME2Jc7RwRWfhLpOxLY4ZOOW9iRBo-4MzKrpRmgAg5G-m4sMbajEIRiuYvzlEKFY_tUCOMrLEWIedctpYFx5nMxRgnGtDg9GbUDEy8LeC9AMDisv8cRTv7p41NHxf-wUGqnipMCClkUnEJEDif_uWnN2IMjZVw3qalY6T1HHzySGlQMKUuTUzS6rzKI_jawwXC6qvTpwJzjM4lwgBmG9MZzACQqzX1Xi0HfWCc1V5Lru-0daw885t25pdc3XP-w5eUV2uFwF-YoRCTo1JkjXCEEuSz6IuaNgare_06JlxE3a1Y7REEMEJQnYRwYHrvhsmOzdRUgDOslr83ScLD-wFQ0xOqfzx8P0_uPI7s-itBPlm93DyHIXp12REIGxG6qUvUaRr-Kmtw6zi5rQpemosz29ulk5sOxXi4VkVIpmqTdk_QnM_DstKQb3oCiVd_2z-qqBvWzyk9byJbwchBp9omGYDy3Yj33fDZW7YX85fr2oJrIEDxmB7x_4gafE7AcuoGYRvn2TAJN0xUtLCq4PI1dWaNqP57OSqlyxaIQA42pnEFnC1cZH_i5Jf7OBvPr6Qk7XbEae_MKaN4a6P9f3D8CHq7Bdif03cuyHKePPY4CylQbSDPByb1tar6TiVbSN6madOk1Rb2nASuSs_y3?></g></svg>