<svg xmlns="http://www.w3.org/2000/svg" xmlns:xlink="http://www.w3.org/1999/xlink" contentStyleType="text/css" data-diagram-type="DESCRIPTION" height="969px" preserveAspectRatio="none" style="width:1845px;height:969px;background:#FFFFFF;" version="1.1" viewBox="0 0 1845 969" width="1845px" zoomAndPan="magnify"><?plantuml 1.2026.6?><defs/><g><g class="title" data-source-line="1"><text fill="#000000" font-family="sans-serif" font-size="14" font-weight="700" lengthAdjust="spacing" textLength="406.8613" x="716.0369" y="24.5332">Deep Learning Model Sharing Platform - System Architecture</text></g><!--cluster Users--><g class="cluster" data-qualified-name="Users" data-source-line="7" id="ent0001"><path d="M424.5,44.6094 L464.417,44.6094 A3.75,3.75 0 0 1 466.917,47.1094 L473.917,68.2188 L692.5,68.2188 A2.5,2.5 0 0 1 695,70.7188 L695,132.1094 A2.5,2.5 0 0 1 692.5,134.6094 L424.5,134.6094 A2.5,2.5 0 0 1 422,132.1094 L422,47.1094 A2.5,2.5 0 0 1 424.5,44.6094" fill="none" style="stroke:#000000;stroke-width:1.5;"/><line style="stroke:#000000;stroke-width:1.5;" x1="422" x2="473.917" y1="68.2188" y2="68.2188"/><text fill="#000000" font-family="sans-serif" font-size="14" font-weight="700" lengthAdjust="spacing" textLength="38.917" x="426" y="61.1426">Users</text></g><!--cluster Modules--><g class="cluster" data-qualified-name="Modules" data-source-line="19" id="ent0007"><path d="M8.5,543.6094 L146.3896,543.6094 A3.75,3.75 0 0 1 148.8896,546.1094 L155.8896,567.2188 L1456.5,567.2188 A2.5,2.5 0 0 1 1459,569.7188 L1459,719.1094 A2.5,2.5 0 0 1 1456.5,721.6094 L8.5,721.6094 A2.5,2.5 0 0 1 6,719.1094 L6,546.1094 A2.5,2.5 0 0 1 8.5,543.6094" fill="none" style="stroke:#000000;stroke-width:1.5;"/><line style="stroke:#000000;stroke-width:1.5;" x1="6" x2="155.8896" y1="567.2188" y2="567.2188"/><text fill="#000000" font-family="sans-serif" font-size="14" font-weight="700" lengthAdjust="spacing" textLength="136.8896" x="10" y="560.1426">Application Modules</text></g><!--entity GeneralUser--><g class="entity" data-qualified-name="Users.GeneralUser" data-source-line="8" id="ent0002"><rect fill="#F1F1F1" height="37.6094" rx="2.5" ry="2.5" style="stroke:#181818;stroke-width:0.5;" width="103.2549" x="438.5" y="80.6094"/><text fill="#000000" font-family="sans-serif" font-size="14" lengthAdjust="spacing" textLength="83.2549" x="448.5" y="105.1426">General User</text></g><!--entity AdminUser--><g class="entity" data-qualified-name="Users.AdminUser" data-source-line="9" id="ent0003"><rect fill="#F1F1F1" height="37.6094" rx="2.5" ry="2.5" style="stroke:#181818;stroke-width:0.5;" width="102.4688" x="577" y="80.6094"/><text fill="#000000" font-family="sans-serif" font-size="14" lengthAdjust="spacing" textLength="82.4688" x="587" y="105.1426">Administrator</text></g><!--entity Account--><g class="entity" data-qualified-name="Modules.Account" data-source-line="20" id="ent0008"><rect fill="#F1F1F1" height="108.0469" rx="2.5" ry="2.5" style="stroke:#181818;stroke-width:0.5;" width="154.0664" x="22" y="588.6094"/><text fill="#000000" font-family="sans-serif" font-size="14" lengthAdjust="spacing" textLength="100.3926" x="32" y="613.1426">Account Module</text><text fill="#000000" font-family="sans-serif" font-size="14" lengthAdjust="spacing" textLength="122.4248" x="32" y="630.752">&#8226; Registration/Login</text><text fill="#000000" font-family="sans-serif" font-size="14" lengthAdjust="spacing" textLength="134.0664" x="32" y="648.3613">&#8226; Password Recovery</text><text fill="#000000" font-family="sans-serif" font-size="14" lengthAdjust="spacing" textLength="109.1973" x="32" y="665.9707">&#8226; Profile &amp; Logout</text><text fill="#000000" font-family="sans-serif" font-size="14" lengthAdjust="spacing" textLength="89.7285" x="32" y="683.5801">&#8226; AuthN/AuthZ</text></g><!--entity QA--><g class="entity" data-qualified-name="Modules.QA" data-source-line="21" id="ent0009"><rect fill="#F1F1F1" height="72.8281" rx="2.5" ry="2.5" style="stroke:#181818;stroke-width:0.5;" width="99.3721" x="430.5" y="606.1094"/><text fill="#000000" font-family="sans-serif" font-size="14" lengthAdjust="spacing" textLength="79.3721" x="440.5" y="630.6426">Q&amp;A Module</text><text fill="#000000" font-family="sans-serif" font-size="14" lengthAdjust="spacing" textLength="72.6113" x="440.5" y="648.252">&#8226; Questions</text><text fill="#000000" font-family="sans-serif" font-size="14" lengthAdjust="spacing" textLength="63.2598" x="440.5" y="665.8613">&#8226; Answers</text></g><!--entity Blog--><g class="entity" data-qualified-name="Modules.Blog" data-source-line="22" id="ent0010"><rect fill="#F1F1F1" height="72.8281" rx="2.5" ry="2.5" style="stroke:#181818;stroke-width:0.5;" width="97.8271" x="565" y="606.1094"/><text fill="#000000" font-family="sans-serif" font-size="14" lengthAdjust="spacing" textLength="77.8271" x="575" y="630.6426">Blog Module</text><text fill="#000000" font-family="sans-serif" font-size="14" lengthAdjust="spacing" textLength="55.4736" x="575" y="648.252">&#8226; Articles</text><text fill="#000000" font-family="sans-serif" font-size="14" lengthAdjust="spacing" textLength="77.2598" x="575" y="665.8613">&#8226; Comments</text></g><!--entity Model--><g class="entity" data-qualified-name="Modules.Model" data-source-line="23" id="ent0011"><rect fill="#F1F1F1" height="125.6563" rx="2.5" ry="2.5" style="stroke:#181818;stroke-width:0.5;" width="181.3213" x="1261.5" y="579.6094"/><text fill="#000000" font-family="sans-serif" font-size="14" lengthAdjust="spacing" textLength="87.9375" x="1271.5" y="604.1426">Model Module</text><text fill="#000000" font-family="sans-serif" font-size="14" lengthAdjust="spacing" textLength="140.3008" x="1271.5" y="621.752">&#8226; Upload/Review Entry</text><text fill="#000000" font-family="sans-serif" font-size="14" lengthAdjust="spacing" textLength="161.3213" x="1271.5" y="639.3613">&#8226; Download/Modify/Delete</text><text fill="#000000" font-family="sans-serif" font-size="14" lengthAdjust="spacing" textLength="117.7559" x="1271.5" y="656.9707">&#8226; Online Invocation</text><text fill="#000000" font-family="sans-serif" font-size="14" lengthAdjust="spacing" textLength="154.3281" x="1271.5" y="674.5801">&#8226; Recommendation Input</text><text fill="#000000" font-family="sans-serif" font-size="14" lengthAdjust="spacing" textLength="68.7217" x="1271.5" y="692.1895">&#8226; Purchase</text></g><!--entity Dataset--><g class="entity" data-qualified-name="Modules.Dataset" data-source-line="24" id="ent0012"><rect fill="#F1F1F1" height="72.8281" rx="2.5" ry="2.5" style="stroke:#181818;stroke-width:0.5;" width="140.0938" x="1086" y="606.1094"/><text fill="#000000" font-family="sans-serif" font-size="14" lengthAdjust="spacing" textLength="98.0547" x="1096" y="630.6426">Dataset Module</text><text fill="#000000" font-family="sans-serif" font-size="14" lengthAdjust="spacing" textLength="120.0938" x="1096" y="648.252">&#8226; Upload/Download</text><text fill="#000000" font-family="sans-serif" font-size="14" lengthAdjust="spacing" textLength="95.1699" x="1096" y="665.8613">&#8226; Modify/Delete</text></g><!--entity Follow--><g class="entity" data-qualified-name="Modules.Follow" data-source-line="25" id="ent0013"><rect fill="#F1F1F1" height="55.2188" rx="2.5" ry="2.5" style="stroke:#181818;stroke-width:0.5;" width="127.6113" x="698" y="615.1094"/><text fill="#000000" font-family="sans-serif" font-size="14" lengthAdjust="spacing" textLength="90.2617" x="708" y="639.6426">Follow Module</text><text fill="#000000" font-family="sans-serif" font-size="14" lengthAdjust="spacing" textLength="107.6113" x="708" y="657.252">&#8226; Follow/Unfollow</text></g><!--entity Recommend--><g class="entity" data-qualified-name="Modules.Recommend" data-source-line="26" id="ent0014"><rect fill="#F1F1F1" height="55.2188" rx="2.5" ry="2.5" style="stroke:#181818;stroke-width:0.5;" width="184.4453" x="211" y="615.1094"/><text fill="#000000" font-family="sans-serif" font-size="14" lengthAdjust="spacing" textLength="159.5303" x="221" y="639.6426">Recommendation Module</text><text fill="#000000" font-family="sans-serif" font-size="14" lengthAdjust="spacing" textLength="164.4453" x="221" y="657.252">&#8226; Personalized Model Pool</text></g><!--entity AdminGov--><g class="entity" data-qualified-name="Modules.AdminGov" data-source-line="27" id="ent0015"><rect fill="#F1F1F1" height="72.8281" rx="2.5" ry="2.5" style="stroke:#181818;stroke-width:0.5;" width="189.6475" x="861" y="606.1094"/><text fill="#000000" font-family="sans-serif" font-size="14" lengthAdjust="spacing" textLength="169.6475" x="871" y="630.6426">Admin Governance Module</text><text fill="#000000" font-family="sans-serif" font-size="14" lengthAdjust="spacing" textLength="141.1006" x="871" y="648.252">&#8226; Account Cancellation</text><text fill="#000000" font-family="sans-serif" font-size="14" lengthAdjust="spacing" textLength="154.335" x="871" y="665.8613">&#8226; Illegal Content Deletion</text></g><!--entity Browser--><g class="entity" data-qualified-name="Browser" data-source-line="12" id="ent0004"><polygon fill="#F1F1F1" points="475.5,191.6094,485.5,181.6094,640.748,181.6094,640.748,219.2188,630.748,229.2188,475.5,229.2188,475.5,191.6094" style="stroke:#181818;stroke-width:0.5;stroke-linejoin:miter;stroke-miterlimit:10;"/><line style="stroke:#181818;stroke-width:0.5;" x1="630.748" x2="640.748" y1="191.6094" y2="181.6094"/><line style="stroke:#181818;stroke-width:0.5;" x1="475.5" x2="630.748" y1="191.6094" y2="191.6094"/><line style="stroke:#181818;stroke-width:0.5;" x1="630.748" x2="630.748" y1="191.6094" y2="229.2188"/><text fill="#000000" font-family="sans-serif" font-size="14" lengthAdjust="spacing" textLength="125.248" x="490.5" y="216.1426">Web Browser (SPA)</text></g><!--entity Frontend--><g class="entity" data-qualified-name="Frontend" data-source-line="15" id="ent0005"><rect fill="#F1F1F1" height="90.4375" rx="2.5" ry="2.5" style="stroke:#181818;stroke-width:0.5;" width="137.0996" x="489.5" y="290.6094"/><text fill="#000000" font-family="sans-serif" font-size="14" lengthAdjust="spacing" textLength="88.71" x="499.5" y="315.1426">Web Frontend</text><text fill="#000000" font-family="sans-serif" font-size="14" lengthAdjust="spacing" textLength="117.0996" x="499.5" y="332.752">(Vue + TypeScript)</text><text fill="#000000" font-family="sans-serif" font-size="14" lengthAdjust="spacing" textLength="92.8184" x="499.5" y="350.3613">&#8226; i18n (CN/EN)</text><text fill="#000000" font-family="sans-serif" font-size="14" lengthAdjust="spacing" textLength="46.915" x="499.5" y="367.9707">&#8226; UI/UX</text></g><!--entity Backend--><g class="entity" data-qualified-name="Backend" data-source-line="16" id="ent0006"><rect fill="#F1F1F1" height="55.2188" rx="2.5" ry="2.5" style="stroke:#181818;stroke-width:0.5;" width="146.8613" x="614.5" y="441.6094"/><text fill="#000000" font-family="sans-serif" font-size="14" lengthAdjust="spacing" textLength="126.8613" x="624.5" y="466.1426">Application Backend</text><text fill="#000000" font-family="sans-serif" font-size="14" lengthAdjust="spacing" textLength="82.4824" x="624.5" y="483.752">(Spring Boot)</text></g><!--entity DB--><g class="entity" data-qualified-name="DB" data-source-line="31" id="ent0016"><path d="M612.5,796.1094 C612.5,786.1094 675.0239,786.1094 675.0239,786.1094 C675.0239,786.1094 737.5479,786.1094 737.5479,796.1094 L737.5479,840.3281 C737.5479,850.3281 675.0239,850.3281 675.0239,850.3281 C675.0239,850.3281 612.5,850.3281 612.5,840.3281 L612.5,796.1094" fill="#F1F1F1" style="stroke:#181818;stroke-width:0.5;"/><path d="M612.5,796.1094 C612.5,806.1094 675.0239,806.1094 675.0239,806.1094 C675.0239,806.1094 737.5479,806.1094 737.5479,796.1094" fill="none" style="stroke:#181818;stroke-width:0.5;"/><text fill="#000000" font-family="sans-serif" font-size="14" lengthAdjust="spacing" textLength="46.6758" x="622.5" y="824.6426">MySQL</text><text fill="#000000" font-family="sans-serif" font-size="14" lengthAdjust="spacing" textLength="105.0479" x="622.5" y="842.252">(Relational Data)</text></g><!--entity ObjStore--><g class="entity" data-qualified-name="ObjStore" data-source-line="32" id="ent0017"><path d="M1077.485,795.0293 C1080.474,789.3513 1084.4406,788.7113 1089.1513,793.0175 C1091.2555,787.6486 1095.7419,786.303 1099.8257,790.8965 C1103.5343,785.6187 1108.6741,785.1154 1112.3853,790.8935 C1113.9932,785.0454 1118.2249,783.9163 1122.4999,788.2419 C1126.8265,782.1042 1131.7201,782.664 1135.3989,788.9163 C1136.7793,783.269 1141.5572,781.2192 1146.1063,785.4984 C1148.9673,779.6202 1154.5632,780.639 1157.5789,785.3304 C1160.7908,781.3538 1165.1487,780.6295 1167.8584,785.8893 C1172.5569,781.1433 1176.8905,781.1796 1180.4028,787.2634 C1184.1621,783.5875 1189.1649,783.5796 1190.6931,789.6251 C1194.2598,783.798 1199.5029,783.3383 1203.0351,789.6602 C1206.7537,784.5686 1211.8988,785.8231 1214.528,790.8925 C1219.3427,786.4036 1223.318,786.7797 1226.764,792.5284 C1230.6145,788.2182 1235.0373,790.4685 1236.525,795.1059 C1242.4595,796.7732 1245.0756,801.4669 1240.3026,806.6408 C1247.0213,809.5736 1248.3818,814.1197 1243.704,819.9624 C1247.7829,824.3063 1246.9811,830.0425 1240.7104,831.7605 C1245.4855,837.5662 1242.9636,841.5101 1236.5207,843.2113 C1233.479,848.7765 1230.2015,848.3916 1226.4537,843.9195 C1223.8597,848.8736 1219.1248,849.3001 1215.4716,845.205 C1212.6287,851.0202 1207.0631,851.8507 1203.6438,845.7787 C1200.7169,851.5924 1195.2613,852.5847 1191.2028,847.0154 C1187.8383,851.8781 1183.0274,852.4739 1180.1554,846.5126 C1177.6771,850.9601 1172.7483,852.024 1169.592,847.2928 C1167.0817,852.794 1161.4537,853.5039 1158.171,848.1019 C1153.098,854.3021 1148.9287,852.8016 1144.8989,846.9529 C1141.3156,852.1835 1136.6268,852.1337 1133.323,846.651 C1129.4492,851.3376 1125.1727,851.4824 1122.4341,845.4931 C1118.7486,850.5612 1115.2376,851.0413 1111.1762,845.908 C1107.5218,850.2121 1102.8511,850.5599 1100.2527,844.7657 C1095.9158,850.7967 1092.0485,850.2723 1088.335,844.1541 C1084.902,849.7837 1079.915,849.4698 1076.2507,844.4157 C1068.2871,842.7987 1067.5561,835.8831 1072.7454,830.864 C1065.1386,831.1332 1063.0323,825.1488 1067.0675,819.5668 C1063.0936,813.5147 1064.615,808.1499 1071.8658,806.096 C1068.7056,799.7556 1070.8116,796.3767 1077.485,795.0293" fill="#F1F1F1" style="stroke:#181818;stroke-width:0.5;"/><text fill="#000000" font-family="sans-serif" font-size="14" lengthAdjust="spacing" textLength="93.3857" x="1083" y="815.1426">Object Storage</text><text fill="#000000" font-family="sans-serif" font-size="14" lengthAdjust="spacing" textLength="146.2686" x="1083" y="832.752">(Model &amp; Dataset Files)</text></g><!--entity Email--><g class="entity" data-qualified-name="Email" data-source-line="33" id="ent0018"><path d="M26.0338,794.1166 C29.2748,788.6925 34.6288,787.9559 38.6455,793.1995 C40.9615,785.8952 46.9582,785.3073 51.1194,791.4933 C54.3925,784.6965 58.8002,785.6223 63.0787,790.4598 C65.365,783.9966 70.7065,783.3408 75.0981,788.2309 C77.1567,782.1274 82.5425,780.9506 86.8932,785.7517 C90.989,778.9706 95.3195,780.1742 99.7035,785.4454 C103.3524,779.3221 108.9985,780.3395 111.6139,786.4513 C116.1803,780.823 121.505,782.7213 124.0145,788.657 C128.4711,782.7419 133.6842,782.1449 137.8363,788.9868 C142.1921,784.3574 147.742,785.2111 150.2984,791.1155 C154.1284,786.4192 158.1192,786.3415 161.0102,792.0794 C166.4568,786.4258 171.1614,787.9445 174.1343,794.6964 C179.8099,797.2357 180.9152,801.3593 176.7006,806.1204 C183.7267,809.2361 186.241,812.9581 180.5628,819.6898 C185.0726,824.8752 183.0487,829.2557 176.7711,830.7394 C181.8895,836.4297 180.8634,840.4696 174.6274,844.3747 C172.0688,850.0574 166.3489,851.7498 162.4764,845.7402 C158.3551,852.9854 153.8153,852.2218 149.1838,846.2534 C146.3421,851.8327 142.9866,853.0084 137.9825,848.7038 C134.9227,855.5364 129.7772,855.0456 125.2606,850.3052 C121.2492,856.634 116.285,856.6762 112.0407,850.5525 C109.8114,857.0989 104.4653,857.2166 100.7697,851.9518 C96.0885,857.9001 90.2989,858.5146 86.783,850.7622 C82.2594,856.5302 77.8628,855.4 74.4227,849.6041 C69.6373,854.4183 65.4655,853.8124 62.7183,847.4665 C58.6091,853.9014 53.0642,853.5806 50.0951,846.4088 C45.0085,852.1986 41.2973,850.5222 37.6011,844.8881 C33.9418,851.3543 28.4506,850.4372 25.1123,844.5632 C19.4864,840.6833 17.9114,836.5582 24.1178,831.7592 C17.4922,827.847 18.5819,822.8327 23.74,818.5826 C17.3846,814.6591 17.8593,809.5553 24.6009,806.5703 C18.3888,802.4774 20.0937,796.8113 26.0338,794.1166" fill="#F1F1F1" style="stroke:#181818;stroke-width:0.5;"/><text fill="#000000" font-family="sans-serif" font-size="14" lengthAdjust="spacing" textLength="85.5791" x="32" y="815.1426">Email Service</text><text fill="#000000" font-family="sans-serif" font-size="14" lengthAdjust="spacing" textLength="133.8135" x="32" y="832.752">(Password Recovery)</text></g><!--entity Payment--><g class="entity" data-qualified-name="Payment" data-source-line="34" id="ent0019"><path d="M1289.4198,795.7328 C1292.5023,789.4268 1297.2027,788.5285 1302.1763,793.6154 C1304.4743,786.395 1309.0536,785.3642 1314.7908,789.9366 C1318.265,784.2332 1322.422,783.3479 1326.7869,788.9952 C1329.3718,783.1352 1334.9049,781.5409 1339.5994,786.496 C1342.6969,780.4739 1347.0195,779.9672 1351.5811,784.8937 C1356.8935,778.9762 1361.5266,780.6507 1365.1214,786.8181 C1369.9805,781.4253 1374.6207,781.921 1377.6578,788.6953 C1381.9608,782.9953 1387.3127,784.5676 1390.1357,790.3094 C1394.7843,785.0302 1399.5096,786.7196 1402.0253,792.5849 C1406.0844,786.8115 1412.0937,787.9408 1415.236,793.6406 C1422.3113,796.8058 1421.347,802.1782 1416.1023,806.1936 C1422.4986,809.7302 1424.891,814.9935 1417.782,820.155 C1423.1579,824.3121 1422.4282,829.839 1416.1952,832.5044 C1420.0124,836.3241 1419.5809,840.596 1414.5306,843.0107 C1411.3193,849.231 1406.4989,848.7803 1402.9518,843.3443 C1400.0986,850.1089 1393.1537,850.188 1389.1066,844.6924 C1385.5569,849.7621 1382.0757,849.8732 1377.8473,845.5019 C1373.5502,852.3153 1368.9611,853.5438 1363.6805,846.5078 C1360.0897,851.3995 1355.344,851.6123 1351.9073,846.3295 C1348.3384,851.5359 1343.0475,852.303 1339.2959,846.5396 C1335.0831,851.6267 1330.0771,850.9669 1328.1896,844.3358 C1324.7006,850.4108 1318.1,850.0082 1314.7934,844.1314 C1311.2436,849.6805 1304.7125,849.6004 1301.4566,843.7866 C1298.322,850.2058 1292.8315,850.0058 1289.2765,844.2056 C1282.0778,843.374 1279.4693,837.3619 1284.5406,831.8335 C1278.434,830.0171 1274.9856,825.3604 1280.3786,819.624 C1276.0412,813.7626 1277.6502,809.0831 1284.3949,806.653 C1280.6894,801.1836 1282.086,796.1226 1289.4198,795.7328" fill="#F1F1F1" style="stroke:#181818;stroke-width:0.5;"/><text fill="#000000" font-family="sans-serif" font-size="14" lengthAdjust="spacing" textLength="111.2686" x="1295.5" y="815.1426">Payment Provider</text><text fill="#000000" font-family="sans-serif" font-size="14" lengthAdjust="spacing" textLength="60.6826" x="1295.5" y="832.752">(External)</text></g><!--entity Runtime--><g class="entity" data-qualified-name="Runtime" data-source-line="35" id="ent0020"><polygon fill="#F1F1F1" points="1519,795.6094,1529,785.6094,1732.5234,785.6094,1732.5234,840.8281,1722.5234,850.8281,1519,850.8281,1519,795.6094" style="stroke:#181818;stroke-width:0.5;stroke-linejoin:miter;stroke-miterlimit:10;"/><line style="stroke:#181818;stroke-width:0.5;" x1="1722.5234" x2="1732.5234" y1="795.6094" y2="785.6094"/><line style="stroke:#181818;stroke-width:0.5;" x1="1519" x2="1722.5234" y1="795.6094" y2="795.6094"/><line style="stroke:#181818;stroke-width:0.5;" x1="1722.5234" x2="1722.5234" y1="795.6094" y2="850.8281"/><text fill="#000000" font-family="sans-serif" font-size="14" lengthAdjust="spacing" textLength="162.6611" x="1534" y="820.1426">Model Execution Sandbox</text><text fill="#000000" font-family="sans-serif" font-size="14" lengthAdjust="spacing" textLength="173.5234" x="1534" y="837.752">(Online Invocation Runtime)</text></g><g class="entity" data-qualified-name="GMN46" data-source-line="74" id="ent0047"><path d="M1477.5,621.1094 L1477.5,663.8125 L1786.7979,663.8125 L1786.7979,631.1094 L1776.7979,621.1094 L1477.5,621.1094" fill="#FEFFDD" style="stroke:#181818;stroke-width:0.5;"/><path d="M1776.7979,621.1094 L1776.7979,631.1094 L1786.7979,631.1094 L1776.7979,621.1094" fill="#FEFFDD" style="stroke:#181818;stroke-width:1;"/><text fill="#000000" font-family="sans-serif" font-size="13" lengthAdjust="spacing" textLength="288.2979" x="1483.5" y="639.6045">Uses browsing history and registration information</text><text fill="#000000" font-family="sans-serif" font-size="13" lengthAdjust="spacing" textLength="278.9033" x="1483.5" y="655.9561">to compute recommended models (per AD-003).</text></g><g class="entity" data-qualified-name="GMN49" data-source-line="79" id="ent0050"><path d="M1181.5,911.6094 L1181.5,954.3125 A0,0 0 0 0 1181.5,954.3125 L1476.3633,954.3125 A0,0 0 0 0 1476.3633,954.3125 L1476.3633,921.6094 L1466.3633,911.6094 L1336.99,911.6094 L1344.81,850.8894 L1328.99,911.6094 L1181.5,911.6094 A0,0 0 0 0 1181.5,911.6094" fill="#FEFFDD" style="stroke:#181818;stroke-width:0.5;"/><path d="M1466.3633,911.6094 L1466.3633,921.6094 L1476.3633,921.6094 L1466.3633,911.6094" fill="#FEFFDD" style="stroke:#181818;stroke-width:0.5;"/><text fill="#000000" font-family="sans-serif" font-size="13" lengthAdjust="spacing" textLength="273.8633" x="1187.5" y="930.1045">Payment channel unspecified in SRS (AD-005);</text><text fill="#000000" font-family="sans-serif" font-size="13" lengthAdjust="spacing" textLength="208.8442" x="1187.5" y="946.4561">represented as an external provider.</text></g><g class="entity" data-qualified-name="GMN52" data-source-line="84" id="ent0053"><path d="M1511.5,911.6094 L1511.5,954.3125 A0,0 0 0 0 1511.5,954.3125 L1830.9351,954.3125 A0,0 0 0 0 1830.9351,954.3125 L1830.9351,921.6094 L1820.9351,911.6094 L1666.83,911.6094 L1638.65,850.8894 L1658.83,911.6094 L1511.5,911.6094 A0,0 0 0 0 1511.5,911.6094" fill="#FEFFDD" style="stroke:#181818;stroke-width:0.5;"/><path d="M1820.9351,911.6094 L1820.9351,921.6094 L1830.9351,921.6094 L1820.9351,911.6094" fill="#FEFFDD" style="stroke:#181818;stroke-width:0.5;"/><text fill="#000000" font-family="sans-serif" font-size="13" lengthAdjust="spacing" textLength="298.4351" x="1517.5" y="930.1045">Executes selected pretrained models using platform</text><text fill="#000000" font-family="sans-serif" font-size="13" lengthAdjust="spacing" textLength="244.2388" x="1517.5" y="946.4561">or user-uploaded datasets; returns results.</text></g><g class="entity" data-qualified-name="GMN55" data-source-line="89" id="ent0056"><path d="M662,314.1094 L662,356.8125 A0,0 0 0 0 662,356.8125 L793.69,356.8125 L714.46,441.3394 L801.69,356.8125 L974.2241,356.8125 A0,0 0 0 0 974.2241,356.8125 L974.2241,324.1094 L964.2241,314.1094 L662,314.1094 A0,0 0 0 0 662,314.1094" fill="#FEFFDD" style="stroke:#181818;stroke-width:0.5;"/><path d="M964.2241,314.1094 L964.2241,324.1094 L974.2241,324.1094 L964.2241,314.1094" fill="#FEFFDD" style="stroke:#181818;stroke-width:0.5;"/><text fill="#000000" font-family="sans-serif" font-size="13" lengthAdjust="spacing" textLength="257.2388" x="668" y="332.6045">Security, validation, and consistency checks;</text><text fill="#000000" font-family="sans-serif" font-size="13" lengthAdjust="spacing" textLength="291.2241" x="668" y="348.9561">enforces admin privileges and content moderation.</text></g><!--link GeneralUser to Browser--><g class="link" data-entity-1="ent0002" data-entity-2="ent0004" data-link-type="dependency" data-source-line="38" id="lnk21"><path d="M501.84,118.7294 C513.26,136.1794 527.8443,158.4841 540.2243,177.4241" fill="none" id="GeneralUser-to-Browser" style="stroke:#181818;stroke-width:1;"/><polygon fill="#181818" points="542.96,181.6094,541.384,171.8874,540.2243,177.4241,534.6876,176.2645,542.96,181.6094" style="stroke:#181818;stroke-width:1;stroke-linejoin:miter;stroke-miterlimit:10;"/></g><!--link AdminUser to Browser--><g class="link" data-entity-1="ent0003" data-entity-2="ent0004" data-link-type="dependency" data-source-line="39" id="lnk22"><path d="M615.81,118.7294 C604.06,136.1794 589.0222,158.5216 576.2722,177.4616" fill="none" id="AdminUser-to-Browser" style="stroke:#181818;stroke-width:1;"/><polygon fill="#181818" points="573.48,181.6094,581.8241,176.3772,576.2722,177.4616,575.1877,171.9097,573.48,181.6094" style="stroke:#181818;stroke-width:1;stroke-linejoin:miter;stroke-miterlimit:10;"/></g><!--link Browser to Frontend--><g class="link" data-entity-1="ent0004" data-entity-2="ent0005" data-link-type="dependency" data-source-line="40" id="lnk23"><path d="M558,229.7894 C558,246.6494 558,264.9894 558,285.3694" fill="none" id="Browser-to-Frontend" style="stroke:#181818;stroke-width:1;"/><polygon fill="#181818" points="558,290.3694,562,281.3694,558,285.3694,554,281.3694,558,290.3694" style="stroke:#181818;stroke-width:1;stroke-linejoin:miter;stroke-miterlimit:10;"/></g><!--link Frontend to Backend--><g class="link" data-entity-1="ent0005" data-entity-2="ent0006" data-link-type="dependency" data-source-line="41" id="lnk24"><path d="M601.65,380.7594 C621.57,400.9094 640.9749,420.5435 658.1949,437.9635" fill="none" id="Frontend-to-Backend" style="stroke:#181818;stroke-width:1;"/><polygon fill="#181818" points="661.71,441.5194,658.2276,432.3067,658.1949,437.9635,652.5382,437.9308,661.71,441.5194" style="stroke:#181818;stroke-width:1;stroke-linejoin:miter;stroke-miterlimit:10;"/></g><!--link Backend to Account--><g class="link" data-entity-1="ent0006" data-entity-2="ent0008" data-link-type="dependency" data-source-line="44" id="lnk25"><path d="M614.31,473.6394 C494.92,480.3894 265.34,497.9294 194,535.6094 C170.51,548.0194 153.1297,564.8 137.2297,584.61" fill="none" id="Backend-to-Account" style="stroke:#181818;stroke-width:1;"/><polygon fill="#181818" points="134.1,588.5094,142.853,583.9943,137.2297,584.61,136.614,578.9868,134.1,588.5094" style="stroke:#181818;stroke-width:1;stroke-linejoin:miter;stroke-miterlimit:10;"/></g><!--link Backend to QA--><g class="link" data-entity-1="ent0006" data-entity-2="ent0009" data-link-type="dependency" data-source-line="45" id="lnk26"><path d="M614.29,495.3194 C591.41,505.4694 567.18,518.8194 548,535.6094 C525.79,555.0494 510.4053,579.0377 498.6453,601.5477" fill="none" id="Backend-to-QA" style="stroke:#181818;stroke-width:1;"/><polygon fill="#181818" points="496.33,605.9794,504.0428,599.8546,498.6453,601.5477,496.9521,596.1502,496.33,605.9794" style="stroke:#181818;stroke-width:1;stroke-linejoin:miter;stroke-miterlimit:10;"/></g><!--link Backend to Blog--><g class="link" data-entity-1="ent0006" data-entity-2="ent0010" data-link-type="dependency" data-source-line="46" id="lnk27"><path d="M676.44,496.9094 C663.75,526.2994 645.3203,569.0083 631.3103,601.4883" fill="none" id="Backend-to-Blog" style="stroke:#181818;stroke-width:1;"/><polygon fill="#181818" points="629.33,606.0794,636.5675,599.3997,631.3103,601.4883,629.2217,596.2311,629.33,606.0794" style="stroke:#181818;stroke-width:1;stroke-linejoin:miter;stroke-miterlimit:10;"/></g><!--link Backend to Model--><g class="link" data-entity-1="ent0006" data-entity-2="ent0011" data-link-type="dependency" data-source-line="47" id="lnk28"><path d="M761.65,472.8994 C892.69,478.8294 1160.39,495.5694 1244,535.6094 C1265.68,545.9894 1282.1455,558.9429 1298.8655,575.8629" fill="none" id="Backend-to-Model" style="stroke:#181818;stroke-width:1;"/><polygon fill="#181818" points="1302.38,579.4194,1298.8992,570.2061,1298.8655,575.8629,1293.2088,575.8293,1302.38,579.4194" style="stroke:#181818;stroke-width:1;stroke-linejoin:miter;stroke-miterlimit:10;"/></g><!--link Backend to Dataset--><g class="link" data-entity-1="ent0006" data-entity-2="ent0012" data-link-type="dependency" data-source-line="48" id="lnk29"><path d="M761.82,476.6394 C857.47,486.1494 1018.02,505.9494 1069,535.6094 C1097.71,552.3094 1118.2678,578.076 1133.4878,601.896" fill="none" id="Backend-to-Dataset" style="stroke:#181818;stroke-width:1;"/><polygon fill="#181818" points="1136.18,606.1094,1134.7048,596.3716,1133.4878,601.896,1127.9634,600.6791,1136.18,606.1094" style="stroke:#181818;stroke-width:1;stroke-linejoin:miter;stroke-miterlimit:10;"/></g><!--link Backend to Follow--><g class="link" data-entity-1="ent0006" data-entity-2="ent0013" data-link-type="dependency" data-source-line="49" id="lnk30"><path d="M699.56,496.9094 C713.46,529.1294 734.6683,578.2788 748.5383,610.4088" fill="none" id="Backend-to-Follow" style="stroke:#181818;stroke-width:1;"/><polygon fill="#181818" points="750.52,614.9994,750.6254,605.1511,748.5383,610.4088,743.2806,608.3217,750.52,614.9994" style="stroke:#181818;stroke-width:1;stroke-linejoin:miter;stroke-miterlimit:10;"/></g><!--link Backend to Recommend--><g class="link" data-entity-1="ent0006" data-entity-2="ent0014" data-link-type="dependency" data-source-line="50" id="lnk31"><path d="M614.43,476.9194 C556.75,484.7094 475.98,501.1794 413,535.6094 C376.7,555.4594 346.9811,586.6301 326.8111,610.9601" fill="none" id="Backend-to-Recommend" style="stroke:#181818;stroke-width:1;"/><polygon fill="#181818" points="323.62,614.8094,332.4434,610.4336,326.8111,610.9601,326.2846,605.3278,323.62,614.8094" style="stroke:#181818;stroke-width:1;stroke-linejoin:miter;stroke-miterlimit:10;"/></g><!--link Backend to AdminGov--><g class="link" data-entity-1="ent0006" data-entity-2="ent0015" data-link-type="dependency" data-source-line="51" id="lnk32"><path d="M761.8,494.7794 C788.74,505.3894 818.78,519.1694 844,535.6094 C874.05,555.1994 899.8993,579.692 920.9793,602.042" fill="none" id="Backend-to-AdminGov" style="stroke:#181818;stroke-width:1;"/><polygon fill="#181818" points="924.41,605.6794,921.1447,596.3876,920.9793,602.042,915.3249,601.8767,924.41,605.6794" style="stroke:#181818;stroke-width:1;stroke-linejoin:miter;stroke-miterlimit:10;"/></g><!--link Account to DB--><g class="link" data-entity-1="ent0008" data-entity-2="ent0016" data-link-type="dependency" data-source-line="54" id="lnk33"><path d="M147.33,696.7194 C161.25,709.2494 177.24,721.3494 194,729.6094 C332.57,797.8894 512.2228,813.1408 607.4028,816.3508" fill="none" id="Account-to-DB" style="stroke:#181818;stroke-width:1;"/><polygon fill="#181818" points="612.4,816.5194,603.5399,812.2183,607.4028,816.3508,603.2703,820.2137,612.4,816.5194" style="stroke:#181818;stroke-width:1;stroke-linejoin:miter;stroke-miterlimit:10;"/></g><!--link QA to DB--><g class="link" data-entity-1="ent0009" data-entity-2="ent0016" data-link-type="dependency" data-source-line="55" id="lnk34"><path d="M504.62,679.5194 C516.68,695.7794 532.02,714.6494 548,729.6094 C570.57,750.7494 594.4258,767.9129 618.4258,783.3629" fill="none" id="QA-to-DB" style="stroke:#181818;stroke-width:1;"/><polygon fill="#181818" points="622.63,786.0694,617.2276,777.8344,618.4258,783.3629,612.8973,784.5611,622.63,786.0694" style="stroke:#181818;stroke-width:1;stroke-linejoin:miter;stroke-miterlimit:10;"/></g><!--link Blog to DB--><g class="link" data-entity-1="ent0010" data-entity-2="ent0016" data-link-type="dependency" data-source-line="56" id="lnk35"><path d="M626.49,679.1394 C637.54,710.5694 651.8408,751.2527 662.4008,781.2727" fill="none" id="Blog-to-DB" style="stroke:#181818;stroke-width:1;"/><polygon fill="#181818" points="664.06,785.9894,664.8468,776.172,662.4008,781.2727,657.3001,778.8267,664.06,785.9894" style="stroke:#181818;stroke-width:1;stroke-linejoin:miter;stroke-miterlimit:10;"/></g><!--link Model to DB--><g class="link" data-entity-1="ent0011" data-entity-2="ent0016" data-link-type="dependency" data-source-line="57" id="lnk36"><path d="M1284.59,705.7894 C1271.83,715.0094 1258.05,723.4594 1244,729.6094 C1153.93,769.0294 871.1883,799.0735 742.8383,811.0835" fill="none" id="Model-to-DB" style="stroke:#181818;stroke-width:1;"/><polygon fill="#181818" points="737.86,811.5494,747.1935,814.6935,742.8383,811.0835,746.4482,806.7283,737.86,811.5494" style="stroke:#181818;stroke-width:1;stroke-linejoin:miter;stroke-miterlimit:10;"/></g><!--link Dataset to DB--><g class="link" data-entity-1="ent0012" data-entity-2="ent0016" data-link-type="dependency" data-source-line="58" id="lnk37"><path d="M1128.14,679.4394 C1112.58,697.0994 1091.75,717.2094 1069,729.6094 C962.1,787.8794 823.804,806.9596 742.764,813.4596" fill="none" id="Dataset-to-DB" style="stroke:#181818;stroke-width:1;"/><polygon fill="#181818" points="737.78,813.8594,747.071,817.127,742.764,813.4596,746.4314,809.1526,737.78,813.8594" style="stroke:#181818;stroke-width:1;stroke-linejoin:miter;stroke-miterlimit:10;"/></g><!--link Follow to DB--><g class="link" data-entity-1="ent0013" data-entity-2="ent0016" data-link-type="dependency" data-source-line="59" id="lnk38"><path d="M748.6,670.3394 C732.96,701.5194 709.4009,748.5097 692.8709,781.4797" fill="none" id="Follow-to-DB" style="stroke:#181818;stroke-width:1;"/><polygon fill="#181818" points="690.63,785.9494,698.2395,779.6967,692.8709,781.4797,691.088,776.1112,690.63,785.9494" style="stroke:#181818;stroke-width:1;stroke-linejoin:miter;stroke-miterlimit:10;"/></g><!--link Recommend to DB--><g class="link" data-entity-1="ent0014" data-entity-2="ent0016" data-link-type="dependency" data-source-line="60" id="lnk39"><path d="M331.42,670.2894 C352.58,688.9894 382.89,713.4394 413,729.6094 C477.32,764.1594 552.9586,787.3101 607.6386,801.4201" fill="none" id="Recommend-to-DB" style="stroke:#181818;stroke-width:1;"/><polygon fill="#181818" points="612.48,802.6694,604.7649,796.5475,607.6386,801.4201,602.766,804.2937,612.48,802.6694" style="stroke:#181818;stroke-width:1;stroke-linejoin:miter;stroke-miterlimit:10;"/></g><!--link AdminGov to DB--><g class="link" data-entity-1="ent0015" data-entity-2="ent0016" data-link-type="dependency" data-source-line="61" id="lnk40"><path d="M913.42,679.1594 C893.03,695.4294 867.9,714.4194 844,729.6094 C810.12,751.1494 774.8292,769.7477 742.3692,785.6677" fill="none" id="AdminGov-to-DB" style="stroke:#181818;stroke-width:1;"/><polygon fill="#181818" points="737.88,787.8694,747.7218,787.4976,742.3692,785.6677,744.1991,780.315,737.88,787.8694" style="stroke:#181818;stroke-width:1;stroke-linejoin:miter;stroke-miterlimit:10;"/></g><!--link Model to ObjStore--><g class="link" data-entity-1="ent0011" data-entity-2="ent0017" data-link-type="dependency" data-source-line="64" id="lnk41"><path d="M1291.59,705.8994 C1274.68,722.5194 1255.99,740.1494 1238,755.6094 C1226.12,765.8194 1216.7235,773.274 1204.2535,782.604" fill="none" id="Model-to-ObjStore" style="stroke:#181818;stroke-width:1;"/><polygon fill="#181818" points="1200.25,785.5994,1209.8525,783.4105,1204.2535,782.604,1205.0599,777.0049,1200.25,785.5994" style="stroke:#181818;stroke-width:1;stroke-linejoin:miter;stroke-miterlimit:10;"/></g><!--link Dataset to ObjStore--><g class="link" data-entity-1="ent0012" data-entity-2="ent0017" data-link-type="dependency" data-source-line="65" id="lnk42"><path d="M1156,679.1394 C1156,710.3694 1156,750.3894 1156,780.4194" fill="none" id="Dataset-to-ObjStore" style="stroke:#181818;stroke-width:1;"/><polygon fill="#181818" points="1156,785.4194,1160,776.4194,1156,780.4194,1152,776.4194,1156,785.4194" style="stroke:#181818;stroke-width:1;stroke-linejoin:miter;stroke-miterlimit:10;"/></g><!--link Account to Email--><g class="link" data-entity-1="ent0008" data-entity-2="ent0018" data-link-type="dependency" data-source-line="68" id="lnk43"><path d="M99,697.0794 C99,726.0594 99,755.8694 99,780.5194" fill="none" id="Account-to-Email" style="stroke:#181818;stroke-width:1;"/><polygon fill="#181818" points="99,785.5194,103,776.5194,99,780.5194,95,776.5194,99,785.5194" style="stroke:#181818;stroke-width:1;stroke-linejoin:miter;stroke-miterlimit:10;"/><text fill="#000000" font-family="sans-serif" font-size="13" lengthAdjust="spacing" textLength="97.5508" x="100" y="752.1045">Send reset email</text></g><!--link Model to Runtime--><g class="link" data-entity-1="ent0011" data-entity-2="ent0020" data-link-type="dependency" data-source-line="69" id="lnk44"><path d="M1423.52,705.7294 C1435.28,714.4094 1447.66,722.6994 1460,729.6094 C1469.08,734.6894 1472.53,733.2994 1482,737.6094 C1513.07,751.7294 1542.1778,767.493 1569.0078,782.953" fill="none" id="Model-to-Runtime" style="stroke:#181818;stroke-width:1;"/><polygon fill="#181818" points="1573.34,785.4494,1567.539,777.4902,1569.0078,782.953,1563.5449,784.4218,1573.34,785.4494" style="stroke:#181818;stroke-width:1;stroke-linejoin:miter;stroke-miterlimit:10;"/><text fill="#000000" font-family="sans-serif" font-size="13" lengthAdjust="spacing" textLength="62.8672" x="1519" y="752.1045">Run model</text></g><!--link Model to Payment--><g class="link" data-entity-1="ent0011" data-entity-2="ent0019" data-link-type="dependency" data-source-line="70" id="lnk45"><path d="M1351.64,705.7594 C1351.49,732.7894 1351.3392,758.2895 1351.2092,780.5295" fill="none" id="Model-to-Payment" style="stroke:#181818;stroke-width:1;"/><polygon fill="#181818" points="1351.18,785.5294,1355.2325,776.5529,1351.2092,780.5295,1347.2327,776.5061,1351.18,785.5294" style="stroke:#181818;stroke-width:1;stroke-linejoin:miter;stroke-miterlimit:10;"/><text fill="#000000" font-family="sans-serif" font-size="13" lengthAdjust="spacing" textLength="121.3989" x="1352" y="752.1045">Purchase processing</text></g><!--link Recommend to GMN46--><g class="link" data-entity-1="ent0014" data-entity-2="ent0047" data-link-type="association" data-source-line="74" id="lnk48"><path d="M320.86,614.8394 C342.53,584.0194 382.21,535.9994 430.5,516.1094 C482.43,494.7194 1387.73,499.8794 1441.5,516.1094 C1509.72,536.6994 1575.93,590.6094 1609.41,620.9894" fill="none" id="Recommend-GMN46" style="stroke:#181818;stroke-width:1;stroke-dasharray:7,7;"/></g><?plantuml-src VLRRRkCs47tNLmpya4tGJRr5iK3H00NiE5a4o6Rjg6cBObzeQMopeKY1fEoeHO5-Ip-jNz8PNcnfK_J588TpENCxbfTU8ImGMxX7ORNKM_XeQbHGxeJbsr89lp6sWKieU-UnWPcjTj9ZvJkBHU6UfMw55GrKfccDHkrBtvDJInf2RnKELDnErER0RZT2ER9-0qyEhGEXQwYK9EEY5TMps29Cmii4_YZWv0ic7r2Z5IhOJK0uI0A-ZpLdTIErTDuARw9ga0J5Fuj2Kvem-HdNCBVcG48uBvUpYw2O98nlQT4HBE6bqG7ccl2XhejZkj79hJNQa_opFl-fG_WAVknRB2ihMt_nMV_przyWl_bEm_drm_Jc8KcUxgPFluI0sNheTTQsIbOny3m69UTb6zeoDyOdh0aFORqs5a4Cp1fJTmhTgQP3dn_ZOt2Ipg7OGmXLPJewnES8-X6tiQZaOtfljb97-L8uTp2s9eNAxD7sIMpDHb8xpe1qJUUZTDRvtSEKVt-DdOc1nj5NPxDHv5M7ZgEwv4ExGvWGib_DngPpPROZsvdrig8Cu-tQD0tfHLlM7Ll73HYQFxNAY7hwY7k91xZHFgUtC0STdaXRRlhf0XNwPFH9AwaHxlJUn9Bd0bOXV1tRSAVRN9LbHwib7EQMe1hZMWXFh_w_a6KSKJW24xmbqx6_MwEKEOpSHT7qIM_28GvdE8vDlqXYw699JJ5QAFaxrebCbiQeuEfeziMSyMB21nuRBNI5uzQb8Rpc5wK6bRnJ2hV41TTXUJo4VEdrjEpaadVzJSW_h2--U0wYm0KsSmLb8DPK6sfxNwxkQSKUCGOX9JQBQxQO5vKoNGsJJ-lVY6IW95QXdIBzcEDPhZ7SqhoxQ4Mwh8VPzgOHahWLxLvMRFfgQQ9PKCisIz7piF8cxMMDbinkKX9HEoaaHejeRbwmwa9hIifwRLx8wjKymYFLLJOOtQHB8990nI2fh5PKOUUA0S_2vUKFHuuyakf8cZcLPKToouUeUUAjT0HlZeoLHQoPoM4eeuKVNiCE3mLnUuQIl053MPhieUWqeIC8UPW8RUPAGikp0uuRx8eyfY7Ml5ZDyYbmKJh7vgHBdfTqJTkORaSSMP0Xv3lNJMfXUmZywk8u3Y8SPsyOvoWaypn5eS_RoEZZFEAuVW-Jae7mFw47PDba42VD3QlHaJk8e_Syl_IU2GvQQofqZlx99epamNWggCMDeitYlxVoiIH-qFm_G-3Yzm6jIjUq4QGc0x1ok_DWDeEUqHmwMFFiiPUTvAhqmTeE_hOeOVwa2UU2siXCrFdmoHBz4765D1oSjpJ4iyNbktVVNdnTS1KuT141h8ttfc44UGLphfIbrfH_frsBbTn8yaWCnscT1s_lBwuAYstyk41EZb2UoAbDk_u_8VEwnasdj1rozSWNUGrrEsNHXNAqwLEkC9OaQ2-xyDz1QdMS47T59Q3FEiszS9toxbLyRreEdfUtfDXM-lujx8dmuv_1s_WrHssYWgEkUge6Li_kYdnHUEexYC3tz2Mpfz7TeiiMWSKPS-pJ8Fg_?></g></svg>