<svg xmlns="http://www.w3.org/2000/svg" xmlns:xlink="http://www.w3.org/1999/xlink" contentStyleType="text/css" data-diagram-type="DESCRIPTION" height="926px" preserveAspectRatio="none" style="width:1608px;height:926px;background:#FFFFFF;" version="1.1" viewBox="0 0 1608 926" width="1608px" zoomAndPan="magnify"><?plantuml 1.2026.6?><defs/><g><!--cluster Host Control Layer--><g class="cluster" data-qualified-name="Host Control Layer" data-source-line="2" id="ent0001"><path d="M545.5,6 L672.5137,6 A3.75,3.75 0 0 1 675.0137,8.5 L682.0137,29.6094 L1080.5,29.6094 A2.5,2.5 0 0 1 1083,32.1094 L1083,249.5 A2.5,2.5 0 0 1 1080.5,252 L545.5,252 A2.5,2.5 0 0 1 543,249.5 L543,8.5 A2.5,2.5 0 0 1 545.5,6" fill="none" style="stroke:#000000;stroke-width:1.5;"/><line style="stroke:#000000;stroke-width:1.5;" x1="543" x2="682.0137" y1="29.6094" y2="29.6094"/><text fill="#000000" font-family="sans-serif" font-size="14" font-weight="700" lengthAdjust="spacing" textLength="126.0137" x="547" y="22.5332">Host Control Layer</text></g><!--cluster Guest Execution Layer--><g class="cluster" data-qualified-name="Guest Execution Layer" data-source-line="10" id="ent0007"><path d="M8.5,302 L161.2168,302 A3.75,3.75 0 0 1 163.7168,304.5 L170.7168,325.6094 L1095.5,325.6094 A2.5,2.5 0 0 1 1098,328.1094 L1098,909 A2.5,2.5 0 0 1 1095.5,911.5 L8.5,911.5 A2.5,2.5 0 0 1 6,909 L6,304.5 A2.5,2.5 0 0 1 8.5,302" fill="none" style="stroke:#000000;stroke-width:1.5;"/><line style="stroke:#000000;stroke-width:1.5;" x1="6" x2="170.7168" y1="325.6094" y2="325.6094"/><text fill="#000000" font-family="sans-serif" font-size="14" font-weight="700" lengthAdjust="spacing" textLength="151.7168" x="10" y="318.5332">Guest Execution Layer</text></g><!--cluster Linux Guest VM--><g class="cluster" data-qualified-name="Guest Execution Layer.Linux Guest VM" data-source-line="11" id="ent0008"><polygon fill="none" points="491,356,501,346,808,346,808,466,798,476,491,476,491,356" style="stroke:#181818;stroke-width:1;stroke-linejoin:miter;stroke-miterlimit:10;"/><line style="stroke:#181818;stroke-width:1;" x1="798" x2="808" y1="356" y2="346"/><line style="stroke:#181818;stroke-width:1;" x1="491" x2="798" y1="356" y2="356"/><line style="stroke:#181818;stroke-width:1;" x1="798" x2="798" y1="356" y2="476"/><text fill="#000000" font-family="sans-serif" font-size="14" font-weight="700" lengthAdjust="spacing" textLength="105.7861" x="592.6069" y="373.5332">Linux Guest VM</text></g><!--cluster Child Partition VM--><g class="cluster" data-qualified-name="Guest Execution Layer.Child Partition VM" data-source-line="16" id="ent0011"><polygon fill="none" points="30,356,40,346,467,346,467,877.5,457,887.5,30,887.5,30,356" style="stroke:#181818;stroke-width:1;stroke-linejoin:miter;stroke-miterlimit:10;"/><line style="stroke:#181818;stroke-width:1;" x1="457" x2="467" y1="356" y2="346"/><line style="stroke:#181818;stroke-width:1;" x1="30" x2="457" y1="356" y2="356"/><line style="stroke:#181818;stroke-width:1;" x1="457" x2="457" y1="356" y2="887.5"/><text fill="#000000" font-family="sans-serif" font-size="14" font-weight="700" lengthAdjust="spacing" textLength="120.5518" x="184.2241" y="373.5332">Child Partition VM</text></g><!--cluster Root Partition VM--><g class="cluster" data-qualified-name="Guest Execution Layer.Root Partition VM" data-source-line="24" id="ent0017"><polygon fill="none" points="832,356,842,346,1074,346,1074,466,1064,476,832,476,832,356" style="stroke:#181818;stroke-width:1;stroke-linejoin:miter;stroke-miterlimit:10;"/><line style="stroke:#181818;stroke-width:1;" x1="1064" x2="1074" y1="356" y2="346"/><line style="stroke:#181818;stroke-width:1;" x1="832" x2="1064" y1="356" y2="356"/><line style="stroke:#181818;stroke-width:1;" x1="1064" x2="1064" y1="356" y2="476"/><text fill="#000000" font-family="sans-serif" font-size="14" font-weight="700" lengthAdjust="spacing" textLength="117.4346" x="890.2827" y="373.5332">Root Partition VM</text></g><!--cluster Communication Layer--><g class="cluster" data-qualified-name="Communication Layer" data-source-line="29" id="ent0019"><path d="M1124.5,356 L1272.5273,356 A3.75,3.75 0 0 1 1275.0273,358.5 L1282.0273,379.6094 L1590.5,379.6094 A2.5,2.5 0 0 1 1593,382.1094 L1593,601 A2.5,2.5 0 0 1 1590.5,603.5 L1124.5,603.5 A2.5,2.5 0 0 1 1122,601 L1122,358.5 A2.5,2.5 0 0 1 1124.5,356" fill="none" style="stroke:#000000;stroke-width:1.5;"/><line style="stroke:#000000;stroke-width:1.5;" x1="1122" x2="1282.0273" y1="379.6094" y2="379.6094"/><text fill="#000000" font-family="sans-serif" font-size="14" font-weight="700" lengthAdjust="spacing" textLength="147.0273" x="1126" y="372.5332">Communication Layer</text></g><!--entity hAFL2_Controller--><g class="entity" data-qualified-name="Host Control Layer.hAFL2_Controller" data-source-line="3" id="ent0002"><rect fill="#F1F1F1" height="47.6094" rx="2.5" ry="2.5" style="stroke:#181818;stroke-width:0.5;" width="145.8271" x="905" y="188"/><rect fill="#F1F1F1" height="10" style="stroke:#181818;stroke-width:0.5;" width="15" x="1030.8271" y="193"/><rect fill="#F1F1F1" height="2" style="stroke:#181818;stroke-width:0.5;" width="4" x="1028.8271" y="195"/><rect fill="#F1F1F1" height="2" style="stroke:#181818;stroke-width:0.5;" width="4" x="1028.8271" y="199"/><text fill="#000000" font-family="sans-serif" font-size="14" lengthAdjust="spacing" textLength="105.8271" x="920" y="222.5332">hAFL2 Controller</text></g><!--entity LaunchScripts--><g class="entity" data-qualified-name="Host Control Layer.LaunchScripts" data-source-line="4" id="ent0003"><rect fill="#F1F1F1" height="47.6094" rx="2.5" ry="2.5" style="stroke:#181818;stroke-width:0.5;" width="132.6064" x="751.5" y="62"/><rect fill="#F1F1F1" height="10" style="stroke:#181818;stroke-width:0.5;" width="15" x="864.1064" y="67"/><rect fill="#F1F1F1" height="2" style="stroke:#181818;stroke-width:0.5;" width="4" x="862.1064" y="69"/><rect fill="#F1F1F1" height="2" style="stroke:#181818;stroke-width:0.5;" width="4" x="862.1064" y="73"/><text fill="#000000" font-family="sans-serif" font-size="14" lengthAdjust="spacing" textLength="92.6064" x="766.5" y="96.5332">Launch Scripts</text></g><!--entity pytest_Integration--><g class="entity" data-qualified-name="Host Control Layer.pytest_Integration" data-source-line="5" id="ent0004"><rect fill="#F1F1F1" height="47.6094" rx="2.5" ry="2.5" style="stroke:#181818;stroke-width:0.5;" width="147.3994" x="919.5" y="62"/><rect fill="#F1F1F1" height="10" style="stroke:#181818;stroke-width:0.5;" width="15" x="1046.8994" y="67"/><rect fill="#F1F1F1" height="2" style="stroke:#181818;stroke-width:0.5;" width="4" x="1044.8994" y="69"/><rect fill="#F1F1F1" height="2" style="stroke:#181818;stroke-width:0.5;" width="4" x="1044.8994" y="73"/><text fill="#000000" font-family="sans-serif" font-size="14" lengthAdjust="spacing" textLength="107.3994" x="934.5" y="96.5332">pytest Integration</text></g><!--entity LinuxHost--><g class="entity" data-qualified-name="Host Control Layer.LinuxHost" data-source-line="6" id="ent0005"><rect fill="#F1F1F1" height="47.6094" rx="2.5" ry="2.5" style="stroke:#181818;stroke-width:0.5;" width="156.71" x="559.5" y="62"/><rect fill="#F1F1F1" height="10" style="stroke:#181818;stroke-width:0.5;" width="15" x="696.21" y="67"/><rect fill="#F1F1F1" height="2" style="stroke:#181818;stroke-width:0.5;" width="4" x="694.21" y="69"/><rect fill="#F1F1F1" height="2" style="stroke:#181818;stroke-width:0.5;" width="4" x="694.21" y="73"/><text fill="#000000" font-family="sans-serif" font-size="14" lengthAdjust="spacing" textLength="116.71" x="574.5" y="96.5332">Linux Host System</text></g><!--entity initrd_Builder--><g class="entity" data-qualified-name="Host Control Layer.initrd_Builder" data-source-line="7" id="ent0006"><rect fill="#F1F1F1" height="47.6094" rx="2.5" ry="2.5" style="stroke:#181818;stroke-width:0.5;" width="117.8135" x="576" y="188"/><rect fill="#F1F1F1" height="10" style="stroke:#181818;stroke-width:0.5;" width="15" x="673.8135" y="193"/><rect fill="#F1F1F1" height="2" style="stroke:#181818;stroke-width:0.5;" width="4" x="671.8135" y="195"/><rect fill="#F1F1F1" height="2" style="stroke:#181818;stroke-width:0.5;" width="4" x="671.8135" y="199"/><text fill="#000000" font-family="sans-serif" font-size="14" lengthAdjust="spacing" textLength="77.8135" x="591" y="222.5332">initrd Builder</text></g><!--entity EmbeddedForkserver--><g class="entity" data-qualified-name="Guest Execution Layer.Linux Guest VM.EmbeddedForkserver" data-source-line="12" id="ent0009"><rect fill="#F1F1F1" height="47.6094" rx="2.5" ry="2.5" style="stroke:#181818;stroke-width:0.5;" width="178.5029" x="612.5" y="412"/><rect fill="#F1F1F1" height="10" style="stroke:#181818;stroke-width:0.5;" width="15" x="771.0029" y="417"/><rect fill="#F1F1F1" height="2" style="stroke:#181818;stroke-width:0.5;" width="4" x="769.0029" y="419"/><rect fill="#F1F1F1" height="2" style="stroke:#181818;stroke-width:0.5;" width="4" x="769.0029" y="423"/><text fill="#000000" font-family="sans-serif" font-size="14" lengthAdjust="spacing" textLength="138.5029" x="627.5" y="446.5332">Embedded Forkserver</text></g><!--entity initrd--><g class="entity" data-qualified-name="Guest Execution Layer.Linux Guest VM.initrd" data-source-line="13" id="ent0010"><rect fill="#F1F1F1" height="47.6094" rx="2.5" ry="2.5" style="stroke:#181818;stroke-width:0.5;" width="70.3447" x="507" y="412"/><rect fill="#F1F1F1" height="10" style="stroke:#181818;stroke-width:0.5;" width="15" x="557.3447" y="417"/><rect fill="#F1F1F1" height="2" style="stroke:#181818;stroke-width:0.5;" width="4" x="555.3447" y="419"/><rect fill="#F1F1F1" height="2" style="stroke:#181818;stroke-width:0.5;" width="4" x="555.3447" y="423"/><text fill="#000000" font-family="sans-serif" font-size="14" lengthAdjust="spacing" textLength="30.3447" x="522" y="446.5332">initrd</text></g><!--entity ChildHarness--><g class="entity" data-qualified-name="Guest Execution Layer.Child Partition VM.ChildHarness" data-source-line="17" id="ent0012"><rect fill="#F1F1F1" height="47.6094" rx="2.5" ry="2.5" style="stroke:#181818;stroke-width:0.5;" width="183.1719" x="267.5" y="540"/><rect fill="#F1F1F1" height="10" style="stroke:#181818;stroke-width:0.5;" width="15" x="430.6719" y="545"/><rect fill="#F1F1F1" height="2" style="stroke:#181818;stroke-width:0.5;" width="4" x="428.6719" y="547"/><rect fill="#F1F1F1" height="2" style="stroke:#181818;stroke-width:0.5;" width="4" x="428.6719" y="551"/><text fill="#000000" font-family="sans-serif" font-size="14" lengthAdjust="spacing" textLength="143.1719" x="282.5" y="574.5332">Child Partition Harness</text></g><!--entity harness_driver--><g class="entity" data-qualified-name="Guest Execution Layer.Child Partition VM.harness_driver" data-source-line="18" id="ent0013"><rect fill="#F1F1F1" height="47.6094" rx="2.5" ry="2.5" style="stroke:#181818;stroke-width:0.5;" width="129.4756" x="321.5" y="697.5"/><rect fill="#F1F1F1" height="10" style="stroke:#181818;stroke-width:0.5;" width="15" x="430.9756" y="702.5"/><rect fill="#F1F1F1" height="2" style="stroke:#181818;stroke-width:0.5;" width="4" x="428.9756" y="704.5"/><rect fill="#F1F1F1" height="2" style="stroke:#181818;stroke-width:0.5;" width="4" x="428.9756" y="708.5"/><text fill="#000000" font-family="sans-serif" font-size="14" lengthAdjust="spacing" textLength="89.4756" x="336.5" y="732.0332">harness-driver</text></g><!--entity PacketSender--><g class="entity" data-qualified-name="Guest Execution Layer.Child Partition VM.PacketSender" data-source-line="19" id="ent0014"><rect fill="#F1F1F1" height="47.6094" rx="2.5" ry="2.5" style="stroke:#181818;stroke-width:0.5;" width="158.3027" x="115" y="823.5"/><rect fill="#F1F1F1" height="10" style="stroke:#181818;stroke-width:0.5;" width="15" x="253.3027" y="828.5"/><rect fill="#F1F1F1" height="2" style="stroke:#181818;stroke-width:0.5;" width="4" x="251.3027" y="830.5"/><rect fill="#F1F1F1" height="2" style="stroke:#181818;stroke-width:0.5;" width="4" x="251.3027" y="834.5"/><text fill="#000000" font-family="sans-serif" font-size="14" lengthAdjust="spacing" textLength="118.3027" x="130" y="858.0332">packet_sender.exe</text></g><!--entity Loader--><g class="entity" data-qualified-name="Guest Execution Layer.Child Partition VM.Loader" data-source-line="20" id="ent0015"><rect fill="#F1F1F1" height="47.6094" rx="2.5" ry="2.5" style="stroke:#181818;stroke-width:0.5;" width="105.3789" x="147.5" y="619.5"/><rect fill="#F1F1F1" height="10" style="stroke:#181818;stroke-width:0.5;" width="15" x="232.8789" y="624.5"/><rect fill="#F1F1F1" height="2" style="stroke:#181818;stroke-width:0.5;" width="4" x="230.8789" y="626.5"/><rect fill="#F1F1F1" height="2" style="stroke:#181818;stroke-width:0.5;" width="4" x="230.8789" y="630.5"/><text fill="#000000" font-family="sans-serif" font-size="14" lengthAdjust="spacing" textLength="65.3789" x="162.5" y="654.0332">loader.exe</text></g><!--entity WindowsOffsetConfig--><g class="entity" data-qualified-name="Guest Execution Layer.Child Partition VM.WindowsOffsetConfig" data-source-line="21" id="ent0016"><rect fill="#F1F1F1" height="47.6094" rx="2.5" ry="2.5" style="stroke:#181818;stroke-width:0.5;" width="182.3857" x="109" y="412"/><rect fill="#F1F1F1" height="10" style="stroke:#181818;stroke-width:0.5;" width="15" x="271.3857" y="417"/><rect fill="#F1F1F1" height="2" style="stroke:#181818;stroke-width:0.5;" width="4" x="269.3857" y="419"/><rect fill="#F1F1F1" height="2" style="stroke:#181818;stroke-width:0.5;" width="4" x="269.3857" y="423"/><text fill="#000000" font-family="sans-serif" font-size="14" lengthAdjust="spacing" textLength="142.3857" x="124" y="446.5332">Windows Offset Config</text></g><!--entity CrashMonitor--><g class="entity" data-qualified-name="Guest Execution Layer.Root Partition VM.CrashMonitor" data-source-line="25" id="ent0018"><rect fill="#F1F1F1" height="47.6094" rx="2.5" ry="2.5" style="stroke:#181818;stroke-width:0.5;" width="208.8203" x="848.5" y="412"/><rect fill="#F1F1F1" height="10" style="stroke:#181818;stroke-width:0.5;" width="15" x="1037.3203" y="417"/><rect fill="#F1F1F1" height="2" style="stroke:#181818;stroke-width:0.5;" width="4" x="1035.3203" y="419"/><rect fill="#F1F1F1" height="2" style="stroke:#181818;stroke-width:0.5;" width="4" x="1035.3203" y="423"/><text fill="#000000" font-family="sans-serif" font-size="14" lengthAdjust="spacing" textLength="168.8203" x="863.5" y="446.5332">Crash-Monitoring Workflow</text></g><!--entity HypercallIOCTL--><g class="entity" data-qualified-name="Communication Layer.HypercallIOCTL" data-source-line="30" id="ent0020"><rect fill="#F1F1F1" height="47.6094" rx="2.5" ry="2.5" style="stroke:#181818;stroke-width:0.5;" width="216.6133" x="1138.5" y="412"/><rect fill="#F1F1F1" height="10" style="stroke:#181818;stroke-width:0.5;" width="15" x="1335.1133" y="417"/><rect fill="#F1F1F1" height="2" style="stroke:#181818;stroke-width:0.5;" width="4" x="1333.1133" y="419"/><rect fill="#F1F1F1" height="2" style="stroke:#181818;stroke-width:0.5;" width="4" x="1333.1133" y="423"/><text fill="#000000" font-family="sans-serif" font-size="14" lengthAdjust="spacing" textLength="176.6133" x="1153.5" y="446.5332">Hypercall/IOCTL Translation</text></g><!--entity VMBus_Channel--><g class="entity" data-qualified-name="Communication Layer.VMBus_Channel" data-source-line="31" id="ent0021"><rect fill="#F1F1F1" height="47.6094" rx="2.5" ry="2.5" style="stroke:#181818;stroke-width:0.5;" width="185.5166" x="1391" y="412"/><rect fill="#F1F1F1" height="10" style="stroke:#181818;stroke-width:0.5;" width="15" x="1556.5166" y="417"/><rect fill="#F1F1F1" height="2" style="stroke:#181818;stroke-width:0.5;" width="4" x="1554.5166" y="419"/><rect fill="#F1F1F1" height="2" style="stroke:#181818;stroke-width:0.5;" width="4" x="1554.5166" y="423"/><text fill="#000000" font-family="sans-serif" font-size="14" lengthAdjust="spacing" textLength="145.5166" x="1406" y="446.5332">VMBus/netvsc Channel</text></g><!--entity VMSwitch--><g class="entity" data-qualified-name="Communication Layer.VMSwitch" data-source-line="32" id="ent0022"><path d="M1189,550.5 C1189,540.5 1269.0205,540.5 1269.0205,540.5 C1269.0205,540.5 1349.041,540.5 1349.041,550.5 L1349.041,577.1094 C1349.041,587.1094 1269.0205,587.1094 1269.0205,587.1094 C1269.0205,587.1094 1189,587.1094 1189,577.1094 L1189,550.5" fill="#F1F1F1" style="stroke:#181818;stroke-width:0.5;"/><path d="M1189,550.5 C1189,560.5 1269.0205,560.5 1269.0205,560.5 C1269.0205,560.5 1349.041,560.5 1349.041,550.5" fill="none" style="stroke:#181818;stroke-width:0.5;"/><text fill="#000000" font-family="sans-serif" font-size="14" lengthAdjust="spacing" textLength="140.041" x="1199" y="579.0332">Hyper-V Virtual Switch</text></g><!--link LinuxHost to initrd_Builder--><g class="link" data-entity-1="ent0005" data-entity-2="ent0006" data-link-type="dependency" data-source-line="36" id="lnk23"><path d="M634.8,110.17 C633.68,119.43 632.55,130.2 632,140 C631.1,156.01 631.5212,169.0829 632.5212,182.9829" fill="none" id="LinuxHost-to-initrd_Builder" style="stroke:#181818;stroke-width:1;"/><polygon fill="#181818" points="632.88,187.97,636.2239,178.7062,632.5212,182.9829,628.2445,179.2802,632.88,187.97" style="stroke:#181818;stroke-width:1;stroke-linejoin:miter;stroke-miterlimit:10;"/><text fill="#000000" font-family="sans-serif" font-size="13" lengthAdjust="spacing" textLength="141.6226" x="633" y="154.4951">provides shared libraries</text></g><!--link initrd_Builder to initrd--><g class="link" data-entity-1="ent0006" data-entity-2="ent0010" data-link-type="dependency" data-source-line="37" id="lnk24"><path d="M622.83,236.11 C614.56,252.16 603.61,274.14 595,294 C577.31,334.79 561.3938,378.8579 551.5838,407.0379" fill="none" id="initrd_Builder-to-initrd" style="stroke:#181818;stroke-width:1;"/><polygon fill="#181818" points="549.94,411.76,556.6766,404.5754,551.5838,407.0379,549.1213,401.9452,549.94,411.76" style="stroke:#181818;stroke-width:1;stroke-linejoin:miter;stroke-miterlimit:10;"/><text fill="#000000" font-family="sans-serif" font-size="13" lengthAdjust="spacing" textLength="80.2217" x="608" y="282.4951">packages into</text></g><!--link LaunchScripts to initrd_Builder--><g class="link" data-entity-1="ent0003" data-entity-2="ent0006" data-link-type="dependency" data-source-line="38" id="lnk25"><path d="M810.16,110.28 C803.89,125.7 793.71,145.34 779,158 C755.07,178.59 727.254,190.129 699.104,198.029" fill="none" id="LaunchScripts-to-initrd_Builder" style="stroke:#181818;stroke-width:1;"/><polygon fill="#181818" points="694.29,199.38,704.036,200.7994,699.104,198.029,701.8744,193.097,694.29,199.38" style="stroke:#181818;stroke-width:1;stroke-linejoin:miter;stroke-miterlimit:10;"/><text fill="#000000" font-family="sans-serif" font-size="13" lengthAdjust="spacing" textLength="71.5317" x="795" y="154.4951">orchestrates</text></g><!--link pytest_Integration to hAFL2_Controller--><g class="link" data-entity-1="ent0004" data-entity-2="ent0002" data-link-type="dependency" data-source-line="39" id="lnk26"><path d="M990.21,110.03 C987.54,132.17 984.1107,160.4762 981.4207,182.7062" fill="none" id="pytest_Integration-to-hAFL2_Controller" style="stroke:#181818;stroke-width:1;"/><polygon fill="#181818" points="980.82,187.67,985.8722,179.2157,981.4207,182.7062,977.9301,178.2547,980.82,187.67" style="stroke:#181818;stroke-width:1;stroke-linejoin:miter;stroke-miterlimit:10;"/><text fill="#000000" font-family="sans-serif" font-size="13" lengthAdjust="spacing" textLength="103.3271" x="987" y="154.4951">executes tests via</text></g><!--link hAFL2_Controller to HypercallIOCTL--><g class="link" data-entity-1="ent0002" data-entity-2="ent0020" data-link-type="dependency" data-source-line="42" id="lnk27"><path d="M1041.14,236.1 C1060.33,244.62 1080.85,255.34 1098,268 C1154.89,310.01 1203.3029,372.6148 1228.2129,407.6548" fill="none" id="hAFL2_Controller-to-HypercallIOCTL" style="stroke:#181818;stroke-width:1;"/><polygon fill="#181818" points="1231.11,411.73,1229.1554,402.077,1228.2129,407.6548,1222.6352,406.7123,1231.11,411.73" style="stroke:#181818;stroke-width:1;stroke-linejoin:miter;stroke-miterlimit:10;"/><text fill="#000000" font-family="sans-serif" font-size="13" lengthAdjust="spacing" textLength="71.5317" x="1117" y="282.4951">orchestrates</text></g><!--link HypercallIOCTL to EmbeddedForkserver--><g class="link" data-entity-1="ent0020" data-entity-2="ent0009" data-link-type="dependency" data-source-line="43" id="lnk28"><path d="M1224.31,411.92 C1193.64,381.32 1135.65,330.07 1074,310 C971.73,276.7 931.69,269.62 832,310 C781.31,330.53 742.3622,377.2814 720.7622,407.7414" fill="none" id="HypercallIOCTL-to-EmbeddedForkserver" style="stroke:#181818;stroke-width:1;"/><polygon fill="#181818" points="717.87,411.82,726.3389,406.7923,720.7622,407.7414,719.8132,402.1647,717.87,411.82" style="stroke:#181818;stroke-width:1;stroke-linejoin:miter;stroke-miterlimit:10;"/><text fill="#000000" font-family="sans-serif" font-size="13" lengthAdjust="spacing" textLength="109.8335" x="827.5" y="282.4951">translates for Linux</text></g><!--link HypercallIOCTL to ChildHarness--><g class="link" data-entity-1="ent0020" data-entity-2="ent0012" data-link-type="dependency" data-source-line="44" id="lnk29"><path d="M1204.89,460.05 C1171.72,477.01 1123.77,498.96 1079,510 C962.4,538.74 621.9368,553.9719 455.5668,559.9019" fill="none" id="HypercallIOCTL-to-ChildHarness" style="stroke:#181818;stroke-width:1;"/><polygon fill="#181818" points="450.57,560.08,459.7068,563.7569,455.5668,559.9019,459.4218,555.762,450.57,560.08" style="stroke:#181818;stroke-width:1;stroke-linejoin:miter;stroke-miterlimit:10;"/><text fill="#000000" font-family="sans-serif" font-size="13" lengthAdjust="spacing" textLength="131.4917" x="1132" y="506.4951">translates for Windows</text></g><!--link ChildHarness to harness_driver--><g class="link" data-entity-1="ent0012" data-entity-2="ent0013" data-link-type="dependency" data-source-line="45" id="lnk30"><path d="M363.04,588.28 C368.15,617.68 376.0259,663.0335 381.1159,692.3935" fill="none" id="ChildHarness-to-harness_driver" style="stroke:#181818;stroke-width:1;"/><polygon fill="#181818" points="381.97,697.32,384.3739,687.769,381.1159,692.3935,376.4914,689.1355,381.97,697.32" style="stroke:#181818;stroke-width:1;stroke-linejoin:miter;stroke-miterlimit:10;"/><text fill="#000000" font-family="sans-serif" font-size="13" lengthAdjust="spacing" textLength="45.519" x="378" y="648.9951">controls</text></g><!--link harness_driver to PacketSender--><g class="link" data-entity-1="ent0013" data-entity-2="ent0014" data-link-type="dependency" data-source-line="46" id="lnk31"><path d="M350.34,745.53 C315.96,767.74 268.4202,798.4373 234.0002,820.6673" fill="none" id="harness_driver-to-PacketSender" style="stroke:#181818;stroke-width:1;"/><polygon fill="#181818" points="229.8,823.38,239.5304,821.8573,234.0002,820.6673,235.1902,815.1371,229.8,823.38" style="stroke:#181818;stroke-width:1;stroke-linejoin:miter;stroke-miterlimit:10;"/><text fill="#000000" font-family="sans-serif" font-size="13" lengthAdjust="spacing" textLength="85.2427" x="303" y="789.9951">triggers IOCTL</text></g><!--link PacketSender to VMBus_Channel--><g class="link" data-entity-1="ent0014" data-entity-2="ent0021" data-link-type="dependency" data-source-line="47" id="lnk32"><path d="M273.26,847.36 C471.37,846.13 998.61,821.84 1367,611.5 C1419.61,581.46 1427.03,562.07 1458,510 C1467.28,494.39 1472.6287,479.7454 1476.9087,464.8554" fill="none" id="PacketSender-to-VMBus_Channel" style="stroke:#181818;stroke-width:1;"/><polygon fill="#181818" points="1478.29,460.05,1471.9594,467.5947,1476.9087,464.8554,1479.648,469.8048,1478.29,460.05" style="stroke:#181818;stroke-width:1;stroke-linejoin:miter;stroke-miterlimit:10;"/><text fill="#000000" font-family="sans-serif" font-size="13" lengthAdjust="spacing" textLength="110.5698" x="1346" y="648.9951">sends payloads via</text></g><!--link VMBus_Channel to VMSwitch--><g class="link" data-entity-1="ent0021" data-entity-2="ent0022" data-link-type="dependency" data-source-line="48" id="lnk33"><path d="M1436.86,460.02 C1417.47,468.67 1394.54,477.89 1373,484 C1350.51,490.39 1340.99,479.86 1321,492 C1302.32,503.34 1290.6705,519.7631 1281.9105,535.9431" fill="none" id="VMBus_Channel-to-VMSwitch" style="stroke:#181818;stroke-width:1;"/><polygon fill="#181818" points="1279.53,540.34,1287.3325,534.33,1281.9105,535.9431,1280.2974,530.5211,1279.53,540.34" style="stroke:#181818;stroke-width:1;stroke-linejoin:miter;stroke-miterlimit:10;"/><text fill="#000000" font-family="sans-serif" font-size="13" lengthAdjust="spacing" textLength="131.5107" x="1322" y="506.4951">communicates through</text></g><!--link VMSwitch to CrashMonitor--><g class="link" data-entity-1="ent0022" data-entity-2="ent0018" data-link-type="dependency" data-source-line="49" id="lnk34"><path d="M1188.83,559.16 C1109.83,553.65 996.63,540.54 966,510 C953.15,497.19 950.4419,481.3395 950.6619,465.1995" fill="none" id="VMSwitch-to-CrashMonitor" style="stroke:#181818;stroke-width:1;"/><polygon fill="#181818" points="950.73,460.2,946.6077,469.1446,950.6619,465.1995,954.607,469.2537,950.73,460.2" style="stroke:#181818;stroke-width:1;stroke-linejoin:miter;stroke-miterlimit:10;"/><text fill="#000000" font-family="sans-serif" font-size="13" lengthAdjust="spacing" textLength="107.6563" x="967" y="506.4951">triggers monitoring</text></g><!--link CrashMonitor to hAFL2_Controller--><g class="link" data-entity-1="ent0018" data-entity-2="ent0002" data-link-type="dependency" data-source-line="50" id="lnk35"><path d="M955.59,411.97 C960.38,369.46 970.001,284.0586 974.811,241.3086" fill="none" id="CrashMonitor-to-hAFL2_Controller" style="stroke:#181818;stroke-width:1;"/><polygon fill="#181818" points="975.37,236.34,970.3888,244.8363,974.811,241.3086,978.3386,245.7308,975.37,236.34" style="stroke:#181818;stroke-width:1;stroke-linejoin:miter;stroke-miterlimit:10;"/><text fill="#000000" font-family="sans-serif" font-size="13" lengthAdjust="spacing" textLength="117.7617" x="972" y="282.4951">reports crash results</text></g><!--link Loader to PacketSender--><g class="link" data-entity-1="ent0015" data-entity-2="ent0014" data-link-type="dependency" data-source-line="53" id="lnk36"><path d="M161.14,667.63 C151.08,675.71 141.53,685.75 136,697.5 C115.56,740.96 146.0958,789.8323 170.0758,819.4823" fill="none" id="Loader-to-PacketSender" style="stroke:#181818;stroke-width:1;"/><polygon fill="#181818" points="173.22,823.37,170.6705,813.8568,170.0758,819.4823,164.4503,818.8876,173.22,823.37" style="stroke:#181818;stroke-width:1;stroke-linejoin:miter;stroke-miterlimit:10;"/><text fill="#000000" font-family="sans-serif" font-size="13" lengthAdjust="spacing" textLength="166.9307" x="137" y="726.9951">creates snapshot &amp; executes</text></g><!--link WindowsOffsetConfig to ChildHarness--><g class="link" data-entity-1="ent0016" data-entity-2="ent0012" data-link-type="dependency" data-source-line="54" id="lnk37"><path d="M229.16,460.11 C257.76,482.77 297.2113,514.0346 325.8313,536.7146" fill="none" id="WindowsOffsetConfig-to-ChildHarness" style="stroke:#181818;stroke-width:1;"/><polygon fill="#181818" points="329.75,539.82,325.1806,531.0953,325.8313,536.7146,320.212,537.3652,329.75,539.82" style="stroke:#181818;stroke-width:1;stroke-linejoin:miter;stroke-miterlimit:10;"/><text fill="#000000" font-family="sans-serif" font-size="13" lengthAdjust="spacing" textLength="59.979" x="291" y="506.4951">configures</text></g><!--link WindowsOffsetConfig to PacketSender--><g class="link" data-entity-1="ent0016" data-entity-2="ent0014" data-link-type="dependency" data-source-line="55" id="lnk38"><path d="M175.78,460.18 C144.06,492.4 90.02,554.16 69,619.5 C43.23,699.59 118.0836,780.4662 162.3136,820.0362" fill="none" id="WindowsOffsetConfig-to-PacketSender" style="stroke:#181818;stroke-width:1;"/><polygon fill="#181818" points="166.04,823.37,161.9995,814.3881,162.3136,820.0362,156.6655,820.3503,166.04,823.37" style="stroke:#181818;stroke-width:1;stroke-linejoin:miter;stroke-miterlimit:10;"/><text fill="#000000" font-family="sans-serif" font-size="13" lengthAdjust="spacing" textLength="59.979" x="70" y="648.9951">configures</text></g><!--link WindowsOffsetConfig to Loader--><g class="link" data-entity-1="ent0016" data-entity-2="ent0015" data-link-type="dependency" data-source-line="56" id="lnk39"><path d="M200,460.17 C200,499.75 200,574.9 200,614.41" fill="none" id="WindowsOffsetConfig-to-Loader" style="stroke:#181818;stroke-width:1;"/><polygon fill="#181818" points="200,619.41,204,610.41,200,614.41,196,610.41,200,619.41" style="stroke:#181818;stroke-width:1;stroke-linejoin:miter;stroke-miterlimit:10;"/><text fill="#000000" font-family="sans-serif" font-size="13" lengthAdjust="spacing" textLength="59.979" x="201" y="506.4951">configures</text></g><?plantuml-src ZLLDJzj04BtxLwnyQ4yfKeyzL2ef5DGWK8F2CLhM4tk5islDhWDHnN_lpkoQ-8kA72BvpNkUxt4ZrPCiGUHNrdcnjCQZhSLA7W5pyJSJuQVilh46Z1TvzUDozRLZrKIHJZ2uFO5ZqKgsHbLYhL0tth4aGWaPyvkZXn3BjV5GelJQ6jP4UDk39uwqQLy49x8-EW_xw8jG0iTqRRJ7GfotkYvIAX7Q9YXxpRAcgy-lbeAwU07LakzXYOmjeFCVYPkRpZRoUh5_XAA0GbnQV7A0X-Iwmq_md3e6s8kLIQ_ytujaMOK4n9r4hpdOTwCP4wya6d2nIMnBm9osYgP5WRfB8a7R2Cs9g9xWjmvCAF0NU07MtJ6wPd1ELLlPfw_uSOxue4rXdvsutUqSy3plTCcQP8c6YC_Nxe-r_aEbG-cgnOqDRR2eJIaUGkTsjNsEnIDhCYO__MbQsls-DLh9wIprN5mT6q0bw_hi-dPvlnBtA8shJolnPcVpMBsvEM_TcG5_S2eqKne3DSlOi4q8gmhfvQDqa5mkDcAZqRUo5kjdxLMLPF614laiViDH_8I6McQK1fUzxPbOBBwFDaby2vr7Uz05EE72b8Jvh_KZIWpAF1kHJthMnPhHm7kRPuFJyOuhYweAInYk1BrzUZXODZvR90HUx-2B54uSjCmfrs6txgIlN3QHqpk73Pc6ChAJPBht9FEfqo6KdSLumsRb_IMT4QQfpxC1ZzCVh2f9LSmba4SselStDFhHPGde18UIPmCx2GP3HWfQ-N35vP6METLsI8goE6GneAxir94ARLjMf4aCJh-tPeEmzczx6NBlazvhFK9ZCVHS4LaWkBOE7olgFWqEch0Bmt7d6pHR6uN08JiZ6rU5Q_99T8ELPpDtQBQHYaqj_aypSVm1JOfxnFu7?></g></svg>