<svg xmlns="http://www.w3.org/2000/svg" xmlns:xlink="http://www.w3.org/1999/xlink" contentStyleType="text/css" data-diagram-type="DESCRIPTION" height="365px" preserveAspectRatio="none" style="width:2632px;height:365px;background:#FFFFFF;" version="1.1" viewBox="0 0 2632 365" width="2632px" zoomAndPan="magnify"><?plantuml 1.2026.6?><defs/><g><!--cluster Presentation Layer--><g class="cluster" data-qualified-name="Presentation Layer" data-source-line="11" id="ent0001"><path d="M607.5,154.66 L734.5479,154.66 A3.75,3.75 0 0 1 737.0479,157.16 L744.0479,178.2694 L801.5,178.2694 A2.5,2.5 0 0 1 804,180.7694 L804,308.16 A2.5,2.5 0 0 1 801.5,310.66 L607.5,310.66 A2.5,2.5 0 0 1 605,308.16 L605,157.16 A2.5,2.5 0 0 1 607.5,154.66" fill="#90EE90" style="stroke:#000000;stroke-width:1.5;"/><line style="stroke:#000000;stroke-width:1.5;" x1="605" x2="744.0479" y1="178.2694" y2="178.2694"/><text fill="#000000" font-family="sans-serif" font-size="14" font-weight="700" lengthAdjust="spacing" textLength="126.0479" x="609" y="171.1932">Presentation Layer</text><text fill="#000000" font-family="sans-serif" font-size="14" font-style="italic" lengthAdjust="spacing" textLength="94.1787" x="661.4106" y="194.8026">&#171;Presentation&#187;</text></g><!--cluster Application/Business Logic Layer--><g class="cluster" data-qualified-name="Application.Business Logic Layer" data-source-line="16" id="ent0004"><path d="M8.5,94.66 L234.3271,94.66 A3.75,3.75 0 0 1 236.8271,97.16 L243.8271,118.2694 L578.5,118.2694 A2.5,2.5 0 0 1 581,120.7694 L581,348.16 A2.5,2.5 0 0 1 578.5,350.66 L8.5,350.66 A2.5,2.5 0 0 1 6,348.16 L6,97.16 A2.5,2.5 0 0 1 8.5,94.66" fill="#ADD8E6" style="stroke:#000000;stroke-width:1.5;"/><line style="stroke:#000000;stroke-width:1.5;" x1="6" x2="243.8271" y1="118.2694" y2="118.2694"/><text fill="#000000" font-family="sans-serif" font-size="14" font-weight="700" lengthAdjust="spacing" textLength="224.8271" x="10" y="111.1932">Application/Business Logic Layer</text><text fill="#000000" font-family="sans-serif" font-size="14" font-style="italic" lengthAdjust="spacing" textLength="84.0615" x="255.4692" y="134.8026">&#171;Application&#187;</text></g><!--cluster adapter_container--><g class="cluster" data-qualified-name="Application.Business Logic Layer.adapter_container" data-source-line="17" id="ent0005"><rect fill="none" height="136" rx="2.5" ry="2.5" style="stroke:#181818;stroke-width:1;" width="370" x="179" y="182.66"/><text fill="#000000" font-family="sans-serif" font-size="14" font-weight="700" lengthAdjust="spacing" textLength="122.124" x="302.938" y="199.1932">Adapter Container</text></g><!--cluster Infrastructure/Platform Layer--><g class="cluster" data-qualified-name="Infrastructure.Platform Layer" data-source-line="27" id="ent0011"><path d="M830.5,102.16 L1024.4443,102.16 A3.75,3.75 0 0 1 1026.9443,104.66 L1033.9443,125.7694 L2277.5,125.7694 A2.5,2.5 0 0 1 2280,128.2694 L2280,340.66 A2.5,2.5 0 0 1 2277.5,343.16 L830.5,343.16 A2.5,2.5 0 0 1 828,340.66 L828,104.66 A2.5,2.5 0 0 1 830.5,102.16" fill="#FFFFE0" style="stroke:#000000;stroke-width:1.5;"/><line style="stroke:#000000;stroke-width:1.5;" x1="828" x2="1033.9443" y1="125.7694" y2="125.7694"/><text fill="#000000" font-family="sans-serif" font-size="14" font-weight="700" lengthAdjust="spacing" textLength="192.9443" x="832" y="118.6932">Infrastructure/Platform Layer</text><text fill="#000000" font-family="sans-serif" font-size="14" font-style="italic" lengthAdjust="spacing" textLength="98.0479" x="1508.9761" y="142.3026">&#171;Infrastructure&#187;</text></g><!--cluster gke_cluster--><g class="cluster" data-qualified-name="Infrastructure.Platform Layer.gke_cluster" data-source-line="28" id="ent0012"><rect fill="none" height="137" rx="2.5" ry="2.5" style="stroke:#181818;stroke-width:1;" width="1404" x="852" y="182.16"/><text fill="#000000" font-family="sans-serif" font-size="14" font-weight="700" lengthAdjust="spacing" textLength="82.4619" x="1512.769" y="198.6932">GKE Cluster</text></g><!--entity websocketd--><g class="entity" data-qualified-name="Presentation Layer.websocketd" data-source-line="12" id="ent0002"><rect fill="#F1F1F1" height="47.6094" rx="2.5" ry="2.5" style="stroke:#181818;stroke-width:0.5;" width="113.9307" x="674" y="246.66"/><rect fill="#F1F1F1" height="10" style="stroke:#181818;stroke-width:0.5;" width="15" x="767.9307" y="251.66"/><rect fill="#F1F1F1" height="2" style="stroke:#181818;stroke-width:0.5;" width="4" x="765.9307" y="253.66"/><rect fill="#F1F1F1" height="2" style="stroke:#181818;stroke-width:0.5;" width="4" x="765.9307" y="257.66"/><text fill="#000000" font-family="sans-serif" font-size="14" lengthAdjust="spacing" textLength="73.9307" x="689" y="281.1932">websocketd</text></g><!--entity ws_endpoint--><g class="entity" data-qualified-name="Presentation Layer.ws_endpoint" data-source-line="13" id="ent0003"><ellipse cx="630" cy="270.66" fill="#F1F1F1" rx="8" ry="8" style="stroke:#181818;stroke-width:0.5;"/><text fill="#000000" font-family="sans-serif" font-size="14" lengthAdjust="spacing" textLength="130.7441" x="564.6279" y="302.1932">WebSocket Endpoint</text></g><g class="entity" data-qualified-name="Application.Business Logic Layer.GMN8" data-source-line="22" id="ent0009"><path d="M22.5,249.16 L22.5,291.8631 L151.8926,291.8631 L151.8926,259.16 L141.8926,249.16 L22.5,249.16" fill="#FEFFDD" style="stroke:#181818;stroke-width:0.5;"/><path d="M141.8926,249.16 L141.8926,259.16 L151.8926,259.16 L141.8926,249.16" fill="#FEFFDD" style="stroke:#181818;stroke-width:1;"/><text fill="#000000" font-family="sans-serif" font-size="13" lengthAdjust="spacing" textLength="108.3926" x="28.5" y="267.6551">Maintains cache of</text><text fill="#000000" font-family="sans-serif" font-size="13" lengthAdjust="spacing" textLength="101.1626" x="28.5" y="284.0067">last 10 messages</text></g><!--entity exec_sh--><g class="entity" data-qualified-name="Application.Business Logic Layer.adapter_container.exec_sh" data-source-line="18" id="ent0006"><rect fill="#F1F1F1" height="47.6094" rx="2.5" ry="2.5" style="stroke:#181818;stroke-width:0.5;" width="88.248" x="222" y="246.66"/><rect fill="#F1F1F1" height="10" style="stroke:#181818;stroke-width:0.5;" width="15" x="290.248" y="251.66"/><rect fill="#F1F1F1" height="2" style="stroke:#181818;stroke-width:0.5;" width="4" x="288.248" y="253.66"/><rect fill="#F1F1F1" height="2" style="stroke:#181818;stroke-width:0.5;" width="4" x="288.248" y="257.66"/><text fill="#000000" font-family="sans-serif" font-size="14" lengthAdjust="spacing" textLength="48.248" x="237" y="281.1932">exec.sh</text></g><!--entity pulltop--><g class="entity" data-qualified-name="Application.Business Logic Layer.adapter_container.pulltop" data-source-line="19" id="ent0007"><rect fill="#F1F1F1" height="47.6094" rx="2.5" ry="2.5" style="stroke:#181818;stroke-width:0.5;" width="134.165" x="391" y="246.66"/><rect fill="#F1F1F1" height="10" style="stroke:#181818;stroke-width:0.5;" width="15" x="505.165" y="251.66"/><rect fill="#F1F1F1" height="2" style="stroke:#181818;stroke-width:0.5;" width="4" x="503.165" y="253.66"/><rect fill="#F1F1F1" height="2" style="stroke:#181818;stroke-width:0.5;" width="4" x="503.165" y="257.66"/><text fill="#000000" font-family="sans-serif" font-size="14" lengthAdjust="spacing" textLength="94.165" x="406" y="281.1932">pulltop process</text></g><!--entity k8s_deployment--><g class="entity" data-qualified-name="Infrastructure.Platform Layer.gke_cluster.k8s_deployment" data-source-line="29" id="ent0013"><rect fill="#F1F1F1" height="47.6094" rx="2.5" ry="2.5" style="stroke:#181818;stroke-width:0.5;" width="190.1992" x="2050" y="246.66"/><rect fill="#F1F1F1" height="10" style="stroke:#181818;stroke-width:0.5;" width="15" x="2220.1992" y="251.66"/><rect fill="#F1F1F1" height="2" style="stroke:#181818;stroke-width:0.5;" width="4" x="2218.1992" y="253.66"/><rect fill="#F1F1F1" height="2" style="stroke:#181818;stroke-width:0.5;" width="4" x="2218.1992" y="257.66"/><text fill="#000000" font-family="sans-serif" font-size="14" lengthAdjust="spacing" textLength="150.1992" x="2065" y="281.1932">Kubernetes Deployment</text></g><!--entity k8s_service--><g class="entity" data-qualified-name="Infrastructure.Platform Layer.gke_cluster.k8s_service" data-source-line="30" id="ent0014"><rect fill="#F1F1F1" height="65.2188" rx="2.5" ry="2.5" style="stroke:#181818;stroke-width:0.5;" width="162.1787" x="1771" y="238.16"/><rect fill="#F1F1F1" height="10" style="stroke:#181818;stroke-width:0.5;" width="15" x="1913.1787" y="243.16"/><rect fill="#F1F1F1" height="2" style="stroke:#181818;stroke-width:0.5;" width="4" x="1911.1787" y="245.16"/><rect fill="#F1F1F1" height="2" style="stroke:#181818;stroke-width:0.5;" width="4" x="1911.1787" y="249.16"/><text fill="#000000" font-family="sans-serif" font-size="14" lengthAdjust="spacing" textLength="122.1787" x="1786" y="272.6932">Kubernetes Service</text><text fill="#000000" font-family="sans-serif" font-size="14" lengthAdjust="spacing" textLength="95.7236" x="1786" y="290.3026">(LoadBalancer)</text></g><!--entity k8s_configmap--><g class="entity" data-qualified-name="Infrastructure.Platform Layer.gke_cluster.k8s_configmap" data-source-line="31" id="ent0015"><rect fill="#F1F1F1" height="47.6094" rx="2.5" ry="2.5" style="stroke:#181818;stroke-width:0.5;" width="183.1992" x="868.5" y="246.66"/><rect fill="#F1F1F1" height="10" style="stroke:#181818;stroke-width:0.5;" width="15" x="1031.6992" y="251.66"/><rect fill="#F1F1F1" height="2" style="stroke:#181818;stroke-width:0.5;" width="4" x="1029.6992" y="253.66"/><rect fill="#F1F1F1" height="2" style="stroke:#181818;stroke-width:0.5;" width="4" x="1029.6992" y="257.66"/><text fill="#000000" font-family="sans-serif" font-size="14" lengthAdjust="spacing" textLength="143.1992" x="883.5" y="281.1932">Kubernetes ConfigMap</text></g><!--entity hpa--><g class="entity" data-qualified-name="Infrastructure.Platform Layer.gke_cluster.hpa" data-source-line="32" id="ent0016"><rect fill="#F1F1F1" height="47.6094" rx="2.5" ry="2.5" style="stroke:#181818;stroke-width:0.5;" width="243.8613" x="1087" y="246.66"/><rect fill="#F1F1F1" height="10" style="stroke:#181818;stroke-width:0.5;" width="15" x="1310.8613" y="251.66"/><rect fill="#F1F1F1" height="2" style="stroke:#181818;stroke-width:0.5;" width="4" x="1308.8613" y="253.66"/><rect fill="#F1F1F1" height="2" style="stroke:#181818;stroke-width:0.5;" width="4" x="1308.8613" y="257.66"/><text fill="#000000" font-family="sans-serif" font-size="14" lengthAdjust="spacing" textLength="203.8613" x="1102" y="281.1932">Horizontal Pod Autoscaler (HPA)</text></g><!--entity pubsub--><g class="entity" data-qualified-name="pubsub" data-source-line="36" id="ent0017"><path d="M2306.1515,256.3493 C2309.1763,251.1816 2312.5133,250.8081 2316.6495,255.1182 C2320.4302,249.5159 2324.1619,249.6325 2328.3357,254.6872 C2331.5972,249.1079 2334.8938,249.1488 2339.1285,253.6446 C2342.4271,247.507 2347.3929,247.2596 2350.7638,253.5772 C2353.9918,247.3118 2358.2936,248.2439 2362.2432,252.8126 C2363.6313,246.877 2368.3884,245.6237 2372.4135,250.2807 C2377.1278,244.3518 2380.7569,245.0985 2384.4464,251.2975 C2387.9945,245.9457 2392.9973,246.3163 2396.5087,251.3402 C2399.8864,247.0985 2405.1902,246.9165 2407.7359,252.3097 C2411.3098,246.7745 2414.7116,248.0251 2418.0512,252.5499 C2421.4579,247.4504 2426.5972,247.964 2429.6731,252.9318 C2432.6935,248.5332 2437.622,248.2383 2440.1633,253.4545 C2445.1603,247.7168 2449.507,249.078 2452.6596,255.3704 C2455.129,250.8046 2458.8488,250.8936 2461.9504,254.6661 C2469.5148,258.2977 2472.5544,263.7733 2465.4562,270.6258 C2472.8371,277.2656 2472.6186,283.0603 2463.4656,287.7815 C2459.7856,294.224 2455.541,295.1382 2451.0032,288.6055 C2447.1926,293.671 2444.1109,292.4495 2441.1227,287.7715 C2437.6664,293.0187 2431.5838,293.2359 2428.5411,287.306 C2425.3343,292.4661 2421.9459,293.8971 2417.2779,288.9312 C2413.7703,293.0849 2410.8085,292.9019 2407.5428,288.651 C2404.2435,294.9727 2400.3954,294.2506 2395.8686,290.0073 C2391.7125,294.351 2388.2279,294.6531 2385.2002,288.8239 C2381.8077,294.0486 2376.8886,295.2451 2373.1675,289.1739 C2370.1827,294.2857 2364.9203,293.6766 2362.3092,288.7689 C2358.7703,293.582 2354.3957,292.9528 2351.3793,288.1735 C2348.8522,294.5827 2343.2143,294.9465 2339.8541,288.9473 C2335.7779,294.795 2330.4066,294.2654 2327.1844,288.0503 C2324.2669,292.0827 2320.018,292.3069 2317.1091,288.0398 C2313.0396,293.3738 2308.5757,292.5004 2305.4986,286.9785 C2297.2994,284.7767 2294.3588,278.5281 2299.3262,271.1816 C2293.3377,263.5402 2297.5151,257.2609 2306.1515,256.3493" fill="#F1F1F1" style="stroke:#181818;stroke-width:0.5;"/><text fill="#000000" font-family="sans-serif" font-size="14" lengthAdjust="spacing" textLength="143.2129" x="2311.5" y="276.1932">Google Cloud Pub/Sub</text></g><!--entity web_clients--><g class="entity" data-qualified-name="web_clients" data-source-line="37" id="ent0018"><path d="M2513.8751,256.8243 C2515.2913,250.9473 2520.5716,249.962 2524.7547,253.6904 C2527.2371,247.8917 2532.008,247.7766 2535.1548,253.0674 C2538.9241,246.3966 2542.9651,245.8448 2548.1887,251.5338 C2551.262,246.9112 2555.8188,246.7436 2559.0567,251.3397 C2562.3558,245.4144 2567.6997,247.056 2570.2353,252.1166 C2573.1847,247.9437 2577.0545,247.8926 2579.8085,252.3338 C2583.6347,247.851 2589.0245,247.6921 2591.107,254.1367 C2595.6967,249.4201 2599.5349,249.4337 2603.0399,255.3536 C2613.4271,256.874 2615.7243,262.0035 2611.35,271.2437 C2617.345,280.7755 2611.8168,286.1526 2602.5545,287.355 C2599.913,293.0459 2595.2336,293.1426 2591.67,288.3086 C2588.9408,293.6053 2584.0326,295.0109 2580.2407,289.4247 C2576.7679,293.7842 2571.4001,294.0519 2568.7696,288.4544 C2566.3574,293.0281 2563.1052,294.0501 2559.2684,290.0292 C2554.549,295.8659 2550.6567,295.1568 2546.9835,288.9612 C2543.7082,293.8369 2538.4433,292.9728 2536.0728,287.9626 C2532.466,293.5217 2528.9106,292.4337 2525.6052,287.6574 C2521.9697,292.9144 2517.5496,293.1753 2514.6596,286.9468 C2506.5199,284.1588 2505.5756,278.8108 2510.1995,272.1703 C2504.0168,266.6194 2505.4062,258.8659 2513.8751,256.8243" fill="#F1F1F1" style="stroke:#181818;stroke-width:0.5;"/><text fill="#000000" font-family="sans-serif" font-size="14" lengthAdjust="spacing" textLength="75.4688" x="2519.5" y="276.1932">Web Clients</text></g><!--link pulltop to GMN8--><g class="link" data-entity-1="ent0007" data-entity-2="ent0009" data-link-type="association" data-source-line="22" id="lnk10"><path d="M450,246.39 C433.11,199.96 388.75,100.61 310.5,71.66 C259.65,52.85 239.35,52.85 188.5,71.66 C116.3,98.37 95.04,203.3 89.13,249.09" fill="none" id="pulltop-GMN8" style="stroke:#181818;stroke-width:1;stroke-dasharray:7,7;"/></g><!--link websocketd to exec_sh--><g class="link" data-entity-1="ent0002" data-entity-2="ent0006" data-link-type="dependency" data-source-line="40" id="lnk19"><path d="M728.48,246.49 C723.04,208.26 706.38,134.87 657,102.66 C551.65,33.95 484.4,42.39 374,102.66 C317.55,133.48 287.7929,203.1105 274.8129,241.7305" fill="none" id="websocketd-to-exec_sh" style="stroke:#181818;stroke-width:1;"/><polygon fill="#181818" points="273.22,246.47,279.8788,239.2133,274.8129,241.7305,272.2957,236.6646,273.22,246.47" style="stroke:#181818;stroke-width:1;stroke-linejoin:miter;stroke-miterlimit:10;"/><text fill="#000000" font-family="sans-serif" font-size="13" lengthAdjust="spacing" textLength="85.9854" x="371.5" y="67.1551">streams output</text></g><!--link exec_sh to pulltop--><g class="link" data-entity-1="ent0006" data-entity-2="ent0007" data-link-type="dependency" data-source-line="41" id="lnk20"><path d="M310.05,270.66 C333.96,270.66 359.03,270.66 385.81,270.66" fill="none" id="exec_sh-to-pulltop" style="stroke:#181818;stroke-width:1;"/><polygon fill="#181818" points="390.81,270.66,381.81,266.66,385.81,270.66,381.81,274.66,390.81,270.66" style="stroke:#181818;stroke-width:1;stroke-linejoin:miter;stroke-miterlimit:10;"/><text fill="#000000" font-family="sans-serif" font-size="13" lengthAdjust="spacing" textLength="44.0781" x="328.5" y="264.1551">invokes</text></g><!--link pulltop to websocketd--><g class="link" data-entity-1="ent0007" data-entity-2="ent0002" data-link-type="dependency" data-source-line="42" id="lnk21"><path d="M469.73,246.44 C499.25,188.87 579.74,52.27 657,102.66 C706.38,134.87 722.3356,203.3099 727.7756,241.5399" fill="none" id="pulltop-to-websocketd" style="stroke:#181818;stroke-width:1;"/><polygon fill="#181818" points="728.48,246.49,731.1722,237.0162,727.7756,241.5399,723.252,238.1433,728.48,246.49" style="stroke:#181818;stroke-width:1;stroke-linejoin:miter;stroke-miterlimit:10;"/><text fill="#000000" font-family="sans-serif" font-size="13" lengthAdjust="spacing" textLength="97.5508" x="550.5" y="67.1551">sends messages</text></g><!--link k8s_service to k8s_deployment--><g class="link" data-entity-1="ent0014" data-entity-2="ent0013" data-link-type="dependency" data-source-line="45" id="lnk22"><path d="M1933.23,270.66 C1969.39,270.66 2007.21,270.66 2044.86,270.66" fill="none" id="k8s_service-to-k8s_deployment" style="stroke:#181818;stroke-width:1;"/><polygon fill="#181818" points="2049.86,270.66,2040.86,266.66,2044.86,270.66,2040.86,274.66,2049.86,270.66" style="stroke:#181818;stroke-width:1;stroke-linejoin:miter;stroke-miterlimit:10;"/><text fill="#000000" font-family="sans-serif" font-size="13" lengthAdjust="spacing" textLength="80.228" x="1951.5" y="264.1551">load balances</text></g><!--link k8s_deployment to adapter_container--><g class="link" data-entity-1="ent0013" data-entity-2="ent0005" data-link-type="dependency" data-source-line="46" id="lnk23"><path d="M2128.09,246.52 C2098,205.93 2030.76,125.45 1951,94.66 C1860.56,59.75 278.14,29.89 206,94.66 C198.91,101.025 194.14,114.63 190.982,131.5948 C189.403,140.0773 188.2271,149.3996 187.3656,159.077 C186.9349,163.9156 186.5828,168.843 186.2982,173.7985 C186.156,176.2763 186.0306,178.7611 185.9207,181.2453 C185.907,181.5558 186.1067,176.8709 186.0934,177.1814" fill="none" id="k8s_deployment-to-adapter_container" style="stroke:#181818;stroke-width:1;"/><polygon fill="#181818" points="185.8802,182.1768,190.2604,173.3556,186.0934,177.1814,182.2676,173.0145,185.8802,182.1768" style="stroke:#181818;stroke-width:1;stroke-linejoin:miter;stroke-miterlimit:10;"/><text fill="#000000" font-family="sans-serif" font-size="13" lengthAdjust="spacing" textLength="85.2808" x="1429.5" y="59.1551">manages pods</text><text fill="#000000" font-family="sans-serif" font-size="13" lengthAdjust="spacing" textLength="63.5908" x="1440.345" y="75.5067">(port 8080)</text></g><!--link k8s_deployment to adapter_container--><g class="link" data-entity-1="ent0013" data-entity-2="ent0005" data-link-type="dependency" data-source-line="50" id="lnk27"><path d="M2128.09,246.52 C2098,205.93 2030.76,125.45 1951,94.66 C1860.56,59.75 278.14,29.89 206,94.66 C198.91,101.025 194.14,114.63 190.982,131.5948 C189.403,140.0773 188.2271,149.3996 187.3656,159.077 C186.9349,163.9156 186.5828,168.843 186.2982,173.7985 C186.156,176.2763 186.0306,178.7611 185.9207,181.2453 C185.907,181.5558 186.1067,176.8709 186.0934,177.1814" fill="none" id="k8s_deployment-to-adapter_container-1" style="stroke:#181818;stroke-width:1;"/><polygon fill="#181818" points="185.8802,182.1768,190.2604,173.3556,186.0934,177.1814,182.2676,173.0145,185.8802,182.1768" style="stroke:#181818;stroke-width:1;stroke-linejoin:miter;stroke-miterlimit:10;"/><text fill="#000000" font-family="sans-serif" font-size="13" lengthAdjust="spacing" textLength="127.8799" x="1408.5" y="67.1551">sets SYMBOL env var</text></g><!--link k8s_service to websocketd--><g class="link" data-entity-1="ent0014" data-entity-2="ent0002" data-link-type="dependency" data-source-line="47" id="lnk24"><path d="M1782.77,238.01 C1687.58,195.1 1509.76,121.97 1349,94.66 C1240.12,76.16 949.75,43.24 852,94.66 C790.47,127.03 755.9119,201.717 740.8919,241.867" fill="none" id="k8s_service-to-websocketd" style="stroke:#181818;stroke-width:1;"/><polygon fill="#181818" points="739.14,246.55,746.0399,239.5221,740.8919,241.867,738.547,236.719,739.14,246.55" style="stroke:#181818;stroke-width:1;stroke-linejoin:miter;stroke-miterlimit:10;"/><text fill="#000000" font-family="sans-serif" font-size="13" lengthAdjust="spacing" textLength="71.5254" x="1686.4827" y="59.1551">routes traffic</text><text fill="#000000" font-family="sans-serif" font-size="13" lengthAdjust="spacing" textLength="96.4907" x="1674" y="75.5067">(port 80 &#8594; 8080)</text></g><!--link hpa to k8s_deployment--><g class="link" data-entity-1="ent0016" data-entity-2="ent0013" data-link-type="dependency" data-source-line="48" id="lnk25"><path d="M1247.89,246.48 C1359.88,180.06 1691.72,6 1951,102.66 C2028.86,131.69 2093.1421,203.6554 2123.9821,242.7254" fill="none" id="hpa-to-k8s_deployment" style="stroke:#181818;stroke-width:1;"/><polygon fill="#181818" points="2127.08,246.65,2124.6434,237.1073,2123.9821,242.7254,2118.364,242.064,2127.08,246.65" style="stroke:#181818;stroke-width:1;stroke-linejoin:miter;stroke-miterlimit:10;"/><text fill="#000000" font-family="sans-serif" font-size="13" lengthAdjust="spacing" textLength="90.3081" x="1332" y="67.1551">monitors/scales</text></g><!--link k8s_configmap to k8s_deployment--><g class="link" data-entity-1="ent0015" data-entity-2="ent0013" data-link-type="dependency" data-source-line="49" id="lnk26"><path d="M967.49,246.45 C980.91,207.81 1013.11,133.41 1070,102.66 C1156.11,56.11 1859.28,68.47 1951,102.66 C2028.86,131.69 2093.1421,203.6554 2123.9821,242.7254" fill="none" id="k8s_configmap-to-k8s_deployment" style="stroke:#181818;stroke-width:1;"/><polygon fill="#181818" points="2127.08,246.65,2124.6434,237.1073,2123.9821,242.7254,2118.364,242.064,2127.08,246.65" style="stroke:#181818;stroke-width:1;stroke-linejoin:miter;stroke-miterlimit:10;"/><text fill="#000000" font-family="sans-serif" font-size="13" lengthAdjust="spacing" textLength="36.8481" x="1877" y="67.1551">injects</text></g><!--link adapter_container to pulltop--><g class="link" data-entity-1="ent0005" data-entity-2="ent0007" data-link-type="dependency" data-source-line="51" id="lnk28"><path d="M185.8802,182.1768 C185.8935,181.8663 185.907,181.5558 185.9207,181.2453 C186.0306,178.7611 186.156,176.2763 186.2982,173.7985 C186.5828,168.843 186.9349,163.9156 187.3656,159.077 C188.2271,149.3996 189.403,140.0773 190.982,131.5948 C194.14,114.63 198.91,101.025 206,94.66 C246.35,58.44 279.59,70.23 328,94.66 C391.59,126.75 429.8295,201.6319 446.7795,241.8819" fill="none" id="adapter_container-to-pulltop" style="stroke:#181818;stroke-width:1;"/><polygon fill="#181818" points="448.72,246.49,448.9135,236.643,446.7795,241.8819,441.5406,239.7479,448.72,246.49" style="stroke:#181818;stroke-width:1;stroke-linejoin:miter;stroke-miterlimit:10;"/><text fill="#000000" font-family="sans-serif" font-size="13" lengthAdjust="spacing" textLength="80.209" x="236.0791" y="59.1551">provides topic</text><text fill="#000000" font-family="sans-serif" font-size="13" lengthAdjust="spacing" textLength="108.3672" x="222" y="75.5067">from SYMBOL env</text></g><!--link pulltop to pubsub--><g class="link" data-entity-1="ent0007" data-entity-2="ent0017" data-link-type="dependency" data-source-line="54" id="lnk29"><path d="M469.42,246.39 C489.96,206 537.38,126.28 605,94.66 C688.08,55.8 2174.34,52.89 2256,94.66 C2318.9,126.84 2355.911,201.6565 2372.221,241.8765" fill="none" id="pulltop-to-pubsub" style="stroke:#181818;stroke-width:1;"/><polygon fill="#181818" points="2374.1,246.51,2374.4246,236.6665,2372.221,241.8765,2367.011,239.6729,2374.1,246.51" style="stroke:#181818;stroke-width:1;stroke-linejoin:miter;stroke-miterlimit:10;"/><text fill="#000000" font-family="sans-serif" font-size="13" lengthAdjust="spacing" textLength="89.5972" x="1779.5" y="59.1551">pulls messages</text><text fill="#000000" font-family="sans-serif" font-size="13" lengthAdjust="spacing" textLength="89.5972" x="1779.5" y="75.5067">via subscription</text></g><!--link web_clients to ws_endpoint--><g class="link" data-entity-1="ent0018" data-entity-2="ent0003" data-link-type="dependency" data-source-line="55" id="lnk30"><path d="M2555.06,246.54 C2550.53,208.38 2535.64,135.08 2487,102.66 C2402.41,46.27 734.38,36.72 657,102.66 C609.11,143.47 621.2401,227.767 627.0001,256.587" fill="none" id="web_clients-to-ws_endpoint" style="stroke:#181818;stroke-width:1;"/><polygon fill="#181818" points="627.98,261.49,630.1386,251.8806,627.0001,256.587,622.2937,253.4485,627.98,261.49" style="stroke:#181818;stroke-width:1;stroke-linejoin:miter;stroke-miterlimit:10;"/><text fill="#000000" font-family="sans-serif" font-size="13" lengthAdjust="spacing" textLength="72.2617" x="1522" y="67.1551">connects via</text></g><!--link ws_endpoint to k8s_service--><g class="link" data-entity-1="ent0003" data-entity-2="ent0014" data-link-type="dependency" data-source-line="56" id="lnk31"><path d="M627.98,261.49 C622.22,232.67 609.11,143.47 657,102.66 C715.52,52.79 1273.11,90.32 1349,102.66 C1507.35,128.41 1678.5832,194.9729 1774.7232,236.1129" fill="none" id="ws_endpoint-to-k8s_service" style="stroke:#181818;stroke-width:1;"/><polygon fill="#181818" points="1779.32,238.08,1772.6194,230.8618,1774.7232,236.1129,1769.4721,238.2167,1779.32,238.08" style="stroke:#181818;stroke-width:1;stroke-linejoin:miter;stroke-miterlimit:10;"/><text fill="#000000" font-family="sans-serif" font-size="13" lengthAdjust="spacing" textLength="66.4917" x="1601" y="67.1551">exposed by</text></g><?plantuml-src bLHDRnCn4BtlhnZsGZb0ogsgKAKaH0KrXQX5gYfLYXplR6BYzLYsDwMWNla1_4H-2UFzI7QJWCGXKZppvitulLc_o31N1k5cCluo_7GvdO136OHPQanUDBdXpStdEtXzaIH-hOmLJXHWXLoB9SAF1634_vUEIfEDIPDxzsxcqAC98YWo5nSmLSjLk7I8vXXuQArMieSTwHAFGJ-Qt0aVN2b3wR15twFMz9Wy9qaxLDeT0ARY2LqA1sF5qIKLbWm78Nt4XIUvnf2b83piZWnJ9g3BXMJgErpSLd6OcCmIPsgudsDpxatIkTrWL7gMqtkOqbB9tLnz1U9OMm-O81EMcyEOU78kTrKxKKVdierMPRtxu3UKR_ogWiV_Sx_QXzXIwq0Mh2F9SrNG9iRGP_uP2WWkgWoKTt80rzmsjlOWXLmXfwkmPd_WxIaKpCS2U0woBXLFJvU-bOEP5Y4dL-n4EV1wJvVBgmcCTUb3eyXoZNDPdm-rk2eNw0m6zF0UhQQd0XlVrcT-dcr3_wYxHRTH4X_CoPH4DX9Q68dkrPR4r_b_CB23kLfU2xkjaLMa47Q_wWCvzJrQgs566GpBG5uApLSx-J0RrarNLbGciQfIKvcn94HHcd5rcfMBmMsvQ3nT-7BHmdY36QEuaMytdPMhpado4Zx6NJVScMLXwz18nJRkFeVcEMXM2iuXPPTG51we3BOCQTAcQc2xP0nKPaDhz6dIncf4XpkoSLE_tP-q7gcx2_t1EjetT7rB8wLcns1HMyQCUu2wwl2Bui92c3W4MCeyEs_91JWxFJjzbHxfsxy6lrlHzE14dYkvAuRVFt-r76pXNsSkoAX0pWyguvkfjmlprp9bll8tyb-Nz1XulU-lHv-d_ArkO2DScXmY3zpaLsEZidX7il66kQEYmrCvD_bsR9dwzjVRMJ5oV6VzWzae0PpoqYaRNySqwUngg_hkuOqKFA-90W3NChoJt2dMsdOU7qbB7davdjBa3m00?></g></svg>