<svg xmlns="http://www.w3.org/2000/svg" xmlns:xlink="http://www.w3.org/1999/xlink" contentStyleType="text/css" data-diagram-type="DESCRIPTION" height="593px" preserveAspectRatio="none" style="width:306px;height:593px;background:#FFFFFF;" version="1.1" viewBox="0 0 306 593" width="306px" zoomAndPan="magnify"><?plantuml 1.2026.6?><defs/><g><!--cluster Presentation Layer--><g class="cluster" data-qualified-name="Presentation Layer" data-source-line="5" id="ent0003"><path d="M50.5,147.5 L177.5479,147.5 A3.75,3.75 0 0 1 180.0479,150 L187.0479,171.1094 L288.5,171.1094 A2.5,2.5 0 0 1 291,173.6094 L291,245 A2.5,2.5 0 0 1 288.5,247.5 L50.5,247.5 A2.5,2.5 0 0 1 48,245 L48,150 A2.5,2.5 0 0 1 50.5,147.5" fill="none" style="stroke:#000000;stroke-width:1.5;"/><line style="stroke:#000000;stroke-width:1.5;" x1="48" x2="187.0479" y1="171.1094" y2="171.1094"/><text fill="#000000" font-family="sans-serif" font-size="14" font-weight="700" lengthAdjust="spacing" textLength="126.0479" x="52" y="164.0332">Presentation Layer</text></g><!--cluster Application Layer--><g class="cluster" data-qualified-name="Application Layer" data-source-line="10" id="ent0006"><path d="M8.5,313.5 L126.9688,313.5 A3.75,3.75 0 0 1 129.4688,316 L136.4688,337.1094 L183.5,337.1094 A2.5,2.5 0 0 1 186,339.6094 L186,411 A2.5,2.5 0 0 1 183.5,413.5 L8.5,413.5 A2.5,2.5 0 0 1 6,411 L6,316 A2.5,2.5 0 0 1 8.5,313.5" fill="none" style="stroke:#000000;stroke-width:1.5;"/><line style="stroke:#000000;stroke-width:1.5;" x1="6" x2="136.4688" y1="337.1094" y2="337.1094"/><text fill="#000000" font-family="sans-serif" font-size="14" font-weight="700" lengthAdjust="spacing" textLength="117.4688" x="10" y="330.0332">Application Layer</text></g><!--cluster Data Layer--><g class="cluster" data-qualified-name="Data Layer" data-source-line="14" id="ent0008"><path d="M149.5,479.5 L222.0928,479.5 A3.75,3.75 0 0 1 224.5928,482 L231.5928,503.1094 L280.5,503.1094 A2.5,2.5 0 0 1 283,505.6094 L283,576 A2.5,2.5 0 0 1 280.5,578.5 L149.5,578.5 A2.5,2.5 0 0 1 147,576 L147,482 A2.5,2.5 0 0 1 149.5,479.5" fill="none" style="stroke:#000000;stroke-width:1.5;"/><line style="stroke:#000000;stroke-width:1.5;" x1="147" x2="231.5928" y1="503.1094" y2="503.1094"/><text fill="#000000" font-family="sans-serif" font-size="14" font-weight="700" lengthAdjust="spacing" textLength="71.5928" x="151" y="496.0332">Data Layer</text></g><!--entity browser--><g class="entity" data-qualified-name="Presentation Layer.browser" data-source-line="6" id="ent0004"><rect fill="#F1F1F1" height="47.6094" rx="2.5" ry="2.5" style="stroke:#181818;stroke-width:0.5;" width="91.3447" x="64.5" y="183.5"/><rect fill="#F1F1F1" height="10" style="stroke:#181818;stroke-width:0.5;" width="15" x="135.8447" y="188.5"/><rect fill="#F1F1F1" height="2" style="stroke:#181818;stroke-width:0.5;" width="4" x="133.8447" y="190.5"/><rect fill="#F1F1F1" height="2" style="stroke:#181818;stroke-width:0.5;" width="4" x="133.8447" y="194.5"/><text fill="#000000" font-family="sans-serif" font-size="14" lengthAdjust="spacing" textLength="51.3447" x="79.5" y="218.0332">Browser</text></g><!--entity kibana--><g class="entity" data-qualified-name="Presentation Layer.kibana" data-source-line="7" id="ent0005"><rect fill="#F1F1F1" height="47.6094" rx="2.5" ry="2.5" style="stroke:#181818;stroke-width:0.5;" width="83.5928" x="191" y="183.5"/><rect fill="#F1F1F1" height="10" style="stroke:#181818;stroke-width:0.5;" width="15" x="254.5928" y="188.5"/><rect fill="#F1F1F1" height="2" style="stroke:#181818;stroke-width:0.5;" width="4" x="252.5928" y="190.5"/><rect fill="#F1F1F1" height="2" style="stroke:#181818;stroke-width:0.5;" width="4" x="252.5928" y="194.5"/><text fill="#000000" font-family="sans-serif" font-size="14" lengthAdjust="spacing" textLength="43.5928" x="206" y="218.0332">Kibana</text></g><!--entity backend--><g class="entity" data-qualified-name="Application Layer.backend" data-source-line="11" id="ent0007"><rect fill="#F1F1F1" height="47.6094" rx="2.5" ry="2.5" style="stroke:#181818;stroke-width:0.5;" width="148.165" x="22" y="349.5"/><rect fill="#F1F1F1" height="10" style="stroke:#181818;stroke-width:0.5;" width="15" x="150.165" y="354.5"/><rect fill="#F1F1F1" height="2" style="stroke:#181818;stroke-width:0.5;" width="4" x="148.165" y="356.5"/><rect fill="#F1F1F1" height="2" style="stroke:#181818;stroke-width:0.5;" width="4" x="148.165" y="360.5"/><text fill="#000000" font-family="sans-serif" font-size="14" lengthAdjust="spacing" textLength="108.165" x="37" y="384.0332">FastAPI Backend</text></g><!--entity es--><g class="entity" data-qualified-name="Data Layer.es" data-source-line="15" id="ent0009"><path d="M163.5,525.5 C163.5,515.5 215.1274,515.5 215.1274,515.5 C215.1274,515.5 266.7549,515.5 266.7549,525.5 L266.7549,552.1094 C266.7549,562.1094 215.1274,562.1094 215.1274,562.1094 C215.1274,562.1094 163.5,562.1094 163.5,552.1094 L163.5,525.5" fill="#F1F1F1" style="stroke:#181818;stroke-width:0.5;"/><path d="M163.5,525.5 C163.5,535.5 215.1274,535.5 215.1274,535.5 C215.1274,535.5 266.7549,535.5 266.7549,525.5" fill="none" style="stroke:#181818;stroke-width:0.5;"/><text fill="#000000" font-family="sans-serif" font-size="14" lengthAdjust="spacing" textLength="83.2549" x="173.5" y="554.0332">Elasticsearch</text></g><!--entity user--><g class="entity" data-qualified-name="user" data-source-line="2" id="ent0001"><ellipse cx="110.1792" cy="14" fill="#F1F1F1" rx="8" ry="8" style="stroke:#181818;stroke-width:0.5;"/><path d="M110.1792,22 L110.1792,49 M97.1792,30 L123.1792,30 M110.1792,49 L97.1792,64 M110.1792,49 L123.1792,64" fill="none" style="stroke:#181818;stroke-width:0.5;"/><text fill="#000000" font-family="sans-serif" font-size="14" lengthAdjust="spacing" textLength="58.3584" x="81" y="80.0332">End User</text></g><!--entity inspector--><g class="entity" data-qualified-name="inspector" data-source-line="3" id="ent0002"><ellipse cx="233.0239" cy="14" fill="#F1F1F1" rx="8" ry="8" style="stroke:#181818;stroke-width:0.5;"/><path d="M233.0239,22 L233.0239,49 M220.0239,30 L246.0239,30 M233.0239,49 L220.0239,64 M233.0239,49 L246.0239,64" fill="none" style="stroke:#181818;stroke-width:0.5;"/><text fill="#000000" font-family="sans-serif" font-size="14" lengthAdjust="spacing" textLength="91.0479" x="187.5" y="80.0332">Data Inspector</text></g><!--entity genius--><g class="entity" data-qualified-name="genius" data-source-line="18" id="ent0010"><path d="M22.5021,523.9097 C26.2843,515.6119 32.468,516.5953 37.1856,522.9738 C40.999,515.965 45.4123,514.6047 50.7784,521.4504 C53.6537,513.3285 57.857,512.6701 63.9436,518.3978 C70.0433,512.8603 76.1089,513.3365 79.8738,521.1778 C84.803,515.4036 89.7117,514.9073 93.5143,522.3413 C98.74,516.9118 103.7183,515.6005 107.5862,523.7486 C115.7959,524.9733 119.6434,532.6701 114.4689,539.6779 C120.6678,546.7138 116.6598,553.9811 108.4075,555.4705 C104.5376,564.8123 98.8234,564.1959 92.2573,558.3347 C89.3355,564.0862 83.0524,564.9049 79.0901,559.5706 C75.6194,567.0336 69.6399,567.9014 64.1247,561.8315 C59.0921,566.3142 54.2584,566.0841 51.1908,559.5289 C45.5088,565.9768 39.9322,566.1034 35.7191,557.9704 C30.3911,563.6865 25.6833,561.9811 22.6594,555.5029 C13.6628,552.3773 11.7472,546.0304 18.2887,538.8313 C12.848,532.8876 13.4171,525.7518 22.5021,523.9097" fill="#F1F1F1" style="stroke:#181818;stroke-width:0.5;"/><text fill="#000000" font-family="sans-serif" font-size="14" lengthAdjust="spacing" textLength="70.8135" x="28.5" y="544.5332">Genius API</text></g><!--link user to browser--><g class="link" data-entity-1="ent0001" data-entity-2="ent0004" data-link-type="dependency" data-source-line="20" id="lnk11"><path d="M110,83.65 C110,114.53 110,152.01 110,178.07" fill="none" id="user-to-browser" style="stroke:#181818;stroke-width:1;"/><polygon fill="#181818" points="110,183.07,114,174.07,110,178.07,106,174.07,110,183.07" style="stroke:#181818;stroke-width:1;stroke-linejoin:miter;stroke-miterlimit:10;"/><text fill="#000000" font-family="sans-serif" font-size="13" lengthAdjust="spacing" textLength="54.1899" x="111" y="127.9951">accesses</text></g><!--link browser to backend--><g class="link" data-entity-1="ent0004" data-entity-2="ent0007" data-link-type="dependency" data-source-line="21" id="lnk12"><path d="M108.02,231.65 C105.36,262.91 101.0547,313.2881 98.3947,344.4881" fill="none" id="browser-to-backend" style="stroke:#181818;stroke-width:1;"/><polygon fill="#181818" points="97.97,349.47,102.7201,340.8423,98.3947,344.4881,94.749,340.1627,97.97,349.47" style="stroke:#181818;stroke-width:1;stroke-linejoin:miter;stroke-miterlimit:10;"/><text fill="#000000" font-family="sans-serif" font-size="13" lengthAdjust="spacing" textLength="46.9727" x="117.5686" y="277.9951">API-001</text><text fill="#000000" font-family="sans-serif" font-size="13" lengthAdjust="spacing" textLength="70.1099" x="106" y="294.3467">song lookup</text></g><!--link backend to es--><g class="link" data-entity-1="ent0007" data-entity-2="ent0009" data-link-type="dependency" data-source-line="22" id="lnk13"><path d="M108.16,397.56 C118.24,415.98 133.4,442.16 149,463.5 C162.46,481.92 176.157,497.5054 189.597,511.8154" fill="none" id="backend-to-es" style="stroke:#181818;stroke-width:1;"/><polygon fill="#181818" points="193.02,515.46,189.7743,506.1613,189.597,511.8154,183.9429,511.6382,193.02,515.46" style="stroke:#181818;stroke-width:1;stroke-linejoin:miter;stroke-miterlimit:10;"/><text fill="#000000" font-family="sans-serif" font-size="13" lengthAdjust="spacing" textLength="46.9727" x="158.3027" y="443.9951">API-002</text><text fill="#000000" font-family="sans-serif" font-size="13" lengthAdjust="spacing" textLength="63.5781" x="150" y="460.3467">query/write</text></g><!--link backend to genius--><g class="link" data-entity-1="ent0007" data-entity-2="ent0010" data-link-type="dependency" data-source-line="23" id="lnk14"><path d="M77.12,397.69 C70.68,407 64.29,418.2 61,429.5 C52.73,457.91 54.9432,487.3423 58.5032,509.6823" fill="none" id="backend-to-genius" style="stroke:#181818;stroke-width:1;"/><polygon fill="#181818" points="59.29,514.62,61.8238,505.1027,58.5032,509.6823,53.9235,506.3616,59.29,514.62" style="stroke:#181818;stroke-width:1;stroke-linejoin:miter;stroke-miterlimit:10;"/><text fill="#000000" font-family="sans-serif" font-size="13" lengthAdjust="spacing" textLength="46.9727" x="62" y="443.9951">API-003</text><text fill="#000000" font-family="sans-serif" font-size="13" lengthAdjust="spacing" textLength="39.019" x="65.9768" y="460.3467">search</text></g><!--link inspector to kibana--><g class="link" data-entity-1="ent0002" data-entity-2="ent0005" data-link-type="dependency" data-source-line="24" id="lnk15"><path d="M233,83.65 C233,114.53 233,152.01 233,178.07" fill="none" id="inspector-to-kibana" style="stroke:#181818;stroke-width:1;"/><polygon fill="#181818" points="233,183.07,237,174.07,233,178.07,229,174.07,233,183.07" style="stroke:#181818;stroke-width:1;stroke-linejoin:miter;stroke-miterlimit:10;"/><text fill="#000000" font-family="sans-serif" font-size="13" lengthAdjust="spacing" textLength="27.46" x="234" y="127.9951">uses</text></g><!--link kibana to es--><g class="link" data-entity-1="ent0005" data-entity-2="ent0009" data-link-type="dependency" data-source-line="25" id="lnk16"><path d="M231.73,231.67 C228.42,292.32 219.7924,450.1774 216.5124,510.2974" fill="none" id="kibana-to-es" style="stroke:#181818;stroke-width:1;"/><polygon fill="#181818" points="216.24,515.29,220.7243,506.5213,216.5124,510.2974,212.7362,506.0855,216.24,515.29" style="stroke:#181818;stroke-width:1;stroke-linejoin:miter;stroke-miterlimit:10;"/><text fill="#000000" font-family="sans-serif" font-size="13" lengthAdjust="spacing" textLength="46.9727" x="228" y="370.9951">API-004</text><text fill="#000000" font-family="sans-serif" font-size="13" lengthAdjust="spacing" textLength="41.1899" x="230.8914" y="387.3467">inspect</text></g><?plantuml-src VP4zJmCn38Rt_0eh-udoCJ4WjQAW2eOkRBVuSbQ9xaX2dAYg4F-TVDnHhWEPxFZn-ze9gc0zoAtfuOt9Iq26c0A1jV280M5ds57EIrdFcH0ErO070hdtn6G21cqDlE8fAtq9I4VP3sTDge7SU7kSFReQNo8lkaE3XHXAABx_kAoT6xNwt-G9EQptEzYa9Z9zDQlnGgiijX3fqqs7d6hRCObenOHUlHS5ujoiHXjxaCzaT6H8BgLsAAaG-TcWQHxctU0U92f5pCHIp9S5gFDa88aqgzLrQzYQ0upM3j4bU08oJ7pcRbhp6ScVhevU1rfoTOmpUviqwmBYzySAM1ysWx5CDkMNNdUjcVga-040?></g></svg>