<svg xmlns="http://www.w3.org/2000/svg" xmlns:xlink="http://www.w3.org/1999/xlink" contentStyleType="text/css" data-diagram-type="DESCRIPTION" height="1110px" preserveAspectRatio="none" style="width:1263px;height:1110px;background:#FAFAFA;" version="1.1" viewBox="0 0 1263 1110" width="1263px" zoomAndPan="magnify"><?plantuml 1.2026.6?><defs/><g><rect fill="#FAFAFA" height="1110" style="stroke:none;stroke-width:1;" width="1263" x="0" y="0"/><!--cluster ExtClients--><g class="cluster" data-qualified-name="ExtClients" data-source-line="19" id="ent0001"><path d="M641.0604,32.1789 C644.1903,25.584 650.0486,26.7092 653.6236,31.6961 C657.1628,26.7319 661.0463,24.9353 665.3292,30.8995 C669.3579,25.392 674.0252,24.8757 678.5692,30.2739 C681.8677,24.4025 686.786,23.8178 691.2078,28.9881 C694.6315,22.1578 700.4994,22.4713 704.3252,28.5804 C708.3243,23.9946 711.7161,24.0327 715.0941,29.262 C718.8704,23.3632 725.4534,22.7676 728.8447,29.6753 C731.6173,24.2705 736.8553,24.9427 739.9098,29.3576 C744.2317,22.7644 750.4865,24.171 753.4129,30.7845 C757.1783,23.6949 762.4856,24.2904 766.3705,30.6696 C771.2039,25.6659 774.5615,27.1696 777.4545,32.7094 C786.2822,24.3607 794.2875,27.4465 796.6043,38.9803 C797.3807,37.9587 798.2939,38.0917 798.7853,39.2637 C806.2708,43.4026 805.8515,48.1757 800.5068,53.8307 C809.2387,55.2963 809.9006,61.716 805.0546,67.65 C814.2329,70.7701 814.9464,75.4017 808.5744,82.2666 C813.6388,88.4589 812.0936,94.3843 804.0182,96.3151 C808.6607,101.8676 807.6214,105.8391 800.7346,108.2086 C806.2386,119.4332 802.3893,127.5557 789.6043,128.9803 C790.5407,128.5634 790.9584,129.0161 790.9891,129.9257 C788.1647,136.372 782.6856,135.1934 779.2624,130.5594 C775.1396,137.9247 769.9162,136.4211 765.7087,130.6467 C762.6402,136.5224 756.6961,137.507 752.2542,132.3166 C749.3335,137.0003 744.2255,137.6519 740.968,132.7116 C737.9903,138.3045 732.1516,138.271 728.859,133.0647 C724.5532,139.7103 719.9433,139.8287 714.9724,133.7931 C711.0943,138.561 707.3273,139.0847 703.619,133.6049 C699.2029,139.4609 694.8779,138.1087 691.2136,132.7717 C686.789,139.2177 681.4701,138.1972 677.6902,132.0778 C673.8106,138.0133 670.0574,137.6114 665.8329,132.4463 C661.6014,138.1102 657.519,137.8397 653.9041,131.8169 C643.1622,139.9895 633.0609,136.0793 632.6043,121.9803 C634.0793,121.7056 634.4031,122.3993 634.2015,123.6904 C626.7363,121.1594 625.8065,113.7446 631.2955,108.702 C624.4513,105.4119 621.9288,101.5544 628.019,95.1395 C619.4851,92.7766 619.7425,85.3784 625.5328,80.5709 C619.5503,76.4572 621.5802,71.2975 627.1924,68.8217 C621.6363,62.3925 621.315,57.6264 630.337,54.3691 C623.9216,42.9066 626.2168,35.2459 639.6043,31.9803 C640.1773,31.4044 640.6709,31.4096 641.0604,32.1789" fill="#FCE7F3" style="stroke:#6366F1;stroke-width:1;"/><text fill="#000000" font-family="Arial" font-size="14" font-weight="700" lengthAdjust="spacing" textLength="105.8135" x="661.6976" y="50.1122">External Clients</text></g><!--cluster LibP2PCloud--><g class="cluster" data-qualified-name="LibP2PCloud" data-source-line="23" id="ent0003"><path d="M480.0862,947.829 C484.6165,941.6022 490.1991,939.5203 495.2092,947.3114 C498.9146,940.143 505.1095,939.54 509.7923,946.2872 C515.4342,938.9416 520.2302,940.1626 525.3126,946.9037 C529.6621,939.2905 534.7826,937.872 541.4714,944.1904 C546.8066,935.8138 553.2451,936.2779 557.5533,945.148 C561.0407,936.5595 566.9927,935.3628 572.9471,942.7744 C578.0155,936.9686 583.0337,937.0652 587.5844,943.3985 C594.6954,934.4228 601.1304,937.0065 605.6181,946.0272 C608.7878,938.3223 614.6877,939.1662 619.2377,944.5959 C625.1415,936.6018 632.4408,938.6388 636.4655,946.622 C640.9758,939.4935 646.673,938.5991 651.4395,946.3646 C660.573,938.5423 669.7594,940.6842 672.6043,952.9803 C673.8529,953.1615 674.1069,953.7402 673.5117,954.8271 C680.4578,958.6509 680.6201,964.0749 675.2053,969.3411 C681.9239,972.7208 681.2312,979.3006 675.1533,982.6303 C683.6076,985.8766 685.4511,991.0562 678.2506,997.5519 C685.467,1002.6039 683.9866,1006.7049 677.6575,1011.1668 C684.2283,1014.7212 685.0799,1021.5948 678.223,1025.6726 C685.3167,1030.0513 683.9147,1036.1907 677.1921,1039.5425 C685.0779,1046.2673 683.6131,1051.1633 674.806,1055.3719 C682.887,1066.1651 677.4776,1073.5511 665.6043,1074.9803 C666.6231,1075.1669 666.722,1075.937 666.1371,1076.6387 C662.6548,1083.0544 655.802,1084.6213 651.2441,1077.8538 C646.4548,1084.8998 638.5701,1084.8853 634.5931,1076.951 C630.9853,1084.0493 626.9382,1085.5174 620.8094,1079.626 C615.0886,1087.5877 609.8915,1088.2784 603.9089,1079.8967 C599.7111,1086.2384 592.9106,1087.5863 588.6498,1079.9656 C584.4482,1087.5161 579.6291,1088.6295 573.0224,1082.7679 C566.6241,1090.6819 560.5074,1088 557.0374,1079.8533 C553.0722,1086.4212 545.6685,1085.7303 542.0877,1079.4076 C538.1029,1086.3795 531.3471,1086.403 526.7641,1080.098 C519.6309,1086.581 513.3479,1086.4813 508.9448,1077.0425 C504.635,1084.8709 498.2057,1084.14 493.9638,1076.9746 C481.838,1084.4558 475.0474,1080.4525 470.6043,1067.9803 C471.088,1067.6863 471.3939,1067.8788 471.4051,1068.4286 C463.0605,1064.4448 463.2937,1059.1029 469.9821,1053.6697 C464.1133,1050.4417 464.7726,1045.5256 469.5007,1041.8655 C461.3703,1037.0816 461.055,1031.8462 468.3635,1025.9585 C461.3492,1023.1297 460.8345,1016.4887 466.2698,1011.8166 C460.2811,1006.8333 459.2569,1002.3768 466.8849,997.9996 C460.5435,993.2404 459.1981,985.7538 468.1206,982.1875 C463.2397,977.409 464.2935,972.4188 470.5994,969.8963 C459.8828,958.9272 465.6437,950.3073 477.6043,945.9803 C479.3669,945.23 480.0946,946.2019 480.0862,947.829" fill="#FCE7F3" style="stroke:#6366F1;stroke-width:1;"/><text fill="#000000" font-family="Arial" font-size="14" font-weight="700" lengthAdjust="spacing" textLength="177.3789" x="482.9149" y="964.1122">libp2p / IPFS Peer Network</text></g><!--cluster MySQLSource--><g class="cluster" data-qualified-name="MySQLSource" data-source-line="27" id="ent0005"><path d="M28.3812,18.3102 C33.3053,11.263 38.4537,10.2122 43.3826,18.3053 C48.0276,10.3959 53.6849,10.8437 59.1985,17.3525 C61.9754,9.558 69.3648,8.5026 74.5515,14.7101 C80.7479,6 86.7786,6.8354 91.6768,15.9569 C95.5363,7.8514 100.6397,6.4363 106.7961,13.6968 C112.5046,6.4196 117.2497,6.9532 122.5851,14.1049 C128.2954,6.9714 133.1358,7.5258 137.4821,15.454 C141.0529,7.4748 147.0753,6.3239 152.7053,13.3672 C158.7435,6.1354 164.4935,7.0195 168.5807,15.3566 C173.595,7.3645 178.8759,7.3907 184.1703,15.0781 C188.2719,8.7939 195.3302,8.2208 199.4667,15.0374 C204.0593,7.9593 209.0225,9.1786 213.4888,15.1729 C219.7972,7.411 225.1959,8.3085 230.6608,16.104 C240.9687,7.6244 247.9985,11.0472 251.6043,22.9803 C253.6722,22.7914 254.9468,23.4467 254.259,25.8273 C262.1623,28.5962 263.6444,34.3862 256.8878,39.8945 C265.3232,44.5162 265.9029,51.115 257.5145,56.3764 C267.499,59.7176 266.5132,66.5833 260.6904,72.9532 C266.9617,79.4593 265.2564,86.3873 257.2544,90.0198 C264.6831,95.0119 263.3732,102.047 255.8842,105.7387 C262.8663,117.4163 259.8945,128.1121 244.6043,128.9803 C246.879,128.3865 247.5235,129.6433 247.3334,131.6087 C242.9799,138.5855 234.8392,139.8223 230.1583,131.9884 C225.3949,138.5902 218.4155,137.5648 215.1987,130.3177 C210.1944,138.411 204.0822,140.2523 197.918,131.5081 C193.5145,137.7637 186.677,138.537 183.1722,130.576 C179.2307,138.9258 173.9358,138.6159 168.5429,131.9944 C163.7223,138.9475 159.134,140.9285 152.8184,133.6457 C147.7222,140.5204 141.7867,138.9377 138.6055,131.715 C132.587,140.5578 125.4173,140.0387 120.1156,130.9749 C117.4141,137.544 110.7841,139.8141 105.8162,133.488 C99.9173,139.1192 95.6388,138.1433 91.8442,131.1576 C86.063,139.4047 80.027,138.8536 74.4102,130.9798 C69.9435,138.6439 64.7341,139.2954 59.5866,131.6385 C54.4287,138.1754 47.5478,138.2262 43.2132,130.6813 C31.0005,138.5632 24.2413,134.6541 19.6043,121.9803 C21.3299,122.4271 21.5659,123.3539 20.7353,124.8191 C12.4774,120.4054 10.1824,114.2055 17.4638,106.9473 C9.1311,103.7775 7.5073,95.8614 14.5016,90.011 C6,85.9659 6.5304,78.1314 13.4926,73.1604 C6.2632,68.0689 7.9245,62.0917 14.9983,58.4656 C9.1269,52.7908 9.5627,45.0015 18.4345,42.4996 C7.5926,30.2354 11.0911,20.1253 26.6043,15.9803 C28.2978,15.9415 28.9366,16.6339 28.3812,18.3102" fill="#FCE7F3" style="stroke:#6366F1;stroke-width:1;"/><text fill="#000000" font-family="Arial" font-size="14" font-weight="700" lengthAdjust="spacing" textLength="157.9033" x="56.6527" y="34.1122">MySQL/SQLite Protocol</text><text fill="#000000" font-family="Arial" font-size="14" font-weight="700" lengthAdjust="spacing" textLength="81.6963" x="94.7562" y="50.2108">Data Source</text></g><!--cluster ClientLayer--><g class="cluster" data-qualified-name="ClientLayer" data-source-line="35" id="ent0007"><path d="M466.1043,220.9803 L609.4901,220.9803 A3.75,3.75 0 0 1 611.9901,223.4803 L618.9901,243.079 L794.1043,243.079 A2.5,2.5 0 0 1 796.6043,245.579 L796.6043,327.4803 A2.5,2.5 0 0 1 794.1043,329.9803 L466.1043,329.9803 A2.5,2.5 0 0 1 463.6043,327.4803 L463.6043,223.4803 A2.5,2.5 0 0 1 466.1043,220.9803" fill="#EEF2FF" style="stroke:#6366F1;stroke-width:1.5;"/><line style="stroke:#6366F1;stroke-width:1.5;" x1="463.6043" x2="618.9901" y1="243.079" y2="243.079"/><text fill="#000000" font-family="Arial" font-size="14" font-weight="700" lengthAdjust="spacing" textLength="142.3857" x="467.6043" y="236.1122">Client Interface Layer</text></g><!--cluster MiddlewareLayer--><g class="cluster" data-qualified-name="MiddlewareLayer" data-source-line="44" id="ent0010"><path d="M471.1043,383.9803 L684.5174,383.9803 A3.75,3.75 0 0 1 687.0174,386.4803 L694.0174,406.079 L1088.1043,406.079 A2.5,2.5 0 0 1 1090.6043,408.579 L1090.6043,696.4803 A2.5,2.5 0 0 1 1088.1043,698.9803 L471.1043,698.9803 A2.5,2.5 0 0 1 468.6043,696.4803 L468.6043,386.4803 A2.5,2.5 0 0 1 471.1043,383.9803" fill="#EEF2FF" style="stroke:#6366F1;stroke-width:1.5;"/><line style="stroke:#6366F1;stroke-width:1.5;" x1="468.6043" x2="694.0174" y1="406.079" y2="406.079"/><text fill="#000000" font-family="Arial" font-size="14" font-weight="700" lengthAdjust="spacing" textLength="212.4131" x="472.6043" y="399.1122">Decentralized Middleware Layer</text></g><!--cluster P2PLayer--><g class="cluster" data-qualified-name="P2PLayer" data-source-line="54" id="ent0014"><path d="M463.1043,761.9803 L590.9383,761.9803 A3.75,3.75 0 0 1 593.4383,764.4803 L600.4383,784.079 L680.1043,784.079 A2.5,2.5 0 0 1 682.6043,786.579 L682.6043,872.4803 A2.5,2.5 0 0 1 680.1043,874.9803 L463.1043,874.9803 A2.5,2.5 0 0 1 460.6043,872.4803 L460.6043,764.4803 A2.5,2.5 0 0 1 463.1043,761.9803" fill="#EEF2FF" style="stroke:#6366F1;stroke-width:1.5;"/><line style="stroke:#6366F1;stroke-width:1.5;" x1="460.6043" x2="600.4383" y1="784.079" y2="784.079"/><text fill="#000000" font-family="Arial" font-size="14" font-weight="700" lengthAdjust="spacing" textLength="126.834" x="464.6043" y="777.1122">P2P Network Layer</text></g><!--cluster StorageLayer--><g class="cluster" data-qualified-name="StorageLayer" data-source-line="62" id="ent0016"><path d="M800.1043,769.9803 L956.7245,769.9803 A3.75,3.75 0 0 1 959.2245,772.4803 L966.2245,792.079 L1228.1043,792.079 A2.5,2.5 0 0 1 1230.6043,794.579 L1230.6043,864.4803 A2.5,2.5 0 0 1 1228.1043,866.9803 L800.1043,866.9803 A2.5,2.5 0 0 1 797.6043,864.4803 L797.6043,772.4803 A2.5,2.5 0 0 1 800.1043,769.9803" fill="#EEF2FF" style="stroke:#6366F1;stroke-width:1.5;"/><line style="stroke:#6366F1;stroke-width:1.5;" x1="797.6043" x2="966.2245" y1="792.079" y2="792.079"/><text fill="#000000" font-family="Arial" font-size="14" font-weight="700" lengthAdjust="spacing" textLength="155.6201" x="801.6043" y="785.1122">Storage Backend Layer</text></g><!--cluster InternalLayer--><g class="cluster" data-qualified-name="InternalLayer" data-source-line="71" id="ent0019"><path d="M23.1043,214.9803 L240.3592,214.9803 A3.75,3.75 0 0 1 242.8592,217.4803 L249.8592,237.079 L437.1043,237.079 A2.5,2.5 0 0 1 439.6043,239.579 L439.6043,333.4803 A2.5,2.5 0 0 1 437.1043,335.9803 L23.1043,335.9803 A2.5,2.5 0 0 1 20.6043,333.4803 L20.6043,217.4803 A2.5,2.5 0 0 1 23.1043,214.9803" fill="#EEF2FF" style="stroke:#6366F1;stroke-width:1.5;"/><line style="stroke:#6366F1;stroke-width:1.5;" x1="20.6043" x2="249.8592" y1="237.079" y2="237.079"/><text fill="#000000" font-family="Arial" font-size="14" font-weight="700" lengthAdjust="spacing" textLength="216.2549" x="24.6043" y="230.1122">Internal Protocol Handling Layer</text></g><!--cluster RedisStandalone--><g class="cluster" data-qualified-name="RedisStandalone" data-source-line="85" id="ent0024"><polygon fill="#FEF9C3" points="754.6043,959.4803,764.6043,949.4803,1008.6043,949.4803,1008.6043,1056.4803,998.6043,1066.4803,754.6043,1066.4803,754.6043,959.4803" style="stroke:#CA8A04;stroke-width:1;stroke-linejoin:miter;stroke-miterlimit:10;"/><line style="stroke:#CA8A04;stroke-width:1;" x1="998.6043" x2="1008.6043" y1="959.4803" y2="949.4803"/><line style="stroke:#CA8A04;stroke-width:1;" x1="754.6043" x2="998.6043" y1="959.4803" y2="959.4803"/><line style="stroke:#CA8A04;stroke-width:1;" x1="998.6043" x2="998.6043" y1="959.4803" y2="1066.4803"/><text fill="#000000" font-family="Arial" font-size="14" font-weight="700" lengthAdjust="spacing" textLength="178.1582" x="788.5252" y="975.6122">Redis Standalone Instance</text></g><!--cluster RedisClusterNode--><g class="cluster" data-qualified-name="RedisClusterNode" data-source-line="89" id="ent0026"><polygon fill="#FEF9C3" points="1046.6043,959.4803,1056.6043,949.4803,1212.6043,949.4803,1212.6043,1056.4803,1202.6043,1066.4803,1046.6043,1066.4803,1046.6043,959.4803" style="stroke:#CA8A04;stroke-width:1;stroke-linejoin:miter;stroke-miterlimit:10;"/><line style="stroke:#CA8A04;stroke-width:1;" x1="1202.6043" x2="1212.6043" y1="959.4803" y2="949.4803"/><line style="stroke:#CA8A04;stroke-width:1;" x1="1046.6043" x2="1202.6043" y1="959.4803" y2="959.4803"/><line style="stroke:#CA8A04;stroke-width:1;" x1="1202.6043" x2="1202.6043" y1="959.4803" y2="1066.4803"/><text fill="#000000" font-family="Arial" font-size="14" font-weight="700" lengthAdjust="spacing" textLength="90.248" x="1080.4803" y="975.6122">Redis Cluster</text></g><!--entity AppClient--><g class="entity" data-qualified-name="ExtClients.AppClient" data-source-line="20" id="ent0002"><rect fill="#DBEAFE" height="62.1973" rx="2.5" ry="2.5" style="stroke:#3B82F6;stroke-width:0.5;" width="148.1719" x="640.6043" y="58.9803"/><rect fill="#DBEAFE" height="10" style="stroke:#3B82F6;stroke-width:0.5;" width="15" x="768.7762" y="63.9803"/><rect fill="#DBEAFE" height="2" style="stroke:#3B82F6;stroke-width:0.5;" width="4" x="766.7762" y="65.9803"/><rect fill="#DBEAFE" height="2" style="stroke:#3B82F6;stroke-width:0.5;" width="4" x="766.7762" y="69.9803"/><text fill="#000000" font-family="Arial" font-size="14" lengthAdjust="spacing" textLength="78.5996" x="655.6043" y="92.1122">Redis-based</text><text fill="#000000" font-family="Arial" font-size="14" lengthAdjust="spacing" textLength="108.1719" x="655.6043" y="108.2108">Application Client</text></g><!--entity LibP2PPeer--><g class="entity" data-qualified-name="LibP2PCloud.LibP2PPeer" data-source-line="24" id="ent0004"><rect fill="#DBEAFE" height="94.3945" rx="2.5" ry="2.5" style="stroke:#3B82F6;stroke-width:0.5;" width="186.2891" x="478.6043" y="972.9803"/><rect fill="#DBEAFE" height="10" style="stroke:#3B82F6;stroke-width:0.5;" width="15" x="644.8934" y="977.9803"/><rect fill="#DBEAFE" height="2" style="stroke:#3B82F6;stroke-width:0.5;" width="4" x="642.8934" y="979.9803"/><rect fill="#DBEAFE" height="2" style="stroke:#3B82F6;stroke-width:0.5;" width="4" x="642.8934" y="983.9803"/><text fill="#000000" font-family="Arial" font-size="14" lengthAdjust="spacing" textLength="77.8066" x="493.6043" y="1006.1122">DHT / libp2p</text><text fill="#000000" font-family="Arial" font-size="14" lengthAdjust="spacing" textLength="115.9375" x="493.6043" y="1022.2108">Peer Infrastructure</text><text fill="#000000" font-family="Arial" font-size="14" lengthAdjust="spacing" textLength="146.2891" x="493.6043" y="1038.3094">(peer discovery, routing</text><text fill="#000000" font-family="Arial" font-size="14" lengthAdjust="spacing" textLength="103.4619" x="493.6043" y="1054.4081">&amp; NAT traversal)</text></g><!--entity PacketizedData--><g class="entity" data-qualified-name="MySQLSource.PacketizedData" data-source-line="28" id="ent0006"><rect fill="#DBEAFE" height="62.1973" rx="2.5" ry="2.5" style="stroke:#3B82F6;stroke-width:0.5;" width="215.0684" x="28.1043" y="58.9803"/><rect fill="#DBEAFE" height="10" style="stroke:#3B82F6;stroke-width:0.5;" width="15" x="223.1727" y="63.9803"/><rect fill="#DBEAFE" height="2" style="stroke:#3B82F6;stroke-width:0.5;" width="4" x="221.1727" y="65.9803"/><rect fill="#DBEAFE" height="2" style="stroke:#3B82F6;stroke-width:0.5;" width="4" x="221.1727" y="69.9803"/><text fill="#000000" font-family="Arial" font-size="14" lengthAdjust="spacing" textLength="175.0684" x="43.1043" y="92.1122">Packetized MySQL-Protocol</text><text fill="#000000" font-family="Arial" font-size="14" lengthAdjust="spacing" textLength="73.1445" x="43.1043" y="108.2108">Result Data</text></g><!--entity RedisAPI--><g class="entity" data-qualified-name="ClientLayer.RedisAPI" data-source-line="36" id="ent0008"><ellipse cx="714.6043" cy="284.9803" fill="#F1F1F1" rx="8" ry="8" style="stroke:#181818;stroke-width:0.5;"/><text fill="#000000" font-family="Arial" font-size="14" lengthAdjust="spacing" textLength="117.4961" x="655.8563" y="315.1122">Redis Protocol API</text></g><!--entity PubSubAPI--><g class="entity" data-qualified-name="ClientLayer.PubSubAPI" data-source-line="37" id="ent0009"><ellipse cx="546.6043" cy="284.9803" fill="#F1F1F1" rx="8" ry="8" style="stroke:#181818;stroke-width:0.5;"/><text fill="#000000" font-family="Arial" font-size="14" lengthAdjust="spacing" textLength="119.8477" x="486.6805" y="315.1122">Redis Pub/Sub API</text></g><!--entity RedisProxyAgent--><g class="entity" data-qualified-name="MiddlewareLayer.RedisProxyAgent" data-source-line="45" id="ent0011"><rect fill="#DBEAFE" height="126.5918" rx="2.5" ry="2.5" style="stroke:#3B82F6;stroke-width:0.5;" width="242.3369" x="832.6043" y="418.9803"/><rect fill="#DBEAFE" height="10" style="stroke:#3B82F6;stroke-width:0.5;" width="15" x="1054.9412" y="423.9803"/><rect fill="#DBEAFE" height="2" style="stroke:#3B82F6;stroke-width:0.5;" width="4" x="1052.9412" y="425.9803"/><rect fill="#DBEAFE" height="2" style="stroke:#3B82F6;stroke-width:0.5;" width="4" x="1052.9412" y="429.9803"/><text fill="#000000" font-family="Arial" font-size="14" lengthAdjust="spacing" textLength="108.165" x="847.6043" y="452.1122">RedisProxyAgent</text><text fill="#000000" font-family="Arial" font-size="14" lengthAdjust="spacing" textLength="3.8896" x="847.6043" y="468.2108">&#160;</text><text fill="#000000" font-family="Arial" font-size="14" lengthAdjust="spacing" textLength="202.3369" x="847.6043" y="484.3094">Supported command categories:</text><text fill="#000000" font-family="Arial" font-size="14" lengthAdjust="spacing" textLength="139.2822" x="847.6043" y="500.4081">String, Set, List, Hash,</text><text fill="#000000" font-family="Arial" font-size="14" lengthAdjust="spacing" textLength="122.9443" x="847.6043" y="516.5067">Sorted Set, Stream,</text><text fill="#000000" font-family="Arial" font-size="14" lengthAdjust="spacing" textLength="158.7236" x="847.6043" y="532.6053">Basic Control Commands</text></g><!--entity AgentSyncNetwork--><g class="entity" data-qualified-name="MiddlewareLayer.AgentSyncNetwork" data-source-line="46" id="ent0012"><rect fill="#DBEAFE" height="46.0986" rx="2.5" ry="2.5" style="stroke:#3B82F6;stroke-width:0.5;" width="159.0547" x="704.1043" y="636.9803"/><rect fill="#DBEAFE" height="10" style="stroke:#3B82F6;stroke-width:0.5;" width="15" x="843.159" y="641.9803"/><rect fill="#DBEAFE" height="2" style="stroke:#3B82F6;stroke-width:0.5;" width="4" x="841.159" y="643.9803"/><rect fill="#DBEAFE" height="2" style="stroke:#3B82F6;stroke-width:0.5;" width="4" x="841.159" y="647.9803"/><text fill="#000000" font-family="Arial" font-size="14" lengthAdjust="spacing" textLength="119.0547" x="719.1043" y="670.1122">AgentSyncNetwork</text></g><!--entity PubSubNode--><g class="entity" data-qualified-name="MiddlewareLayer.PubSubNode" data-source-line="47" id="ent0013"><rect fill="#DBEAFE" height="46.0986" rx="2.5" ry="2.5" style="stroke:#3B82F6;stroke-width:0.5;" width="123.2891" x="485.1043" y="459.4803"/><rect fill="#DBEAFE" height="10" style="stroke:#3B82F6;stroke-width:0.5;" width="15" x="588.3934" y="464.4803"/><rect fill="#DBEAFE" height="2" style="stroke:#3B82F6;stroke-width:0.5;" width="4" x="586.3934" y="466.4803"/><rect fill="#DBEAFE" height="2" style="stroke:#3B82F6;stroke-width:0.5;" width="4" x="586.3934" y="470.4803"/><text fill="#000000" font-family="Arial" font-size="14" lengthAdjust="spacing" textLength="83.2891" x="500.1043" y="492.6122">PubSubNode</text></g><!--entity PeerDiscoveryRouter--><g class="entity" data-qualified-name="P2PLayer.PeerDiscoveryRouter" data-source-line="55" id="ent0015"><rect fill="#DBEAFE" height="62.1973" rx="2.5" ry="2.5" style="stroke:#3B82F6;stroke-width:0.5;" width="189.3857" x="477.1043" y="796.9803"/><rect fill="#DBEAFE" height="10" style="stroke:#3B82F6;stroke-width:0.5;" width="15" x="646.4901" y="801.9803"/><rect fill="#DBEAFE" height="2" style="stroke:#3B82F6;stroke-width:0.5;" width="4" x="644.4901" y="803.9803"/><rect fill="#DBEAFE" height="2" style="stroke:#3B82F6;stroke-width:0.5;" width="4" x="644.4901" y="807.9803"/><text fill="#000000" font-family="Arial" font-size="14" lengthAdjust="spacing" textLength="133.0479" x="492.1043" y="830.1122">PeerDiscoveryRouter</text><text fill="#000000" font-family="Arial" font-size="14" lengthAdjust="spacing" textLength="149.3857" x="492.1043" y="846.2108">(Kademlia DHT / libp2p)</text></g><!--entity RedisStandaloneAdapter--><g class="entity" data-qualified-name="StorageLayer.RedisStandaloneAdapter" data-source-line="63" id="ent0017"><rect fill="#DBEAFE" height="46.0986" rx="2.5" ry="2.5" style="stroke:#3B82F6;stroke-width:0.5;" width="195.668" x="813.6043" y="804.9803"/><rect fill="#DBEAFE" height="10" style="stroke:#3B82F6;stroke-width:0.5;" width="15" x="989.2723" y="809.9803"/><rect fill="#DBEAFE" height="2" style="stroke:#3B82F6;stroke-width:0.5;" width="4" x="987.2723" y="811.9803"/><rect fill="#DBEAFE" height="2" style="stroke:#3B82F6;stroke-width:0.5;" width="4" x="987.2723" y="815.9803"/><text fill="#000000" font-family="Arial" font-size="14" lengthAdjust="spacing" textLength="155.668" x="828.6043" y="838.1122">RedisStandaloneAdapter</text></g><!--entity RedisClusterAdapter--><g class="entity" data-qualified-name="StorageLayer.RedisClusterAdapter" data-source-line="64" id="ent0018"><rect fill="#DBEAFE" height="46.0986" rx="2.5" ry="2.5" style="stroke:#3B82F6;stroke-width:0.5;" width="169.1719" x="1045.1043" y="804.9803"/><rect fill="#DBEAFE" height="10" style="stroke:#3B82F6;stroke-width:0.5;" width="15" x="1194.2762" y="809.9803"/><rect fill="#DBEAFE" height="2" style="stroke:#3B82F6;stroke-width:0.5;" width="4" x="1192.2762" y="811.9803"/><rect fill="#DBEAFE" height="2" style="stroke:#3B82F6;stroke-width:0.5;" width="4" x="1192.2762" y="815.9803"/><text fill="#000000" font-family="Arial" font-size="14" lengthAdjust="spacing" textLength="129.1719" x="1060.1043" y="838.1122">RedisClusterAdapter</text></g><!--entity SQLiteResultParser--><g class="entity" data-qualified-name="InternalLayer.SQLiteResultParser" data-source-line="72" id="ent0020"><rect fill="#DBEAFE" height="62.1973" rx="2.5" ry="2.5" style="stroke:#3B82F6;stroke-width:0.5;" width="197.1445" x="37.1043" y="253.9803"/><rect fill="#DBEAFE" height="10" style="stroke:#3B82F6;stroke-width:0.5;" width="15" x="214.2489" y="258.9803"/><rect fill="#DBEAFE" height="2" style="stroke:#3B82F6;stroke-width:0.5;" width="4" x="212.2489" y="260.9803"/><rect fill="#DBEAFE" height="2" style="stroke:#3B82F6;stroke-width:0.5;" width="4" x="212.2489" y="264.9803"/><text fill="#000000" font-family="Arial" font-size="14" lengthAdjust="spacing" textLength="123.7168" x="52.1043" y="287.1122">SQLiteResultParser</text><text fill="#000000" font-family="Arial" font-size="14" lengthAdjust="spacing" textLength="157.1445" x="52.1043" y="303.2108">(MySQL-Protocol Parser)</text></g><g class="entity" data-qualified-name="InternalLayer.GMN21" data-source-line="74" id="ent0022"><path d="M269.6043,249.9803 L269.6043,280.9803 L234.5143,284.9803 L269.6043,288.9803 L269.6043,319.7753 A0,0 0 0 0 269.6043,319.7753 L423.5623,319.7753 A0,0 0 0 0 423.5623,319.7753 L423.5623,259.9803 L413.5623,249.9803 L269.6043,249.9803 A0,0 0 0 0 269.6043,249.9803" fill="#FEFFDD" style="stroke:#181818;stroke-width:0.5;"/><path d="M413.5623,249.9803 L413.5623,259.9803 L423.5623,259.9803 L413.5623,249.9803" fill="#FEFFDD" style="stroke:#181818;stroke-width:0.5;"/><text fill="#000000" font-family="Arial" font-size="13" lengthAdjust="spacing" textLength="132.958" x="275.6043" y="267.1742">Parses: field metadata,</text><text fill="#000000" font-family="Arial" font-size="13" lengthAdjust="spacing" textLength="124.2871" x="275.6043" y="282.1229">field-name mappings,</text><text fill="#000000" font-family="Arial" font-size="13" lengthAdjust="spacing" textLength="115.5972" x="275.6043" y="297.0716">result rows, warning</text><text fill="#000000" font-family="Arial" font-size="13" lengthAdjust="spacing" textLength="121.3989" x="275.6043" y="312.0204">counts, status values</text></g><!--entity RedisDB--><g class="entity" data-qualified-name="RedisStandalone.RedisDB" data-source-line="86" id="ent0025"><path d="M844.6043,999.4803 C844.6043,989.4803 911.804,989.4803 911.804,989.4803 C911.804,989.4803 979.0037,989.4803 979.0037,999.4803 L979.0037,1040.6776 C979.0037,1050.6776 911.804,1050.6776 911.804,1050.6776 C911.804,1050.6776 844.6043,1050.6776 844.6043,1040.6776 L844.6043,999.4803" fill="#DCFCE7" style="stroke:#16A34A;stroke-width:0.5;"/><path d="M844.6043,999.4803 C844.6043,1009.4803 911.804,1009.4803 911.804,1009.4803 C911.804,1009.4803 979.0037,1009.4803 979.0037,999.4803" fill="none" style="stroke:#16A34A;stroke-width:0.5;"/><text fill="#000000" font-family="Arial" font-size="14" lengthAdjust="spacing" textLength="35.793" x="854.6043" y="1026.6122">Redis</text><text fill="#000000" font-family="Arial" font-size="14" lengthAdjust="spacing" textLength="114.3994" x="854.6043" y="1042.7108">Single-Node Store</text></g><!--entity RedisClusterDB--><g class="entity" data-qualified-name="RedisClusterNode.RedisClusterDB" data-source-line="90" id="ent0027"><path d="M1063.6043,999.4803 C1063.6043,989.4803 1129.6248,989.4803 1129.6248,989.4803 C1129.6248,989.4803 1195.6454,989.4803 1195.6454,999.4803 L1195.6454,1040.6776 C1195.6454,1050.6776 1129.6248,1050.6776 1129.6248,1050.6776 C1129.6248,1050.6776 1063.6043,1050.6776 1063.6043,1040.6776 L1063.6043,999.4803" fill="#DCFCE7" style="stroke:#16A34A;stroke-width:0.5;"/><path d="M1063.6043,999.4803 C1063.6043,1009.4803 1129.6248,1009.4803 1129.6248,1009.4803 C1129.6248,1009.4803 1195.6454,1009.4803 1195.6454,999.4803" fill="none" style="stroke:#16A34A;stroke-width:0.5;"/><text fill="#000000" font-family="Arial" font-size="14" lengthAdjust="spacing" textLength="84.0273" x="1073.6043" y="1026.6122">Redis Cluster</text><text fill="#000000" font-family="Arial" font-size="14" lengthAdjust="spacing" textLength="112.041" x="1073.6043" y="1042.7108">Store (multi-node)</text></g><!--link AppClient to RedisAPI--><g class="link" data-entity-1="ent0002" data-entity-2="ent0008" data-link-type="dependency" data-source-line="97" id="lnk28"><path d="M712.8443,121.2403 C712.3343,131.3303 711.8543,142.6403 711.6043,152.9803 C710.4843,199.3703 712.7913,250.0173 713.8813,270.7073" fill="none" id="AppClient-to-RedisAPI" style="stroke:#374151;stroke-width:1;"/><polygon fill="#374151" points="714.1443,275.7003,717.6653,266.5024,713.8813,270.7073,709.6764,266.9232,714.1443,275.7003" style="stroke:#374151;stroke-width:1;stroke-linejoin:miter;stroke-miterlimit:10;"/><text fill="#000000" font-family="Arial" font-size="13" lengthAdjust="spacing" textLength="100.4263" x="738.9788" y="166.1742">Redis commands</text><text fill="#000000" font-family="Arial" font-size="13" lengthAdjust="spacing" textLength="122.8271" x="727.7784" y="181.1229">(String/Set/List/Hash/</text><text fill="#000000" font-family="Arial" font-size="13" lengthAdjust="spacing" textLength="153.1753" x="712.6043" y="196.0716">SortedSet/Stream/Control)</text></g><!--link AppClient to PubSubAPI--><g class="link" data-entity-1="ent0002" data-entity-2="ent0009" data-link-type="dependency" data-source-line="98" id="lnk29"><path d="M640.4543,106.6803 C614.0243,115.9103 586.4243,130.3803 568.6043,152.9803 C538.9043,190.6403 542.3736,248.613 544.9336,270.893" fill="none" id="AppClient-to-PubSubAPI" style="stroke:#374151;stroke-width:1;"/><polygon fill="#374151" points="545.5043,275.8603,548.4508,266.4626,544.9336,270.893,540.5031,267.3758,545.5043,275.8603" style="stroke:#374151;stroke-width:1;stroke-linejoin:miter;stroke-miterlimit:10;"/><text fill="#000000" font-family="Arial" font-size="13" lengthAdjust="spacing" textLength="94.6816" x="588.3839" y="173.6742">Pub/Sub publish</text><text fill="#000000" font-family="Arial" font-size="13" lengthAdjust="spacing" textLength="132.2407" x="569.6043" y="188.6229">&amp; subscribe operations</text></g><!--link RedisAPI to RedisProxyAgent--><g class="link" data-entity-1="ent0008" data-entity-2="ent0011" data-link-type="dependency" data-source-line="104" id="lnk30"><path d="M723.6843,293.4103 C748.6643,313.8403 816.4842,369.3146 873.2342,415.7346" fill="none" id="RedisAPI-to-RedisProxyAgent" style="stroke:#374151;stroke-width:1;"/><polygon fill="#374151" points="877.1043,418.9003,872.6706,410.1059,873.2342,415.7346,867.6054,416.2982,877.1043,418.9003" style="stroke:#374151;stroke-width:1;stroke-linejoin:miter;stroke-miterlimit:10;"/><text fill="#000000" font-family="Arial" font-size="13" lengthAdjust="spacing" textLength="156.0762" x="813.6043" y="365.1742">validated Redis commands</text></g><!--link PubSubAPI to PubSubNode--><g class="link" data-entity-1="ent0009" data-entity-2="ent0013" data-link-type="dependency" data-source-line="105" id="lnk31"><path d="M546.6043,294.3803 C546.6043,322.8103 546.6043,411.0403 546.6043,454.2003" fill="none" id="PubSubAPI-to-PubSubNode" style="stroke:#374151;stroke-width:1;"/><polygon fill="#374151" points="546.6043,459.2003,550.6043,450.2003,546.6043,454.2003,542.6043,450.2003,546.6043,459.2003" style="stroke:#374151;stroke-width:1;stroke-linejoin:miter;stroke-miterlimit:10;"/><text fill="#000000" font-family="Arial" font-size="13" lengthAdjust="spacing" textLength="117.0635" x="547.6043" y="365.1742">Pub/Sub commands</text></g><!--link RedisProxyAgent to AgentSyncNetwork--><g class="link" data-entity-1="ent0011" data-entity-2="ent0012" data-link-type="dependency" data-source-line="111" id="lnk32"><path d="M832.2843,540.3103 C826.3543,542.3603 820.4443,544.2703 814.6043,545.9803 C770.8343,558.7903 641.3943,541.4603 611.6043,575.9803 C602.6043,586.4103 603.3943,595.9203 611.6043,606.9803 C623.2243,622.6403 659.63,634.2865 698.84,643.2465" fill="none" id="RedisProxyAgent-to-AgentSyncNetwork" style="stroke:#374151;stroke-width:1;"/><polygon fill="#374151" points="703.7143,644.3603,695.8316,638.4559,698.84,643.2465,694.0494,646.2549,703.7143,644.3603" style="stroke:#374151;stroke-width:1;stroke-linejoin:miter;stroke-miterlimit:10;"/><text fill="#000000" font-family="Arial" font-size="13" lengthAdjust="spacing" textLength="127.9116" x="612.6043" y="589.1742">propagate instructions</text><text fill="#000000" font-family="Arial" font-size="13" lengthAdjust="spacing" textLength="83.1162" x="635.002" y="604.1229">to peer agents</text></g><!--link AgentSyncNetwork to RedisProxyAgent--><g class="link" data-entity-1="ent0012" data-entity-2="ent0011" data-link-type="dependency" data-source-line="112" id="lnk33"><path d="M776.5943,636.9003 C772.3543,619.1703 769.6343,594.2803 780.6043,575.9803 C787.7843,564.0003 803.7214,552.5983 828.0414,539.3783" fill="none" id="AgentSyncNetwork-to-RedisProxyAgent" style="stroke:#374151;stroke-width:1;"/><polygon fill="#374151" points="832.4343,536.9903,822.6167,537.7743,828.0414,539.3783,826.4374,544.8029,832.4343,536.9903" style="stroke:#374151;stroke-width:1;stroke-linejoin:miter;stroke-miterlimit:10;"/><text fill="#000000" font-family="Arial" font-size="13" lengthAdjust="spacing" textLength="145.958" x="781.6043" y="589.1742">synchronized instructions</text><text fill="#000000" font-family="Arial" font-size="13" lengthAdjust="spacing" textLength="98.2744" x="805.4461" y="604.1229">from peer agents</text></g><!--link AgentSyncNetwork to PeerDiscoveryRouter--><g class="link" data-entity-1="ent0012" data-entity-2="ent0015" data-link-type="dependency" data-source-line="113" id="lnk34"><path d="M727.8443,683.0003 C709.3843,691.5903 689.3043,702.4203 672.6043,714.9803 C641.4243,738.4303 615.3834,768.5653 596.5034,792.9753" fill="none" id="AgentSyncNetwork-to-PeerDiscoveryRouter" style="stroke:#374151;stroke-width:1;"/><polygon fill="#374151" points="593.4443,796.9303,602.1146,792.2585,596.5034,792.9753,595.7866,787.364,593.4443,796.9303" style="stroke:#374151;stroke-width:1;stroke-linejoin:miter;stroke-miterlimit:10;"/><text fill="#000000" font-family="Arial" font-size="13" lengthAdjust="spacing" textLength="113.4707" x="673.6043" y="728.1742">decentralized agent</text><text fill="#000000" font-family="Arial" font-size="13" lengthAdjust="spacing" textLength="100.4326" x="680.1234" y="743.1229">network transport</text></g><!--link RedisProxyAgent to RedisStandaloneAdapter--><g class="link" data-entity-1="ent0011" data-entity-2="ent0017" data-link-type="dependency" data-source-line="119" id="lnk35"><path d="M951.1443,546.1403 C948.3843,599.5403 942.7443,678.1803 931.6043,745.9803 C928.2943,766.1303 923.8993,783.8418 919.4193,800.0118" fill="none" id="RedisProxyAgent-to-RedisStandaloneAdapter" style="stroke:#374151;stroke-width:1;"/><polygon fill="#374151" points="918.0843,804.8303,924.3421,797.2251,919.4193,800.0118,916.6325,795.0891,918.0843,804.8303" style="stroke:#374151;stroke-width:1;stroke-linejoin:miter;stroke-miterlimit:10;"/><text fill="#000000" font-family="Arial" font-size="13" lengthAdjust="spacing" textLength="95.3672" x="952.1202" y="657.6742">forwarded writes</text><text fill="#000000" font-family="Arial" font-size="13" lengthAdjust="spacing" textLength="108.3989" x="945.6043" y="672.6229">(standalone mode)</text></g><!--link RedisProxyAgent to RedisClusterAdapter--><g class="link" data-entity-1="ent0011" data-entity-2="ent0018" data-link-type="dependency" data-source-line="120" id="lnk36"><path d="M1018.8043,546.1103 C1058.8643,589.2803 1106.6043,650.3503 1128.6043,714.9803 C1138.7543,744.8003 1137.1209,776.7736 1134.0609,799.8736" fill="none" id="RedisProxyAgent-to-RedisClusterAdapter" style="stroke:#374151;stroke-width:1;"/><polygon fill="#374151" points="1133.4043,804.8303,1138.5516,796.4336,1134.0609,799.8736,1130.6209,795.383,1133.4043,804.8303" style="stroke:#374151;stroke-width:1;stroke-linejoin:miter;stroke-miterlimit:10;"/><text fill="#000000" font-family="Arial" font-size="13" lengthAdjust="spacing" textLength="95.3672" x="1126.6043" y="657.6742">forwarded writes</text><text fill="#000000" font-family="Arial" font-size="13" lengthAdjust="spacing" textLength="83.0781" x="1132.7489" y="672.6229">(cluster mode)</text></g><!--link AgentSyncNetwork to RedisStandaloneAdapter--><g class="link" data-entity-1="ent0012" data-entity-2="ent0017" data-link-type="dependency" data-source-line="122" id="lnk37"><path d="M787.2943,683.1303 C791.1243,701.2603 798.4543,726.9303 811.6043,745.9803 C828.1043,769.8803 849.5026,787.5846 870.6326,801.9846" fill="none" id="AgentSyncNetwork-to-RedisStandaloneAdapter" style="stroke:#374151;stroke-width:1;"/><polygon fill="#374151" points="874.7643,804.8003,869.5798,796.4265,870.6326,801.9846,865.0746,803.0373,874.7643,804.8003" style="stroke:#374151;stroke-width:1;stroke-linejoin:miter;stroke-miterlimit:10;"/><text fill="#000000" font-family="Arial" font-size="13" lengthAdjust="spacing" textLength="114.1563" x="812.6043" y="728.1742">synchronized writes</text><text fill="#000000" font-family="Arial" font-size="13" lengthAdjust="spacing" textLength="108.3989" x="815.483" y="743.1229">(standalone mode)</text></g><!--link AgentSyncNetwork to RedisClusterAdapter--><g class="link" data-entity-1="ent0012" data-entity-2="ent0018" data-link-type="dependency" data-source-line="123" id="lnk38"><path d="M843.2043,683.0903 C864.4143,690.8203 888.5243,699.4503 910.6043,706.9803 C921.6443,710.7403 924.6643,710.9203 935.6043,714.9803 C968.6443,727.2503 976.1343,732.2503 1008.6043,745.9803 C1017.0443,749.5503 1019.6043,749.5103 1027.6043,753.9803 C1054.2143,768.8603 1078.2744,786.2347 1098.1944,801.6947" fill="none" id="AgentSyncNetwork-to-RedisClusterAdapter" style="stroke:#374151;stroke-width:1;"/><polygon fill="#374151" points="1102.1443,804.7603,1097.4869,796.0823,1098.1944,801.6947,1092.5819,802.4023,1102.1443,804.7603" style="stroke:#374151;stroke-width:1;stroke-linejoin:miter;stroke-miterlimit:10;"/><text fill="#000000" font-family="Arial" font-size="13" lengthAdjust="spacing" textLength="114.1563" x="1009.6043" y="728.1742">synchronized writes</text><text fill="#000000" font-family="Arial" font-size="13" lengthAdjust="spacing" textLength="83.0781" x="1025.1434" y="743.1229">(cluster mode)</text></g><!--link PubSubNode to PeerDiscoveryRouter--><g class="link" data-entity-1="ent0013" data-entity-2="ent0015" data-link-type="dependency" data-source-line="129" id="lnk39"><path d="M548.2043,505.4903 C552.5343,564.9403 564.1012,723.8635 569.0512,791.8435" fill="none" id="PubSubNode-to-PeerDiscoveryRouter" style="stroke:#374151;stroke-width:1;"/><polygon fill="#374151" points="569.4143,796.8303,572.7502,787.5636,569.0512,791.8435,564.7713,788.1446,569.4143,796.8303" style="stroke:#374151;stroke-width:1;stroke-linejoin:miter;stroke-miterlimit:10;"/><text fill="#000000" font-family="Arial" font-size="13" lengthAdjust="spacing" textLength="84.5381" x="576.5316" y="657.6742">peer discovery</text><text fill="#000000" font-family="Arial" font-size="13" lengthAdjust="spacing" textLength="108.3926" x="564.6043" y="672.6229">&amp; message routing</text></g><!--link PubSubNode to AppClient--><g class="link" data-entity-1="ent0013" data-entity-2="ent0002" data-link-type="dependency" data-source-line="130" id="lnk40"><path d="M608.2143,459.6903 C663.3043,437.6303 743.3343,398.9303 796.6043,343.9803 C846.9643,292.0303 853.6943,269.3303 870.6043,198.9803 C875.3843,179.1003 882.0843,169.9003 870.6043,152.9803 C852.1143,125.7303 824.3595,111.8073 793.7595,103.2473" fill="none" id="PubSubNode-to-AppClient" style="stroke:#374151;stroke-width:1;"/><polygon fill="#374151" points="788.9443,101.9003,796.534,108.177,793.7595,103.2473,798.6892,100.4728,788.9443,101.9003" style="stroke:#374151;stroke-width:1;stroke-linejoin:miter;stroke-miterlimit:10;"/><text fill="#000000" font-family="Arial" font-size="13" lengthAdjust="spacing" textLength="115.6162" x="868.6043" y="282.6742">delivered messages</text><text fill="#000000" font-family="Arial" font-size="13" lengthAdjust="spacing" textLength="80.9199" x="885.9525" y="297.6229">to subscribers</text></g><!--link PubSubNode to PubSubNode--><g class="link" data-entity-1="ent0013" data-entity-2="ent0013" data-link-type="dependency" data-source-line="131" id="lnk41"><path d="M608.3243,462.2403 C627.7643,462.5503 643.1043,469.3003 643.1043,482.4803 C643.1043,495.6603 632.7637,502.3306 613.3237,502.6406" fill="none" id="PubSubNode-to-PubSubNode" style="stroke:#374151;stroke-width:1;"/><polygon fill="#374151" points="608.3243,502.7203,617.387,506.5763,613.3237,502.6406,617.2594,498.5773,608.3243,502.7203" style="stroke:#374151;stroke-width:1;stroke-linejoin:miter;stroke-miterlimit:10;"/><text fill="#000000" font-family="Arial" font-size="13" lengthAdjust="spacing" textLength="114.8989" x="671.4989" y="480.1742">inter-node message</text><text fill="#000000" font-family="Arial" font-size="13" lengthAdjust="spacing" textLength="159.688" x="649.1043" y="495.1229">dissemination via P2P layer</text></g><!--link PeerDiscoveryRouter to LibP2PPeer--><g class="link" data-entity-1="ent0015" data-entity-2="ent0004" data-link-type="dependency" data-source-line="137" id="lnk42"><path d="M571.6043,859.0903 C571.6043,889.6403 571.6043,932.3503 571.6043,967.7103" fill="none" id="PeerDiscoveryRouter-to-LibP2PPeer" style="stroke:#374151;stroke-width:1;"/><polygon fill="#374151" points="571.6043,972.7103,575.6043,963.7103,571.6043,967.7103,567.6043,963.7103,571.6043,972.7103" style="stroke:#374151;stroke-width:1;stroke-linejoin:miter;stroke-miterlimit:10;"/><text fill="#000000" font-family="Arial" font-size="13" lengthAdjust="spacing" textLength="114.8672" x="580.9229" y="904.1742">DHT peer discovery</text><text fill="#000000" font-family="Arial" font-size="13" lengthAdjust="spacing" textLength="131.5044" x="572.6043" y="919.1229">&amp; routing (libp2p/IPFS)</text></g><!--link RedisStandaloneAdapter to RedisDB--><g class="link" data-entity-1="ent0017" data-entity-2="ent0025" data-link-type="dependency" data-source-line="143" id="lnk43"><path d="M911.6043,851.1503 C911.6043,885.3103 911.6043,945.8803 911.6043,984.1703" fill="none" id="RedisStandaloneAdapter-to-RedisDB" style="stroke:#374151;stroke-width:1;"/><polygon fill="#374151" points="911.6043,989.1703,915.6043,980.1703,911.6043,984.1703,907.6043,980.1703,911.6043,989.1703" style="stroke:#374151;stroke-width:1;stroke-linejoin:miter;stroke-miterlimit:10;"/><text fill="#000000" font-family="Arial" font-size="13" lengthAdjust="spacing" textLength="64.3018" x="912.6043" y="911.6742">read / write</text></g><!--link RedisClusterAdapter to RedisClusterDB--><g class="link" data-entity-1="ent0018" data-entity-2="ent0027" data-link-type="dependency" data-source-line="144" id="lnk44"><path d="M1129.6043,851.1503 C1129.6043,885.3103 1129.6043,945.8803 1129.6043,984.1703" fill="none" id="RedisClusterAdapter-to-RedisClusterDB" style="stroke:#374151;stroke-width:1;"/><polygon fill="#374151" points="1129.6043,989.1703,1133.6043,980.1703,1129.6043,984.1703,1125.6043,980.1703,1129.6043,989.1703" style="stroke:#374151;stroke-width:1;stroke-linejoin:miter;stroke-miterlimit:10;"/><text fill="#000000" font-family="Arial" font-size="13" lengthAdjust="spacing" textLength="78.0254" x="1150.1139" y="904.1742">cluster-aware</text><text fill="#000000" font-family="Arial" font-size="13" lengthAdjust="spacing" textLength="117.0444" x="1130.6043" y="919.1229">read / write / failover</text></g><!--link PacketizedData to SQLiteResultParser--><g class="link" data-entity-1="ent0006" data-entity-2="ent0020" data-link-type="dependency" data-source-line="150" id="lnk45"><path d="M135.6043,121.1403 C135.6043,157.2903 135.6043,212.5203 135.6043,248.7203" fill="none" id="PacketizedData-to-SQLiteResultParser" style="stroke:#374151;stroke-width:1;"/><polygon fill="#374151" points="135.6043,253.7203,139.6043,244.7203,135.6043,248.7203,131.6043,244.7203,135.6043,253.7203" style="stroke:#374151;stroke-width:1;stroke-linejoin:miter;stroke-miterlimit:10;"/><text fill="#000000" font-family="Arial" font-size="13" lengthAdjust="spacing" textLength="125.0107" x="142.0094" y="173.6742">consumes packetized</text><text fill="#000000" font-family="Arial" font-size="13" lengthAdjust="spacing" textLength="135.8208" x="136.6043" y="188.6229">MySQL-protocol results</text></g><?plantuml-src pLdTRjis5BxtKn0Pi2L032z9btQz623hfp7YofxbeklcND0IxH2LIO6accR3W5tj0OOzOPzaXwGioPBSNLhfJyB3SmxfynsUlyYFb6LOu1rQu_ZZLl2S9IvFkK3V18x-Cv0bHmOSU4l6JKRV3ww3eCOOyrt66M6gnUgDVIVmQwoC9ss5WH_ywDxKk1Aiy1hBDgVd1gx_idvqolEahH2OWWE5P8FpL0MSgH3l2784nMbj7ml1dmhXcvSlhdwuwh035maH1TFjpUrjSDLfWphRpVZLTN3R_Fnr3jTvvNp_ekkprxckRfsR5yvWy1twykzVf_eBf_k_BFr5w4nHz25Q-c-Z4rzeOE17P_vdHGJ3AN9J2X38CuGb0cAnH7yC47oL4A7V5YIXSgZDdAoOasKfZR6Yd1KA7hGyaErgy6TvK4hNsNM6HcWo3o8q9qIWaAWdBZwQ8wTqFR-UkuQtTQPtjmH1gs75ZEo4RGIMIkInoWLPiVDCK-5gCVz4nFCb0gTMb6rNx5iKEaka10QwnEd5GtMSrbIxujldwEVf2FvHHT1SSCLZdgwO1sw58fwBc9Yh6ZQxRbzr3XvF5FsT99PlMEbP40aF2MbrvWuLgoRfUvpQHztfn0-NQ1A2gmQEwwEfyy5VdDfJYo22pgnF0VJWiXiCrf_YPo8C9dRBh0jCpY_GcV7L4adap2U6sP1XqUJBrwCeNvTii8Qbvki1D9xl0ZGBPphvrVVGsuddJVttpg9l47aa1Xm4JkqBe4cIaYSiwb1Ln3fSpGW3e7r-ThP0MB4LY_8iuqA1Ik3ROGRViI9RBYYHhs5R2NZgboWYwXAUjeJ_xx1yl8GTAsKsW8lW7H37MD8OkP3H17Y5QpNAXz8rghERLpF4w9d5HUYoqQv1R8K4uqSXfA-7ogtqiWz-1L4GXVxo_MnntpDNCZUp5grv3r2Fk8qEvju-_YyW-XC1QU4U9sINKepgESJcW0w1FY0IBMSBvusFnevxxuTUpr2951Vw1rqu4dY75JB5pjSUTQJWeU4KI4w2Cx1tzUPQMvqAt3INiDUIFgJt0KMJGtMvDr_CbZDtDaLtJkXD9-6RdW5gigak0CiqUGT8f11FQzZkcOw0QqicMz_CiP3cvHsMFyZIxSjhynkDZ4FT9UZsKI6-ESQalynIlaORIj84xOZ2klI_BFSDVSXqkxB3MGQVHLQRmfPXqBN8ImHfYC5skHb3AwI0BXLMkKIVS9eJQNQri-iBzi6vgbwYY1NXpFDFtb7e1crVIrNF6Nm7ZCcAshdnrWjNsZTkXJIaRS0a9KET94rSgGbxOur0_QpYyPyreu6HxZnWBw8h1r2EpdVW4NIebLwqrDW3UrAQV_dxdrfvxix2q7UNarbuSl3BbWyDXp-L5JPwRN_Sbsq0xRajraPGaerqgJRIbTfeNwbfggtJHaLzTj5GNLRbe7jViMVvEgNoKVTwCb_BMD0rGJmZmdIciYVPm42c0QnLxpr2iCIi1B2gWy7M40efF2CefWyH7LI0LF2OfrVXK_AU78YQwSiCtJSCQcRN5css5s3NJF0CRm4CH9cTWMWtNp75aHc3O2qY1ot9RcGbS3mApapBTgXm8_Zk_rLs5DAWDZbe1R5jvLWX1dGcTKlNAvVGZtEVKdlk5Tr5CvXzmmKKDGcO_4b0_QGZhgpoxKwdkECA3-leRcsnvIbKVSN9kcvtu6l7BtXSQUk6tHeRbpnvb_rkF8hUZKsTrYVFgaNhum_vSBAga-oEIAcRXsB6sbHJ9MmT1L8AOYJP2zamLQPf8LkNg6SGgXiFKvZjvLSChYB9ZZ8xTlu4lRqU5QIwDUd7FCKqU2QOb8LwCM8vETuT06kRL-DmiBcUbBGnBx16vtQ4Cj9Z_8l-J4iSpvc3hQD3i-jTln_nknqDovZcZS7gKFCcQ6GZsA0hr3L3e94gujmGwtdgYjMLmFSDfga6i4VZ4Fis-XG23tuBOwpSdZneIqD1b4CCCh_Jj08hPcSSsNx6OKSBSl0V?></g></svg>