<svg xmlns="http://www.w3.org/2000/svg" xmlns:xlink="http://www.w3.org/1999/xlink" contentStyleType="text/css" data-diagram-type="DESCRIPTION" height="844px" preserveAspectRatio="none" style="width:1934px;height:844px;background:#FFFFFF;" version="1.1" viewBox="0 0 1934 844" width="1934px" zoomAndPan="magnify"><?plantuml 1.2026.6?><defs/><g><g class="title" data-source-line="7"><text fill="#000000" font-family="sans-serif" font-size="14" font-weight="700" lengthAdjust="spacing" textLength="524.3096" x="701.3997" y="24.5332">Model Evolution Version Management Visualization Tool - System Architecture</text></g><!--cluster Browser--><g class="cluster" data-qualified-name="Browser" data-source-line="9" id="ent0001"><rect fill="none" height="106" rx="2.5" ry="2.5" style="stroke:#181818;stroke-width:1;" width="371" x="913.13" y="143.6094"/><text fill="#000000" font-family="sans-serif" font-size="14" font-weight="700" lengthAdjust="spacing" textLength="98.7998" x="1049.2301" y="160.1426">Client Browser</text></g><!--cluster Backend--><g class="cluster" data-qualified-name="Backend" data-source-line="14" id="ent0004"><rect fill="none" height="242" rx="2.5" ry="2.5" style="stroke:#181818;stroke-width:1;" width="609" x="398.13" y="289.6094"/><text fill="#000000" font-family="sans-serif" font-size="14" font-weight="700" lengthAdjust="spacing" textLength="147.0615" x="629.0992" y="306.1426">Web Server / Backend</text></g><!--cluster Algorithm--><g class="cluster" data-qualified-name="Algorithm" data-source-line="22" id="ent0010"><rect fill="none" height="208.36" rx="2.5" ry="2.5" style="stroke:#181818;stroke-width:1;" width="653" x="406.13" y="598.7494"/><text fill="#000000" font-family="sans-serif" font-size="14" font-weight="700" lengthAdjust="spacing" textLength="176.5313" x="644.3644" y="615.2826">Algorithm Support Module</text></g><!--cluster DB--><g class="cluster" data-qualified-name="DB" data-source-line="29" id="ent0015"><rect fill="none" height="263.5" rx="2.5" ry="2.5" style="stroke:#181818;stroke-width:1;" width="324" x="50.13" y="563.6094"/><text fill="#000000" font-family="sans-serif" font-size="14" font-weight="700" lengthAdjust="spacing" textLength="70.041" x="177.1095" y="580.1426">Databases</text></g><!--cluster External--><g class="cluster" data-qualified-name="External" data-source-line="35" id="ent0019"><rect fill="none" height="151" rx="2.5" ry="2.5" style="stroke:#181818;stroke-width:1;" width="572" x="1099.13" y="678.6094"/><text fill="#000000" font-family="sans-serif" font-size="14" font-weight="700" lengthAdjust="spacing" textLength="125.2822" x="1322.4889" y="695.1426">External Interfaces</text></g><!--entity UI--><g class="entity" data-qualified-name="Browser.UI" data-source-line="10" id="ent0002"><rect fill="#F1F1F1" height="37.6094" rx="2.5" ry="2.5" style="stroke:#181818;stroke-width:0.5;" width="66.6758" x="1192.63" y="187.6094"/><text fill="#000000" font-family="sans-serif" font-size="14" lengthAdjust="spacing" textLength="46.6758" x="1202.63" y="212.1426">Web UI</text></g><!--entity Frontend--><g class="entity" data-qualified-name="Browser.Frontend" data-source-line="11" id="ent0003"><rect fill="#F1F1F1" height="37.6094" rx="2.5" ry="2.5" style="stroke:#181818;stroke-width:0.5;" width="226.958" x="945.63" y="187.6094"/><text fill="#000000" font-family="sans-serif" font-size="14" lengthAdjust="spacing" textLength="206.958" x="955.63" y="212.1426">JavaScript / Frontend Framework</text></g><!--entity API--><g class="entity" data-qualified-name="Backend.API" data-source-line="15" id="ent0005"><rect fill="#F1F1F1" height="37.6094" rx="2.5" ry="2.5" style="stroke:#181818;stroke-width:0.5;" width="163.1514" x="665.63" y="333.6094"/><text fill="#000000" font-family="sans-serif" font-size="14" lengthAdjust="spacing" textLength="143.1514" x="675.63" y="358.1426">REST API / Controllers</text></g><!--entity BLL--><g class="entity" data-qualified-name="Backend.BLL" data-source-line="16" id="ent0006"><rect fill="#F1F1F1" height="37.6094" rx="2.5" ry="2.5" style="stroke:#181818;stroke-width:0.5;" width="153.0752" x="514.63" y="401.6094"/><text fill="#000000" font-family="sans-serif" font-size="14" lengthAdjust="spacing" textLength="133.0752" x="524.63" y="426.1426">Business Logic Layer</text></g><!--entity Auth--><g class="entity" data-qualified-name="Backend.Auth" data-source-line="17" id="ent0007"><rect fill="#F1F1F1" height="37.6094" rx="2.5" ry="2.5" style="stroke:#181818;stroke-width:0.5;" width="159.3027" x="815.63" y="469.6094"/><text fill="#000000" font-family="sans-serif" font-size="14" lengthAdjust="spacing" textLength="139.3027" x="825.63" y="494.1426">Authentication Service</text></g><!--entity ModelProc--><g class="entity" data-qualified-name="Backend.ModelProc" data-source-line="18" id="ent0008"><rect fill="#F1F1F1" height="37.6094" rx="2.5" ry="2.5" style="stroke:#181818;stroke-width:0.5;" width="181.8477" x="422.13" y="469.6094"/><text fill="#000000" font-family="sans-serif" font-size="14" lengthAdjust="spacing" textLength="161.8477" x="432.13" y="494.1426">Model Processing Service</text></g><!--entity GraphService--><g class="entity" data-qualified-name="Backend.GraphService" data-source-line="19" id="ent0009"><rect fill="#F1F1F1" height="37.6094" rx="2.5" ry="2.5" style="stroke:#181818;stroke-width:0.5;" width="170.9648" x="624.63" y="469.6094"/><text fill="#000000" font-family="sans-serif" font-size="14" lengthAdjust="spacing" textLength="150.9648" x="634.63" y="494.1426">Evolution Graph Service</text></g><!--entity ONNXParser--><g class="entity" data-qualified-name="Algorithm.ONNXParser" data-source-line="23" id="ent0011"><rect fill="#F1F1F1" height="37.6094" rx="2.5" ry="2.5" style="stroke:#181818;stroke-width:0.5;" width="105.5723" x="580.13" y="745.1094"/><text fill="#000000" font-family="sans-serif" font-size="14" lengthAdjust="spacing" textLength="85.5723" x="590.13" y="769.6426">ONNX Parser</text></g><!--entity PyTorchAnalyzer--><g class="entity" data-qualified-name="Algorithm.PyTorchAnalyzer" data-source-line="24" id="ent0012"><rect fill="#F1F1F1" height="37.6094" rx="2.5" ry="2.5" style="stroke:#181818;stroke-width:0.5;" width="130.4824" x="430.13" y="745.1094"/><text fill="#000000" font-family="sans-serif" font-size="14" lengthAdjust="spacing" textLength="110.4824" x="440.13" y="769.6426">PyTorch Analyzer</text></g><!--entity TopologyGen--><g class="entity" data-qualified-name="Algorithm.TopologyGen" data-source-line="25" id="ent0013"><rect fill="#F1F1F1" height="37.6094" rx="2.5" ry="2.5" style="stroke:#181818;stroke-width:0.5;" width="144.5166" x="889.63" y="745.1094"/><text fill="#000000" font-family="sans-serif" font-size="14" lengthAdjust="spacing" textLength="124.5166" x="899.63" y="769.6426">Topology Generator</text></g><!--entity PerfEval--><g class="entity" data-qualified-name="Algorithm.PerfEval" data-source-line="26" id="ent0014"><rect fill="#F1F1F1" height="37.6094" rx="2.5" ry="2.5" style="stroke:#181818;stroke-width:0.5;" width="163.1787" x="706.63" y="745.1094"/><text fill="#000000" font-family="sans-serif" font-size="14" lengthAdjust="spacing" textLength="143.1787" x="716.63" y="769.6426">Performance Evaluator</text></g><!--entity Neo4j--><g class="entity" data-qualified-name="DB.Neo4j" data-source-line="30" id="ent0016"><path d="M66.13,735.6094 C66.13,725.6094 140.3331,725.6094 140.3331,725.6094 C140.3331,725.6094 214.5363,725.6094 214.5363,735.6094 L214.5363,792.4063 C214.5363,802.4063 140.3331,802.4063 140.3331,802.4063 C140.3331,802.4063 66.13,802.4063 66.13,792.4063 L66.13,735.6094" fill="#F1F1F1" style="stroke:#181818;stroke-width:0.5;"/><path d="M66.13,735.6094 C66.13,745.6094 140.3331,745.6094 140.3331,745.6094 C140.3331,745.6094 214.5363,745.6094 214.5363,735.6094" fill="none" style="stroke:#181818;stroke-width:0.5;"/><text fill="#000000" font-family="sans-serif" font-size="14" lengthAdjust="spacing" textLength="36.5791" x="76.13" y="764.1426">Neo4j</text><text fill="#000000" font-family="sans-serif" font-size="10" lengthAdjust="spacing" textLength="82.2656" x="76.13" y="777.5996">[Evolution Graphs,</text><text fill="#000000" font-family="sans-serif" font-size="14" lengthAdjust="spacing" textLength="128.4063" x="76.13" y="794.3301">Layer Reuse]&lt;/size&gt;</text></g><!--entity MySQL--><g class="entity" data-qualified-name="DB.MySQL" data-source-line="31" id="ent0017"><path d="M234.13,727.1094 C234.13,717.1094 296.2711,717.1094 296.2711,717.1094 C296.2711,717.1094 358.4122,717.1094 358.4122,727.1094 L358.4122,801.5156 C358.4122,811.5156 296.2711,811.5156 296.2711,811.5156 C296.2711,811.5156 234.13,811.5156 234.13,801.5156 L234.13,727.1094" fill="#F1F1F1" style="stroke:#181818;stroke-width:0.5;"/><path d="M234.13,727.1094 C234.13,737.1094 296.2711,737.1094 296.2711,737.1094 C296.2711,737.1094 358.4122,737.1094 358.4122,727.1094" fill="none" style="stroke:#181818;stroke-width:0.5;"/><text fill="#000000" font-family="sans-serif" font-size="14" lengthAdjust="spacing" textLength="46.6758" x="244.13" y="755.6426">MySQL</text><text fill="#000000" font-family="sans-serif" font-size="10" lengthAdjust="spacing" textLength="91.6846" x="244.13" y="769.0996">[Users, Permissions,</text><text fill="#000000" font-family="sans-serif" font-size="14" lengthAdjust="spacing" textLength="104.2822" x="244.13" y="785.8301">Model Metadata,</text><text fill="#000000" font-family="sans-serif" font-size="14" lengthAdjust="spacing" textLength="104.2754" x="244.13" y="803.4395">Datasets]&lt;/size&gt;</text></g><!--entity EncryptedStorage--><g class="entity" data-qualified-name="DB.EncryptedStorage" data-source-line="32" id="ent0018"><rect fill="#F1F1F1" height="55.2188" rx="2.5" ry="2.5" style="stroke:#181818;stroke-width:0.5;" width="135.958" x="222.13" y="599.6094"/><text fill="#000000" font-family="sans-serif" font-size="14" lengthAdjust="spacing" textLength="115.958" x="232.13" y="624.1426">Encrypted Storage</text><text fill="#000000" font-family="sans-serif" font-size="14" lengthAdjust="spacing" textLength="70.0137" x="232.13" y="641.752">(AES/DES)</text></g><!--entity PythonLib--><g class="entity" data-qualified-name="External.PythonLib" data-source-line="36" id="ent0020"><rect fill="#F1F1F1" height="37.6094" rx="2.5" ry="2.5" style="stroke:#181818;stroke-width:0.5;" width="121.165" x="1131.63" y="745.1094"/><text fill="#000000" font-family="sans-serif" font-size="14" lengthAdjust="spacing" textLength="101.165" x="1141.63" y="769.6426">Python Libraries</text></g><!--entity OAuth--><g class="entity" data-qualified-name="External.OAuth" data-source-line="37" id="ent0021"><rect fill="#F1F1F1" height="37.6094" rx="2.5" ry="2.5" style="stroke:#181818;stroke-width:0.5;" width="176.4063" x="1273.13" y="745.1094"/><text fill="#000000" font-family="sans-serif" font-size="14" lengthAdjust="spacing" textLength="156.4063" x="1283.13" y="769.6426">OAuth 2.0 / 2FA Provider</text></g><!--entity Protocols--><g class="entity" data-qualified-name="External.Protocols" data-source-line="38" id="ent0022"><path d="M1477.9582,731.2499 C1482.1754,725.0278 1486.6789,724.8047 1490.6802,731.463 C1493.2758,725.5218 1497.3901,725.0107 1501.3847,730.1062 C1504.8337,725.2124 1508.7381,724.0944 1512.6584,729.5951 C1515.9573,723.0563 1519.9644,722.7552 1525.2155,727.4038 C1528.0371,721.0996 1532.7852,721.0583 1536.455,726.599 C1539.7055,719.7305 1543.3981,719.8026 1548.1068,725.2156 C1551.0868,719.4523 1554.2691,719.0775 1558.6197,723.8476 C1562.9565,719.4054 1567.7184,720.8288 1569.7294,726.4222 C1573.1402,720.1351 1578.4651,720.1417 1582.2334,726.0558 C1586.2091,721.2071 1591.5917,721.659 1593.4123,728.1755 C1597.1904,723.6775 1600.8041,723.5698 1604.3772,728.4161 C1608.2092,722.5801 1613.3028,723.4685 1615.8058,729.677 C1620.0447,723.8813 1624.0374,724.7597 1627.5617,730.4109 C1632.6036,725.5686 1636.3102,725.8243 1639.0503,732.6728 C1645.3586,735.2955 1645.0678,739.3917 1640.894,743.7578 C1647.311,744.6418 1648.2108,749.4481 1644.6607,753.9982 C1649.5359,757.0243 1650.2091,761.0413 1645.2043,764.5752 C1649.8819,769.1142 1649.1377,772.7094 1643.53,775.7005 C1646.9995,780.0494 1646.0473,784.2929 1640.8045,786.4283 C1645.3462,789.5903 1646.4133,794.5835 1640.7623,797.7073 C1638.3505,804.3818 1632.6945,803.662 1629.0463,798.9833 C1625.7683,804.9458 1621.134,806.2038 1616.5056,800.4257 C1613.384,806.3288 1608.9916,807.5486 1604.3162,802.0933 C1601.7007,807.2681 1597.5111,806.8983 1594.7031,802.2823 C1591.8608,809.3535 1586.3847,810.1976 1581.329,804.6232 C1578.5957,810.3965 1573.3525,810.0739 1570.142,805.1209 C1567.6655,810.2153 1563.5578,810.7808 1559.7653,806.592 C1554.8136,812.5691 1549.9204,812.1529 1546.7211,804.8684 C1542.1509,810.0461 1538.7529,808.7831 1535.2833,803.6477 C1531.5424,808.3617 1526.6438,808.0067 1523.5064,802.9222 C1519.6317,807.9862 1514.2841,807.748 1512.0492,801.2914 C1509.1794,807.2052 1504.3437,806.7166 1501.2069,801.5528 C1497.7206,805.6545 1492.5181,806.2448 1490.5106,800.0209 C1486.1474,805.8104 1481.1884,804.0799 1478.9182,797.9802 C1473.5946,796.3253 1471.0531,792.4042 1475.7836,787.6875 C1470.9348,785.8559 1469.413,780.944 1473.691,777.2776 C1468.582,774.8295 1467.6114,769.2515 1472.4984,765.7677 C1467.6146,761.6546 1468.0549,757.3653 1473.4974,754.1393 C1468.5457,750.3408 1470.2586,746.0773 1475.1803,743.9018 C1470.9394,738.5157 1470.6114,734.0917 1477.9582,731.2499" fill="#F1F1F1" style="stroke:#181818;stroke-width:0.5;"/><text fill="#000000" font-family="sans-serif" font-size="14" lengthAdjust="spacing" textLength="109.7236" x="1484.13" y="752.1426">Internet Protocols</text><text fill="#000000" font-family="sans-serif" font-size="14" lengthAdjust="spacing" textLength="147.7793" x="1484.13" y="769.752">(HTTP/HTTPS, TCP/IP,</text><text fill="#000000" font-family="sans-serif" font-size="14" lengthAdjust="spacing" textLength="115.1104" x="1484.13" y="787.3613">FTP, SMTP, UDP)</text></g><g class="entity" data-qualified-name="GMN43" data-source-line="70" id="ent0044"><path d="M824.13,44.6094 L824.13,120.0156 L1018.5162,120.0156 L1018.5162,54.6094 L1008.5162,44.6094 L824.13,44.6094" fill="#FEFFDD" style="stroke:#181818;stroke-width:0.5;"/><path d="M1008.5162,44.6094 L1008.5162,54.6094 L1018.5162,54.6094 L1008.5162,44.6094" fill="#FEFFDD" style="stroke:#181818;stroke-width:1;"/><text fill="#000000" font-family="sans-serif" font-size="13" font-weight="700" lengthAdjust="spacing" textLength="72.249" x="830.13" y="63.1045">User Roles:</text><text fill="#000000" font-family="sans-serif" font-size="13" lengthAdjust="spacing" textLength="145.228" x="830.13" y="79.4561">Learner (Browse/Search)</text><text fill="#000000" font-family="sans-serif" font-size="13" lengthAdjust="spacing" textLength="143.7871" x="830.13" y="95.8076">Contributor (Upload/Edit)</text><text fill="#000000" font-family="sans-serif" font-size="13" lengthAdjust="spacing" textLength="173.3862" x="830.13" y="112.1592">Administrator (Manage Users)</text></g><g class="entity" data-qualified-name="GMN46" data-source-line="77" id="ent0047"><path d="M1695.13,726.6094 L1695.13,802.0156 L1919.109,802.0156 L1919.109,736.6094 L1909.109,726.6094 L1695.13,726.6094" fill="#FEFFDD" style="stroke:#181818;stroke-width:0.5;"/><path d="M1909.109,726.6094 L1909.109,736.6094 L1919.109,736.6094 L1909.109,726.6094" fill="#FEFFDD" style="stroke:#181818;stroke-width:1;"/><text fill="#000000" font-family="sans-serif" font-size="13" font-weight="700" lengthAdjust="spacing" textLength="76.5591" x="1701.13" y="745.1045">Constraints:</text><text fill="#000000" font-family="sans-serif" font-size="13" lengthAdjust="spacing" textLength="93.9263" x="1701.13" y="761.4561">B/S Architecture</text><text fill="#000000" font-family="sans-serif" font-size="13" lengthAdjust="spacing" textLength="202.979" x="1701.13" y="777.8076">Cross-Platform (Win/macOS/Linux)</text><text fill="#000000" font-family="sans-serif" font-size="13" lengthAdjust="spacing" textLength="153.1563" x="1701.13" y="794.1592">TLS Encryption (PCI DSS)</text></g><!--link Browser to Backend--><g class="link" data-entity-1="ent0001" data-entity-2="ent0004" data-link-type="dependency" data-source-line="42" id="lnk23"><path d="M921.13,249.8455 C921.13,250.1002 921.13,250.3556 921.13,250.6114 C921.13,252.6585 921.13,254.7419 921.13,256.8535 C921.13,265.3 921.13,274.1981 921.13,283.0294 C921.13,284.1333 921.13,285.2361 921.13,286.3369 C921.13,286.8873 921.13,287.4372 921.13,287.9865 C921.13,288.2611 921.13,288.5356 921.13,288.8099 C921.13,288.947 921.13,284.0841 921.13,284.2212" fill="none" id="Browser-to-Backend" style="stroke:#181818;stroke-width:1;"/><polygon fill="#181818" points="921.13,289.2212,925.13,280.2212,921.13,284.2212,917.13,280.2212,921.13,289.2212" style="stroke:#181818;stroke-width:1;stroke-linejoin:miter;stroke-miterlimit:10;"/><text fill="#000000" font-family="sans-serif" font-size="13" lengthAdjust="spacing" textLength="163.9663" x="922.13" y="315.0645">HTTP/HTTPS (UI Requests)</text></g><!--link Frontend to API--><g class="link" data-entity-1="ent0003" data-entity-2="ent0005" data-link-type="dependency" data-source-line="43" id="lnk24"><path d="M960.13,225.8094 C960.13,263.2994 960.13,342.6094 960.13,342.6094 C960.13,342.6094 893.94,342.6094 833.88,342.6094" fill="none" id="Frontend-to-API" style="stroke:#181818;stroke-width:1;"/><polygon fill="#181818" points="828.88,342.6094,837.88,346.6094,833.88,342.6094,837.88,338.6094,828.88,342.6094" style="stroke:#181818;stroke-width:1;stroke-linejoin:miter;stroke-miterlimit:10;"/><text fill="#000000" font-family="sans-serif" font-size="13" lengthAdjust="spacing" textLength="91.7427" x="860.91" y="339.1045">REST API Calls</text></g><!--link API to BLL--><g class="link" data-entity-1="ent0005" data-entity-2="ent0006" data-link-type="dependency" data-source-line="45" id="lnk25"><path d="M731.63,371.8894 C731.63,390.0894 731.63,414.6094 731.63,414.6094 C731.63,414.6094 705.76,414.6094 672.96,414.6094" fill="none" id="API-to-BLL" style="stroke:#181818;stroke-width:1;"/><polygon fill="#181818" points="667.96,414.6094,676.96,418.6094,672.96,414.6094,676.96,410.6094,667.96,414.6094" style="stroke:#181818;stroke-width:1;stroke-linejoin:miter;stroke-miterlimit:10;"/><text fill="#000000" font-family="sans-serif" font-size="13" lengthAdjust="spacing" textLength="117.0698" x="722.16" y="411.1045">Delegates Requests</text></g><!--link BLL to Auth--><g class="link" data-entity-1="ent0006" data-entity-2="ent0007" data-link-type="dependency" data-source-line="46" id="lnk26"><path d="M667.73,427.6094 C734.98,427.6094 822.13,427.6094 822.13,427.6094 C822.13,427.6094 822.13,446.4394 822.13,464.3094" fill="none" id="BLL-to-Auth" style="stroke:#181818;stroke-width:1;"/><polygon fill="#181818" points="822.13,469.3094,826.13,460.3094,822.13,464.3094,818.13,460.3094,822.13,469.3094" style="stroke:#181818;stroke-width:1;stroke-linejoin:miter;stroke-miterlimit:10;"/><text fill="#000000" font-family="sans-serif" font-size="13" lengthAdjust="spacing" textLength="138.0298" x="766.78" y="442.1045">Authenticate / Authorize</text></g><!--link BLL to ModelProc--><g class="link" data-entity-1="ent0006" data-entity-2="ent0008" data-link-type="dependency" data-source-line="47" id="lnk27"><path d="M559.38,439.9094 C559.38,449.1794 559.38,455.2494 559.38,464.4894" fill="none" id="BLL-to-ModelProc" style="stroke:#181818;stroke-width:1;"/><polygon fill="#181818" points="559.38,469.4894,563.38,460.4894,559.38,464.4894,555.38,460.4894,559.38,469.4894" style="stroke:#181818;stroke-width:1;stroke-linejoin:miter;stroke-miterlimit:10;"/><text fill="#000000" font-family="sans-serif" font-size="13" lengthAdjust="spacing" textLength="92.479" x="466.38" y="451.1945">Process Models</text></g><!--link BLL to GraphService--><g class="link" data-entity-1="ent0006" data-entity-2="ent0009" data-link-type="dependency" data-source-line="48" id="lnk28"><path d="M646.13,439.9094 C646.13,449.1794 646.13,455.2494 646.13,464.4894" fill="none" id="BLL-to-GraphService" style="stroke:#181818;stroke-width:1;"/><polygon fill="#181818" points="646.13,469.4894,650.13,460.4894,646.13,464.4894,642.13,460.4894,646.13,469.4894" style="stroke:#181818;stroke-width:1;stroke-linejoin:miter;stroke-miterlimit:10;"/><text fill="#000000" font-family="sans-serif" font-size="13" lengthAdjust="spacing" textLength="104.0698" x="647.13" y="451.1945">Manage Evolution</text></g><!--link ModelProc to Algorithm--><g class="link" data-entity-1="ent0008" data-entity-2="ent0010" data-link-type="dependency" data-source-line="50" id="lnk29"><path d="M592.13,507.7594 C592.13,526.9294 592.13,553.6094 592.13,553.6094 C592.13,553.6094 753.38,553.6094 753.38,553.6094 C753.38,553.6094 753.38,571.8594 753.38,590.1094 C753.38,592.3906 753.38,594.6719 753.38,596.9175 C753.38,597.4789 753.38,593.0381 753.38,593.5944" fill="none" id="ModelProc-to-Algorithm" style="stroke:#181818;stroke-width:1;"/><polygon fill="#181818" points="753.38,598.5944,757.38,589.5944,753.38,593.5944,749.38,589.5944,753.38,598.5944" style="stroke:#181818;stroke-width:1;stroke-linejoin:miter;stroke-miterlimit:10;"/><text fill="#000000" font-family="sans-serif" font-size="13" lengthAdjust="spacing" textLength="96.8208" x="610.9" y="550.1045">Invokes Analysis</text></g><!--link GraphService to Algorithm--><g class="link" data-entity-1="ent0009" data-entity-2="ent0010" data-link-type="dependency" data-source-line="51" id="lnk30"><path d="M710.47,507.8694 C710.47,526.2994 710.47,554.8519 710.47,579.3969 C710.47,585.5331 710.47,591.4189 710.47,596.8334 C710.47,597.1718 710.47,597.5084 710.47,597.8431 C710.47,598.0104 710.47,593.1773 710.47,593.3437" fill="none" id="GraphService-to-Algorithm" style="stroke:#181818;stroke-width:1;"/><polygon fill="#181818" points="710.47,598.3437,714.47,589.3437,710.47,593.3437,706.47,589.3437,710.47,598.3437" style="stroke:#181818;stroke-width:1;stroke-linejoin:miter;stroke-miterlimit:10;"/><text fill="#000000" font-family="sans-serif" font-size="13" lengthAdjust="spacing" textLength="131.5171" x="711.47" y="563.8645">Requests Visualization</text></g><!--link Algorithm to ONNXParser--><g class="link" data-entity-1="ent0010" data-entity-2="ent0011" data-link-type="dependency" data-source-line="53" id="lnk31"><path d="M709.98,627.6094 C706.77,627.6094 655.38,627.6094 655.38,627.6094 C655.38,627.6094 655.38,702.2194 655.38,739.8394" fill="none" id="Algorithm-to-ONNXParser" style="stroke:#181818;stroke-width:1;"/><polygon fill="#181818" points="655.38,744.8394,659.38,735.8394,655.38,739.8394,651.38,735.8394,655.38,744.8394" style="stroke:#181818;stroke-width:1;stroke-linejoin:miter;stroke-miterlimit:10;"/><text fill="#000000" font-family="sans-serif" font-size="13" lengthAdjust="spacing" textLength="65.019" x="589.38" y="673.4245">Parse Files</text></g><!--link Algorithm to PyTorchAnalyzer--><g class="link" data-entity-1="ent0010" data-entity-2="ent0012" data-link-type="dependency" data-source-line="54" id="lnk32"><path d="M710.2,627.6094 C713.1,627.6094 805.63,627.6094 805.63,627.6094 C805.63,627.6094 805.63,641.6094 805.63,641.6094 C805.63,641.6094 495.13,641.6094 495.13,641.6094 C495.13,641.6094 495.13,705.5194 495.13,739.9694" fill="none" id="Algorithm-to-PyTorchAnalyzer" style="stroke:#181818;stroke-width:1;"/><polygon fill="#181818" points="495.13,744.9694,499.13,735.9694,495.13,739.9694,491.13,735.9694,495.13,744.9694" style="stroke:#181818;stroke-width:1;stroke-linejoin:miter;stroke-miterlimit:10;"/><text fill="#000000" font-family="sans-serif" font-size="13" lengthAdjust="spacing" textLength="80.939" x="572.42" y="638.1045">Analyze Code</text></g><!--link Algorithm to TopologyGen--><g class="link" data-entity-1="ent0010" data-entity-2="ent0013" data-link-type="dependency" data-source-line="55" id="lnk33"><path d="M710.3,627.6094 C717.02,627.6094 932.13,627.6094 932.13,627.6094 C932.13,627.6094 932.13,702.2194 932.13,739.8394" fill="none" id="Algorithm-to-TopologyGen" style="stroke:#181818;stroke-width:1;"/><polygon fill="#181818" points="932.13,744.8394,936.13,735.8394,932.13,739.8394,928.13,735.8394,932.13,744.8394" style="stroke:#181818;stroke-width:1;stroke-linejoin:miter;stroke-miterlimit:10;"/><text fill="#000000" font-family="sans-serif" font-size="13" lengthAdjust="spacing" textLength="100.4453" x="778.83" y="642.1045">Generate Graphs</text></g><!--link Algorithm to PerfEval--><g class="link" data-entity-1="ent0010" data-entity-2="ent0014" data-link-type="dependency" data-source-line="56" id="lnk34"><path d="M710.13,627.4994 C710.13,633.5894 710.13,703.8994 710.13,740.0194" fill="none" id="Algorithm-to-PerfEval" style="stroke:#181818;stroke-width:1;"/><polygon fill="#181818" points="710.13,745.0194,714.13,736.0194,710.13,740.0194,706.13,736.0194,710.13,745.0194" style="stroke:#181818;stroke-width:1;stroke-linejoin:miter;stroke-miterlimit:10;"/><text fill="#000000" font-family="sans-serif" font-size="13" lengthAdjust="spacing" textLength="99.6963" x="711.13" y="682.7545">Calculate Metrics</text></g><!--link BLL to MySQL--><g class="link" data-entity-1="ent0006" data-entity-2="ent0017" data-link-type="dependency" data-source-line="58" id="lnk35"><path d="M614.38,439.9594 C614.38,508.7894 614.38,737.6094 614.38,737.6094 C614.38,737.6094 455.87,737.6094 363.25,737.6094" fill="none" id="BLL-to-MySQL" style="stroke:#181818;stroke-width:1;"/><polygon fill="#181818" points="358.25,737.6094,367.25,741.6094,363.25,737.6094,367.25,733.6094,358.25,737.6094" style="stroke:#181818;stroke-width:1;stroke-linejoin:miter;stroke-miterlimit:10;"/><text fill="#000000" font-family="sans-serif" font-size="13" lengthAdjust="spacing" textLength="145.1963" x="468.38" y="713.3445">CRUD (Users, Metadata)</text></g><!--link BLL to Neo4j--><g class="link" data-entity-1="ent0006" data-entity-2="ent0016" data-link-type="dependency" data-source-line="59" id="lnk36"><path d="M514.63,420.6094 C385.96,420.6094 140.13,420.6094 140.13,420.6094 C140.13,420.6094 140.13,630.5394 140.13,720.3694" fill="none" id="BLL-to-Neo4j" style="stroke:#181818;stroke-width:1;"/><polygon fill="#181818" points="140.13,725.3694,144.13,716.3694,140.13,720.3694,136.13,716.3694,140.13,725.3694" style="stroke:#181818;stroke-width:1;stroke-linejoin:miter;stroke-miterlimit:10;"/><text fill="#000000" font-family="sans-serif" font-size="13" lengthAdjust="spacing" textLength="167.6099" x="7" y="417.1045">CRUD (Graph Relationships)</text></g><!--link ModelProc to EncryptedStorage--><g class="link" data-entity-1="ent0008" data-entity-2="ent0018" data-link-type="dependency" data-source-line="60" id="lnk37"><path d="M426.13,507.6394 C426.13,543.5294 426.13,617.6094 426.13,617.6094 C426.13,617.6094 397.4,617.6094 363.53,617.6094" fill="none" id="ModelProc-to-EncryptedStorage" style="stroke:#181818;stroke-width:1;"/><polygon fill="#181818" points="358.53,617.6094,367.53,621.6094,363.53,617.6094,367.53,613.6094,358.53,617.6094" style="stroke:#181818;stroke-width:1;stroke-linejoin:miter;stroke-miterlimit:10;"/><text fill="#000000" font-family="sans-serif" font-size="13" lengthAdjust="spacing" textLength="216.7407" x="427.13" y="592.9245">Store/Retrieve Models (ONNX, Code)</text></g><!--link EncryptedStorage to MySQL--><g class="link" data-entity-1="ent0018" data-entity-2="ent0017" data-link-type="dependency" data-source-line="61" id="lnk38"><path d="M296.13,654.8294 C296.13,672.6594 296.13,691.2794 296.13,711.9994" fill="none" id="EncryptedStorage-to-MySQL" style="stroke:#181818;stroke-width:1;"/><polygon fill="#181818" points="296.13,716.9994,300.13,707.9994,296.13,711.9994,292.13,707.9994,296.13,716.9994" style="stroke:#181818;stroke-width:1;stroke-linejoin:miter;stroke-miterlimit:10;"/><text fill="#000000" font-family="sans-serif" font-size="13" lengthAdjust="spacing" textLength="81.6626" x="214.13" y="682.4145">Metadata Link</text></g><!--link EncryptedStorage to Neo4j--><g class="link" data-entity-1="ent0018" data-entity-2="ent0016" data-link-type="dependency" data-source-line="62" id="lnk39"><path d="M228.13,654.9394 C228.13,695.1094 228.13,764.6094 228.13,764.6094 C228.13,764.6094 227.63,764.6094 219.38,764.6094" fill="none" id="EncryptedStorage-to-Neo4j" style="stroke:#181818;stroke-width:1;"/><polygon fill="#181818" points="214.38,764.6094,223.38,768.6094,219.38,764.6094,223.38,760.6094,214.38,764.6094" style="stroke:#181818;stroke-width:1;stroke-linejoin:miter;stroke-miterlimit:10;"/><text fill="#000000" font-family="sans-serif" font-size="13" lengthAdjust="spacing" textLength="63.5908" x="164.13" y="713.1445">Graph Link</text></g><!--link Auth to OAuth--><g class="link" data-entity-1="ent0007" data-entity-2="ent0021" data-link-type="dependency" data-source-line="64" id="lnk40"><path d="M974.71,488.6094 C1107.81,488.6094 1361.13,488.6094 1361.13,488.6094 C1361.13,488.6094 1361.13,677.0294 1361.13,739.7394" fill="none" id="Auth-to-OAuth" style="stroke:#181818;stroke-width:1;"/><polygon fill="#181818" points="1361.13,744.7394,1365.13,735.7394,1361.13,739.7394,1357.13,735.7394,1361.13,744.7394" style="stroke:#181818;stroke-width:1;stroke-linejoin:miter;stroke-miterlimit:10;"/><text fill="#000000" font-family="sans-serif" font-size="13" lengthAdjust="spacing" textLength="151.7344" x="1143.99" y="485.1045">Two-Factor Authentication</text></g><!--link Backend to Protocols--><g class="link" data-entity-1="ent0004" data-entity-2="ent0022" data-link-type="dependency" data-source-line="65" id="lnk41"><path d="M999.13,533.115 C999.13,533.8353 999.13,534.5558 999.13,535.2765 C999.13,536.7177 999.13,538.1594 999.13,539.6013 C999.13,542.4851 999.13,545.3695 999.13,548.2519 C999.13,640.4869 999.13,730.6094 999.13,730.6094 C999.13,730.6094 1306.12,730.6094 1463.94,730.6094" fill="none" id="Backend-to-Protocols" style="stroke:#181818;stroke-width:1;"/><polygon fill="#181818" points="1468.94,730.6094,1459.94,726.6094,1463.94,730.6094,1459.94,734.6094,1468.94,730.6094" style="stroke:#181818;stroke-width:1;stroke-linejoin:miter;stroke-miterlimit:10;"/><text fill="#000000" font-family="sans-serif" font-size="13" lengthAdjust="spacing" textLength="141.6162" x="903.34" y="727.1045">External Communication</text></g><!--link Algorithm to PythonLib--><g class="link" data-entity-1="ent0010" data-entity-2="ent0020" data-link-type="dependency" data-source-line="66" id="lnk42"><path d="M1060.4789,608.6094 C1061.1947,608.6094 1061.9078,608.6094 1062.6179,608.6094 C1064.0383,608.6094 1065.4472,608.6094 1066.8443,608.6094 C1072.4328,608.6094 1077.8324,608.6094 1083.0159,608.6094 C1124.4844,608.6094 1152.13,608.6094 1152.13,608.6094 C1152.13,608.6094 1152.13,698.5194 1152.13,740.0394" fill="none" id="Algorithm-to-PythonLib" style="stroke:#181818;stroke-width:1;"/><polygon fill="#181818" points="1152.13,745.0394,1156.13,736.0394,1152.13,740.0394,1148.13,736.0394,1152.13,745.0394" style="stroke:#181818;stroke-width:1;stroke-linejoin:miter;stroke-miterlimit:10;"/><text fill="#000000" font-family="sans-serif" font-size="13" lengthAdjust="spacing" textLength="95.3608" x="894.04" y="605.1045">Utilizes Libraries</text></g><!--link GMN43 to Browser--><g class="link" data-entity-1="ent0044" data-entity-2="ent0001" data-link-type="association" data-source-line="70" id="lnk45"><path d="M921.13,119.7994 C921.13,124.0944 921.13,128.5748 921.13,133.1383 C921.13,135.4201 921.13,137.7226 921.13,140.033 C921.13,141.1883 921.13,142.3455 921.13,143.5031" fill="none" id="GMN43-Browser" style="stroke:#181818;stroke-width:1;stroke-dasharray:7,7;"/></g><!--link External to GMN46--><g class="link" data-entity-1="ent0019" data-entity-2="ent0047" data-link-type="association" data-source-line="77" id="lnk48"><path d="M1107.13,829.6094 C1107.13,829.6094 1807.13,829.6094 1807.13,829.6094 C1807.13,829.6094 1807.13,816.3894 1807.13,801.8294" fill="none" id="External-GMN46" style="stroke:#181818;stroke-width:1;stroke-dasharray:7,7;"/></g><?plantuml-src RLPBS-964BxhLtHy2RZioF7cHBbSXG4xfB2N8DXDLPp38DemyMX6cHdXnLlvx-aUFK1oBg3f_hhLhwz7FspmHMg4nMIq73uzp2QGAk5Sv5wbpeKL6QGcour6xHD_K0WMKo_qLk49H947VyWHZFKxSwBGPeCESxY-EX5QeLzP-EagYhpqvFEHO0ecUwCABus6BsWT_pyABRQOqRlXYtI5KF9T1C3I60MNa1oSnmo6Djr9Jt4L5gEe2H3Epiz7IhBrdJLl3ktv-Ha8Lv_WUmHmWlwAQrXD0s8rRQj-4tkHf5Rc7cAujqPxr1jw41c-6ViQR6fnz6yd1lQReDtJ6sEu4-ahWUf8obCtaiKaMS9mFYNyY9nQenHL95YGj8szAnnLtpcOcQrCOIOEQ4lViraREIpyZeeXqxA6799CiVHAgZQuRCdScfHyIxrjmOEITMsROmCVhCXtBPCWgGGVAZHKMsEbtsMG57bEGyHlA1HMLJggEtNw_FJq1yo5TLNAV2wFRTpyi3Gq8p3KGXtUAt0bh6LjYwN9ZJBR0poWHYkyAMrgCKaxRq3xOcmcT8eqnq8LZGbhMF8XwR7mOYqSkYhByLr8RrE9uUm9pIz_F-iR9zznyFFLxP-T-hgBPntQ3Gii7Fvr4pFoDZWBjYrlZuVazzcfjnMLoLrmV9bqJ3VsLxRz4RrWIn9mb0wzQtaFlZgzrwazv1uta53cnDfdtHjEadWyIVh1fW5K-W_rc7ppQAaPC2KQsHUHDfLfDD-xRQLjes4crrPOYQvgAmj9rXaL7d6u_kcAE7LzF-J9tijDFJVL_AVA51iu2m7GHcEGDwbHZfBvTRcSn_oJNC1oD8-dSwhE_N9-0SaZ_wx6ypBHneWp_949h2aChczKBvxBozk6-WCuUeRUQahD_AT0vrq_QXODutaT3A3P32EXw0qHFmPlinbfnwXmApownad4Yc3EwG_WP0SWLOAFHArtR70DjGbSiR-K7LsTKfbGvP8-RkyeEle8RsxOEw3MxiqhXHT8vwIBMhwww3g9zlAdf1iCMnn9po7p0znBXQu3wz2TQr4-KeSss06Vy9o0rGx0YdPTnnN12KXDIGl5I6AGbIargAahKuOXYzMOsbnoh-PPlu45tZQmSeqkK8N4tKxcD1NjwdPfHRRyXF628y1zTRaww76TBaAo_UY3rMc8TLH4BFtw_z0wp3B0W8l2X8M6LBEsV3ENzo8bCsXVFL4z-w5yDLt8eY7wo6HPeMjujv4LmSbWvIMD1GrKimEOSbnTM1YQ0UWH8RKXHlGZ_WDlSZ0lzHS0KVvcVNk43sxYzIq9PoY8_nPw9IvEw9pk-gG9rx5S5vnKRvKh8pRnP2CzwuQRJ6hfVBWke5Vn8hIw7t6w745Knc7bTkSvaZhbCXHop_PI-oQMkpXfV-1G4DOuTpcdgU0x1tfVfOupaNvEOkf4yOrZMSwIUZJulkZDHrCO9yb97Fy1?></g></svg>