<svg xmlns="http://www.w3.org/2000/svg" xmlns:xlink="http://www.w3.org/1999/xlink" contentStyleType="text/css" data-diagram-type="DESCRIPTION" height="1164px" preserveAspectRatio="none" style="width:3085px;height:1164px;background:#F0F0F0;" version="1.1" viewBox="0 0 3085 1164" width="3085px" zoomAndPan="magnify"><?plantuml 1.2026.6?><defs/><g><rect fill="#F0F0F0" height="1164" style="stroke:none;stroke-width:1;" width="3085" x="0" y="0"/><g class="title" data-source-line="10"><text fill="#000000" font-family="sans-serif" font-size="14" font-weight="700" lengthAdjust="spacing" textLength="198.3926" x="1439.9114" y="24.5332">MyTorch System Architecture</text></g><!--cluster User Layer--><g class="cluster" data-qualified-name="User Layer" data-source-line="12" id="ent0001"><path d="M538.5,44.6094 L611.8789,44.6094 A3.75,3.75 0 0 1 614.3789,47.1094 L621.3789,68.2188 L1137.5,68.2188 A2.5,2.5 0 0 1 1140,70.7188 L1140,132.1094 A2.5,2.5 0 0 1 1137.5,134.6094 L538.5,134.6094 A2.5,2.5 0 0 1 536,132.1094 L536,47.1094 A2.5,2.5 0 0 1 538.5,44.6094" fill="none" style="stroke:#000000;stroke-width:1.5;"/><line style="stroke:#000000;stroke-width:1.5;" x1="536" x2="621.3789" y1="68.2188" y2="68.2188"/><text fill="#000000" font-family="sans-serif" font-size="14" font-weight="700" lengthAdjust="spacing" textLength="72.3789" x="540" y="61.1426">User Layer</text></g><!--cluster Presentation Layer--><g class="cluster" data-qualified-name="Presentation Layer" data-source-line="18" id="ent0005"><path d="M300.5,184.6094 L427.5479,184.6094 A3.75,3.75 0 0 1 430.0479,187.1094 L437.0479,208.2188 L898.5,208.2188 A2.5,2.5 0 0 1 901,210.7188 L901,570.1094 A2.5,2.5 0 0 1 898.5,572.6094 L300.5,572.6094 A2.5,2.5 0 0 1 298,570.1094 L298,187.1094 A2.5,2.5 0 0 1 300.5,184.6094" fill="none" style="stroke:#000000;stroke-width:1.5;"/><line style="stroke:#000000;stroke-width:1.5;" x1="298" x2="437.0479" y1="208.2188" y2="208.2188"/><text fill="#000000" font-family="sans-serif" font-size="14" font-weight="700" lengthAdjust="spacing" textLength="126.0479" x="302" y="201.1426">Presentation Layer</text></g><!--cluster Frontend--><g class="cluster" data-qualified-name="Presentation Layer.Frontend" data-source-line="19" id="ent0006"><rect fill="#FFFFFF" height="304" rx="2.5" ry="2.5" style="stroke:#333333;stroke-width:1;" width="539" x="330" y="236.6094"/><text fill="#000000" font-family="sans-serif" font-size="14" font-weight="700" lengthAdjust="spacing" textLength="78.5449" x="560.2275" y="253.1426">Frontend UI</text></g><!--cluster Application Layer--><g class="cluster" data-qualified-name="Application Layer" data-source-line="28" id="ent0012"><path d="M1007.5,382.6094 L1125.9688,382.6094 A3.75,3.75 0 0 1 1128.4688,385.1094 L1135.4688,406.2188 L1470.5,406.2188 A2.5,2.5 0 0 1 1473,408.7188 L1473,810.1094 A2.5,2.5 0 0 1 1470.5,812.6094 L1007.5,812.6094 A2.5,2.5 0 0 1 1005,810.1094 L1005,385.1094 A2.5,2.5 0 0 1 1007.5,382.6094" fill="none" style="stroke:#000000;stroke-width:1.5;"/><line style="stroke:#000000;stroke-width:1.5;" x1="1005" x2="1135.4688" y1="406.2188" y2="406.2188"/><text fill="#000000" font-family="sans-serif" font-size="14" font-weight="700" lengthAdjust="spacing" textLength="117.4688" x="1009" y="399.1426">Application Layer</text></g><!--cluster Backend--><g class="cluster" data-qualified-name="Application Layer.Backend" data-source-line="29" id="ent0013"><rect fill="#FFFFFF" height="346" rx="2.5" ry="2.5" style="stroke:#333333;stroke-width:1;" width="404" x="1037" y="434.6094"/><text fill="#000000" font-family="sans-serif" font-size="14" font-weight="700" lengthAdjust="spacing" textLength="112.0684" x="1182.9658" y="451.1426">Backend Service</text></g><!--cluster Framework Layer--><g class="cluster" data-qualified-name="Framework Layer" data-source-line="37" id="ent0018"><path d="M8.5,622.6094 L125.4443,622.6094 A3.75,3.75 0 0 1 127.9443,625.1094 L134.9443,646.2188 L945.5,646.2188 A2.5,2.5 0 0 1 948,648.7188 L948,1006.1094 A2.5,2.5 0 0 1 945.5,1008.6094 L8.5,1008.6094 A2.5,2.5 0 0 1 6,1006.1094 L6,625.1094 A2.5,2.5 0 0 1 8.5,622.6094" fill="none" style="stroke:#000000;stroke-width:1.5;"/><line style="stroke:#000000;stroke-width:1.5;" x1="6" x2="134.9443" y1="646.2188" y2="646.2188"/><text fill="#000000" font-family="sans-serif" font-size="14" font-weight="700" lengthAdjust="spacing" textLength="115.9443" x="10" y="639.1426">Framework Layer</text></g><!--cluster MyTorch--><g class="cluster" data-qualified-name="Framework Layer.MyTorch" data-source-line="38" id="ent0019"><rect fill="#FFFFFF" height="302" rx="2.5" ry="2.5" style="stroke:#333333;stroke-width:1;" width="878" x="38" y="674.6094"/><text fill="#000000" font-family="sans-serif" font-size="14" font-weight="700" lengthAdjust="spacing" textLength="170.3721" x="391.814" y="691.1426">MyTorch/NNE Framework</text></g><!--cluster Data Layer--><g class="cluster" data-qualified-name="Data Layer" data-source-line="47" id="ent0025"><path d="M1499.5,622.6094 L1572.0928,622.6094 A3.75,3.75 0 0 1 1574.5928,625.1094 L1581.5928,646.2188 L2393.5,646.2188 A2.5,2.5 0 0 1 2396,648.7188 L2396,1147.1094 A2.5,2.5 0 0 1 2393.5,1149.6094 L1499.5,1149.6094 A2.5,2.5 0 0 1 1497,1147.1094 L1497,625.1094 A2.5,2.5 0 0 1 1499.5,622.6094" fill="none" style="stroke:#000000;stroke-width:1.5;"/><line style="stroke:#000000;stroke-width:1.5;" x1="1497" x2="1581.5928" y1="646.2188" y2="646.2188"/><text fill="#000000" font-family="sans-serif" font-size="14" font-weight="700" lengthAdjust="spacing" textLength="71.5928" x="1501" y="639.1426">Data Layer</text></g><!--cluster Database--><g class="cluster" data-qualified-name="Data Layer.Database" data-source-line="48" id="ent0026"><rect fill="#FFFFFF" height="302" rx="2.5" ry="2.5" style="stroke:#333333;stroke-width:1;" width="499" x="1529" y="674.6094"/><text fill="#000000" font-family="sans-serif" font-size="14" font-weight="700" lengthAdjust="spacing" textLength="111.2617" x="1722.8691" y="691.1426">SQLite Database</text></g><!--cluster Filesystem--><g class="cluster" data-qualified-name="Data Layer.Filesystem" data-source-line="55" id="ent0032"><rect fill="#FFFFFF" height="247" rx="2.5" ry="2.5" style="stroke:#333333;stroke-width:1;" width="296" x="2068" y="870.6094"/><text fill="#000000" font-family="sans-serif" font-size="14" font-weight="700" lengthAdjust="spacing" textLength="118.2686" x="2156.8657" y="887.1426">Local File System</text></g><!--entity User--><g class="entity" data-qualified-name="User Layer.User" data-source-line="13" id="ent0002"><rect fill="#FFFFFF" height="37.6094" rx="2.5" ry="2.5" style="stroke:#333333;stroke-width:0.5;" width="171.7783" x="775" y="80.6094"/><text fill="#000000" font-family="sans-serif" font-size="14" lengthAdjust="spacing" textLength="151.7783" x="785" y="105.1426">Deep Learning Beginner</text></g><!--entity Developer--><g class="entity" data-qualified-name="User Layer.Developer" data-source-line="14" id="ent0003"><rect fill="#FFFFFF" height="37.6094" rx="2.5" ry="2.5" style="stroke:#333333;stroke-width:0.5;" width="186.5029" x="552.5" y="80.6094"/><text fill="#000000" font-family="sans-serif" font-size="14" lengthAdjust="spacing" textLength="166.5029" x="562.5" y="105.1426">Developer / Team Member</text></g><!--entity Stakeholder--><g class="entity" data-qualified-name="User Layer.Stakeholder" data-source-line="15" id="ent0004"><rect fill="#FFFFFF" height="37.6094" rx="2.5" ry="2.5" style="stroke:#333333;stroke-width:0.5;" width="142.1787" x="982" y="80.6094"/><text fill="#000000" font-family="sans-serif" font-size="14" lengthAdjust="spacing" textLength="122.1787" x="992" y="105.1426">Project Stakeholder</text></g><!--entity Main Interface--><g class="entity" data-qualified-name="Presentation Layer.Frontend.Main Interface" data-source-line="20" id="ent0007"><rect fill="#FFFFFF" height="37.6094" rx="2.5" ry="2.5" style="stroke:#333333;stroke-width:0.5;" width="108.71" x="354.5" y="280.6094"/><text fill="#000000" font-family="sans-serif" font-size="14" lengthAdjust="spacing" textLength="88.71" x="364.5" y="305.1426">Main Interface</text></g><!--entity Configuration Interface--><g class="entity" data-qualified-name="Presentation Layer.Frontend.Configuration Interface" data-source-line="21" id="ent0008"><rect fill="#FFFFFF" height="37.6094" rx="2.5" ry="2.5" style="stroke:#333333;stroke-width:0.5;" width="161.6406" x="499" y="280.6094"/><text fill="#000000" font-family="sans-serif" font-size="14" lengthAdjust="spacing" textLength="141.6406" x="509" y="305.1426">Configuration Interface</text></g><!--entity Training Interface--><g class="entity" data-qualified-name="Presentation Layer.Frontend.Training Interface" data-source-line="22" id="ent0009"><rect fill="#FFFFFF" height="37.6094" rx="2.5" ry="2.5" style="stroke:#333333;stroke-width:0.5;" width="128.9443" x="696.5" y="280.6094"/><text fill="#000000" font-family="sans-serif" font-size="14" lengthAdjust="spacing" textLength="108.9443" x="706.5" y="305.1426">Training Interface</text></g><!--entity Inference Interface--><g class="entity" data-qualified-name="Presentation Layer.Frontend.Inference Interface" data-source-line="23" id="ent0010"><rect fill="#FFFFFF" height="37.6094" rx="2.5" ry="2.5" style="stroke:#333333;stroke-width:0.5;" width="136.7373" x="354.5" y="478.6094"/><text fill="#000000" font-family="sans-serif" font-size="14" lengthAdjust="spacing" textLength="116.7373" x="364.5" y="503.1426">Inference Interface</text></g><!--entity Guidance & Help--><g class="entity" data-qualified-name="Presentation Layer.Frontend.Guidance . Help" data-source-line="24" id="ent0011"><rect fill="#FFFFFF" height="37.6094" rx="2.5" ry="2.5" style="stroke:#333333;stroke-width:0.5;" width="125.8408" x="527" y="478.6094"/><text fill="#000000" font-family="sans-serif" font-size="14" lengthAdjust="spacing" textLength="105.8408" x="537" y="503.1426">Guidance &amp; Help</text></g><!--entity Model Initialization API--><g class="entity" data-qualified-name="Application Layer.Backend.Model Initialization API" data-source-line="30" id="ent0014"><rect fill="#FFFFFF" height="37.6094" rx="2.5" ry="2.5" style="stroke:#333333;stroke-width:0.5;" width="161.627" x="1080" y="478.6094"/><text fill="#000000" font-family="sans-serif" font-size="14" lengthAdjust="spacing" textLength="141.627" x="1090" y="503.1426">Model Initialization API</text></g><!--entity Model Training API--><g class="entity" data-qualified-name="Application Layer.Backend.Model Training API" data-source-line="31" id="ent0015"><rect fill="#FFFFFF" height="37.6094" rx="2.5" ry="2.5" style="stroke:#333333;stroke-width:0.5;" width="139.0547" x="1277.5" y="478.6094"/><text fill="#000000" font-family="sans-serif" font-size="14" lengthAdjust="spacing" textLength="119.0547" x="1287.5" y="503.1426">Model Training API</text></g><!--entity Task Inference API--><g class="entity" data-qualified-name="Application Layer.Backend.Task Inference API" data-source-line="32" id="ent0016"><rect fill="#FFFFFF" height="37.6094" rx="2.5" ry="2.5" style="stroke:#333333;stroke-width:0.5;" width="139.0547" x="1072.5" y="718.6094"/><text fill="#000000" font-family="sans-serif" font-size="14" lengthAdjust="spacing" textLength="119.0547" x="1082.5" y="743.1426">Task Inference API</text></g><!--entity Model Management API--><g class="entity" data-qualified-name="Application Layer.Backend.Model Management API" data-source-line="33" id="ent0017"><rect fill="#FFFFFF" height="37.6094" rx="2.5" ry="2.5" style="stroke:#333333;stroke-width:0.5;" width="170.1924" x="1247" y="718.6094"/><text fill="#000000" font-family="sans-serif" font-size="14" lengthAdjust="spacing" textLength="150.1924" x="1257" y="743.1426">Model Management API</text></g><!--entity Framework Core--><g class="entity" data-qualified-name="Framework Layer.MyTorch.Framework Core" data-source-line="39" id="ent0020"><rect fill="#FFFFFF" height="37.6094" rx="2.5" ry="2.5" style="stroke:#333333;stroke-width:0.5;" width="124.2412" x="393" y="914.6094"/><text fill="#000000" font-family="sans-serif" font-size="14" lengthAdjust="spacing" textLength="104.2412" x="403" y="939.1426">Framework Core</text></g><!--entity GPU Acceleration Module--><g class="entity" data-qualified-name="Framework Layer.MyTorch.GPU Acceleration Module" data-source-line="40" id="ent0021"><rect fill="#FFFFFF" height="37.6094" rx="2.5" ry="2.5" style="stroke:#333333;stroke-width:0.5;" width="181.0752" x="691.5" y="718.6094"/><text fill="#000000" font-family="sans-serif" font-size="14" lengthAdjust="spacing" textLength="161.0752" x="701.5" y="743.1426">GPU Acceleration Module</text></g><!--entity Weight Initialization Module--><g class="entity" data-qualified-name="Framework Layer.MyTorch.Weight Initialization Module" data-source-line="41" id="ent0022"><rect fill="#FFFFFF" height="37.6094" rx="2.5" ry="2.5" style="stroke:#333333;stroke-width:0.5;" width="190.4199" x="466" y="718.6094"/><text fill="#000000" font-family="sans-serif" font-size="14" lengthAdjust="spacing" textLength="170.4199" x="476" y="743.1426">Weight Initialization Module</text></g><!--entity Classic Models Module--><g class="entity" data-qualified-name="Framework Layer.MyTorch.Classic Models Module" data-source-line="42" id="ent0023"><rect fill="#FFFFFF" height="37.6094" rx="2.5" ry="2.5" style="stroke:#333333;stroke-width:0.5;" width="163.9443" x="267" y="718.6094"/><text fill="#000000" font-family="sans-serif" font-size="14" lengthAdjust="spacing" textLength="143.9443" x="277" y="743.1426">Classic Models Module</text></g><!--entity Preset Datasets Module--><g class="entity" data-qualified-name="Framework Layer.MyTorch.Preset Datasets Module" data-source-line="43" id="ent0024"><rect fill="#FFFFFF" height="37.6094" rx="2.5" ry="2.5" style="stroke:#333333;stroke-width:0.5;" width="169.4063" x="62.5" y="718.6094"/><text fill="#000000" font-family="sans-serif" font-size="14" lengthAdjust="spacing" textLength="149.4063" x="72.5" y="743.1426">Preset Datasets Module</text></g><!--entity Models Storage--><g class="entity" data-qualified-name="Data Layer.Database.Models Storage" data-source-line="49" id="ent0027"><rect fill="#FFFFFF" height="37.6094" rx="2.5" ry="2.5" style="stroke:#333333;stroke-width:0.5;" width="118.0547" x="1553" y="718.6094"/><text fill="#000000" font-family="sans-serif" font-size="14" lengthAdjust="spacing" textLength="98.0547" x="1563" y="743.1426">Models Storage</text></g><!--entity Datasets Metadata--><g class="entity" data-qualified-name="Data Layer.Database.Datasets Metadata" data-source-line="50" id="ent0028"><rect fill="#FFFFFF" height="37.6094" rx="2.5" ry="2.5" style="stroke:#333333;stroke-width:0.5;" width="137.5098" x="1706" y="718.6094"/><text fill="#000000" font-family="sans-serif" font-size="14" lengthAdjust="spacing" textLength="117.5098" x="1716" y="743.1426">Datasets Metadata</text></g><!--entity Training Logs--><g class="entity" data-qualified-name="Data Layer.Database.Training Logs" data-source-line="51" id="ent0029"><rect fill="#FFFFFF" height="37.6094" rx="2.5" ry="2.5" style="stroke:#333333;stroke-width:0.5;" width="104.8271" x="1879.5" y="718.6094"/><text fill="#000000" font-family="sans-serif" font-size="14" lengthAdjust="spacing" textLength="84.8271" x="1889.5" y="743.1426">Training Logs</text></g><!--entity Inference Logs--><g class="entity" data-qualified-name="Data Layer.Database.Inference Logs" data-source-line="52" id="ent0030"><rect fill="#FFFFFF" height="37.6094" rx="2.5" ry="2.5" style="stroke:#333333;stroke-width:0.5;" width="112.6201" x="1555.5" y="914.6094"/><text fill="#000000" font-family="sans-serif" font-size="14" lengthAdjust="spacing" textLength="92.6201" x="1565.5" y="939.1426">Inference Logs</text></g><!--entity Backup & Recovery--><g class="entity" data-qualified-name="Data Layer.Database.Backup . Recovery" data-source-line="53" id="ent0031"><rect fill="#FFFFFF" height="37.6094" rx="2.5" ry="2.5" style="stroke:#333333;stroke-width:0.5;" width="142.9443" x="1703.5" y="914.6094"/><text fill="#000000" font-family="sans-serif" font-size="14" lengthAdjust="spacing" textLength="122.9443" x="1713.5" y="939.1426">Backup &amp; Recovery</text></g><!--entity Model Files--><g class="entity" data-qualified-name="Data Layer.Filesystem.Model Files" data-source-line="56" id="ent0033"><rect fill="#FFFFFF" height="37.6094" rx="2.5" ry="2.5" style="stroke:#333333;stroke-width:0.5;" width="91.5791" x="2111" y="914.6094"/><text fill="#000000" font-family="sans-serif" font-size="14" lengthAdjust="spacing" textLength="71.5791" x="2121" y="939.1426">Model Files</text></g><!--entity Dataset Files--><g class="entity" data-qualified-name="Data Layer.Filesystem.Dataset Files" data-source-line="57" id="ent0034"><rect fill="#FFFFFF" height="37.6094" rx="2.5" ry="2.5" style="stroke:#333333;stroke-width:0.5;" width="101.6963" x="2238" y="914.6094"/><text fill="#000000" font-family="sans-serif" font-size="14" lengthAdjust="spacing" textLength="81.6963" x="2248" y="939.1426">Dataset Files</text></g><!--entity Backup Files--><g class="entity" data-qualified-name="Data Layer.Filesystem.Backup Files" data-source-line="58" id="ent0035"><rect fill="#FFFFFF" height="37.6094" rx="2.5" ry="2.5" style="stroke:#333333;stroke-width:0.5;" width="100.1445" x="2111" y="1055.6094"/><text fill="#000000" font-family="sans-serif" font-size="14" lengthAdjust="spacing" textLength="80.1445" x="2121" y="1080.1426">Backup Files</text></g><!--entity GPU Hardware--><g class="entity" data-qualified-name="GPU Hardware" data-source-line="91" id="ent0054"><rect fill="#FFFFFF" height="37.6094" rx="2.5" ry="2.5" style="stroke:#333333;stroke-width:0.5;" width="114.917" x="964.5" y="914.6094"/><text fill="#000000" font-family="sans-serif" font-size="14" lengthAdjust="spacing" textLength="94.917" x="974.5" y="939.1426">GPU Hardware</text></g><g class="entity" data-qualified-name="GMN56" data-source-line="94" id="ent0057"><path d="M2412,691.6094 L2412,783.3672 L2698.1035,783.3672 L2698.1035,701.6094 L2688.1035,691.6094 L2412,691.6094" fill="#FEFFDD" style="stroke:#181818;stroke-width:0.5;"/><path d="M2688.1035,691.6094 L2688.1035,701.6094 L2698.1035,701.6094 L2688.1035,691.6094" fill="#FEFFDD" style="stroke:#181818;stroke-width:1;"/><text fill="#000000" font-family="sans-serif" font-size="13" lengthAdjust="spacing" textLength="135.8208" x="2418" y="710.1045">Framework Extensions:</text><text fill="#000000" font-family="sans-serif" font-size="13" lengthAdjust="spacing" textLength="140.8862" x="2418" y="726.4561">- GPU acceleration APIs</text><text fill="#000000" font-family="sans-serif" font-size="13" lengthAdjust="spacing" textLength="220.3525" x="2418" y="742.8076">- Weight initialization (He, Xavier, etc.)</text><text fill="#000000" font-family="sans-serif" font-size="13" lengthAdjust="spacing" textLength="265.1035" x="2418" y="759.1592">- Classic models (ResNet, VGG, Transformer)</text><text fill="#000000" font-family="sans-serif" font-size="13" lengthAdjust="spacing" textLength="241.2998" x="2418" y="775.5107">- Preset datasets (CIFAR, ImageNet, etc.)</text></g><g class="entity" data-qualified-name="GMN59" data-source-line="102" id="ent0060"><path d="M2733,683.6094 L2733,791.7188 L2897.0444,791.7188 L2897.0444,693.6094 L2887.0444,683.6094 L2733,683.6094" fill="#FEFFDD" style="stroke:#181818;stroke-width:0.5;"/><path d="M2887.0444,683.6094 L2887.0444,693.6094 L2897.0444,693.6094 L2887.0444,683.6094" fill="#FEFFDD" style="stroke:#181818;stroke-width:1;"/><text fill="#000000" font-family="sans-serif" font-size="13" lengthAdjust="spacing" textLength="112.0044" x="2739" y="702.1045">Persistence Scope:</text><text fill="#000000" font-family="sans-serif" font-size="13" lengthAdjust="spacing" textLength="127.8989" x="2739" y="718.4561">- Model configurations</text><text fill="#000000" font-family="sans-serif" font-size="13" lengthAdjust="spacing" textLength="143.0444" x="2739" y="734.8076">- Training tasks &amp; results</text><text fill="#000000" font-family="sans-serif" font-size="13" lengthAdjust="spacing" textLength="89.6035" x="2739" y="751.1592">- Inference logs</text><text fill="#000000" font-family="sans-serif" font-size="13" lengthAdjust="spacing" textLength="127.8608" x="2739" y="767.5107">- Performance metrics</text><text fill="#000000" font-family="sans-serif" font-size="13" lengthAdjust="spacing" textLength="83.7891" x="2739" y="783.8623">- Error records</text></g><g class="entity" data-qualified-name="GMN62" data-source-line="111" id="ent0063"><path d="M1489,443.6094 L1489,551.7188 L1638.6226,551.7188 L1638.6226,453.6094 L1628.6226,443.6094 L1489,443.6094" fill="#FEFFDD" style="stroke:#181818;stroke-width:0.5;"/><path d="M1628.6226,443.6094 L1628.6226,453.6094 L1638.6226,453.6094 L1628.6226,443.6094" fill="#FEFFDD" style="stroke:#181818;stroke-width:1;"/><text fill="#000000" font-family="sans-serif" font-size="13" lengthAdjust="spacing" textLength="107.6563" x="1495" y="462.1045">Service Interfaces:</text><text fill="#000000" font-family="sans-serif" font-size="13" lengthAdjust="spacing" textLength="114.1626" x="1495" y="478.4561">- Model initialization</text><text fill="#000000" font-family="sans-serif" font-size="13" lengthAdjust="spacing" textLength="114.1689" x="1495" y="494.8076">- Training execution</text><text fill="#000000" font-family="sans-serif" font-size="13" lengthAdjust="spacing" textLength="128.6226" x="1495" y="511.1592">- Inference processing</text><text fill="#000000" font-family="sans-serif" font-size="13" lengthAdjust="spacing" textLength="122.8398" x="1495" y="527.5107">- Model management</text><text fill="#000000" font-family="sans-serif" font-size="13" lengthAdjust="spacing" textLength="127.8862" x="1495" y="543.8623">- Resource monitoring</text></g><!--link User to Frontend--><g class="link" data-entity-1="ent0002" data-entity-2="ent0006" data-link-type="dependency" data-source-line="63" id="lnk36"><path d="M861,118.8794 C861,143.0044 861,186.9219 861,225.3044 C861,227.7033 861,230.0806 861,232.43 C861,233.6048 861,229.7726 861,230.9326" fill="none" id="User-to-Frontend" style="stroke:#333333;stroke-width:1;"/><polygon fill="#333333" points="861,235.9326,865,226.9326,861,230.9326,857,226.9326,861,235.9326" style="stroke:#333333;stroke-width:1;stroke-linejoin:miter;stroke-miterlimit:10;"/><text fill="#000000" font-family="sans-serif" font-size="13" lengthAdjust="spacing" textLength="126.439" x="862" y="165.1045">Uses visual interfaces</text></g><!--link Developer to MyTorch--><g class="link" data-entity-1="ent0003" data-entity-2="ent0019" data-link-type="dependency" data-source-line="64" id="lnk37"><path d="M552.37,105.8494 C487.16,113.5194 400.95,132.0794 338,176.6094 C257.79,233.3494 201.37,271.2394 225,366.6094 C250.87,471.0094 251.02,517.3394 338,580.6094 C392.36,620.1494 420.09,600.1394 487,606.6094 C498.12,607.6794 880.59,607.2594 889,614.6094 C899.17,623.4944 905.485,635.395 909.2266,648.2889 C911.0973,654.7359 912.3248,661.4311 913.069,668.1219 C913.2551,669.7946 913.411,671.4671 913.5391,673.1352 C913.5712,673.5523 913.2587,668.9808 913.2873,669.3973" fill="none" id="Developer-to-MyTorch" style="stroke:#333333;stroke-width:1;"/><polygon fill="#333333" points="913.6301,674.3855,917.0036,665.1325,913.2873,669.3973,909.0225,665.681,913.6301,674.3855" style="stroke:#333333;stroke-width:1;stroke-linejoin:miter;stroke-miterlimit:10;"/><text fill="#000000" font-family="sans-serif" font-size="13" lengthAdjust="spacing" textLength="111.2617" x="226" y="363.1045">Extends framework</text></g><!--link Stakeholder to Backend--><g class="link" data-entity-1="ent0004" data-entity-2="ent0013" data-link-type="dependency" data-source-line="65" id="lnk38"><path d="M1080.87,118.6494 C1147.73,163.9694 1306.06,284.8394 1228,366.6094 C1214.79,380.4494 1069.82,361.3794 1056,374.6094 C1036.645,393.1394 1033.6775,422.9844 1035.655,448.5169 C1035.9022,451.7084 1036.2266,454.8326 1036.606,457.8589 C1036.7009,458.6155 1036.7991,459.3659 1036.9005,460.1098 C1036.9258,460.2957 1036.2633,455.5288 1036.2891,455.714" fill="none" id="Stakeholder-to-Backend" style="stroke:#333333;stroke-width:1;"/><polygon fill="#333333" points="1036.9771,460.6664,1039.7006,451.2016,1036.2891,455.714,1031.7767,452.3024,1036.9771,460.6664" style="stroke:#333333;stroke-width:1;stroke-linejoin:miter;stroke-miterlimit:10;"/><text fill="#000000" font-family="sans-serif" font-size="13" lengthAdjust="spacing" textLength="104.0381" x="1250" y="305.1045">Monitors progress</text></g><!--link Frontend to Backend--><g class="link" data-entity-1="ent0006" data-entity-2="ent0013" data-link-type="dependency" data-source-line="68" id="lnk39"><path d="M869.1321,301.0334 C869.7809,301.0701 870.4649,301.1095 871.183,301.1516 C876.9275,301.4883 884.8495,301.9988 894.2902,302.7263 C913.1716,304.1813 938.1281,306.5044 963.8913,310.0419 C1015.4175,317.1169 1070.17,329.0494 1086,348.6094 C1091.03,354.8294 1090.87,360.2694 1086,366.6094 C1077.59,377.5494 1064.89,364.0594 1056,374.6094 C1047.3675,384.8569 1042.3175,397.4494 1039.6095,410.612 C1038.2555,417.1934 1037.4871,423.9172 1037.149,430.5618 C1036.98,433.8841 1036.9186,437.1865 1036.9455,440.4414 C1036.9522,441.2551 1036.9644,442.0659 1036.9818,442.8732 C1036.9862,443.075 1036.8666,438.2782 1036.8717,438.4796" fill="none" id="Frontend-to-Backend" style="stroke:#333333;stroke-width:1;"/><polygon fill="#333333" points="1036.9959,443.4781,1040.771,434.3815,1036.8717,438.4796,1032.7735,434.5802,1036.9959,443.4781" style="stroke:#333333;stroke-width:1;stroke-linejoin:miter;stroke-miterlimit:10;"/><text fill="#000000" font-family="sans-serif" font-size="13" lengthAdjust="spacing" textLength="129.2954" x="1090" y="363.1045">HTTP/REST API Calls</text></g><!--link Frontend to Backend--><g class="link" data-entity-1="ent0006" data-entity-2="ent0013" data-link-type="dependency" data-source-line="69" id="lnk40"><path d="M870.6244,352.3735 C870.9407,353.2609 870.1157,350.7478 870.456,351.6272 C871.1368,353.3862 871.8665,355.1261 872.6487,356.8346 C874.2131,360.2517 875.9875,363.5431 878,366.6094 C903.4,405.3144 944.2525,437.4119 979.1938,460.0294 C996.6644,471.3381 1012.6572,480.2769 1024.5017,486.4866 C1027.4629,488.039 1030.1647,489.4208 1032.5656,490.6265 C1033.766,491.2294 1034.8912,491.7882 1035.9359,492.3022 C1036.1971,492.4307 1031.9626,490.3578 1032.2136,490.4807" fill="none" id="Frontend-Backend" style="stroke:#333333;stroke-width:1;"/><polygon fill="#333333" points="869.0055,347.6429,868.135,357.4532,870.6244,352.3735,875.704,354.863,869.0055,347.6429" style="stroke:#333333;stroke-width:1;stroke-linejoin:miter;stroke-miterlimit:10;"/><polygon fill="#333333" points="1036.7043,492.6793,1030.38,485.1293,1032.2136,490.4807,1026.8622,492.3144,1036.7043,492.6793" style="stroke:#333333;stroke-width:1;stroke-linejoin:miter;stroke-miterlimit:10;"/><text fill="#000000" font-family="sans-serif" font-size="13" lengthAdjust="spacing" textLength="198.707" x="879" y="363.1045">Real-time feedback &amp; visualization</text></g><!--link Backend to MyTorch--><g class="link" data-entity-1="ent0013" data-entity-2="ent0019" data-link-type="dependency" data-source-line="72" id="lnk41"><path d="M1036.6859,503.2632 C1036.5614,503.3315 1036.4356,503.4004 1036.3086,503.47 C1035.292,504.0269 1034.1928,504.626 1033.0144,505.2641 C1030.6576,506.5404 1027.9842,507.973 1025.022,509.5375 C1013.1734,515.7956 996.7056,524.1644 977.4088,533.0794 C938.815,550.9094 888.905,570.9244 842,580.6094 C823.39,584.4494 513.28,575.0194 500,588.6094 C494.41,594.3294 494.4,600.8994 500,606.6094 C515.13,622.0494 872.73,600.3794 889,614.6094 C899.1675,623.4994 905.4813,635.4025 909.2223,648.2973 C911.0929,654.7448 912.3203,661.4401 913.0646,668.1307 C913.2507,669.8034 913.4066,671.4757 913.5348,673.1438 C913.5669,673.5609 913.2542,668.9894 913.2829,669.4058" fill="none" id="Backend-to-MyTorch" style="stroke:#333333;stroke-width:1;"/><polygon fill="#333333" points="913.6258,674.3941,916.9991,665.1409,913.2829,669.4058,909.0179,665.6896,913.6258,674.3941" style="stroke:#333333;stroke-width:1;stroke-linejoin:miter;stroke-miterlimit:10;"/><text fill="#000000" font-family="sans-serif" font-size="13" lengthAdjust="spacing" textLength="166.937" x="501" y="603.1045">Calls deep learning functions</text></g><!--link Backend to MyTorch--><g class="link" data-entity-1="ent0013" data-entity-2="ent0019" data-link-type="dependency" data-source-line="73" id="lnk42"><path d="M1036.6608,503.137 C1036.5359,503.2037 1036.4098,503.271 1036.2824,503.3389 C1035.2629,503.8825 1034.1606,504.4674 1032.979,505.0908 C1030.6158,506.3375 1027.9353,507.7379 1024.9658,509.2689 C1013.0878,515.3928 996.5856,523.605 977.2663,532.4181 C938.6275,550.0444 888.72,570.0744 842,580.6094 C827.45,583.8894 718.23,577.7494 708,588.6094 C702.51,594.4294 702.47,600.8294 708,606.6094 C721.92,621.1594 874,601.1794 889,614.6094 C899.06,623.6169 905.3194,635.5794 909.0395,648.497 C910.8996,654.9559 912.1249,661.6535 912.873,668.3399 C913.0601,670.0115 913.2173,671.6824 913.3471,673.3487 C913.3796,673.7653 913.0616,669.1938 913.0907,669.6097" fill="none" id="Backend-to-MyTorch-1" style="stroke:#333333;stroke-width:1;"/><polygon fill="#333333" points="913.4394,674.5975,916.8019,665.3404,913.0907,669.6097,908.8214,665.8984,913.4394,674.5975" style="stroke:#333333;stroke-width:1;stroke-linejoin:miter;stroke-miterlimit:10;"/><text fill="#000000" font-family="sans-serif" font-size="13" lengthAdjust="spacing" textLength="155.3525" x="709" y="603.1045">GPU acceleration requests</text></g><!--link Backend to MyTorch--><g class="link" data-entity-1="ent0013" data-entity-2="ent0019" data-link-type="dependency" data-source-line="74" id="lnk43"><path d="M1036.9257,501.3478 C1036.7046,501.4273 1036.4794,501.5086 1036.2503,501.5917 C1035.7922,501.7578 1035.3184,501.9309 1034.8295,502.1109 C1032.874,502.8313 1030.677,503.6635 1028.275,504.6084 C1018.6669,508.3881 1005.7775,513.9706 991.9325,521.4044 C964.2425,536.2719 932.73,558.5444 916,588.6094 C908.1175,602.7744 903.63,618.9306 901.3439,635.2402 C900.2009,643.3949 899.6082,651.588 899.4166,659.5897 C899.3208,663.5905 899.3254,667.5435 899.4115,671.4199 C899.4331,672.389 899.2958,668.356 899.3273,669.315" fill="none" id="Backend-to-MyTorch-2" style="stroke:#333333;stroke-width:1;"/><polygon fill="#333333" points="899.4912,674.3124,903.194,665.1861,899.3273,669.315,895.1983,665.4483,899.4912,674.3124" style="stroke:#333333;stroke-width:1;stroke-linejoin:miter;stroke-miterlimit:10;"/><text fill="#000000" font-family="sans-serif" font-size="13" lengthAdjust="spacing" textLength="138.7471" x="917" y="603.1045">Model training/inference</text></g><!--link GPU Acceleration Module to Framework Core--><g class="link" data-entity-1="ent0021" data-entity-2="ent0020" data-link-type="dependency" data-source-line="77" id="lnk44"><path d="M761.72,756.6394 C735.4,779.4594 687.44,819.1194 642,846.6094 C596.44,874.1694 545.2016,896.8957 506.4516,912.6557" fill="none" id="GPU Acceleration Module-to-Framework Core" style="stroke:#333333;stroke-width:1;"/><polygon fill="#333333" points="501.82,914.5394,511.6638,914.854,506.4516,912.6557,508.6499,907.4434,501.82,914.5394" style="stroke:#333333;stroke-width:1;stroke-linejoin:miter;stroke-miterlimit:10;"/><text fill="#000000" font-family="sans-serif" font-size="13" lengthAdjust="spacing" textLength="122.8716" x="667" y="843.1045">Enhanced operations</text></g><!--link Weight Initialization Module to Framework Core--><g class="link" data-entity-1="ent0022" data-entity-2="ent0020" data-link-type="dependency" data-source-line="78" id="lnk45"><path d="M551.03,756.8594 C530.77,793.9294 487.4377,873.2518 467.2677,910.1618" fill="none" id="Weight Initialization Module-to-Framework Core" style="stroke:#333333;stroke-width:1;"/><polygon fill="#333333" points="464.87,914.5494,472.6959,908.5698,467.2677,910.1618,465.6757,904.7335,464.87,914.5494" style="stroke:#333333;stroke-width:1;stroke-linejoin:miter;stroke-miterlimit:10;"/><text fill="#000000" font-family="sans-serif" font-size="13" lengthAdjust="spacing" textLength="121.3989" x="512" y="843.1045">Initialization methods</text></g><!--link Classic Models Module to Framework Core--><g class="link" data-entity-1="ent0023" data-entity-2="ent0020" data-link-type="dependency" data-source-line="79" id="lnk46"><path d="M355.89,756.6494 C364.48,778.4794 380.1,816.0994 397,846.6094 C410.52,871.0294 425.9827,893.3604 438.4027,910.3804" fill="none" id="Classic Models Module-to-Framework Core" style="stroke:#333333;stroke-width:1;"/><polygon fill="#333333" points="441.35,914.4194,439.2759,904.7914,438.4027,910.3804,432.8136,909.5071,441.35,914.4194" style="stroke:#333333;stroke-width:1;stroke-linejoin:miter;stroke-miterlimit:10;"/><text fill="#000000" font-family="sans-serif" font-size="13" lengthAdjust="spacing" textLength="97.5571" x="398" y="843.1045">Model definitions</text></g><!--link Preset Datasets Module to Framework Core--><g class="link" data-entity-1="ent0024" data-entity-2="ent0020" data-link-type="dependency" data-source-line="80" id="lnk47"><path d="M167.5,756.6794 C187.73,774.0794 219.92,800.6294 250,820.6094 C305.91,857.7394 370.7279,891.4534 412.7379,912.2234" fill="none" id="Preset Datasets Module-to-Framework Core" style="stroke:#333333;stroke-width:1;"/><polygon fill="#333333" points="417.22,914.4394,410.925,906.8649,412.7379,912.2234,407.3794,914.0363,417.22,914.4394" style="stroke:#333333;stroke-width:1;stroke-linejoin:miter;stroke-miterlimit:10;"/><text fill="#000000" font-family="sans-serif" font-size="13" lengthAdjust="spacing" textLength="72.998" x="288" y="843.1045">Data loading</text></g><!--link Backend to Database--><g class="link" data-entity-1="ent0013" data-entity-2="ent0026" data-link-type="dependency" data-source-line="83" id="lnk48"><path d="M1442.3011,601.4151 C1443.9694,601.3508 1445.6392,601.286 1447.3103,601.221 C1474.0483,600.1799 1501.1347,599.0511 1528.2225,597.9206 C1744.925,588.8769 1961.72,579.7294 2001,614.6094 C2011.0975,623.5769 2017.3756,635.5194 2021.1028,648.4295 C2022.9664,654.8846 2024.1923,661.5816 2024.9389,668.2696 C2025.1256,669.9416 2025.2823,671.613 2025.4116,673.28 C2025.4439,673.6967 2025.1279,669.1252 2025.1568,669.5413" fill="none" id="Backend-to-Database" style="stroke:#333333;stroke-width:1;"/><polygon fill="#333333" points="2025.5034,674.5293,2028.8699,665.2736,2025.1568,669.5413,2020.8891,665.8282,2025.5034,674.5293" style="stroke:#333333;stroke-width:1;stroke-linejoin:miter;stroke-miterlimit:10;"/><text fill="#000000" font-family="sans-serif" font-size="13" lengthAdjust="spacing" textLength="101.8735" x="1980" y="603.1045">CRUD operations</text></g><!--link Backend to Filesystem--><g class="link" data-entity-1="ent0013" data-entity-2="ent0032" data-link-type="dependency" data-source-line="84" id="lnk49"><path d="M1441.2888,587.5554 C1445.1614,587.5745 1449.0446,587.5932 1452.9374,587.6116 C1460.7229,587.6485 1468.5469,587.6839 1476.4017,587.718 C1507.8211,587.8545 1539.7339,587.9697 1571.6538,588.0669 C1827.0125,588.8444 2082.82,588.4694 2090,588.6094 C2135.85,589.5094 2883.09,581.6794 2915,614.6094 C2978.71,680.3594 2978.38,754.5394 2915,820.6094 C2911.05,824.7194 2099.41,850.9994 2095,854.6094 C2091.6588,857.3481 2088.8481,860.5673 2086.4886,864.1105 C2085.3089,865.8821 2084.2419,867.7347 2083.2777,869.6486 C2083.1572,869.8879 2085.2259,865.6321 2085.1086,865.8732" fill="none" id="Backend-to-Filesystem" style="stroke:#333333;stroke-width:1;"/><polygon fill="#333333" points="2082.921,870.3692,2090.4555,864.0264,2085.1086,865.8732,2083.2618,860.5263,2082.921,870.3692" style="stroke:#333333;stroke-width:1;stroke-linejoin:miter;stroke-miterlimit:10;"/><text fill="#000000" font-family="sans-serif" font-size="13" lengthAdjust="spacing" textLength="106.2153" x="2963" y="743.1045">File I/O operations</text></g><!--link Database to Filesystem--><g class="link" data-entity-1="ent0026" data-entity-2="ent0032" data-link-type="dependency" data-source-line="85" id="lnk50"><path d="M2028.0773,791.0459 C2028.1107,791.2259 2028.1441,791.4061 2028.1777,791.5865 C2028.2448,791.9472 2028.3124,792.3088 2028.3803,792.6713 C2029.4675,798.4698 2030.66,804.4738 2031.9575,810.5425 C2034.5525,822.68 2037.5675,835.0769 2041,846.6094 C2046.7,865.7694 2055.09,886.5444 2062.2263,902.8756 C2064.0103,906.9584 2065.716,910.7635 2067.2817,914.1962 C2067.4775,914.6253 2065.5879,910.5031 2065.7791,910.9204" fill="none" id="Database-to-Filesystem" style="stroke:#333333;stroke-width:1;"/><polygon fill="#333333" points="2067.8622,915.4658,2067.749,905.6176,2065.7791,910.9204,2060.4764,908.9505,2067.8622,915.4658" style="stroke:#333333;stroke-width:1;stroke-linejoin:miter;stroke-miterlimit:10;"/><text fill="#000000" font-family="sans-serif" font-size="13" lengthAdjust="spacing" textLength="90.3335" x="2042" y="843.1045">Backup storage</text></g><!--link Filesystem to Database--><g class="link" data-entity-1="ent0032" data-entity-2="ent0026" data-link-type="dependency" data-source-line="86" id="lnk51"><path d="M2083.9102,870.3645 C2084.8353,868.4063 2085.854,866.499 2086.9751,864.661 C2089.2172,860.9848 2091.8688,857.5856 2095,854.6094 C2108.77,841.5194 2124.89,861.2494 2137,846.6094 C2142.1,840.4494 2140.53,835.7894 2137,828.6094 C2122.735,799.6394 2094.17,777.3844 2068.8363,762.2519 C2056.1694,754.6856 2044.3103,748.9 2035.4505,744.9459 C2033.2355,743.9574 2031.208,743.0834 2029.4022,742.3246 C2028.9507,742.1349 2033.1326,743.8656 2032.7094,743.6903" fill="none" id="Filesystem-to-Database" style="stroke:#333333;stroke-width:1;"/><polygon fill="#333333" points="2028.0899,741.7771,2034.8745,748.9165,2032.7094,743.6903,2037.9356,741.5253,2028.0899,741.7771" style="stroke:#333333;stroke-width:1;stroke-linejoin:miter;stroke-miterlimit:10;"/><text fill="#000000" font-family="sans-serif" font-size="13" lengthAdjust="spacing" textLength="119.228" x="2141" y="843.1045">Recovery operations</text></g><!--link MyTorch to Filesystem--><g class="link" data-entity-1="ent0019" data-entity-2="ent0032" data-link-type="dependency" data-source-line="89" id="lnk52"><path d="M916.1427,744.9886 C916.2451,745.0668 916.3484,745.1456 916.4525,745.225 C918.1189,746.4956 920.0116,747.9219 922.1123,749.4798 C930.5153,755.7116 942.2469,764.0488 956.1363,772.9431 C983.915,790.7319 1020.325,810.7494 1056,820.6094 C1081.72,827.7194 1269.33,827.6694 1296,828.6094 C1315.58,829.2994 1983.11,846.5994 2001,854.6094 C2022.26,864.1294 2040.52,882.7269 2053.6987,899.3744 C2056.9934,903.5362 2059.9705,907.5762 2062.5976,911.3221 C2063.9111,913.195 2065.137,914.9943 2066.2714,916.6986 C2066.8386,917.5508 2064.6593,914.1861 2065.1802,914.988" fill="none" id="MyTorch-to-Filesystem" style="stroke:#333333;stroke-width:1;"/><polygon fill="#333333" points="2067.9038,919.181,2066.3557,909.4546,2065.1802,914.988,2059.6468,913.8125,2067.9038,919.181" style="stroke:#333333;stroke-width:1;stroke-linejoin:miter;stroke-miterlimit:10;"/><text fill="#000000" font-family="sans-serif" font-size="13" lengthAdjust="spacing" textLength="120.6816" x="1862" y="843.1045">Loads/Saves models</text></g><!--link MyTorch to Filesystem--><g class="link" data-entity-1="ent0019" data-entity-2="ent0032" data-link-type="dependency" data-source-line="90" id="lnk53"><path d="M916.2973,744.4961 C916.4015,744.5686 916.5065,744.6417 916.6125,744.7154 C918.3078,745.8944 920.2319,747.2213 922.3655,748.6755 C930.8997,754.4922 942.7844,762.3463 956.7738,770.9256 C984.7525,788.0844 1021.15,808.1444 1056,820.6094 C1116.41,842.2194 1134.13,840.4894 1198,846.6094 C1220.2,848.7394 1980.52,845.7694 2001,854.6094 C2022.385,863.8394 2040.65,882.4294 2053.8,899.1456 C2057.0875,903.3247 2060.0553,907.3866 2062.6723,911.156 C2063.9807,913.0406 2065.2015,914.8521 2066.3307,916.5685 C2066.8952,917.4267 2064.7371,914.0527 2065.2554,914.8606" fill="none" id="MyTorch-to-Filesystem-1" style="stroke:#333333;stroke-width:1;"/><polygon fill="#333333" points="2067.9552,919.069,2066.4623,909.334,2065.2554,914.8606,2059.7288,913.6536,2067.9552,919.069" style="stroke:#333333;stroke-width:1;stroke-linejoin:miter;stroke-miterlimit:10;"/><text fill="#000000" font-family="sans-serif" font-size="13" lengthAdjust="spacing" textLength="88.1753" x="1199" y="843.1045">Loads datasets</text></g><!--link GPU Acceleration Module to GPU Hardware--><g class="link" data-entity-1="ent0021" data-entity-2="ent0054" data-link-type="dependency" data-source-line="91" id="lnk55"><path d="M802.48,756.8494 C821.54,773.6894 850.85,799.2494 877,820.6094 C918.76,854.7194 964.792,889.7567 993.832,911.5667" fill="none" id="GPU Acceleration Module-to-GPU Hardware" style="stroke:#333333;stroke-width:1;"/><polygon fill="#333333" points="997.83,914.5694,993.0357,905.9662,993.832,911.5667,988.2315,912.363,997.83,914.5694" style="stroke:#333333;stroke-width:1;stroke-linejoin:miter;stroke-miterlimit:10;"/><text fill="#000000" font-family="sans-serif" font-size="13" lengthAdjust="spacing" textLength="116.3525" x="909" y="843.1045">Computation offload</text></g><!--link MyTorch to GMN56--><g class="link" data-entity-1="ent0019" data-entity-2="ent0057" data-link-type="association" data-source-line="94" id="lnk58"><path d="M916.0338,726.8628 C916.1354,726.7316 916.238,726.5994 916.3414,726.4662 C916.7553,725.9334 917.1837,725.3842 917.6263,724.8194 C919.3969,722.5601 921.3961,720.0499 923.6106,717.3291 C932.4688,706.4456 944.7725,692.1906 959.675,677.1294 C989.48,647.0069 1029.68,613.6594 1073.5,597.6094 C1122.8,579.5594 1966.43,590.9294 2018.5,597.6094 C2157.06,615.3894 2310.94,657.9994 2418.24,691.5794" fill="none" id="MyTorch-GMN56" style="stroke:#333333;stroke-width:1;stroke-dasharray:7,7;"/></g><!--link Database to GMN59--><g class="link" data-entity-1="ent0026" data-entity-2="ent0060" data-link-type="association" data-source-line="102" id="lnk61"><path d="M2028.4235,733.3668 C2028.5989,733.2795 2028.777,733.191 2028.9576,733.1013 C2030.4025,732.3835 2032.0133,731.5871 2033.7835,730.7171 C2040.8639,727.2373 2050.4932,722.5816 2062.2495,717.0788 C2085.7622,706.0731 2117.7831,691.6794 2154.9388,676.5294 C2229.25,646.2294 2324.1,612.9044 2412.5,597.6094 C2475.13,586.7794 2639.61,573.7094 2698.5,597.6094 C2737.76,613.5394 2767.84,651.1494 2787.59,683.3794" fill="none" id="Database-GMN59" style="stroke:#333333;stroke-width:1;stroke-dasharray:7,7;"/></g><!--link Backend to GMN62--><g class="link" data-entity-1="ent0013" data-entity-2="ent0063" data-link-type="association" data-source-line="111" id="lnk64"><path d="M1036.9806,440.2635 C1036.9635,439.7712 1036.9479,439.2778 1036.9337,438.7831 C1036.9055,437.7939 1036.8833,436.8 1036.8676,435.8022 C1036.8361,433.8066 1036.8304,431.7951 1036.8538,429.7731 C1037.2275,397.4219 1045.035,362.3894 1073.5,346.6094 C1139.97,309.7694 1345.41,317.2294 1415.5,346.6094 C1462.3,366.2194 1501.79,408.5694 1528.26,443.4394" fill="none" id="Backend-GMN62" style="stroke:#333333;stroke-width:1;stroke-dasharray:7,7;"/></g><?plantuml-src XLRRRkCs47tNLqnJe4s1f5wWRq5HmElOYG4dTMsdBL3aWQ56Dck9T4dAMRVOV-_mfeilkyv38CxXw9pXcH6_oR4G4c4n7gs6pm-pCV2I6PEPhP0xfba5N5Kx9L7QfJsK21gvPN9TOWVonlXshLKjyv4gbOPl9n_Stxaay5y6zFjuiiF_Gapf77LS_yd__Ff4IHjNF_YVNnrghTxxuC-P5PQeFXrMIlCDB0_6OaL8lX6MwDSQisn73DWQuUh5e8OPEw2-YkJ-kaVSmGoPbaAkuIEkXPIeNu4PSEW4scEfThHv02iaZKzOlKLK4mlGkLP_qtjXQTaMDwhC8wppJAHRIdEDXch5h52oJwsjuzL4KprGvl0olNB9ckU0z2z-OaB2b9PrmJY-je6HaeLOrpgyuXnYfMclatykE9K5QfGSpqOVQf4p5_mE7h7SXSZddiBXRbSA_cM1pYDEpnBrNd3q8jDQLwFAiIGUmWfMYdz3pk5y-deCQHJrWojcjj0AEhVpYKbYNJbMJRYlPq8cntUbjnVLH3CEdf_7qA2zfcJJZgOstKZfNcddBp3a74kCHqS4wxAB-0F5UcEFwt426xak5noyG7CQznQqSCyie_zzG5-wWrnKlVnjHYtdqxnH8gytFPmSeci8fIbfXqTB02tBwU6SHMTgRSwwyoZWt5Flo9OBv6gF-f3q7B6UASvAc0YQ8M5sX0QZPnD6oOdzVEoKzibwPD1PziNytiyL4AwP67SdPZA_SdlxIzlOTmvbO2zCJVH4wZoJjQF8uPEVxc3yoUqpK2GxPPs9ux6fd-xeWCanIXlOQRMcmpUELVDggneerQcgPMpUh47qipskLlF1OhnSkOQ14IjBqq9_xcCNoCfRAog40Z5ttn8weI0osjTHINXYqdQ7gy4wT4AM0FqI-5T3xWPwcGPwKSjOu_DxN9EnRfDf_AT6Oo_XWmLiTED09Fk52dQvQaa7rnZDP1VxsR_XU0ou4vKRDrbpSAVDWeWlj_obJ4Ve2kr6vPJi_62ub2L8ztS84TbSc1oNClZnKIgMK-bSmVmpYJE2EiqLiLlpPdJGmIvUxhjLwC8wdNeNsdWw-BKBRlASe6E3cZ28iaxiwFrfX7JJzixR3IieIlMU9QUSl6n6iirWoVRKrPMlzrUmFgchwjUSuwAFJEVlB5HvH9whuuL25OMhTvP9HQDPU--e8lavNBKQ5Nw46AVkpaTkJxk3Ejp4M7IYw7lh-X5lu4-s5wXl02t_yOS8JruBsk5wWUOPxGty_l1mupxNqXHALwWJFbeh5G6kHzF9S743quhEokyCsPqFdBXZYUduVBfvwp5OSZh5931ucdTlI4bVyyKX0bj3Oue8rQLDuVR3KzA79v6cAKqg_8M8kamBdY9ZkhfgTw6c2w-vI3eQs--9Lw7srcNwfFk5FoQDdv3NdK1BbsO-vJAk1RlfgkRU4vVfW5IjdP3mjN0R6jx_0m00?></g></svg>