<svg xmlns="http://www.w3.org/2000/svg" xmlns:xlink="http://www.w3.org/1999/xlink" contentStyleType="text/css" data-diagram-type="DESCRIPTION" height="1124px" preserveAspectRatio="none" style="width:1204px;height:1124px;background:#FFFFFF;" version="1.1" viewBox="0 0 1204 1124" width="1204px" zoomAndPan="magnify"><?plantuml 1.2026.6?><defs/><g><g class="title" data-source-line="1"><text fill="#000000" font-family="sans-serif" font-size="14" font-weight="700" lengthAdjust="spacing" textLength="432.5234" x="382.2383" y="24.5332">MyTorch System Architecture - Component/Deployment Diagram</text></g><!--cluster PresentationLayer--><g class="cluster" data-qualified-name="PresentationLayer" data-source-line="4" id="ent0001"><polygon fill="none" points="706,54.6094,716,44.6094,904,44.6094,904,139.6094,894,149.6094,706,149.6094,706,54.6094" style="stroke:#181818;stroke-width:1;stroke-linejoin:miter;stroke-miterlimit:10;"/><line style="stroke:#181818;stroke-width:1;" x1="894" x2="904" y1="54.6094" y2="44.6094"/><line style="stroke:#181818;stroke-width:1;" x1="706" x2="894" y1="54.6094" y2="54.6094"/><line style="stroke:#181818;stroke-width:1;" x1="894" x2="894" y1="54.6094" y2="149.6094"/><text fill="#000000" font-family="sans-serif" font-size="14" font-weight="700" lengthAdjust="spacing" textLength="122.1582" x="739.9209" y="72.1426">PresentationLayer</text></g><!--cluster ApplicationLayer--><g class="cluster" data-qualified-name="ApplicationLayer" data-source-line="9" id="ent0003"><polygon fill="none" points="497,209.6094,507,199.6094,1088,199.6094,1088,546.6094,1078,556.6094,497,556.6094,497,209.6094" style="stroke:#181818;stroke-width:1;stroke-linejoin:miter;stroke-miterlimit:10;"/><line style="stroke:#181818;stroke-width:1;" x1="1078" x2="1088" y1="209.6094" y2="199.6094"/><line style="stroke:#181818;stroke-width:1;" x1="497" x2="1078" y1="209.6094" y2="209.6094"/><line style="stroke:#181818;stroke-width:1;" x1="1078" x2="1078" y1="209.6094" y2="556.6094"/><text fill="#000000" font-family="sans-serif" font-size="14" font-weight="700" lengthAdjust="spacing" textLength="113.5791" x="731.7104" y="227.1426">ApplicationLayer</text></g><!--cluster FrameworkLayer--><g class="cluster" data-qualified-name="FrameworkLayer" data-source-line="18" id="ent0009"><polygon fill="none" points="16,616.6094,26,606.6094,995,606.6094,995,980.1094,985,990.1094,16,990.1094,16,616.6094" style="stroke:#181818;stroke-width:1;stroke-linejoin:miter;stroke-miterlimit:10;"/><line style="stroke:#181818;stroke-width:1;" x1="985" x2="995" y1="616.6094" y2="606.6094"/><line style="stroke:#181818;stroke-width:1;" x1="16" x2="985" y1="616.6094" y2="616.6094"/><line style="stroke:#181818;stroke-width:1;" x1="985" x2="985" y1="616.6094" y2="990.1094"/><text fill="#000000" font-family="sans-serif" font-size="14" font-weight="700" lengthAdjust="spacing" textLength="112.0547" x="445.4727" y="634.1426">FrameworkLayer</text></g><!--cluster DataLayer--><g class="cluster" data-qualified-name="DataLayer" data-source-line="30" id="ent0018"><polygon fill="none" points="1019,895.6094,1029,885.6094,1179,885.6094,1179,979.6094,1169,989.6094,1019,989.6094,1019,895.6094" style="stroke:#181818;stroke-width:1;stroke-linejoin:miter;stroke-miterlimit:10;"/><line style="stroke:#181818;stroke-width:1;" x1="1169" x2="1179" y1="895.6094" y2="885.6094"/><line style="stroke:#181818;stroke-width:1;" x1="1019" x2="1169" y1="895.6094" y2="895.6094"/><line style="stroke:#181818;stroke-width:1;" x1="1169" x2="1169" y1="895.6094" y2="989.6094"/><text fill="#000000" font-family="sans-serif" font-size="14" font-weight="700" lengthAdjust="spacing" textLength="67.7031" x="1061.1484" y="913.1426">DataLayer</text></g><!--entity frontendUI--><g class="entity" data-qualified-name="PresentationLayer.frontendUI" data-source-line="5" id="ent0002"><rect fill="#F1F1F1" height="47.6094" rx="2.5" ry="2.5" style="stroke:#181818;stroke-width:0.5;" width="113.9238" x="748" y="85.6094"/><rect fill="#F1F1F1" height="10" style="stroke:#181818;stroke-width:0.5;" width="15" x="841.9238" y="90.6094"/><rect fill="#F1F1F1" height="2" style="stroke:#181818;stroke-width:0.5;" width="4" x="839.9238" y="92.6094"/><rect fill="#F1F1F1" height="2" style="stroke:#181818;stroke-width:0.5;" width="4" x="839.9238" y="96.6094"/><text fill="#000000" font-family="sans-serif" font-size="14" lengthAdjust="spacing" textLength="73.9238" x="763" y="120.1426">Frontend UI</text></g><!--entity mainInterface--><g class="entity" data-qualified-name="ApplicationLayer.mainInterface" data-source-line="10" id="ent0004"><rect fill="#F1F1F1" height="47.6094" rx="2.5" ry="2.5" style="stroke:#181818;stroke-width:0.5;" width="128.71" x="740.5" y="240.6094"/><rect fill="#F1F1F1" height="10" style="stroke:#181818;stroke-width:0.5;" width="15" x="849.21" y="245.6094"/><rect fill="#F1F1F1" height="2" style="stroke:#181818;stroke-width:0.5;" width="4" x="847.21" y="247.6094"/><rect fill="#F1F1F1" height="2" style="stroke:#181818;stroke-width:0.5;" width="4" x="847.21" y="251.6094"/><text fill="#000000" font-family="sans-serif" font-size="14" lengthAdjust="spacing" textLength="88.71" x="755.5" y="275.1426">Main Interface</text></g><!--entity configInterface--><g class="entity" data-qualified-name="ApplicationLayer.configInterface" data-source-line="11" id="ent0005"><rect fill="#F1F1F1" height="47.6094" rx="2.5" ry="2.5" style="stroke:#181818;stroke-width:0.5;" width="181.6406" x="513" y="366.6094"/><rect fill="#F1F1F1" height="10" style="stroke:#181818;stroke-width:0.5;" width="15" x="674.6406" y="371.6094"/><rect fill="#F1F1F1" height="2" style="stroke:#181818;stroke-width:0.5;" width="4" x="672.6406" y="373.6094"/><rect fill="#F1F1F1" height="2" style="stroke:#181818;stroke-width:0.5;" width="4" x="672.6406" y="377.6094"/><text fill="#000000" font-family="sans-serif" font-size="14" lengthAdjust="spacing" textLength="141.6406" x="528" y="401.1426">Configuration Interface</text></g><!--entity trainingInterface--><g class="entity" data-qualified-name="ApplicationLayer.trainingInterface" data-source-line="12" id="ent0006"><rect fill="#F1F1F1" height="47.6094" rx="2.5" ry="2.5" style="stroke:#181818;stroke-width:0.5;" width="148.9443" x="730.5" y="366.6094"/><rect fill="#F1F1F1" height="10" style="stroke:#181818;stroke-width:0.5;" width="15" x="859.4443" y="371.6094"/><rect fill="#F1F1F1" height="2" style="stroke:#181818;stroke-width:0.5;" width="4" x="857.4443" y="373.6094"/><rect fill="#F1F1F1" height="2" style="stroke:#181818;stroke-width:0.5;" width="4" x="857.4443" y="377.6094"/><text fill="#000000" font-family="sans-serif" font-size="14" lengthAdjust="spacing" textLength="108.9443" x="745.5" y="401.1426">Training Interface</text></g><!--entity inferenceInterface--><g class="entity" data-qualified-name="ApplicationLayer.inferenceInterface" data-source-line="13" id="ent0007"><rect fill="#F1F1F1" height="47.6094" rx="2.5" ry="2.5" style="stroke:#181818;stroke-width:0.5;" width="156.7373" x="914.5" y="366.6094"/><rect fill="#F1F1F1" height="10" style="stroke:#181818;stroke-width:0.5;" width="15" x="1051.2373" y="371.6094"/><rect fill="#F1F1F1" height="2" style="stroke:#181818;stroke-width:0.5;" width="4" x="1049.2373" y="373.6094"/><rect fill="#F1F1F1" height="2" style="stroke:#181818;stroke-width:0.5;" width="4" x="1049.2373" y="377.6094"/><text fill="#000000" font-family="sans-serif" font-size="14" lengthAdjust="spacing" textLength="116.7373" x="929.5" y="401.1426">Inference Interface</text></g><!--entity backendService--><g class="entity" data-qualified-name="ApplicationLayer.backendService" data-source-line="14" id="ent0008"><rect fill="#F1F1F1" height="47.6094" rx="2.5" ry="2.5" style="stroke:#181818;stroke-width:0.5;" width="145.0547" x="692.5" y="492.6094"/><rect fill="#F1F1F1" height="10" style="stroke:#181818;stroke-width:0.5;" width="15" x="817.5547" y="497.6094"/><rect fill="#F1F1F1" height="2" style="stroke:#181818;stroke-width:0.5;" width="4" x="815.5547" y="499.6094"/><rect fill="#F1F1F1" height="2" style="stroke:#181818;stroke-width:0.5;" width="4" x="815.5547" y="503.6094"/><text fill="#000000" font-family="sans-serif" font-size="14" lengthAdjust="spacing" textLength="105.0547" x="707.5" y="527.1426">Backend Service</text></g><!--entity myTorchFramework--><g class="entity" data-qualified-name="FrameworkLayer.myTorchFramework" data-source-line="19" id="ent0010"><rect fill="#F1F1F1" height="47.6094" rx="2.5" ry="2.5" style="stroke:#181818;stroke-width:0.5;" width="168.3447" x="408" y="647.6094"/><rect fill="#F1F1F1" height="10" style="stroke:#181818;stroke-width:0.5;" width="15" x="556.3447" y="652.6094"/><rect fill="#F1F1F1" height="2" style="stroke:#181818;stroke-width:0.5;" width="4" x="554.3447" y="654.6094"/><rect fill="#F1F1F1" height="2" style="stroke:#181818;stroke-width:0.5;" width="4" x="554.3447" y="658.6094"/><text fill="#000000" font-family="sans-serif" font-size="14" lengthAdjust="spacing" textLength="128.3447" x="423" y="682.1426">MyTorch Framework</text></g><!--entity dataLoader--><g class="entity" data-qualified-name="FrameworkLayer.dataLoader" data-source-line="20" id="ent0011"><rect fill="#F1F1F1" height="47.6094" rx="2.5" ry="2.5" style="stroke:#181818;stroke-width:0.5;" width="117.0547" x="49.5" y="926.1094"/><rect fill="#F1F1F1" height="10" style="stroke:#181818;stroke-width:0.5;" width="15" x="146.5547" y="931.1094"/><rect fill="#F1F1F1" height="2" style="stroke:#181818;stroke-width:0.5;" width="4" x="144.5547" y="933.1094"/><rect fill="#F1F1F1" height="2" style="stroke:#181818;stroke-width:0.5;" width="4" x="144.5547" y="937.1094"/><text fill="#000000" font-family="sans-serif" font-size="14" lengthAdjust="spacing" textLength="77.0547" x="64.5" y="960.6426">Data Loader</text></g><!--entity trainer--><g class="entity" data-qualified-name="FrameworkLayer.trainer" data-source-line="21" id="ent0012"><rect fill="#F1F1F1" height="47.6094" rx="2.5" ry="2.5" style="stroke:#181818;stroke-width:0.5;" width="84.3447" x="163" y="773.6094"/><rect fill="#F1F1F1" height="10" style="stroke:#181818;stroke-width:0.5;" width="15" x="227.3447" y="778.6094"/><rect fill="#F1F1F1" height="2" style="stroke:#181818;stroke-width:0.5;" width="4" x="225.3447" y="780.6094"/><rect fill="#F1F1F1" height="2" style="stroke:#181818;stroke-width:0.5;" width="4" x="225.3447" y="784.6094"/><text fill="#000000" font-family="sans-serif" font-size="14" lengthAdjust="spacing" textLength="44.3447" x="178" y="808.1426">Trainer</text></g><!--entity inferencer--><g class="entity" data-qualified-name="FrameworkLayer.inferencer" data-source-line="22" id="ent0013"><rect fill="#F1F1F1" height="47.6094" rx="2.5" ry="2.5" style="stroke:#181818;stroke-width:0.5;" width="103.0342" x="282.5" y="773.6094"/><rect fill="#F1F1F1" height="10" style="stroke:#181818;stroke-width:0.5;" width="15" x="365.5342" y="778.6094"/><rect fill="#F1F1F1" height="2" style="stroke:#181818;stroke-width:0.5;" width="4" x="363.5342" y="780.6094"/><rect fill="#F1F1F1" height="2" style="stroke:#181818;stroke-width:0.5;" width="4" x="363.5342" y="784.6094"/><text fill="#000000" font-family="sans-serif" font-size="14" lengthAdjust="spacing" textLength="63.0342" x="297.5" y="808.1426">Inferencer</text></g><!--entity weightInitializer--><g class="entity" data-qualified-name="FrameworkLayer.weightInitializer" data-source-line="23" id="ent0014"><rect fill="#F1F1F1" height="47.6094" rx="2.5" ry="2.5" style="stroke:#181818;stroke-width:0.5;" width="142.7031" x="420.5" y="773.6094"/><rect fill="#F1F1F1" height="10" style="stroke:#181818;stroke-width:0.5;" width="15" x="543.2031" y="778.6094"/><rect fill="#F1F1F1" height="2" style="stroke:#181818;stroke-width:0.5;" width="4" x="541.2031" y="780.6094"/><rect fill="#F1F1F1" height="2" style="stroke:#181818;stroke-width:0.5;" width="4" x="541.2031" y="784.6094"/><text fill="#000000" font-family="sans-serif" font-size="14" lengthAdjust="spacing" textLength="102.7031" x="435.5" y="808.1426">Weight Initializer</text></g><!--entity classicModelsRepo--><g class="entity" data-qualified-name="FrameworkLayer.classicModelsRepo" data-source-line="24" id="ent0015"><rect fill="#F1F1F1" height="47.6094" rx="2.5" ry="2.5" style="stroke:#181818;stroke-width:0.5;" width="204.9443" x="598.5" y="773.6094"/><rect fill="#F1F1F1" height="10" style="stroke:#181818;stroke-width:0.5;" width="15" x="783.4443" y="778.6094"/><rect fill="#F1F1F1" height="2" style="stroke:#181818;stroke-width:0.5;" width="4" x="781.4443" y="780.6094"/><rect fill="#F1F1F1" height="2" style="stroke:#181818;stroke-width:0.5;" width="4" x="781.4443" y="784.6094"/><text fill="#000000" font-family="sans-serif" font-size="14" lengthAdjust="spacing" textLength="164.9443" x="613.5" y="808.1426">Classic Models Repository</text></g><!--entity presetDatasets--><g class="entity" data-qualified-name="FrameworkLayer.presetDatasets" data-source-line="25" id="ent0016"><rect fill="#F1F1F1" height="47.6094" rx="2.5" ry="2.5" style="stroke:#181818;stroke-width:0.5;" width="139.5996" x="839" y="773.6094"/><rect fill="#F1F1F1" height="10" style="stroke:#181818;stroke-width:0.5;" width="15" x="958.5996" y="778.6094"/><rect fill="#F1F1F1" height="2" style="stroke:#181818;stroke-width:0.5;" width="4" x="956.5996" y="780.6094"/><rect fill="#F1F1F1" height="2" style="stroke:#181818;stroke-width:0.5;" width="4" x="956.5996" y="784.6094"/><text fill="#000000" font-family="sans-serif" font-size="14" lengthAdjust="spacing" textLength="99.5996" x="854" y="808.1426">Preset Datasets</text></g><!--entity gpuAccelerator--><g class="entity" data-qualified-name="FrameworkLayer.gpuAccelerator" data-source-line="26" id="ent0017"><rect fill="#F1F1F1" height="47.6094" rx="2.5" ry="2.5" style="stroke:#181818;stroke-width:0.5;" width="145.0342" x="356.5" y="926.1094"/><rect fill="#F1F1F1" height="10" style="stroke:#181818;stroke-width:0.5;" width="15" x="481.5342" y="931.1094"/><rect fill="#F1F1F1" height="2" style="stroke:#181818;stroke-width:0.5;" width="4" x="479.5342" y="933.1094"/><rect fill="#F1F1F1" height="2" style="stroke:#181818;stroke-width:0.5;" width="4" x="479.5342" y="937.1094"/><text fill="#000000" font-family="sans-serif" font-size="14" lengthAdjust="spacing" textLength="105.0342" x="371.5" y="960.6426">GPU Accelerator</text></g><!--entity sqliteDB--><g class="entity" data-qualified-name="DataLayer.sqliteDB" data-source-line="31" id="ent0019"><path d="M1035.5,936.6094 C1035.5,926.6094 1098.8101,926.6094 1098.8101,926.6094 C1098.8101,926.6094 1162.1201,926.6094 1162.1201,936.6094 L1162.1201,963.2188 C1162.1201,973.2188 1098.8101,973.2188 1098.8101,973.2188 C1098.8101,973.2188 1035.5,973.2188 1035.5,963.2188 L1035.5,936.6094" fill="#F1F1F1" style="stroke:#181818;stroke-width:0.5;"/><path d="M1035.5,936.6094 C1035.5,946.6094 1098.8101,946.6094 1098.8101,946.6094 C1098.8101,946.6094 1162.1201,946.6094 1162.1201,936.6094" fill="none" style="stroke:#181818;stroke-width:0.5;"/><text fill="#000000" font-family="sans-serif" font-size="14" lengthAdjust="spacing" textLength="106.6201" x="1045.5" y="965.1426">SQLite Database</text></g><!--entity gpuHardware--><g class="entity" data-qualified-name="gpuHardware" data-source-line="35" id="ent0020"><path d="M362.9891,1062.6575 C366.7124,1056.8911 370.7206,1057.0067 374.0304,1063.0443 C376.4205,1057.5569 381.472,1057.1724 384.5964,1062.3144 C387.4965,1056.7632 391.3616,1055.7523 395.6999,1060.8091 C398.1829,1054.1068 403.9199,1053.7103 408.2814,1058.806 C411.1265,1053.2291 416.3085,1052.7736 419.5798,1058.3752 C423.0971,1053.3965 426.7924,1052.4363 430.9295,1057.6876 C434.2429,1052.4399 439.4179,1052.6084 441.9085,1058.4988 C445.664,1054.2693 450.941,1054.9779 452.8421,1060.5643 C456.8406,1054.1552 461.5521,1054.7608 464.9153,1061.1631 C468.1299,1056.563 472.0935,1057.5334 474.4817,1062.032 C478.2562,1056.1571 482.5085,1056.5909 486.6601,1061.6105 C491.7534,1056.1441 496.3216,1056.9754 498.8429,1064.0992 C508.8539,1064.1191 512.8259,1069.546 507.5572,1078.691 C512.4975,1088.1551 507.4425,1094.4646 497.4151,1094.0364 C495.135,1098.9328 491.3411,1099.9159 487.2296,1096.2032 C484.3323,1103.6304 479.646,1104.262 474.7378,1098.0442 C471.9381,1103.4629 466.927,1104.1218 463.0721,1099.2391 C460.712,1104.0016 456.7373,1105.4392 453.1738,1100.4622 C450.607,1106.1477 446.3136,1105.841 442.4939,1101.8442 C439.8207,1109.2887 435.3863,1109.988 429.7214,1104.8909 C424.9714,1108.753 421.3243,1107.5366 419.7535,1101.6426 C416.1279,1106.5447 411.2833,1106.4999 407.712,1101.5762 C403.6028,1106.9604 399.6911,1106.2251 396.9402,1100.2842 C392.5781,1105.5171 387.7445,1103.3816 385.6452,1097.899 C381.1704,1103.0324 375.2097,1102.5721 373.0547,1095.5051 C369.422,1100.8259 364.9704,1100.6373 362.0918,1094.7664 C352.9691,1093.6371 347.6159,1087.0851 354.4976,1078.489 C349.3007,1068.8877 353.1386,1064.188 362.9891,1062.6575" fill="#F1F1F1" style="stroke:#181818;stroke-width:0.5;"/><text fill="#000000" font-family="sans-serif" font-size="14" lengthAdjust="spacing" textLength="121.3721" x="368.5" y="1083.6426">GPU Hardware/API</text></g><!--link frontendUI to mainInterface--><g class="link" data-entity-1="ent0002" data-entity-2="ent0004" data-link-type="dependency" data-source-line="38" id="lnk21"><path d="M805,133.8494 C805,162.5994 805,206.2994 805,235.1494" fill="none" id="frontendUI-to-mainInterface" style="stroke:#181818;stroke-width:1;"/><polygon fill="#181818" points="805,240.1494,809,231.1494,805,235.1494,801,231.1494,805,240.1494" style="stroke:#181818;stroke-width:1;stroke-linejoin:miter;stroke-miterlimit:10;"/><text fill="#000000" font-family="sans-serif" font-size="13" lengthAdjust="spacing" textLength="91.7617" x="806" y="180.1045">User Interaction</text></g><!--link mainInterface to configInterface--><g class="link" data-entity-1="ent0004" data-entity-2="ent0005" data-link-type="dependency" data-source-line="39" id="lnk22"><path d="M750.65,288.6194 C732.2,297.1894 711.77,307.5494 694,318.6094 C671.19,332.8094 651.222,348.5339 633.832,363.2939" fill="none" id="mainInterface-to-configInterface" style="stroke:#181818;stroke-width:1;"/><polygon fill="#181818" points="630.02,366.5294,639.47,363.7551,633.832,363.2939,634.2932,357.6558,630.02,366.5294" style="stroke:#181818;stroke-width:1;stroke-linejoin:miter;stroke-miterlimit:10;"/><text fill="#000000" font-family="sans-serif" font-size="13" lengthAdjust="spacing" textLength="101.8862" x="695" y="333.1045">Configure Models</text></g><!--link mainInterface to trainingInterface--><g class="link" data-entity-1="ent0004" data-entity-2="ent0006" data-link-type="dependency" data-source-line="40" id="lnk23"><path d="M805,288.6394 C805,310.7794 805,339.0494 805,361.2794" fill="none" id="mainInterface-to-trainingInterface" style="stroke:#181818;stroke-width:1;"/><polygon fill="#181818" points="805,366.2794,809,357.2794,805,361.2794,801,357.2794,805,366.2794" style="stroke:#181818;stroke-width:1;stroke-linejoin:miter;stroke-miterlimit:10;"/><text fill="#000000" font-family="sans-serif" font-size="13" lengthAdjust="spacing" textLength="78.0317" x="806" y="333.1045">Start Training</text></g><!--link mainInterface to inferenceInterface--><g class="link" data-entity-1="ent0004" data-entity-2="ent0007" data-link-type="dependency" data-source-line="41" id="lnk24"><path d="M844.82,288.7294 C860.05,297.7994 877.48,308.4494 893,318.6094 C916.33,333.8894 937.9266,349.1781 957.4066,363.3481" fill="none" id="mainInterface-to-inferenceInterface" style="stroke:#181818;stroke-width:1;"/><polygon fill="#181818" points="961.45,366.2894,956.5248,357.7604,957.4066,363.3481,951.8189,364.2299,961.45,366.2894" style="stroke:#181818;stroke-width:1;stroke-linejoin:miter;stroke-miterlimit:10;"/><text fill="#000000" font-family="sans-serif" font-size="13" lengthAdjust="spacing" textLength="81.6626" x="919" y="333.1045">Run Inference</text></g><!--link configInterface to backendService--><g class="link" data-entity-1="ent0005" data-entity-2="ent0008" data-link-type="dependency" data-source-line="43" id="lnk25"><path d="M601.47,414.8194 C601.09,430.0094 603.19,449.4194 614,462.6094 C633.28,486.1394 658.8557,498.0015 687.3457,505.2815" fill="none" id="configInterface-to-backendService" style="stroke:#181818;stroke-width:1;"/><polygon fill="#181818" points="692.19,506.5194,684.4605,500.4157,687.3457,505.2815,682.4799,508.1667,692.19,506.5194" style="stroke:#181818;stroke-width:1;stroke-linejoin:miter;stroke-miterlimit:10;"/><text fill="#000000" font-family="sans-serif" font-size="13" lengthAdjust="spacing" textLength="135.8589" x="615" y="459.1045">Configuration Requests</text></g><!--link trainingInterface to backendService--><g class="link" data-entity-1="ent0006" data-entity-2="ent0008" data-link-type="dependency" data-source-line="44" id="lnk26"><path d="M780.52,414.7494 C773.09,423.3294 765.88,433.6694 762,444.6094 C756.56,459.9594 756.7488,473.4192 758.9688,487.6392" fill="none" id="trainingInterface-to-backendService" style="stroke:#181818;stroke-width:1;"/><polygon fill="#181818" points="759.74,492.5794,762.3039,483.0701,758.9688,487.6392,754.3996,484.3041,759.74,492.5794" style="stroke:#181818;stroke-width:1;stroke-linejoin:miter;stroke-miterlimit:10;"/><text fill="#000000" font-family="sans-serif" font-size="13" lengthAdjust="spacing" textLength="128.6099" x="763" y="459.1045">Training Orchestration</text></g><!--link inferenceInterface to backendService--><g class="link" data-entity-1="ent0007" data-entity-2="ent0008" data-link-type="dependency" data-source-line="45" id="lnk27"><path d="M965.39,414.6794 C946.62,429.6294 920.8,448.7994 896,462.6094 C875.64,473.9494 857.0011,482.3343 835.7611,490.7143" fill="none" id="inferenceInterface-to-backendService" style="stroke:#181818;stroke-width:1;"/><polygon fill="#181818" points="831.11,492.5494,840.95,492.9672,835.7611,490.7143,838.0139,485.5254,831.11,492.5494" style="stroke:#181818;stroke-width:1;stroke-linejoin:miter;stroke-miterlimit:10;"/><text fill="#000000" font-family="sans-serif" font-size="13" lengthAdjust="spacing" textLength="135.8462" x="925" y="459.1045">Inference Orchestration</text></g><!--link backendService to myTorchFramework--><g class="link" data-entity-1="ent0008" data-entity-2="ent0010" data-link-type="dependency" data-source-line="47" id="lnk28"><path d="M723.83,540.6794 C672.3,569.5694 588.902,616.3054 537.412,645.1554" fill="none" id="backendService-to-myTorchFramework" style="stroke:#181818;stroke-width:1;"/><polygon fill="#181818" points="533.05,647.5994,542.8568,646.6897,537.412,645.1554,538.9463,639.7106,533.05,647.5994" style="stroke:#181818;stroke-width:1;stroke-linejoin:miter;stroke-miterlimit:10;"/><text fill="#000000" font-family="sans-serif" font-size="13" lengthAdjust="spacing" textLength="114.1753" x="662" y="587.1045">Execute Operations</text></g><!--link backendService to sqliteDB--><g class="link" data-entity-1="ent0008" data-entity-2="ent0019" data-link-type="dependency" data-source-line="48" id="lnk29"><path d="M837.64,525.7794 C888.27,535.1794 953.86,555.3594 995,598.6094 C1085.77,694.0494 1097.6165,860.0504 1098.8865,921.4104" fill="none" id="backendService-to-sqliteDB" style="stroke:#181818;stroke-width:1;"/><polygon fill="#181818" points="1098.99,926.4094,1102.8029,917.3285,1098.8865,921.4104,1094.8046,917.4941,1098.99,926.4094" style="stroke:#181818;stroke-width:1;stroke-linejoin:miter;stroke-miterlimit:10;"/><text fill="#000000" font-family="sans-serif" font-size="13" lengthAdjust="spacing" textLength="86.6899" x="1072" y="740.1045">Persist Results</text></g><!--link myTorchFramework to dataLoader--><g class="link" data-entity-1="ent0010" data-entity-2="ent0011" data-link-type="dependency" data-source-line="50" id="lnk30"><path d="M407.64,681.0194 C299.7,693.7694 122.09,722.1394 84,773.6094 C50.34,819.0994 75.2523,885.3781 93.1723,921.5881" fill="none" id="myTorchFramework-to-dataLoader" style="stroke:#181818;stroke-width:1;"/><polygon fill="#181818" points="95.39,926.0694,94.9831,916.2289,93.1723,921.5881,87.8131,919.7773,95.39,926.0694" style="stroke:#181818;stroke-width:1;stroke-linejoin:miter;stroke-miterlimit:10;"/><text fill="#000000" font-family="sans-serif" font-size="13" lengthAdjust="spacing" textLength="59.9917" x="85" y="803.1045">Load Data</text></g><!--link myTorchFramework to trainer--><g class="link" data-entity-1="ent0010" data-entity-2="ent0012" data-link-type="dependency" data-source-line="51" id="lnk31"><path d="M407.83,681.2994 C364.95,688.5094 313.3,701.6694 272,725.6094 C251.47,737.5094 236.417,753.6728 224.217,769.4628" fill="none" id="myTorchFramework-to-trainer" style="stroke:#181818;stroke-width:1;"/><polygon fill="#181818" points="221.16,773.4194,229.8279,768.7431,224.217,769.4628,223.4974,763.8519,221.16,773.4194" style="stroke:#181818;stroke-width:1;stroke-linejoin:miter;stroke-miterlimit:10;"/><text fill="#000000" font-family="sans-serif" font-size="13" lengthAdjust="spacing" textLength="88.8799" x="273" y="740.1045">Initiate Training</text></g><!--link myTorchFramework to inferencer--><g class="link" data-entity-1="ent0010" data-entity-2="ent0013" data-link-type="dependency" data-source-line="52" id="lnk32"><path d="M433.66,695.6294 C417.26,703.6794 400.07,713.7294 386,725.6094 C370.01,739.1094 358.8723,754.2483 349.5223,769.3483" fill="none" id="myTorchFramework-to-inferencer" style="stroke:#181818;stroke-width:1;"/><polygon fill="#181818" points="346.89,773.5994,355.0289,768.0533,349.5223,769.3483,348.2272,763.8417,346.89,773.5994" style="stroke:#181818;stroke-width:1;stroke-linejoin:miter;stroke-miterlimit:10;"/><text fill="#000000" font-family="sans-serif" font-size="13" lengthAdjust="spacing" textLength="96.1162" x="387" y="740.1045">Initiate Inference</text></g><!--link myTorchFramework to weightInitializer--><g class="link" data-entity-1="ent0010" data-entity-2="ent0014" data-link-type="dependency" data-source-line="53" id="lnk33"><path d="M492,695.6394 C492,717.7794 492,746.0494 492,768.2794" fill="none" id="myTorchFramework-to-weightInitializer" style="stroke:#181818;stroke-width:1;"/><polygon fill="#181818" points="492,773.2794,496,764.2794,492,768.2794,488,764.2794,492,773.2794" style="stroke:#181818;stroke-width:1;stroke-linejoin:miter;stroke-miterlimit:10;"/><text fill="#000000" font-family="sans-serif" font-size="13" lengthAdjust="spacing" textLength="97.5381" x="493" y="740.1045">Initialize Weights</text></g><!--link myTorchFramework to classicModelsRepo--><g class="link" data-entity-1="ent0010" data-entity-2="ent0015" data-link-type="dependency" data-source-line="54" id="lnk34"><path d="M542.36,695.6494 C560.52,704.4594 580.98,714.9494 599,725.6094 C623.7,740.2194 646.2336,755.8585 666.0536,770.3485" fill="none" id="myTorchFramework-to-classicModelsRepo" style="stroke:#181818;stroke-width:1;"/><polygon fill="#181818" points="670.09,773.2994,665.1853,764.7587,666.0536,770.3485,660.4638,771.2168,670.09,773.2994" style="stroke:#181818;stroke-width:1;stroke-linejoin:miter;stroke-miterlimit:10;"/><text fill="#000000" font-family="sans-serif" font-size="13" lengthAdjust="spacing" textLength="87.4199" x="626" y="740.1045">Access Models</text></g><!--link myTorchFramework to presetDatasets--><g class="link" data-entity-1="ent0010" data-entity-2="ent0016" data-link-type="dependency" data-source-line="55" id="lnk35"><path d="M576.03,689.0994 C619.91,698.4294 674.26,711.1194 722,725.6094 C767.19,739.3294 812.5068,756.6297 849.4068,771.5997" fill="none" id="myTorchFramework-to-presetDatasets" style="stroke:#181818;stroke-width:1;"/><polygon fill="#181818" points="854.04,773.4794,847.2039,766.3894,849.4068,771.5997,844.1964,773.8026,854.04,773.4794" style="stroke:#181818;stroke-width:1;stroke-linejoin:miter;stroke-miterlimit:10;"/><text fill="#000000" font-family="sans-serif" font-size="13" lengthAdjust="spacing" textLength="96.8145" x="776" y="740.1045">Access Datasets</text></g><!--link trainer to dataLoader--><g class="link" data-entity-1="ent0012" data-entity-2="ent0011" data-link-type="dependency" data-source-line="57" id="lnk36"><path d="M162.93,809.6094 C141.61,817.5394 117.61,830.6494 105,851.6094 C91.47,874.0994 94.2095,900.2481 99.4395,921.2081" fill="none" id="trainer-to-dataLoader" style="stroke:#181818;stroke-width:1;"/><polygon fill="#181818" points="100.65,926.0594,102.3521,916.3587,99.4395,921.2081,94.5901,918.2955,100.65,926.0594" style="stroke:#181818;stroke-width:1;stroke-linejoin:miter;stroke-miterlimit:10;"/><text fill="#000000" font-family="sans-serif" font-size="13" lengthAdjust="spacing" textLength="110.5698" x="106" y="866.1045">Load Training Data</text></g><!--link inferencer to dataLoader--><g class="link" data-entity-1="ent0013" data-entity-2="ent0011" data-link-type="dependency" data-source-line="58" id="lnk37"><path d="M368.88,821.8694 C385.84,835.9994 400.02,854.2294 387,869.6094 C380.01,877.8594 349.52,875.1194 339,877.6094 C279.56,891.6894 217.8067,911.2583 171.4767,926.9183" fill="none" id="inferencer-to-dataLoader" style="stroke:#181818;stroke-width:1;"/><polygon fill="#181818" points="166.74,928.5194,176.547,929.4268,171.4767,926.9183,173.9853,921.8481,166.74,928.5194" style="stroke:#181818;stroke-width:1;stroke-linejoin:miter;stroke-miterlimit:10;"/><text fill="#000000" font-family="sans-serif" font-size="13" lengthAdjust="spacing" textLength="117.8062" x="394" y="866.1045">Load Inference Data</text></g><!--link trainer to gpuAccelerator--><g class="link" data-entity-1="ent0012" data-entity-2="ent0017" data-link-type="dependency" data-source-line="60" id="lnk38"><path d="M217.76,821.7794 C227.05,836.9494 240.8,856.3494 257,869.6094 C286.91,894.0894 320.9516,911.0074 354.0616,924.1274" fill="none" id="trainer-to-gpuAccelerator" style="stroke:#181818;stroke-width:1;"/><polygon fill="#181818" points="358.71,925.9694,351.8165,918.9352,354.0616,924.1274,348.8694,926.3726,358.71,925.9694" style="stroke:#181818;stroke-width:1;stroke-linejoin:miter;stroke-miterlimit:10;"/><text fill="#000000" font-family="sans-serif" font-size="13" lengthAdjust="spacing" textLength="124.2617" x="258" y="866.1045">Use GPU for Training</text></g><!--link inferencer to gpuAccelerator--><g class="link" data-entity-1="ent0013" data-entity-2="ent0017" data-link-type="dependency" data-source-line="61" id="lnk39"><path d="M385.8,816.5894 C391.57,818.3794 397.39,820.0894 403,821.6094 C465.68,838.5694 505.07,801.1994 546,851.6094 C569.83,880.9594 535.0721,905.8591 495.7421,923.9591" fill="none" id="inferencer-to-gpuAccelerator" style="stroke:#181818;stroke-width:1;"/><polygon fill="#181818" points="491.2,926.0494,501.048,925.9205,495.7421,923.9591,497.7035,918.6531,491.2,926.0494" style="stroke:#181818;stroke-width:1;stroke-linejoin:miter;stroke-miterlimit:10;"/><text fill="#000000" font-family="sans-serif" font-size="13" lengthAdjust="spacing" textLength="131.498" x="555" y="866.1045">Use GPU for Inference</text></g><!--link gpuAccelerator to gpuHardware--><g class="link" data-entity-1="ent0017" data-entity-2="ent0020" data-link-type="dependency" data-source-line="63" id="lnk40"><path d="M429,974.2194 C429,996.8094 429,1026.0294 429,1048.7194" fill="none" id="gpuAccelerator-to-gpuHardware" style="stroke:#181818;stroke-width:1;"/><polygon fill="#181818" points="429,1053.7194,433,1044.7194,429,1048.7194,425,1044.7194,429,1053.7194" style="stroke:#181818;stroke-width:1;stroke-linejoin:miter;stroke-miterlimit:10;"/><text fill="#000000" font-family="sans-serif" font-size="13" lengthAdjust="spacing" textLength="139.4326" x="430" y="1020.6045">Access GPU Resources</text></g><!--link trainer to sqliteDB--><g class="link" data-entity-1="ent0012" data-entity-2="ent0019" data-link-type="dependency" data-source-line="65" id="lnk41"><path d="M247.13,816.5394 C253.05,818.5294 259.12,820.3094 265,821.6094 C452.05,863.0194 505.84,821.2794 695,851.6094 C727.14,856.7594 733.77,865.0194 766,869.6094 C816.41,876.7994 946.64,861.6594 995,877.6094 C1025.38,887.6294 1051.1297,906.2302 1070.9197,923.1502" fill="none" id="trainer-to-sqliteDB" style="stroke:#181818;stroke-width:1;"/><polygon fill="#181818" points="1074.72,926.3994,1070.4787,917.5105,1070.9197,923.1502,1065.28,923.5911,1074.72,926.3994" style="stroke:#181818;stroke-width:1;stroke-linejoin:miter;stroke-miterlimit:10;"/><text fill="#000000" font-family="sans-serif" font-size="13" lengthAdjust="spacing" textLength="119.2217" x="767" y="866.1045">Save Model Weights</text></g><!--link inferencer to sqliteDB--><g class="link" data-entity-1="ent0013" data-entity-2="ent0019" data-link-type="dependency" data-source-line="66" id="lnk42"><path d="M385.61,817.4194 C391.42,819.0594 397.3,820.5094 403,821.6094 C618.08,863.2694 682.56,798.1194 895,851.6094 C913.51,856.2694 915.66,864.3094 934,869.6094 C960.27,877.1994 969.47,867.8194 995,877.6094 C1024.46,888.9094 1049.8191,906.9423 1069.7491,923.3423" fill="none" id="inferencer-to-sqliteDB" style="stroke:#181818;stroke-width:1;"/><polygon fill="#181818" points="1073.61,926.5194,1069.202,917.712,1069.7491,923.3423,1064.1188,923.8894,1073.61,926.5194" style="stroke:#181818;stroke-width:1;stroke-linejoin:miter;stroke-miterlimit:10;"/><text fill="#000000" font-family="sans-serif" font-size="13" lengthAdjust="spacing" textLength="134.4053" x="935" y="866.1045">Save Inference Results</text></g><?plantuml-src VPHDRzim38Rl-XL4Bpi5lUym86tQBK22Pac3dLM5IOKwbYl9JRDX_ttKXxzaURtKUis7eKY-jj8M2ElhizBY5NPNO_4CStgM5eMjDS8CxjMvKYMMzdQ1LQ6kPtg4XUGdpS-CVO6DHaCIjrALiE9NrAnK1npeNeO_3EXFDFdWvb6hqc9vWFto1hY1Opplb-olIpslgaAAKUQUF95upMK9IygbZroWptqcgLNI-7jL7kMfrk6dXg3mxoRHPqs9PNbAA1lbIMvP7b5ZAJ01PQDFadTSlBccxL1_o4Yz12rAeNkFD22yAFtMxrqhJdKkxa8R5veNr5PCgGMt75QA7r3x-0ETmp7RhXXbm_DaP_Im8QF0NoXFhvRw9wtaXVmTWOkNU-fesWKtHWfOKqCA0rkib95MwMkOTtWRNhftAUuNcon0TwJ_naELrnef9RvlzZ0N0Wka3LEXobDLzwGmiT36RbZkt9-JQ-iB_GBSx7wkoA8-m0a-etalI5lSXLmFdxG-9I-YgmqJXQeFePOVN1ykNEFjVBDiYcaqNmTMj4pKSuc6TQQ4sUpRq4Vm5VQ6olC25yuzR1ZWaCH113L-mpY333Go464xoxM5nd4PQ6mUehQritHymLXQZUE6zkaL63u8MtolqT1SnqLbwVQRy4Ic8J2aOPdgidZtQHZoB8dquqYSIVZ39ugQbkEfmW2Q7DXi2m4Rr4OQIzSqTK6tPAEa3kWyJOXxyDkNZutEzdTnDgHgkgdbWCxaVQQRMXOQ6RrbtGd2vy7asP7BYNL-DAPToHmsz7d7jCvdpTNpBMitm_UkT-jyUBS9FdwGVFW12Ku4v-uZdTfk9p_nNwXdaYGkeiqtehktGsbjLAtfEAoljs0x_X6TtWubgIiDxYxUBEK_?></g></svg>