<svg xmlns="http://www.w3.org/2000/svg" xmlns:xlink="http://www.w3.org/1999/xlink" contentStyleType="text/css" data-diagram-type="DESCRIPTION" height="1140px" preserveAspectRatio="none" style="width:1837px;height:1140px;background:#F0F0F0;" version="1.1" viewBox="0 0 1837 1140" width="1837px" zoomAndPan="magnify"><?plantuml 1.2026.6?><defs/><g><rect fill="#F0F0F0" height="1140" style="stroke:none;stroke-width:1;" width="1837" x="0" y="0"/><g class="title" data-source-line="18"><text fill="#000000" font-family="sans-serif" font-size="14" font-weight="700" lengthAdjust="spacing" textLength="348.5645" x="740.7178" y="24.5332">Software Requirements Review System Architecture</text></g><!--cluster User Layer--><g class="cluster" data-qualified-name="User Layer" data-source-line="20" id="ent0001"><path d="M1226.5,44.6094 L1299.8789,44.6094 A3.75,3.75 0 0 1 1302.3789,47.1094 L1309.3789,68.2188 L1695.5,68.2188 A2.5,2.5 0 0 1 1698,70.7188 L1698,132.1094 A2.5,2.5 0 0 1 1695.5,134.6094 L1226.5,134.6094 A2.5,2.5 0 0 1 1224,132.1094 L1224,47.1094 A2.5,2.5 0 0 1 1226.5,44.6094" fill="none" style="stroke:#000000;stroke-width:1.5;"/><line style="stroke:#000000;stroke-width:1.5;" x1="1224" x2="1309.3789" y1="68.2188" y2="68.2188"/><text fill="#000000" font-family="sans-serif" font-size="14" font-weight="700" lengthAdjust="spacing" textLength="72.3789" x="1228" y="61.1426">User Layer</text></g><!--cluster Application Layer--><g class="cluster" data-qualified-name="Application Layer" data-source-line="26" id="ent0005"><path d="M547.5,184.6094 L665.9688,184.6094 A3.75,3.75 0 0 1 668.4688,187.1094 L675.4688,208.2188 L865.5,208.2188 A2.5,2.5 0 0 1 868,210.7188 L868,729.6094 A2.5,2.5 0 0 1 865.5,732.1094 L547.5,732.1094 A2.5,2.5 0 0 1 545,729.6094 L545,187.1094 A2.5,2.5 0 0 1 547.5,184.6094" fill="none" style="stroke:#000000;stroke-width:1.5;"/><line style="stroke:#000000;stroke-width:1.5;" x1="545" x2="675.4688" y1="208.2188" y2="208.2188"/><text fill="#000000" font-family="sans-serif" font-size="14" font-weight="700" lengthAdjust="spacing" textLength="117.4688" x="549" y="201.1426">Application Layer</text></g><!--cluster Data Layer--><g class="cluster" data-qualified-name="Data Layer" data-source-line="34" id="ent0011"><path d="M111.5,782.1094 L184.0928,782.1094 A3.75,3.75 0 0 1 186.5928,784.6094 L193.5928,805.7188 L1084.5,805.7188 A2.5,2.5 0 0 1 1087,808.2188 L1087,1122.6094 A2.5,2.5 0 0 1 1084.5,1125.1094 L111.5,1125.1094 A2.5,2.5 0 0 1 109,1122.6094 L109,784.6094 A2.5,2.5 0 0 1 111.5,782.1094" fill="none" style="stroke:#000000;stroke-width:1.5;"/><line style="stroke:#000000;stroke-width:1.5;" x1="109" x2="193.5928" y1="805.7188" y2="805.7188"/><text fill="#000000" font-family="sans-serif" font-size="14" font-weight="700" lengthAdjust="spacing" textLength="71.5928" x="113" y="798.6426">Data Layer</text></g><!--cluster REVIEW_DB--><g class="cluster" data-qualified-name="Data Layer.REVIEW_DB" data-source-line="35" id="ent0012"><path d="M141,844.1094 C141,834.1094 407.5,834.1094 407.5,834.1094 C407.5,834.1094 674,834.1094 674,844.1094 L674,1083.1094 C674,1093.1094 407.5,1093.1094 407.5,1093.1094 C407.5,1093.1094 141,1093.1094 141,1083.1094 L141,844.1094" fill="none" style="stroke:#181818;stroke-width:1;"/><path d="M141,844.1094 C141,854.1094 407.5,854.1094 407.5,854.1094 C407.5,854.1094 674,854.1094 674,844.1094" fill="none" style="stroke:#181818;stroke-width:1;"/><text fill="#000000" font-family="sans-serif" font-size="14" font-weight="700" lengthAdjust="spacing" textLength="108.9307" x="353.0347" y="870.6426">Review Artifacts</text></g><!--cluster External Systems--><g class="cluster" data-qualified-name="External Systems" data-source-line="47" id="ent0020"><path d="M1113.5,995.1094 L1231.2305,995.1094 A3.75,3.75 0 0 1 1233.7305,997.6094 L1240.7305,1018.7188 L1819.5,1018.7188 A2.5,2.5 0 0 1 1822,1021.2188 L1822,1082.6094 A2.5,2.5 0 0 1 1819.5,1085.1094 L1113.5,1085.1094 A2.5,2.5 0 0 1 1111,1082.6094 L1111,997.6094 A2.5,2.5 0 0 1 1113.5,995.1094" fill="none" style="stroke:#000000;stroke-width:1.5;"/><line style="stroke:#000000;stroke-width:1.5;" x1="1111" x2="1240.7305" y1="1018.7188" y2="1018.7188"/><text fill="#000000" font-family="sans-serif" font-size="14" font-weight="700" lengthAdjust="spacing" textLength="116.7305" x="1115" y="1011.6426">External Systems</text></g><!--entity REVIEWER--><g class="entity" data-qualified-name="User Layer.REVIEWER" data-source-line="21" id="ent0002"><rect fill="#E6F3FF" height="37.6094" rx="2.5" ry="2.5" style="stroke:#0066CC;stroke-width:0.5;" width="78.3516" x="1240" y="80.6094"/><text fill="#000000" font-family="sans-serif" font-size="14" lengthAdjust="spacing" textLength="58.3516" x="1250" y="105.1426">Reviewer</text></g><!--entity OWNER--><g class="entity" data-qualified-name="User Layer.OWNER" data-source-line="22" id="ent0003"><rect fill="#E6F3FF" height="37.6094" rx="2.5" ry="2.5" style="stroke:#0066CC;stroke-width:0.5;" width="152.2754" x="1353" y="80.6094"/><text fill="#000000" font-family="sans-serif" font-size="14" lengthAdjust="spacing" textLength="132.2754" x="1363" y="105.1426">Requirements Owner</text></g><!--entity STAKEHOLDER--><g class="entity" data-qualified-name="User Layer.STAKEHOLDER" data-source-line="23" id="ent0004"><rect fill="#E6F3FF" height="37.6094" rx="2.5" ry="2.5" style="stroke:#0066CC;stroke-width:0.5;" width="142.1787" x="1540" y="80.6094"/><text fill="#000000" font-family="sans-serif" font-size="14" lengthAdjust="spacing" textLength="122.1787" x="1550" y="105.1426">Project Stakeholder</text></g><!--entity REVIEW_MGMT--><g class="entity" data-qualified-name="Application Layer.REVIEW_MGMT" data-source-line="27" id="ent0006"><rect fill="#E6F3FF" height="37.6094" rx="2.5" ry="2.5" style="stroke:#0066CC;stroke-width:0.5;" width="151.5098" x="571" y="220.6094"/><text fill="#000000" font-family="sans-serif" font-size="14" lengthAdjust="spacing" textLength="131.5098" x="581" y="245.1426">Review Management</text></g><!--entity CHECKLIST_ENGINE--><g class="entity" data-qualified-name="Application Layer.CHECKLIST_ENGINE" data-source-line="28" id="ent0007"><rect fill="#E6F3FF" height="37.6094" rx="2.5" ry="2.5" style="stroke:#0066CC;stroke-width:0.5;" width="124.2754" x="575" y="382.1094"/><text fill="#000000" font-family="sans-serif" font-size="14" lengthAdjust="spacing" textLength="104.2754" x="585" y="406.6426">Checklist Engine</text></g><!--entity SCORING_SYS--><g class="entity" data-qualified-name="Application Layer.SCORING_SYS" data-source-line="29" id="ent0008"><rect fill="#E6F3FF" height="37.6094" rx="2.5" ry="2.5" style="stroke:#0066CC;stroke-width:0.5;" width="118.0342" x="561" y="543.6094"/><text fill="#000000" font-family="sans-serif" font-size="14" lengthAdjust="spacing" textLength="98.0342" x="571" y="568.1426">Scoring System</text></g><!--entity PROBLEM_REPORT--><g class="entity" data-qualified-name="Application Layer.PROBLEM_REPORT" data-source-line="30" id="ent0009"><rect fill="#E6F3FF" height="37.6094" rx="2.5" ry="2.5" style="stroke:#0066CC;stroke-width:0.5;" width="136.7236" x="714.5" y="543.6094"/><text fill="#000000" font-family="sans-serif" font-size="14" lengthAdjust="spacing" textLength="116.7236" x="724.5" y="568.1426">Problem Reporting</text></g><!--entity REPORT_GEN--><g class="entity" data-qualified-name="Application Layer.REPORT_GEN" data-source-line="31" id="ent0010"><rect fill="#E6F3FF" height="37.6094" rx="2.5" ry="2.5" style="stroke:#0066CC;stroke-width:0.5;" width="135.1787" x="716.5" y="678.1094"/><text fill="#000000" font-family="sans-serif" font-size="14" lengthAdjust="spacing" textLength="115.1787" x="726.5" y="702.6426">Report Generation</text></g><!--entity STANDARDS_REPO--><g class="entity" data-qualified-name="Data Layer.STANDARDS_REPO" data-source-line="43" id="ent0018"><rect fill="#E6F3FF" height="37.6094" rx="2.5" ry="2.5" style="stroke:#0066CC;stroke-width:0.5;" width="154.627" x="915.5" y="893.1094"/><text fill="#000000" font-family="sans-serif" font-size="14" lengthAdjust="spacing" textLength="134.627" x="925.5" y="917.6426">Standards Repository</text></g><!--entity REQ_DOCS--><g class="entity" data-qualified-name="Data Layer.REQ_DOCS" data-source-line="44" id="ent0019"><rect fill="#E6F3FF" height="37.6094" rx="2.5" ry="2.5" style="stroke:#0066CC;stroke-width:0.5;" width="181.8477" x="698" y="893.1094"/><text fill="#000000" font-family="sans-serif" font-size="14" lengthAdjust="spacing" textLength="161.8477" x="708" y="917.6426">Requirements Documents</text></g><!--entity Review Purpose Data--><g class="entity" data-qualified-name="Data Layer.REVIEW_DB.Review Purpose Data" data-source-line="36" id="ent0013"><rect fill="#E6F3FF" height="37.6094" rx="2.5" ry="2.5" style="stroke:#0066CC;stroke-width:0.5;" width="155.3994" x="184.5" y="893.1094"/><text fill="#000000" font-family="sans-serif" font-size="14" lengthAdjust="spacing" textLength="135.3994" x="194.5" y="917.6426">Review Purpose Data</text></g><!--entity Checklist Items--><g class="entity" data-qualified-name="Data Layer.REVIEW_DB.Checklist Items" data-source-line="37" id="ent0014"><rect fill="#E6F3FF" height="37.6094" rx="2.5" ry="2.5" style="stroke:#0066CC;stroke-width:0.5;" width="114.9102" x="374.5" y="893.1094"/><text fill="#000000" font-family="sans-serif" font-size="14" lengthAdjust="spacing" textLength="94.9102" x="384.5" y="917.6426">Checklist Items</text></g><!--entity Problem Reports--><g class="entity" data-qualified-name="Data Layer.REVIEW_DB.Problem Reports" data-source-line="38" id="ent0015"><rect fill="#E6F3FF" height="37.6094" rx="2.5" ry="2.5" style="stroke:#0066CC;stroke-width:0.5;" width="125.041" x="524.5" y="893.1094"/><text fill="#000000" font-family="sans-serif" font-size="14" lengthAdjust="spacing" textLength="105.041" x="534.5" y="917.6426">Problem Reports</text></g><!--entity Score Records--><g class="entity" data-qualified-name="Data Layer.REVIEW_DB.Score Records" data-source-line="39" id="ent0016"><rect fill="#E6F3FF" height="37.6094" rx="2.5" ry="2.5" style="stroke:#0066CC;stroke-width:0.5;" width="112.5928" x="205.5" y="1031.1094"/><text fill="#000000" font-family="sans-serif" font-size="14" lengthAdjust="spacing" textLength="92.5928" x="215.5" y="1055.6426">Score Records</text></g><!--entity Review Metadata--><g class="entity" data-qualified-name="Data Layer.REVIEW_DB.Review Metadata" data-source-line="40" id="ent0017"><rect fill="#E6F3FF" height="37.6094" rx="2.5" ry="2.5" style="stroke:#0066CC;stroke-width:0.5;" width="128.165" x="354" y="1031.1094"/><text fill="#000000" font-family="sans-serif" font-size="14" lengthAdjust="spacing" textLength="108.165" x="364" y="1055.6426">Review Metadata</text></g><!--entity INDUSTRY_STD--><g class="entity" data-qualified-name="External Systems.INDUSTRY_STD" data-source-line="48" id="ent0021"><rect fill="#E6F3FF" height="37.6094" rx="2.5" ry="2.5" style="stroke:#0066CC;stroke-width:0.5;" width="137.5098" x="1668" y="1031.1094"/><text fill="#000000" font-family="sans-serif" font-size="14" lengthAdjust="spacing" textLength="117.5098" x="1678" y="1055.6426">Industry Standards</text></g><!--entity PRODUCT_SPEC--><g class="entity" data-qualified-name="External Systems.PRODUCT_SPEC" data-source-line="49" id="ent0022"><rect fill="#E6F3FF" height="37.6094" rx="2.5" ry="2.5" style="stroke:#0066CC;stroke-width:0.5;" width="158.5166" x="1127.5" y="1031.1094"/><text fill="#000000" font-family="sans-serif" font-size="14" lengthAdjust="spacing" textLength="138.5166" x="1137.5" y="1055.6426">Product Specifications</text></g><!--entity BUSINESS_RULES--><g class="entity" data-qualified-name="External Systems.BUSINESS_RULES" data-source-line="50" id="ent0023"><rect fill="#E6F3FF" height="37.6094" rx="2.5" ry="2.5" style="stroke:#0066CC;stroke-width:0.5;" width="116.4893" x="1322" y="1031.1094"/><text fill="#000000" font-family="sans-serif" font-size="14" lengthAdjust="spacing" textLength="96.4893" x="1332" y="1055.6426">Business Rules</text></g><!--entity DOC_NORMS--><g class="entity" data-qualified-name="External Systems.DOC_NORMS" data-source-line="51" id="ent0024"><rect fill="#E6F3FF" height="37.6094" rx="2.5" ry="2.5" style="stroke:#0066CC;stroke-width:0.5;" width="159.2754" x="1473.5" y="1031.1094"/><text fill="#000000" font-family="sans-serif" font-size="14" lengthAdjust="spacing" textLength="139.2754" x="1483.5" y="1055.6426">Documentation Norms</text></g><g class="entity" data-qualified-name="GMN51" data-source-line="92" id="ent0052"><path d="M884.5,202.1094 L884.5,235.6094 L723.15,239.6094 L884.5,243.6094 L884.5,277.5156 A0,0 0 0 0 884.5,277.5156 L1067.3462,277.5156 A0,0 0 0 0 1067.3462,277.5156 L1067.3462,212.1094 L1057.3462,202.1094 L884.5,202.1094 A0,0 0 0 0 884.5,202.1094" fill="#FEFFDD" style="stroke:#181818;stroke-width:0.5;"/><path d="M1057.3462,202.1094 L1057.3462,212.1094 L1067.3462,212.1094 L1057.3462,202.1094" fill="#FEFFDD" style="stroke:#181818;stroke-width:0.5;"/><text fill="#000000" font-family="sans-serif" font-size="13" lengthAdjust="spacing" textLength="148.1162" x="890.5" y="220.6045">Manages review lifecycle:</text><text fill="#000000" font-family="sans-serif" font-size="13" lengthAdjust="spacing" textLength="106.939" x="890.5" y="236.9561">- Define objectives</text><text fill="#000000" font-family="sans-serif" font-size="13" lengthAdjust="spacing" textLength="102.5908" x="890.5" y="253.3076">- Set review basis</text><text fill="#000000" font-family="sans-serif" font-size="13" lengthAdjust="spacing" textLength="161.8462" x="890.5" y="269.6592">- Coordinate review process</text></g><g class="entity" data-qualified-name="GMN54" data-source-line="99" id="ent0055"><path d="M884.5,355.1094 L884.5,397.1094 L699.22,401.1094 L884.5,405.1094 L884.5,446.8672 A0,0 0 0 0 884.5,446.8672 L1093.3525,446.8672 A0,0 0 0 0 1093.3525,446.8672 L1093.3525,365.1094 L1083.3525,355.1094 L884.5,355.1094 A0,0 0 0 0 884.5,355.1094" fill="#FEFFDD" style="stroke:#181818;stroke-width:0.5;"/><path d="M1083.3525,355.1094 L1083.3525,365.1094 L1093.3525,365.1094 L1083.3525,355.1094" fill="#FEFFDD" style="stroke:#181818;stroke-width:0.5;"/><text fill="#000000" font-family="sans-serif" font-size="13" lengthAdjust="spacing" textLength="145.228" x="890.5" y="373.6045">Core review functionality:</text><text fill="#000000" font-family="sans-serif" font-size="13" lengthAdjust="spacing" textLength="135.1099" x="890.5" y="389.9561">- Completeness checks</text><text fill="#000000" font-family="sans-serif" font-size="13" lengthAdjust="spacing" textLength="152.458" x="890.5" y="406.3076">- Understandability checks</text><text fill="#000000" font-family="sans-serif" font-size="13" lengthAdjust="spacing" textLength="143.0508" x="890.5" y="422.6592">- Model accuracy checks</text><text fill="#000000" font-family="sans-serif" font-size="13" lengthAdjust="spacing" textLength="187.8525" x="890.5" y="439.0107">- Extension/improvement checks</text></g><g class="entity" data-qualified-name="GMN57" data-source-line="107" id="ent0058"><path d="M887,525.1094 L887,600.5156 L1090.8252,600.5156 L1090.8252,535.1094 L1080.8252,525.1094 L887,525.1094" fill="#FEFFDD" style="stroke:#181818;stroke-width:0.5;"/><path d="M1080.8252,525.1094 L1080.8252,535.1094 L1090.8252,535.1094 L1080.8252,525.1094" fill="#FEFFDD" style="stroke:#181818;stroke-width:1;"/><text fill="#000000" font-family="sans-serif" font-size="13" lengthAdjust="spacing" textLength="119.9517" x="893" y="543.6045">Scoring functionality:</text><text fill="#000000" font-family="sans-serif" font-size="13" lengthAdjust="spacing" textLength="182.8252" x="893" y="559.9561">- 4 dimensions x 10 points each</text><text fill="#000000" font-family="sans-serif" font-size="13" lengthAdjust="spacing" textLength="126.4517" x="893" y="576.3076">- Total score out of 40</text><text fill="#000000" font-family="sans-serif" font-size="13" lengthAdjust="spacing" textLength="150.2871" x="893" y="592.6592">- Quantitative assessment</text></g><g class="entity" data-qualified-name="GMN60" data-source-line="114" id="ent0061"><path d="M1126,525.1094 L1126,600.5156 L1303.7935,600.5156 L1303.7935,535.1094 L1293.7935,525.1094 L1126,525.1094" fill="#FEFFDD" style="stroke:#181818;stroke-width:0.5;"/><path d="M1293.7935,525.1094 L1293.7935,535.1094 L1303.7935,535.1094 L1293.7935,525.1094" fill="#FEFFDD" style="stroke:#181818;stroke-width:1;"/><text fill="#000000" font-family="sans-serif" font-size="13" lengthAdjust="spacing" textLength="101.1499" x="1132" y="543.6045">Problem tracking:</text><text fill="#000000" font-family="sans-serif" font-size="13" lengthAdjust="spacing" textLength="122.8271" x="1132" y="559.9561">- Requirement issues</text><text fill="#000000" font-family="sans-serif" font-size="13" lengthAdjust="spacing" textLength="156.7935" x="1132" y="576.3076">- Improvement suggestions</text><text fill="#000000" font-family="sans-serif" font-size="13" lengthAdjust="spacing" textLength="111.998" x="1132" y="592.6592">- Overall evaluation</text></g><!--link REVIEWER to REVIEW_MGMT--><g class="link" data-entity-1="ent0002" data-entity-2="ent0006" data-link-type="dependency" data-source-line="55" id="lnk25"><path d="M1239.84,106.5994 C1166.33,118.1094 1002.84,145.0094 867,176.6094 C811.73,189.4694 754.3489,205.8719 710.2389,219.1119" fill="none" id="REVIEWER-to-REVIEW_MGMT" style="stroke:#333333;stroke-width:2;"/><polygon fill="#333333" points="705.45,220.5494,715.22,221.7931,710.2389,219.1119,712.9201,214.1309,705.45,220.5494" style="stroke:#333333;stroke-width:2;stroke-linejoin:miter;stroke-miterlimit:10;"/><text fill="#000000" font-family="sans-serif" font-size="13" lengthAdjust="spacing" textLength="85.2554" x="980" y="165.1045">initiates review</text></g><!--link REVIEWER to CHECKLIST_ENGINE--><g class="link" data-entity-1="ent0002" data-entity-2="ent0007" data-link-type="dependency" data-source-line="56" id="lnk26"><path d="M1246.36,118.6494 C1222.45,132.7194 1189.96,153.6694 1165,176.6094 C1122.97,215.2394 1132.65,245.6694 1085,277.1094 C1021.21,319.1994 811.2811,365.3797 703.9711,387.0497" fill="none" id="REVIEWER-to-CHECKLIST_ENGINE" style="stroke:#333333;stroke-width:2;"/><polygon fill="#333333" points="699.07,388.0394,708.6837,390.1787,703.9711,387.0497,707.1002,382.337,699.07,388.0394" style="stroke:#333333;stroke-width:2;stroke-linejoin:miter;stroke-miterlimit:10;"/><text fill="#000000" font-family="sans-serif" font-size="13" lengthAdjust="spacing" textLength="80.9199" x="1166" y="245.1045">uses checklist</text></g><!--link REVIEWER to SCORING_SYS--><g class="link" data-entity-1="ent0002" data-entity-2="ent0008" data-link-type="dependency" data-source-line="57" id="lnk27"><path d="M1279.21,118.7794 C1278.92,151.7994 1275.27,223.2194 1251,277.1094 C1210.81,366.3594 1195.25,397.2894 1111,447.1094 C949.83,542.4194 875.06,467.1994 697,525.1094 C682.23,529.9094 671.0982,534.6955 657.8282,541.2855" fill="none" id="REVIEWER-to-SCORING_SYS" style="stroke:#333333;stroke-width:2;"/><polygon fill="#333333" points="653.35,543.5094,663.1899,543.0889,657.8282,541.2855,659.6316,535.9238,653.35,543.5094" style="stroke:#333333;stroke-width:2;stroke-linejoin:miter;stroke-miterlimit:10;"/><text fill="#000000" font-family="sans-serif" font-size="13" lengthAdjust="spacing" textLength="78.0317" x="1238" y="321.6045">enters scores</text></g><!--link REVIEWER to PROBLEM_REPORT--><g class="link" data-entity-1="ent0002" data-entity-2="ent0009" data-link-type="dependency" data-source-line="58" id="lnk28"><path d="M1287.96,118.6594 C1292.13,127.9594 1296.67,139.6394 1299,150.6094 C1331.15,301.8794 1371.38,399.2694 1250,495.1094 C1183.52,547.5994 952.32,505.1394 870,525.1094 C852.65,529.3194 838.8571,534.502 823.5071,541.432" fill="none" id="REVIEWER-to-PROBLEM_REPORT" style="stroke:#333333;stroke-width:2;"/><polygon fill="#333333" points="818.95,543.4894,828.7987,543.4318,823.5071,541.432,825.5069,536.1404,818.95,543.4894" style="stroke:#333333;stroke-width:2;stroke-linejoin:miter;stroke-miterlimit:10;"/><text fill="#000000" font-family="sans-serif" font-size="13" lengthAdjust="spacing" textLength="80.9199" x="1332" y="321.6045">reports issues</text></g><!--link OWNER to REPORT_GEN--><g class="link" data-entity-1="ent0003" data-entity-2="ent0010" data-link-type="dependency" data-source-line="59" id="lnk29"><path d="M1433.34,118.7894 C1439.22,145.0694 1449,195.2794 1449,238.6094 C1449,238.6094 1449,238.6094 1449,563.6094 C1449,684.4894 1026.01,696.6964 856.73,696.7964" fill="none" id="OWNER-to-REPORT_GEN" style="stroke:#333333;stroke-width:2;"/><polygon fill="#333333" points="851.73,696.7994,860.73,700.7994,856.73,696.7994,860.73,692.7994,851.73,696.7994" style="stroke:#333333;stroke-width:2;stroke-linejoin:miter;stroke-miterlimit:10;"/><text fill="#000000" font-family="sans-serif" font-size="13" lengthAdjust="spacing" textLength="96.8271" x="1450" y="406.6045">receives findings</text></g><!--link STAKEHOLDER to REPORT_GEN--><g class="link" data-entity-1="ent0004" data-entity-2="ent0010" data-link-type="dependency" data-source-line="60" id="lnk30"><path d="M1612.3,118.8994 C1614.07,145.3194 1617,195.6794 1617,238.6094 C1617,238.6094 1617,238.6094 1617,563.6094 C1617,670.4294 1496.27,624.8994 1392,648.1094 C1199.5,690.9594 970.28,696.8681 856.94,696.8981" fill="none" id="STAKEHOLDER-to-REPORT_GEN" style="stroke:#333333;stroke-width:2;"/><polygon fill="#333333" points="851.94,696.8994,860.94,700.8994,856.94,696.8994,860.94,692.8994,851.94,696.8994" style="stroke:#333333;stroke-width:2;stroke-linejoin:miter;stroke-miterlimit:10;"/><text fill="#000000" font-family="sans-serif" font-size="13" lengthAdjust="spacing" textLength="74.4072" x="1618" y="406.6045">views results</text></g><!--link REVIEW_MGMT to CHECKLIST_ENGINE--><g class="link" data-entity-1="ent0006" data-entity-2="ent0007" data-link-type="dependency" data-source-line="63" id="lnk31"><path d="M645.85,258.9094 C643.92,289.6694 640.3628,346.4092 638.4428,377.0392" fill="none" id="REVIEW_MGMT-to-CHECKLIST_ENGINE" style="stroke:#333333;stroke-width:2;"/><polygon fill="#333333" points="638.13,382.0294,642.6852,373.2972,638.4428,377.0392,634.7009,372.7968,638.13,382.0294" style="stroke:#333333;stroke-width:2;stroke-linejoin:miter;stroke-miterlimit:10;"/><text fill="#000000" font-family="sans-serif" font-size="13" lengthAdjust="spacing" textLength="53.479" x="643" y="321.6045">manages</text></g><!--link CHECKLIST_ENGINE to SCORING_SYS--><g class="link" data-entity-1="ent0007" data-entity-2="ent0008" data-link-type="dependency" data-source-line="64" id="lnk32"><path d="M633.95,420.2494 C631.5,435.4094 628.12,457.6194 626,477.1094 C623.52,499.9194 622.114,521.3169 621.174,538.4469" fill="none" id="CHECKLIST_ENGINE-to-SCORING_SYS" style="stroke:#333333;stroke-width:2;"/><polygon fill="#333333" points="620.9,543.4394,625.3871,534.6721,621.174,538.4469,617.3991,534.2337,620.9,543.4394" style="stroke:#333333;stroke-width:2;stroke-linejoin:miter;stroke-miterlimit:10;"/><text fill="#000000" font-family="sans-serif" font-size="13" lengthAdjust="spacing" textLength="83.0972" x="627" y="491.6045">provides basis</text></g><!--link CHECKLIST_ENGINE to PROBLEM_REPORT--><g class="link" data-entity-1="ent0007" data-entity-2="ent0009" data-link-type="dependency" data-source-line="65" id="lnk33"><path d="M657.24,420.2394 C673.4,435.0394 696.35,456.7394 715,477.1094 C735.09,499.0494 753.2549,522.1183 766.5449,539.6083" fill="none" id="CHECKLIST_ENGINE-to-PROBLEM_REPORT" style="stroke:#333333;stroke-width:2;"/><polygon fill="#333333" points="769.57,543.5894,767.3097,534.0034,766.5449,539.6083,760.94,538.8435,769.57,543.5894" style="stroke:#333333;stroke-width:2;stroke-linejoin:miter;stroke-miterlimit:10;"/><text fill="#000000" font-family="sans-serif" font-size="13" lengthAdjust="spacing" textLength="43.3481" x="731" y="491.6045">triggers</text></g><!--link PROBLEM_REPORT to REPORT_GEN--><g class="link" data-entity-1="ent0009" data-entity-2="ent0010" data-link-type="dependency" data-source-line="66" id="lnk34"><path d="M783.14,581.7594 C783.33,606.9894 783.6325,647.4195 783.8225,672.7595" fill="none" id="PROBLEM_REPORT-to-REPORT_GEN" style="stroke:#333333;stroke-width:2;"/><polygon fill="#333333" points="783.86,677.7594,787.7924,668.7296,783.8225,672.7595,779.7926,668.7896,783.86,677.7594" style="stroke:#333333;stroke-width:2;stroke-linejoin:miter;stroke-miterlimit:10;"/><text fill="#000000" font-family="sans-serif" font-size="13" lengthAdjust="spacing" textLength="60.7153" x="784" y="644.6045">feeds data</text></g><!--link SCORING_SYS to REPORT_GEN--><g class="link" data-entity-1="ent0008" data-entity-2="ent0010" data-link-type="dependency" data-source-line="67" id="lnk35"><path d="M629.73,581.8394 C640.46,600.5094 659.24,629.3694 682,648.1094 C697.03,660.4894 711.2128,668.4771 728.5228,676.0871" fill="none" id="SCORING_SYS-to-REPORT_GEN" style="stroke:#333333;stroke-width:2;"/><polygon fill="#333333" points="733.1,678.0994,726.4709,670.8155,728.5228,676.0871,723.2512,678.139,733.1,678.0994" style="stroke:#333333;stroke-width:2;stroke-linejoin:miter;stroke-miterlimit:10;"/><text fill="#000000" font-family="sans-serif" font-size="13" lengthAdjust="spacing" textLength="91.0381" x="683" y="644.6045">provides scores</text></g><!--link REVIEW_MGMT to REVIEW_DB--><g class="link" data-entity-1="ent0006" data-entity-2="ent0012" data-link-type="dependency" data-source-line="70" id="lnk36"><path d="M570.95,243.5694 C401.16,252.2594 6,284.8594 6,400.1094 C6,400.1094 6,400.1094 6,698.1094 C6,754.2294 40.6425,806.7044 75.8263,845.5281 C93.4181,864.94 111.1453,880.9391 124.7452,892.2745 C128.1451,895.1084 131.2871,897.6508 134.1046,899.8822 C135.5133,900.9979 136.8409,902.0358 138.079,902.9935 C138.698,903.4724 139.2947,903.9312 139.868,904.3697 C140.1546,904.5889 136.4558,901.7761 136.7306,901.9852" fill="none" id="REVIEW_MGMT-to-REVIEW_DB" style="stroke:#333333;stroke-width:2;"/><polygon fill="#333333" points="140.7102,905.0121,135.9683,896.3799,136.7306,901.9852,131.1253,902.7474,140.7102,905.0121" style="stroke:#333333;stroke-width:2;stroke-linejoin:miter;stroke-miterlimit:10;"/><text fill="#000000" font-family="sans-serif" font-size="13" lengthAdjust="spacing" textLength="88.8608" x="7" y="568.1045">stores/retrieves</text></g><!--link CHECKLIST_ENGINE to REVIEW_DB--><g class="link" data-entity-1="ent0007" data-entity-2="ent0012" data-link-type="dependency" data-source-line="71" id="lnk37"><path d="M574.83,406.8394 C506.67,414.1494 395.74,432.3694 311,477.1094 C283.19,491.7894 280.57,502.2194 259,525.1094 C217.63,569.0094 195.69,574.2194 173,630.1094 C149.79,687.2694 143.6125,756.2344 143.3238,811.5369 C143.2877,818.4497 143.3436,825.149 143.4697,831.5851 C143.4855,832.3897 143.3898,828.1913 143.4078,828.9875" fill="none" id="CHECKLIST_ENGINE-to-REVIEW_DB" style="stroke:#333333;stroke-width:2;"/><polygon fill="#333333" points="143.5203,833.9863,147.3167,824.8985,143.4078,828.9875,139.3188,825.0786,143.5203,833.9863" style="stroke:#333333;stroke-width:2;stroke-linejoin:miter;stroke-miterlimit:10;"/><text fill="#000000" font-family="sans-serif" font-size="13" lengthAdjust="spacing" textLength="88.8608" x="174" y="644.6045">accesses items</text></g><!--link SCORING_SYS to REVIEW_DB--><g class="link" data-entity-1="ent0008" data-entity-2="ent0012" data-link-type="dependency" data-source-line="72" id="lnk38"><path d="M579.78,581.7194 C470.31,631.1094 174.7,765.0394 168,774.1094 C159.01,786.2769 153.2944,800.7525 149.7859,815.6634 C148.9088,819.3912 148.1697,823.1461 147.5518,826.899 C147.2428,828.7754 146.9642,830.6514 146.7138,832.5231 C146.6512,832.9911 147.2177,828.4983 147.1586,828.9656" fill="none" id="SCORING_SYS-to-REVIEW_DB" style="stroke:#333333;stroke-width:2;"/><polygon fill="#333333" points="146.5313,833.9261,151.6288,825.499,147.1586,828.9656,143.692,824.4954,146.5313,833.9261" style="stroke:#333333;stroke-width:2;stroke-linejoin:miter;stroke-miterlimit:10;"/><text fill="#000000" font-family="sans-serif" font-size="13" lengthAdjust="spacing" textLength="77.3018" x="368" y="702.6045">stores scores</text></g><!--link PROBLEM_REPORT to REVIEW_DB--><g class="link" data-entity-1="ent0009" data-entity-2="ent0012" data-link-type="dependency" data-source-line="73" id="lnk39"><path d="M747.85,581.6094 C722.07,594.8794 686.27,613.4394 655,630.1094 C565.14,678.0294 551,709.0894 454,740.1094 C450.19,741.3294 170.86,771.3094 168,774.1094 C157.2,784.7019 150.565,798.3781 146.6991,812.9788 C145.7326,816.6289 144.9392,820.3368 144.297,824.0688 C143.9759,825.9348 143.6926,827.8068 143.4445,829.6806 C143.3204,830.6174 143.2051,831.5548 143.0982,832.492 C143.0447,832.9607 143.5163,828.4567 143.467,828.9252" fill="none" id="PROBLEM_REPORT-to-REVIEW_DB" style="stroke:#333333;stroke-width:2;"/><polygon fill="#333333" points="142.9441,833.8978,147.8635,825.3655,143.467,828.9252,139.9073,824.5288,142.9441,833.8978" style="stroke:#333333;stroke-width:2;stroke-linejoin:miter;stroke-miterlimit:10;"/><text fill="#000000" font-family="sans-serif" font-size="13" lengthAdjust="spacing" textLength="79.4727" x="576" y="702.6045">stores reports</text></g><!--link REPORT_GEN to REVIEW_DB--><g class="link" data-entity-1="ent0010" data-entity-2="ent0012" data-link-type="dependency" data-source-line="74" id="lnk40"><path d="M747.71,716.2994 C730.28,724.4694 708.91,733.6994 689,740.1094 C635.4,757.3694 620.95,759.7394 565,766.1094 C554.04,767.3594 176.24,766.7794 168,774.1094 C156.6925,784.1594 149.8,797.56 145.8342,812.0534 C144.8428,815.6768 144.0342,819.3685 143.3854,823.0931 C143.061,824.9555 142.7764,826.8261 142.5289,828.7005 C142.4052,829.6377 142.2907,830.5759 142.1851,831.5145 C142.1323,831.9838 142.0817,832.4532 142.0333,832.9226 C142.0091,833.1574 142.4755,828.4162 142.4524,828.6509" fill="none" id="REPORT_GEN-to-REVIEW_DB" style="stroke:#333333;stroke-width:2;"/><polygon fill="#333333" points="141.9623,833.6268,146.8253,825.0623,142.4524,828.6509,138.8638,824.2781,141.9623,833.6268" style="stroke:#333333;stroke-width:2;stroke-linejoin:miter;stroke-miterlimit:10;"/><text fill="#000000" font-family="sans-serif" font-size="13" lengthAdjust="spacing" textLength="78.7617" x="661" y="762.6045">retrieves data</text></g><!--link CHECKLIST_ENGINE to STANDARDS_REPO--><g class="link" data-entity-1="ent0007" data-entity-2="ent0018" data-link-type="dependency" data-source-line="76" id="lnk41"><path d="M605.13,420.2594 C516.04,473.0894 277.77,629.9794 385,740.1094 C390.82,746.0794 676.69,747.4894 685,748.1094 C780.11,755.1694 816.35,724.8294 898,774.1094 C944.34,802.0794 971.7761,857.6619 984.2261,888.0819" fill="none" id="CHECKLIST_ENGINE-to-STANDARDS_REPO" style="stroke:#333333;stroke-width:2;"/><polygon fill="#333333" points="986.12,892.7094,986.413,882.8649,984.2261,888.0819,979.0091,885.8951,986.12,892.7094" style="stroke:#333333;stroke-width:2;stroke-linejoin:miter;stroke-miterlimit:10;"/><text fill="#000000" font-family="sans-serif" font-size="13" lengthAdjust="spacing" textLength="61.4199" x="369" y="644.6045">references</text></g><!--link CHECKLIST_ENGINE to REQ_DOCS--><g class="link" data-entity-1="ent0007" data-entity-2="ent0019" data-link-type="dependency" data-source-line="77" id="lnk42"><path d="M574.84,402.0194 C508.85,405.1794 405.16,419.8594 339,477.1094 C277.76,530.1094 252.63,570.5594 276,648.1094 C290.16,695.0794 295.21,714.4094 337,740.1094 C420.86,791.6994 458.99,756.7294 557,766.1094 C581.18,768.4194 644.2,763.4094 666,774.1094 C719.95,800.5794 758.4665,857.7429 776.4665,888.5329" fill="none" id="CHECKLIST_ENGINE-to-REQ_DOCS" style="stroke:#333333;stroke-width:2;"/><polygon fill="#333333" points="778.99,892.8494,777.901,883.0609,776.4665,888.5329,770.9946,887.0984,778.99,892.8494" style="stroke:#333333;stroke-width:2;stroke-linejoin:miter;stroke-miterlimit:10;"/><text fill="#000000" font-family="sans-serif" font-size="13" lengthAdjust="spacing" textLength="44.0654" x="277" y="644.6045">reviews</text></g><!--link STANDARDS_REPO to INDUSTRY_STD--><g class="link" data-entity-1="ent0018" data-entity-2="ent0021" data-link-type="dependency" data-source-line="80" id="lnk43"><path d="M1070.67,914.0094 C1242.85,916.6194 1645.44,926.4094 1696,961.1094 C1719.35,977.1294 1728.6804,1005.1265 1733.0404,1025.8465" fill="none" id="STANDARDS_REPO-to-INDUSTRY_STD" style="stroke:#333333;stroke-width:2;"/><polygon fill="#333333" points="1734.07,1030.7394,1736.131,1021.1086,1733.0404,1025.8465,1728.3025,1022.7559,1734.07,1030.7394" style="stroke:#333333;stroke-width:2;stroke-linejoin:miter;stroke-miterlimit:10;"/><text fill="#000000" font-family="sans-serif" font-size="13" lengthAdjust="spacing" textLength="71.5381" x="1713" y="975.6045">incorporates</text></g><!--link STANDARDS_REPO to PRODUCT_SPEC--><g class="link" data-entity-1="ent0018" data-entity-2="ent0022" data-link-type="dependency" data-source-line="81" id="lnk44"><path d="M1070.88,921.2494 C1102.28,927.8294 1137.13,939.6994 1163,961.1094 C1184.85,979.1794 1195.4791,1006.0138 1201.2291,1026.0238" fill="none" id="STANDARDS_REPO-to-PRODUCT_SPEC" style="stroke:#333333;stroke-width:2;"/><polygon fill="#333333" points="1202.61,1030.8294,1203.9688,1021.0747,1201.2291,1026.0238,1196.28,1023.2841,1202.61,1030.8294" style="stroke:#333333;stroke-width:2;stroke-linejoin:miter;stroke-miterlimit:10;"/><text fill="#000000" font-family="sans-serif" font-size="13" lengthAdjust="spacing" textLength="71.5381" x="1179" y="975.6045">incorporates</text></g><!--link STANDARDS_REPO to BUSINESS_RULES--><g class="link" data-entity-1="ent0018" data-entity-2="ent0023" data-link-type="dependency" data-source-line="82" id="lnk45"><path d="M1070.52,919.9594 C1124.6,926.4494 1197.75,938.6694 1259,961.1094 C1300.22,976.2094 1336.1271,1006.2834 1358.2371,1027.3134" fill="none" id="STANDARDS_REPO-to-BUSINESS_RULES" style="stroke:#333333;stroke-width:2;"/><polygon fill="#333333" points="1361.86,1030.7594,1358.0955,1021.6583,1358.2371,1027.3134,1352.582,1027.455,1361.86,1030.7594" style="stroke:#333333;stroke-width:2;stroke-linejoin:miter;stroke-miterlimit:10;"/><text fill="#000000" font-family="sans-serif" font-size="13" lengthAdjust="spacing" textLength="71.5381" x="1296" y="975.6045">incorporates</text></g><!--link STANDARDS_REPO to DOC_NORMS--><g class="link" data-entity-1="ent0018" data-entity-2="ent0024" data-link-type="dependency" data-source-line="83" id="lnk46"><path d="M1070.61,912.4994 C1165.84,914.5994 1330.15,927.6294 1456,987.1094 C1482.02,999.4094 1505.3779,1014.6021 1524.4079,1028.0621" fill="none" id="STANDARDS_REPO-to-DOC_NORMS" style="stroke:#333333;stroke-width:2;"/><polygon fill="#333333" points="1528.49,1030.9494,1523.452,1022.4866,1524.4079,1028.0621,1518.8324,1029.0179,1528.49,1030.9494" style="stroke:#333333;stroke-width:2;stroke-linejoin:miter;stroke-miterlimit:10;"/><text fill="#000000" font-family="sans-serif" font-size="13" lengthAdjust="spacing" textLength="71.5381" x="1434" y="975.6045">incorporates</text></g><!--link REQ_DOCS to INDUSTRY_STD--><g class="link" data-entity-1="ent0019" data-entity-2="ent0021" data-link-type="dependency" data-source-line="86" id="lnk47"><path d="M880.19,928.9594 C886.2,929.7594 892.18,930.4894 898,931.1094 C1170.56,960.1494 1242.44,923.8494 1514,961.1094 C1549.68,965.9994 1557.58,972.5994 1593,979.1094 C1618.16,983.7294 1626.24,977.6394 1650,987.1094 C1675.67,997.3394 1697.1456,1013.4016 1713.7756,1027.7616" fill="none" id="REQ_DOCS-to-INDUSTRY_STD" style="stroke:#333333;stroke-width:2;stroke-dasharray:7,7;"/><polygon fill="#333333" points="1717.56,1031.0294,1713.3624,1022.1198,1713.7756,1027.7616,1708.1339,1028.1748,1717.56,1031.0294" style="stroke:#333333;stroke-width:2;stroke-linejoin:miter;stroke-miterlimit:10;"/><text fill="#000000" font-family="sans-serif" font-size="13" lengthAdjust="spacing" textLength="93.1963" x="1594" y="975.6045">must conform to</text></g><!--link REQ_DOCS to PRODUCT_SPEC--><g class="link" data-entity-1="ent0019" data-entity-2="ent0022" data-link-type="dependency" data-source-line="87" id="lnk48"><path d="M791.56,931.3794 C794.68,946.5094 801.46,967.3594 816,979.1094 C862.73,1016.8794 1022.0065,1035.2538 1122.1565,1043.4038" fill="none" id="REQ_DOCS-to-PRODUCT_SPEC" style="stroke:#333333;stroke-width:2;stroke-dasharray:7,7;"/><polygon fill="#333333" points="1127.14,1043.8094,1118.4941,1039.0926,1122.1565,1043.4038,1117.8452,1047.0662,1127.14,1043.8094" style="stroke:#333333;stroke-width:2;stroke-linejoin:miter;stroke-miterlimit:10;"/><text fill="#000000" font-family="sans-serif" font-size="13" lengthAdjust="spacing" textLength="85.979" x="817" y="975.6045">must align with</text></g><!--link REQ_DOCS to BUSINESS_RULES--><g class="link" data-entity-1="ent0019" data-entity-2="ent0023" data-link-type="dependency" data-source-line="88" id="lnk49"><path d="M833.9,931.1994 C881.46,950.2894 950.61,977.8194 957,979.1094 C994.81,986.7194 1267.82,973.7494 1304,987.1094 C1328.12,996.0194 1346.7934,1012.3576 1360.8734,1027.2376" fill="none" id="REQ_DOCS-to-BUSINESS_RULES" style="stroke:#333333;stroke-width:2;stroke-dasharray:7,7;"/><polygon fill="#333333" points="1364.31,1030.8694,1361.0297,1021.5829,1360.8734,1027.2376,1355.2187,1027.0814,1364.31,1030.8694" style="stroke:#333333;stroke-width:2;stroke-linejoin:miter;stroke-miterlimit:10;"/><text fill="#000000" font-family="sans-serif" font-size="13" lengthAdjust="spacing" textLength="65.019" x="958" y="975.6045">must follow</text></g><!--link REQ_DOCS to DOC_NORMS--><g class="link" data-entity-1="ent0019" data-entity-2="ent0024" data-link-type="dependency" data-source-line="89" id="lnk50"><path d="M880.2,929.1494 C935.62,939.3394 1000.79,952.2294 1028,961.1094 C1046.15,967.0294 1048.4,974.8194 1067,979.1094 C1109.13,988.8194 1414.63,974.5594 1456,987.1094 C1485.07,995.9294 1509.9269,1013.0018 1528.4769,1027.9518" fill="none" id="REQ_DOCS-to-DOC_NORMS" style="stroke:#333333;stroke-width:2;stroke-dasharray:7,7;"/><polygon fill="#333333" points="1532.37,1031.0894,1527.8725,1022.3274,1528.4769,1027.9518,1522.8525,1028.5563,1532.37,1031.0894" style="stroke:#333333;stroke-width:2;stroke-linejoin:miter;stroke-miterlimit:10;"/><text fill="#000000" font-family="sans-serif" font-size="13" lengthAdjust="spacing" textLength="86.7153" x="1068" y="975.6045">must adhere to</text></g><!--link SCORING_SYS to GMN57--><g class="link" data-entity-1="ent0008" data-entity-2="ent0058" data-link-type="association" data-source-line="107" id="lnk59"><path d="M636.15,543.5094 C653.35,524.7894 682.46,497.4494 714.5,486.1094 C771.48,465.9394 791.97,471.0194 850.5,486.1094 C880.56,493.8594 911.07,509.6694 935.77,524.9194" fill="none" id="SCORING_SYS-GMN57" style="stroke:#333333;stroke-width:2;stroke-dasharray:7,7;"/></g><!--link PROBLEM_REPORT to GMN60--><g class="link" data-entity-1="ent0009" data-entity-2="ent0061" data-link-type="association" data-source-line="114" id="lnk62"><path d="M801.28,543.4694 C820.63,524.7194 853.09,497.3594 887.5,486.1094 C973.68,457.9394 1004.3,461.2894 1091.5,486.1094 C1118.91,493.9094 1146.19,509.7294 1168.1,524.9694" fill="none" id="PROBLEM_REPORT-GMN60" style="stroke:#333333;stroke-width:2;stroke-dasharray:7,7;"/></g><?plantuml-src ZLPDZzis4BthLx3RGqwRR9jW3tieu9LanuY_8jaD5a5WqDB8PbScLPAoOmJvxnsIagqFkuZti3RdSURDuyoGlwMGCGvaCdW9ep3mr2lZ1PLqJnAnBmG7hcDzoe58I3JbsnmQa0rDNhTIb3prHIua-NtuOFwkEI4_F4AUk_ZmSVX-E3GM8LEGrUh3m-EZx-FgK71zNZCVxsV3zvdHTTz3--dwVcy_BJzKId6qFjeOGfOxbhnoK8hyYJiypJG6YqMcZrG2YU3VaadOOtOAVnmO74byKXhsP22J7TF8hvJWUGLIeriWToi5aape2UITZVVLxGBvZL1q4Vuz3h-4aJCqVC-Fl8BClyoSVI75F-YUn9g-maxaQGM8buDFuSVv943OpqRaGL7aBA6Q2Nw509bIZZ0JhS5aFHrDbmRaxo1vpPdI9EHRB1QByJ-6_gV9E5wkmzbeF0iDC4w4P7nRgU08-VDeF1kjuvUuuht9KQ082Y4rOYre4SsV9-5q7OMBURHql8oTZ00pjwmhNiQ-7eMpLd81rRIPLOg_DrIXfKflWA4occXrryWkUBRWYmYBKXO2TnbttvpbalaO4rBLQZk9UjKaRue2_wNrMYqlQ9fMNf6u0MFbfXI1rebYMiXJVO2pO105iHMZLmg1I4hxhTBZypgO-t5BZV2x1ibfNfs2gavwpDDIQNaYvz3MnNWMhE9bzBAEbq5rG6bf2gk0X6LLoQZwb8ALlrp7Yz0qvzVdKZ7R756PWuCyhs8iXHZ9hoQXFV2Qi2kzcP1xXqJQwzaycbhkRzwGIsiGBKYlN76GS8u5RyXuTQEG-_k_chLAdWZZJ3EgGU5qCDAtiTsQnGsbGcnI7tCRtgXTH68I81LHvfWx7DhrYrZfAeCmfKe4sxQjsDOLR549i0F6nmcSOYyehz6-VRZ9n-IbobmhArfV9iQhm-_hvIIw8SFU3W3bzKnz7Gef3Yn5rjXYxCQEdY1QikqMvVCwbbwI6G0sXMaMhncsXpkpgCxZkXnOIfVXyB-QN8R24r7Qk7md0Ld3uPOgpHqqIR0Ha0qp7NU5UTTvJVkg73rmLKvUGu4kyapMQNVZ85l3nUxAG09FRkVe1eo5slgpGZSqHOMx0wUbSoUaSTeSERPbKGhCptJjDNXpxFm2l3s2Vc73UH9riIRJSsuf5C1Jb8hPvgzaUVksbyuUfwnH8CDHX-gqiPrSB9RcRCl9aUbT6zjBnA8paUVYs4OsCt0kqnqUgudkSQ7nxSQsEqr4rhdOtQrVZqgIimoIKvB34zhkIU0UXc9Z7XfcJDdL67IDT_rl5ds1TnxZr8HoDcnFqn4UQaOCXIwHAwy7troVrVQivBP-K1jzUgfYx8iSDDWRnmvi5tk5foALlTCspC2Rngb88JVTMKgQj2pcOBd24E_OtimIUx_MW5kisu-P-hLpXUm7ahAzyw_8T_B70oa4C_Stq6Hd4KkXiQhi522YjDu_F5ZBvv9oV6bIepdUb3XLbE5sarJlyLG_JpJcZ8_ShQFKU4RKrv9P7ZUoLoNEQENwrjZc1tnyvJc10yrBErOl9Fu3?></g></svg>