<svg xmlns="http://www.w3.org/2000/svg" xmlns:xlink="http://www.w3.org/1999/xlink" contentStyleType="text/css" data-diagram-type="DESCRIPTION" height="980px" preserveAspectRatio="none" style="width:3188px;height:980px;background:#FFFFFF;" version="1.1" viewBox="0 0 3188 980" width="3188px" zoomAndPan="magnify"><?plantuml 1.2026.6?><defs/><g><g class="title" data-source-line="1"><text fill="#000000" font-family="sans-serif" font-size="14" font-weight="700" lengthAdjust="spacing" textLength="528.1992" x="1326.4004" y="24.5332">Model Evolution Version Management Visualization Tool - Layered Architecture</text></g><!--cluster Presentation Layer--><g class="cluster" data-qualified-name="Presentation Layer" data-source-line="3" id="ent0001"><path d="M396.5,44.6094 L523.5479,44.6094 A3.75,3.75 0 0 1 526.0479,47.1094 L533.0479,68.2188 L730.5,68.2188 A2.5,2.5 0 0 1 733,70.7188 L733,142.1094 A2.5,2.5 0 0 1 730.5,144.6094 L396.5,144.6094 A2.5,2.5 0 0 1 394,142.1094 L394,47.1094 A2.5,2.5 0 0 1 396.5,44.6094" fill="none" style="stroke:#000000;stroke-width:1.5;"/><line style="stroke:#000000;stroke-width:1.5;" x1="394" x2="533.0479" y1="68.2188" y2="68.2188"/><text fill="#000000" font-family="sans-serif" font-size="14" font-weight="700" lengthAdjust="spacing" textLength="126.0479" x="398" y="61.1426">Presentation Layer</text></g><!--cluster Application Layer--><g class="cluster" data-qualified-name="Application Layer" data-source-line="8" id="ent0004"><path d="M8.5,194.6094 L126.9688,194.6094 A3.75,3.75 0 0 1 129.4688,197.1094 L136.4688,218.2188 L1469.5,218.2188 A2.5,2.5 0 0 1 1472,220.7188 L1472,963.1094 A2.5,2.5 0 0 1 1469.5,965.6094 L8.5,965.6094 A2.5,2.5 0 0 1 6,963.1094 L6,197.1094 A2.5,2.5 0 0 1 8.5,194.6094" fill="none" style="stroke:#000000;stroke-width:1.5;"/><line style="stroke:#000000;stroke-width:1.5;" x1="6" x2="136.4688" y1="218.2188" y2="218.2188"/><text fill="#000000" font-family="sans-serif" font-size="14" font-weight="700" lengthAdjust="spacing" textLength="117.4688" x="10" y="211.1426">Application Layer</text></g><!--cluster Frontend Module--><g class="cluster" data-qualified-name="Application Layer.Frontend Module" data-source-line="9" id="ent0005"><path d="M40.5,246.6094 L155.0381,246.6094 A3.75,3.75 0 0 1 157.5381,249.1094 L164.5381,270.2188 L660.5,270.2188 A2.5,2.5 0 0 1 663,272.7188 L663,524.1094 A2.5,2.5 0 0 1 660.5,526.6094 L40.5,526.6094 A2.5,2.5 0 0 1 38,524.1094 L38,249.1094 A2.5,2.5 0 0 1 40.5,246.6094" fill="none" style="stroke:#000000;stroke-width:1.5;"/><line style="stroke:#000000;stroke-width:1.5;" x1="38" x2="164.5381" y1="270.2188" y2="270.2188"/><text fill="#000000" font-family="sans-serif" font-size="14" font-weight="700" lengthAdjust="spacing" textLength="113.5381" x="42" y="263.1426">Frontend Module</text></g><!--cluster Backend Module--><g class="cluster" data-qualified-name="Application Layer.Backend Module" data-source-line="18" id="ent0012"><path d="M705.5,410.6094 L817.7412,410.6094 A3.75,3.75 0 0 1 820.2412,413.1094 L827.2412,434.2188 L1437.5,434.2188 A2.5,2.5 0 0 1 1440,436.7188 L1440,765.1094 A2.5,2.5 0 0 1 1437.5,767.6094 L705.5,767.6094 A2.5,2.5 0 0 1 703,765.1094 L703,413.1094 A2.5,2.5 0 0 1 705.5,410.6094" fill="none" style="stroke:#000000;stroke-width:1.5;"/><line style="stroke:#000000;stroke-width:1.5;" x1="703" x2="827.2412" y1="434.2188" y2="434.2188"/><text fill="#000000" font-family="sans-serif" font-size="14" font-weight="700" lengthAdjust="spacing" textLength="111.2412" x="707" y="427.1426">Backend Module</text></g><!--cluster Algorithm Support Module--><g class="cluster" data-qualified-name="Application Layer.Algorithm Support Module" data-source-line="27" id="ent0019"><path d="M219.5,651.6094 L397.0313,651.6094 A3.75,3.75 0 0 1 399.5313,654.1094 L406.5313,675.2188 L631.5,675.2188 A2.5,2.5 0 0 1 634,677.7188 L634,931.1094 A2.5,2.5 0 0 1 631.5,933.6094 L219.5,933.6094 A2.5,2.5 0 0 1 217,931.1094 L217,654.1094 A2.5,2.5 0 0 1 219.5,651.6094" fill="none" style="stroke:#000000;stroke-width:1.5;"/><line style="stroke:#000000;stroke-width:1.5;" x1="217" x2="406.5313" y1="675.2188" y2="675.2188"/><text fill="#000000" font-family="sans-serif" font-size="14" font-weight="700" lengthAdjust="spacing" textLength="176.5313" x="221" y="668.1426">Algorithm Support Module</text></g><!--cluster Data Layer--><g class="cluster" data-qualified-name="Data Layer" data-source-line="35" id="ent0024"><path d="M2097.5,584.6094 L2170.0928,584.6094 A3.75,3.75 0 0 1 2172.5928,587.1094 L2179.5928,608.2188 L3170.5,608.2188 A2.5,2.5 0 0 1 3173,610.7188 L3173,963.1094 A2.5,2.5 0 0 1 3170.5,965.6094 L2097.5,965.6094 A2.5,2.5 0 0 1 2095,963.1094 L2095,587.1094 A2.5,2.5 0 0 1 2097.5,584.6094" fill="none" style="stroke:#000000;stroke-width:1.5;"/><line style="stroke:#000000;stroke-width:1.5;" x1="2095" x2="2179.5928" y1="608.2188" y2="608.2188"/><text fill="#000000" font-family="sans-serif" font-size="14" font-weight="700" lengthAdjust="spacing" textLength="71.5928" x="2099" y="601.1426">Data Layer</text></g><!--cluster MySQL Database--><g class="cluster" data-qualified-name="Data Layer.MySQL Database" data-source-line="36" id="ent0025"><path d="M2254,646.6094 C2254,636.6094 2463.5,636.6094 2463.5,636.6094 C2463.5,636.6094 2673,636.6094 2673,646.6094 L2673,923.6094 C2673,933.6094 2463.5,933.6094 2463.5,933.6094 C2463.5,933.6094 2254,933.6094 2254,923.6094 L2254,646.6094" fill="none" style="stroke:#181818;stroke-width:1;"/><path d="M2254,646.6094 C2254,656.6094 2463.5,656.6094 2463.5,656.6094 C2463.5,656.6094 2673,656.6094 2673,646.6094" fill="none" style="stroke:#181818;stroke-width:1;"/><text fill="#000000" font-family="sans-serif" font-size="14" font-weight="700" lengthAdjust="spacing" textLength="114.3721" x="2406.314" y="673.1426">MySQL Database</text></g><!--cluster Neo4j Graph Database--><g class="cluster" data-qualified-name="Data Layer.Neo4j Graph Database" data-source-line="43" id="ent0030"><path d="M2713,646.6094 C2713,636.6094 2927,636.6094 2927,636.6094 C2927,636.6094 3141,636.6094 3141,646.6094 L3141,923.6094 C3141,933.6094 2927,933.6094 2927,933.6094 C2927,933.6094 2713,933.6094 2713,923.6094 L2713,646.6094" fill="none" style="stroke:#181818;stroke-width:1;"/><path d="M2713,646.6094 C2713,656.6094 2927,656.6094 2927,656.6094 C2927,656.6094 3141,656.6094 3141,646.6094" fill="none" style="stroke:#181818;stroke-width:1;"/><text fill="#000000" font-family="sans-serif" font-size="14" font-weight="700" lengthAdjust="spacing" textLength="149.3857" x="2852.3071" y="673.1426">Neo4j Graph Database</text></g><!--cluster External Systems--><g class="cluster" data-qualified-name="External Systems" data-source-line="52" id="ent0035"><path d="M1498.5,825.6094 L1616.2305,825.6094 A3.75,3.75 0 0 1 1618.7305,828.1094 L1625.7305,849.2188 L2068.5,849.2188 A2.5,2.5 0 0 1 2071,851.7188 L2071,923.1094 A2.5,2.5 0 0 1 2068.5,925.6094 L1498.5,925.6094 A2.5,2.5 0 0 1 1496,923.1094 L1496,828.1094 A2.5,2.5 0 0 1 1498.5,825.6094" fill="none" style="stroke:#000000;stroke-width:1.5;"/><line style="stroke:#000000;stroke-width:1.5;" x1="1496" x2="1625.7305" y1="849.2188" y2="849.2188"/><text fill="#000000" font-family="sans-serif" font-size="14" font-weight="700" lengthAdjust="spacing" textLength="116.7305" x="1500" y="842.1426">External Systems</text></g><!--entity Web Browser--><g class="entity" data-qualified-name="Presentation Layer.Web Browser" data-source-line="4" id="ent0002"><rect fill="#F1F1F1" height="47.6094" rx="2.5" ry="2.5" style="stroke:#181818;stroke-width:0.5;" width="124.0205" x="593" y="80.6094"/><rect fill="#F1F1F1" height="10" style="stroke:#181818;stroke-width:0.5;" width="15" x="697.0205" y="85.6094"/><rect fill="#F1F1F1" height="2" style="stroke:#181818;stroke-width:0.5;" width="4" x="695.0205" y="87.6094"/><rect fill="#F1F1F1" height="2" style="stroke:#181818;stroke-width:0.5;" width="4" x="695.0205" y="91.6094"/><text fill="#000000" font-family="sans-serif" font-size="14" lengthAdjust="spacing" textLength="84.0205" x="608" y="115.1426">Web Browser</text></g><!--entity Browser Console--><g class="entity" data-qualified-name="Presentation Layer.Browser Console" data-source-line="5" id="ent0003"><rect fill="#F1F1F1" height="47.6094" rx="2.5" ry="2.5" style="stroke:#181818;stroke-width:0.5;" width="146.5996" x="410.5" y="80.6094"/><rect fill="#F1F1F1" height="10" style="stroke:#181818;stroke-width:0.5;" width="15" x="537.0996" y="85.6094"/><rect fill="#F1F1F1" height="2" style="stroke:#181818;stroke-width:0.5;" width="4" x="535.0996" y="87.6094"/><rect fill="#F1F1F1" height="2" style="stroke:#181818;stroke-width:0.5;" width="4" x="535.0996" y="91.6094"/><text fill="#000000" font-family="sans-serif" font-size="14" lengthAdjust="spacing" textLength="106.5996" x="425.5" y="115.1426">Browser Console</text></g><!--entity Account Management UI--><g class="entity" data-qualified-name="Application Layer.Frontend Module.Account Management UI" data-source-line="10" id="ent0006"><rect fill="#F1F1F1" height="47.6094" rx="2.5" ry="2.5" style="stroke:#181818;stroke-width:0.5;" width="194.082" x="62" y="290.6094"/><rect fill="#F1F1F1" height="10" style="stroke:#181818;stroke-width:0.5;" width="15" x="236.082" y="295.6094"/><rect fill="#F1F1F1" height="2" style="stroke:#181818;stroke-width:0.5;" width="4" x="234.082" y="297.6094"/><rect fill="#F1F1F1" height="2" style="stroke:#181818;stroke-width:0.5;" width="4" x="234.082" y="301.6094"/><text fill="#000000" font-family="sans-serif" font-size="14" lengthAdjust="spacing" textLength="154.082" x="77" y="325.1426">Account Management UI</text></g><!--entity Model Search UI--><g class="entity" data-qualified-name="Application Layer.Frontend Module.Model Search UI" data-source-line="11" id="ent0007"><rect fill="#F1F1F1" height="47.6094" rx="2.5" ry="2.5" style="stroke:#181818;stroke-width:0.5;" width="144.2686" x="291" y="290.6094"/><rect fill="#F1F1F1" height="10" style="stroke:#181818;stroke-width:0.5;" width="15" x="415.2686" y="295.6094"/><rect fill="#F1F1F1" height="2" style="stroke:#181818;stroke-width:0.5;" width="4" x="413.2686" y="297.6094"/><rect fill="#F1F1F1" height="2" style="stroke:#181818;stroke-width:0.5;" width="4" x="413.2686" y="301.6094"/><text fill="#000000" font-family="sans-serif" font-size="14" lengthAdjust="spacing" textLength="104.2686" x="306" y="325.1426">Model Search UI</text></g><!--entity Model Viewing UI--><g class="entity" data-qualified-name="Application Layer.Frontend Module.Model Viewing UI" data-source-line="12" id="ent0008"><rect fill="#F1F1F1" height="47.6094" rx="2.5" ry="2.5" style="stroke:#181818;stroke-width:0.5;" width="148.9375" x="470.5" y="290.6094"/><rect fill="#F1F1F1" height="10" style="stroke:#181818;stroke-width:0.5;" width="15" x="599.4375" y="295.6094"/><rect fill="#F1F1F1" height="2" style="stroke:#181818;stroke-width:0.5;" width="4" x="597.4375" y="297.6094"/><rect fill="#F1F1F1" height="2" style="stroke:#181818;stroke-width:0.5;" width="4" x="597.4375" y="301.6094"/><text fill="#000000" font-family="sans-serif" font-size="14" lengthAdjust="spacing" textLength="108.9375" x="485.5" y="325.1426">Model Viewing UI</text></g><!--entity Model Upload UI--><g class="entity" data-qualified-name="Application Layer.Frontend Module.Model Upload UI" data-source-line="13" id="ent0009"><rect fill="#F1F1F1" height="47.6094" rx="2.5" ry="2.5" style="stroke:#181818;stroke-width:0.5;" width="144.2754" x="76" y="454.6094"/><rect fill="#F1F1F1" height="10" style="stroke:#181818;stroke-width:0.5;" width="15" x="200.2754" y="459.6094"/><rect fill="#F1F1F1" height="2" style="stroke:#181818;stroke-width:0.5;" width="4" x="198.2754" y="461.6094"/><rect fill="#F1F1F1" height="2" style="stroke:#181818;stroke-width:0.5;" width="4" x="198.2754" y="465.6094"/><text fill="#000000" font-family="sans-serif" font-size="14" lengthAdjust="spacing" textLength="104.2754" x="91" y="489.1426">Model Upload UI</text></g><!--entity Evolution Editor UI--><g class="entity" data-qualified-name="Application Layer.Frontend Module.Evolution Editor UI" data-source-line="14" id="ent0010"><rect fill="#F1F1F1" height="47.6094" rx="2.5" ry="2.5" style="stroke:#181818;stroke-width:0.5;" width="155.9443" x="255" y="454.6094"/><rect fill="#F1F1F1" height="10" style="stroke:#181818;stroke-width:0.5;" width="15" x="390.9443" y="459.6094"/><rect fill="#F1F1F1" height="2" style="stroke:#181818;stroke-width:0.5;" width="4" x="388.9443" y="461.6094"/><rect fill="#F1F1F1" height="2" style="stroke:#181818;stroke-width:0.5;" width="4" x="388.9443" y="465.6094"/><text fill="#000000" font-family="sans-serif" font-size="14" lengthAdjust="spacing" textLength="115.9443" x="270" y="489.1426">Evolution Editor UI</text></g><!--entity User Management UI--><g class="entity" data-qualified-name="Application Layer.Frontend Module.User Management UI" data-source-line="15" id="ent0011"><rect fill="#F1F1F1" height="47.6094" rx="2.5" ry="2.5" style="stroke:#181818;stroke-width:0.5;" width="173.0547" x="446.5" y="454.6094"/><rect fill="#F1F1F1" height="10" style="stroke:#181818;stroke-width:0.5;" width="15" x="599.5547" y="459.6094"/><rect fill="#F1F1F1" height="2" style="stroke:#181818;stroke-width:0.5;" width="4" x="597.5547" y="461.6094"/><rect fill="#F1F1F1" height="2" style="stroke:#181818;stroke-width:0.5;" width="4" x="597.5547" y="465.6094"/><text fill="#000000" font-family="sans-serif" font-size="14" lengthAdjust="spacing" textLength="133.0547" x="461.5" y="489.1426">User Management UI</text></g><!--entity Authentication Service--><g class="entity" data-qualified-name="Application Layer.Backend Module.Authentication Service" data-source-line="19" id="ent0013"><rect fill="#F1F1F1" height="47.6094" rx="2.5" ry="2.5" style="stroke:#181818;stroke-width:0.5;" width="179.3027" x="727.5" y="454.6094"/><rect fill="#F1F1F1" height="10" style="stroke:#181818;stroke-width:0.5;" width="15" x="886.8027" y="459.6094"/><rect fill="#F1F1F1" height="2" style="stroke:#181818;stroke-width:0.5;" width="4" x="884.8027" y="461.6094"/><rect fill="#F1F1F1" height="2" style="stroke:#181818;stroke-width:0.5;" width="4" x="884.8027" y="465.6094"/><text fill="#000000" font-family="sans-serif" font-size="14" lengthAdjust="spacing" textLength="139.3027" x="742.5" y="489.1426">Authentication Service</text></g><!--entity User Management Service--><g class="entity" data-qualified-name="Application Layer.Backend Module.User Management Service" data-source-line="20" id="ent0014"><rect fill="#F1F1F1" height="47.6094" rx="2.5" ry="2.5" style="stroke:#181818;stroke-width:0.5;" width="205.7373" x="942" y="454.6094"/><rect fill="#F1F1F1" height="10" style="stroke:#181818;stroke-width:0.5;" width="15" x="1127.7373" y="459.6094"/><rect fill="#F1F1F1" height="2" style="stroke:#181818;stroke-width:0.5;" width="4" x="1125.7373" y="461.6094"/><rect fill="#F1F1F1" height="2" style="stroke:#181818;stroke-width:0.5;" width="4" x="1125.7373" y="465.6094"/><text fill="#000000" font-family="sans-serif" font-size="14" lengthAdjust="spacing" textLength="165.7373" x="957" y="489.1426">User Management Service</text></g><!--entity Model Management Service--><g class="entity" data-qualified-name="Application Layer.Backend Module.Model Management Service" data-source-line="21" id="ent0015"><rect fill="#F1F1F1" height="47.6094" rx="2.5" ry="2.5" style="stroke:#181818;stroke-width:0.5;" width="214.3096" x="1183" y="454.6094"/><rect fill="#F1F1F1" height="10" style="stroke:#181818;stroke-width:0.5;" width="15" x="1377.3096" y="459.6094"/><rect fill="#F1F1F1" height="2" style="stroke:#181818;stroke-width:0.5;" width="4" x="1375.3096" y="461.6094"/><rect fill="#F1F1F1" height="2" style="stroke:#181818;stroke-width:0.5;" width="4" x="1375.3096" y="465.6094"/><text fill="#000000" font-family="sans-serif" font-size="14" lengthAdjust="spacing" textLength="174.3096" x="1198" y="489.1426">Model Management Service</text></g><!--entity Evolution Service--><g class="entity" data-qualified-name="Application Layer.Backend Module.Evolution Service" data-source-line="22" id="ent0016"><rect fill="#F1F1F1" height="47.6094" rx="2.5" ry="2.5" style="stroke:#181818;stroke-width:0.5;" width="148.165" x="743" y="695.6094"/><rect fill="#F1F1F1" height="10" style="stroke:#181818;stroke-width:0.5;" width="15" x="871.165" y="700.6094"/><rect fill="#F1F1F1" height="2" style="stroke:#181818;stroke-width:0.5;" width="4" x="869.165" y="702.6094"/><rect fill="#F1F1F1" height="2" style="stroke:#181818;stroke-width:0.5;" width="4" x="869.165" y="706.6094"/><text fill="#000000" font-family="sans-serif" font-size="14" lengthAdjust="spacing" textLength="108.165" x="758" y="730.1426">Evolution Service</text></g><!--entity File Upload Service--><g class="entity" data-qualified-name="Application Layer.Backend Module.File Upload Service" data-source-line="23" id="ent0017"><rect fill="#F1F1F1" height="47.6094" rx="2.5" ry="2.5" style="stroke:#181818;stroke-width:0.5;" width="161.3857" x="926.5" y="695.6094"/><rect fill="#F1F1F1" height="10" style="stroke:#181818;stroke-width:0.5;" width="15" x="1067.8857" y="700.6094"/><rect fill="#F1F1F1" height="2" style="stroke:#181818;stroke-width:0.5;" width="4" x="1065.8857" y="702.6094"/><rect fill="#F1F1F1" height="2" style="stroke:#181818;stroke-width:0.5;" width="4" x="1065.8857" y="706.6094"/><text fill="#000000" font-family="sans-serif" font-size="14" lengthAdjust="spacing" textLength="121.3857" x="941.5" y="730.1426">File Upload Service</text></g><!--entity Visualization Service--><g class="entity" data-qualified-name="Application Layer.Backend Module.Visualization Service" data-source-line="24" id="ent0018"><rect fill="#F1F1F1" height="47.6094" rx="2.5" ry="2.5" style="stroke:#181818;stroke-width:0.5;" width="169.1719" x="1122.5" y="695.6094"/><rect fill="#F1F1F1" height="10" style="stroke:#181818;stroke-width:0.5;" width="15" x="1271.6719" y="700.6094"/><rect fill="#F1F1F1" height="2" style="stroke:#181818;stroke-width:0.5;" width="4" x="1269.6719" y="702.6094"/><rect fill="#F1F1F1" height="2" style="stroke:#181818;stroke-width:0.5;" width="4" x="1269.6719" y="706.6094"/><text fill="#000000" font-family="sans-serif" font-size="14" lengthAdjust="spacing" textLength="129.1719" x="1137.5" y="730.1426">Visualization Service</text></g><!--entity Model Parser--><g class="entity" data-qualified-name="Application Layer.Algorithm Support Module.Model Parser" data-source-line="28" id="ent0020"><rect fill="#F1F1F1" height="47.6094" rx="2.5" ry="2.5" style="stroke:#181818;stroke-width:0.5;" width="123.2549" x="249.5" y="695.6094"/><rect fill="#F1F1F1" height="10" style="stroke:#181818;stroke-width:0.5;" width="15" x="352.7549" y="700.6094"/><rect fill="#F1F1F1" height="2" style="stroke:#181818;stroke-width:0.5;" width="4" x="350.7549" y="702.6094"/><rect fill="#F1F1F1" height="2" style="stroke:#181818;stroke-width:0.5;" width="4" x="350.7549" y="706.6094"/><text fill="#000000" font-family="sans-serif" font-size="14" lengthAdjust="spacing" textLength="83.2549" x="264.5" y="730.1426">Model Parser</text></g><!--entity Graph Generator--><g class="entity" data-qualified-name="Application Layer.Algorithm Support Module.Graph Generator" data-source-line="29" id="ent0021"><rect fill="#F1F1F1" height="47.6094" rx="2.5" ry="2.5" style="stroke:#181818;stroke-width:0.5;" width="145.834" x="408" y="695.6094"/><rect fill="#F1F1F1" height="10" style="stroke:#181818;stroke-width:0.5;" width="15" x="533.834" y="700.6094"/><rect fill="#F1F1F1" height="2" style="stroke:#181818;stroke-width:0.5;" width="4" x="531.834" y="702.6094"/><rect fill="#F1F1F1" height="2" style="stroke:#181818;stroke-width:0.5;" width="4" x="531.834" y="706.6094"/><text fill="#000000" font-family="sans-serif" font-size="14" lengthAdjust="spacing" textLength="105.834" x="423" y="730.1426">Graph Generator</text></g><!--entity Topology Analyzer--><g class="entity" data-qualified-name="Application Layer.Algorithm Support Module.Topology Analyzer" data-source-line="30" id="ent0022"><rect fill="#F1F1F1" height="47.6094" rx="2.5" ry="2.5" style="stroke:#181818;stroke-width:0.5;" width="155.9512" x="241" y="861.6094"/><rect fill="#F1F1F1" height="10" style="stroke:#181818;stroke-width:0.5;" width="15" x="376.9512" y="866.6094"/><rect fill="#F1F1F1" height="2" style="stroke:#181818;stroke-width:0.5;" width="4" x="374.9512" y="868.6094"/><rect fill="#F1F1F1" height="2" style="stroke:#181818;stroke-width:0.5;" width="4" x="374.9512" y="872.6094"/><text fill="#000000" font-family="sans-serif" font-size="14" lengthAdjust="spacing" textLength="115.9512" x="256" y="896.1426">Topology Analyzer</text></g><!--entity Performance Metrics--><g class="entity" data-qualified-name="Application Layer.Algorithm Support Module.Performance Metrics" data-source-line="31" id="ent0023"><rect fill="#F1F1F1" height="47.6094" rx="2.5" ry="2.5" style="stroke:#181818;stroke-width:0.5;" width="169.1445" x="432.5" y="861.6094"/><rect fill="#F1F1F1" height="10" style="stroke:#181818;stroke-width:0.5;" width="15" x="581.6445" y="866.6094"/><rect fill="#F1F1F1" height="2" style="stroke:#181818;stroke-width:0.5;" width="4" x="579.6445" y="868.6094"/><rect fill="#F1F1F1" height="2" style="stroke:#181818;stroke-width:0.5;" width="4" x="579.6445" y="872.6094"/><text fill="#000000" font-family="sans-serif" font-size="14" lengthAdjust="spacing" textLength="129.1445" x="447.5" y="896.1426">Performance Metrics</text></g><!--entity File Storage--><g class="entity" data-qualified-name="Data Layer.File Storage" data-source-line="49" id="ent0034"><rect fill="#F1F1F1" height="47.6094" rx="2.5" ry="2.5" style="stroke:#181818;stroke-width:0.5;" width="115.4824" x="2111.5" y="695.6094"/><rect fill="#F1F1F1" height="10" style="stroke:#181818;stroke-width:0.5;" width="15" x="2206.9824" y="700.6094"/><rect fill="#F1F1F1" height="2" style="stroke:#181818;stroke-width:0.5;" width="4" x="2204.9824" y="702.6094"/><rect fill="#F1F1F1" height="2" style="stroke:#181818;stroke-width:0.5;" width="4" x="2204.9824" y="706.6094"/><text fill="#000000" font-family="sans-serif" font-size="14" lengthAdjust="spacing" textLength="75.4824" x="2126.5" y="730.1426">File Storage</text></g><!--entity User Data--><g class="entity" data-qualified-name="Data Layer.MySQL Database.User Data" data-source-line="37" id="ent0026"><rect fill="#F1F1F1" height="47.6094" rx="2.5" ry="2.5" style="stroke:#181818;stroke-width:0.5;" width="103.0205" x="2315.5" y="695.6094"/><rect fill="#F1F1F1" height="10" style="stroke:#181818;stroke-width:0.5;" width="15" x="2398.5205" y="700.6094"/><rect fill="#F1F1F1" height="2" style="stroke:#181818;stroke-width:0.5;" width="4" x="2396.5205" y="702.6094"/><rect fill="#F1F1F1" height="2" style="stroke:#181818;stroke-width:0.5;" width="4" x="2396.5205" y="706.6094"/><text fill="#000000" font-family="sans-serif" font-size="14" lengthAdjust="spacing" textLength="63.0205" x="2330.5" y="730.1426">User Data</text></g><!--entity Model Metadata--><g class="entity" data-qualified-name="Data Layer.MySQL Database.Model Metadata" data-source-line="38" id="ent0027"><rect fill="#F1F1F1" height="47.6094" rx="2.5" ry="2.5" style="stroke:#181818;stroke-width:0.5;" width="140.3926" x="2454" y="695.6094"/><rect fill="#F1F1F1" height="10" style="stroke:#181818;stroke-width:0.5;" width="15" x="2574.3926" y="700.6094"/><rect fill="#F1F1F1" height="2" style="stroke:#181818;stroke-width:0.5;" width="4" x="2572.3926" y="702.6094"/><rect fill="#F1F1F1" height="2" style="stroke:#181818;stroke-width:0.5;" width="4" x="2572.3926" y="706.6094"/><text fill="#000000" font-family="sans-serif" font-size="14" lengthAdjust="spacing" textLength="100.3926" x="2469" y="730.1426">Model Metadata</text></g><!--entity Dataset Information--><g class="entity" data-qualified-name="Data Layer.MySQL Database.Dataset Information" data-source-line="39" id="ent0028"><rect fill="#F1F1F1" height="47.6094" rx="2.5" ry="2.5" style="stroke:#181818;stroke-width:0.5;" width="162.1719" x="2286" y="861.6094"/><rect fill="#F1F1F1" height="10" style="stroke:#181818;stroke-width:0.5;" width="15" x="2428.1719" y="866.6094"/><rect fill="#F1F1F1" height="2" style="stroke:#181818;stroke-width:0.5;" width="4" x="2426.1719" y="868.6094"/><rect fill="#F1F1F1" height="2" style="stroke:#181818;stroke-width:0.5;" width="4" x="2426.1719" y="872.6094"/><text fill="#000000" font-family="sans-serif" font-size="14" lengthAdjust="spacing" textLength="122.1719" x="2301" y="896.1426">Dataset Information</text></g><!--entity Permission Records--><g class="entity" data-qualified-name="Data Layer.MySQL Database.Permission Records" data-source-line="40" id="ent0029"><rect fill="#F1F1F1" height="47.6094" rx="2.5" ry="2.5" style="stroke:#181818;stroke-width:0.5;" width="165.2617" x="2483.5" y="861.6094"/><rect fill="#F1F1F1" height="10" style="stroke:#181818;stroke-width:0.5;" width="15" x="2628.7617" y="866.6094"/><rect fill="#F1F1F1" height="2" style="stroke:#181818;stroke-width:0.5;" width="4" x="2626.7617" y="868.6094"/><rect fill="#F1F1F1" height="2" style="stroke:#181818;stroke-width:0.5;" width="4" x="2626.7617" y="872.6094"/><text fill="#000000" font-family="sans-serif" font-size="14" lengthAdjust="spacing" textLength="125.2617" x="2498.5" y="896.1426">Permission Records</text></g><!--entity Evolution Relationships--><g class="entity" data-qualified-name="Data Layer.Neo4j Graph Database.Evolution Relationships" data-source-line="44" id="ent0031"><rect fill="#F1F1F1" height="47.6094" rx="2.5" ry="2.5" style="stroke:#181818;stroke-width:0.5;" width="185.5303" x="2756" y="695.6094"/><rect fill="#F1F1F1" height="10" style="stroke:#181818;stroke-width:0.5;" width="15" x="2921.5303" y="700.6094"/><rect fill="#F1F1F1" height="2" style="stroke:#181818;stroke-width:0.5;" width="4" x="2919.5303" y="702.6094"/><rect fill="#F1F1F1" height="2" style="stroke:#181818;stroke-width:0.5;" width="4" x="2919.5303" y="706.6094"/><text fill="#000000" font-family="sans-serif" font-size="14" lengthAdjust="spacing" textLength="145.5303" x="2771" y="730.1426">Evolution Relationships</text></g><!--entity Model Topology--><g class="entity" data-qualified-name="Data Layer.Neo4j Graph Database.Model Topology" data-source-line="45" id="ent0032"><rect fill="#F1F1F1" height="47.6094" rx="2.5" ry="2.5" style="stroke:#181818;stroke-width:0.5;" width="139.6133" x="2977" y="695.6094"/><rect fill="#F1F1F1" height="10" style="stroke:#181818;stroke-width:0.5;" width="15" x="3096.6133" y="700.6094"/><rect fill="#F1F1F1" height="2" style="stroke:#181818;stroke-width:0.5;" width="4" x="3094.6133" y="702.6094"/><rect fill="#F1F1F1" height="2" style="stroke:#181818;stroke-width:0.5;" width="4" x="3094.6133" y="706.6094"/><text fill="#000000" font-family="sans-serif" font-size="14" lengthAdjust="spacing" textLength="99.6133" x="2992" y="730.1426">Model Topology</text></g><!--entity Layer Reuse Graphs--><g class="entity" data-qualified-name="Data Layer.Neo4j Graph Database.Layer Reuse Graphs" data-source-line="46" id="ent0033"><rect fill="#F1F1F1" height="47.6094" rx="2.5" ry="2.5" style="stroke:#181818;stroke-width:0.5;" width="169.1787" x="2764.5" y="861.6094"/><rect fill="#F1F1F1" height="10" style="stroke:#181818;stroke-width:0.5;" width="15" x="2913.6787" y="866.6094"/><rect fill="#F1F1F1" height="2" style="stroke:#181818;stroke-width:0.5;" width="4" x="2911.6787" y="868.6094"/><rect fill="#F1F1F1" height="2" style="stroke:#181818;stroke-width:0.5;" width="4" x="2911.6787" y="872.6094"/><text fill="#000000" font-family="sans-serif" font-size="14" lengthAdjust="spacing" textLength="129.1787" x="2779.5" y="896.1426">Layer Reuse Graphs</text></g><!--entity Python Libraries--><g class="entity" data-qualified-name="External Systems.Python Libraries" data-source-line="53" id="ent0036"><rect fill="#F1F1F1" height="47.6094" rx="2.5" ry="2.5" style="stroke:#181818;stroke-width:0.5;" width="141.165" x="1512.5" y="861.6094"/><rect fill="#F1F1F1" height="10" style="stroke:#181818;stroke-width:0.5;" width="15" x="1633.665" y="866.6094"/><rect fill="#F1F1F1" height="2" style="stroke:#181818;stroke-width:0.5;" width="4" x="1631.665" y="868.6094"/><rect fill="#F1F1F1" height="2" style="stroke:#181818;stroke-width:0.5;" width="4" x="1631.665" y="872.6094"/><text fill="#000000" font-family="sans-serif" font-size="14" lengthAdjust="spacing" textLength="101.165" x="1527.5" y="896.1426">Python Libraries</text></g><!--entity OAuth 2.0 Provider--><g class="entity" data-qualified-name="External Systems.OAuth 2.0 Provider" data-source-line="54" id="ent0037"><rect fill="#F1F1F1" height="47.6094" rx="2.5" ry="2.5" style="stroke:#181818;stroke-width:0.5;" width="159.0615" x="1688.5" y="861.6094"/><rect fill="#F1F1F1" height="10" style="stroke:#181818;stroke-width:0.5;" width="15" x="1827.5615" y="866.6094"/><rect fill="#F1F1F1" height="2" style="stroke:#181818;stroke-width:0.5;" width="4" x="1825.5615" y="868.6094"/><rect fill="#F1F1F1" height="2" style="stroke:#181818;stroke-width:0.5;" width="4" x="1825.5615" y="872.6094"/><text fill="#000000" font-family="sans-serif" font-size="14" lengthAdjust="spacing" textLength="119.0615" x="1703.5" y="896.1426">OAuth 2.0 Provider</text></g><!--entity Email Server (SMTP)--><g class="entity" data-qualified-name="External Systems.Email Server .SMTP." data-source-line="55" id="ent0038"><rect fill="#F1F1F1" height="47.6094" rx="2.5" ry="2.5" style="stroke:#181818;stroke-width:0.5;" width="172.2344" x="1883" y="861.6094"/><rect fill="#F1F1F1" height="10" style="stroke:#181818;stroke-width:0.5;" width="15" x="2035.2344" y="866.6094"/><rect fill="#F1F1F1" height="2" style="stroke:#181818;stroke-width:0.5;" width="4" x="2033.2344" y="868.6094"/><rect fill="#F1F1F1" height="2" style="stroke:#181818;stroke-width:0.5;" width="4" x="2033.2344" y="872.6094"/><text fill="#000000" font-family="sans-serif" font-size="14" lengthAdjust="spacing" textLength="132.2344" x="1898" y="896.1426">Email Server (SMTP)</text></g><!--link Web Browser to Frontend Module--><g class="link" data-entity-1="ent0002" data-entity-2="ent0005" data-link-type="dependency" data-source-line="58" id="lnk39"><path d="M655,128.6594 C655,155.3144 655,200.5344 655,239.5869 C655,240.8073 655,242.0216 655,243.2292 C655,243.833 655,244.4351 655,245.0354 C655,245.3356 655,264.2447 655,264.5439" fill="none" id="Web Browser-to-Frontend Module" style="stroke:#181818;stroke-width:1;"/><polygon fill="#181818" points="655,269.5439,659,260.5439,655,264.5439,651,260.5439,655,269.5439" style="stroke:#181818;stroke-width:1;stroke-linejoin:miter;stroke-miterlimit:10;"/><text fill="#000000" font-family="sans-serif" font-size="13" lengthAdjust="spacing" textLength="80.1646" x="656" y="175.1045">HTTP/HTTPS</text></g><!--link Frontend Module to Backend Module--><g class="link" data-entity-1="ent0005" data-entity-2="ent0012" data-link-type="dependency" data-source-line="59" id="lnk40"><path d="M663.6848,315.9073 C664.0175,315.9192 664.3593,315.9314 664.7102,315.944 C670.3241,316.1454 678.2532,316.4374 688.1812,316.8227 C708.0372,317.5932 735.8891,318.7364 769.2075,320.2722 C835.8444,323.3438 924.3475,327.9856 1014.4825,334.3569 C1194.7525,347.0994 1381.55,366.7594 1413,394.6094 C1416.4313,397.6481 1419.3102,401.168 1421.7202,405.0078 C1422.3227,405.9678 1422.8959,406.9478 1423.4411,407.9452 C1423.7137,408.4439 1423.9793,408.947 1424.238,409.4542 C1424.3674,409.7078 1424.4951,409.9624 1424.6211,410.2179 C1424.6841,410.3457 1422.5664,429.5835 1422.6285,429.7118" fill="none" id="Frontend Module-to-Backend Module" style="stroke:#181818;stroke-width:1;"/><polygon fill="#181818" points="1424.8088,434.2114,1424.4841,424.3679,1422.6285,429.7118,1417.2847,427.8562,1424.8088,434.2114" style="stroke:#181818;stroke-width:1;stroke-linejoin:miter;stroke-miterlimit:10;"/><text fill="#000000" font-family="sans-serif" font-size="13" lengthAdjust="spacing" textLength="59.2363" x="1396" y="383.1045">REST API</text></g><!--link Backend Module to Algorithm Support Module--><g class="link" data-entity-1="ent0012" data-entity-2="ent0019" data-link-type="dependency" data-source-line="60" id="lnk41"><path d="M702.527,582.2507 C701.6143,582.9209 700.7112,583.6049 699.8176,584.3022 C696.243,587.0912 692.8199,590.0917 689.5436,593.2641 C682.9912,599.6088 677.0264,606.6408 671.6134,614.0422 C660.7875,628.845 652.1688,645.1256 645.47,660.3419 C642.1206,667.95 639.2513,675.292 636.826,682.0502 C636.2197,683.7397 635.6411,685.3928 635.0897,687.0044 C634.814,687.8102 634.5452,688.6056 634.283,689.3901 C634.2175,689.5862 635.7289,685.0366 635.6642,685.2314" fill="none" id="Backend Module-to-Algorithm Support Module" style="stroke:#181818;stroke-width:1;"/><polygon fill="#181818" points="634.0876,689.9763,640.7213,682.6966,635.6642,685.2314,633.1294,680.1742,634.0876,689.9763" style="stroke:#181818;stroke-width:1;stroke-linejoin:miter;stroke-miterlimit:10;"/><text fill="#000000" font-family="sans-serif" font-size="13" lengthAdjust="spacing" textLength="75.8545" x="1389" y="565.1045">Service Calls</text></g><!--link Backend Module to MySQL Database--><g class="link" data-entity-1="ent0012" data-entity-2="ent0025" data-link-type="dependency" data-source-line="61" id="lnk42"><path d="M1440.4773,479.9487 C1441.1684,479.9767 1441.8999,480.0065 1442.6712,480.038 C1448.8412,480.2904 1457.5543,480.6566 1468.4612,481.1389 C1490.2752,482.1037 1520.8644,483.5333 1557.4344,485.4478 C1630.5744,489.2769 1727.6375,495.0456 1826.2675,502.9144 C2023.5275,518.6519 2227.055,542.7894 2258,576.6094 C2263.245,582.3419 2266.1506,593.8525 2267.5506,607.9502 C2268.2506,614.999 2268.5742,622.6946 2268.6256,630.638 C2268.6321,631.631 2268.6342,632.6278 2268.6323,633.6277 C2268.6314,634.1276 2268.6295,634.6283 2268.6265,635.1297 C2268.6251,635.3804 2268.6624,630.6315 2268.6604,630.8825" fill="none" id="Backend Module-to-MySQL Database" style="stroke:#181818;stroke-width:1;"/><polygon fill="#181818" points="2268.6214,635.8823,2272.6915,626.9138,2268.6604,630.8825,2264.6917,626.8514,2268.6214,635.8823" style="stroke:#181818;stroke-width:1;stroke-linejoin:miter;stroke-miterlimit:10;"/><text fill="#000000" font-family="sans-serif" font-size="13" lengthAdjust="spacing" textLength="75.1436" x="2240" y="565.1045">SQL Queries</text></g><!--link Backend Module to Neo4j Graph Database--><g class="link" data-entity-1="ent0012" data-entity-2="ent0030" data-link-type="dependency" data-source-line="62" id="lnk43"><path d="M1440.3434,479.7327 C1442.0263,479.7588 1443.9549,479.7893 1446.1213,479.8242 C1454.7867,479.9641 1467.2554,480.1763 1483.0124,480.4731 C1514.5264,481.0669 1559.1934,481.9994 1612.893,483.3694 C1720.2922,486.1094 1863.8219,490.5994 2010.5188,497.6294 C2303.9125,511.6894 2609.975,535.9094 2665,576.6094 C2678.4225,586.5369 2688.63,600.1781 2696.392,615.1041 C2700.273,622.567 2703.5427,630.3512 2706.2972,638.1529 C2707.6744,642.0537 2708.9228,645.9589 2710.0545,649.8306 C2710.6204,651.7664 2711.157,653.6938 2711.666,655.6081 C2711.9204,656.5653 2712.168,657.5191 2712.4088,658.4691 C2712.5292,658.9441 2712.6479,659.4182 2712.765,659.8911 C2712.8235,660.1276 2711.6939,655.507 2711.7516,655.7429" fill="none" id="Backend Module-to-Neo4j Graph Database" style="stroke:#181818;stroke-width:1;"/><polygon fill="#181818" points="2712.9394,660.5998,2714.6868,650.9072,2711.7516,655.7429,2706.9159,652.8077,2712.9394,660.5998" style="stroke:#181818;stroke-width:1;stroke-linejoin:miter;stroke-miterlimit:10;"/><text fill="#000000" font-family="sans-serif" font-size="13" lengthAdjust="spacing" textLength="91.0381" x="2648" y="565.1045">Cypher Queries</text></g><!--link Backend Module to File Storage--><g class="link" data-entity-1="ent0012" data-entity-2="ent0034" data-link-type="dependency" data-source-line="63" id="lnk44"><path d="M1440.4427,481.2757 C1440.5985,481.3069 1440.7564,481.3385 1440.9163,481.3705 C1446.0322,482.395 1453.2076,483.8488 1462.0689,485.687 C1479.7916,489.3634 1504.2581,494.5775 1532.4812,500.9706 C1588.9275,513.7569 1660.4,531.2594 1723,550.6094 C1866.48,594.9594 2026.0714,658.954 2109.5014,693.554" fill="none" id="Backend Module-to-File Storage" style="stroke:#181818;stroke-width:1;"/><polygon fill="#181818" points="2114.12,695.4694,2107.3389,688.3268,2109.5014,693.554,2104.2742,695.7165,2114.12,695.4694" style="stroke:#181818;stroke-width:1;stroke-linejoin:miter;stroke-miterlimit:10;"/><text fill="#000000" font-family="sans-serif" font-size="13" lengthAdjust="spacing" textLength="88.1499" x="1773" y="565.1045">File Operations</text></g><!--link Algorithm Support Module to Python Libraries--><g class="link" data-entity-1="ent0019" data-entity-2="ent0036" data-link-type="dependency" data-source-line="64" id="lnk45"><path d="M634.0222,728.9091 C634.1675,729.0534 634.3146,729.1992 634.4634,729.3464 C639.2269,734.0584 645.7887,740.2625 653.5975,746.9056 C669.215,760.1919 689.82,775.2344 711,783.6094 C856.8,841.2594 1326.5171,871.2128 1507.2571,880.8628" fill="none" id="Algorithm Support Module-to-Python Libraries" style="stroke:#181818;stroke-width:1;"/><polygon fill="#181818" points="1512.25,881.1294,1503.4761,876.6552,1507.2571,880.8628,1503.0495,884.6438,1512.25,881.1294" style="stroke:#181818;stroke-width:1;stroke-linejoin:miter;stroke-miterlimit:10;"/><text fill="#000000" font-family="sans-serif" font-size="13" lengthAdjust="spacing" textLength="72.2427" x="797" y="806.1045">Library Calls</text></g><!--link Backend Module to OAuth 2.0 Provider--><g class="link" data-entity-1="ent0012" data-entity-2="ent0037" data-link-type="dependency" data-source-line="65" id="lnk46"><path d="M1440.0416,522.2271 C1440.1977,522.93 1440.3563,523.6397 1440.5176,524.3561 C1441.1625,527.2219 1441.8489,530.1955 1442.5782,533.2679 C1444.037,539.4128 1445.6678,545.9531 1447.4833,552.8167 C1451.1143,566.5438 1455.4841,581.5641 1460.6938,597.3006 C1481.5325,660.2469 1515.81,734.6544 1570,783.6094 C1605.15,815.3594 1628.66,796.3894 1671,817.6094 C1695.34,829.8094 1716.5849,844.3896 1735.2049,858.4996" fill="none" id="Backend Module-to-OAuth 2.0 Provider" style="stroke:#181818;stroke-width:1;"/><polygon fill="#181818" points="1739.19,861.5194,1734.4328,852.8956,1735.2049,858.4996,1729.601,859.2717,1739.19,861.5194" style="stroke:#181818;stroke-width:1;stroke-linejoin:miter;stroke-miterlimit:10;"/><text fill="#000000" font-family="sans-serif" font-size="13" lengthAdjust="spacing" textLength="82.3926" x="1571" y="725.1045">Authentication</text></g><!--link Backend Module to Email Server (SMTP)--><g class="link" data-entity-1="ent0012" data-entity-2="ent0038" data-link-type="dependency" data-source-line="66" id="lnk47"><path d="M1440.1354,481.8867 C1440.4104,481.9658 1440.6919,482.0469 1440.9798,482.13 C1441.5555,482.2962 1442.1566,482.4706 1442.7826,482.653 C1444.0345,483.0178 1445.3856,483.4149 1446.8307,483.844 C1449.7209,484.7021 1452.987,485.688 1456.587,486.7992 C1470.9872,491.2441 1490.7306,497.6937 1513.1338,505.9881 C1557.94,522.5769 1613.385,546.5444 1658,576.6094 C1785.92,662.8194 1903.4071,802.0746 1947.8571,857.6546" fill="none" id="Backend Module-to-Email Server (SMTP)" style="stroke:#181818;stroke-width:1;"/><polygon fill="#181818" points="1950.98,861.5594,1948.4827,852.0324,1947.8571,857.6546,1942.235,857.029,1950.98,861.5594" style="stroke:#181818;stroke-width:1;stroke-linejoin:miter;stroke-miterlimit:10;"/><text fill="#000000" font-family="sans-serif" font-size="13" lengthAdjust="spacing" textLength="70.8081" x="1882" y="725.1045">Notifications</text></g><?plantuml-src XLJ1Sjem4Btp5JkSsWDjfjDJ3vrn24cP2Oc33JraE0XxWzNAbaUIIPrE_pqhsS4MuFG2Q5TlzTxRNGmt0c4XKnGmsqjH6IuBMAFIzdl12hR370i3Qwuh9lWBSnTYAGLCu9RLg325G2KPDvYOIk5eLBBaDy5W72hKX6qWxkuO_eu07d_Y5YwLVDQeDlRS_eQfBBGKk1dzwrK9obBmvAJ88N-jP66mIAsAIc2JfQ91aiYAcFT4hEQR9jS8Zf0HyUFeckCpBtR7uLKf94kxQEVMBEL6gYwpib9ENYL9FTANzECSvyfa17cJ6w7QymG7wlhPXkLWkgFhnwyvzR_LvcVyZlTolf90xAJY9iiXgifIAdEigI4MCjLscq8tYfKPt621Yf5rRJIMfHHoLqDGC56_76w7g9waobcHqAIYKJpH3Ot-b5mnm_hZaT9vopHb5dNqS0jNxVb0oxbfexv_Q5ZQ1MrUeu5vuHXO9pfIETTkIvQOI9NgWpNTqtSel_w2Hkq9WQuZInIkjCvugJqwRvQqGQUFhbTKt5Nj7cqQ6P6RP8U_GBC_1XLP2b6j3UQwNSAmDfbTARvLJ75qfHxlxGJ2bqyN42gvvscxeBESSU5cWDx_42tYyADxmzjac4o-4mz_7JVm3SO_uZZyR3-YyUZqWeFv2-5GoraKGn3E2NESTP2XoNFWTbvXoeJGGnNyqMXm57Yeq1eoX3hNLOUTrcL6_lm7xZNAmbpWlhIxO8U0SCFAN8MJpjagpQb-N_2Pzbgi_xSp13ut11Pz9mr_Qh7qyYi0?></g></svg>