<svg xmlns="http://www.w3.org/2000/svg" xmlns:xlink="http://www.w3.org/1999/xlink" contentStyleType="text/css" data-diagram-type="DESCRIPTION" height="943px" preserveAspectRatio="none" style="width:1933px;height:943px;background:#FFFFFF;" version="1.1" viewBox="0 0 1933 943" width="1933px" zoomAndPan="magnify"><?plantuml 1.2026.6?><defs/><g><g class="title" data-source-line="1"><text fill="#000000" font-family="sans-serif" font-size="14" font-weight="700" lengthAdjust="spacing" textLength="410.751" x="757.6867" y="24.5332">Deep Learning Model Sharing Platform - Layered Architecture</text></g><!--cluster Presentation Layer--><g class="cluster" data-qualified-name="Presentation Layer" data-source-line="3" id="ent0001"><path d="M113.49,44.6094 L240.5379,44.6094 A3.75,3.75 0 0 1 243.0379,47.1094 L250.0379,68.2188 L560.49,68.2188 A2.5,2.5 0 0 1 562.99,70.7188 L562.99,153.1094 A2.5,2.5 0 0 1 560.49,155.6094 L113.49,155.6094 A2.5,2.5 0 0 1 110.99,153.1094 L110.99,47.1094 A2.5,2.5 0 0 1 113.49,44.6094" fill="none" style="stroke:#000000;stroke-width:1.5;"/><line style="stroke:#000000;stroke-width:1.5;" x1="110.99" x2="250.0379" y1="68.2188" y2="68.2188"/><text fill="#000000" font-family="sans-serif" font-size="14" font-weight="700" lengthAdjust="spacing" textLength="126.0479" x="114.99" y="61.1426">Presentation Layer</text></g><!--cluster Application Layer--><g class="cluster" data-qualified-name="Application Layer" data-source-line="12" id="ent0006"><path d="M176.49,205.6094 L294.9588,205.6094 A3.75,3.75 0 0 1 297.4588,208.1094 L304.4588,229.2188 L1204.49,229.2188 A2.5,2.5 0 0 1 1206.99,231.7188 L1206.99,429.1094 A2.5,2.5 0 0 1 1204.49,431.6094 L176.49,431.6094 A2.5,2.5 0 0 1 173.99,429.1094 L173.99,208.1094 A2.5,2.5 0 0 1 176.49,205.6094" fill="none" style="stroke:#000000;stroke-width:1.5;"/><line style="stroke:#000000;stroke-width:1.5;" x1="173.99" x2="304.4588" y1="229.2188" y2="229.2188"/><text fill="#000000" font-family="sans-serif" font-size="14" font-weight="700" lengthAdjust="spacing" textLength="117.4688" x="177.99" y="222.1426">Application Layer</text></g><!--cluster Data Layer--><g class="cluster" data-qualified-name="Data Layer" data-source-line="22" id="ent0014"><path d="M284.49,481.6094 L357.0828,481.6094 A3.75,3.75 0 0 1 359.5828,484.1094 L366.5828,505.2188 L1056.49,505.2188 A2.5,2.5 0 0 1 1058.99,507.7188 L1058.99,925.6094 A2.5,2.5 0 0 1 1056.49,928.1094 L284.49,928.1094 A2.5,2.5 0 0 1 281.99,925.6094 L281.99,484.1094 A2.5,2.5 0 0 1 284.49,481.6094" fill="none" style="stroke:#000000;stroke-width:1.5;"/><line style="stroke:#000000;stroke-width:1.5;" x1="281.99" x2="366.5828" y1="505.2188" y2="505.2188"/><text fill="#000000" font-family="sans-serif" font-size="14" font-weight="700" lengthAdjust="spacing" textLength="71.5928" x="285.99" y="498.1426">Data Layer</text></g><!--cluster MySQL Database--><g class="cluster" data-qualified-name="Data Layer.MySQL Database" data-source-line="23" id="ent0015"><path d="M440.99,543.6094 C440.99,533.6094 733.99,533.6094 733.99,533.6094 C733.99,533.6094 1026.99,533.6094 1026.99,543.6094 L1026.99,886.1094 C1026.99,896.1094 733.99,896.1094 733.99,896.1094 C733.99,896.1094 440.99,896.1094 440.99,886.1094 L440.99,543.6094" fill="none" style="stroke:#181818;stroke-width:1;"/><path d="M440.99,543.6094 C440.99,553.6094 733.99,553.6094 733.99,553.6094 C733.99,553.6094 1026.99,553.6094 1026.99,543.6094" fill="none" style="stroke:#181818;stroke-width:1;"/><text fill="#000000" font-family="sans-serif" font-size="14" font-weight="700" lengthAdjust="spacing" textLength="114.3721" x="676.804" y="570.1426">MySQL Database</text></g><!--cluster External Systems--><g class="cluster" data-qualified-name="External Systems" data-source-line="36" id="ent0024"><path d="M1085.49,556.6094 L1203.2205,556.6094 A3.75,3.75 0 0 1 1205.7205,559.1094 L1212.7205,580.2188 L1560.49,580.2188 A2.5,2.5 0 0 1 1562.99,582.7188 L1562.99,654.1094 A2.5,2.5 0 0 1 1560.49,656.6094 L1085.49,656.6094 A2.5,2.5 0 0 1 1082.99,654.1094 L1082.99,559.1094 A2.5,2.5 0 0 1 1085.49,556.6094" fill="none" style="stroke:#000000;stroke-width:1.5;"/><line style="stroke:#000000;stroke-width:1.5;" x1="1082.99" x2="1212.7205" y1="580.2188" y2="580.2188"/><text fill="#000000" font-family="sans-serif" font-size="14" font-weight="700" lengthAdjust="spacing" textLength="116.7305" x="1086.99" y="573.1426">External Systems</text></g><!--entity Web Browser - Vue.js Frontend--><g class="entity" data-qualified-name="Presentation Layer.Web Browser - Vue.js Frontend" data-source-line="4" id="ent0002"><rect fill="#F1F1F1" height="47.6094" rx="2.5" ry="2.5" style="stroke:#181818;stroke-width:0.5;" width="235.2959" x="127.49" y="86.1094"/><rect fill="#F1F1F1" height="10" style="stroke:#181818;stroke-width:0.5;" width="15" x="342.7859" y="91.1094"/><rect fill="#F1F1F1" height="2" style="stroke:#181818;stroke-width:0.5;" width="4" x="340.7859" y="93.1094"/><rect fill="#F1F1F1" height="2" style="stroke:#181818;stroke-width:0.5;" width="4" x="340.7859" y="97.1094"/><text fill="#000000" font-family="sans-serif" font-size="14" lengthAdjust="spacing" textLength="195.2959" x="142.49" y="120.6426">Web Browser - Vue.js Frontend</text></g><g class="entity" data-qualified-name="Presentation Layer.GMN3" data-source-line="6" id="ent0004"><path d="M397.49,80.6094 L397.49,106.1094 L362.93,110.1094 L397.49,114.1094 L397.49,139.6641 A0,0 0 0 0 397.49,139.6641 L546.3762,139.6641 A0,0 0 0 0 546.3762,139.6641 L546.3762,90.6094 L536.3762,80.6094 L397.49,80.6094 A0,0 0 0 0 397.49,80.6094" fill="#FEFFDD" style="stroke:#181818;stroke-width:0.5;"/><path d="M536.3762,80.6094 L536.3762,90.6094 L546.3762,90.6094 L536.3762,80.6094" fill="#FEFFDD" style="stroke:#181818;stroke-width:0.5;"/><text fill="#000000" font-family="sans-serif" font-size="13" lengthAdjust="spacing" textLength="78.7427" x="403.49" y="99.1045">TypeScript UI</text><text fill="#000000" font-family="sans-serif" font-size="13" lengthAdjust="spacing" textLength="127.8862" x="403.49" y="115.4561">Modern browsers only</text><text fill="#000000" font-family="sans-serif" font-size="13" lengthAdjust="spacing" textLength="79.4854" x="403.49" y="131.8076">No IE support</text></g><!--entity API Gateway - Spring Boot--><g class="entity" data-qualified-name="Application Layer.API Gateway - Spring Boot" data-source-line="13" id="ent0007"><rect fill="#F1F1F1" height="47.6094" rx="2.5" ry="2.5" style="stroke:#181818;stroke-width:0.5;" width="207.3027" x="515.49" y="241.6094"/><rect fill="#F1F1F1" height="10" style="stroke:#181818;stroke-width:0.5;" width="15" x="702.7927" y="246.6094"/><rect fill="#F1F1F1" height="2" style="stroke:#181818;stroke-width:0.5;" width="4" x="700.7927" y="248.6094"/><rect fill="#F1F1F1" height="2" style="stroke:#181818;stroke-width:0.5;" width="4" x="700.7927" y="252.6094"/><text fill="#000000" font-family="sans-serif" font-size="14" lengthAdjust="spacing" textLength="167.3027" x="530.49" y="276.1426">API Gateway - Spring Boot</text></g><!--entity User Service--><g class="entity" data-qualified-name="Application Layer.User Service" data-source-line="14" id="ent0008"><rect fill="#F1F1F1" height="47.6094" rx="2.5" ry="2.5" style="stroke:#181818;stroke-width:0.5;" width="120.1309" x="889.99" y="367.6094"/><rect fill="#F1F1F1" height="10" style="stroke:#181818;stroke-width:0.5;" width="15" x="990.1209" y="372.6094"/><rect fill="#F1F1F1" height="2" style="stroke:#181818;stroke-width:0.5;" width="4" x="988.1209" y="374.6094"/><rect fill="#F1F1F1" height="2" style="stroke:#181818;stroke-width:0.5;" width="4" x="988.1209" y="378.6094"/><text fill="#000000" font-family="sans-serif" font-size="14" lengthAdjust="spacing" textLength="80.1309" x="904.99" y="402.1426">User Service</text></g><!--entity Community Service--><g class="entity" data-qualified-name="Application Layer.Community Service" data-source-line="15" id="ent0009"><rect fill="#F1F1F1" height="47.6094" rx="2.5" ry="2.5" style="stroke:#181818;stroke-width:0.5;" width="161.3652" x="528.49" y="367.6094"/><rect fill="#F1F1F1" height="10" style="stroke:#181818;stroke-width:0.5;" width="15" x="669.8552" y="372.6094"/><rect fill="#F1F1F1" height="2" style="stroke:#181818;stroke-width:0.5;" width="4" x="667.8552" y="374.6094"/><rect fill="#F1F1F1" height="2" style="stroke:#181818;stroke-width:0.5;" width="4" x="667.8552" y="378.6094"/><text fill="#000000" font-family="sans-serif" font-size="14" lengthAdjust="spacing" textLength="121.3652" x="543.49" y="402.1426">Community Service</text></g><!--entity Model Service--><g class="entity" data-qualified-name="Application Layer.Model Service" data-source-line="16" id="ent0010"><rect fill="#F1F1F1" height="47.6094" rx="2.5" ry="2.5" style="stroke:#181818;stroke-width:0.5;" width="128.7031" x="190.49" y="367.6094"/><rect fill="#F1F1F1" height="10" style="stroke:#181818;stroke-width:0.5;" width="15" x="299.1931" y="372.6094"/><rect fill="#F1F1F1" height="2" style="stroke:#181818;stroke-width:0.5;" width="4" x="297.1931" y="374.6094"/><rect fill="#F1F1F1" height="2" style="stroke:#181818;stroke-width:0.5;" width="4" x="297.1931" y="378.6094"/><text fill="#000000" font-family="sans-serif" font-size="14" lengthAdjust="spacing" textLength="88.7031" x="205.49" y="402.1426">Model Service</text></g><!--entity Dataset Service--><g class="entity" data-qualified-name="Application Layer.Dataset Service" data-source-line="17" id="ent0011"><rect fill="#F1F1F1" height="47.6094" rx="2.5" ry="2.5" style="stroke:#181818;stroke-width:0.5;" width="138.8203" x="354.49" y="367.6094"/><rect fill="#F1F1F1" height="10" style="stroke:#181818;stroke-width:0.5;" width="15" x="473.3103" y="372.6094"/><rect fill="#F1F1F1" height="2" style="stroke:#181818;stroke-width:0.5;" width="4" x="471.3103" y="374.6094"/><rect fill="#F1F1F1" height="2" style="stroke:#181818;stroke-width:0.5;" width="4" x="471.3103" y="378.6094"/><text fill="#000000" font-family="sans-serif" font-size="14" lengthAdjust="spacing" textLength="98.8203" x="369.49" y="402.1426">Dataset Service</text></g><!--entity Payment Service--><g class="entity" data-qualified-name="Application Layer.Payment Service" data-source-line="18" id="ent0012"><rect fill="#F1F1F1" height="47.6094" rx="2.5" ry="2.5" style="stroke:#181818;stroke-width:0.5;" width="145.8203" x="1044.99" y="367.6094"/><rect fill="#F1F1F1" height="10" style="stroke:#181818;stroke-width:0.5;" width="15" x="1170.8103" y="372.6094"/><rect fill="#F1F1F1" height="2" style="stroke:#181818;stroke-width:0.5;" width="4" x="1168.8103" y="374.6094"/><rect fill="#F1F1F1" height="2" style="stroke:#181818;stroke-width:0.5;" width="4" x="1168.8103" y="378.6094"/><text fill="#000000" font-family="sans-serif" font-size="14" lengthAdjust="spacing" textLength="105.8203" x="1059.99" y="402.1426">Payment Service</text></g><!--entity Admin Service--><g class="entity" data-qualified-name="Application Layer.Admin Service" data-source-line="19" id="ent0013"><rect fill="#F1F1F1" height="47.6094" rx="2.5" ry="2.5" style="stroke:#181818;stroke-width:0.5;" width="130.2549" x="724.99" y="367.6094"/><rect fill="#F1F1F1" height="10" style="stroke:#181818;stroke-width:0.5;" width="15" x="835.2449" y="372.6094"/><rect fill="#F1F1F1" height="2" style="stroke:#181818;stroke-width:0.5;" width="4" x="833.2449" y="374.6094"/><rect fill="#F1F1F1" height="2" style="stroke:#181818;stroke-width:0.5;" width="4" x="833.2449" y="378.6094"/><text fill="#000000" font-family="sans-serif" font-size="14" lengthAdjust="spacing" textLength="90.2549" x="739.99" y="402.1426">Admin Service</text></g><!--entity File Storage--><g class="entity" data-qualified-name="Data Layer.File Storage" data-source-line="33" id="ent0023"><rect fill="#F1F1F1" height="47.6094" rx="2.5" ry="2.5" style="stroke:#181818;stroke-width:0.5;" width="115.4824" x="298.49" y="592.6094"/><rect fill="#F1F1F1" height="10" style="stroke:#181818;stroke-width:0.5;" width="15" x="393.9724" y="597.6094"/><rect fill="#F1F1F1" height="2" style="stroke:#181818;stroke-width:0.5;" width="4" x="391.9724" y="599.6094"/><rect fill="#F1F1F1" height="2" style="stroke:#181818;stroke-width:0.5;" width="4" x="391.9724" y="603.6094"/><text fill="#000000" font-family="sans-serif" font-size="14" lengthAdjust="spacing" textLength="75.4824" x="313.49" y="627.1426">File Storage</text></g><!--entity User Accounts--><g class="entity" data-qualified-name="Data Layer.MySQL Database.User Accounts" data-source-line="24" id="ent0016"><rect fill="#F1F1F1" height="47.6094" rx="2.5" ry="2.5" style="stroke:#181818;stroke-width:0.5;" width="131.0342" x="484.49" y="592.6094"/><rect fill="#F1F1F1" height="10" style="stroke:#181818;stroke-width:0.5;" width="15" x="595.5242" y="597.6094"/><rect fill="#F1F1F1" height="2" style="stroke:#181818;stroke-width:0.5;" width="4" x="593.5242" y="599.6094"/><rect fill="#F1F1F1" height="2" style="stroke:#181818;stroke-width:0.5;" width="4" x="593.5242" y="603.6094"/><text fill="#000000" font-family="sans-serif" font-size="14" lengthAdjust="spacing" textLength="91.0342" x="499.49" y="627.1426">User Accounts</text></g><!--entity Q&A Data--><g class="entity" data-qualified-name="Data Layer.MySQL Database.Q.A Data" data-source-line="25" id="ent0017"><rect fill="#F1F1F1" height="47.6094" rx="2.5" ry="2.5" style="stroke:#181818;stroke-width:0.5;" width="103.0273" x="650.49" y="592.6094"/><rect fill="#F1F1F1" height="10" style="stroke:#181818;stroke-width:0.5;" width="15" x="733.5173" y="597.6094"/><rect fill="#F1F1F1" height="2" style="stroke:#181818;stroke-width:0.5;" width="4" x="731.5173" y="599.6094"/><rect fill="#F1F1F1" height="2" style="stroke:#181818;stroke-width:0.5;" width="4" x="731.5173" y="603.6094"/><text fill="#000000" font-family="sans-serif" font-size="14" lengthAdjust="spacing" textLength="63.0273" x="665.49" y="627.1426">Q&amp;A Data</text></g><!--entity Blog Data--><g class="entity" data-qualified-name="Data Layer.MySQL Database.Blog Data" data-source-line="26" id="ent0018"><rect fill="#F1F1F1" height="47.6094" rx="2.5" ry="2.5" style="stroke:#181818;stroke-width:0.5;" width="101.4824" x="788.49" y="592.6094"/><rect fill="#F1F1F1" height="10" style="stroke:#181818;stroke-width:0.5;" width="15" x="869.9724" y="597.6094"/><rect fill="#F1F1F1" height="2" style="stroke:#181818;stroke-width:0.5;" width="4" x="867.9724" y="599.6094"/><rect fill="#F1F1F1" height="2" style="stroke:#181818;stroke-width:0.5;" width="4" x="867.9724" y="603.6094"/><text fill="#000000" font-family="sans-serif" font-size="14" lengthAdjust="spacing" textLength="61.4824" x="803.49" y="627.1426">Blog Data</text></g><!--entity Model Metadata--><g class="entity" data-qualified-name="Data Layer.MySQL Database.Model Metadata" data-source-line="27" id="ent0019"><rect fill="#F1F1F1" height="47.6094" rx="2.5" ry="2.5" style="stroke:#181818;stroke-width:0.5;" width="140.3926" x="472.99" y="715.1094"/><rect fill="#F1F1F1" height="10" style="stroke:#181818;stroke-width:0.5;" width="15" x="593.3826" y="720.1094"/><rect fill="#F1F1F1" height="2" style="stroke:#181818;stroke-width:0.5;" width="4" x="591.3826" y="722.1094"/><rect fill="#F1F1F1" height="2" style="stroke:#181818;stroke-width:0.5;" width="4" x="591.3826" y="726.1094"/><text fill="#000000" font-family="sans-serif" font-size="14" lengthAdjust="spacing" textLength="100.3926" x="487.99" y="749.6426">Model Metadata</text></g><!--entity Dataset Metadata--><g class="entity" data-qualified-name="Data Layer.MySQL Database.Dataset Metadata" data-source-line="28" id="ent0020"><rect fill="#F1F1F1" height="47.6094" rx="2.5" ry="2.5" style="stroke:#181818;stroke-width:0.5;" width="150.5098" x="648.49" y="715.1094"/><rect fill="#F1F1F1" height="10" style="stroke:#181818;stroke-width:0.5;" width="15" x="778.9998" y="720.1094"/><rect fill="#F1F1F1" height="2" style="stroke:#181818;stroke-width:0.5;" width="4" x="776.9998" y="722.1094"/><rect fill="#F1F1F1" height="2" style="stroke:#181818;stroke-width:0.5;" width="4" x="776.9998" y="726.1094"/><text fill="#000000" font-family="sans-serif" font-size="14" lengthAdjust="spacing" textLength="110.5098" x="663.49" y="749.6426">Dataset Metadata</text></g><!--entity Follow Relationships--><g class="entity" data-qualified-name="Data Layer.MySQL Database.Follow Relationships" data-source-line="29" id="ent0021"><rect fill="#F1F1F1" height="47.6094" rx="2.5" ry="2.5" style="stroke:#181818;stroke-width:0.5;" width="168.3926" x="834.99" y="715.1094"/><rect fill="#F1F1F1" height="10" style="stroke:#181818;stroke-width:0.5;" width="15" x="983.3826" y="720.1094"/><rect fill="#F1F1F1" height="2" style="stroke:#181818;stroke-width:0.5;" width="4" x="981.3826" y="722.1094"/><rect fill="#F1F1F1" height="2" style="stroke:#181818;stroke-width:0.5;" width="4" x="981.3826" y="726.1094"/><text fill="#000000" font-family="sans-serif" font-size="14" lengthAdjust="spacing" textLength="128.3926" x="849.99" y="749.6426">Follow Relationships</text></g><!--entity Transaction Records--><g class="entity" data-qualified-name="Data Layer.MySQL Database.Transaction Records" data-source-line="30" id="ent0022"><rect fill="#F1F1F1" height="47.6094" rx="2.5" ry="2.5" style="stroke:#181818;stroke-width:0.5;" width="169.165" x="473.49" y="824.1094"/><rect fill="#F1F1F1" height="10" style="stroke:#181818;stroke-width:0.5;" width="15" x="622.655" y="829.1094"/><rect fill="#F1F1F1" height="2" style="stroke:#181818;stroke-width:0.5;" width="4" x="620.655" y="831.1094"/><rect fill="#F1F1F1" height="2" style="stroke:#181818;stroke-width:0.5;" width="4" x="620.655" y="835.1094"/><text fill="#000000" font-family="sans-serif" font-size="14" lengthAdjust="spacing" textLength="129.165" x="488.49" y="858.6426">Transaction Records</text></g><!--entity Email Service - SMTP--><g class="entity" data-qualified-name="External Systems.Email Service - SMTP" data-source-line="37" id="ent0025"><rect fill="#F1F1F1" height="47.6094" rx="2.5" ry="2.5" style="stroke:#181818;stroke-width:0.5;" width="176.9102" x="1099.49" y="592.6094"/><rect fill="#F1F1F1" height="10" style="stroke:#181818;stroke-width:0.5;" width="15" x="1256.4002" y="597.6094"/><rect fill="#F1F1F1" height="2" style="stroke:#181818;stroke-width:0.5;" width="4" x="1254.4002" y="599.6094"/><rect fill="#F1F1F1" height="2" style="stroke:#181818;stroke-width:0.5;" width="4" x="1254.4002" y="603.6094"/><text fill="#000000" font-family="sans-serif" font-size="14" lengthAdjust="spacing" textLength="136.9102" x="1114.49" y="627.1426">Email Service - SMTP</text></g><!--entity Payment Gateway - Third-party--><g class="entity" data-qualified-name="External Systems.Payment Gateway - Third-party" data-source-line="38" id="ent0026"><rect fill="#F1F1F1" height="47.6094" rx="2.5" ry="2.5" style="stroke:#181818;stroke-width:0.5;" width="234.5098" x="1311.49" y="592.6094"/><rect fill="#F1F1F1" height="10" style="stroke:#181818;stroke-width:0.5;" width="15" x="1525.9998" y="597.6094"/><rect fill="#F1F1F1" height="2" style="stroke:#181818;stroke-width:0.5;" width="4" x="1523.9998" y="599.6094"/><rect fill="#F1F1F1" height="2" style="stroke:#181818;stroke-width:0.5;" width="4" x="1523.9998" y="603.6094"/><text fill="#000000" font-family="sans-serif" font-size="14" lengthAdjust="spacing" textLength="194.5098" x="1326.49" y="627.1426">Payment Gateway - Third-party</text></g><g class="entity" data-qualified-name="GMN44" data-source-line="63" id="ent0045"><path d="M581.49,88.6094 L581.49,131.3125 L776.6379,131.3125 L776.6379,98.6094 L766.6379,88.6094 L581.49,88.6094" fill="#FEFFDD" style="stroke:#181818;stroke-width:0.5;"/><path d="M766.6379,88.6094 L766.6379,98.6094 L776.6379,98.6094 L766.6379,88.6094" fill="#FEFFDD" style="stroke:#181818;stroke-width:1;"/><text fill="#000000" font-family="sans-serif" font-size="13" lengthAdjust="spacing" textLength="174.1479" x="587.49" y="107.1045">Supports multilingual interface</text><text fill="#000000" font-family="sans-serif" font-size="13" lengthAdjust="spacing" textLength="159.6816" x="587.49" y="123.4561">(Chinese/English switching)</text></g><g class="entity" data-qualified-name="GMN47" data-source-line="68" id="ent0048"><path d="M1226.49,370.1094 L1226.49,412.8125 L1467.157,412.8125 L1467.157,380.1094 L1457.157,370.1094 L1226.49,370.1094" fill="#FEFFDD" style="stroke:#181818;stroke-width:0.5;"/><path d="M1457.157,370.1094 L1457.157,380.1094 L1467.157,380.1094 L1457.157,370.1094" fill="#FEFFDD" style="stroke:#181818;stroke-width:1;"/><text fill="#000000" font-family="sans-serif" font-size="13" lengthAdjust="spacing" textLength="219.667" x="1232.49" y="388.6045">Intelligent recommendation algorithms</text><text fill="#000000" font-family="sans-serif" font-size="13" lengthAdjust="spacing" textLength="138.7471" x="1232.49" y="404.9561">Online model invocation</text></g><g class="entity" data-qualified-name="GMN50" data-source-line="73" id="ent0051"><path d="M1725.49,579.1094 L1725.49,654.5156 L1918.1243,654.5156 L1918.1243,589.1094 L1908.1243,579.1094 L1725.49,579.1094" fill="#FEFFDD" style="stroke:#181818;stroke-width:0.5;"/><path d="M1908.1243,579.1094 L1908.1243,589.1094 L1918.1243,589.1094 L1908.1243,579.1094" fill="#FEFFDD" style="stroke:#181818;stroke-width:1;"/><text fill="#000000" font-family="sans-serif" font-size="13" lengthAdjust="spacing" textLength="120.6943" x="1731.49" y="597.6045">Spring Boot backend</text><text fill="#000000" font-family="sans-serif" font-size="13" lengthAdjust="spacing" textLength="113.4326" x="1731.49" y="613.9561">MySQL persistence</text><text fill="#000000" font-family="sans-serif" font-size="13" lengthAdjust="spacing" textLength="134.418" x="1731.49" y="630.3076">Supports 1,000 req/sec</text><text fill="#000000" font-family="sans-serif" font-size="13" lengthAdjust="spacing" textLength="171.6343" x="1731.49" y="646.6592">Stores data for 10,000+ users</text></g><g class="entity" data-qualified-name="GMN53" data-source-line="80" id="ent0054"><path d="M1581.49,587.1094 L1581.49,646.1641 L1690.2971,646.1641 L1690.2971,597.1094 L1680.2971,587.1094 L1581.49,587.1094" fill="#FEFFDD" style="stroke:#181818;stroke-width:0.5;"/><path d="M1680.2971,587.1094 L1680.2971,597.1094 L1690.2971,597.1094 L1680.2971,587.1094" fill="#FEFFDD" style="stroke:#181818;stroke-width:1;"/><text fill="#000000" font-family="sans-serif" font-size="13" lengthAdjust="spacing" textLength="87.8071" x="1587.49" y="605.6045">30GB+ storage</text><text fill="#000000" font-family="sans-serif" font-size="13" lengthAdjust="spacing" textLength="84.5444" x="1587.49" y="621.9561">Model binaries</text><text fill="#000000" font-family="sans-serif" font-size="13" lengthAdjust="spacing" textLength="71.5317" x="1587.49" y="638.3076">Dataset files</text></g><!--link Web Browser - Vue.js Frontend to API Gateway - Spring Boot--><g class="link" data-entity-1="ent0002" data-entity-2="ent0007" data-link-type="dependency" data-source-line="41" id="lnk27"><path d="M301.39,134.2594 C372,163.2394 487.5945,210.6808 558.1245,239.6308" fill="none" id="Web Browser - Vue.js Frontend-to-API Gateway - Spring Boot" style="stroke:#181818;stroke-width:1;"/><polygon fill="#181818" points="562.75,241.5294,555.943,234.4115,558.1245,239.6308,552.9052,241.8123,562.75,241.5294" style="stroke:#181818;stroke-width:1;stroke-linejoin:miter;stroke-miterlimit:10;"/><text fill="#000000" font-family="sans-serif" font-size="13" lengthAdjust="spacing" textLength="80.1646" x="432.99" y="186.1045">HTTP/HTTPS</text></g><!--link API Gateway - Spring Boot to User Service--><g class="link" data-entity-1="ent0007" data-entity-2="ent0008" data-link-type="dependency" data-source-line="42" id="lnk28"><path d="M689.11,289.6894 C715.79,298.7094 746.41,309.3394 773.99,319.6094 C814.75,334.7894 855.6489,351.2802 890.1889,365.5502" fill="none" id="API Gateway - Spring Boot-to-User Service" style="stroke:#181818;stroke-width:1;"/><polygon fill="#181818" points="894.81,367.4594,888.0193,360.3259,890.1889,365.5502,884.9646,367.7197,894.81,367.4594" style="stroke:#181818;stroke-width:1;stroke-linejoin:miter;stroke-miterlimit:10;"/><text fill="#000000" font-family="sans-serif" font-size="13" lengthAdjust="spacing" textLength="50.5718" x="817.99" y="334.1045">API calls</text></g><!--link API Gateway - Spring Boot to Community Service--><g class="link" data-entity-1="ent0007" data-entity-2="ent0009" data-link-type="dependency" data-source-line="43" id="lnk29"><path d="M617.14,289.6394 C615.35,311.7794 613.0713,340.0655 611.2813,362.2955" fill="none" id="API Gateway - Spring Boot-to-Community Service" style="stroke:#181818;stroke-width:1;"/><polygon fill="#181818" points="610.88,367.2794,615.5895,358.6295,611.2813,362.2955,607.6153,357.9874,610.88,367.2794" style="stroke:#181818;stroke-width:1;stroke-linejoin:miter;stroke-miterlimit:10;"/><text fill="#000000" font-family="sans-serif" font-size="13" lengthAdjust="spacing" textLength="50.5718" x="614.99" y="334.1045">API calls</text></g><!--link API Gateway - Spring Boot to Model Service--><g class="link" data-entity-1="ent0007" data-entity-2="ent0010" data-link-type="dependency" data-source-line="44" id="lnk30"><path d="M542.15,289.6994 C512.89,298.7194 479.3,309.3494 448.99,319.6094 C404.15,334.7994 358.6626,351.4463 320.5726,365.7063" fill="none" id="API Gateway - Spring Boot-to-Model Service" style="stroke:#181818;stroke-width:1;"/><polygon fill="#181818" points="315.89,367.4594,325.7211,368.05,320.5726,365.7063,322.9162,360.5578,315.89,367.4594" style="stroke:#181818;stroke-width:1;stroke-linejoin:miter;stroke-miterlimit:10;"/><text fill="#000000" font-family="sans-serif" font-size="13" lengthAdjust="spacing" textLength="50.5718" x="449.99" y="334.1045">API calls</text></g><!--link API Gateway - Spring Boot to Dataset Service--><g class="link" data-entity-1="ent0007" data-entity-2="ent0011" data-link-type="dependency" data-source-line="45" id="lnk31"><path d="M582.77,289.6394 C547.86,311.8494 499.5293,342.5765 464.5693,364.8065" fill="none" id="API Gateway - Spring Boot-to-Dataset Service" style="stroke:#181818;stroke-width:1;"/><polygon fill="#181818" points="460.35,367.4894,470.091,366.0356,464.5693,364.8065,465.7983,359.2848,460.35,367.4894" style="stroke:#181818;stroke-width:1;stroke-linejoin:miter;stroke-miterlimit:10;"/><text fill="#000000" font-family="sans-serif" font-size="13" lengthAdjust="spacing" textLength="50.5718" x="533.99" y="334.1045">API calls</text></g><!--link API Gateway - Spring Boot to Payment Service--><g class="link" data-entity-1="ent0007" data-entity-2="ent0012" data-link-type="dependency" data-source-line="46" id="lnk32"><path d="M722.7,285.8494 C769.97,295.1494 826.53,307.0194 876.99,319.6094 C934.13,333.8694 993.2434,351.3515 1040.8834,366.0915" fill="none" id="API Gateway - Spring Boot-to-Payment Service" style="stroke:#181818;stroke-width:1;"/><polygon fill="#181818" points="1045.66,367.5694,1038.2445,361.0879,1040.8834,366.0915,1035.8798,368.7304,1045.66,367.5694" style="stroke:#181818;stroke-width:1;stroke-linejoin:miter;stroke-miterlimit:10;"/><text fill="#000000" font-family="sans-serif" font-size="13" lengthAdjust="spacing" textLength="50.5718" x="943.99" y="334.1045">API calls</text></g><!--link API Gateway - Spring Boot to Admin Service--><g class="link" data-entity-1="ent0007" data-entity-2="ent0013" data-link-type="dependency" data-source-line="47" id="lnk33"><path d="M650.76,289.6394 C681.38,311.8494 723.402,342.3244 754.062,364.5544" fill="none" id="API Gateway - Spring Boot-to-Admin Service" style="stroke:#181818;stroke-width:1;"/><polygon fill="#181818" points="758.11,367.4894,753.1716,358.9681,754.062,364.5544,748.4757,365.4448,758.11,367.4894" style="stroke:#181818;stroke-width:1;stroke-linejoin:miter;stroke-miterlimit:10;"/><text fill="#000000" font-family="sans-serif" font-size="13" lengthAdjust="spacing" textLength="50.5718" x="714.99" y="334.1045">API calls</text></g><!--link User Service to MySQL Database--><g class="link" data-entity-1="ent0008" data-entity-2="ent0015" data-link-type="dependency" data-source-line="49" id="lnk34"><path d="M922.58,415.9294 C900.32,433.2894 867.27,455.6294 833.99,465.6094 C813.93,471.6294 472.07,459.0594 456.99,473.6094 C454.1925,476.3119 452.2875,486.2838 451.0052,499.7834 C450.364,506.5333 449.8785,514.1651 449.5149,522.2111 C449.424,524.2226 449.3407,526.2601 449.2646,528.316 C449.2265,529.344 449.1902,530.3767 449.1555,531.413 C449.1382,531.9312 449.2796,527.4529 449.2631,527.9728" fill="none" id="User Service-to-MySQL Database" style="stroke:#181818;stroke-width:1;"/><polygon fill="#181818" points="449.1049,532.9703,453.3877,524.1014,449.2631,527.9728,445.3917,523.8482,449.1049,532.9703" style="stroke:#181818;stroke-width:1;stroke-linejoin:miter;stroke-miterlimit:10;"/><text fill="#000000" font-family="sans-serif" font-size="13" lengthAdjust="spacing" textLength="101.8735" x="875.99" y="462.1045">CRUD operations</text></g><!--link Community Service to MySQL Database--><g class="link" data-entity-1="ent0009" data-entity-2="ent0015" data-link-type="dependency" data-source-line="50" id="lnk35"><path d="M600.27,415.9294 C592.64,432.7994 579.81,454.5094 560.99,465.6094 C541.03,477.3894 473.22,457.0494 456.99,473.6094 C454.27,476.3869 452.4044,486.3969 451.1373,499.9116 C450.5038,506.6689 450.02,514.3024 449.6538,522.3461 C449.5622,524.3571 449.478,526.3936 449.4007,528.4485 C449.362,529.476 449.3251,530.5081 449.2898,531.5438 C449.2721,532.0617 449.4168,527.5831 449.3999,528.1026" fill="none" id="Community Service-to-MySQL Database" style="stroke:#181818;stroke-width:1;"/><polygon fill="#181818" points="449.238,533.1,453.5274,524.2343,449.3999,528.1026,445.5316,523.9752,449.238,533.1" style="stroke:#181818;stroke-width:1;stroke-linejoin:miter;stroke-miterlimit:10;"/><text fill="#000000" font-family="sans-serif" font-size="13" lengthAdjust="spacing" textLength="101.8735" x="580.99" y="462.1045">CRUD operations</text></g><!--link Model Service to MySQL Database--><g class="link" data-entity-1="ent0010" data-entity-2="ent0015" data-link-type="dependency" data-source-line="51" id="lnk36"><path d="M216.68,415.7894 C196.86,430.5594 179.7,449.8194 194.99,465.6094 C214.33,485.5694 425.38,453.9194 444.99,473.6094 C450.475,479.1144 453.5031,490.51 454.9514,504.5634 C455.6755,511.5902 456.0047,519.2813 456.0486,527.2329 C456.0595,529.2207 456.1097,526.2252 456.0867,528.2393" fill="none" id="Model Service-to-MySQL Database" style="stroke:#181818;stroke-width:1;"/><polygon fill="#181818" points="456.0297,533.239,460.1321,524.2852,456.0867,528.2393,452.1327,524.1939,456.0297,533.239" style="stroke:#181818;stroke-width:1;stroke-linejoin:miter;stroke-miterlimit:10;"/><text fill="#000000" font-family="sans-serif" font-size="13" lengthAdjust="spacing" textLength="101.8735" x="195.99" y="462.1045">CRUD operations</text></g><!--link Dataset Service to MySQL Database--><g class="link" data-entity-1="ent0011" data-entity-2="ent0015" data-link-type="dependency" data-source-line="52" id="lnk37"><path d="M435.46,415.8494 C439.62,425.4494 443.82,436.8194 445.99,447.6094 C449.6275,465.6244 451.6569,484.9469 452.6492,503.8423 C453.1454,513.2901 453.3823,522.6311 453.4313,531.6485 C453.4344,532.212 453.4224,527.7744 453.424,528.3354" fill="none" id="Dataset Service-to-MySQL Database" style="stroke:#181818;stroke-width:1;"/><polygon fill="#181818" points="453.4384,533.3354,457.4124,524.3239,453.424,528.3354,449.4125,524.3469,453.4384,533.3354" style="stroke:#181818;stroke-width:1;stroke-linejoin:miter;stroke-miterlimit:10;"/><text fill="#000000" font-family="sans-serif" font-size="13" lengthAdjust="spacing" textLength="101.8735" x="450.99" y="462.1045">CRUD operations</text></g><!--link Payment Service to MySQL Database--><g class="link" data-entity-1="ent0012" data-entity-2="ent0015" data-link-type="dependency" data-source-line="53" id="lnk38"><path d="M1155.44,415.6394 C1175.21,430.5194 1192.46,449.9694 1176.99,465.6094 C1162.93,479.8294 471.45,459.7894 456.99,473.6094 C454.18,476.2969 452.2687,486.2613 450.9841,499.7581 C450.3417,506.5066 449.856,514.1381 449.4929,522.1848 C449.4022,524.1964 449.3191,526.234 449.2431,528.2903 C449.2051,529.3184 449.1689,530.3511 449.1344,531.3877 C449.1171,531.9059 449.2579,527.4276 449.2415,527.9476" fill="none" id="Payment Service-to-MySQL Database" style="stroke:#181818;stroke-width:1;"/><polygon fill="#181818" points="449.0839,532.9451,453.3656,524.0756,449.2415,527.9476,445.3695,523.8236,449.0839,532.9451" style="stroke:#181818;stroke-width:1;stroke-linejoin:miter;stroke-miterlimit:10;"/><text fill="#000000" font-family="sans-serif" font-size="13" lengthAdjust="spacing" textLength="101.8735" x="1182.99" y="462.1045">CRUD operations</text></g><!--link Admin Service to MySQL Database--><g class="link" data-entity-1="ent0013" data-entity-2="ent0015" data-link-type="dependency" data-source-line="54" id="lnk39"><path d="M767.18,415.7894 C748.5,433.0594 720.44,455.3694 690.99,465.6094 C678.71,469.8794 466.29,464.5094 456.99,473.6094 C454.21,476.3294 452.3144,486.3106 451.0361,499.8145 C450.397,506.5665 449.9121,514.1991 449.5483,522.2451 C449.4573,524.2565 449.3739,526.2939 449.2976,528.3497 C449.2594,529.3777 449.223,530.4102 449.1882,531.4465 C449.1709,531.9646 449.3128,527.4862 449.2963,528.0061" fill="none" id="Admin Service-to-MySQL Database" style="stroke:#181818;stroke-width:1;"/><polygon fill="#181818" points="449.1374,533.0036,453.4213,524.1352,449.2963,528.0061,445.4254,523.8811,449.1374,533.0036" style="stroke:#181818;stroke-width:1;stroke-linejoin:miter;stroke-miterlimit:10;"/><text fill="#000000" font-family="sans-serif" font-size="13" lengthAdjust="spacing" textLength="101.8735" x="723.99" y="462.1045">CRUD operations</text></g><!--link Model Service to File Storage--><g class="link" data-entity-1="ent0010" data-entity-2="ent0023" data-link-type="dependency" data-source-line="56" id="lnk40"><path d="M190.24,398.1994 C125.69,405.2794 33.06,420.0094 10.99,447.6094 C6,453.8594 6.61,458.9194 10.99,465.6094 C75.01,563.2394 212.8838,596.9276 293.2538,608.8176" fill="none" id="Model Service-to-File Storage" style="stroke:#181818;stroke-width:1;"/><polygon fill="#181818" points="298.2,609.5494,289.8823,604.2753,293.2538,608.8176,288.7115,612.1892,298.2,609.5494" style="stroke:#181818;stroke-width:1;stroke-linejoin:miter;stroke-miterlimit:10;"/><text fill="#000000" font-family="sans-serif" font-size="13" lengthAdjust="spacing" textLength="122.8652" x="11.99" y="462.1045">File upload/download</text></g><!--link Dataset Service to File Storage--><g class="link" data-entity-1="ent0011" data-entity-2="ent0023" data-link-type="dependency" data-source-line="57" id="lnk41"><path d="M384.39,415.7494 C369.75,423.8294 352.86,432.6194 336.99,439.6094 C327.09,443.9694 320.27,438.7894 313.99,447.6094 C282.38,492.0794 313.959,553.7577 336.619,588.3277" fill="none" id="Dataset Service-to-File Storage" style="stroke:#181818;stroke-width:1;"/><polygon fill="#181818" points="339.36,592.5094,337.7715,582.7895,336.619,588.3277,331.0808,587.1751,339.36,592.5094" style="stroke:#181818;stroke-width:1;stroke-linejoin:miter;stroke-miterlimit:10;"/><text fill="#000000" font-family="sans-serif" font-size="13" lengthAdjust="spacing" textLength="122.8652" x="314.99" y="462.1045">File upload/download</text></g><!--link User Service to Email Service - SMTP--><g class="link" data-entity-1="ent0008" data-entity-2="ent0025" data-link-type="dependency" data-source-line="59" id="lnk42"><path d="M979.98,415.8094 C992.02,425.3894 1005.89,436.7794 1017.99,447.6094 C1073.35,497.1294 1130.9483,555.9315 1162.6683,588.9915" fill="none" id="User Service-to-Email Service - SMTP" style="stroke:#181818;stroke-width:1;"/><polygon fill="#181818" points="1166.13,592.5994,1162.7853,583.3358,1162.6683,588.9915,1157.0127,588.8745,1166.13,592.5994" style="stroke:#181818;stroke-width:1;stroke-linejoin:miter;stroke-miterlimit:10;"/><text fill="#000000" font-family="sans-serif" font-size="13" lengthAdjust="spacing" textLength="130.7681" x="1037.99" y="462.1045">Password reset emails</text></g><!--link Payment Service to Payment Gateway - Third-party--><g class="link" data-entity-1="ent0012" data-entity-2="ent0026" data-link-type="dependency" data-source-line="60" id="lnk43"><path d="M1154.19,415.7194 C1170.33,424.8294 1189.97,434.3694 1208.99,439.6094 C1237.11,447.3594 1315.48,431.8094 1339.99,447.6094 C1391.74,480.9494 1414.1699,550.0058 1423.1599,587.6958" fill="none" id="Payment Service-to-Payment Gateway - Third-party" style="stroke:#181818;stroke-width:1;"/><polygon fill="#181818" points="1424.32,592.5594,1426.1227,582.8769,1423.1599,587.6958,1418.341,584.733,1424.32,592.5594" style="stroke:#181818;stroke-width:1;stroke-linejoin:miter;stroke-miterlimit:10;"/><text fill="#000000" font-family="sans-serif" font-size="13" lengthAdjust="spacing" textLength="117.7808" x="1359.99" y="462.1045">Payment processing</text></g><!--link GMN44 to API Gateway - Spring Boot--><g class="link" data-entity-1="ent0045" data-entity-2="ent0007" data-link-type="association" data-source-line="63" id="lnk46"><path d="M671.58,131.8494 C665.84,147.7194 657.62,170.1294 649.99,189.6094 C643.17,207.0594 635.07,226.6194 628.86,241.3894" fill="none" id="GMN44-API Gateway - Spring Boot" style="stroke:#181818;stroke-width:1;stroke-dasharray:7,7;"/></g><!--link Model Service to GMN47--><g class="link" data-entity-1="ent0010" data-entity-2="ent0048" data-link-type="association" data-source-line="68" id="lnk49"><path d="M283.32,367.5194 C302.15,353.1394 328.18,336.2394 354.49,328.6094 C532.71,276.9294 1007.29,293.5194 1189.49,328.6094 C1230.56,336.5194 1274.53,355.0394 1305.54,369.9594" fill="none" id="Model Service-GMN47" style="stroke:#181818;stroke-width:1;stroke-dasharray:7,7;"/></g><!--link GMN50 to MySQL Database--><g class="link" data-entity-1="ent0051" data-entity-2="ent0015" data-link-type="association" data-source-line="73" id="lnk52"><path d="M1804.8,578.7894 C1784.21,538.9394 1745.47,478.9194 1690.49,456.6094 C1659.2,443.9094 505.79,443.9094 474.49,456.6094 C464.45,460.6894 461.49,463.7394 456.99,473.6094 C453.845,480.5094 451.745,492.2406 450.3705,506.1089 C449.6832,513.043 449.1773,520.5114 448.8128,528.1773 C448.7673,529.1356 448.7239,530.0969 448.6827,531.0606 C448.6621,531.5425 448.642,532.025 448.6225,532.508 C448.6127,532.7495 448.603,532.9911 448.5935,533.2329" fill="none" id="GMN50-MySQL Database" style="stroke:#181818;stroke-width:1;stroke-dasharray:7,7;"/></g><!--link File Storage to GMN53--><g class="link" data-entity-1="ent0023" data-entity-2="ent0054" data-link-type="association" data-source-line="80" id="lnk55"><path d="M360.86,592.3194 C370.2,553.4094 394.89,479.1694 450.49,456.6094 C478.68,445.1694 1517.31,445.1694 1545.49,456.6094 C1598.13,477.9694 1621.32,546.9794 1630.57,587.0494" fill="none" id="File Storage-GMN53" style="stroke:#181818;stroke-width:1;stroke-dasharray:7,7;"/></g><?plantuml-src bLR1Sjem4BtxAtPowBIJKiZqraDd892KcT2IcBI7J0_2NcorigHASgWdqt_lIeQ03I5mOT1gt-hjqtfNZZk1C4JKS8FCI2upcAWK1SGvCtur5Smjb2cW0pUiGeCfz4sISuU9Amr6aMR9RvOXd4qDMfIEEQvaxNi6Jn70mm-Smy2efKL3KRwN-E6NXIkZf4EP_YGFgHo2uLdkG2sEy0UOLHhZn73ju7uSB9wraJ2lSHQK55NO-AfWF09RQgsC8ml520T6_xQuzxKMFDcbtf-EuPevNBAAgCGwI39GodaQ3_UUOOpcaISO39UgA4h9NTMmhWJTiWoPOnPTmpPbLK7oDMpzjE1oOzbcx4DiKqrfFQUWS3QfujiR6AxMzUwQR3z9L2cThLLyk7tJ3uwhvK2eR7jT4v-WO-d6kERUCbyf8TGIxb045MtEzVgKcM7IiYI8UuU9CcdOeMmyZbC1nauPoggPuUYlenjbf5nb7HPsTIMZWl5dDVsbJ6RJXe2R-vhbtAGTpOohGkXNAWiwdS-7hXm-mPVPRDhrFt5qo344QbG7ORr_meImhqDtw-WqVBFYJiEsQ_CqTBkAJqCtwxs1ZLfwrdasIjq3Bk_kXw0qcheAetrI7WjjgNWiR4V0Ou4xsXqBRCbs96n_WetlaL1XNMgXMDfDrLBwFo_bU1HsxqNk_QWfmfHPkwI60NwsE43lzg9IXnj0Y5OxQACIj9QABuh2x75AXybpiDt7zGYnK9J2SK5R9JKdJht3B5Y2vF7sCkUIY7P7CXFSvc2NtD6ibDcxw7diHArfjpCTnXHH29vvfeRQPK6SqteqCP4fmrrUMFBx9ea3GX7mN3wgUdwrJnAuM1tKh0YVqIP1c5FR9IHPQp-g4ykfxygGsNFk5-zxlHxH-jErcFWDkcsqOVe0FHFWekSTpg7qG_Zbf9jT7-1Zxtfm3hOsHB1wWyovf4S8-cJN1RSWu5RS_m00?></g></svg>