<svg xmlns="http://www.w3.org/2000/svg" xmlns:xlink="http://www.w3.org/1999/xlink" contentStyleType="text/css" data-diagram-type="DESCRIPTION" height="666px" preserveAspectRatio="none" style="width:1248px;height:666px;background:#FFFFFF;" version="1.1" viewBox="0 0 1248 666" width="1248px" zoomAndPan="magnify"><?plantuml 1.2026.6?><defs/><g><g class="title" data-source-line="7"><text fill="#000000" font-family="sans-serif" font-size="14" font-weight="700" lengthAdjust="spacing" textLength="187.4961" x="526.8491" y="24.5332">ReTool System Architecture</text></g><!--cluster client--><g class="cluster" data-qualified-name="client" data-source-line="9" id="ent0001"><rect fill="none" height="106" rx="2.5" ry="2.5" style="stroke:#181818;stroke-width:1;" width="187" x="649" y="45.6094"/><text fill="#000000" font-family="sans-serif" font-size="14" font-weight="700" lengthAdjust="spacing" textLength="108.124" x="688.438" y="62.1426">Client (Browser)</text></g><!--cluster local--><g class="cluster" data-qualified-name="local" data-source-line="13" id="ent0003"><rect fill="none" height="262.5" rx="2.5" ry="2.5" style="stroke:#181818;stroke-width:1;" width="756" x="253" y="217.6094"/><text fill="#000000" font-family="sans-serif" font-size="14" font-weight="700" lengthAdjust="spacing" textLength="106.5654" x="577.7173" y="234.1426">Local Computer</text></g><!--cluster server--><g class="cluster" data-qualified-name="server" data-source-line="20" id="ent0008"><rect fill="none" height="106" rx="2.5" ry="2.5" style="stroke:#181818;stroke-width:1;" width="197" x="7" y="374.1094"/><text fill="#000000" font-family="sans-serif" font-size="14" font-weight="700" lengthAdjust="spacing" textLength="43.5928" x="83.7036" y="390.6426">Server</text></g><!--cluster database--><g class="cluster" data-qualified-name="database" data-source-line="24" id="ent0010"><rect fill="none" height="106" rx="2.5" ry="2.5" style="stroke:#181818;stroke-width:1;" width="149" x="448" y="546.1094"/><text fill="#000000" font-family="sans-serif" font-size="14" font-weight="700" lengthAdjust="spacing" textLength="62.2549" x="491.3726" y="562.6426">Database</text></g><!--entity frontend--><g class="entity" data-qualified-name="client.frontend" data-source-line="10" id="ent0002"><rect fill="#F1F1F1" height="37.6094" rx="2.5" ry="2.5" style="stroke:#181818;stroke-width:0.5;" width="118.834" x="692.5" y="89.6094"/><text fill="#000000" font-family="sans-serif" font-size="14" lengthAdjust="spacing" textLength="98.834" x="702.5" y="114.1426">Vue.js Frontend</text></g><!--entity gateway--><g class="entity" data-qualified-name="local.gateway" data-source-line="14" id="ent0004"><rect fill="#F1F1F1" height="37.6094" rx="2.5" ry="2.5" style="stroke:#181818;stroke-width:0.5;" width="101.7031" x="606" y="261.6094"/><text fill="#000000" font-family="sans-serif" font-size="14" lengthAdjust="spacing" textLength="81.7031" x="616" y="286.1426">API Gateway</text></g><!--entity userService--><g class="entity" data-qualified-name="local.userService" data-source-line="15" id="ent0005"><rect fill="#F1F1F1" height="37.6094" rx="2.5" ry="2.5" style="stroke:#181818;stroke-width:0.5;" width="185.7373" x="564" y="418.1094"/><text fill="#000000" font-family="sans-serif" font-size="14" lengthAdjust="spacing" textLength="165.7373" x="574" y="442.6426">User Management Service</text></g><!--entity projectService--><g class="entity" data-qualified-name="local.projectService" data-source-line="16" id="ent0006"><rect fill="#F1F1F1" height="37.6094" rx="2.5" ry="2.5" style="stroke:#181818;stroke-width:0.5;" width="199.751" x="785" y="418.1094"/><text fill="#000000" font-family="sans-serif" font-size="14" lengthAdjust="spacing" textLength="179.751" x="795" y="442.6426">Project Management Service</text></g><!--entity reqService--><g class="entity" data-qualified-name="local.reqService" data-source-line="17" id="ent0007"><rect fill="#F1F1F1" height="37.6094" rx="2.5" ry="2.5" style="stroke:#181818;stroke-width:0.5;" width="243.3301" x="285.5" y="418.1094"/><text fill="#000000" font-family="sans-serif" font-size="14" lengthAdjust="spacing" textLength="223.3301" x="295.5" y="442.6426">Requirements Management Service</text></g><!--entity algoService--><g class="entity" data-qualified-name="server.algoService" data-source-line="21" id="ent0009"><rect fill="#F1F1F1" height="37.6094" rx="2.5" ry="2.5" style="stroke:#181818;stroke-width:0.5;" width="129.7031" x="50" y="418.1094"/><text fill="#000000" font-family="sans-serif" font-size="14" lengthAdjust="spacing" textLength="109.7031" x="60" y="442.6426">Algorithm Service</text></g><!--entity mongodb--><g class="entity" data-qualified-name="database.mongodb" data-source-line="25" id="ent0011"><rect fill="#F1F1F1" height="37.6094" rx="2.5" ry="2.5" style="stroke:#181818;stroke-width:0.5;" width="82.2549" x="491" y="590.1094"/><text fill="#000000" font-family="sans-serif" font-size="14" lengthAdjust="spacing" textLength="62.2549" x="501" y="614.6426">MongoDB</text></g><g class="entity" data-qualified-name="GMN21" data-source-line="39" id="ent0022"><path d="M1033,415.6094 L1033,458.3125 L1233.1943,458.3125 L1233.1943,425.6094 L1223.1943,415.6094 L1033,415.6094" fill="#FEFFDD" style="stroke:#181818;stroke-width:0.5;"/><path d="M1223.1943,415.6094 L1223.1943,425.6094 L1233.1943,425.6094 L1223.1943,415.6094" fill="#FEFFDD" style="stroke:#181818;stroke-width:1;"/><text fill="#000000" font-family="sans-serif" font-size="13" lengthAdjust="spacing" textLength="179.1943" x="1039" y="434.1045">High-performance environment</text><text fill="#000000" font-family="sans-serif" font-size="13" lengthAdjust="spacing" textLength="138.728" x="1059.2332" y="450.4561">for algorithm processing</text></g><g class="entity" data-qualified-name="GMN24" data-source-line="44" id="ent0025"><path d="M1033.5,259.1094 L1033.5,301.8125 L1144.8208,301.8125 L1144.8208,269.1094 L1134.8208,259.1094 L1033.5,259.1094" fill="#FEFFDD" style="stroke:#181818;stroke-width:0.5;"/><path d="M1134.8208,259.1094 L1134.8208,269.1094 L1144.8208,269.1094 L1134.8208,259.1094" fill="#FEFFDD" style="stroke:#181818;stroke-width:1;"/><text fill="#000000" font-family="sans-serif" font-size="13" lengthAdjust="spacing" textLength="90.3208" x="1039.5" y="277.6045">Services run on</text><text fill="#000000" font-family="sans-serif" font-size="13" lengthAdjust="spacing" textLength="84.5381" x="1042.3914" y="293.9561">local computer</text></g><g class="entity" data-qualified-name="GMN27" data-source-line="49" id="ent0028"><path d="M621,587.6094 L621,630.3125 L771.3398,630.3125 L771.3398,597.6094 L761.3398,587.6094 L621,587.6094" fill="#FEFFDD" style="stroke:#181818;stroke-width:0.5;"/><path d="M761.3398,587.6094 L761.3398,597.6094 L771.3398,597.6094 L761.3398,587.6094" fill="#FEFFDD" style="stroke:#181818;stroke-width:1;"/><text fill="#000000" font-family="sans-serif" font-size="13" lengthAdjust="spacing" textLength="129.3398" x="627" y="606.1045">Data persistence layer</text><text fill="#000000" font-family="sans-serif" font-size="13" lengthAdjust="spacing" textLength="114.9116" x="634.2141" y="622.4561">MongoDB database</text></g><!--link client to gateway--><g class="link" data-entity-1="ent0001" data-entity-2="ent0004" data-link-type="dependency" data-source-line="28" id="lnk12"><path d="M657,152.1744 C657,152.6304 657,153.0886 657,153.549 C657,155.3904 657,157.2656 657,159.1697 C657,162.978 657,166.9019 657,170.9019 C657,202.9019 657,234.7744 657,256.3094" fill="none" id="client-to-gateway" style="stroke:#181818;stroke-width:1;"/><polygon fill="#181818" points="657,261.3094,661,252.3094,657,256.3094,653,252.3094,657,261.3094" style="stroke:#181818;stroke-width:1;stroke-linejoin:miter;stroke-miterlimit:10;"/><text fill="#000000" font-family="sans-serif" font-size="13" lengthAdjust="spacing" textLength="72.2236" x="658" y="190.1045">HTTP/REST</text></g><!--link gateway to userService--><g class="link" data-entity-1="ent0004" data-entity-2="ent0005" data-link-type="dependency" data-source-line="29" id="lnk13"><path d="M657,299.6394 C657,329.2494 657,382.8694 657,412.7194" fill="none" id="gateway-to-userService" style="stroke:#181818;stroke-width:1;"/><polygon fill="#181818" points="657,417.7194,661,408.7194,657,412.7194,653,408.7194,657,417.7194" style="stroke:#181818;stroke-width:1;stroke-linejoin:miter;stroke-miterlimit:10;"/><text fill="#000000" font-family="sans-serif" font-size="13" lengthAdjust="spacing" textLength="69.3545" x="658" y="346.6045">Service Call</text></g><!--link gateway to projectService--><g class="link" data-entity-1="ent0004" data-entity-2="ent0006" data-link-type="dependency" data-source-line="30" id="lnk14"><path d="M686.07,299.7994 C701.08,309.2894 719.62,321.1694 736,332.1094 C779.93,361.4694 826.0883,394.0275 855.5683,415.0375" fill="none" id="gateway-to-projectService" style="stroke:#181818;stroke-width:1;"/><polygon fill="#181818" points="859.64,417.9394,854.6324,409.4586,855.5683,415.0375,849.9894,415.9734,859.64,417.9394" style="stroke:#181818;stroke-width:1;stroke-linejoin:miter;stroke-miterlimit:10;"/><text fill="#000000" font-family="sans-serif" font-size="13" lengthAdjust="spacing" textLength="69.3545" x="761" y="346.6045">Service Call</text></g><!--link gateway to reqService--><g class="link" data-entity-1="ent0004" data-entity-2="ent0007" data-link-type="dependency" data-source-line="31" id="lnk15"><path d="M627.83,299.6394 C579.79,329.3294 488.7933,385.5608 440.6233,415.3308" fill="none" id="gateway-to-reqService" style="stroke:#181818;stroke-width:1;"/><polygon fill="#181818" points="436.37,417.9594,446.1288,416.6305,440.6233,415.3308,441.923,409.8252,436.37,417.9594" style="stroke:#181818;stroke-width:1;stroke-linejoin:miter;stroke-miterlimit:10;"/><text fill="#000000" font-family="sans-serif" font-size="13" lengthAdjust="spacing" textLength="69.3545" x="570" y="346.6045">Service Call</text></g><!--link reqService to algoService--><g class="link" data-entity-1="ent0007" data-entity-2="ent0009" data-link-type="dependency" data-source-line="32" id="lnk16"><path d="M285.37,437.1094 C249.29,437.1094 216.18,437.1094 185.17,437.1094" fill="none" id="reqService-to-algoService" style="stroke:#181818;stroke-width:1;"/><polygon fill="#181818" points="180.17,437.1094,189.17,441.1094,185.17,437.1094,189.17,433.1094,180.17,437.1094" style="stroke:#181818;stroke-width:1;stroke-linejoin:miter;stroke-miterlimit:10;"/><text fill="#000000" font-family="sans-serif" font-size="13" lengthAdjust="spacing" textLength="69.3545" x="198.25" y="430.6045">Service Call</text></g><!--link userService to mongodb--><g class="link" data-entity-1="ent0005" data-entity-2="ent0011" data-link-type="dependency" data-source-line="33" id="lnk17"><path d="M643.62,456.2994 C619.56,489.0194 572.2317,553.391 548.2417,586.021" fill="none" id="userService-to-mongodb" style="stroke:#181818;stroke-width:1;"/><polygon fill="#181818" points="545.28,590.0494,553.8339,585.1676,548.2417,586.021,547.3884,580.4288,545.28,590.0494" style="stroke:#181818;stroke-width:1;stroke-linejoin:miter;stroke-miterlimit:10;"/><text fill="#000000" font-family="sans-serif" font-size="13" lengthAdjust="spacing" textLength="37.5527" x="606" y="518.6045">CRUD</text></g><!--link projectService to mongodb--><g class="link" data-entity-1="ent0006" data-entity-2="ent0011" data-link-type="dependency" data-source-line="34" id="lnk18"><path d="M853.62,456.2494 C830.57,468.9294 798.13,485.4394 768,496.1094 C718.2,513.7494 703.86,511.9894 652,522.1094 C630.77,526.2494 623.03,519.8294 604,530.1094 C577.73,544.2994 558.707,567.6453 546.197,585.8953" fill="none" id="projectService-to-mongodb" style="stroke:#181818;stroke-width:1;"/><polygon fill="#181818" points="543.37,590.0194,551.7578,584.8576,546.197,585.8953,545.1593,580.3344,543.37,590.0194" style="stroke:#181818;stroke-width:1;stroke-linejoin:miter;stroke-miterlimit:10;"/><text fill="#000000" font-family="sans-serif" font-size="13" lengthAdjust="spacing" textLength="37.5527" x="742" y="518.6045">CRUD</text></g><!--link reqService to mongodb--><g class="link" data-entity-1="ent0007" data-entity-2="ent0011" data-link-type="dependency" data-source-line="35" id="lnk19"><path d="M424.66,456.2594 C441.66,474.2194 467.58,502.8794 487,530.1094 C500.89,549.5794 511.928,569.2112 520.428,585.4212" fill="none" id="reqService-to-mongodb" style="stroke:#181818;stroke-width:1;"/><polygon fill="#181818" points="522.75,589.8494,522.113,580.0211,520.428,585.4212,515.0279,583.7363,522.75,589.8494" style="stroke:#181818;stroke-width:1;stroke-linejoin:miter;stroke-miterlimit:10;"/><text fill="#000000" font-family="sans-serif" font-size="13" lengthAdjust="spacing" textLength="37.5527" x="480" y="518.6045">CRUD</text></g><!--link algoService to mongodb--><g class="link" data-entity-1="ent0009" data-entity-2="ent0011" data-link-type="dependency" data-source-line="36" id="lnk20"><path d="M156.45,456.1894 C187.05,468.9294 229.98,485.5294 269,496.1094 C335.15,514.0494 353.18,512.2094 421,522.1094 C435.62,524.2494 474.68,521.9594 487,530.1094 C508.13,544.0794 518.9241,566.8677 525.1841,585.1977" fill="none" id="algoService-to-mongodb" style="stroke:#181818;stroke-width:1;"/><polygon fill="#181818" points="526.8,589.9294,527.6766,580.1196,525.1841,585.1977,520.106,582.7051,526.8,589.9294" style="stroke:#181818;stroke-width:1;stroke-linejoin:miter;stroke-miterlimit:10;"/><text fill="#000000" font-family="sans-serif" font-size="13" lengthAdjust="spacing" textLength="37.5527" x="422" y="518.6045">CRUD</text></g><!--link server to GMN21--><g class="link" data-entity-1="ent0008" data-entity-2="ent0022" data-link-type="association" data-source-line="39" id="lnk23"><path d="M20.9026,373.7436 C20.955,373.5642 21.0077,373.3849 21.0609,373.2057 C21.1672,372.8474 21.2751,372.4894 21.3848,372.1318 C23.1393,366.4109 25.3248,360.8023 28.0409,355.5442 C33.4731,345.0281 41.0275,335.9144 51.5,330.1094 C96.79,305.0094 934.2,314.2894 983.5,330.1094 C1035.77,346.8894 1085.29,389.4194 1112.16,415.5294" fill="none" id="server-GMN21" style="stroke:#181818;stroke-width:1;stroke-dasharray:7,7;"/></g><!--link local to GMN24--><g class="link" data-entity-1="ent0003" data-entity-2="ent0025" data-link-type="association" data-source-line="44" id="lnk26"><path d="M261.5249,217.576 C261.5658,217.4165 261.6072,217.2573 261.6489,217.0982 C261.7325,216.7801 261.8178,216.4629 261.9049,216.1465 C262.2536,214.8811 262.6313,213.6301 263.04,212.3972 C263.8575,209.9314 264.799,207.5381 265.8797,205.2475 C270.2025,196.085 276.7525,188.5644 286.5,184.6094 C322.38,170.0494 947.39,170.6394 983.5,184.6094 C1021.84,199.4394 1054.82,235.3994 1073.27,258.8594" fill="none" id="local-GMN24" style="stroke:#181818;stroke-width:1;stroke-dasharray:7,7;"/></g><!--link database to GMN27--><g class="link" data-entity-1="ent0010" data-entity-2="ent0028" data-link-type="association" data-source-line="49" id="lnk29"><path d="M464.155,545.8497 C464.275,545.5317 464.3967,545.2144 464.5201,544.898 C465.0135,543.6324 465.534,542.3807 466.0829,541.1465 C467.1807,538.6782 468.3922,536.2803 469.7288,533.9823 C475.075,524.7906 482.4225,517.1994 492.5,513.1094 C525.03,499.9094 538.27,501.7794 571.5,513.1094 C614.39,527.7194 654,563.7494 676.56,587.2794" fill="none" id="database-GMN27" style="stroke:#181818;stroke-width:1;stroke-dasharray:7,7;"/></g><?plantuml-src XLJ1Kjim4BthAxQSsaFWtWCpmGdG6M0oZkbziTUEG9Q299DcEltthcKPR1CF5u-q-zxJMsdNtmegfIP8rqcsVBYvMqEkq3aXt8lKUxHOGsxglT6a_TOV5O6btAEk50qWReU5EKXTGOdA3JCiZuto6VtnIoKhNRCEvFmXAuINdWLJoenHi3qwJpKiRRwJdizeB0dnVXYS9KgstEzNrXmSsHzdW8xDXk1V0J20_cxe_Dd1jJLyZYu2iemRyM-aUcToL91mYGrR2aWLGXF9vUONtA2d0nu3gEhMOz0Z-u9xr5XHg7DBzatc50WDv-9-JDfOyyoxETw-Iv-aflJQI1iuRevlwRNdZYjlex5Y5vQVIbQLiTBlwf4USlIqu0ezFg7hO4NSJ4NlZQxCwYfWwdPTFBKoyHqNt4LwSTdVBlo4sopRNAJhRIRwM8yPN2ZZ-bM2Ids2Zk_mA_J7ZKsHWyp2ochd6JsuZobywB0NZpKpD4aVLsBYR0OrFFSqOkXY1YAqyJozhMqmPNnpVfnRZYpsP4jZQzJC9_qcULZQJk8qXqEDNIUmtvoSuqaNF4lGIaw5m_WmCThX3cmq6CsHRh3oE6kp0dthCADjAM1lJlA_eVMcy1XCnpRwmBwB_GS0?></g></svg>