<svg xmlns="http://www.w3.org/2000/svg" xmlns:xlink="http://www.w3.org/1999/xlink" contentStyleType="text/css" data-diagram-type="DESCRIPTION" height="1052px" preserveAspectRatio="none" style="width:1795px;height:1052px;background:#FFFFFF;" version="1.1" viewBox="0 0 1795 1052" width="1795px" zoomAndPan="magnify"><?plantuml 1.2026.6?><defs/><g><!--cluster Proxy Layer--><g class="cluster" data-qualified-name="Proxy Layer" data-source-line="1" id="ent0001"><path d="M8.5,6 L89.6582,6 A3.75,3.75 0 0 1 92.1582,8.5 L99.1582,29.6094 L696.5,29.6094 A2.5,2.5 0 0 1 699,32.1094 L699,694.5 A2.5,2.5 0 0 1 696.5,697 L8.5,697 A2.5,2.5 0 0 1 6,694.5 L6,8.5 A2.5,2.5 0 0 1 8.5,6" fill="none" style="stroke:#000000;stroke-width:1.5;"/><line style="stroke:#000000;stroke-width:1.5;" x1="6" x2="99.1582" y1="29.6094" y2="29.6094"/><text fill="#000000" font-family="sans-serif" font-size="14" font-weight="700" lengthAdjust="spacing" textLength="80.1582" x="10" y="22.5332">Proxy Layer</text></g><!--cluster Example Mail Processing Layer--><g class="cluster" data-qualified-name="Proxy Layer.Example Mail Processing Layer" data-source-line="9" id="ent0007"><path d="M32.5,50 L242.8164,50 A3.75,3.75 0 0 1 245.3164,52.5 L252.3164,73.6094 L442.5,73.6094 A2.5,2.5 0 0 1 445,76.1094 L445,670.5 A2.5,2.5 0 0 1 442.5,673 L32.5,673 A2.5,2.5 0 0 1 30,670.5 L30,52.5 A2.5,2.5 0 0 1 32.5,50" fill="none" style="stroke:#000000;stroke-width:1.5;"/><line style="stroke:#000000;stroke-width:1.5;" x1="30" x2="252.3164" y1="73.6094" y2="73.6094"/><text fill="#000000" font-family="sans-serif" font-size="14" font-weight="700" lengthAdjust="spacing" textLength="209.3164" x="34" y="66.5332">Example Mail Processing Layer</text></g><!--cluster Service Layer--><g class="cluster" data-qualified-name="Service Layer" data-source-line="18" id="ent0013"><path d="M1073.5,181 L1165.5684,181 A3.75,3.75 0 0 1 1168.0684,183.5 L1175.0684,204.6094 L1415.5,204.6094 A2.5,2.5 0 0 1 1418,207.1094 L1418,278.5 A2.5,2.5 0 0 1 1415.5,281 L1073.5,281 A2.5,2.5 0 0 1 1071,278.5 L1071,183.5 A2.5,2.5 0 0 1 1073.5,181" fill="none" style="stroke:#000000;stroke-width:1.5;"/><line style="stroke:#000000;stroke-width:1.5;" x1="1071" x2="1175.0684" y1="204.6094" y2="204.6094"/><text fill="#000000" font-family="sans-serif" font-size="14" font-weight="700" lengthAdjust="spacing" textLength="91.0684" x="1075" y="197.5332">Service Layer</text></g><!--cluster Data Layer--><g class="cluster" data-qualified-name="Data Layer" data-source-line="23" id="ent0016"><path d="M789.5,730 L862.0928,730 A3.75,3.75 0 0 1 864.5928,732.5 L871.5928,753.6094 L1178.5,753.6094 A2.5,2.5 0 0 1 1181,756.1094 L1181,935.5 A2.5,2.5 0 0 1 1178.5,938 L789.5,938 A2.5,2.5 0 0 1 787,935.5 L787,732.5 A2.5,2.5 0 0 1 789.5,730" fill="none" style="stroke:#000000;stroke-width:1.5;"/><line style="stroke:#000000;stroke-width:1.5;" x1="787" x2="871.5928" y1="753.6094" y2="753.6094"/><text fill="#000000" font-family="sans-serif" font-size="14" font-weight="700" lengthAdjust="spacing" textLength="71.5928" x="791" y="746.5332">Data Layer</text></g><!--cluster Configuration Layer--><g class="cluster" data-qualified-name="Configuration Layer" data-source-line="30" id="ent0021"><path d="M1129.5,464 L1263.5068,464 A3.75,3.75 0 0 1 1266.0068,466.5 L1273.0068,487.6094 L1549.5,487.6094 A2.5,2.5 0 0 1 1552,490.1094 L1552,670.5 A2.5,2.5 0 0 1 1549.5,673 L1129.5,673 A2.5,2.5 0 0 1 1127,670.5 L1127,466.5 A2.5,2.5 0 0 1 1129.5,464" fill="none" style="stroke:#000000;stroke-width:1.5;"/><line style="stroke:#000000;stroke-width:1.5;" x1="1127" x2="1273.0068" y1="487.6094" y2="487.6094"/><text fill="#000000" font-family="sans-serif" font-size="14" font-weight="700" lengthAdjust="spacing" textLength="133.0068" x="1131" y="480.5332">Configuration Layer</text></g><!--cluster Client SDK Layer--><g class="cluster" data-qualified-name="Client SDK Layer" data-source-line="36" id="ent0025"><path d="M1314.5,331 L1429.0859,331 A3.75,3.75 0 0 1 1431.5859,333.5 L1438.5859,354.6094 L1477.5,354.6094 A2.5,2.5 0 0 1 1480,357.1094 L1480,428.5 A2.5,2.5 0 0 1 1477.5,431 L1314.5,431 A2.5,2.5 0 0 1 1312,428.5 L1312,333.5 A2.5,2.5 0 0 1 1314.5,331" fill="none" style="stroke:#000000;stroke-width:1.5;"/><line style="stroke:#000000;stroke-width:1.5;" x1="1312" x2="1438.5859" y1="354.6094" y2="354.6094"/><text fill="#000000" font-family="sans-serif" font-size="14" font-weight="700" lengthAdjust="spacing" textLength="113.5859" x="1316" y="347.5332">Client SDK Layer</text></g><!--entity Proxy--><g class="entity" data-qualified-name="Proxy Layer.Proxy" data-source-line="2" id="ent0002"><rect fill="#F1F1F1" height="47.6094" rx="2.5" ry="2.5" style="stroke:#181818;stroke-width:0.5;" width="115.4756" x="567.5" y="609"/><rect fill="#F1F1F1" height="10" style="stroke:#181818;stroke-width:0.5;" width="15" x="662.9756" y="614"/><rect fill="#F1F1F1" height="2" style="stroke:#181818;stroke-width:0.5;" width="4" x="660.9756" y="616"/><rect fill="#F1F1F1" height="2" style="stroke:#181818;stroke-width:0.5;" width="4" x="660.9756" y="620"/><text fill="#000000" font-family="sans-serif" font-size="14" lengthAdjust="spacing" textLength="75.4756" x="582.5" y="643.5332">PlugIt Proxy</text></g><!--entity MainAPI--><g class="entity" data-qualified-name="Proxy Layer.MainAPI" data-source-line="3" id="ent0003"><ellipse cx="470" cy="633" fill="#F1F1F1" rx="8" ry="8" style="stroke:#181818;stroke-width:0.5;"/><text fill="#000000" font-family="sans-serif" font-size="14" lengthAdjust="spacing" textLength="115.958" x="412.021" y="664.5332">Main API Endpoint</text></g><!--entity PlugItProtocol--><g class="entity" data-qualified-name="Proxy Layer.PlugItProtocol" data-source-line="4" id="ent0004"><ellipse cx="523" cy="633" fill="#F1F1F1" rx="8" ry="8" style="stroke:#181818;stroke-width:0.5;"/><text fill="#000000" font-family="sans-serif" font-size="14" lengthAdjust="spacing" textLength="91.0479" x="477.4761" y="664.5332">PlugIt Protocol</text></g><!--entity MailParser--><g class="entity" data-qualified-name="Proxy Layer.Example Mail Processing Layer.MailParser" data-source-line="10" id="ent0008"><rect fill="#F1F1F1" height="47.6094" rx="2.5" ry="2.5" style="stroke:#181818;stroke-width:0.5;" width="152.8203" x="102.5" y="86"/><rect fill="#F1F1F1" height="10" style="stroke:#181818;stroke-width:0.5;" width="15" x="235.3203" y="91"/><rect fill="#F1F1F1" height="2" style="stroke:#181818;stroke-width:0.5;" width="4" x="233.3203" y="93"/><rect fill="#F1F1F1" height="2" style="stroke:#181818;stroke-width:0.5;" width="4" x="233.3203" y="97"/><text fill="#000000" font-family="sans-serif" font-size="14" lengthAdjust="spacing" textLength="112.8203" x="117.5" y="120.5332">Mail Intake Parser</text></g><!--entity AutoFilter--><g class="entity" data-qualified-name="Proxy Layer.Example Mail Processing Layer.AutoFilter" data-source-line="11" id="ent0009"><rect fill="#F1F1F1" height="47.6094" rx="2.5" ry="2.5" style="stroke:#181818;stroke-width:0.5;" width="171.5029" x="257" y="217"/><rect fill="#F1F1F1" height="10" style="stroke:#181818;stroke-width:0.5;" width="15" x="408.5029" y="222"/><rect fill="#F1F1F1" height="2" style="stroke:#181818;stroke-width:0.5;" width="4" x="406.5029" y="224"/><rect fill="#F1F1F1" height="2" style="stroke:#181818;stroke-width:0.5;" width="4" x="406.5029" y="228"/><text fill="#000000" font-family="sans-serif" font-size="14" lengthAdjust="spacing" textLength="131.5029" x="272" y="251.5332">Auto-Response Filter</text></g><!--entity MailValidator--><g class="entity" data-qualified-name="Proxy Layer.Example Mail Processing Layer.MailValidator" data-source-line="12" id="ent0010"><rect fill="#F1F1F1" height="47.6094" rx="2.5" ry="2.5" style="stroke:#181818;stroke-width:0.5;" width="176.958" x="249.5" y="367"/><rect fill="#F1F1F1" height="10" style="stroke:#181818;stroke-width:0.5;" width="15" x="406.458" y="372"/><rect fill="#F1F1F1" height="2" style="stroke:#181818;stroke-width:0.5;" width="4" x="404.458" y="374"/><rect fill="#F1F1F1" height="2" style="stroke:#181818;stroke-width:0.5;" width="4" x="404.458" y="378"/><text fill="#000000" font-family="sans-serif" font-size="14" lengthAdjust="spacing" textLength="136.958" x="264.5" y="401.5332">Mail Routing Validator</text></g><!--entity MailInvoker--><g class="entity" data-qualified-name="Proxy Layer.Example Mail Processing Layer.MailInvoker" data-source-line="13" id="ent0011"><rect fill="#F1F1F1" height="47.6094" rx="2.5" ry="2.5" style="stroke:#181818;stroke-width:0.5;" width="168.3857" x="251" y="500"/><rect fill="#F1F1F1" height="10" style="stroke:#181818;stroke-width:0.5;" width="15" x="399.3857" y="505"/><rect fill="#F1F1F1" height="2" style="stroke:#181818;stroke-width:0.5;" width="4" x="397.3857" y="507"/><rect fill="#F1F1F1" height="2" style="stroke:#181818;stroke-width:0.5;" width="4" x="397.3857" y="511"/><text fill="#000000" font-family="sans-serif" font-size="14" lengthAdjust="spacing" textLength="128.3857" x="266" y="534.5332">Mail Handler Invoker</text></g><!--entity MailAck--><g class="entity" data-qualified-name="Proxy Layer.Example Mail Processing Layer.MailAck" data-source-line="14" id="ent0012"><rect fill="#F1F1F1" height="47.6094" rx="2.5" ry="2.5" style="stroke:#181818;stroke-width:0.5;" width="188.6338" x="236.5" y="609"/><rect fill="#F1F1F1" height="10" style="stroke:#181818;stroke-width:0.5;" width="15" x="405.1338" y="614"/><rect fill="#F1F1F1" height="2" style="stroke:#181818;stroke-width:0.5;" width="4" x="403.1338" y="616"/><rect fill="#F1F1F1" height="2" style="stroke:#181818;stroke-width:0.5;" width="4" x="403.1338" y="620"/><text fill="#000000" font-family="sans-serif" font-size="14" lengthAdjust="spacing" textLength="148.6338" x="251.5" y="643.5332">Message Acknowledger</text></g><!--entity ServiceA--><g class="entity" data-qualified-name="Service Layer.ServiceA" data-source-line="19" id="ent0014"><rect fill="#F1F1F1" height="47.6094" rx="2.5" ry="2.5" style="stroke:#181818;stroke-width:0.5;" width="139.5996" x="1087" y="217"/><rect fill="#F1F1F1" height="10" style="stroke:#181818;stroke-width:0.5;" width="15" x="1206.5996" y="222"/><rect fill="#F1F1F1" height="2" style="stroke:#181818;stroke-width:0.5;" width="4" x="1204.5996" y="224"/><rect fill="#F1F1F1" height="2" style="stroke:#181818;stroke-width:0.5;" width="4" x="1204.5996" y="228"/><text fill="#000000" font-family="sans-serif" font-size="14" lengthAdjust="spacing" textLength="99.5996" x="1102" y="251.5332">PlugIt Service A</text></g><!--entity ServiceB--><g class="entity" data-qualified-name="Service Layer.ServiceB" data-source-line="20" id="ent0015"><rect fill="#F1F1F1" height="47.6094" rx="2.5" ry="2.5" style="stroke:#181818;stroke-width:0.5;" width="139.5996" x="1262" y="217"/><rect fill="#F1F1F1" height="10" style="stroke:#181818;stroke-width:0.5;" width="15" x="1381.5996" y="222"/><rect fill="#F1F1F1" height="2" style="stroke:#181818;stroke-width:0.5;" width="4" x="1379.5996" y="224"/><rect fill="#F1F1F1" height="2" style="stroke:#181818;stroke-width:0.5;" width="4" x="1379.5996" y="228"/><text fill="#000000" font-family="sans-serif" font-size="14" lengthAdjust="spacing" textLength="99.5996" x="1277" y="251.5332">PlugIt Service B</text></g><!--entity ProxyDB--><g class="entity" data-qualified-name="Data Layer.ProxyDB" data-source-line="24" id="ent0017"><path d="M803.5,776.5 C803.5,766.5 866.7998,766.5 866.7998,766.5 C866.7998,766.5 930.0996,766.5 930.0996,776.5 L930.0996,803.1094 C930.0996,813.1094 866.7998,813.1094 866.7998,813.1094 C866.7998,813.1094 803.5,813.1094 803.5,803.1094 L803.5,776.5" fill="#F1F1F1" style="stroke:#181818;stroke-width:0.5;"/><path d="M803.5,776.5 C803.5,786.5 866.7998,786.5 866.7998,786.5 C866.7998,786.5 930.0996,786.5 930.0996,776.5" fill="none" style="stroke:#181818;stroke-width:0.5;"/><text fill="#000000" font-family="sans-serif" font-size="14" lengthAdjust="spacing" textLength="106.5996" x="813.5" y="805.0332">Proxy Data Store</text></g><!--entity ServiceDBA--><g class="entity" data-qualified-name="Data Layer.ServiceDBA" data-source-line="25" id="ent0018"><path d="M827.5,885 C827.5,875 902.8618,875 902.8618,875 C902.8618,875 978.2236,875 978.2236,885 L978.2236,911.6094 C978.2236,921.6094 902.8618,921.6094 902.8618,921.6094 C902.8618,921.6094 827.5,921.6094 827.5,911.6094 L827.5,885" fill="#F1F1F1" style="stroke:#181818;stroke-width:0.5;"/><path d="M827.5,885 C827.5,895 902.8618,895 902.8618,895 C902.8618,895 978.2236,895 978.2236,885" fill="none" style="stroke:#181818;stroke-width:0.5;"/><text fill="#000000" font-family="sans-serif" font-size="14" lengthAdjust="spacing" textLength="130.7236" x="837.5" y="913.5332">Service Data Store A</text></g><!--entity ServiceDBB--><g class="entity" data-qualified-name="Data Layer.ServiceDBB" data-source-line="26" id="ent0019"><path d="M1013.5,885 C1013.5,875 1088.8618,875 1088.8618,875 C1088.8618,875 1164.2236,875 1164.2236,885 L1164.2236,911.6094 C1164.2236,921.6094 1088.8618,921.6094 1088.8618,921.6094 C1088.8618,921.6094 1013.5,921.6094 1013.5,911.6094 L1013.5,885" fill="#F1F1F1" style="stroke:#181818;stroke-width:0.5;"/><path d="M1013.5,885 C1013.5,895 1088.8618,895 1088.8618,895 C1088.8618,895 1164.2236,895 1164.2236,885" fill="none" style="stroke:#181818;stroke-width:0.5;"/><text fill="#000000" font-family="sans-serif" font-size="14" lengthAdjust="spacing" textLength="130.7236" x="1023.5" y="913.5332">Service Data Store B</text></g><!--entity AlembicEngine--><g class="entity" data-qualified-name="Data Layer.AlembicEngine" data-source-line="27" id="ent0020"><rect fill="#F1F1F1" height="47.6094" rx="2.5" ry="2.5" style="stroke:#181818;stroke-width:0.5;" width="198.7441" x="965.5" y="766"/><rect fill="#F1F1F1" height="10" style="stroke:#181818;stroke-width:0.5;" width="15" x="1144.2441" y="771"/><rect fill="#F1F1F1" height="2" style="stroke:#181818;stroke-width:0.5;" width="4" x="1142.2441" y="773"/><rect fill="#F1F1F1" height="2" style="stroke:#181818;stroke-width:0.5;" width="4" x="1142.2441" y="777"/><text fill="#000000" font-family="sans-serif" font-size="14" lengthAdjust="spacing" textLength="158.7441" x="980.5" y="800.5332">Alembic Migration Engine</text></g><!--entity ConfigFiles--><g class="entity" data-qualified-name="Configuration Layer.ConfigFiles" data-source-line="31" id="ent0022"><rect fill="#F1F1F1" height="47.6094" rx="2.5" ry="2.5" style="stroke:#181818;stroke-width:0.5;" width="156.7236" x="1378.5" y="500"/><rect fill="#F1F1F1" height="10" style="stroke:#181818;stroke-width:0.5;" width="15" x="1515.2236" y="505"/><rect fill="#F1F1F1" height="2" style="stroke:#181818;stroke-width:0.5;" width="4" x="1513.2236" y="507"/><rect fill="#F1F1F1" height="2" style="stroke:#181818;stroke-width:0.5;" width="4" x="1513.2236" y="511"/><text fill="#000000" font-family="sans-serif" font-size="14" lengthAdjust="spacing" textLength="116.7236" x="1393.5" y="534.5332">Configuration Files</text></g><!--entity LocalConfig--><g class="entity" data-qualified-name="Configuration Layer.LocalConfig" data-source-line="32" id="ent0023"><rect fill="#F1F1F1" height="47.6094" rx="2.5" ry="2.5" style="stroke:#181818;stroke-width:0.5;" width="208.0957" x="1328" y="609"/><rect fill="#F1F1F1" height="10" style="stroke:#181818;stroke-width:0.5;" width="15" x="1516.0957" y="614"/><rect fill="#F1F1F1" height="2" style="stroke:#181818;stroke-width:0.5;" width="4" x="1514.0957" y="616"/><rect fill="#F1F1F1" height="2" style="stroke:#181818;stroke-width:0.5;" width="4" x="1514.0957" y="620"/><text fill="#000000" font-family="sans-serif" font-size="14" lengthAdjust="spacing" textLength="168.0957" x="1343" y="643.5332">Local/Private Configuration</text></g><!--entity AllowedNetworks--><g class="entity" data-qualified-name="Configuration Layer.AllowedNetworks" data-source-line="33" id="ent0024"><rect fill="#F1F1F1" height="47.6094" rx="2.5" ry="2.5" style="stroke:#181818;stroke-width:0.5;" width="200.2822" x="1143" y="500"/><rect fill="#F1F1F1" height="10" style="stroke:#181818;stroke-width:0.5;" width="15" x="1323.2822" y="505"/><rect fill="#F1F1F1" height="2" style="stroke:#181818;stroke-width:0.5;" width="4" x="1321.2822" y="507"/><rect fill="#F1F1F1" height="2" style="stroke:#181818;stroke-width:0.5;" width="4" x="1321.2822" y="511"/><text fill="#000000" font-family="sans-serif" font-size="14" lengthAdjust="spacing" textLength="160.2822" x="1158" y="534.5332">Allowed Networks Control</text></g><!--entity ClientSDK--><g class="entity" data-qualified-name="Client SDK Layer.ClientSDK" data-source-line="37" id="ent0026"><rect fill="#F1F1F1" height="47.6094" rx="2.5" ry="2.5" style="stroke:#181818;stroke-width:0.5;" width="134.9238" x="1328.5" y="367"/><rect fill="#F1F1F1" height="10" style="stroke:#181818;stroke-width:0.5;" width="15" x="1443.4238" y="372"/><rect fill="#F1F1F1" height="2" style="stroke:#181818;stroke-width:0.5;" width="4" x="1441.4238" y="374"/><rect fill="#F1F1F1" height="2" style="stroke:#181818;stroke-width:0.5;" width="4" x="1441.4238" y="378"/><text fill="#000000" font-family="sans-serif" font-size="14" lengthAdjust="spacing" textLength="94.9238" x="1343.5" y="401.5332">API Client SDK</text></g><!--entity ExternalUsers--><g class="entity" data-qualified-name="ExternalUsers" data-source-line="40" id="ent0027"><path d="M723.5465,508.4962 C727.3812,502.9816 731.4635,502.1049 735.6359,508.1429 C739.7077,502.2621 745.0998,501.6567 748.6819,508.6395 C750.8588,502.9496 754.7335,501.763 759.4427,505.8531 C763.3464,500.2409 767.3877,499.5599 771.7549,505.3528 C775.2267,499.4483 780.6459,499.3821 783.9003,505.5711 C786.2706,500.9111 791.6282,499.101 794.8899,504.6075 C798.3134,499.2191 803.2171,497.544 807.1502,504.0838 C810.2006,499.3121 814.3673,499.1217 817.511,503.9835 C822.1799,497.2299 826.5683,498.6811 830.7462,504.5004 C834.6776,499.8427 839.3953,501.4853 841.4839,506.5382 C845.6645,502.1672 849.4321,502.3968 852.6929,507.6135 C856.06,501.5668 860.9629,500.1874 865.2023,506.748 C869.7601,500.9931 874.9547,503.3019 876.9837,509.2859 C880.9336,504.2232 885.513,504.1121 888.9406,509.8633 C898.5353,511.5072 900.9858,517.813 894.6427,525.3319 C899.3891,532.8695 895.666,540.4408 886.8869,541.4837 C884.1738,547.2554 879.3893,546.8793 876.3285,541.8228 C872.6246,546.471 869.1327,546.8431 865.7037,541.5295 C862.6636,547.6366 857.0497,548.8107 852.2042,543.7025 C848.7999,549.734 843.7131,548.8097 840.8986,543.1329 C838.794,548.8176 833.1252,550.8451 829.161,545.0312 C825.384,550.3278 820.7773,549.9554 818.1394,543.9231 C814.492,549.7663 810.3149,550.1312 805.3712,545.5039 C802.0674,551.2882 798.3552,550.8849 794.9089,545.639 C790.0516,551.574 784.4701,550.3742 782.5599,542.9207 C780.0163,548.2419 775.1227,548.1661 771.7413,543.8626 C766.9369,548.9785 762.503,548.4585 759.8595,541.7003 C755.6249,548.6203 750.9668,547.1456 746.9217,541.505 C744.2156,546.0418 740.1331,547.1154 736.9263,542.0249 C733.4371,546.7689 727.4776,547.0593 724.7477,541.1564 C716.1105,537.5822 715.5174,530.28 721.8133,524.1319 C715.4611,519.1991 715.7666,511.8626 723.5465,508.4962" fill="#F1F1F1" style="stroke:#181818;stroke-width:0.5;"/><text fill="#000000" font-family="sans-serif" font-size="14" lengthAdjust="spacing" textLength="149.3721" x="730.5" y="529.5332">External Users/Systems</text></g><!--entity Mailbox--><g class="entity" data-qualified-name="Mailbox" data-source-line="41" id="ent0028"><path d="M1287.2962,774.8733 C1291.2334,767.4387 1295.8668,767.203 1301.2528,773.3888 C1305.5792,766.5308 1312.6583,765.6553 1317.1285,773.2306 C1320.7302,765.8114 1327.6389,766.0252 1331.5588,772.9097 C1335.2703,765.6523 1341.0713,765.5657 1345.3475,772.3554 C1347.5041,765.4119 1353.5787,764.4091 1358.2118,769.765 C1362.6608,763.4469 1369.8688,762.9901 1373.8737,770.2763 C1377.9253,762.3845 1382.893,762.4356 1388.7751,768.2923 C1392.9717,760.4281 1400.1588,760.8402 1403.8242,768.7977 C1407.9827,763.8285 1413.6933,764.0819 1416.7463,770.0982 C1421.4318,763.3537 1427.256,763.9419 1430.8223,771.2216 C1435.9929,763.9664 1441.1846,763.6695 1445.8617,771.7069 C1450.89,764.4064 1457.8718,765.8012 1461.1801,773.4674 C1465.9291,767.8316 1470.4222,767.2302 1474.7265,773.9548 C1480.2651,768.6779 1486.2119,768.3452 1489.3706,776.5415 C1496.7905,780.2103 1497.5127,785.5038 1490.9479,790.7275 C1498.4403,795.5624 1496.1745,802.6805 1489.5211,806.2119 C1486.963,814.797 1480.4033,815.9418 1474.7912,809.1345 C1470.9067,816.1028 1463.2897,815.9895 1459.1827,809.3905 C1455.7058,815.4623 1450.7958,815.8935 1446.2596,810.5943 C1442.7348,818.8157 1435.34,819.9126 1430.1955,812.2305 C1426.9294,818.1519 1422.1185,819.3386 1418.0218,813.0593 C1413.5962,820.4944 1407.2267,821.4006 1401.4882,814.5822 C1399.0808,821.0828 1392.9441,823.1239 1387.8609,817.6196 C1383.1262,823.1829 1377.0806,822.7393 1374.6809,815.26 C1369.255,823.0136 1362.18,820.5947 1358.714,813.195 C1354.783,820.0559 1348.8368,820.815 1344.0473,814.1241 C1337.8867,818.6215 1333.8276,817.5298 1330.871,810.4709 C1326.9651,816.1768 1321.1144,816.9503 1317.672,809.988 C1311.0733,816.9666 1306.3741,815.9858 1301.8805,807.7964 C1298.4178,813.8759 1293.0473,814.1917 1289.1415,808.2666 C1276.293,808.7744 1272.0102,801.4232 1277.5437,790.158 C1274.1473,780.805 1277.6834,775.9256 1287.2962,774.8733" fill="#F1F1F1" style="stroke:#181818;stroke-width:0.5;"/><text fill="#000000" font-family="sans-serif" font-size="14" lengthAdjust="spacing" textLength="186.7578" x="1293.5" y="795.5332">Inbound Email Server/Mailbox</text></g><!--entity AlembicTool--><g class="entity" data-qualified-name="AlembicTool" data-source-line="42" id="ent0029"><path d="M947.5705,618.0533 C951.3171,611.5389 955.7636,612.2105 959.8535,617.7019 C962.3038,611.35 967.0131,611.5507 970.7586,616.4461 C973.5731,611.367 978.3283,611.0653 981.1544,616.4345 C983.7937,609.6456 988.5656,610.1779 993,614.5252 C996.2302,609.7649 999.9128,608.8924 1003.6907,613.9275 C1007.6937,607.7667 1011.8069,608.0446 1015.5484,614.1796 C1018.2448,608.7452 1021.3704,609.3067 1025.2528,612.9055 C1029.7694,608.118 1033.6325,607.1217 1037.6446,613.4671 C1041.2583,608.9204 1045.5738,609.0198 1047.703,614.8992 C1051.2097,609.6895 1055.9077,608.7966 1059.8592,614.3993 C1063.6521,608.9135 1066.7168,610.4453 1070.1371,614.7889 C1074.0861,608.7613 1078.4861,610.3887 1081.7549,615.4983 C1086.1514,609.9596 1090.4896,610.9956 1094.25,616.2356 C1097.7414,611.6383 1101.5963,613.3 1103.4789,617.8576 C1112.0414,618.7645 1116.6409,625.6102 1110.0973,633.0835 C1117.0378,641.4407 1112.9696,646.6721 1104.2754,649.477 C1101.6094,653.8564 1096.7438,654.7554 1094.2554,649.2961 C1092.1852,654.6512 1086.8505,655.3804 1083.0782,651.3159 C1079.5296,656.8873 1074.8141,657.8765 1070.6161,652.0243 C1067.1808,656.4158 1064.1169,656.896 1060.4588,652.2755 C1056.4689,657.8228 1052.4918,657.644 1048.1956,652.6314 C1044.6749,657.1349 1041.1708,658.2475 1037.6332,652.6491 C1034.7563,658.2889 1029.8953,659.3559 1026.1473,653.521 C1022.7389,659.0002 1018.2412,658.656 1015.4027,652.9724 C1011.5616,658.6163 1006.5777,658.6647 1002.945,652.7477 C999.2262,657.4344 995.8167,657.3979 992.4012,652.4169 C988.3596,657.7199 984.7479,657.7514 981.6232,651.5573 C977.9461,657.3349 973.2404,657.797 969.4859,651.6359 C966.3109,657.0695 961.4161,655.2581 959.0031,650.8263 C955.7739,654.8804 950.7563,655.2326 948.6679,649.6082 C939.4824,646.022 938.8461,639.6419 946.6489,633.8756 C939.3323,628.6185 940.1876,622.4542 947.5705,618.0533" fill="#F1F1F1" style="stroke:#181818;stroke-width:0.5;"/><text fill="#000000" font-family="sans-serif" font-size="14" lengthAdjust="spacing" textLength="142.3857" x="954" y="638.5332">Alembic Migration Tool</text></g><!--entity DBTech--><g class="entity" data-qualified-name="DBTech" data-source-line="43" id="ent0030"><path d="M829.2406,994.7067 C832.7136,988.1515 838.6649,988.2367 842.5895,994.2263 C845.6189,988.6353 850.662,987.4856 855.0472,992.6567 C857.4884,985.4484 862.5165,984.9672 867.1825,990.5452 C870.4494,983.6176 875.1164,983.4298 879.4764,989.5122 C882.9224,985.0397 888.4169,984.1872 891.012,990.4283 C893.9081,982.7452 899.4697,981.1862 904.9942,987.8704 C908.7636,982.4099 914.6613,981.8327 917.7431,988.5881 C921.938,984.8884 926.6654,985.9747 928.7189,991.2167 C932.6898,985.5508 938.3372,985.895 941.6228,991.9698 C946.1568,986.0576 949.9741,987.1441 953.9252,992.6006 C958.6862,987.8026 962.5961,986.7373 966.1656,993.8274 C970.7004,988.5808 974.9065,987.1096 979.2436,994.0398 C987.8324,996.5859 988.9785,1003.6184 983.0281,1009.6821 C990.3505,1015.8843 988.1875,1021.991 979.8851,1024.9839 C976.2316,1031.7276 972.3205,1031.0224 967.7693,1025.9005 C964.274,1033.3348 958.3221,1034.2015 953.2657,1027.5026 C950.4625,1033.6864 946.971,1033.2874 942.7553,1028.908 C939.0076,1035.9496 932.9026,1035.641 928.8847,1029.1857 C925.8852,1035.0775 920.9628,1035.8682 917.0748,1030.0845 C913.9101,1036.5243 907.4626,1036.1837 903.5488,1030.9527 C899.7914,1036.863 895.2525,1037.7545 891.2298,1031.2152 C887.701,1035.2374 882.3752,1035.2763 880.2123,1029.6548 C875.2737,1035.9665 869.8503,1034.943 866.6352,1027.9023 C863.3837,1033.9052 858.5912,1033.1217 854.8478,1028.4452 C850.9181,1033.2456 845.0535,1032.9075 842.1721,1027.1826 C836.7165,1033.3119 832.5823,1032.3486 828.9235,1025.3669 C819.0069,1025.6791 815.9446,1018.7639 820.2751,1010.6842 C814.2522,1001.6119 819.8596,995.1355 829.2406,994.7067" fill="#F1F1F1" style="stroke:#181818;stroke-width:0.5;"/><text fill="#000000" font-family="sans-serif" font-size="14" lengthAdjust="spacing" textLength="136.1992" x="835" y="1014.5332">Database Technology</text></g><!--link Proxy to MainAPI--><g class="link" data-entity-1="ent0002" data-entity-2="ent0003" data-link-type="association" data-source-line="6" id="lnk5"><path d="M593.53,608.75 C576.47,597.14 554.44,584.48 532.5,578.5 C524.78,576.4 521.73,575.07 514.5,578.5 C494.64,587.93 480.71,611.04 474.19,623.93" fill="none" id="Proxy-MainAPI" style="stroke:#181818;stroke-width:1;"/></g><!--link Proxy to PlugItProtocol--><g class="link" data-entity-1="ent0002" data-entity-2="ent0004" data-link-type="association" data-source-line="7" id="lnk6"><path d="M567.34,633 C555.61,633 543.89,633 532.16,633" fill="none" id="Proxy-PlugItProtocol" style="stroke:#181818;stroke-width:1;"/></g><!--link ExternalUsers to MainAPI--><g class="link" data-entity-1="ent0027" data-entity-2="ent0003" data-link-type="dependency" data-source-line="45" id="lnk31"><path d="M715.2,538.72 C651.6,550.96 565.74,572.7 497,609 C489.81,612.8 486.4413,615.3009 481.3913,620.2209" fill="none" id="ExternalUsers-to-MainAPI" style="stroke:#181818;stroke-width:1;"/><polygon fill="#181818" points="477.81,623.71,487.0477,620.2946,481.3913,620.2209,481.4651,614.5645,477.81,623.71" style="stroke:#181818;stroke-width:1;stroke-linejoin:miter;stroke-miterlimit:10;"/></g><!--link ClientSDK to MainAPI--><g class="link" data-entity-1="ent0026" data-entity-2="ent0003" data-link-type="dependency" data-source-line="46" id="lnk32"><path d="M1328.17,408.1 C1248.88,426.93 1128.22,455.6 1127,456 C1028.31,488.59 1012.03,519.76 912,548 C822.29,573.32 581.89,570.5 497,609 C489.37,612.46 485.727,615.1564 480.707,620.2864" fill="none" id="ClientSDK-to-MainAPI" style="stroke:#181818;stroke-width:1;"/><polygon fill="#181818" points="477.21,623.86,486.3635,620.2251,480.707,620.2864,480.6457,614.6298,477.21,623.86" style="stroke:#181818;stroke-width:1;stroke-linejoin:miter;stroke-miterlimit:10;"/></g><!--link AllowedNetworks to Proxy--><g class="link" data-entity-1="ent0024" data-entity-2="ent0002" data-link-type="dependency" data-source-line="48" id="lnk33"><path d="M1168.37,548.02 C1131.53,558.7 1086.24,570.82 1045,579 C916.86,604.43 769.1605,619.6592 687.8005,626.8592" fill="none" id="AllowedNetworks-to-Proxy" style="stroke:#181818;stroke-width:1;"/><polygon fill="#181818" points="682.82,627.3,692.1376,630.4911,687.8005,626.8592,691.4324,622.5222,682.82,627.3" style="stroke:#181818;stroke-width:1;stroke-linejoin:miter;stroke-miterlimit:10;"/></g><!--link Proxy to ProxyDB--><g class="link" data-entity-1="ent0002" data-entity-2="ent0017" data-link-type="dependency" data-source-line="49" id="lnk34"><path d="M660.97,657.04 C706.92,686.47 781.7498,734.3929 827.4098,763.6429" fill="none" id="Proxy-to-ProxyDB" style="stroke:#181818;stroke-width:1;"/><polygon fill="#181818" points="831.62,766.34,826.1993,758.1171,827.4098,763.6429,821.884,764.8534,831.62,766.34" style="stroke:#181818;stroke-width:1;stroke-linejoin:miter;stroke-miterlimit:10;"/></g><!--link ServiceA to PlugItProtocol--><g class="link" data-entity-1="ent0014" data-entity-2="ent0004" data-link-type="dependency" data-source-line="51" id="lnk35"><path d="M1138.43,265.23 C1081.37,336.56 912.49,547.71 912,548 C771.33,630.66 697.88,540.06 550,609 C542.41,612.54 538.771,615.2501 533.741,620.3501" fill="none" id="ServiceA-to-PlugItProtocol" style="stroke:#181818;stroke-width:1;stroke-dasharray:7,7;"/><polygon fill="#181818" points="530.23,623.91,539.3977,620.311,533.741,620.3501,533.7019,614.6934,530.23,623.91" style="stroke:#181818;stroke-width:1;stroke-linejoin:miter;stroke-miterlimit:10;"/></g><!--link ServiceB to PlugItProtocol--><g class="link" data-entity-1="ent0015" data-entity-2="ent0004" data-link-type="dependency" data-source-line="52" id="lnk36"><path d="M1311.89,265.01 C1261.09,321.74 1121.09,469.36 974,548 C806.1,637.76 725.33,534.79 550,609 C542.29,612.26 538.6225,614.9525 533.6225,620.1325" fill="none" id="ServiceB-to-PlugItProtocol" style="stroke:#181818;stroke-width:1;stroke-dasharray:7,7;"/><polygon fill="#181818" points="530.15,623.73,539.2784,620.0325,533.6225,620.1325,533.5225,614.4765,530.15,623.73" style="stroke:#181818;stroke-width:1;stroke-linejoin:miter;stroke-miterlimit:10;"/></g><!--link ServiceA to ClientSDK--><g class="link" data-entity-1="ent0014" data-entity-2="ent0026" data-link-type="dependency" data-source-line="54" id="lnk37"><path d="M1194.34,265.12 C1239.11,292.85 1309.4493,336.3972 1354.2693,364.1572" fill="none" id="ServiceA-to-ClientSDK" style="stroke:#181818;stroke-width:1;"/><polygon fill="#181818" points="1358.52,366.79,1352.9749,358.6505,1354.2693,364.1572,1348.7625,365.4516,1358.52,366.79" style="stroke:#181818;stroke-width:1;stroke-linejoin:miter;stroke-miterlimit:10;"/></g><!--link ServiceB to ClientSDK--><g class="link" data-entity-1="ent0015" data-entity-2="ent0026" data-link-type="dependency" data-source-line="55" id="lnk38"><path d="M1342,265.12 C1353.95,292.77 1371.8551,334.1709 1383.8751,361.9609" fill="none" id="ServiceB-to-ClientSDK" style="stroke:#181818;stroke-width:1;"/><polygon fill="#181818" points="1385.86,366.55,1385.9584,356.7016,1383.8751,361.9609,1378.6158,359.8775,1385.86,366.55" style="stroke:#181818;stroke-width:1;stroke-linejoin:miter;stroke-miterlimit:10;"/></g><!--link ClientSDK to ConfigFiles--><g class="link" data-entity-1="ent0026" data-entity-2="ent0022" data-link-type="dependency" data-source-line="56" id="lnk39"><path d="M1406.77,415.12 C1417.85,438.92 1432.9086,471.2677 1444.0286,495.1377" fill="none" id="ClientSDK-to-ConfigFiles" style="stroke:#181818;stroke-width:1;"/><polygon fill="#181818" points="1446.14,499.67,1445.9653,489.8227,1444.0286,495.1377,1438.7136,493.201,1446.14,499.67" style="stroke:#181818;stroke-width:1;stroke-linejoin:miter;stroke-miterlimit:10;"/></g><!--link ServiceA to ConfigFiles--><g class="link" data-entity-1="ent0014" data-entity-2="ent0022" data-link-type="dependency" data-source-line="58" id="lnk40"><path d="M1165.91,265.08 C1182.88,306.04 1223.69,391.6 1285,439 C1312.38,460.17 1328.93,442.98 1361,456 C1386.8,466.47 1408.6027,481.7631 1426.9027,496.6631" fill="none" id="ServiceA-to-ConfigFiles" style="stroke:#181818;stroke-width:1;"/><polygon fill="#181818" points="1430.78,499.82,1426.3264,491.0356,1426.9027,496.6631,1421.2753,497.2394,1430.78,499.82" style="stroke:#181818;stroke-width:1;stroke-linejoin:miter;stroke-miterlimit:10;"/></g><!--link ServiceB to ConfigFiles--><g class="link" data-entity-1="ent0015" data-entity-2="ent0022" data-link-type="dependency" data-source-line="59" id="lnk41"><path d="M1320.59,265.17 C1302.88,304.78 1274.53,386.34 1312,439 C1325.36,457.78 1340.47,445.53 1361,456 C1385.08,468.28 1406.076,482.8556 1424.516,496.9356" fill="none" id="ServiceB-to-ConfigFiles" style="stroke:#181818;stroke-width:1;"/><polygon fill="#181818" points="1428.49,499.97,1423.7643,491.3289,1424.516,496.9356,1418.9093,497.6873,1428.49,499.97" style="stroke:#181818;stroke-width:1;stroke-linejoin:miter;stroke-miterlimit:10;"/></g><!--link ServiceA to ServiceDBA--><g class="link" data-entity-1="ent0014" data-entity-2="ent0018" data-link-type="dependency" data-source-line="61" id="lnk42"><path d="M1193.41,265.11 C1208.79,273.89 1227.23,283.17 1245,289 C1295.13,305.45 1436.72,292.81 1480,323 C1581.08,393.52 1589,454.75 1589,578 C1589,578 1589,578 1589,791 C1589,826.29 1547.55,806.79 1513,814 C1286.5,861.25 1223.74,834.17 996,875 C990.36,876.01 989.4423,876.1278 983.6123,877.3578" fill="none" id="ServiceA-to-ServiceDBA" style="stroke:#181818;stroke-width:1;"/><polygon fill="#181818" points="978.72,878.39,988.3519,880.4459,983.6123,877.3578,986.7004,872.6183,978.72,878.39" style="stroke:#181818;stroke-width:1;stroke-linejoin:miter;stroke-miterlimit:10;"/></g><!--link ServiceB to ServiceDBB--><g class="link" data-entity-1="ent0015" data-entity-2="ent0019" data-link-type="dependency" data-source-line="62" id="lnk43"><path d="M1402.07,252.91 C1475.72,265.96 1584.42,290.2 1610,323 C1679.94,412.67 1780.96,661.65 1615,845 C1585.36,877.74 1307.8773,890.7663 1169.5573,895.2963" fill="none" id="ServiceB-to-ServiceDBB" style="stroke:#181818;stroke-width:1;"/><polygon fill="#181818" points="1164.56,895.46,1173.6861,899.1633,1169.5573,895.2963,1173.4242,891.1676,1164.56,895.46" style="stroke:#181818;stroke-width:1;stroke-linejoin:miter;stroke-miterlimit:10;"/></g><!--link AlembicEngine to ServiceDBA--><g class="link" data-entity-1="ent0020" data-entity-2="ent0018" data-link-type="dependency" data-source-line="64" id="lnk44"><path d="M1029.85,814.11 C1002.4,832.16 968.6483,854.3438 941.4283,872.2338" fill="none" id="AlembicEngine-to-ServiceDBA" style="stroke:#181818;stroke-width:1;"/><polygon fill="#181818" points="937.25,874.98,946.968,873.3796,941.4283,872.2338,942.5741,866.6942,937.25,874.98" style="stroke:#181818;stroke-width:1;stroke-linejoin:miter;stroke-miterlimit:10;"/></g><!--link AlembicEngine to ServiceDBB--><g class="link" data-entity-1="ent0020" data-entity-2="ent0019" data-link-type="dependency" data-source-line="65" id="lnk45"><path d="M1070.21,814.11 C1074.26,832.09 1078.7632,852.0418 1082.7832,869.9218" fill="none" id="AlembicEngine-to-ServiceDBB" style="stroke:#181818;stroke-width:1;"/><polygon fill="#181818" points="1083.88,874.8,1085.8084,865.1418,1082.7832,869.9218,1078.0032,866.8966,1083.88,874.8" style="stroke:#181818;stroke-width:1;stroke-linejoin:miter;stroke-miterlimit:10;"/></g><!--link AlembicTool to AlembicEngine--><g class="link" data-entity-1="ent0029" data-entity-2="ent0020" data-link-type="dependency" data-source-line="66" id="lnk46"><path d="M1030.99,657.21 C1038.55,686.51 1050.2408,731.7886 1057.7908,761.0486" fill="none" id="AlembicTool-to-AlembicEngine" style="stroke:#181818;stroke-width:1;"/><polygon fill="#181818" points="1059.04,765.89,1060.6645,756.176,1057.7908,761.0486,1052.9182,758.1748,1059.04,765.89" style="stroke:#181818;stroke-width:1;stroke-linejoin:miter;stroke-miterlimit:10;"/></g><!--link ProxyDB to DBTech--><g class="link" data-entity-1="ent0017" data-entity-2="ent0030" data-link-type="dependency" data-source-line="68" id="lnk47"><path d="M846.1,813.62 C832.92,829.49 817.09,851.92 810,875 C800.73,905.16 795.11,918.18 810,946 C818.79,962.42 829.8084,972.6348 845.4684,982.2448" fill="none" id="ProxyDB-to-DBTech" style="stroke:#181818;stroke-width:1;"/><polygon fill="#181818" points="849.73,984.86,844.1513,976.7434,845.4684,982.2448,839.9671,983.5619,849.73,984.86" style="stroke:#181818;stroke-width:1;stroke-linejoin:miter;stroke-miterlimit:10;"/></g><!--link ServiceDBA to DBTech--><g class="link" data-entity-1="ent0018" data-entity-2="ent0030" data-link-type="dependency" data-source-line="69" id="lnk48"><path d="M903,922.25 C903,940.64 903,961.43 903,979.91" fill="none" id="ServiceDBA-to-DBTech" style="stroke:#181818;stroke-width:1;"/><polygon fill="#181818" points="903,984.91,907,975.91,903,979.91,899,975.91,903,984.91" style="stroke:#181818;stroke-width:1;stroke-linejoin:miter;stroke-miterlimit:10;"/></g><!--link ServiceDBB to DBTech--><g class="link" data-entity-1="ent0019" data-entity-2="ent0030" data-link-type="dependency" data-source-line="70" id="lnk49"><path d="M1050.01,922.25 C1018.48,940.64 978.5892,963.9112 946.8992,982.3912" fill="none" id="ServiceDBB-to-DBTech" style="stroke:#181818;stroke-width:1;"/><polygon fill="#181818" points="942.58,984.91,952.3696,983.8316,946.8992,982.3912,948.3396,976.9208,942.58,984.91" style="stroke:#181818;stroke-width:1;stroke-linejoin:miter;stroke-miterlimit:10;"/></g><!--link Mailbox to MailParser--><g class="link" data-entity-1="ent0028" data-entity-2="ent0008" data-link-type="dependency" data-source-line="72" id="lnk50"><path d="M1449.39,765.91 C1482.29,751.71 1521.95,731.18 1552,705 C1656.96,613.57 1731,587.2 1731,448 C1731,240 1731,240 1731,240 C1731,97.74 1559.05,191.5 1418,173 C980.77,115.64 455.36,110.3651 260.52,110.5551" fill="none" id="Mailbox-to-MailParser" style="stroke:#181818;stroke-width:1;"/><polygon fill="#181818" points="255.52,110.56,264.5239,114.5512,260.52,110.5551,264.5161,106.5512,255.52,110.56" style="stroke:#181818;stroke-width:1;stroke-linejoin:miter;stroke-miterlimit:10;"/></g><!--link MailParser to AutoFilter--><g class="link" data-entity-1="ent0008" data-entity-2="ent0009" data-link-type="dependency" data-source-line="73" id="lnk51"><path d="M208.32,134.06 C238.08,157.47 279.9596,190.4193 309.7296,213.8293" fill="none" id="MailParser-to-AutoFilter" style="stroke:#181818;stroke-width:1;"/><polygon fill="#181818" points="313.66,216.92,309.0579,208.2125,309.7296,213.8293,304.1128,214.5011,313.66,216.92" style="stroke:#181818;stroke-width:1;stroke-linejoin:miter;stroke-miterlimit:10;"/></g><!--link AutoFilter to MailValidator--><g class="link" data-entity-1="ent0009" data-entity-2="ent0010" data-link-type="dependency" data-source-line="74" id="lnk52"><path d="M342.22,265.12 C341.28,292.77 339.899,333.7629 338.959,361.5529" fill="none" id="AutoFilter-to-MailValidator" style="stroke:#181818;stroke-width:1;"/><polygon fill="#181818" points="338.79,366.55,343.092,357.6904,338.959,361.5529,335.0965,357.4199,338.79,366.55" style="stroke:#181818;stroke-width:1;stroke-linejoin:miter;stroke-miterlimit:10;"/></g><!--link MailParser to MailValidator--><g class="link" data-entity-1="ent0008" data-entity-2="ent0010" data-link-type="dependency" data-source-line="75" id="lnk53"><path d="M157.39,134.12 C148.63,145.04 139.53,158.79 135,173 C119.34,222.12 101.49,249.82 135,289 C142.46,297.72 175.23,293.04 186,297 C231.88,313.87 274.9929,342.3765 304.3729,363.9965" fill="none" id="MailParser-to-MailValidator" style="stroke:#181818;stroke-width:1;"/><polygon fill="#181818" points="308.4,366.96,303.5219,358.404,304.3729,363.9965,298.7804,364.8475,308.4,366.96" style="stroke:#181818;stroke-width:1;stroke-linejoin:miter;stroke-miterlimit:10;"/><text fill="#000000" font-family="sans-serif" font-size="13" lengthAdjust="spacing" textLength="102.6226" x="136" y="246.4951">extracted payload</text></g><!--link MailValidator to ConfigFiles--><g class="link" data-entity-1="ent0010" data-entity-2="ent0022" data-link-type="dependency" data-source-line="76" id="lnk54"><path d="M426.67,400.01 C566.05,412.31 844.95,435.69 1082,448 C1112.97,449.61 1331.55,446.27 1361,456 C1388.02,464.92 1410.4033,480.8666 1428.5733,496.4366" fill="none" id="MailValidator-to-ConfigFiles" style="stroke:#181818;stroke-width:1;"/><polygon fill="#181818" points="1432.37,499.69,1428.1386,490.7964,1428.5733,496.4366,1422.9331,496.8712,1432.37,499.69" style="stroke:#181818;stroke-width:1;stroke-linejoin:miter;stroke-miterlimit:10;"/></g><!--link MailValidator to MailInvoker--><g class="link" data-entity-1="ent0010" data-entity-2="ent0011" data-link-type="dependency" data-source-line="77" id="lnk55"><path d="M337.47,415.12 C336.93,438.92 336.1952,470.8013 335.6452,494.6713" fill="none" id="MailValidator-to-MailInvoker" style="stroke:#181818;stroke-width:1;"/><polygon fill="#181818" points="335.53,499.67,339.7363,490.7645,335.6452,494.6713,331.7384,490.5802,335.53,499.67" style="stroke:#181818;stroke-width:1;stroke-linejoin:miter;stroke-miterlimit:10;"/></g><!--link MailParser to MailInvoker--><g class="link" data-entity-1="ent0008" data-entity-2="ent0011" data-link-type="dependency" data-source-line="78" id="lnk56"><path d="M144.67,134.19 C131.5,144.65 117.39,158.03 108,173 C73.51,227.97 45.83,256.54 74,315 C117.44,405.17 216.6323,466.1151 279.4623,497.6851" fill="none" id="MailParser-to-MailInvoker" style="stroke:#181818;stroke-width:1;"/><polygon fill="#181818" points="283.93,499.93,277.684,492.315,279.4623,497.6851,274.0922,499.4634,283.93,499.93" style="stroke:#181818;stroke-width:1;stroke-linejoin:miter;stroke-miterlimit:10;"/><text fill="#000000" font-family="sans-serif" font-size="13" lengthAdjust="spacing" textLength="102.6226" x="75" y="311.4951">extracted payload</text></g><!--link MailInvoker to Proxy--><g class="link" data-entity-1="ent0011" data-entity-2="ent0002" data-link-type="dependency" data-source-line="79" id="lnk57"><path d="M397.57,548.09 C448.02,566.7 513.7191,590.9393 562.7791,609.0393" fill="none" id="MailInvoker-to-Proxy" style="stroke:#181818;stroke-width:1;"/><polygon fill="#181818" points="567.47,610.77,560.4108,603.9021,562.7791,609.0393,557.6418,611.4076,567.47,610.77" style="stroke:#181818;stroke-width:1;stroke-linejoin:miter;stroke-miterlimit:10;"/></g><!--link MailInvoker to MailAck--><g class="link" data-entity-1="ent0011" data-entity-2="ent0012" data-link-type="dependency" data-source-line="80" id="lnk58"><path d="M334.13,548.22 C333.46,566.16 332.7266,585.8935 332.0566,603.8335" fill="none" id="MailInvoker-to-MailAck" style="stroke:#181818;stroke-width:1;"/><polygon fill="#181818" points="331.87,608.83,336.2031,599.9856,332.0566,603.8335,328.2087,599.687,331.87,608.83" style="stroke:#181818;stroke-width:1;stroke-linejoin:miter;stroke-miterlimit:10;"/></g><!--link MailAck to Mailbox--><g class="link" data-entity-1="ent0012" data-entity-2="ent0028" data-link-type="dependency" data-source-line="81" id="lnk59"><path d="M354.4,657.33 C372.9,674.09 400.33,695.35 429,705 C508.21,731.67 1098.61,707.98 1181,722 C1233.28,730.89 1285.7914,748.5301 1326.6114,764.1801" fill="none" id="MailAck-to-Mailbox" style="stroke:#181818;stroke-width:1;"/><polygon fill="#181818" points="1331.28,765.97,1324.3084,759.0132,1326.6114,764.1801,1321.4445,766.4831,1331.28,765.97" style="stroke:#181818;stroke-width:1;stroke-linejoin:miter;stroke-miterlimit:10;"/></g><!--link ConfigFiles to LocalConfig--><g class="link" data-entity-1="ent0022" data-entity-2="ent0023" data-link-type="dependency" data-source-line="83" id="lnk60"><path d="M1451.58,548.22 C1447.38,566.16 1442.7372,586.021 1438.5472,603.961" fill="none" id="ConfigFiles-to-LocalConfig" style="stroke:#181818;stroke-width:1;"/><polygon fill="#181818" points="1437.41,608.83,1443.3521,600.9756,1438.5472,603.961,1435.5617,599.1561,1437.41,608.83" style="stroke:#181818;stroke-width:1;stroke-linejoin:miter;stroke-miterlimit:10;"/></g><?plantuml-src XLLDRzim3BthLmYvfxdlKC2UConOEmHDjxjYgvuGHJ9aEHyO-j-dJqjqdEmKa-yzYfH8fYFrWRGKBxPANgxuXLofMk2_2EDQ7ZifgD06uqExqTXH5fZq_ijmcD1KVP3Qw5y94xZORl1QD9qqW2DQht52QWgdPIsvZ-XyqOMCm2Uqp494postYrMiB-JOSMf5tF9hslTCj7bTe3B7smXD3XHlYUejoQVDlJaL58EMopVQ6xkd-1lZEaWiuCtPCzxae6qYlmbd3T4odJDwPdNVYMWuLIR7apnasGNxHcFgjHTHr0SXpvmsRQOnJiF_H9y8ZHUse-h4pACyVFX8AboeO1KFgMLEBS6H5T4aFyyKJ_Qa7tlGuJjp8JJrMbK2OZmbKM5kLLdyZrz2VWchAJWzxbcDNrchY6PIcBPkcV0P1T1xG6bVfVXWxH0aytSAEQPbQE-YUh-peU15reIljegTYAOOo9tGuTuzBOBBCstmJwhFKXtS4Lg5WGjWn60PdDa0k-h7dHhid2UIJz-PnhAHQYw7nawZ6GT1EFvb9gbVxQwzfaTVROGS4laRiPU3QF3wQ5lVlWrLAzkvUtaPkzXyH_xjAxtBiJm7MJkogzWExxJ-8oINhLzcLMaT286Ky7BvFAwUiJRWHPChTA3VZ65JHTjqBufJWv-UdgSRB8x979Q4DbowvL43tJ3LlAScWJ84XhehoMOBAB8PGc0qfge7O8co1tCG738Kxj51uS5Iv5aluABGEV41utPFd_xGjCJJvwX9cteY0o3-Wkb5Ar9hCteTkN996WGPqtk-HVCLFtDOWEuU5V7KaLDl_3y8lwFFJXVASdD0jc7-0G00?></g></svg>