<svg xmlns="http://www.w3.org/2000/svg" xmlns:xlink="http://www.w3.org/1999/xlink" contentStyleType="text/css" data-diagram-type="DESCRIPTION" height="917px" preserveAspectRatio="none" style="width:1169px;height:917px;background:#FFFFFF;" version="1.1" viewBox="0 0 1169 917" width="1169px" zoomAndPan="magnify"><?plantuml 1.2026.6?><defs/><g><!--cluster Java Backend--><g class="cluster" data-qualified-name="Java Backend" data-source-line="2" id="ent0001"><polygon fill="none" points="16,128,26,118,912,118,912,709,902,719,16,719,16,128" style="stroke:#181818;stroke-width:1;stroke-linejoin:miter;stroke-miterlimit:10;"/><line style="stroke:#181818;stroke-width:1;" x1="902" x2="912" y1="128" y2="118"/><line style="stroke:#181818;stroke-width:1;" x1="16" x2="902" y1="128" y2="128"/><line style="stroke:#181818;stroke-width:1;" x1="902" x2="902" y1="128" y2="719"/><text fill="#000000" font-family="sans-serif" font-size="14" font-weight="700" lengthAdjust="spacing" textLength="93.3926" x="413.3037" y="145.5332">Java Backend</text></g><!--cluster API Layer--><g class="cluster" data-qualified-name="Java Backend.API Layer" data-source-line="4" id="ent0002"><path d="M259.5,167 L325.0859,167 A3.75,3.75 0 0 1 327.5859,169.5 L334.5859,190.6094 L416.5,190.6094 A2.5,2.5 0 0 1 419,193.1094 L419,264.5 A2.5,2.5 0 0 1 416.5,267 L259.5,267 A2.5,2.5 0 0 1 257,264.5 L257,169.5 A2.5,2.5 0 0 1 259.5,167" fill="none" style="stroke:#000000;stroke-width:1.5;"/><line style="stroke:#000000;stroke-width:1.5;" x1="257" x2="334.5859" y1="190.6094" y2="190.6094"/><text fill="#000000" font-family="sans-serif" font-size="14" font-weight="700" lengthAdjust="spacing" textLength="64.5859" x="261" y="183.5332">API Layer</text></g><!--cluster Security Layer--><g class="cluster" data-qualified-name="Java Backend.Security Layer" data-source-line="8" id="ent0004"><path d="M42.5,317 L139.9961,317 A3.75,3.75 0 0 1 142.4961,319.5 L149.4961,340.6094 L165.5,340.6094 A2.5,2.5 0 0 1 168,343.1094 L168,414.5 A2.5,2.5 0 0 1 165.5,417 L42.5,417 A2.5,2.5 0 0 1 40,414.5 L40,319.5 A2.5,2.5 0 0 1 42.5,317" fill="none" style="stroke:#000000;stroke-width:1.5;"/><line style="stroke:#000000;stroke-width:1.5;" x1="40" x2="149.4961" y1="340.6094" y2="340.6094"/><text fill="#000000" font-family="sans-serif" font-size="14" font-weight="700" lengthAdjust="spacing" textLength="96.4961" x="44" y="333.5332">Security Layer</text></g><!--cluster Application Services Layer--><g class="cluster" data-qualified-name="Java Backend.Application Services Layer" data-source-line="12" id="ent0006"><path d="M194.5,317 L374.4648,317 A3.75,3.75 0 0 1 376.9648,319.5 L383.9648,340.6094 L783.5,340.6094 A2.5,2.5 0 0 1 786,343.1094 L786,414.5 A2.5,2.5 0 0 1 783.5,417 L194.5,417 A2.5,2.5 0 0 1 192,414.5 L192,319.5 A2.5,2.5 0 0 1 194.5,317" fill="none" style="stroke:#000000;stroke-width:1.5;"/><line style="stroke:#000000;stroke-width:1.5;" x1="192" x2="383.9648" y1="340.6094" y2="340.6094"/><text fill="#000000" font-family="sans-serif" font-size="14" font-weight="700" lengthAdjust="spacing" textLength="178.9648" x="196" y="333.5332">Application Services Layer</text></g><!--cluster Blockchain Integration Layer--><g class="cluster" data-qualified-name="Java Backend.Blockchain Integration Layer" data-source-line="18" id="ent0010"><path d="M182.5,467 L375.6582,467 A3.75,3.75 0 0 1 378.1582,469.5 L385.1582,490.6094 L447.5,490.6094 A2.5,2.5 0 0 1 450,493.1094 L450,692.5 A2.5,2.5 0 0 1 447.5,695 L182.5,695 A2.5,2.5 0 0 1 180,692.5 L180,469.5 A2.5,2.5 0 0 1 182.5,467" fill="none" style="stroke:#000000;stroke-width:1.5;"/><line style="stroke:#000000;stroke-width:1.5;" x1="180" x2="385.1582" y1="490.6094" y2="490.6094"/><text fill="#000000" font-family="sans-serif" font-size="14" font-weight="700" lengthAdjust="spacing" textLength="192.1582" x="184" y="483.5332">Blockchain Integration Layer</text></g><!--cluster LwM2M Processing Layer--><g class="cluster" data-qualified-name="Java Backend.LwM2M Processing Layer" data-source-line="23" id="ent0013"><path d="M662.5,167 L834.665,167 A3.75,3.75 0 0 1 837.165,169.5 L844.165,190.6094 L885.5,190.6094 A2.5,2.5 0 0 1 888,193.1094 L888,264.5 A2.5,2.5 0 0 1 885.5,267 L662.5,267 A2.5,2.5 0 0 1 660,264.5 L660,169.5 A2.5,2.5 0 0 1 662.5,167" fill="none" style="stroke:#000000;stroke-width:1.5;"/><line style="stroke:#000000;stroke-width:1.5;" x1="660" x2="844.165" y1="190.6094" y2="190.6094"/><text fill="#000000" font-family="sans-serif" font-size="14" font-weight="700" lengthAdjust="spacing" textLength="171.165" x="664" y="183.5332">LwM2M Processing Layer</text></g><!--cluster Utilities Layer--><g class="cluster" data-qualified-name="Java Backend.Utilities Layer" data-source-line="27" id="ent0015"><path d="M546.5,467 L639.3135,467 A3.75,3.75 0 0 1 641.8135,469.5 L648.8135,490.6094 L755.5,490.6094 A2.5,2.5 0 0 1 758,493.1094 L758,564.5 A2.5,2.5 0 0 1 755.5,567 L546.5,567 A2.5,2.5 0 0 1 544,564.5 L544,469.5 A2.5,2.5 0 0 1 546.5,467" fill="none" style="stroke:#000000;stroke-width:1.5;"/><line style="stroke:#000000;stroke-width:1.5;" x1="544" x2="648.8135" y1="490.6094" y2="490.6094"/><text fill="#000000" font-family="sans-serif" font-size="14" font-weight="700" lengthAdjust="spacing" textLength="91.8135" x="548" y="483.5332">Utilities Layer</text></g><!--cluster ethNode--><g class="cluster" data-qualified-name="ethNode" data-source-line="34" id="ent0018"><path d="M370.1789,787.98 C374.8107,778.8191 379.9304,777.0087 387.1751,785.4583 C392.2189,773.0354 401.5555,773.9297 408.7541,783.3274 C413.1769,772.5368 420.6193,770.4087 428.5774,779.8663 C434.9119,771.2789 442.1287,772.4497 447.2634,781.1621 C452.28,768.9546 459.9002,769.7566 468.066,777.9512 C474.1768,769.007 480.4476,766.5357 488.1511,776.2353 C491.8449,767.7593 500.6007,768.2079 505.5054,774.8449 C511.1602,766.2711 519.8069,767.135 524.317,776.0745 C531.718,767.7647 539.8677,765.9071 545.9192,777.5366 C551.9137,769.7063 559.7962,769.1251 565.1107,778.3039 C572.1479,770.7002 580.3949,770.7073 583.9652,781.8001 C590.6973,772.2944 600.0549,773.5407 605.2209,783.5095 C611.8489,774.8003 619.1394,775.3777 624.9653,784.4025 C635.6241,773.4471 645.8415,779.2281 649,792 C650.4705,791.8294 650.8217,792.6195 650.4287,793.8715 C664.2853,798.8972 662.4046,808.3171 654.3206,817.0301 C663.9192,822.8245 664.3543,829.9555 654.9797,836.3957 C664.9432,843.164 665.1339,853.0873 654.4078,859.34 C663.2931,873.1016 658.7796,883.6485 642,885 C642.8269,885.256 642.9901,885.9197 642.4918,886.5865 C639.0234,894.8904 631.8582,895.9778 626.0321,889.1515 C620.3248,898.5354 610.2349,900.7997 604.2852,889.4053 C599.0231,899.883 590.6454,899.4957 583.5002,891.5271 C577.0966,901.2396 569.7704,899.4113 564.9421,889.9985 C562.0188,899.7944 553.2163,902.377 546.6581,893.5712 C540.1546,902.7715 533.1223,901.1426 527.6011,892.5209 C521.5858,902.1962 510.7168,901.4251 505.0523,892.1045 C498.5859,901.5651 492.8025,900.8835 487.1717,891.3192 C481.91,899.9122 473.9561,899.0612 468.9419,891.0475 C461.7948,901.0223 455.0888,901.1823 448.9889,890.0573 C442.1569,900.9111 433.7481,902.0882 426.519,890.4541 C420.8294,899.1246 411.5409,897.4507 407.5005,888.6579 C401.8879,897.1732 393.8258,896.7709 388.1518,888.7297 C375.6732,899.3693 362.6372,893.1817 360,878 C360.6584,877.6468 360.9923,878.038 361.0101,878.6621 C349.2635,875.5855 348.7424,865.5385 355.8735,857.8114 C343.2479,855.1431 340.0569,845.508 347.7738,835.466 C340.2378,825.0921 344.6085,820.0167 355.1193,816.7109 C344.3797,800.9943 347.1983,789.2742 367,785 C369.4256,784.6096 370.4913,785.4497 370.1789,787.98" fill="none" style="stroke:#181818;stroke-width:1;"/><text fill="#000000" font-family="sans-serif" font-size="14" font-weight="700" lengthAdjust="spacing" textLength="182.0273" x="413.4863" y="804.5332">Ethereum-compatible Node</text></g><!--entity UserController--><g class="entity" data-qualified-name="Java Backend.API Layer.UserController" data-source-line="5" id="ent0003"><rect fill="#F1F1F1" height="47.6094" rx="2.5" ry="2.5" style="stroke:#181818;stroke-width:0.5;" width="130.248" x="273" y="203"/><rect fill="#F1F1F1" height="10" style="stroke:#181818;stroke-width:0.5;" width="15" x="383.248" y="208"/><rect fill="#F1F1F1" height="2" style="stroke:#181818;stroke-width:0.5;" width="4" x="381.248" y="210"/><rect fill="#F1F1F1" height="2" style="stroke:#181818;stroke-width:0.5;" width="4" x="381.248" y="214"/><text fill="#000000" font-family="sans-serif" font-size="14" lengthAdjust="spacing" textLength="90.248" x="288" y="237.5332">UserController</text></g><!--entity JwtUtility--><g class="entity" data-qualified-name="Java Backend.Security Layer.JwtUtility" data-source-line="9" id="ent0005"><rect fill="#F1F1F1" height="47.6094" rx="2.5" ry="2.5" style="stroke:#181818;stroke-width:0.5;" width="95.2207" x="56.5" y="353"/><rect fill="#F1F1F1" height="10" style="stroke:#181818;stroke-width:0.5;" width="15" x="131.7207" y="358"/><rect fill="#F1F1F1" height="2" style="stroke:#181818;stroke-width:0.5;" width="4" x="129.7207" y="360"/><rect fill="#F1F1F1" height="2" style="stroke:#181818;stroke-width:0.5;" width="4" x="129.7207" y="364"/><text fill="#000000" font-family="sans-serif" font-size="14" lengthAdjust="spacing" textLength="55.2207" x="71.5" y="387.5332">JwtUtility</text></g><!--entity UserService--><g class="entity" data-qualified-name="Java Backend.Application Services Layer.UserService" data-source-line="13" id="ent0007"><rect fill="#F1F1F1" height="47.6094" rx="2.5" ry="2.5" style="stroke:#181818;stroke-width:0.5;" width="116.2412" x="654" y="353"/><rect fill="#F1F1F1" height="10" style="stroke:#181818;stroke-width:0.5;" width="15" x="750.2412" y="358"/><rect fill="#F1F1F1" height="2" style="stroke:#181818;stroke-width:0.5;" width="4" x="748.2412" y="360"/><rect fill="#F1F1F1" height="2" style="stroke:#181818;stroke-width:0.5;" width="4" x="748.2412" y="364"/><text fill="#000000" font-family="sans-serif" font-size="14" lengthAdjust="spacing" textLength="76.2412" x="669" y="387.5332">UserService</text></g><!--entity ClientSecurityRetrievalService--><g class="entity" data-qualified-name="Java Backend.Application Services Layer.ClientSecurityRetrievalService" data-source-line="14" id="ent0008"><rect fill="#F1F1F1" height="47.6094" rx="2.5" ry="2.5" style="stroke:#181818;stroke-width:0.5;" width="228.2891" x="208" y="353"/><rect fill="#F1F1F1" height="10" style="stroke:#181818;stroke-width:0.5;" width="15" x="416.2891" y="358"/><rect fill="#F1F1F1" height="2" style="stroke:#181818;stroke-width:0.5;" width="4" x="414.2891" y="360"/><rect fill="#F1F1F1" height="2" style="stroke:#181818;stroke-width:0.5;" width="4" x="414.2891" y="364"/><text fill="#000000" font-family="sans-serif" font-size="14" lengthAdjust="spacing" textLength="188.2891" x="223" y="387.5332">ClientSecurityRetrievalService</text></g><!--entity BootstrapService--><g class="entity" data-qualified-name="Java Backend.Application Services Layer.BootstrapService" data-source-line="15" id="ent0009"><rect fill="#F1F1F1" height="47.6094" rx="2.5" ry="2.5" style="stroke:#181818;stroke-width:0.5;" width="146.6064" x="471.5" y="353"/><rect fill="#F1F1F1" height="10" style="stroke:#181818;stroke-width:0.5;" width="15" x="598.1064" y="358"/><rect fill="#F1F1F1" height="2" style="stroke:#181818;stroke-width:0.5;" width="4" x="596.1064" y="360"/><rect fill="#F1F1F1" height="2" style="stroke:#181818;stroke-width:0.5;" width="4" x="596.1064" y="364"/><text fill="#000000" font-family="sans-serif" font-size="14" lengthAdjust="spacing" textLength="106.6064" x="486.5" y="387.5332">BootstrapService</text></g><!--entity ClientBootstrapContractAdapter--><g class="entity" data-qualified-name="Java Backend.Blockchain Integration Layer.ClientBootstrapContractAdapter" data-source-line="19" id="ent0011"><rect fill="#F1F1F1" height="47.6094" rx="2.5" ry="2.5" style="stroke:#181818;stroke-width:0.5;" width="237.6611" x="196" y="503"/><rect fill="#F1F1F1" height="10" style="stroke:#181818;stroke-width:0.5;" width="15" x="413.6611" y="508"/><rect fill="#F1F1F1" height="2" style="stroke:#181818;stroke-width:0.5;" width="4" x="411.6611" y="510"/><rect fill="#F1F1F1" height="2" style="stroke:#181818;stroke-width:0.5;" width="4" x="411.6611" y="514"/><text fill="#000000" font-family="sans-serif" font-size="14" lengthAdjust="spacing" textLength="197.6611" x="211" y="537.5332">ClientBootstrapContractAdapter</text></g><!--entity Web3jEthereumClient--><g class="entity" data-qualified-name="Java Backend.Blockchain Integration Layer.Web3jEthereumClient" data-source-line="20" id="ent0012"><rect fill="#F1F1F1" height="47.6094" rx="2.5" ry="2.5" style="stroke:#181818;stroke-width:0.5;" width="176.1719" x="196" y="631"/><rect fill="#F1F1F1" height="10" style="stroke:#181818;stroke-width:0.5;" width="15" x="352.1719" y="636"/><rect fill="#F1F1F1" height="2" style="stroke:#181818;stroke-width:0.5;" width="4" x="350.1719" y="638"/><rect fill="#F1F1F1" height="2" style="stroke:#181818;stroke-width:0.5;" width="4" x="350.1719" y="642"/><text fill="#000000" font-family="sans-serif" font-size="14" lengthAdjust="spacing" textLength="136.1719" x="211" y="665.5332">Web3jEthereumClient</text></g><!--entity LwM2MNodeDeserializer--><g class="entity" data-qualified-name="Java Backend.LwM2M Processing Layer.LwM2MNodeDeserializer" data-source-line="24" id="ent0014"><rect fill="#F1F1F1" height="47.6094" rx="2.5" ry="2.5" style="stroke:#181818;stroke-width:0.5;" width="196.3857" x="676" y="203"/><rect fill="#F1F1F1" height="10" style="stroke:#181818;stroke-width:0.5;" width="15" x="852.3857" y="208"/><rect fill="#F1F1F1" height="2" style="stroke:#181818;stroke-width:0.5;" width="4" x="850.3857" y="210"/><rect fill="#F1F1F1" height="2" style="stroke:#181818;stroke-width:0.5;" width="4" x="850.3857" y="214"/><text fill="#000000" font-family="sans-serif" font-size="14" lengthAdjust="spacing" textLength="156.3857" x="691" y="237.5332">LwM2MNodeDeserializer</text></g><!--entity Encoding32ByteCodec--><g class="entity" data-qualified-name="Java Backend.Utilities Layer.Encoding32ByteCodec" data-source-line="28" id="ent0016"><rect fill="#F1F1F1" height="47.6094" rx="2.5" ry="2.5" style="stroke:#181818;stroke-width:0.5;" width="182.4336" x="560" y="503"/><rect fill="#F1F1F1" height="10" style="stroke:#181818;stroke-width:0.5;" width="15" x="722.4336" y="508"/><rect fill="#F1F1F1" height="2" style="stroke:#181818;stroke-width:0.5;" width="4" x="720.4336" y="510"/><rect fill="#F1F1F1" height="2" style="stroke:#181818;stroke-width:0.5;" width="4" x="720.4336" y="514"/><text fill="#000000" font-family="sans-serif" font-size="14" lengthAdjust="spacing" textLength="142.4336" x="575" y="537.5332">Encoding32ByteCodec</text></g><!--entity smartContract--><g class="entity" data-qualified-name="ethNode.smartContract" data-source-line="35" id="ent0019"><rect fill="#F1F1F1" height="47.6094" rx="2.5" ry="2.5" style="stroke:#181818;stroke-width:0.5;" width="237.6338" x="395" y="821"/><rect fill="#F1F1F1" height="10" style="stroke:#181818;stroke-width:0.5;" width="15" x="612.6338" y="826"/><rect fill="#F1F1F1" height="2" style="stroke:#181818;stroke-width:0.5;" width="4" x="610.6338" y="828"/><rect fill="#F1F1F1" height="2" style="stroke:#181818;stroke-width:0.5;" width="4" x="610.6338" y="832"/><text fill="#000000" font-family="sans-serif" font-size="14" lengthAdjust="spacing" textLength="197.6338" x="410" y="855.5332">Client/Bootstrap Smart Contract</text></g><!--entity apiClient--><g class="entity" data-qualified-name="apiClient" data-source-line="32" id="ent0017"><polygon fill="#F1F1F1" points="242,16,252,6,433.7578,6,433.7578,43.6094,423.7578,53.6094,242,53.6094,242,16" style="stroke:#181818;stroke-width:0.5;stroke-linejoin:miter;stroke-miterlimit:10;"/><line style="stroke:#181818;stroke-width:0.5;" x1="423.7578" x2="433.7578" y1="16" y2="6"/><line style="stroke:#181818;stroke-width:0.5;" x1="242" x2="423.7578" y1="16" y2="16"/><line style="stroke:#181818;stroke-width:0.5;" x1="423.7578" x2="423.7578" y1="16" y2="53.6094"/><text fill="#000000" font-family="sans-serif" font-size="14" lengthAdjust="spacing" textLength="151.7578" x="257" y="40.5332">Authenticated API Client</text></g><!--entity web3jLib--><g class="entity" data-qualified-name="web3jLib" data-source-line="38" id="ent0020"><rect fill="#F1F1F1" height="47.6094" rx="2.5" ry="2.5" style="stroke:#181818;stroke-width:0.5;" width="126.3652" x="144" y="821"/><rect fill="#F1F1F1" height="10" style="stroke:#181818;stroke-width:0.5;" width="15" x="250.3652" y="826"/><rect fill="#F1F1F1" height="2" style="stroke:#181818;stroke-width:0.5;" width="4" x="248.3652" y="828"/><rect fill="#F1F1F1" height="2" style="stroke:#181818;stroke-width:0.5;" width="4" x="248.3652" y="832"/><text fill="#000000" font-family="sans-serif" font-size="14" lengthAdjust="spacing" textLength="86.3652" x="159" y="855.5332">Web3j Library</text></g><!--entity leshanLib--><g class="entity" data-qualified-name="leshanLib" data-source-line="39" id="ent0021"><rect fill="#F1F1F1" height="47.6094" rx="2.5" ry="2.5" style="stroke:#181818;stroke-width:0.5;" width="227.5303" x="928" y="353"/><rect fill="#F1F1F1" height="10" style="stroke:#181818;stroke-width:0.5;" width="15" x="1135.5303" y="358"/><rect fill="#F1F1F1" height="2" style="stroke:#181818;stroke-width:0.5;" width="4" x="1133.5303" y="360"/><rect fill="#F1F1F1" height="2" style="stroke:#181818;stroke-width:0.5;" width="4" x="1133.5303" y="364"/><text fill="#000000" font-family="sans-serif" font-size="14" lengthAdjust="spacing" textLength="187.5303" x="943" y="387.5332">Leshan/LwM2M Model Library</text></g><!--link apiClient to UserController--><g class="link" data-entity-1="ent0017" data-entity-2="ent0003" data-link-type="dependency" data-source-line="41" id="lnk22"><path d="M338,54.13 C338,91.66 338,160.39 338,197.9" fill="none" id="apiClient-to-UserController" style="stroke:#181818;stroke-width:1;"/><polygon fill="#181818" points="338,202.9,342,193.9,338,197.9,334,193.9,338,202.9" style="stroke:#181818;stroke-width:1;stroke-linejoin:miter;stroke-miterlimit:10;"/><text fill="#000000" font-family="sans-serif" font-size="13" lengthAdjust="spacing" textLength="87.4136" x="339" y="98.4951">HTTP requests</text></g><!--link UserController to JwtUtility--><g class="link" data-entity-1="ent0003" data-entity-2="ent0005" data-link-type="dependency" data-source-line="43" id="lnk23"><path d="M292.61,251.01 C263.28,266.4 224.64,287.68 192,309 C171.26,322.55 152.9943,336.339 136.0843,349.779" fill="none" id="UserController-to-JwtUtility" style="stroke:#181818;stroke-width:1;"/><polygon fill="#181818" points="132.17,352.89,141.7045,350.4215,136.0843,349.779,136.7268,344.1587,132.17,352.89" style="stroke:#181818;stroke-width:1;stroke-linejoin:miter;stroke-miterlimit:10;"/><text fill="#000000" font-family="sans-serif" font-size="13" lengthAdjust="spacing" textLength="215.3315" x="232" y="297.4951">validate token (isValidToken(auth, 1))</text></g><!--link UserController to UserService--><g class="link" data-entity-1="ent0003" data-entity-2="ent0007" data-link-type="dependency" data-source-line="44" id="lnk24"><path d="M403.08,236.92 C465.69,247.46 561.54,268.9 636,309 C656.91,320.26 673.3991,334.7102 687.6291,349.2202" fill="none" id="UserController-to-UserService" style="stroke:#181818;stroke-width:1;"/><polygon fill="#181818" points="691.13,352.79,687.6842,343.5636,687.6291,349.2202,681.9725,349.1651,691.13,352.79" style="stroke:#181818;stroke-width:1;stroke-linejoin:miter;stroke-miterlimit:10;"/><text fill="#000000" font-family="sans-serif" font-size="13" lengthAdjust="spacing" textLength="124.998" x="614" y="297.4951">user retrieval/creation</text></g><!--link ClientSecurityRetrievalService to ClientBootstrapContractAdapter--><g class="link" data-entity-1="ent0008" data-entity-2="ent0011" data-link-type="dependency" data-source-line="46" id="lnk25"><path d="M257.6,401.11 C230.3,409.99 197.94,419.35 168,425 C156.61,427.15 71.87,424.5 64,433 C16.87,483.89 105.0468,506.4448 190.9168,516.9148" fill="none" id="ClientSecurityRetrievalService-to-ClientBootstrapContractAdapter" style="stroke:#181818;stroke-width:1;"/><polygon fill="#181818" points="195.88,517.52,187.4303,512.4601,190.9168,516.9148,186.462,520.4013,195.88,517.52" style="stroke:#181818;stroke-width:1;stroke-linejoin:miter;stroke-miterlimit:10;"/><text fill="#000000" font-family="sans-serif" font-size="13" lengthAdjust="spacing" textLength="125.709" x="65" y="447.4951">retrieve client/security</text></g><!--link ClientSecurityRetrievalService to Encoding32ByteCodec--><g class="link" data-entity-1="ent0008" data-entity-2="ent0016" data-link-type="dependency" data-source-line="47" id="lnk26"><path d="M258.65,401.08 C231.17,414.45 208.95,432.29 227,451 C235.61,459.92 437.8,456.8 450,459 C500.68,468.16 551.3813,485.5243 591.1513,501.0243" fill="none" id="ClientSecurityRetrievalService-to-Encoding32ByteCodec" style="stroke:#181818;stroke-width:1;"/><polygon fill="#181818" points="595.81,502.84,588.8769,495.8448,591.1513,501.0243,585.9718,503.2987,595.81,502.84" style="stroke:#181818;stroke-width:1;stroke-linejoin:miter;stroke-miterlimit:10;"/><text fill="#000000" font-family="sans-serif" font-size="13" lengthAdjust="spacing" textLength="255.0742" x="228" y="447.4951">decode fixed 32-byte ASCII fields (single/all)</text></g><!--link BootstrapService to Encoding32ByteCodec--><g class="link" data-entity-1="ent0009" data-entity-2="ent0016" data-link-type="dependency" data-source-line="49" id="lnk27"><path d="M583.73,401.02 C599.75,409.67 618.81,418.89 637,425 C656.26,431.47 668.95,417.43 682,433 C698.72,452.96 687.2457,478.1827 673.0057,498.5427" fill="none" id="BootstrapService-to-Encoding32ByteCodec" style="stroke:#181818;stroke-width:1;"/><polygon fill="#181818" points="670.14,502.64,678.5761,497.5574,673.0057,498.5427,672.0204,492.9723,670.14,502.64" style="stroke:#181818;stroke-width:1;stroke-linejoin:miter;stroke-miterlimit:10;"/><text fill="#000000" font-family="sans-serif" font-size="13" lengthAdjust="spacing" textLength="173.4497" x="690" y="447.4951">encode/decode 32-byte ASCII</text></g><!--link BootstrapService to ClientBootstrapContractAdapter--><g class="link" data-entity-1="ent0009" data-entity-2="ent0011" data-link-type="dependency" data-source-line="50" id="lnk28"><path d="M532.58,401.32 C523.2,417.09 509.04,437.45 492,451 C463.27,473.85 431.2398,489.1762 398.6998,501.2062" fill="none" id="BootstrapService-to-ClientBootstrapContractAdapter" style="stroke:#181818;stroke-width:1;"/><polygon fill="#181818" points="394.01,502.94,403.8386,503.571,398.6998,501.2062,401.0645,496.0673,394.01,502.94" style="stroke:#181818;stroke-width:1;stroke-linejoin:miter;stroke-miterlimit:10;"/><text fill="#000000" font-family="sans-serif" font-size="13" lengthAdjust="spacing" textLength="148.167" x="510" y="447.4951">add/get client by endpoint</text></g><!--link ClientBootstrapContractAdapter to Web3jEthereumClient--><g class="link" data-entity-1="ent0011" data-entity-2="ent0012" data-link-type="dependency" data-source-line="52" id="lnk29"><path d="M309.31,551.11 C303.76,573.7 296.5361,603.0652 290.9461,625.7552" fill="none" id="ClientBootstrapContractAdapter-to-Web3jEthereumClient" style="stroke:#181818;stroke-width:1;"/><polygon fill="#181818" points="289.75,630.61,295.7868,622.8281,290.9461,625.7552,288.019,620.9144,289.75,630.61" style="stroke:#181818;stroke-width:1;stroke-linejoin:miter;stroke-miterlimit:10;"/><text fill="#000000" font-family="sans-serif" font-size="13" lengthAdjust="spacing" textLength="171.2534" x="302" y="597.4951">contract operations via Web3j</text></g><!--link Web3jEthereumClient to web3jLib--><g class="link" data-entity-1="ent0012" data-entity-2="ent0020" data-link-type="dependency" data-source-line="53" id="lnk30"><path d="M247.89,679.18 C229.87,692.97 209.85,712.21 200,735 C188.04,762.68 192.366,793.1824 198.326,815.9924" fill="none" id="Web3jEthereumClient-to-web3jLib" style="stroke:#181818;stroke-width:1;"/><polygon fill="#181818" points="199.59,820.83,201.1849,811.1111,198.326,815.9924,193.4447,813.1335,199.59,820.83" style="stroke:#181818;stroke-width:1;stroke-linejoin:miter;stroke-miterlimit:10;"/><text fill="#000000" font-family="sans-serif" font-size="13" lengthAdjust="spacing" textLength="111.2998" x="201" y="749.4951">Web3j dependency</text></g><!--link Web3jEthereumClient to ethNode--><g class="link" data-entity-1="ent0012" data-entity-2="ent0018" data-link-type="dependency" data-source-line="54" id="lnk31"><path d="M295.6,679.25 C303.2,694.85 313.15,715.96 321,735 C330.645,758.415 340.2425,785.185 347.5037,806.3363 C348.4114,808.9802 349.2826,811.5363 350.1127,813.9871 C350.5278,815.2125 350.9327,816.4115 351.3267,817.5821 C351.5237,818.1673 350.1272,814.0053 350.3187,814.5761" fill="none" id="Web3jEthereumClient-to-ethNode" style="stroke:#181818;stroke-width:1;"/><polygon fill="#181818" points="351.9096,819.3162,352.8381,809.5112,350.3187,814.5761,345.2539,812.0567,351.9096,819.3162" style="stroke:#181818;stroke-width:1;stroke-linejoin:miter;stroke-miterlimit:10;"/><text fill="#000000" font-family="sans-serif" font-size="13" lengthAdjust="spacing" textLength="112.6582" x="329" y="749.4951">HTTP (JSON-RPC)</text></g><!--link LwM2MNodeDeserializer to leshanLib--><g class="link" data-entity-1="ent0014" data-entity-2="ent0021" data-link-type="dependency" data-source-line="56" id="lnk32"><path d="M815.88,251.12 C866.08,278.85 945.333,322.613 995.603,350.373" fill="none" id="LwM2MNodeDeserializer-to-leshanLib" style="stroke:#181818;stroke-width:1;"/><polygon fill="#181818" points="999.98,352.79,994.0351,344.9377,995.603,350.373,990.1678,351.9409,999.98,352.79" style="stroke:#181818;stroke-width:1;stroke-linejoin:miter;stroke-miterlimit:10;"/><text fill="#000000" font-family="sans-serif" font-size="13" lengthAdjust="spacing" textLength="161.8906" x="900" y="297.4951">typed node model/validation</text></g><?plantuml-src ZLJ1Zjem4BtdAqQSG2gA2hSUAW5TgI3OecMtFHjx2kuQExKTQ5hrtpks0u8DWN897i-yUNv-Osq4GcV6zWp6ZB-Y5XtuasK01QtOXlP6oodCMOKsR03zkDaLHgFsq7bnQ2T6UskKeWJQ_djHkq9UMkchLe3PmRzugIYbMJmg2YKvyz9eMA7TIuxk9fCwgVDsRw8aVOzSdj1RYNkcsjB7ndZdBIlE4YwPZPNXhtpBf8QfzhYnYMGRjzJ_11i5OzoF12jyKkqY_HkkXpyU_1OjbhjKswGmFom62rXQGw8ugJUjpMFY8zto9oI995FozxMRIhSWRoZyeBaHr6au65SU9uJ84mm1wUYYKKcajGztXWA2Rshsm1omGgPLbd5bIa60zH7xeGafk5O8WMXCHxyD_oEDXfJvIKjOxPZrS9GqbheGEaO2kxVQmbokBRDLp3w420NEi-RejapdIUC5qL0N9IfkXvhiT2hezpysvW4-mEVdvoLO_5cYyoxB6Xcnx6mAg8IiAGL92DxGF49NkgyXyXnMNKOQluFtlLuBrFaS45P9IsfVEpxd5gDLYSYTeKXeTvnB3Mfi19vknjM0_zdWcga8bJxXyh_BNsIauQ2_faqOhIRJASLG2GVTO7g5ELEgHwTfpEnDU0nXpEik5_YjKFUbO4Ba6_Ir4h2kg8yeZ0oMlriUUroRV0BcTJAO0jDJus0l6SJqx7fLm3jQco2IxmKMH8bENzseEavUxTtkRFNbiV-qd0IPhpyciUmq55JeguBkBJuAkp0zUMtfuBn_?></g></svg>