<svg xmlns="http://www.w3.org/2000/svg" xmlns:xlink="http://www.w3.org/1999/xlink" contentStyleType="text/css" data-diagram-type="DESCRIPTION" height="1510px" preserveAspectRatio="none" style="width:1933px;height:1510px;background:#FFFFFF;" version="1.1" viewBox="0 0 1933 1510" width="1933px" zoomAndPan="magnify"><?plantuml 1.2026.6?><defs/><g><g class="title" data-source-line="1"><text fill="#000000" font-family="sans-serif" font-size="14" font-weight="700" lengthAdjust="spacing" textLength="329.8613" x="798.5593" y="24.5332">OCI Jenkins Terraform Deployment - Architecture</text></g><!--cluster Deployment Workflow Layer--><g class="cluster" data-qualified-name="Deployment Workflow Layer" data-source-line="9" id="ent0002"><path d="M573.5,182.1094 L735.8613,182.1094 A3.75,3.75 0 0 1 738.3613,184.6094 L745.3613,203.2031 L1038.5,203.2031 A2.5,2.5 0 0 1 1041,205.7031 L1041,975.1094 A2.5,2.5 0 0 1 1038.5,977.6094 L573.5,977.6094 A2.5,2.5 0 0 1 571,975.1094 L571,184.6094 A2.5,2.5 0 0 1 573.5,182.1094" fill="none" style="stroke:#000000;stroke-width:1.5;"/><line style="stroke:#000000;stroke-width:1.5;" x1="571" x2="745.3613" y1="203.2031" y2="203.2031"/><text fill="#000000" font-family="sans-serif" font-size="12" font-weight="700" lengthAdjust="spacing" textLength="161.3613" x="575" y="196.5664">Deployment Workflow Layer</text></g><!--cluster tf_modules--><g class="cluster" data-qualified-name="Deployment Workflow Layer.tf_modules" data-source-line="13" id="ent0006"><rect fill="none" height="253.5" rx="2.5" ry="2.5" style="stroke:#181818;stroke-width:1;" width="406" x="603" y="692.1094"/><text fill="#000000" font-family="sans-serif" font-size="12" font-weight="700" lengthAdjust="spacing" textLength="108.6855" x="751.6572" y="706.5664">Terraform Modules</text></g><!--cluster OCI Infrastructure Layer--><g class="cluster" data-qualified-name="OCI Infrastructure Layer" data-source-line="20" id="ent0010"><path d="M1067.5,574.1094 L1206.541,574.1094 A3.75,3.75 0 0 1 1209.041,576.6094 L1216.041,595.2031 L1844.5,595.2031 A2.5,2.5 0 0 1 1847,597.7031 L1847,1492.6094 A2.5,2.5 0 0 1 1844.5,1495.1094 L1067.5,1495.1094 A2.5,2.5 0 0 1 1065,1492.6094 L1065,576.6094 A2.5,2.5 0 0 1 1067.5,574.1094" fill="none" style="stroke:#000000;stroke-width:1.5;"/><line style="stroke:#000000;stroke-width:1.5;" x1="1065" x2="1216.041" y1="595.2031" y2="595.2031"/><text fill="#000000" font-family="sans-serif" font-size="12" font-weight="700" lengthAdjust="spacing" textLength="138.041" x="1069" y="588.5664">OCI Infrastructure Layer</text></g><!--cluster OCI Tenancy / Compartment--><g class="cluster" data-qualified-name="OCI Infrastructure Layer.OCI Tenancy . Compartment" data-source-line="21" id="ent0011"><path d="M1091.5,616.1094 L1253.8613,616.1094 A3.75,3.75 0 0 1 1256.3613,618.6094 L1263.3613,637.2031 L1820.5,637.2031 A2.5,2.5 0 0 1 1823,639.7031 L1823,1468.6094 A2.5,2.5 0 0 1 1820.5,1471.1094 L1091.5,1471.1094 A2.5,2.5 0 0 1 1089,1468.6094 L1089,618.6094 A2.5,2.5 0 0 1 1091.5,616.1094" fill="none" style="stroke:#000000;stroke-width:1.5;"/><line style="stroke:#000000;stroke-width:1.5;" x1="1089" x2="1263.3613" y1="637.2031" y2="637.2031"/><text fill="#000000" font-family="sans-serif" font-size="12" font-weight="700" lengthAdjust="spacing" textLength="161.3613" x="1093" y="630.5664">OCI Tenancy / Compartment</text></g><!--cluster Virtual Cloud Network (VCN)--><g class="cluster" data-qualified-name="OCI Infrastructure Layer.OCI Tenancy . Compartment.Virtual Cloud Network .VCN." data-source-line="22" id="ent0012"><path d="M1115.5,658.1094 L1278.5059,658.1094 A3.75,3.75 0 0 1 1281.0059,660.6094 L1288.0059,679.2031 L1570.5,679.2031 A2.5,2.5 0 0 1 1573,681.7031 L1573,1315.6094 A2.5,2.5 0 0 1 1570.5,1318.1094 L1115.5,1318.1094 A2.5,2.5 0 0 1 1113,1315.6094 L1113,660.6094 A2.5,2.5 0 0 1 1115.5,658.1094" fill="none" style="stroke:#000000;stroke-width:1.5;"/><line style="stroke:#000000;stroke-width:1.5;" x1="1113" x2="1288.0059" y1="679.2031" y2="679.2031"/><text fill="#000000" font-family="sans-serif" font-size="12" font-weight="700" lengthAdjust="spacing" textLength="162.0059" x="1117" y="672.5664">Virtual Cloud Network (VCN)</text></g><!--cluster Public Subnet--><g class="cluster" data-qualified-name="OCI Infrastructure Layer.OCI Tenancy . Compartment.Virtual Cloud Network .VCN..Public Subnet" data-source-line="23" id="ent0013"><path d="M1344.5,700.1094 L1425.5039,700.1094 A3.75,3.75 0 0 1 1428.0039,702.6094 L1435.0039,721.2031 L1546.5,721.2031 A2.5,2.5 0 0 1 1549,723.7031 L1549,942.6094 A2.5,2.5 0 0 1 1546.5,945.1094 L1344.5,945.1094 A2.5,2.5 0 0 1 1342,942.6094 L1342,702.6094 A2.5,2.5 0 0 1 1344.5,700.1094" fill="none" style="stroke:#000000;stroke-width:1.5;"/><line style="stroke:#000000;stroke-width:1.5;" x1="1342" x2="1435.0039" y1="721.2031" y2="721.2031"/><text fill="#000000" font-family="sans-serif" font-size="12" font-weight="700" lengthAdjust="spacing" textLength="80.0039" x="1346" y="714.5664">Public Subnet</text></g><!--cluster Private Subnet(s)--><g class="cluster" data-qualified-name="OCI Infrastructure Layer.OCI Tenancy . Compartment.Virtual Cloud Network .VCN..Private Subnet.s." data-source-line="27" id="ent0016"><path d="M1199.5,1041.6094 L1299.1895,1041.6094 A3.75,3.75 0 0 1 1301.6895,1044.1094 L1308.6895,1062.7031 L1414.5,1062.7031 A2.5,2.5 0 0 1 1417,1065.2031 L1417,1291.6094 A2.5,2.5 0 0 1 1414.5,1294.1094 L1199.5,1294.1094 A2.5,2.5 0 0 1 1197,1291.6094 L1197,1044.1094 A2.5,2.5 0 0 1 1199.5,1041.6094" fill="none" style="stroke:#000000;stroke-width:1.5;"/><line style="stroke:#000000;stroke-width:1.5;" x1="1197" x2="1308.6895" y1="1062.7031" y2="1062.7031"/><text fill="#000000" font-family="sans-serif" font-size="12" font-weight="700" lengthAdjust="spacing" textLength="98.6895" x="1201" y="1056.0664">Private Subnet(s)</text></g><!--cluster Configuration & Security Layer--><g class="cluster" data-qualified-name="Configuration . Security Layer" data-source-line="38" id="ent0022"><path d="M8.5,377.1094 L186.1953,377.1094 A3.75,3.75 0 0 1 188.6953,379.6094 L195.6953,398.2031 L544.5,398.2031 A2.5,2.5 0 0 1 547,400.7031 L547,522.6094 A2.5,2.5 0 0 1 544.5,525.1094 L8.5,525.1094 A2.5,2.5 0 0 1 6,522.6094 L6,379.6094 A2.5,2.5 0 0 1 8.5,377.1094" fill="none" style="stroke:#000000;stroke-width:1.5;"/><line style="stroke:#000000;stroke-width:1.5;" x1="6" x2="195.6953" y1="398.2031" y2="398.2031"/><text fill="#000000" font-family="sans-serif" font-size="12" font-weight="700" lengthAdjust="spacing" textLength="176.6953" x="10" y="391.5664">Configuration &amp; Security Layer</text></g><!--entity terraform_cli--><g class="entity" data-qualified-name="Deployment Workflow Layer.terraform_cli" data-source-line="10" id="ent0003"><rect fill="#F1F1F1" height="35.0938" rx="2.5" ry="2.5" style="stroke:#181818;stroke-width:0.5;" width="94.6777" x="806.5" y="451.6094"/><text fill="#000000" font-family="sans-serif" font-size="12" lengthAdjust="spacing" textLength="74.6777" x="816.5" y="474.0664">Terraform CLI</text></g><!--entity tfvars--><g class="entity" data-qualified-name="Deployment Workflow Layer.tfvars" data-source-line="11" id="ent0004"><rect fill="#F1F1F1" height="50.1875" rx="2.5" ry="2.5" style="stroke:#181818;stroke-width:0.5;" width="101.3457" x="898.5" y="234.1094"/><text fill="#000000" font-family="sans-serif" font-size="12" lengthAdjust="spacing" textLength="81.3457" x="908.5" y="256.5664">terraform.tfvars</text><text fill="#000000" font-family="sans-serif" font-size="12" lengthAdjust="spacing" textLength="80.6895" x="908.5" y="271.6602">(Variable Files)</text></g><!--entity json_input--><g class="entity" data-qualified-name="Deployment Workflow Layer.json_input" data-source-line="12" id="ent0005"><rect fill="#F1F1F1" height="35.0938" rx="2.5" ry="2.5" style="stroke:#181818;stroke-width:0.5;" width="110.6973" x="737.5" y="241.6094"/><text fill="#000000" font-family="sans-serif" font-size="12" lengthAdjust="spacing" textLength="90.6973" x="747.5" y="264.0664">JSON Input Files</text></g><!--entity root_module--><g class="entity" data-qualified-name="Deployment Workflow Layer.tf_modules.root_module" data-source-line="14" id="ent0007"><rect fill="#F1F1F1" height="50.1875" rx="2.5" ry="2.5" style="stroke:#181818;stroke-width:0.5;" width="177.3828" x="627.5" y="752.1094"/><text fill="#000000" font-family="sans-serif" font-size="12" lengthAdjust="spacing" textLength="68.0391" x="637.5" y="774.5664">Root Module</text><text fill="#000000" font-family="sans-serif" font-size="12" lengthAdjust="spacing" textLength="157.3828" x="637.5" y="789.6602">(OCI + SSH + Cluster Config)</text></g><!--entity master_module--><g class="entity" data-qualified-name="Deployment Workflow Layer.tf_modules.master_module" data-source-line="15" id="ent0008"><rect fill="#F1F1F1" height="35.0938" rx="2.5" ry="2.5" style="stroke:#181818;stroke-width:0.5;" width="143.3867" x="833.5" y="886.6094"/><text fill="#000000" font-family="sans-serif" font-size="12" lengthAdjust="spacing" textLength="123.3867" x="843.5" y="909.0664">Jenkins Master Module</text></g><!--entity slave_module--><g class="entity" data-qualified-name="Deployment Workflow Layer.tf_modules.slave_module" data-source-line="16" id="ent0009"><rect fill="#F1F1F1" height="35.0938" rx="2.5" ry="2.5" style="stroke:#181818;stroke-width:0.5;" width="171.4238" x="627.5" y="886.6094"/><text fill="#000000" font-family="sans-serif" font-size="12" lengthAdjust="spacing" textLength="151.4238" x="637.5" y="909.0664">Jenkins Slave/Agent Module</text></g><!--entity oci_identity--><g class="entity" data-qualified-name="OCI Infrastructure Layer.OCI Tenancy . Compartment.oci_identity" data-source-line="33" id="ent0020"><path d="M1583.5,1391.1094 C1583.5,1381.1094 1674.8691,1381.1094 1674.8691,1381.1094 C1674.8691,1381.1094 1766.2383,1381.1094 1766.2383,1391.1094 L1766.2383,1445.3906 C1766.2383,1455.3906 1674.8691,1455.3906 1674.8691,1455.3906 C1674.8691,1455.3906 1583.5,1455.3906 1583.5,1445.3906 L1583.5,1391.1094" fill="#F1F1F1" style="stroke:#181818;stroke-width:0.5;"/><path d="M1583.5,1391.1094 C1583.5,1401.1094 1674.8691,1401.1094 1674.8691,1401.1094 C1674.8691,1401.1094 1766.2383,1401.1094 1766.2383,1391.1094" fill="none" style="stroke:#181818;stroke-width:0.5;"/><text fill="#000000" font-family="sans-serif" font-size="12" lengthAdjust="spacing" textLength="134.0566" x="1593.5" y="1417.5664">OCI Identity / Credentials</text><text fill="#000000" font-family="sans-serif" font-size="12" lengthAdjust="spacing" textLength="136.7461" x="1593.5" y="1432.6602">(tenancy_ocid, user_ocid,</text><text fill="#000000" font-family="sans-serif" font-size="12" lengthAdjust="spacing" textLength="162.7383" x="1593.5" y="1447.7539">compartment_ocid, fingerprint)</text></g><!--entity oci_network_objects--><g class="entity" data-qualified-name="OCI Infrastructure Layer.OCI Tenancy . Compartment.oci_network_objects" data-source-line="34" id="ent0021"><rect fill="#F1F1F1" height="65.2813" rx="2.5" ry="2.5" style="stroke:#181818;stroke-width:0.5;" width="217.3965" x="1589.5" y="1220.6094"/><text fill="#000000" font-family="sans-serif" font-size="12" lengthAdjust="spacing" textLength="128.707" x="1599.5" y="1243.0664">OCI Networking Objects</text><text fill="#000000" font-family="sans-serif" font-size="12" lengthAdjust="spacing" textLength="197.3965" x="1599.5" y="1258.1602">(Route Tables, DHCP, Security Lists,</text><text fill="#000000" font-family="sans-serif" font-size="12" lengthAdjust="spacing" textLength="89.3672" x="1599.5" y="1273.2539">Subnets, VNICs)</text></g><!--entity bastion_host--><g class="entity" data-qualified-name="OCI Infrastructure Layer.OCI Tenancy . Compartment.Virtual Cloud Network .VCN..bastion_host" data-source-line="31" id="ent0019"><rect fill="#F1F1F1" height="50.1875" rx="2.5" ry="2.5" style="stroke:#181818;stroke-width:0.5;" width="152.709" x="1129.5" y="752.1094"/><text fill="#000000" font-family="sans-serif" font-size="12" lengthAdjust="spacing" textLength="68.0332" x="1139.5" y="774.5664">Bastion Host</text><text fill="#000000" font-family="sans-serif" font-size="12" lengthAdjust="spacing" textLength="132.709" x="1139.5" y="789.6602">(Controlled SSH Access)</text></g><!--entity jenkins_master--><g class="entity" data-qualified-name="OCI Infrastructure Layer.OCI Tenancy . Compartment.Virtual Cloud Network .VCN..Public Subnet.jenkins_master" data-source-line="24" id="ent0014"><rect fill="#F1F1F1" height="50.1875" rx="2.5" ry="2.5" style="stroke:#181818;stroke-width:0.5;" width="149.3926" x="1361.5" y="879.1094"/><text fill="#000000" font-family="sans-serif" font-size="12" lengthAdjust="spacing" textLength="129.3926" x="1371.5" y="901.5664">Jenkins Master Instance</text><text fill="#000000" font-family="sans-serif" font-size="12" lengthAdjust="spacing" textLength="78.0176" x="1371.5" y="916.6602">(Compute VM)</text></g><!--entity load_balancer--><g class="entity" data-qualified-name="OCI Infrastructure Layer.OCI Tenancy . Compartment.Virtual Cloud Network .VCN..Public Subnet.load_balancer" data-source-line="25" id="ent0015"><rect fill="#F1F1F1" height="50.1875" rx="2.5" ry="2.5" style="stroke:#181818;stroke-width:0.5;" width="134.7266" x="1358.5" y="752.1094"/><text fill="#000000" font-family="sans-serif" font-size="12" lengthAdjust="spacing" textLength="77.3906" x="1368.5" y="774.5664">Load Balancer</text><text fill="#000000" font-family="sans-serif" font-size="12" lengthAdjust="spacing" textLength="114.7266" x="1368.5" y="789.6602">(optional public entry)</text></g><!--entity jenkins_slaves--><g class="entity" data-qualified-name="OCI Infrastructure Layer.OCI Tenancy . Compartment.Virtual Cloud Network .VCN..Private Subnet.s..jenkins_slaves" data-source-line="28" id="ent0017"><rect fill="#F1F1F1" height="50.1875" rx="2.5" ry="2.5" style="stroke:#181818;stroke-width:0.5;" width="158.7148" x="1213.5" y="1093.6094"/><text fill="#000000" font-family="sans-serif" font-size="12" lengthAdjust="spacing" textLength="108.7324" x="1223.5" y="1116.0664">Jenkins Slave/Agent</text><text fill="#000000" font-family="sans-serif" font-size="12" lengthAdjust="spacing" textLength="138.7148" x="1223.5" y="1131.1602">Instances (Compute VMs)</text></g><!--entity nat_gateway--><g class="entity" data-qualified-name="OCI Infrastructure Layer.OCI Tenancy . Compartment.Virtual Cloud Network .VCN..Private Subnet.s..nat_gateway" data-source-line="29" id="ent0018"><rect fill="#F1F1F1" height="50.1875" rx="2.5" ry="2.5" style="stroke:#181818;stroke-width:0.5;" width="149.3984" x="1213.5" y="1228.1094"/><text fill="#000000" font-family="sans-serif" font-size="12" lengthAdjust="spacing" textLength="74.6895" x="1223.5" y="1250.5664">NAT Gateway</text><text fill="#000000" font-family="sans-serif" font-size="12" lengthAdjust="spacing" textLength="129.3984" x="1223.5" y="1265.6602">(Outbound Connectivity)</text></g><!--entity ssh_keys--><g class="entity" data-qualified-name="Configuration . Security Layer.ssh_keys" data-source-line="39" id="ent0023"><rect fill="#F1F1F1" height="65.2813" rx="2.5" ry="2.5" style="stroke:#181818;stroke-width:0.5;" width="140.0645" x="391" y="436.6094"/><text fill="#000000" font-family="sans-serif" font-size="12" lengthAdjust="spacing" textLength="94.6992" x="401" y="459.0664">SSH Key Material</text><text fill="#000000" font-family="sans-serif" font-size="12" lengthAdjust="spacing" textLength="120.0645" x="401" y="474.1602">(ssh_authorized_keys,</text><text fill="#000000" font-family="sans-serif" font-size="12" lengthAdjust="spacing" textLength="90.709" x="401" y="489.2539">ssh_private_key)</text></g><!--entity cloud_init--><g class="entity" data-qualified-name="Configuration . Security Layer.cloud_init" data-source-line="40" id="ent0024"><rect fill="#F1F1F1" height="50.1875" rx="2.5" ry="2.5" style="stroke:#181818;stroke-width:0.5;" width="117.4004" x="22.5" y="444.1094"/><text fill="#000000" font-family="sans-serif" font-size="12" lengthAdjust="spacing" textLength="80.0391" x="32.5" y="466.5664">Cloud-Init Data</text><text fill="#000000" font-family="sans-serif" font-size="12" lengthAdjust="spacing" textLength="97.4004" x="32.5" y="481.6602">(base64-encoded)</text></g><!--entity jenkins_config--><g class="entity" data-qualified-name="Configuration . Security Layer.jenkins_config" data-source-line="41" id="ent0025"><rect fill="#F1F1F1" height="80.375" rx="2.5" ry="2.5" style="stroke:#181818;stroke-width:0.5;" width="181.4258" x="174.5" y="429.1094"/><text fill="#000000" font-family="sans-serif" font-size="12" lengthAdjust="spacing" textLength="120.0527" x="184.5" y="451.5664">Jenkins Cluster Config</text><text fill="#000000" font-family="sans-serif" font-size="12" lengthAdjust="spacing" textLength="114.0527" x="184.5" y="466.6602">(label_prefix, version,</text><text fill="#000000" font-family="sans-serif" font-size="12" lengthAdjust="spacing" textLength="161.4258" x="184.5" y="481.7539">password, http_port, jnlp_port,</text><text fill="#000000" font-family="sans-serif" font-size="12" lengthAdjust="spacing" textLength="42.0234" x="184.5" y="496.8477">plugins)</text></g><!--entity operator--><g class="entity" data-qualified-name="operator" data-source-line="7" id="ent0001"><ellipse cx="869.8604" cy="52.6094" fill="#F1F1F1" rx="8" ry="8" style="stroke:#181818;stroke-width:0.5;"/><path d="M869.8604,60.6094 L869.8604,87.6094 M856.8604,68.6094 L882.8604,68.6094 M869.8604,87.6094 L856.8604,102.6094 M869.8604,87.6094 L882.8604,102.6094" fill="none" style="stroke:#181818;stroke-width:0.5;"/><text fill="#000000" font-family="sans-serif" font-size="12" lengthAdjust="spacing" textLength="114.7207" x="812.5" y="116.5664">Deployment Operator</text></g><!--link operator to terraform_cli--><g class="link" data-entity-1="ent0001" data-entity-2="ent0003" data-link-type="dependency" data-source-line="45" id="lnk26"><path d="M812.36,91.6594 C732.71,105.4794 595.47,134.4594 566,174.1094 C536.83,213.3494 542.51,241.2294 566,284.1094 C617.31,377.7794 734.1196,429.0697 801.7596,452.2297" fill="none" id="operator-to-terraform_cli" style="stroke:#181818;stroke-width:1;"/><polygon fill="#181818" points="806.49,453.8494,799.271,447.1496,801.7596,452.2297,796.6795,454.7182,806.49,453.8494" style="stroke:#181818;stroke-width:1;stroke-linejoin:miter;stroke-miterlimit:10;"/><text fill="#000000" font-family="sans-serif" font-size="12" lengthAdjust="spacing" textLength="152.0684" x="567" y="264.0664">runs terraform init/plan/apply</text></g><!--link operator to tfvars--><g class="link" data-entity-1="ent0001" data-entity-2="ent0004" data-link-type="dependency" data-source-line="46" id="lnk27"><path d="M899.12,119.2494 C905.64,128.6194 912.08,138.9294 917,149.1094 C930.39,176.8094 938.2829,206.3446 943.2329,229.0046" fill="none" id="operator-to-tfvars" style="stroke:#181818;stroke-width:1;"/><polygon fill="#181818" points="944.3,233.8894,946.2871,224.2431,943.2329,229.0046,938.4714,225.9504,944.3,233.8894" style="stroke:#181818;stroke-width:1;stroke-linejoin:miter;stroke-miterlimit:10;"/><text fill="#000000" font-family="sans-serif" font-size="12" lengthAdjust="spacing" textLength="95.3789" x="924" y="162.5664">edits variable files</text></g><!--link operator to json_input--><g class="link" data-entity-1="ent0001" data-entity-2="ent0005" data-link-type="dependency" data-source-line="47" id="lnk28"><path d="M812.09,114.2394 C799.98,123.7594 788.83,135.3994 782,149.1094 C767.08,179.0794 776.151,214.6678 784.351,236.9178" fill="none" id="operator-to-json_input" style="stroke:#181818;stroke-width:1;"/><polygon fill="#181818" points="786.08,241.6094,786.721,231.7814,784.351,236.9178,779.2145,234.5478,786.08,241.6094" style="stroke:#181818;stroke-width:1;stroke-linejoin:miter;stroke-miterlimit:10;"/><text fill="#000000" font-family="sans-serif" font-size="12" lengthAdjust="spacing" textLength="129.4043" x="783" y="162.5664">provides example inputs</text></g><!--link tfvars to terraform_cli--><g class="link" data-entity-1="ent0004" data-entity-2="ent0003" data-link-type="dependency" data-source-line="50" id="lnk29"><path d="M937.92,284.3794 C918.39,327.1394 880.4072,410.2813 863.6772,446.9113" fill="none" id="tfvars-to-terraform_cli" style="stroke:#181818;stroke-width:1;"/><polygon fill="#181818" points="861.6,451.4594,868.9775,444.9346,863.6772,446.9113,861.7006,441.611,861.6,451.4594" style="stroke:#181818;stroke-width:1;stroke-linejoin:miter;stroke-miterlimit:10;"/><text fill="#000000" font-family="sans-serif" font-size="12" lengthAdjust="spacing" textLength="96.7148" x="924" y="342.5664">provides variables</text></g><!--link json_input to terraform_cli--><g class="link" data-entity-1="ent0005" data-entity-2="ent0003" data-link-type="dependency" data-source-line="51" id="lnk30"><path d="M786.26,276.9294 C779.09,297.2894 769.94,332.4094 779,361.1094 C790.4,397.2394 815.4215,428.1105 833.8215,447.7505" fill="none" id="json_input-to-terraform_cli" style="stroke:#181818;stroke-width:1;"/><polygon fill="#181818" points="837.24,451.3994,834.0058,442.0967,833.8215,447.7505,828.1677,447.5662,837.24,451.3994" style="stroke:#181818;stroke-width:1;stroke-linejoin:miter;stroke-miterlimit:10;"/><text fill="#000000" font-family="sans-serif" font-size="12" lengthAdjust="spacing" textLength="103.3887" x="780" y="342.5664">provides test inputs</text></g><!--link terraform_cli to tf_modules--><g class="link" data-entity-1="ent0003" data-entity-2="ent0006" data-link-type="dependency" data-source-line="52" id="lnk31"><path d="M871.81,486.7994 C893.37,506.2294 931.46,538.2094 969,558.1094 C978.93,563.3794 986.25,557.1194 993,566.1094 C1020.585,602.8844 1022.955,654.3319 1018.2475,697.0994 C1017.0706,707.7913 1015.4514,717.9406 1013.6732,727.1826 C1012.7842,731.8036 1011.8553,736.1978 1010.9222,740.3195 C1010.4556,742.3803 1009.988,744.373 1009.5237,746.292 C1009.4076,746.7717 1009.2918,747.2468 1009.1762,747.7172 C1009.1184,747.9524 1010.2622,743.333 1010.2046,743.5658" fill="none" id="terraform_cli-to-tf_modules" style="stroke:#181818;stroke-width:1;"/><polygon fill="#181818" points="1009.003,748.4193,1015.0486,740.6443,1010.2046,743.5658,1007.2831,738.7218,1009.003,748.4193" style="stroke:#181818;stroke-width:1;stroke-linejoin:miter;stroke-miterlimit:10;"/><text fill="#000000" font-family="sans-serif" font-size="12" lengthAdjust="spacing" textLength="96.7207" x="970" y="554.5664">executes modules</text></g><!--link root_module to master_module--><g class="link" data-entity-1="ent0007" data-entity-2="ent0008" data-link-type="dependency" data-source-line="53" id="lnk32"><path d="M769.97,802.1294 C787.41,810.7194 806.49,821.0494 823,832.1094 C847.4,848.4694 868.9083,867.7813 884.8083,883.0913" fill="none" id="root_module-to-master_module" style="stroke:#181818;stroke-width:1;"/><polygon fill="#181818" points="888.41,886.5594,884.7014,877.4355,884.8083,883.0913,879.1524,883.1982,888.41,886.5594" style="stroke:#181818;stroke-width:1;stroke-linejoin:miter;stroke-miterlimit:10;"/><text fill="#000000" font-family="sans-serif" font-size="12" lengthAdjust="spacing" textLength="113.3848" x="845" y="845.5664">passes master config</text></g><!--link root_module to slave_module--><g class="link" data-entity-1="ent0007" data-entity-2="ent0009" data-link-type="dependency" data-source-line="54" id="lnk33"><path d="M694.88,802.2694 C688.49,811.0594 682.3,821.4694 679,832.1094 C672.98,851.5594 682.3101,868.5527 693.8201,882.5927" fill="none" id="root_module-to-slave_module" style="stroke:#181818;stroke-width:1;"/><polygon fill="#181818" points="696.99,886.4594,694.3775,876.9633,693.8201,882.5927,688.1907,882.0352,696.99,886.4594" style="stroke:#181818;stroke-width:1;stroke-linejoin:miter;stroke-miterlimit:10;"/><text fill="#000000" font-family="sans-serif" font-size="12" lengthAdjust="spacing" textLength="138.0879" x="680" y="845.5664">passes slave/agent config</text></g><!--link ssh_keys to root_module--><g class="link" data-entity-1="ent0023" data-entity-2="ent0007" data-link-type="dependency" data-source-line="57" id="lnk34"><path d="M487.33,501.6994 C538.48,563.0894 647.0793,693.3981 692.7493,748.2081" fill="none" id="ssh_keys-to-root_module" style="stroke:#181818;stroke-width:1;"/><polygon fill="#181818" points="695.95,752.0494,693.2617,742.5745,692.7493,748.2081,687.1157,747.6956,695.95,752.0494" style="stroke:#181818;stroke-width:1;stroke-linejoin:miter;stroke-miterlimit:10;"/></g><!--link cloud_init to master_module--><g class="link" data-entity-1="ent0024" data-entity-2="ent0008" data-link-type="dependency" data-source-line="58" id="lnk35"><path d="M108.41,494.4094 C122.55,506.5294 140.29,521.1194 157,533.1094 C265.62,611.0694 544.69,799.8694 669,849.1094 C730.99,873.6694 751.11,863.7594 816,879.1094 C825.66,881.3894 831.0146,882.7071 840.9346,885.3171" fill="none" id="cloud_init-to-master_module" style="stroke:#181818;stroke-width:1;"/><polygon fill="#181818" points="845.77,886.5894,838.084,880.431,840.9346,885.3171,836.0484,888.1677,845.77,886.5894" style="stroke:#181818;stroke-width:1;stroke-linejoin:miter;stroke-miterlimit:10;"/></g><!--link cloud_init to slave_module--><g class="link" data-entity-1="ent0024" data-entity-2="ent0009" data-link-type="dependency" data-source-line="59" id="lnk36"><path d="M87.14,494.3394 C105.97,563.1994 169.89,760.7694 303,849.1094 C354.59,883.3494 517.8248,895.7499 622.0648,900.3299" fill="none" id="cloud_init-to-slave_module" style="stroke:#181818;stroke-width:1;"/><polygon fill="#181818" points="627.06,900.5494,618.2443,896.1582,622.0648,900.3299,617.8931,904.1505,627.06,900.5494" style="stroke:#181818;stroke-width:1;stroke-linejoin:miter;stroke-miterlimit:10;"/></g><!--link jenkins_config to root_module--><g class="link" data-entity-1="ent0025" data-entity-2="ent0007" data-link-type="dependency" data-source-line="60" id="lnk37"><path d="M322.58,509.1794 C417.21,573.3794 598.7224,696.5422 676.3824,749.2322" fill="none" id="jenkins_config-to-root_module" style="stroke:#181818;stroke-width:1;"/><polygon fill="#181818" points="680.52,752.0394,675.3181,743.6763,676.3824,749.2322,670.8266,750.2964,680.52,752.0394" style="stroke:#181818;stroke-width:1;stroke-linejoin:miter;stroke-miterlimit:10;"/></g><!--link oci_identity to root_module--><g class="link" data-entity-1="ent0020" data-entity-2="ent0007" data-link-type="dependency" data-source-line="61" id="lnk38"><path d="M1766.8,1400.6294 C1794.32,1390.9294 1821.53,1375.5394 1838,1351.1094 C1918.98,1230.9594 1880.27,1120.0694 1764,1033.6094 C1754.39,1026.4594 1344.92,1026.7994 1333,1025.6094 C1234.11,1015.7694 1200.45,1032.8294 1113,985.6094 C1030.15,940.8694 1049.67,877.1694 967,832.1094 C904.24,797.8994 878.75,817.7194 809,802.1094 C807.54,801.7794 810.9347,802.5617 809.4447,802.2217" fill="none" id="oci_identity-to-root_module" style="stroke:#181818;stroke-width:1;"/><polygon fill="#181818" points="804.57,801.1094,812.4546,807.0114,809.4447,802.2217,814.2343,799.2118,804.57,801.1094" style="stroke:#181818;stroke-width:1;stroke-linejoin:miter;stroke-miterlimit:10;"/></g><!--link master_module to jenkins_master--><g class="link" data-entity-1="ent0008" data-entity-2="ent0014" data-link-type="dependency" data-source-line="64" id="lnk39"><path d="M941.1,886.5894 C977.27,870.0694 1035.03,846.4994 1088,837.1094 C1178.42,821.0794 1351.64,877.4694 1358,879.1094 C1359.1,879.3894 1355.3803,878.3857 1356.5003,878.6857" fill="none" id="master_module-to-jenkins_master" style="stroke:#181818;stroke-width:1;"/><polygon fill="#181818" points="1361.33,879.9794,1353.6714,873.787,1356.5003,878.6857,1351.6015,881.5145,1361.33,879.9794" style="stroke:#181818;stroke-width:1;stroke-linejoin:miter;stroke-miterlimit:10;"/><text fill="#000000" font-family="sans-serif" font-size="12" lengthAdjust="spacing" textLength="54.0234" x="1089" y="845.5664">provisions</text></g><!--link slave_module to jenkins_slaves--><g class="link" data-entity-1="ent0009" data-entity-2="ent0017" data-link-type="dependency" data-source-line="65" id="lnk40"><path d="M730.83,921.6594 C750.52,939.2694 783.7,967.1094 816,985.6094 C943.87,1058.8594 1109.5445,1092.4733 1208.2445,1107.1633" fill="none" id="slave_module-to-jenkins_slaves" style="stroke:#181818;stroke-width:1;"/><polygon fill="#181818" points="1213.19,1107.8994,1204.8769,1102.618,1208.2445,1107.1633,1203.6992,1110.5309,1213.19,1107.8994" style="stroke:#181818;stroke-width:1;stroke-linejoin:miter;stroke-miterlimit:10;"/><text fill="#000000" font-family="sans-serif" font-size="12" lengthAdjust="spacing" textLength="129.3926" x="889" y="1014.5664">provisions (slave_count)</text></g><!--link jenkins_master to oci_network_objects--><g class="link" data-entity-1="ent0014" data-entity-2="ent0021" data-link-type="dependency" data-source-line="68" id="lnk41"><path d="M1465.55,929.1694 C1516.8,972.5294 1622.02,1069.0394 1678,1173.6094 C1685.7,1187.9894 1689.5431,1200.5577 1692.5231,1215.3577" fill="none" id="jenkins_master-to-oci_network_objects" style="stroke:#181818;stroke-width:1;"/><polygon fill="#181818" points="1693.51,1220.2594,1695.6548,1210.6469,1692.5231,1215.3577,1687.8122,1212.226,1693.51,1220.2594" style="stroke:#181818;stroke-width:1;stroke-linejoin:miter;stroke-miterlimit:10;"/><text fill="#000000" font-family="sans-serif" font-size="12" lengthAdjust="spacing" textLength="96.7148" x="1659" y="1123.5664">attached via VNIC</text></g><!--link jenkins_slaves to oci_network_objects--><g class="link" data-entity-1="ent0017" data-entity-2="ent0021" data-link-type="dependency" data-source-line="69" id="lnk42"><path d="M1353.75,1143.7094 C1390.83,1158.0694 1439.35,1176.2394 1483,1190.6094 C1517.39,1201.9294 1550.4393,1211.8065 1584.6793,1221.5065" fill="none" id="jenkins_slaves-to-oci_network_objects" style="stroke:#181818;stroke-width:1;"/><polygon fill="#181818" points="1589.49,1222.8694,1581.921,1216.5677,1584.6793,1221.5065,1579.7405,1224.2648,1589.49,1222.8694" style="stroke:#181818;stroke-width:1;stroke-linejoin:miter;stroke-miterlimit:10;"/><text fill="#000000" font-family="sans-serif" font-size="12" lengthAdjust="spacing" textLength="189.4219" x="1484" y="1187.0664">attached via VNIC (private subnets)</text></g><!--link jenkins_slaves to nat_gateway--><g class="link" data-entity-1="ent0017" data-entity-2="ent0018" data-link-type="dependency" data-source-line="70" id="lnk43"><path d="M1213.41,1132.6394 C1168.42,1141.8094 1118.54,1155.6394 1105,1173.6094 C1072.19,1217.1694 1144.3455,1236.1762 1208.3755,1244.8762" fill="none" id="jenkins_slaves-to-nat_gateway" style="stroke:#181818;stroke-width:1;"/><polygon fill="#181818" points="1213.33,1245.5494,1204.9505,1240.3741,1208.3755,1244.8762,1203.8734,1248.3012,1213.33,1245.5494" style="stroke:#181818;stroke-width:1;stroke-linejoin:miter;stroke-miterlimit:10;"/><text fill="#000000" font-family="sans-serif" font-size="12" lengthAdjust="spacing" textLength="151.4063" x="1106" y="1187.0664">outbound connectivity (NAT)</text></g><!--link oci_network_objects to oci_identity--><g class="link" data-entity-1="ent0021" data-entity-2="ent0020" data-link-type="dependency" data-source-line="71" id="lnk44"><path d="M1680.04,1285.7394 C1672.92,1300.0294 1665.58,1317.4294 1662,1334.1094 C1658.72,1349.3694 1659.414,1361.48 1662.544,1376.11" fill="none" id="oci_network_objects-to-oci_identity" style="stroke:#181818;stroke-width:1;"/><polygon fill="#181818" points="1663.59,1380.9994,1665.6186,1371.3617,1662.544,1376.11,1657.7956,1373.0354,1663.59,1380.9994" style="stroke:#181818;stroke-width:1;stroke-linejoin:miter;stroke-miterlimit:10;"/><text fill="#000000" font-family="sans-serif" font-size="12" lengthAdjust="spacing" textLength="170.7598" x="1663" y="1347.5664">scoped to tenancy/compartment</text></g><!--link jenkins_master to jenkins_slaves--><g class="link" data-entity-1="ent0014" data-entity-2="ent0017" data-link-type="dependency" data-source-line="74" id="lnk45"><path d="M1412.88,929.1394 C1396.99,946.3194 1375.95,970.4194 1360,993.6094 C1337.4,1026.4694 1318.577,1063.2486 1306.307,1088.9086" fill="none" id="jenkins_master-to-jenkins_slaves" style="stroke:#181818;stroke-width:1;"/><polygon fill="#181818" points="1304.15,1093.4194,1311.6412,1087.0255,1306.307,1088.9086,1304.4239,1083.5743,1304.15,1093.4194" style="stroke:#181818;stroke-width:1;stroke-linejoin:miter;stroke-miterlimit:10;"/><text fill="#000000" font-family="sans-serif" font-size="12" lengthAdjust="spacing" textLength="128.7129" x="1361" y="1007.0664">Jenkins Master-to-Slave</text><text fill="#000000" font-family="sans-serif" font-size="12" lengthAdjust="spacing" textLength="126.6914" x="1362.0107" y="1022.1602">(HTTP port / JNLP port)</text></g><!--link bastion_host to jenkins_master--><g class="link" data-entity-1="ent0019" data-entity-2="ent0014" data-link-type="dependency" data-source-line="77" id="lnk46"><path d="M1219.08,802.3494 C1228.56,817.7794 1242.72,837.0594 1260,849.1094 C1297.37,875.1594 1314.45,865.7494 1358,879.1094 C1359.08,879.4394 1355.4068,878.2905 1356.4968,878.6305" fill="none" id="bastion_host-to-jenkins_master" style="stroke:#181818;stroke-width:1;"/><polygon fill="#181818" points="1361.27,880.1194,1353.8694,873.6208,1356.4968,878.6305,1351.4872,881.2579,1361.27,880.1194" style="stroke:#181818;stroke-width:1;stroke-linejoin:miter;stroke-miterlimit:10;"/><text fill="#000000" font-family="sans-serif" font-size="12" lengthAdjust="spacing" textLength="160.7461" x="1261" y="845.5664">SSH bastion-mediated access</text></g><!--link bastion_host to jenkins_slaves--><g class="link" data-entity-1="ent0019" data-entity-2="ent0017" data-link-type="dependency" data-source-line="78" id="lnk47"><path d="M1195.86,802.2794 C1180.79,841.8694 1156.65,922.4394 1180,985.6094 C1196.42,1030.0394 1231.4285,1066.3368 1258.9685,1090.3068" fill="none" id="bastion_host-to-jenkins_slaves" style="stroke:#181818;stroke-width:1;"/><polygon fill="#181818" points="1262.74,1093.5894,1258.5774,1084.6634,1258.9685,1090.3068,1253.3252,1090.6979,1262.74,1093.5894" style="stroke:#181818;stroke-width:1;stroke-linejoin:miter;stroke-miterlimit:10;"/><text fill="#000000" font-family="sans-serif" font-size="12" lengthAdjust="spacing" textLength="160.7461" x="1181" y="909.0664">SSH bastion-mediated access</text></g><!--link load_balancer to jenkins_master--><g class="link" data-entity-1="ent0015" data-entity-2="ent0014" data-link-type="dependency" data-source-line="79" id="lnk48"><path d="M1427.93,802.2094 C1429.7,824.3494 1431.911,851.9853 1433.681,874.0953" fill="none" id="load_balancer-to-jenkins_master" style="stroke:#181818;stroke-width:1;"/><polygon fill="#181818" points="1434.08,879.0794,1437.3491,869.7889,1433.681,874.0953,1429.3746,870.4273,1434.08,879.0794" style="stroke:#181818;stroke-width:1;stroke-linejoin:miter;stroke-miterlimit:10;"/><text fill="#000000" font-family="sans-serif" font-size="12" lengthAdjust="spacing" textLength="138.6973" x="1432" y="845.5664">public HTTP/HTTPS entry</text></g><!--link operator to bastion_host--><g class="link" data-entity-1="ent0001" data-entity-2="ent0019" data-link-type="dependency" data-source-line="80" id="lnk49"><path d="M927.61,96.3694 C960.18,106.5294 999.88,123.1894 1028,149.1094 C1037.21,157.5994 1036.43,162.4494 1041,174.1094 C1126.22,391.5394 1183.9134,664.5957 1200.3434,747.0957" fill="none" id="operator-to-bastion_host" style="stroke:#181818;stroke-width:1;stroke-dasharray:7,7;"/><polygon fill="#181818" points="1201.32,751.9994,1203.4851,742.3914,1200.3434,747.0957,1195.6392,743.954,1201.32,751.9994" style="stroke:#181818;stroke-width:1;stroke-linejoin:miter;stroke-miterlimit:10;"/><text fill="#000000" font-family="sans-serif" font-size="12" lengthAdjust="spacing" textLength="103.3887" x="1106.6709" y="327.5664">SSH (bastion_host,</text><text fill="#000000" font-family="sans-serif" font-size="12" lengthAdjust="spacing" textLength="72.0469" x="1122.3418" y="342.6602">bastion_user,</text><text fill="#000000" font-family="sans-serif" font-size="12" lengthAdjust="spacing" textLength="110.7305" x="1103" y="357.7539">bastion_private_key)</text></g><?plantuml-src bLPTRo8t57sVNt6LXnRK4DIgwiC-h9GbseOqNrfG-X9fP3m6d1XxP7l8qYh_lVVQCs03GLiUq8nzxl7zyZtZfLS27aPZk17wLMe7Ks4jcnkxWYjHAxDP2UrX09UMBwKNt3TM58L3QCqiMm4tgzfen4py1fai8fXUA950Peo_BgnfT3KoobXu8w9aln9prYZ_rI29_4V0hxyL1UCUaMU92m-ri0mNpu0vCErBKTH8pXOYW_vjxEjScJUuPHk11lyMWB-jft2sYt5qEmw4lbifkPBxyEtcXP-lcNNFklV4h6Gp3FYhLCBr8qVOt3U-cJpSmrZNZO_O07rnHfUI5ZzsxSvKJOVtyt8LNzjWzgo-6UDR0tIEolaBJ2RN-3zIZKF_OMJqN2wYenRHBTyniguJxbYmZBJ1S1LMVi1qejXQ32yNj9ZOErfEpT-BzwI4vFTOposUOflGQNa5C-1KQARv1eOOsWeRoLFfpvBqRD5Fqlg6AKo5QIgu5_uD-mDwJwFxVehFR1wRcP8S9irC2x-FEfsliNPu1JWLWZnhl82dkvZubuWiOnvFSTuQLi4NfeZ88fEflJGQWwYZOmYocqYg45hEMcZ6-Vv1R5Qk6NeLW-kv_W_6bnJrMNTHEaYYT7cOeTpk5FNzvHJ-H5_Us8Rwjl4p6XFKh1e7YLnBtmQfcIyN4NWYn8Jv2wOOCmRNnlbG2KoOKKfKuLvSSlIyzNOMaUKIaSKXRyKyGqZNdXMoerVKTbQ45wPe8FZOZgNXiZg7nk4r2O_Fck_QizsTIxqGjhPI--W2BfUoPJvshUZajc_H51vcBvWTElMReSHFQHAvSxYw7ZsUmqJmnfABjz9vXmx4EkF-q_ruv7OdwiXOcaXtv4B6eT7WgALK_fHGVp1OART_YGrU1Unlp0owwDooP8rV6ekplIfVnOPyejKwzY4jHQTeaVRtMSF57Oorz725rK1IAiWVlmy49hSILRJcXCAXAWzcQjV0-In46iLcGg4VOYw_dyDQM8TnedSrSmvJWwLQUb-NjR7-75wqQXyHe9e5CkRjpWCj9V3dhLe1rXYVE2NG5PrimM3mEPSS-0IsqOaE0GKohF5M3rbTgysURP0QD1ALz0xMdHhDIM5ow4vg45vRiyP6So2-irMD1c73aSTRqLHKMqnVl8BaTdlQCQUtX9qBhaWEF6dXXVFT-JaeHhXLF8poEpOUug5TAX852-XCcEWGBA3ez0hQmkmRfMgqimchGnQagpN4xEGteVMwwzV0behghXKFlTlVp3GnRwK3tdHE76oYbr5gmPlmHHSoJHsDCwF8CnGQ8nEZhZ8kL3nBJGgE8pq3Go-YEOvktm_DZuVBNCShKGkDddD97PAVJFn7vX4UmhndV8apUorPc5x5dX__mnHwxRm15-TX_nXPeZD8OZf1ueaWGGzLgrySExPpPrkZJ-0utiQAIj8gn33H0qfMDvnmUTLeoKE77KlHGGdoxuw1DuEWq3ZNhgVJHw1HXJ9rStyRdqDfel1Xh_kbArBbEzuIDCzRr625imOpKm4B71zRRnqyPPrzjNpGZ_5JXu8PqjyaVlNinjl5nUTClTiZU-aQ3klkbKGvUKtbf_WF?></g></svg>