<svg xmlns="http://www.w3.org/2000/svg" xmlns:xlink="http://www.w3.org/1999/xlink" contentStyleType="text/css" data-diagram-type="DESCRIPTION" height="1380px" preserveAspectRatio="none" style="width:2793px;height:1380px;background:#FFFFFF;" version="1.1" viewBox="0 0 2793 1380" width="2793px" zoomAndPan="magnify"><?plantuml 1.2026.6?><defs/><g><g class="title" data-source-line="1"><text fill="#000000" font-family="sans-serif" font-size="14" font-weight="700" lengthAdjust="spacing" textLength="219.3926" x="1283.48" y="24.5332">EMBC ESS Architecture Diagram</text></g><!--cluster Web Browser--><g class="cluster" data-qualified-name="Web Browser" data-source-line="13" id="ent0004"><rect fill="none" height="491" rx="2.5" ry="2.5" style="stroke:#181818;stroke-width:1;" width="1983" x="570" y="203.1094"/><text fill="#000000" font-family="sans-serif" font-size="14" font-weight="700" lengthAdjust="spacing" textLength="89.4619" x="1516.769" y="219.6426">Web Browser</text></g><!--cluster Angular ClientApp--><g class="cluster" data-qualified-name="Web Browser.Angular ClientApp" data-source-line="14" id="ent0005"><rect fill="none" height="423" rx="2.5" ry="2.5" style="stroke:#181818;stroke-width:1;" width="1935" x="594" y="247.1094"/><text fill="#000000" font-family="sans-serif" font-size="14" font-weight="700" lengthAdjust="spacing" textLength="122.8828" x="1500.0586" y="263.6426">Angular ClientApp</text></g><!--cluster .NET Core WebAPI Server--><g class="cluster" data-qualified-name=".NET Core WebAPI Server" data-source-line="31" id="ent0019"><rect fill="none" height="532" rx="2.5" ry="2.5" style="stroke:#181818;stroke-width:1;" width="288" x="258" y="563.1094"/><text fill="#000000" font-family="sans-serif" font-size="14" font-weight="700" lengthAdjust="spacing" textLength="171.9375" x="316.0313" y="579.6426">.NET Core WebAPI Server</text></g><!--cluster Data Access Layer--><g class="cluster" data-qualified-name=".NET Core WebAPI Server.Data Access Layer" data-source-line="35" id="ent0023"><rect fill="none" height="90" rx="2.5" ry="2.5" style="stroke:#181818;stroke-width:1;" width="240" x="282" y="981.1094"/><text fill="#000000" font-family="sans-serif" font-size="14" font-weight="700" lengthAdjust="spacing" textLength="124.5234" x="339.7383" y="997.6426">Data Access Layer</text></g><!--cluster MSSQL--><g class="cluster" data-qualified-name="MSSQL" data-source-line="40" id="ent0025"><path d="M79,1163.1094 C79,1153.1094 301.5,1153.1094 301.5,1153.1094 C301.5,1153.1094 524,1153.1094 524,1163.1094 L524,1345.8294 C524,1355.8294 301.5,1355.8294 301.5,1355.8294 C301.5,1355.8294 79,1355.8294 79,1345.8294 L79,1163.1094" fill="none" style="stroke:#181818;stroke-width:1;"/><path d="M79,1163.1094 C79,1173.1094 301.5,1173.1094 301.5,1173.1094 C301.5,1173.1094 524,1173.1094 524,1163.1094" fill="none" style="stroke:#181818;stroke-width:1;"/><text fill="#000000" font-family="sans-serif" font-size="14" font-weight="700" lengthAdjust="spacing" textLength="119.8135" x="241.5933" y="1189.6426">MS SQL Database</text></g><!--entity Router--><g class="entity" data-qualified-name="Web Browser.Angular ClientApp.Router" data-source-line="15" id="ent0006"><rect fill="#F1F1F1" height="55.2188" rx="2.5" ry="2.5" style="stroke:#181818;stroke-width:0.5;" width="183.4268" x="1313.5" y="283.1094"/><text fill="#000000" font-family="sans-serif" font-size="14" lengthAdjust="spacing" textLength="117.5098" x="1323.5" y="307.6426">Role-based Router</text><text fill="#000000" font-family="sans-serif" font-size="14" lengthAdjust="spacing" textLength="163.4268" x="1323.5" y="325.252">(Landing &amp; Route Guards)</text></g><!--entity Auth--><g class="entity" data-qualified-name="Web Browser.Angular ClientApp.Auth" data-source-line="16" id="ent0007"><rect fill="#F1F1F1" height="55.2188" rx="2.5" ry="2.5" style="stroke:#181818;stroke-width:0.5;" width="223.8955" x="1455" y="432.6094"/><text fill="#000000" font-family="sans-serif" font-size="14" lengthAdjust="spacing" textLength="143.1924" x="1465" y="457.1426">Auth / Session Handler</text><text fill="#000000" font-family="sans-serif" font-size="14" lengthAdjust="spacing" textLength="203.8955" x="1465" y="474.752">(Login, Logout, Session-Expired)</text></g><!--entity Interceptor--><g class="entity" data-qualified-name="Web Browser.Angular ClientApp.Interceptor" data-source-line="17" id="ent0008"><rect fill="#F1F1F1" height="55.2188" rx="2.5" ry="2.5" style="stroke:#181818;stroke-width:0.5;" width="216.0752" x="1208" y="599.1094"/><text fill="#000000" font-family="sans-serif" font-size="14" lengthAdjust="spacing" textLength="107.3652" x="1218" y="623.6426">HTTP Interceptor</text><text fill="#000000" font-family="sans-serif" font-size="14" lengthAdjust="spacing" textLength="196.0752" x="1218" y="641.252">(Watchdog Timer, 401 Handler)</text></g><!--entity NgRx--><g class="entity" data-qualified-name="Web Browser.Angular ClientApp.NgRx" data-source-line="18" id="ent0009"><rect fill="#F1F1F1" height="55.2188" rx="2.5" ry="2.5" style="stroke:#181818;stroke-width:0.5;" width="184.1787" x="2123" y="599.1094"/><text fill="#000000" font-family="sans-serif" font-size="14" lengthAdjust="spacing" textLength="72.3584" x="2133" y="623.6426">NgRx Store</text><text fill="#000000" font-family="sans-serif" font-size="14" lengthAdjust="spacing" textLength="164.1787" x="2133" y="641.252">(Client-side State / Cache)</text></g><!--entity CLLoader--><g class="entity" data-qualified-name="Web Browser.Angular ClientApp.CLLoader" data-source-line="19" id="ent0010"><rect fill="#F1F1F1" height="55.2188" rx="2.5" ry="2.5" style="stroke:#181818;stroke-width:0.5;" width="157.7441" x="2180" y="432.6094"/><text fill="#000000" font-family="sans-serif" font-size="14" lengthAdjust="spacing" textLength="137.7441" x="2190" y="457.1426">Controlled-List Loader</text><text fill="#000000" font-family="sans-serif" font-size="14" lengthAdjust="spacing" textLength="111.2754" x="2190" y="474.752">(App Initialization)</text></g><!--entity EvacSvc--><g class="entity" data-qualified-name="Web Browser.Angular ClientApp.EvacSvc" data-source-line="20" id="ent0011"><rect fill="#F1F1F1" height="37.6094" rx="2.5" ry="2.5" style="stroke:#181818;stroke-width:0.5;" width="182.627" x="1961.5" y="441.1094"/><text fill="#000000" font-family="sans-serif" font-size="14" lengthAdjust="spacing" textLength="162.627" x="1971.5" y="465.6426">Evacuee Service Wrapper</text></g><!--entity IncidentSvc--><g class="entity" data-qualified-name="Web Browser.Angular ClientApp.IncidentSvc" data-source-line="21" id="ent0012"><rect fill="#F1F1F1" height="37.6094" rx="2.5" ry="2.5" style="stroke:#181818;stroke-width:0.5;" width="212.1787" x="1714" y="441.1094"/><text fill="#000000" font-family="sans-serif" font-size="14" lengthAdjust="spacing" textLength="192.1787" x="1724" y="465.6426">Incident-Task Service Wrapper</text></g><!--entity OrgSvc--><g class="entity" data-qualified-name="Web Browser.Angular ClientApp.OrgSvc" data-source-line="22" id="ent0013"><rect fill="#F1F1F1" height="37.6094" rx="2.5" ry="2.5" style="stroke:#181818;stroke-width:0.5;" width="207.5234" x="1212" y="441.1094"/><text fill="#000000" font-family="sans-serif" font-size="14" lengthAdjust="spacing" textLength="187.5234" x="1222" y="465.6426">Organization Service Wrapper</text></g><!--entity ReferralSvc--><g class="entity" data-qualified-name="Web Browser.Angular ClientApp.ReferralSvc" data-source-line="23" id="ent0014"><rect fill="#F1F1F1" height="37.6094" rx="2.5" ry="2.5" style="stroke:#181818;stroke-width:0.5;" width="177.9375" x="999" y="441.1094"/><text fill="#000000" font-family="sans-serif" font-size="14" lengthAdjust="spacing" textLength="157.9375" x="1009" y="465.6426">Referral Service Wrapper</text></g><!--entity RegSvc--><g class="entity" data-qualified-name="Web Browser.Angular ClientApp.RegSvc" data-source-line="24" id="ent0015"><rect fill="#F1F1F1" height="55.2188" rx="2.5" ry="2.5" style="stroke:#181818;stroke-width:0.5;" width="202.8477" x="610.5" y="432.6094"/><text fill="#000000" font-family="sans-serif" font-size="14" lengthAdjust="spacing" textLength="182.8477" x="620.5" y="457.1426">Registration Service Wrapper</text><text fill="#000000" font-family="sans-serif" font-size="14" lengthAdjust="spacing" textLength="131.4756" x="620.5" y="474.752">(incl. PDF Collection)</text></g><!--entity NotifSvc--><g class="entity" data-qualified-name="Web Browser.Angular ClientApp.NotifSvc" data-source-line="25" id="ent0016"><rect fill="#F1F1F1" height="55.2188" rx="2.5" ry="2.5" style="stroke:#181818;stroke-width:0.5;" width="139.8271" x="2373" y="432.6094"/><text fill="#000000" font-family="sans-serif" font-size="14" lengthAdjust="spacing" textLength="119.8271" x="2383" y="457.1426">Notification Service</text><text fill="#000000" font-family="sans-serif" font-size="14" lengthAdjust="spacing" textLength="112.8203" x="2383" y="474.752">(Queue &amp; Notifier)</text></g><!--entity RedirectGuard--><g class="entity" data-qualified-name="Web Browser.Angular ClientApp.RedirectGuard" data-source-line="26" id="ent0017"><rect fill="#F1F1F1" height="37.6094" rx="2.5" ry="2.5" style="stroke:#181818;stroke-width:0.5;" width="114.9307" x="848.5" y="441.1094"/><text fill="#000000" font-family="sans-serif" font-size="14" lengthAdjust="spacing" textLength="94.9307" x="858.5" y="465.6426">Redirect Guard</text></g><!--entity ModDiag--><g class="entity" data-qualified-name="Web Browser.Angular ClientApp.ModDiag" data-source-line="27" id="ent0018"><rect fill="#F1F1F1" height="55.2188" rx="2.5" ry="2.5" style="stroke:#181818;stroke-width:0.5;" width="137.4961" x="876.5" y="283.1094"/><text fill="#000000" font-family="sans-serif" font-size="14" lengthAdjust="spacing" textLength="115.1719" x="886.5" y="307.6426">Module Diagnostic</text><text fill="#000000" font-family="sans-serif" font-size="14" lengthAdjust="spacing" textLength="117.4961" x="886.5" y="325.252">(Double-load Alert)</text></g><!--entity Controllers--><g class="entity" data-qualified-name=".NET Core WebAPI Server.Controllers" data-source-line="32" id="ent0020"><rect fill="#F1F1F1" height="37.6094" rx="2.5" ry="2.5" style="stroke:#181818;stroke-width:0.5;" width="114.1445" x="345" y="760.6094"/><text fill="#000000" font-family="sans-serif" font-size="14" lengthAdjust="spacing" textLength="94.1445" x="355" y="785.1426">API Controllers</text></g><!--entity DomainSvc--><g class="entity" data-qualified-name=".NET Core WebAPI Server.DomainSvc" data-source-line="33" id="ent0021"><rect fill="#F1F1F1" height="37.6094" rx="2.5" ry="2.5" style="stroke:#181818;stroke-width:0.5;" width="125.8135" x="339" y="879.1094"/><text fill="#000000" font-family="sans-serif" font-size="14" lengthAdjust="spacing" textLength="105.8135" x="349" y="903.6426">Domain Services</text></g><!--entity DevBypass--><g class="entity" data-qualified-name=".NET Core WebAPI Server.DevBypass" data-source-line="34" id="ent0022"><rect fill="#F1F1F1" height="55.2188" rx="2.5" ry="2.5" style="stroke:#181818;stroke-width:0.5;" width="178.7441" x="286.5" y="599.1094"/><text fill="#000000" font-family="sans-serif" font-size="14" lengthAdjust="spacing" textLength="158.7441" x="296.5" y="623.6426">Development API Bypass</text><text fill="#000000" font-family="sans-serif" font-size="14" lengthAdjust="spacing" textLength="94.9102" x="296.5" y="641.252">(Dev Env Only)</text></g><!--entity EF--><g class="entity" data-qualified-name=".NET Core WebAPI Server.Data Access Layer.EF" data-source-line="36" id="ent0024"><rect fill="#F1F1F1" height="37.6094" rx="2.5" ry="2.5" style="stroke:#181818;stroke-width:0.5;" width="206.7236" x="298.5" y="1017.1094"/><text fill="#000000" font-family="sans-serif" font-size="14" lengthAdjust="spacing" textLength="186.7236" x="308.5" y="1041.6426">Entity Framework / DbContext</text></g><!--entity DBEntities--><g class="entity" data-qualified-name="MSSQL.DBEntities" data-source-line="41" id="ent0026"><rect fill="#F1F1F1" height="37.6094" rx="2.5" ry="2.5" style="stroke:#181818;stroke-width:0.5;" width="195.8682" x="304" y="1220.6094"/><text fill="#000000" font-family="sans-serif" font-size="14" lengthAdjust="spacing" textLength="175.8682" x="314" y="1245.1426">Persistent Database Entities</text></g><!--entity SQLScripts--><g class="entity" data-qualified-name="MSSQL.SQLScripts" data-source-line="42" id="ent0027"><rect fill="#F1F1F1" height="55.2188" rx="2.5" ry="2.5" style="stroke:#181818;stroke-width:0.5;" width="165.4961" x="103.5" y="1212.1094"/><text fill="#000000" font-family="sans-serif" font-size="14" lengthAdjust="spacing" textLength="145.4961" x="113.5" y="1236.6426">Repository SQL Scripts</text><text fill="#000000" font-family="sans-serif" font-size="14" lengthAdjust="spacing" textLength="122.9512" x="113.5" y="1254.252">(Data Maintenance)</text></g><!--entity User--><g class="entity" data-qualified-name="User" data-source-line="9" id="ent0001"><ellipse cx="1485.8965" cy="52.6094" fill="#F1F1F1" rx="8" ry="8" style="stroke:#181818;stroke-width:0.5;"/><path d="M1485.8965,60.6094 L1485.8965,87.6094 M1472.8965,68.6094 L1498.8965,68.6094 M1485.8965,87.6094 L1472.8965,102.6094 M1485.8965,87.6094 L1498.8965,102.6094" fill="none" style="stroke:#181818;stroke-width:0.5;"/><text fill="#000000" font-family="sans-serif" font-size="14" lengthAdjust="spacing" textLength="84.793" x="1443.5" y="118.6426">Browser User</text><text fill="#000000" font-family="sans-serif" font-size="14" lengthAdjust="spacing" textLength="80.9238" x="1443.5" y="136.252">(Role-based)</text></g><!--entity Dev--><g class="entity" data-qualified-name="Dev" data-source-line="10" id="ent0002"><ellipse cx="375.9067" cy="429.6094" fill="#F1F1F1" rx="8" ry="8" style="stroke:#181818;stroke-width:0.5;"/><path d="M375.9067,437.6094 L375.9067,464.6094 M362.9067,445.6094 L388.9067,445.6094 M375.9067,464.6094 L362.9067,479.6094 M375.9067,464.6094 L388.9067,479.6094" fill="none" style="stroke:#181818;stroke-width:0.5;"/><text fill="#000000" font-family="sans-serif" font-size="14" lengthAdjust="spacing" textLength="63.8135" x="344" y="495.6426">Developer</text></g><!--entity DBA--><g class="entity" data-qualified-name="DBA" data-source-line="11" id="ent0003"><ellipse cx="185.9033" cy="1005.6094" fill="#F1F1F1" rx="8" ry="8" style="stroke:#181818;stroke-width:0.5;"/><path d="M185.9033,1013.6094 L185.9033,1040.6094 M172.9033,1021.6094 L198.9033,1021.6094 M185.9033,1040.6094 L172.9033,1055.6094 M185.9033,1040.6094 L198.9033,1055.6094" fill="none" style="stroke:#181818;stroke-width:0.5;"/><text fill="#000000" font-family="sans-serif" font-size="14" lengthAdjust="spacing" textLength="105.8066" x="133" y="1071.6426">DB Administrator</text></g><!--entity SiteMinder--><g class="entity" data-qualified-name="SiteMinder" data-source-line="45" id="ent0028"><path d="M2578.8557,286.5818 C2582.0656,281.8185 2586.0529,280.817 2589.5032,286.3328 C2592.1642,281.6761 2595.6905,280.5434 2599.7716,284.6732 C2603.3667,279.1093 2608.1596,277.2206 2612.7838,283.547 C2614.1962,278.3773 2619.0035,276.6279 2622.8236,281.0185 C2625.3028,274.8676 2629.9331,274.9737 2633.844,279.5474 C2636.5597,274.995 2642.0049,274.1448 2644.9683,279.2624 C2647.2179,273.2593 2652.5419,271.8796 2656.9844,276.8642 C2661.2122,271.5933 2665.8099,272.8667 2668.6955,278.3287 C2673.4239,272.6882 2678.8727,275.3322 2680.7017,281.3218 C2684.5767,277.0502 2688.2039,277.1399 2690.7273,282.7001 C2694.1401,276.809 2697.6655,277.4216 2701.7398,282.0046 C2707.0746,276.2199 2712.246,279.2088 2714.195,285.4975 C2717.7544,280.2878 2721.74,281.0973 2724.816,286.0049 C2728.2458,281.1039 2733.5416,281.1316 2736.6121,286.4208 C2744.0133,289.1501 2744.9136,293.0744 2740.1527,299.1789 C2746.8492,300.1213 2749.12,306.2156 2745.0086,311.4387 C2749.4354,317.2998 2747.6696,323.4041 2739.6947,324.032 C2744.48,330.1179 2742.3207,333.8973 2735.9774,336.7237 C2732.4984,343.1869 2727.774,343.542 2723.8949,337.0983 C2721.6919,342.8528 2717.8617,342.2088 2714.1609,338.6666 C2710.2412,344.3098 2706.3477,344.1209 2702.3711,338.7275 C2698.7678,343.4423 2693.498,343.23 2690.4491,338.0589 C2687.8639,344.7654 2682.8678,345.5022 2678.5421,339.718 C2676.5384,345.4852 2671.97,345.7951 2668.5535,341.0621 C2664.8949,347.3227 2660.6735,347.0075 2656.7462,341.3278 C2652.6336,346.3839 2647.638,345.3043 2645.2189,339.526 C2642.7728,345.1897 2639.4074,345.7206 2635.5058,340.8707 C2631.3138,345.9953 2626.1258,345.9461 2623.4736,339.2971 C2620.431,343.3835 2615.493,343.6172 2612.9598,338.7021 C2608.3728,343.4556 2604.043,343.8354 2601.2652,336.8931 C2597.1303,342.2385 2591.86,342.9295 2588.5304,336.0539 C2585.3593,341.624 2582.2102,341.2304 2578.5612,336.5171 C2570.9685,334.1854 2571.7278,328.0518 2576.4745,323.7097 C2571.042,319.8105 2571.2466,315.1082 2576.8108,311.5122 C2570.8767,308.1275 2571.1187,302.3065 2576.4663,298.6203 C2571.7875,294.2088 2572.8404,288.8706 2578.8557,286.5818" fill="#F1F1F1" style="stroke:#181818;stroke-width:0.5;"/><text fill="#000000" font-family="sans-serif" font-size="14" lengthAdjust="spacing" textLength="66.917" x="2584" y="307.6426">SiteMinder</text><text fill="#000000" font-family="sans-serif" font-size="14" lengthAdjust="spacing" textLength="143.9375" x="2584" y="325.252">(Auth / Access Control)</text></g><g class="entity" data-qualified-name="GMN52" data-source-line="72" id="ent0053"><path d="M2569.5,605.1094 L2569.5,622.6094 L2307.34,626.6094 L2569.5,630.6094 L2569.5,647.8125 A0,0 0 0 0 2569.5,647.8125 L2778.3525,647.8125 A0,0 0 0 0 2778.3525,647.8125 L2778.3525,615.1094 L2768.3525,605.1094 L2569.5,605.1094 A0,0 0 0 0 2569.5,605.1094" fill="#FEFFDD" style="stroke:#181818;stroke-width:0.5;"/><path d="M2768.3525,605.1094 L2768.3525,615.1094 L2778.3525,615.1094 L2768.3525,605.1094" fill="#FEFFDD" style="stroke:#181818;stroke-width:0.5;"/><text fill="#000000" font-family="sans-serif" font-size="13" lengthAdjust="spacing" textLength="135.1226" x="2575.5" y="623.6045">Single immutable state,</text><text fill="#000000" font-family="sans-serif" font-size="13" lengthAdjust="spacing" textLength="187.8525" x="2575.5" y="639.9561">actions, reducers (NgRx pattern)</text></g><g class="entity" data-qualified-name="GMN55" data-source-line="77" id="ent0056"><path d="M548,1210.1094 L548,1269.1641 L791.5742,1269.1641 L791.5742,1220.1094 L781.5742,1210.1094 L548,1210.1094" fill="#FEFFDD" style="stroke:#181818;stroke-width:0.5;"/><path d="M781.5742,1210.1094 L781.5742,1220.1094 L791.5742,1220.1094 L781.5742,1210.1094" fill="#FEFFDD" style="stroke:#181818;stroke-width:1;"/><text fill="#000000" font-family="sans-serif" font-size="13" lengthAdjust="spacing" textLength="222.5742" x="554" y="1228.6045">Requires DB backup before execution.</text><text fill="#000000" font-family="sans-serif" font-size="13" lengthAdjust="spacing" textLength="150.998" x="554" y="1244.9561">Uses target-filter variables</text><text fill="#000000" font-family="sans-serif" font-size="13" lengthAdjust="spacing" textLength="146.688" x="554" y="1261.3076">and transaction structure.</text></g><g class="entity" data-qualified-name="GMN58" data-source-line="83" id="ent0059"><path d="M6,758.1094 L6,800.8125 A0,0 0 0 0 6,800.8125 L241.6333,800.8125 A0,0 0 0 0 241.6333,800.8125 L241.6333,768.1094 L231.6333,758.1094 L162.33,758.1094 L331.53,654.2594 L154.33,758.1094 L6,758.1094 A0,0 0 0 0 6,758.1094" fill="#FEFFDD" style="stroke:#181818;stroke-width:0.5;"/><path d="M231.6333,758.1094 L231.6333,768.1094 L241.6333,768.1094 L231.6333,758.1094" fill="#FEFFDD" style="stroke:#181818;stroke-width:0.5;"/><text fill="#000000" font-family="sans-serif" font-size="13" lengthAdjust="spacing" textLength="132.2598" x="12" y="776.6045">Backend-only, enabled</text><text fill="#000000" font-family="sans-serif" font-size="13" lengthAdjust="spacing" textLength="214.6333" x="12" y="792.9561">in designated dev environments only.</text></g><!--link User to Router--><g class="link" data-entity-1="ent0001" data-entity-2="ent0006" data-link-type="dependency" data-source-line="47" id="lnk29"><path d="M1468.62,139.1594 C1452.26,182.9994 1430.0682,242.4349 1416.7082,278.2349" fill="none" id="User-to-Router" style="stroke:#181818;stroke-width:1;"/><polygon fill="#181818" points="1414.96,282.9194,1421.8542,275.8859,1416.7082,278.2349,1414.3591,273.0889,1414.96,282.9194" style="stroke:#181818;stroke-width:1;stroke-linejoin:miter;stroke-miterlimit:10;"/><text fill="#000000" font-family="sans-serif" font-size="13" lengthAdjust="spacing" textLength="55.6499" x="1456" y="183.6045">navigates</text></g><!--link User to Auth--><g class="link" data-entity-1="ent0001" data-entity-2="ent0007" data-link-type="dependency" data-source-line="48" id="lnk30"><path d="M1508.99,139.2294 C1513.13,148.9294 1517.05,159.2194 1520,169.1094 C1548.17,263.6994 1560.1864,375.9974 1564.5764,427.6274" fill="none" id="User-to-Auth" style="stroke:#181818;stroke-width:1;"/><polygon fill="#181818" points="1565,432.6094,1568.2231,423.3028,1564.5764,427.6274,1560.2519,423.9806,1565,432.6094" style="stroke:#181818;stroke-width:1;stroke-linejoin:miter;stroke-miterlimit:10;"/><text fill="#000000" font-family="sans-serif" font-size="13" lengthAdjust="spacing" textLength="73.7217" x="1555" y="316.1045">login / logout</text></g><!--link Router to Auth--><g class="link" data-entity-1="ent0006" data-entity-2="ent0007" data-link-type="dependency" data-source-line="49" id="lnk31"><path d="M1407.58,338.1494 C1410.43,354.9694 1416.42,376.2594 1429,391.1094 C1444.02,408.8394 1460.2735,420.1826 1481.1235,430.3226" fill="none" id="Router-to-Auth" style="stroke:#181818;stroke-width:1;"/><polygon fill="#181818" points="1485.62,432.5094,1479.2758,424.976,1481.1235,430.3226,1475.777,432.1704,1485.62,432.5094" style="stroke:#181818;stroke-width:1;stroke-linejoin:miter;stroke-miterlimit:10;"/><text fill="#000000" font-family="sans-serif" font-size="13" lengthAdjust="spacing" textLength="110.5635" x="1430" y="387.6045">route guard checks</text></g><!--link Auth to Interceptor--><g class="link" data-entity-1="ent0007" data-entity-2="ent0008" data-link-type="dependency" data-source-line="50" id="lnk32"><path d="M1526.39,487.7194 C1479.64,518.3694 1407.4617,565.6684 1360.7317,596.2984" fill="none" id="Auth-to-Interceptor" style="stroke:#181818;stroke-width:1;"/><polygon fill="#181818" points="1356.55,599.0394,1366.2699,597.451,1360.7317,596.2984,1361.8843,590.7602,1356.55,599.0394" style="stroke:#181818;stroke-width:1;stroke-linejoin:miter;stroke-miterlimit:10;"/><text fill="#000000" font-family="sans-serif" font-size="13" lengthAdjust="spacing" textLength="86.709" x="1457" y="543.6045">session control</text></g><!--link Interceptor to Controllers--><g class="link" data-entity-1="ent0008" data-entity-2="ent0020" data-link-type="dependency" data-source-line="51" id="lnk33"><path d="M1207.56,645.5194 C1012.39,677.7694 613.3032,743.7046 464.0032,768.3646" fill="none" id="Interceptor-to-Controllers" style="stroke:#181818;stroke-width:1;"/><polygon fill="#181818" points="459.07,769.1794,468.6015,771.6592,464.0032,768.3646,467.2978,763.7662,459.07,769.1794" style="stroke:#181818;stroke-width:1;stroke-linejoin:miter;stroke-miterlimit:10;"/><text fill="#000000" font-family="sans-serif" font-size="13" lengthAdjust="spacing" textLength="193.6035" x="805" y="724.6045">HTTP requests (via Proxy in Dev)</text></g><!--link EvacSvc to Interceptor--><g class="link" data-entity-1="ent0011" data-entity-2="ent0008" data-link-type="dependency" data-source-line="52" id="lnk34"><path d="M2042.12,479.4694 C2028.99,499.7794 2004.91,531.6694 1975,547.1094 C1881.44,595.3894 1590.6252,614.5193 1429.0052,621.6393" fill="none" id="EvacSvc-to-Interceptor" style="stroke:#181818;stroke-width:1;"/><polygon fill="#181818" points="1424.01,621.8594,1433.1773,625.4594,1429.0052,621.6393,1432.8252,617.4671,1424.01,621.8594" style="stroke:#181818;stroke-width:1;stroke-linejoin:miter;stroke-miterlimit:10;"/></g><!--link IncidentSvc to Interceptor--><g class="link" data-entity-1="ent0012" data-entity-2="ent0008" data-link-type="dependency" data-source-line="53" id="lnk35"><path d="M1764.62,479.1794 C1675.63,508.2294 1505.1133,563.8883 1401.9633,597.5483" fill="none" id="IncidentSvc-to-Interceptor" style="stroke:#181818;stroke-width:1;"/><polygon fill="#181818" points="1397.21,599.0994,1407.0069,600.11,1401.9633,597.5483,1404.5251,592.5047,1397.21,599.0994" style="stroke:#181818;stroke-width:1;stroke-linejoin:miter;stroke-miterlimit:10;"/></g><!--link OrgSvc to Interceptor--><g class="link" data-entity-1="ent0013" data-entity-2="ent0008" data-link-type="dependency" data-source-line="54" id="lnk36"><path d="M1316,479.3394 C1316,508.3694 1316,560.2394 1316,593.8694" fill="none" id="OrgSvc-to-Interceptor" style="stroke:#181818;stroke-width:1;"/><polygon fill="#181818" points="1316,598.8694,1320,589.8694,1316,593.8694,1312,589.8694,1316,598.8694" style="stroke:#181818;stroke-width:1;stroke-linejoin:miter;stroke-miterlimit:10;"/></g><!--link ReferralSvc to Interceptor--><g class="link" data-entity-1="ent0014" data-entity-2="ent0008" data-link-type="dependency" data-source-line="55" id="lnk37"><path d="M1113.27,479.3394 C1153.5,508.3694 1228.265,562.3142 1274.885,595.9442" fill="none" id="ReferralSvc-to-Interceptor" style="stroke:#181818;stroke-width:1;"/><polygon fill="#181818" points="1278.94,598.8694,1273.981,590.36,1274.885,595.9442,1269.3008,596.8481,1278.94,598.8694" style="stroke:#181818;stroke-width:1;stroke-linejoin:miter;stroke-miterlimit:10;"/></g><!--link RegSvc to Interceptor--><g class="link" data-entity-1="ent0015" data-entity-2="ent0008" data-link-type="dependency" data-source-line="56" id="lnk38"><path d="M793.12,487.6594 C805.76,491.6094 818.71,495.5494 831,499.1094 C959.71,536.4194 1104.2277,573.4131 1202.8177,597.9231" fill="none" id="RegSvc-to-Interceptor" style="stroke:#181818;stroke-width:1;"/><polygon fill="#181818" points="1207.67,599.1294,1199.9009,593.0762,1202.8177,597.9231,1197.9708,600.8399,1207.67,599.1294" style="stroke:#181818;stroke-width:1;stroke-linejoin:miter;stroke-miterlimit:10;"/></g><!--link CLLoader to NgRx--><g class="link" data-entity-1="ent0010" data-entity-2="ent0009" data-link-type="dependency" data-source-line="57" id="lnk39"><path d="M2234.91,487.8494 C2225.87,499.6294 2216.66,514.1794 2212,529.1094 C2204.91,551.8294 2205.8776,574.0933 2208.7976,593.8133" fill="none" id="CLLoader-to-NgRx" style="stroke:#181818;stroke-width:1;"/><polygon fill="#181818" points="2209.53,598.7594,2212.1686,589.2705,2208.7976,593.8133,2204.2549,590.4424,2209.53,598.7594" style="stroke:#181818;stroke-width:1;stroke-linejoin:miter;stroke-miterlimit:10;"/><text fill="#000000" font-family="sans-serif" font-size="13" lengthAdjust="spacing" textLength="140.188" x="2213" y="543.6045">loads controlled-list data</text></g><!--link EvacSvc to NgRx--><g class="link" data-entity-1="ent0011" data-entity-2="ent0009" data-link-type="dependency" data-source-line="58" id="lnk40"><path d="M2047.73,479.4294 C2043.53,497.9794 2040.24,526.7394 2053,547.1094 C2068.93,572.5294 2091.1129,587.9399 2118.3429,599.7499" fill="none" id="EvacSvc-to-NgRx" style="stroke:#181818;stroke-width:1;"/><polygon fill="#181818" points="2122.93,601.7394,2116.2647,594.4886,2118.3429,599.7499,2113.0815,601.828,2122.93,601.7394" style="stroke:#181818;stroke-width:1;stroke-linejoin:miter;stroke-miterlimit:10;"/><text fill="#000000" font-family="sans-serif" font-size="13" lengthAdjust="spacing" textLength="145.2344" x="2054" y="543.6045">reads/writes shared state</text></g><!--link IncidentSvc to NgRx--><g class="link" data-entity-1="ent0012" data-entity-2="ent0009" data-link-type="dependency" data-source-line="59" id="lnk41"><path d="M1830.05,479.1994 C1841.99,498.9594 1863.76,530.0594 1891,547.1094 C1961.28,591.0894 2049.3983,609.8116 2117.7483,618.3216" fill="none" id="IncidentSvc-to-NgRx" style="stroke:#181818;stroke-width:1;"/><polygon fill="#181818" points="2122.71,618.9394,2114.2732,613.8581,2117.7483,618.3216,2113.2847,621.7968,2122.71,618.9394" style="stroke:#181818;stroke-width:1;stroke-linejoin:miter;stroke-miterlimit:10;"/><text fill="#000000" font-family="sans-serif" font-size="13" lengthAdjust="spacing" textLength="145.2344" x="1892" y="543.6045">reads/writes shared state</text></g><!--link NotifSvc to NgRx--><g class="link" data-entity-1="ent0016" data-entity-2="ent0009" data-link-type="dependency" data-source-line="60" id="lnk42"><path d="M2420.21,487.9594 C2404.01,506.0294 2381.12,529.6594 2358,547.1094 C2331.55,567.0694 2303.8672,582.9238 2276.7572,596.7038" fill="none" id="NotifSvc-to-NgRx" style="stroke:#181818;stroke-width:1;"/><polygon fill="#181818" points="2272.3,598.9694,2282.1355,598.4571,2276.7572,596.7038,2278.5105,591.3255,2272.3,598.9694" style="stroke:#181818;stroke-width:1;stroke-linejoin:miter;stroke-miterlimit:10;"/><text fill="#000000" font-family="sans-serif" font-size="13" lengthAdjust="spacing" textLength="114.9116" x="2379" y="543.6045">queues notifications</text></g><!--link Router to RedirectGuard--><g class="link" data-entity-1="ent0006" data-entity-2="ent0017" data-link-type="dependency" data-source-line="61" id="lnk43"><path d="M1313.35,329.4994 C1226.5,347.8094 1093.17,379.4594 982,421.1094 C967.22,426.6494 955.9561,431.8927 942.6861,438.7927" fill="none" id="Router-to-RedirectGuard" style="stroke:#181818;stroke-width:1;"/><polygon fill="#181818" points="938.25,441.0994,948.0804,440.4963,942.6861,438.7927,944.3897,433.3985,938.25,441.0994" style="stroke:#181818;stroke-width:1;stroke-linejoin:miter;stroke-miterlimit:10;"/><text fill="#000000" font-family="sans-serif" font-size="13" lengthAdjust="spacing" textLength="119.228" x="1131" y="387.6045">external URL routing</text></g><!--link Controllers to DomainSvc--><g class="link" data-entity-1="ent0020" data-entity-2="ent0021" data-link-type="dependency" data-source-line="62" id="lnk44"><path d="M402,798.8094 C402,820.6994 402,852.2094 402,874.0294" fill="none" id="Controllers-to-DomainSvc" style="stroke:#181818;stroke-width:1;"/><polygon fill="#181818" points="402,879.0294,406,870.0294,402,874.0294,398,870.0294,402,879.0294" style="stroke:#181818;stroke-width:1;stroke-linejoin:miter;stroke-miterlimit:10;"/><text fill="#000000" font-family="sans-serif" font-size="13" lengthAdjust="spacing" textLength="81.6563" x="403" y="845.6045">business logic</text></g><!--link DomainSvc to EF--><g class="link" data-entity-1="ent0021" data-entity-2="ent0024" data-link-type="dependency" data-source-line="63" id="lnk45"><path d="M402,917.1694 C402,943.1794 402,985.9194 402,1011.9794" fill="none" id="DomainSvc-to-EF" style="stroke:#181818;stroke-width:1;"/><polygon fill="#181818" points="402,1016.9794,406,1007.9794,402,1011.9794,398,1007.9794,402,1016.9794" style="stroke:#181818;stroke-width:1;stroke-linejoin:miter;stroke-miterlimit:10;"/><text fill="#000000" font-family="sans-serif" font-size="13" lengthAdjust="spacing" textLength="69.3735" x="403" y="961.6045">data access</text></g><!--link EF to DBEntities--><g class="link" data-entity-1="ent0024" data-entity-2="ent0026" data-link-type="dependency" data-source-line="64" id="lnk46"><path d="M402,1055.3494 C402,1093.7094 402,1177.3594 402,1215.5594" fill="none" id="EF-to-DBEntities" style="stroke:#181818;stroke-width:1;"/><polygon fill="#181818" points="402,1220.5594,406,1211.5594,402,1215.5594,398,1211.5594,402,1220.5594" style="stroke:#181818;stroke-width:1;stroke-linejoin:miter;stroke-miterlimit:10;"/><text fill="#000000" font-family="sans-serif" font-size="13" lengthAdjust="spacing" textLength="83.8081" x="403" y="1125.6045">ORM mapping</text></g><!--link DBA to SQLScripts--><g class="link" data-entity-1="ent0003" data-entity-2="ent0027" data-link-type="dependency" data-source-line="65" id="lnk47"><path d="M186,1075.4794 C186,1115.4494 186,1171.9994 186,1206.9494" fill="none" id="DBA-to-SQLScripts" style="stroke:#181818;stroke-width:1;"/><polygon fill="#181818" points="186,1211.9494,190,1202.9494,186,1206.9494,182,1202.9494,186,1211.9494" style="stroke:#181818;stroke-width:1;stroke-linejoin:miter;stroke-miterlimit:10;"/><text fill="#000000" font-family="sans-serif" font-size="13" lengthAdjust="spacing" textLength="93.2026" x="187" y="1125.6045">executes scripts</text></g><!--link SQLScripts to MSSQL--><g class="link" data-entity-1="ent0027" data-entity-2="ent0025" data-link-type="dependency" data-source-line="66" id="lnk48"><path d="M186,1267.2094 C186,1297.7694 186,1339.0994 186,1341.9694" fill="none" id="SQLScripts-to-MSSQL" style="stroke:#181818;stroke-width:1;"/><polygon fill="#181818" points="186,1346.9694,190,1337.9694,186,1341.9694,182,1337.9694,186,1346.9694" style="stroke:#181818;stroke-width:1;stroke-linejoin:miter;stroke-miterlimit:10;"/><text fill="#000000" font-family="sans-serif" font-size="13" lengthAdjust="spacing" textLength="103.3525" x="187" y="1313.6045">data maintenance</text></g><!--link SiteMinder to Auth--><g class="link" data-entity-1="ent0028" data-entity-2="ent0007" data-link-type="dependency" data-source-line="67" id="lnk49"><path d="M2568.91,335.0294 C2555.61,338.0794 2541.99,340.8994 2529,343.1094 C2162.85,405.3194 2061.79,351.3594 1697,421.1094 C1681.3,424.1094 1669.5777,426.8616 1653.7677,431.2516" fill="none" id="SiteMinder-to-Auth" style="stroke:#181818;stroke-width:1;"/><polygon fill="#181818" points="1648.95,432.5894,1658.6921,434.0356,1653.7677,431.2516,1656.5517,426.3273,1648.95,432.5894" style="stroke:#181818;stroke-width:1;stroke-linejoin:miter;stroke-miterlimit:10;"/><text fill="#000000" font-family="sans-serif" font-size="13" lengthAdjust="spacing" textLength="126.4771" x="2273" y="387.6045">authentication context</text></g><!--link Dev to DevBypass--><g class="link" data-entity-1="ent0002" data-entity-2="ent0022" data-link-type="dependency" data-source-line="68" id="lnk50"><path d="M376,499.2594 C376,529.8194 376,566.9194 376,593.9494" fill="none" id="Dev-to-DevBypass" style="stroke:#181818;stroke-width:1;"/><polygon fill="#181818" points="376,598.9494,380,589.9494,376,593.9494,372,589.9494,376,598.9494" style="stroke:#181818;stroke-width:1;stroke-linejoin:miter;stroke-miterlimit:10;"/><text fill="#000000" font-family="sans-serif" font-size="13" lengthAdjust="spacing" textLength="164.7471" x="377" y="543.6045">role-paired tokens (dev only)</text></g><!--link DevBypass to Controllers--><g class="link" data-entity-1="ent0022" data-entity-2="ent0020" data-link-type="dependency" data-source-line="69" id="lnk51"><path d="M380.59,654.2594 C385.84,684.7394 393.4412,728.902 398.0012,755.372" fill="none" id="DevBypass-to-Controllers" style="stroke:#181818;stroke-width:1;"/><polygon fill="#181818" points="398.85,760.2994,401.264,750.7509,398.0012,755.372,393.3801,752.1091,398.85,760.2994" style="stroke:#181818;stroke-width:1;stroke-linejoin:miter;stroke-miterlimit:10;"/><text fill="#000000" font-family="sans-serif" font-size="13" lengthAdjust="spacing" textLength="65.0317" x="393" y="724.6045">dev access</text></g><!--link SQLScripts to GMN55--><g class="link" data-entity-1="ent0027" data-entity-2="ent0056" data-link-type="association" data-source-line="77" id="lnk57"><path d="M203.34,1211.9194 C223.51,1182.6394 259.83,1138.2394 304.5,1120.1094 C344.45,1103.8994 457.37,1107.1894 498.5,1120.1094 C554.42,1137.6694 608.04,1180.6294 640,1209.9594" fill="none" id="SQLScripts-GMN55" style="stroke:#181818;stroke-width:1;stroke-dasharray:7,7;"/></g><?plantuml-src XLR9RkCu4BthAme-318WJcQ0EJKQ0RobEu2pj9r6BdEXAKOcB9CAIJdn3FhV-nKfsOfYO2w9nNgrLpqow50gcjsD9pHRBcdav5e79KFj54srA9pOPfdVQ5C9_2HfjvKroeHbs4FF0IbCKQeEv716_sL4Oo4tXREroIUsjExhrrBibRk-fhakrk6R4ti6MPShrmECIwXclx9Co60T3SRElddbw2V-_6FE5hPKmvNmAZyVaF3nk8LErKwLjb8kIl1r48nfb6-rqJuuWPCa7u-ox1Zru5cjg74sY3bqP2DJrALmD2arYZ2ggeIWOs5eS8oC5hOECTgvCBas1VsHZkXRBLpkK-G9rBSogiEQhcYflDVMq7SOA9CfMsXpGVW7lOiMC9ozLzgrnM3bli7lJq-FT6lWIgeAkSFKimXodTk2dlHMkGlw-y-_MaV9JWVUDtTVBDvf2O62eLIEeTUvmfb0WbSq4NAjaXd6zlKdrWHdorBbmpdQWNn47lD3KU5N1orA_Qy8o2qPcSmJf6zejXEoLl2ht4vBHSzEL6thMRRSoRxAhP68504_2RyvgTWYJYW_k4AO9hAJkW2SK5ke5-MSA4-gjCAJUaMQrXFkK2rjP7b9ZzCRcd0nvR5UK3nXxju6_QBb1tCmywDMjS9q9d7R_lXrCgPSyrAaCMwyfQDuqiVVsRmk4vyOwuEMy3YrzGfxKgAdDCB0XUGIK8R1mY_U_SxgNTxFdf0aU0aBEdgyZT6tAzfT78WEm-LycftZzqVmr6w5FXGYWTDPIhiBJQIovG_sCTvNmdlEHErePdRqOChzUSiuIVgHFAOY21f9-F4qPvOxGHup4tJOqmsOLBrPjy4YJLSSldeFQQHlsjhaCCSqW_ekQVbZJjFc81LooKUzsZoY09Wc_js2ANhKRUxZzZFhTRooNcFRzz7JKZfTXPWyvtI7Ui6eCB9PU60Q20SgIrldD5ZYOhdJfjdoH6zDDPh-DCe7N9OngzDmUDsG97qX8tQw0CFueopQ-a8b4oDibf4PiqQZ0t2HUWkUK08toOtFeeGX7QO3qZUiArDSMLVAwCuy0HsPrQdNMldWwMod1Jqw-xudX8DHECyQ6kexoZeiyqcMMEJJSOSfJiXEghJ46GMHjhbM8lTjUip19NCmJzI7O1kqKq1VlJaqnfDV2zmpv9dcFsNmlmejfNJHhqm-dao7cdotVH-u1NYiWd86LFfpCOzDnSsQTLl2IeSjXiAgzjhmdF68oEmeOk3i1WZEd4GSnWm7qS1X5I1_MDpH5fpBdl1UY83ZaCUObAnZjitSTwGCJklOEDeUzoKxJdjtL0N-eQmjKSj401bJJOoj9PWurQ3HIl3bJy5kbC48vi1PfgFiYFmyjungSivGV3pd-4r6zgMzi9Sw4fVURckG1Nx57bv08k95uo_GwRoMREuiDhCIWNjpdYcJSqDLttA76GYDVQqHDzCEhV3QgojQgHUc-5HEkBW438lkAGXNg31yqIMFnKuupH6n5JnO21UayIae1Edg-82zx4UniY7OBOVHPMX-eW8uv89T4De2kto5ONjpvNLXa7CUYwNCJZjh-0hmiRuT3xy1?></g></svg>