<svg xmlns="http://www.w3.org/2000/svg" xmlns:xlink="http://www.w3.org/1999/xlink" contentStyleType="text/css" data-diagram-type="DESCRIPTION" height="880px" preserveAspectRatio="none" style="width:1787px;height:880px;background:#FFFFFF;" version="1.1" viewBox="0 0 1787 880" width="1787px" zoomAndPan="magnify"><?plantuml 1.2026.6?><defs/><g><g class="title" data-source-line="7"><text fill="#000000" font-family="sans-serif" font-size="14" font-weight="700" lengthAdjust="spacing" textLength="329.8545" x="725.0728" y="24.5332">AWS IoT Device Simulator - Architecture Diagram</text></g><!--cluster Presentation Layer--><g class="cluster" data-qualified-name="Presentation Layer" data-source-line="13" id="ent0004"><rect fill="#B0C4DE" height="108" rx="2.5" ry="2.5" style="stroke:#483D8B;stroke-width:1;" width="483" x="7" y="186.1094"/><text fill="#000000" font-family="sans-serif" font-size="14" font-style="italic" lengthAdjust="spacing" textLength="45.917" x="225.5415" y="202.6426">&#171;layer&#187;</text><text fill="#000000" font-family="sans-serif" font-size="14" font-weight="700" lengthAdjust="spacing" textLength="126.0479" x="185.4761" y="220.252">Presentation Layer</text></g><!--cluster API Layer--><g class="cluster" data-qualified-name="API Layer" data-source-line="18" id="ent0007"><rect fill="#B0C4DE" height="145" rx="2.5" ry="2.5" style="stroke:#483D8B;stroke-width:1;" width="597" x="1053" y="362.1094"/><text fill="#000000" font-family="sans-serif" font-size="14" font-style="italic" lengthAdjust="spacing" textLength="45.917" x="1328.5415" y="378.6426">&#171;layer&#187;</text><text fill="#000000" font-family="sans-serif" font-size="14" font-weight="700" lengthAdjust="spacing" textLength="64.5859" x="1319.207" y="396.252">API Layer</text></g><!--cluster Application / Service Layer--><g class="cluster" data-qualified-name="Application . Service Layer" data-source-line="28" id="ent0012"><rect fill="#B0C4DE" height="125" rx="2.5" ry="2.5" style="stroke:#483D8B;stroke-width:1;" width="1024" x="176" y="557.1094"/><text fill="#000000" font-family="sans-serif" font-size="14" font-style="italic" lengthAdjust="spacing" textLength="45.917" x="665.0415" y="573.6426">&#171;layer&#187;</text><text fill="#000000" font-family="sans-serif" font-size="14" font-weight="700" lengthAdjust="spacing" textLength="178.958" x="598.521" y="591.252">Application / Service Layer</text></g><!--cluster Orchestration Layer--><g class="cluster" data-qualified-name="Orchestration Layer" data-source-line="36" id="ent0018"><rect fill="#B0C4DE" height="125" rx="2.5" ry="2.5" style="stroke:#483D8B;stroke-width:1;" width="188" x="308" y="372.1094"/><text fill="#000000" font-family="sans-serif" font-size="14" font-style="italic" lengthAdjust="spacing" textLength="45.917" x="379.0415" y="388.6426">&#171;layer&#187;</text><text fill="#000000" font-family="sans-serif" font-size="14" font-weight="700" lengthAdjust="spacing" textLength="133.0479" x="335.4761" y="406.252">Orchestration Layer</text></g><!--cluster Data & Storage Layer--><g class="cluster" data-qualified-name="Data . Storage Layer" data-source-line="40" id="ent0020"><rect fill="#B0C4DE" height="134" rx="2.5" ry="2.5" style="stroke:#483D8B;stroke-width:1;" width="693" x="91" y="732.1094"/><text fill="#000000" font-family="sans-serif" font-size="14" font-style="italic" lengthAdjust="spacing" textLength="45.917" x="414.5415" y="748.6426">&#171;layer&#187;</text><text fill="#000000" font-family="sans-serif" font-size="14" font-weight="700" lengthAdjust="spacing" textLength="141.6064" x="366.6968" y="766.252">Data &amp; Storage Layer</text></g><!--cluster Messaging & IoT Layer--><g class="cluster" data-qualified-name="Messaging . IoT Layer" data-source-line="46" id="ent0024"><rect fill="#B0C4DE" height="125" rx="2.5" ry="2.5" style="stroke:#483D8B;stroke-width:1;" width="363" x="1082" y="736.6094"/><text fill="#000000" font-family="sans-serif" font-size="14" font-style="italic" lengthAdjust="spacing" textLength="45.917" x="1240.5415" y="753.1426">&#171;layer&#187;</text><text fill="#000000" font-family="sans-serif" font-size="14" font-weight="700" lengthAdjust="spacing" textLength="152.4824" x="1187.2588" y="770.752">Messaging &amp; IoT Layer</text></g><!--cluster Identity & Security Layer--><g class="cluster" data-qualified-name="Identity . Security Layer" data-source-line="51" id="ent0027"><rect fill="#B0C4DE" height="125" rx="2.5" ry="2.5" style="stroke:#483D8B;stroke-width:1;" width="180" x="1593" y="557.1094"/><text fill="#000000" font-family="sans-serif" font-size="14" font-style="italic" lengthAdjust="spacing" textLength="45.917" x="1660.0415" y="573.6426">&#171;layer&#187;</text><text fill="#000000" font-family="sans-serif" font-size="14" font-weight="700" lengthAdjust="spacing" textLength="164.165" x="1600.9175" y="591.252">Identity &amp; Security Layer</text></g><!--cluster Deployment Layer--><g class="cluster" data-qualified-name="Deployment Layer" data-source-line="55" id="ent0029"><rect fill="#B0C4DE" height="125" rx="2.5" ry="2.5" style="stroke:#483D8B;stroke-width:1;" width="188" x="548" y="372.1094"/><text fill="#000000" font-family="sans-serif" font-size="14" font-style="italic" lengthAdjust="spacing" textLength="45.917" x="619.0415" y="388.6426">&#171;layer&#187;</text><text fill="#000000" font-family="sans-serif" font-size="14" font-weight="700" lengthAdjust="spacing" textLength="121.3721" x="581.314" y="406.252">Deployment Layer</text></g><!--entity WebConsole--><g class="entity" data-qualified-name="Presentation Layer.WebConsole" data-source-line="14" id="ent0005"><rect fill="#F1F1F1" height="37.6094" rx="2.5" ry="2.5" style="stroke:#181818;stroke-width:0.5;" width="189.6475" x="284" y="240.1094"/><text fill="#000000" font-family="sans-serif" font-size="14" lengthAdjust="spacing" textLength="169.6475" x="294" y="264.6426">Web Management Console</text></g><!--entity CDN--><g class="entity" data-qualified-name="Presentation Layer.CDN" data-source-line="15" id="ent0006"><rect fill="#F1F1F1" height="37.6094" rx="2.5" ry="2.5" style="stroke:#181818;stroke-width:0.5;" width="224.6543" x="23.5" y="240.1094"/><text fill="#000000" font-family="sans-serif" font-size="14" lengthAdjust="spacing" textLength="204.6543" x="33.5" y="264.6426">Amazon CloudFront / S3 Hosting</text></g><!--entity APIGW--><g class="entity" data-qualified-name="API Layer.APIGW" data-source-line="19" id="ent0008"><rect fill="#F1F1F1" height="55.2188" rx="2.5" ry="2.5" style="stroke:#181818;stroke-width:0.5;" width="230.0957" x="1069" y="426.1094"/><text fill="#000000" font-family="sans-serif" font-size="14" lengthAdjust="spacing" textLength="136.9512" x="1079" y="450.6426">Amazon API Gateway</text><text fill="#000000" font-family="sans-serif" font-size="14" lengthAdjust="spacing" textLength="210.0957" x="1079" y="468.252">(Regional REST API, stage: prod)</text></g><g class="entity" data-qualified-name="API Layer.GMN9" data-source-line="21" id="ent0010"><path d="M1334,416.1094 L1334,449.6094 L1299.14,453.6094 L1334,457.6094 L1334,491.5156 A0,0 0 0 0 1334,491.5156 L1633.8145,491.5156 A0,0 0 0 0 1633.8145,491.5156 L1633.8145,426.1094 L1623.8145,416.1094 L1334,416.1094 A0,0 0 0 0 1334,416.1094" fill="#FEFFDD" style="stroke:#181818;stroke-width:0.5;"/><path d="M1623.8145,416.1094 L1623.8145,426.1094 L1633.8145,426.1094 L1623.8145,416.1094" fill="#FEFFDD" style="stroke:#181818;stroke-width:0.5;"/><text fill="#000000" font-family="sans-serif" font-size="13" lengthAdjust="spacing" textLength="278.8145" x="1340" y="434.6045">- CORS: GET, POST, PUT, DELETE, OPTIONS</text><text fill="#000000" font-family="sans-serif" font-size="13" lengthAdjust="spacing" textLength="215.6934" x="1340" y="450.9561">- Request Validation (params + body)</text><text fill="#000000" font-family="sans-serif" font-size="13" lengthAdjust="spacing" textLength="215.2871" x="1340" y="467.3076">- Access Logging (JSON, INFO level)</text><text fill="#000000" font-family="sans-serif" font-size="13" lengthAdjust="spacing" textLength="140.8989" x="1340" y="483.6592">- X-Ray Tracing enabled</text></g><!--entity SimMgmtLambda--><g class="entity" data-qualified-name="Application . Service Layer.SimMgmtLambda" data-source-line="29" id="ent0013"><rect fill="#F1F1F1" height="55.2188" rx="2.5" ry="2.5" style="stroke:#181818;stroke-width:0.5;" width="170.9717" x="568.5" y="611.1094"/><text fill="#000000" font-family="sans-serif" font-size="14" lengthAdjust="spacing" textLength="150.9717" x="578.5" y="635.6426">Simulation Management</text><text fill="#000000" font-family="sans-serif" font-size="14" lengthAdjust="spacing" textLength="101.165" x="578.5" y="653.252">Lambda Service</text></g><!--entity DevTypeLambda--><g class="entity" data-qualified-name="Application . Service Layer.DevTypeLambda" data-source-line="30" id="ent0014"><rect fill="#F1F1F1" height="55.2188" rx="2.5" ry="2.5" style="stroke:#181818;stroke-width:0.5;" width="183.4131" x="1000.5" y="611.1094"/><text fill="#000000" font-family="sans-serif" font-size="14" lengthAdjust="spacing" textLength="163.4131" x="1010.5" y="635.6426">Device Type Management</text><text fill="#000000" font-family="sans-serif" font-size="14" lengthAdjust="spacing" textLength="101.165" x="1010.5" y="653.252">Lambda Service</text></g><!--entity SimExecLambda--><g class="entity" data-qualified-name="Application . Service Layer.SimExecLambda" data-source-line="31" id="ent0015"><rect fill="#F1F1F1" height="55.2188" rx="2.5" ry="2.5" style="stroke:#181818;stroke-width:0.5;" width="191.2266" x="774.5" y="611.1094"/><text fill="#000000" font-family="sans-serif" font-size="14" lengthAdjust="spacing" textLength="105.8135" x="784.5" y="635.6426">Device Simulator</text><text fill="#000000" font-family="sans-serif" font-size="14" lengthAdjust="spacing" textLength="171.2266" x="784.5" y="653.252">Lambda / Execution Engine</text></g><!--entity RouteLoaderLambda--><g class="entity" data-qualified-name="Application . Service Layer.RouteLoaderLambda" data-source-line="32" id="ent0016"><rect fill="#F1F1F1" height="55.2188" rx="2.5" ry="2.5" style="stroke:#181818;stroke-width:0.5;" width="121.165" x="192.5" y="611.1094"/><text fill="#000000" font-family="sans-serif" font-size="14" lengthAdjust="spacing" textLength="84.8408" x="202.5" y="635.6426">Route Loader</text><text fill="#000000" font-family="sans-serif" font-size="14" lengthAdjust="spacing" textLength="101.165" x="202.5" y="653.252">Lambda Service</text></g><!--entity CustomResourceLambda--><g class="entity" data-qualified-name="Application . Service Layer.CustomResourceLambda" data-source-line="33" id="ent0017"><rect fill="#F1F1F1" height="55.2188" rx="2.5" ry="2.5" style="stroke:#181818;stroke-width:0.5;" width="184.958" x="348.5" y="611.1094"/><text fill="#000000" font-family="sans-serif" font-size="14" lengthAdjust="spacing" textLength="164.958" x="358.5" y="635.6426">Custom Resource Handler</text><text fill="#000000" font-family="sans-serif" font-size="14" lengthAdjust="spacing" textLength="50.5928" x="358.5" y="653.252">Lambda</text></g><!--entity StepFunctions--><g class="entity" data-qualified-name="Orchestration Layer.StepFunctions" data-source-line="37" id="ent0019"><rect fill="#F1F1F1" height="55.2188" rx="2.5" ry="2.5" style="stroke:#181818;stroke-width:0.5;" width="156.1377" x="324" y="426.1094"/><text fill="#000000" font-family="sans-serif" font-size="14" lengthAdjust="spacing" textLength="129.165" x="334" y="450.6426">AWS Step Functions</text><text fill="#000000" font-family="sans-serif" font-size="14" lengthAdjust="spacing" textLength="136.1377" x="334" y="468.252">(Simulation Workflow)</text></g><!--entity DynamoDB--><g class="entity" data-qualified-name="Data . Storage Layer.DynamoDB" data-source-line="41" id="ent0021"><path d="M564,796.1094 C564,786.1094 665.8066,786.1094 665.8066,786.1094 C665.8066,786.1094 767.6133,786.1094 767.6133,796.1094 L767.6133,840.3281 C767.6133,850.3281 665.8066,850.3281 665.8066,850.3281 C665.8066,850.3281 564,850.3281 564,840.3281 L564,796.1094" fill="#F1F1F1" style="stroke:#181818;stroke-width:0.5;"/><path d="M564,796.1094 C564,806.1094 665.8066,806.1094 665.8066,806.1094 C665.8066,806.1094 767.6133,806.1094 767.6133,796.1094" fill="none" style="stroke:#181818;stroke-width:0.5;"/><text fill="#000000" font-family="sans-serif" font-size="14" lengthAdjust="spacing" textLength="126.8271" x="574" y="824.6426">Amazon DynamoDB</text><text fill="#000000" font-family="sans-serif" font-size="14" lengthAdjust="spacing" textLength="183.6133" x="574" y="842.252">(Simulations &amp; Device Types)</text></g><!--entity S3Routes--><g class="entity" data-qualified-name="Data . Storage Layer.S3Routes" data-source-line="42" id="ent0022"><rect fill="#F1F1F1" height="55.2188" rx="35" ry="35" style="stroke:#181818;stroke-width:0.5;" width="221.4961" x="307.5" y="790.6094"/><text fill="#000000" font-family="sans-serif" font-size="14" lengthAdjust="spacing" textLength="72.3721" x="317.5" y="815.1426">Amazon S3</text><text fill="#000000" font-family="sans-serif" font-size="14" lengthAdjust="spacing" textLength="201.4961" x="317.5" y="832.752">(Route Data: ROUTE_BUCKET)</text></g><!--entity S3Console--><g class="entity" data-qualified-name="Data . Storage Layer.S3Console" data-source-line="43" id="ent0023"><rect fill="#F1F1F1" height="55.2188" rx="35" ry="35" style="stroke:#181818;stroke-width:0.5;" width="164.7236" x="107.5" y="790.6094"/><text fill="#000000" font-family="sans-serif" font-size="14" lengthAdjust="spacing" textLength="72.3721" x="117.5" y="815.1426">Amazon S3</text><text fill="#000000" font-family="sans-serif" font-size="14" lengthAdjust="spacing" textLength="144.7236" x="117.5" y="832.752">(Web Console Hosting)</text></g><!--entity IoTCore--><g class="entity" data-qualified-name="Messaging . IoT Layer.IoTCore" data-source-line="47" id="ent0025"><rect fill="#F1F1F1" height="55.2188" rx="2.5" ry="2.5" style="stroke:#181818;stroke-width:0.5;" width="110.2412" x="1098" y="790.6094"/><text fill="#000000" font-family="sans-serif" font-size="14" lengthAdjust="spacing" textLength="90.2412" x="1108" y="815.1426">AWS IoT Core</text><text fill="#000000" font-family="sans-serif" font-size="14" lengthAdjust="spacing" textLength="74.6758" x="1108" y="832.752">(IoT Topics)</text></g><!--entity CloudWatchLogs--><g class="entity" data-qualified-name="Messaging . IoT Layer.CloudWatchLogs" data-source-line="48" id="ent0026"><rect fill="#F1F1F1" height="55.2188" rx="2.5" ry="2.5" style="stroke:#181818;stroke-width:0.5;" width="185.751" x="1243" y="790.6094"/><text fill="#000000" font-family="sans-serif" font-size="14" lengthAdjust="spacing" textLength="165.751" x="1253" y="815.1426">Amazon CloudWatch Logs</text><text fill="#000000" font-family="sans-serif" font-size="14" lengthAdjust="spacing" textLength="115.1514" x="1253" y="832.752">(API Access Logs)</text></g><!--entity Cognito--><g class="entity" data-qualified-name="Identity . Security Layer.Cognito" data-source-line="52" id="ent0028"><rect fill="#F1F1F1" height="55.2188" rx="2.5" ry="2.5" style="stroke:#181818;stroke-width:0.5;" width="123.5029" x="1610" y="611.1094"/><text fill="#000000" font-family="sans-serif" font-size="14" lengthAdjust="spacing" textLength="103.5029" x="1620" y="635.6426">Amazon Cognito</text><text fill="#000000" font-family="sans-serif" font-size="14" lengthAdjust="spacing" textLength="100.3789" x="1620" y="653.252">(Identity &amp; Auth)</text></g><!--entity CloudFormation--><g class="entity" data-qualified-name="Deployment Layer.CloudFormation" data-source-line="56" id="ent0030"><rect fill="#F1F1F1" height="55.2188" rx="2.5" ry="2.5" style="stroke:#181818;stroke-width:0.5;" width="155.3789" x="564.5" y="426.1094"/><text fill="#000000" font-family="sans-serif" font-size="14" lengthAdjust="spacing" textLength="135.3789" x="574.5" y="450.6426">AWS CloudFormation</text><text fill="#000000" font-family="sans-serif" font-size="14" lengthAdjust="spacing" textLength="122.9307" x="574.5" y="468.252">(Stack Deployment)</text></g><!--entity Admin--><g class="entity" data-qualified-name="Admin" data-source-line="9" id="ent0001"><ellipse cx="136.1929" cy="52.6094" fill="#F1F1F1" rx="8" ry="8" style="stroke:#181818;stroke-width:0.5;"/><path d="M136.1929,60.6094 L136.1929,87.6094 M123.1929,68.6094 L149.1929,68.6094 M136.1929,87.6094 L123.1929,102.6094 M136.1929,87.6094 L149.1929,102.6094" fill="none" style="stroke:#181818;stroke-width:0.5;"/><text fill="#000000" font-family="sans-serif" font-size="14" lengthAdjust="spacing" textLength="149.3857" x="61.5" y="118.6426">Administrator / Operator</text></g><!--entity APIClient--><g class="entity" data-qualified-name="APIClient" data-source-line="10" id="ent0002"><ellipse cx="1184.124" cy="228.6094" fill="#F1F1F1" rx="8" ry="8" style="stroke:#181818;stroke-width:0.5;"/><path d="M1184.124,236.6094 L1184.124,263.6094 M1171.124,244.6094 L1197.124,244.6094 M1184.124,263.6094 L1171.124,278.6094 M1184.124,263.6094 L1197.124,278.6094" fill="none" style="stroke:#181818;stroke-width:0.5;"/><text fill="#000000" font-family="sans-serif" font-size="14" lengthAdjust="spacing" textLength="62.248" x="1153" y="294.6426">API Client</text></g><!--entity DeployWorkflow--><g class="entity" data-qualified-name="DeployWorkflow" data-source-line="11" id="ent0003"><ellipse cx="641.9653" cy="228.6094" fill="#F1F1F1" rx="8" ry="8" style="stroke:#181818;stroke-width:0.5;"/><path d="M641.9653,236.6094 L641.9653,263.6094 M628.9653,244.6094 L654.9653,244.6094 M641.9653,263.6094 L628.9653,278.6094 M641.9653,263.6094 L654.9653,278.6094" fill="none" style="stroke:#181818;stroke-width:0.5;"/><text fill="#000000" font-family="sans-serif" font-size="14" lengthAdjust="spacing" textLength="171.9307" x="556" y="294.6426">AWS Deployment Workflow</text></g><!--link Admin to CDN--><g class="link" data-entity-1="ent0001" data-entity-2="ent0006" data-link-type="dependency" data-source-line="60" id="lnk31"><path d="M136,122.2994 C136,158.7094 136,206.9894 136,234.7494" fill="none" id="Admin-to-CDN" style="stroke:#181818;stroke-width:1;"/><polygon fill="#181818" points="136,239.7494,140,230.7494,136,234.7494,132,230.7494,136,239.7494" style="stroke:#181818;stroke-width:1;stroke-linejoin:miter;stroke-miterlimit:10;"/><text fill="#000000" font-family="sans-serif" font-size="13" lengthAdjust="spacing" textLength="42.6118" x="137" y="166.6045">HTTPS</text></g><!--link APIClient to APIGW--><g class="link" data-entity-1="ent0002" data-entity-2="ent0008" data-link-type="dependency" data-source-line="61" id="lnk32"><path d="M1184,298.1394 C1184,335.9394 1184,387.9394 1184,421.0894" fill="none" id="APIClient-to-APIGW" style="stroke:#181818;stroke-width:1;"/><polygon fill="#181818" points="1184,426.0894,1188,417.0894,1184,421.0894,1180,417.0894,1184,426.0894" style="stroke:#181818;stroke-width:1;stroke-linejoin:miter;stroke-miterlimit:10;"/><text fill="#000000" font-family="sans-serif" font-size="13" lengthAdjust="spacing" textLength="114.1182" x="1185" y="342.6045">REST API (HTTPS)</text></g><!--link DeployWorkflow to CloudFormation--><g class="link" data-entity-1="ent0003" data-entity-2="ent0030" data-link-type="dependency" data-source-line="62" id="lnk33"><path d="M642,298.1394 C642,335.9394 642,387.9394 642,421.0894" fill="none" id="DeployWorkflow-to-CloudFormation" style="stroke:#181818;stroke-width:1;"/><polygon fill="#181818" points="642,426.0894,646,417.0894,642,421.0894,638,417.0894,642,426.0894" style="stroke:#181818;stroke-width:1;stroke-linejoin:miter;stroke-miterlimit:10;"/><text fill="#000000" font-family="sans-serif" font-size="13" lengthAdjust="spacing" textLength="103.3335" x="643" y="342.6045">Stack deployment</text></g><!--link CDN to S3Console--><g class="link" data-entity-1="ent0006" data-entity-2="ent0023" data-link-type="dependency" data-source-line="65" id="lnk34"><path d="M132.57,278.2694 C124.62,323.0794 106.51,442.4394 119,541.1094 C130.83,634.6194 162.776,737.0503 179.166,785.7803" fill="none" id="CDN-to-S3Console" style="stroke:#181818;stroke-width:1;"/><polygon fill="#181818" points="180.76,790.5194,181.6821,780.7138,179.166,785.7803,174.0996,783.2641,180.76,790.5194" style="stroke:#181818;stroke-width:1;stroke-linejoin:miter;stroke-miterlimit:10;"/><text fill="#000000" font-family="sans-serif" font-size="13" lengthAdjust="spacing" textLength="106.9263" x="120" y="537.6045">serve static assets</text></g><!--link WebConsole to APIGW--><g class="link" data-entity-1="ent0005" data-entity-2="ent0008" data-link-type="dependency" data-source-line="66" id="lnk35"><path d="M404.94,278.2694 C436.24,299.0494 491.26,332.0194 544,346.1094 C585.26,357.1294 693.65,348.6194 736,354.1094 C858.21,369.9694 991.5399,401.3949 1081.7099,424.7649" fill="none" id="WebConsole-to-APIGW" style="stroke:#181818;stroke-width:1;"/><polygon fill="#181818" points="1086.55,426.0194,1078.8414,419.8893,1081.7099,424.7649,1076.8343,427.6335,1086.55,426.0194" style="stroke:#181818;stroke-width:1;stroke-linejoin:miter;stroke-miterlimit:10;"/><text fill="#000000" font-family="sans-serif" font-size="13" lengthAdjust="spacing" textLength="88.8545" x="545" y="342.6045">REST API calls</text></g><!--link APIGW to SimMgmtLambda--><g class="link" data-entity-1="ent0008" data-entity-2="ent0013" data-link-type="dependency" data-source-line="69" id="lnk36"><path d="M1139.48,481.2694 C1102.49,501.8694 1047.74,528.8694 996,541.1094 C944.29,553.3494 806.51,529.8094 757,549.1094 C724.27,561.8694 698.0928,586.0311 679.1328,607.1211" fill="none" id="APIGW-to-SimMgmtLambda" style="stroke:#181818;stroke-width:1;"/><polygon fill="#181818" points="675.79,610.8394,684.7816,606.8206,679.1328,607.1211,678.8324,601.4722,675.79,610.8394" style="stroke:#181818;stroke-width:1;stroke-linejoin:miter;stroke-miterlimit:10;"/><text fill="#000000" font-family="sans-serif" font-size="13" lengthAdjust="spacing" textLength="37.5781" x="1050" y="537.6045">invoke</text></g><!--link APIGW to DevTypeLambda--><g class="link" data-entity-1="ent0008" data-entity-2="ent0014" data-link-type="dependency" data-source-line="70" id="lnk37"><path d="M1189.49,481.3194 C1191.88,498.9394 1192.64,522.1694 1185,541.1094 C1173.68,569.1594 1153.7185,590.4054 1133.0285,607.6754" fill="none" id="APIGW-to-DevTypeLambda" style="stroke:#181818;stroke-width:1;"/><polygon fill="#181818" points="1129.19,610.8794,1138.6626,608.1829,1133.0285,607.6754,1133.5361,602.0413,1129.19,610.8794" style="stroke:#181818;stroke-width:1;stroke-linejoin:miter;stroke-miterlimit:10;"/><text fill="#000000" font-family="sans-serif" font-size="13" lengthAdjust="spacing" textLength="37.5781" x="1190" y="537.6045">invoke</text></g><!--link APIGW to SimExecLambda--><g class="link" data-entity-1="ent0008" data-entity-2="ent0015" data-link-type="dependency" data-source-line="71" id="lnk38"><path d="M1168.17,481.2494 C1154.5,501.5594 1132.75,528.1494 1106,541.1094 C1081.35,553.0494 1008.59,539.3394 983,549.1094 C948.31,562.3494 919.2765,586.6449 898.0965,607.5749" fill="none" id="APIGW-to-SimExecLambda" style="stroke:#181818;stroke-width:1;"/><polygon fill="#181818" points="894.54,611.0894,903.7532,607.6085,898.0965,607.5749,898.13,601.9181,894.54,611.0894" style="stroke:#181818;stroke-width:1;stroke-linejoin:miter;stroke-miterlimit:10;"/><text fill="#000000" font-family="sans-serif" font-size="13" lengthAdjust="spacing" textLength="37.5781" x="1133" y="537.6045">invoke</text></g><!--link APIGW to Cognito--><g class="link" data-entity-1="ent0008" data-entity-2="ent0028" data-link-type="dependency" data-source-line="72" id="lnk39"><path d="M1230.75,481.1894 C1255.55,493.8994 1287.03,507.8994 1317,515.1094 C1393.13,533.4294 1415.74,510.3794 1493,523.1094 C1534.08,529.8794 1547.12,527.9894 1583,549.1094 C1610.04,565.0194 1631.6093,587.2064 1648.1193,606.9164" fill="none" id="APIGW-to-Cognito" style="stroke:#181818;stroke-width:1;"/><polygon fill="#181818" points="1651.33,610.7494,1648.6172,601.2815,1648.1193,606.9164,1642.4844,606.4186,1651.33,610.7494" style="stroke:#181818;stroke-width:1;stroke-linejoin:miter;stroke-miterlimit:10;"/><text fill="#000000" font-family="sans-serif" font-size="13" lengthAdjust="spacing" textLength="103.3525" x="1568" y="537.6045">auth/authorization</text></g><!--link SimMgmtLambda to StepFunctions--><g class="link" data-entity-1="ent0013" data-entity-2="ent0019" data-link-type="dependency" data-source-line="75" id="lnk40"><path d="M632.15,610.9894 C613.16,589.9994 583.62,562.1594 551,549.1094 C534.89,542.6594 406.95,553.6894 395,541.1094 C380.16,525.4894 382.5055,505.075 388.8655,485.905" fill="none" id="SimMgmtLambda-to-StepFunctions" style="stroke:#181818;stroke-width:1;"/><polygon fill="#181818" points="390.44,481.1594,383.8095,488.442,388.8655,485.905,391.4025,490.9611,390.44,481.1594" style="stroke:#181818;stroke-width:1;stroke-linejoin:miter;stroke-miterlimit:10;"/><text fill="#000000" font-family="sans-serif" font-size="13" lengthAdjust="spacing" textLength="198.688" x="396" y="537.6045">start/manage simulation workflows</text></g><!--link StepFunctions to SimExecLambda--><g class="link" data-entity-1="ent0019" data-entity-2="ent0015" data-link-type="dependency" data-source-line="78" id="lnk41"><path d="M453.23,481.1994 C480.58,493.9994 515.27,508.0694 548,515.1094 C576.15,521.1594 782.44,508.0794 807,523.1094 C838.54,542.4194 854.0348,578.7668 862.1648,606.1068" fill="none" id="StepFunctions-to-SimExecLambda" style="stroke:#181818;stroke-width:1;"/><polygon fill="#181818" points="863.59,610.8994,864.8588,601.1326,862.1648,606.1068,857.1906,603.4128,863.59,610.8994" style="stroke:#181818;stroke-width:1;stroke-linejoin:miter;stroke-miterlimit:10;"/><text fill="#000000" font-family="sans-serif" font-size="13" lengthAdjust="spacing" textLength="161.8525" x="826" y="537.6045">orchestrate simulation steps</text></g><!--link StepFunctions to RouteLoaderLambda--><g class="link" data-entity-1="ent0019" data-entity-2="ent0016" data-link-type="dependency" data-source-line="79" id="lnk42"><path d="M323.93,468.6994 C293,478.5194 260.47,495.1094 242,523.1094 C224.85,549.1094 231.0187,581.2234 239.7587,606.0334" fill="none" id="StepFunctions-to-RouteLoaderLambda" style="stroke:#181818;stroke-width:1;"/><polygon fill="#181818" points="241.42,610.7494,242.2024,600.9316,239.7587,606.0334,234.6569,603.5897,241.42,610.7494" style="stroke:#181818;stroke-width:1;stroke-linejoin:miter;stroke-miterlimit:10;"/><text fill="#000000" font-family="sans-serif" font-size="13" lengthAdjust="spacing" textLength="115.6289" x="243" y="537.6045">trigger route loading</text></g><!--link SimMgmtLambda to DynamoDB--><g class="link" data-entity-1="ent0013" data-entity-2="ent0021" data-link-type="dependency" data-source-line="82" id="lnk43"><path d="M652.34,666.3894 C651.8,676.3494 651.27,687.7394 651,698.1094 C650.8,706.1094 650.41,708.1294 651,716.1094 C652.74,739.6194 655.8723,761.0418 659.2923,780.9218" fill="none" id="SimMgmtLambda-to-DynamoDB" style="stroke:#181818;stroke-width:1;"/><polygon fill="#181818" points="660.14,785.8494,662.5562,776.3015,659.2923,780.9218,654.672,777.6578,660.14,785.8494" style="stroke:#181818;stroke-width:1;stroke-linejoin:miter;stroke-miterlimit:10;"/><text fill="#000000" font-family="sans-serif" font-size="13" lengthAdjust="spacing" textLength="166.1753" x="652" y="712.6045">read/write simulation records</text></g><!--link DevTypeLambda to DynamoDB--><g class="link" data-entity-1="ent0014" data-entity-2="ent0021" data-link-type="dependency" data-source-line="83" id="lnk44"><path d="M1175.52,666.2694 C1203.43,679.3794 1223.31,696.5794 1205,716.1094 C1195.64,726.0994 1095.56,722.1694 1082,724.1094 C973.77,739.6294 856.7444,766.9817 773.0244,788.3717" fill="none" id="DevTypeLambda-to-DynamoDB" style="stroke:#181818;stroke-width:1;"/><polygon fill="#181818" points="768.18,789.6094,777.8901,791.257,773.0244,788.3717,775.9097,783.506,768.18,789.6094" style="stroke:#181818;stroke-width:1;stroke-linejoin:miter;stroke-miterlimit:10;"/><text fill="#000000" font-family="sans-serif" font-size="13" lengthAdjust="spacing" textLength="173.4116" x="1213" y="712.6045">read/write device type records</text></g><!--link SimExecLambda to DynamoDB--><g class="link" data-entity-1="ent0015" data-entity-2="ent0021" data-link-type="dependency" data-source-line="84" id="lnk45"><path d="M857.36,666.4394 C849.08,682.1294 837.18,701.6294 823,716.1094 C795.45,744.2394 763.0264,765.9477 732.0064,783.5877" fill="none" id="SimExecLambda-to-DynamoDB" style="stroke:#181818;stroke-width:1;"/><polygon fill="#181818" points="727.66,786.0594,737.4608,785.0875,732.0064,783.5877,733.5062,778.1333,727.66,786.0594" style="stroke:#181818;stroke-width:1;stroke-linejoin:miter;stroke-miterlimit:10;"/><text fill="#000000" font-family="sans-serif" font-size="13" lengthAdjust="spacing" textLength="119.9517" x="838" y="712.6045">read simulation state</text></g><!--link RouteLoaderLambda to S3Routes--><g class="link" data-entity-1="ent0016" data-entity-2="ent0022" data-link-type="dependency" data-source-line="87" id="lnk46"><path d="M203.29,666.2594 C182.15,680.9294 165.54,699.4794 181,716.1094 C189.27,725.0094 278.6,719.9394 290,724.1094 C328.95,738.3594 362.7913,764.7949 387.0213,786.8349" fill="none" id="RouteLoaderLambda-to-S3Routes" style="stroke:#181818;stroke-width:1;"/><polygon fill="#181818" points="390.72,790.1994,386.7538,781.1844,387.0213,786.8349,381.3707,787.1024,390.72,790.1994" style="stroke:#181818;stroke-width:1;stroke-linejoin:miter;stroke-miterlimit:10;"/><text fill="#000000" font-family="sans-serif" font-size="13" lengthAdjust="spacing" textLength="240.5635" x="182" y="712.6045">GetObject (ROUTE_BUCKET / route key)</text></g><!--link SimExecLambda to IoTCore--><g class="link" data-entity-1="ent0015" data-entity-2="ent0025" data-link-type="dependency" data-source-line="90" id="lnk47"><path d="M914.08,666.2194 C930.43,676.1594 949.1,687.5894 966,698.1094 C1016.3,729.4394 1069.5529,763.4374 1107.3429,787.7074" fill="none" id="SimExecLambda-to-IoTCore" style="stroke:#181818;stroke-width:1;"/><polygon fill="#181818" points="1111.55,790.4094,1106.1388,782.1802,1107.3429,787.7074,1101.8157,788.9116,1111.55,790.4094" style="stroke:#181818;stroke-width:1;stroke-linejoin:miter;stroke-miterlimit:10;"/><text fill="#000000" font-family="sans-serif" font-size="13" lengthAdjust="spacing" textLength="204.4961" x="992" y="712.6045">publish simulated device messages</text></g><!--link APIGW to CloudWatchLogs--><g class="link" data-entity-1="ent0008" data-entity-2="ent0026" data-link-type="dependency" data-source-line="93" id="lnk48"><path d="M1219.44,481.3094 C1269.79,521.7094 1359.81,603.7694 1395,698.1094 C1407.25,730.9494 1387.4495,762.9926 1366.6695,786.6526" fill="none" id="APIGW-to-CloudWatchLogs" style="stroke:#181818;stroke-width:1;"/><polygon fill="#181818" points="1363.37,790.4094,1372.3145,786.2868,1366.6695,786.6526,1366.3037,781.0076,1363.37,790.4094" style="stroke:#181818;stroke-width:1;stroke-linejoin:miter;stroke-miterlimit:10;"/><text fill="#000000" font-family="sans-serif" font-size="13" lengthAdjust="spacing" textLength="106.2026" x="1392" y="644.1045">JSON access logs</text></g><!--link CloudFormation to CustomResourceLambda--><g class="link" data-entity-1="ent0030" data-entity-2="ent0017" data-link-type="dependency" data-source-line="96" id="lnk49"><path d="M637.09,481.1394 C632,500.8194 622.02,526.6594 603,541.1094 C584.38,555.2594 572.4,539.6794 551,549.1094 C518.03,563.6394 490.2164,587.1549 469.4764,607.5349" fill="none" id="CloudFormation-to-CustomResourceLambda" style="stroke:#181818;stroke-width:1;"/><polygon fill="#181818" points="465.91,611.0394,475.133,607.5845,469.4764,607.5349,469.5259,601.8783,465.91,611.0394" style="stroke:#181818;stroke-width:1;stroke-linejoin:miter;stroke-miterlimit:10;"/><text fill="#000000" font-family="sans-serif" font-size="13" lengthAdjust="spacing" textLength="179.9751" x="619" y="537.6045">invoke on deploy/update/delete</text></g><!--link CustomResourceLambda to S3Routes--><g class="link" data-entity-1="ent0017" data-entity-2="ent0022" data-link-type="dependency" data-source-line="97" id="lnk50"><path d="M437.56,666.1794 C433.22,699.6494 426.4516,751.8507 422.1116,785.3907" fill="none" id="CustomResourceLambda-to-S3Routes" style="stroke:#181818;stroke-width:1;"/><polygon fill="#181818" points="421.47,790.3494,426.5919,781.9371,422.1116,785.3907,418.658,780.9105,421.47,790.3494" style="stroke:#181818;stroke-width:1;stroke-linejoin:miter;stroke-miterlimit:10;"/><text fill="#000000" font-family="sans-serif" font-size="13" lengthAdjust="spacing" textLength="182.0889" x="433" y="712.6045">initialize route bucket resources</text></g><?plantuml-src XLPRJ-j647xthnZnS0egA0-yeQCZXIH0sa2Ys9HAFKVLnfvZtAozxkuQ6gh-zyxi-XfC-nB5dc_kCz_OxBEY55ha4AkyL0KMDhG7YQ0njg989GQcXRJluEy0u5h4-rIhgaXcIYhz-RCK1zHVli0gIv_92gAybXKoKka4zH5gBlG-bCAY0_qJ13QpP7dw5C9IHJ37bon62BEy8f3IS05J7JzdbcAeDC8y4od550GYPkd9DCcp8ZDME_04rYMwloSW33XXYzmiOIOpojJBDal_rCefWZcMKXroUWjFIk-_I_NgmFvzyoe8kegSR3GQmWkRgG9MdEG9TDbomNvxmXtSYqAaw2pFL66Kn6zic4Jr8mEdkNWZApEfgkH6Ay9E8Bo4EsLiLgHEOJP_uABr0k2ynltMvXXmImL_5OUlnUaMKufKIDWkmeXbvs0iXNO5fLR9sRUwDhTFPA5GbYQ2smhgU_iMg2UpzJQyWjj5T0wRTSY_Z_GpNwmMqU8SrfjekNu8Q-mM_wpGMFX5o2pnTJfrWsNWHzYfv71M0wTnZCR0IgKffGkdFuNhXtDOFjoiGU8BoWRtwyLM723I8cOO5c8dCI4P5eaB-RX0PIcps3kcUg9s4pPUidhk6Dfrx6kn4lak4Oskgn4XxzFSUWchrfCR7KhyFrs2CkoTRZlrhTO45dzXNBc05WMLfNNExpi3MrLHgrPAqCADkdG0B--qPfMnAgS66LLfydydYaHs1lp0EKm3gNM71LxJWg9RmOztWBUBkA64cwg86MTe5dlLRdRB3o0ZM-2Hjxcm0ZuHH6cgyRWx6ZEn4uQRxtTWVYX4hkRN0wU6pFIwPixyhjTGCcDg7usLy98No9MQexY2xVenMln-_JZxUH5vxV3IoSr7sim5zSOtUzqeDaGmJFUULaAuVVZa2FBZyh9qfZII5_uRgJABZQydFRFac6EUX8sVUT-u6KmJtGRMYXsCtns5janem3Dxu6xGa6h--vzCD5DfaLd50NQgqye-rywy-BZV7IT_dBkdJALprrZkigKprUFpNZejZ1tz08y6DMI5fRjHpvix6t1nyONP5gxWBeesOT0U32TnP4YoXaNXrA7EWk6fy5O6Nad91vUqmN4OWplYyWlOE-kteq6g5EmBCcFRBAQC35eJT4TaFBHOI6dO1pzO1Nr2z9wyYlFLfpKoaXKlQeyzm82xnW03RXe3r6qcaQ3MJ_X7wUpDjuIZx8L7i06x1CFudBy-Lt25hD1saZi61jCnp6lT4bU98HMncvPdWw71iPHK6zB0Wo55CwB-Zdl9XAMpcjBWQSScaeIquYFPExRpJNgVUaDLP4-ZI2Qlj8A3Y6YDw1lC1CEcVQoQU3QqVCCQtM7o8xh34b1DE8tk875UxolWvzfp9TcvHRlU_K5B3wTzJgNxvmkqH_fA8BDCR9jg9pFpp7RVnrOp7PaiFQo93fCckzmnAhevgByr-jCvO3oomryX83mnIYP1KZiwdC7HXZix8tUptGOWa5__ILNIiS99WXAfSgDQHxMYxrsRqRVK6zR5sLNn7YtrmckPu5y0?></g></svg>