<svg xmlns="http://www.w3.org/2000/svg" xmlns:xlink="http://www.w3.org/1999/xlink" contentStyleType="text/css" data-diagram-type="DESCRIPTION" height="992px" preserveAspectRatio="none" style="width:1849px;height:992px;background:#FFFFFF;" version="1.1" viewBox="0 0 1849 992" width="1849px" zoomAndPan="magnify"><?plantuml 1.2026.6?><defs/><g><g class="title" data-source-line="1"><text fill="#000000" font-family="sans-serif" font-size="14" font-weight="700" lengthAdjust="spacing" textLength="438.7373" x="701.7422" y="24.5332">MTProto Server Architecture - Component &amp; Deployment Diagram</text></g><!--cluster Deployment Context--><g class="cluster" data-qualified-name="Deployment Context" data-source-line="4" id="ent0001"><polygon fill="none" points="16,89.5994,26,79.5994,522,79.5994,522,311.0994,512,321.0994,16,321.0994,16,89.5994" style="stroke:#181818;stroke-width:1;stroke-linejoin:miter;stroke-miterlimit:10;"/><line style="stroke:#181818;stroke-width:1;" x1="512" x2="522" y1="89.5994" y2="79.5994"/><line style="stroke:#181818;stroke-width:1;" x1="16" x2="512" y1="89.5994" y2="89.5994"/><line style="stroke:#181818;stroke-width:1;" x1="512" x2="512" y1="89.5994" y2="321.0994"/><text fill="#000000" font-family="sans-serif" font-size="14" font-weight="700" lengthAdjust="spacing" textLength="136.124" x="196.938" y="107.1326">Deployment Context</text></g><!--cluster Client Access Layer--><g class="cluster" data-qualified-name="Client Access Layer" data-source-line="26" id="ent0014"><path d="M1595.5,221.0994 L1729.5684,221.0994 A3.75,3.75 0 0 1 1732.0684,223.5994 L1739.0684,244.7088 L1762.5,244.7088 A2.5,2.5 0 0 1 1765,247.2088 L1765,318.5994 A2.5,2.5 0 0 1 1762.5,321.0994 L1595.5,321.0994 A2.5,2.5 0 0 1 1593,318.5994 L1593,223.5994 A2.5,2.5 0 0 1 1595.5,221.0994" fill="none" style="stroke:#000000;stroke-width:1.5;"/><line style="stroke:#000000;stroke-width:1.5;" x1="1593" x2="1739.0684" y1="244.7088" y2="244.7088"/><text fill="#000000" font-family="sans-serif" font-size="14" font-weight="700" lengthAdjust="spacing" textLength="133.0684" x="1597" y="237.6326">Client Access Layer</text></g><!--cluster Service Layer--><g class="cluster" data-qualified-name="Service Layer" data-source-line="30" id="ent0016"><path d="M668.5,221.0994 L760.5684,221.0994 A3.75,3.75 0 0 1 763.0684,223.5994 L770.0684,244.7088 L1518.5,244.7088 A2.5,2.5 0 0 1 1521,247.2088 L1521,714.5994 A2.5,2.5 0 0 1 1518.5,717.0994 L668.5,717.0994 A2.5,2.5 0 0 1 666,714.5994 L666,223.5994 A2.5,2.5 0 0 1 668.5,221.0994" fill="none" style="stroke:#000000;stroke-width:1.5;"/><line style="stroke:#000000;stroke-width:1.5;" x1="666" x2="770.0684" y1="244.7088" y2="244.7088"/><text fill="#000000" font-family="sans-serif" font-size="14" font-weight="700" lengthAdjust="spacing" textLength="91.0684" x="670" y="237.6326">Service Layer</text></g><!--cluster Storage Layer--><g class="cluster" data-qualified-name="Storage Layer" data-source-line="41" id="ent0025"><path d="M549.5,767.0994 L643.8721,767.0994 A3.75,3.75 0 0 1 646.3721,769.5994 L653.3721,790.7088 L945.5,790.7088 A2.5,2.5 0 0 1 948,793.2088 L948,864.5994 A2.5,2.5 0 0 1 945.5,867.0994 L549.5,867.0994 A2.5,2.5 0 0 1 547,864.5994 L547,769.5994 A2.5,2.5 0 0 1 549.5,767.0994" fill="none" style="stroke:#000000;stroke-width:1.5;"/><line style="stroke:#000000;stroke-width:1.5;" x1="547" x2="653.3721" y1="790.7088" y2="790.7088"/><text fill="#000000" font-family="sans-serif" font-size="14" font-weight="700" lengthAdjust="spacing" textLength="93.3721" x="551" y="783.6326">Storage Layer</text></g><!--cluster Infrastructure Layer--><g class="cluster" data-qualified-name="Infrastructure Layer" data-source-line="46" id="ent0028"><path d="M1281.5,767.0994 L1414.7686,767.0994 A3.75,3.75 0 0 1 1417.2686,769.5994 L1424.2686,790.7088 L1490.5,790.7088 A2.5,2.5 0 0 1 1493,793.2088 L1493,864.5994 A2.5,2.5 0 0 1 1490.5,867.0994 L1281.5,867.0994 A2.5,2.5 0 0 1 1279,864.5994 L1279,769.5994 A2.5,2.5 0 0 1 1281.5,767.0994" fill="none" style="stroke:#000000;stroke-width:1.5;"/><line style="stroke:#000000;stroke-width:1.5;" x1="1279" x2="1424.2686" y1="790.7088" y2="790.7088"/><text fill="#000000" font-family="sans-serif" font-size="14" font-weight="700" lengthAdjust="spacing" textLength="132.2686" x="1283" y="783.6326">Infrastructure Layer</text></g><!--entity mtproto--><g class="entity" data-qualified-name="Deployment Context.mtproto" data-source-line="5" id="ent0002"><rect fill="#ADD8E6" height="47.6094" rx="2.5" ry="2.5" style="stroke:#181818;stroke-width:0.5;" width="138.7998" x="366.5" y="120.5994"/><rect fill="#ADD8E6" height="10" style="stroke:#181818;stroke-width:0.5;" width="15" x="485.2998" y="125.5994"/><rect fill="#ADD8E6" height="2" style="stroke:#181818;stroke-width:0.5;" width="4" x="483.2998" y="127.5994"/><rect fill="#ADD8E6" height="2" style="stroke:#181818;stroke-width:0.5;" width="4" x="483.2998" y="131.5994"/><text fill="#000000" font-family="sans-serif" font-size="14" lengthAdjust="spacing" textLength="98.7998" x="381.5" y="155.1326">MTProto Server</text></g><!--entity mysql_db--><g class="entity" data-qualified-name="Deployment Context.mysql_db" data-source-line="6" id="ent0003"><rect fill="#D3D3D3" height="47.6094" rx="2.5" ry="2.5" style="stroke:#181818;stroke-width:0.5;" width="86.6758" x="244.5" y="120.5994"/><rect fill="#D3D3D3" height="10" style="stroke:#181818;stroke-width:0.5;" width="15" x="311.1758" y="125.5994"/><rect fill="#D3D3D3" height="2" style="stroke:#181818;stroke-width:0.5;" width="4" x="309.1758" y="127.5994"/><rect fill="#D3D3D3" height="2" style="stroke:#181818;stroke-width:0.5;" width="4" x="309.1758" y="131.5994"/><text fill="#000000" font-family="sans-serif" font-size="14" lengthAdjust="spacing" textLength="46.6758" x="259.5" y="155.1326">MySQL</text></g><!--entity redis_db--><g class="entity" data-qualified-name="Deployment Context.redis_db" data-source-line="7" id="ent0004"><rect fill="#D3D3D3" height="47.6094" rx="2.5" ry="2.5" style="stroke:#181818;stroke-width:0.5;" width="75.793" x="32" y="120.5994"/><rect fill="#D3D3D3" height="10" style="stroke:#181818;stroke-width:0.5;" width="15" x="87.793" y="125.5994"/><rect fill="#D3D3D3" height="2" style="stroke:#181818;stroke-width:0.5;" width="4" x="85.793" y="127.5994"/><rect fill="#D3D3D3" height="2" style="stroke:#181818;stroke-width:0.5;" width="4" x="85.793" y="131.5994"/><text fill="#000000" font-family="sans-serif" font-size="14" lengthAdjust="spacing" textLength="35.793" x="47" y="155.1326">Redis</text></g><!--entity etcd_db--><g class="entity" data-qualified-name="Deployment Context.etcd_db" data-source-line="8" id="ent0005"><rect fill="#D3D3D3" height="47.6094" rx="2.5" ry="2.5" style="stroke:#181818;stroke-width:0.5;" width="66.4619" x="143" y="120.5994"/><rect fill="#D3D3D3" height="10" style="stroke:#181818;stroke-width:0.5;" width="15" x="189.4619" y="125.5994"/><rect fill="#D3D3D3" height="2" style="stroke:#181818;stroke-width:0.5;" width="4" x="187.4619" y="127.5994"/><rect fill="#D3D3D3" height="2" style="stroke:#181818;stroke-width:0.5;" width="4" x="187.4619" y="131.5994"/><text fill="#000000" font-family="sans-serif" font-size="14" lengthAdjust="spacing" textLength="26.4619" x="158" y="155.1326">etcd</text></g><!--entity kafka_mq--><g class="entity" data-qualified-name="Deployment Context.kafka_mq" data-source-line="9" id="ent0006"><rect fill="#D3D3D3" height="47.6094" rx="2.5" ry="2.5" style="stroke:#181818;stroke-width:0.5;" width="75.7998" x="32" y="257.0994"/><rect fill="#D3D3D3" height="10" style="stroke:#181818;stroke-width:0.5;" width="15" x="87.7998" y="262.0994"/><rect fill="#D3D3D3" height="2" style="stroke:#181818;stroke-width:0.5;" width="4" x="85.7998" y="264.0994"/><rect fill="#D3D3D3" height="2" style="stroke:#181818;stroke-width:0.5;" width="4" x="85.7998" y="268.0994"/><text fill="#000000" font-family="sans-serif" font-size="14" lengthAdjust="spacing" textLength="35.7998" x="47" y="291.6326">Kafka</text></g><!--entity minio_store--><g class="entity" data-qualified-name="Deployment Context.minio_store" data-source-line="10" id="ent0007"><rect fill="#D3D3D3" height="47.6094" rx="2.5" ry="2.5" style="stroke:#181818;stroke-width:0.5;" width="77.3379" x="143.5" y="257.0994"/><rect fill="#D3D3D3" height="10" style="stroke:#181818;stroke-width:0.5;" width="15" x="200.8379" y="262.0994"/><rect fill="#D3D3D3" height="2" style="stroke:#181818;stroke-width:0.5;" width="4" x="198.8379" y="264.0994"/><rect fill="#D3D3D3" height="2" style="stroke:#181818;stroke-width:0.5;" width="4" x="198.8379" y="268.0994"/><text fill="#000000" font-family="sans-serif" font-size="14" lengthAdjust="spacing" textLength="37.3379" x="158.5" y="291.6326">MinIO</text></g><!--entity mtproto_comp--><g class="entity" data-qualified-name="Client Access Layer.mtproto_comp" data-source-line="27" id="ent0015"><rect fill="#F1F1F1" height="47.6094" rx="2.5" ry="2.5" style="stroke:#181818;stroke-width:0.5;" width="138.7998" x="1609.5" y="257.0994"/><rect fill="#F1F1F1" height="10" style="stroke:#181818;stroke-width:0.5;" width="15" x="1728.2998" y="262.0994"/><rect fill="#F1F1F1" height="2" style="stroke:#181818;stroke-width:0.5;" width="4" x="1726.2998" y="264.0994"/><rect fill="#F1F1F1" height="2" style="stroke:#181818;stroke-width:0.5;" width="4" x="1726.2998" y="268.0994"/><text fill="#000000" font-family="sans-serif" font-size="14" lengthAdjust="spacing" textLength="98.7998" x="1624.5" y="291.6326">MTProto Server</text></g><!--entity auth_svc--><g class="entity" data-qualified-name="Service Layer.auth_svc" data-source-line="31" id="ent0017"><rect fill="#F1F1F1" height="47.6094" rx="2.5" ry="2.5" style="stroke:#181818;stroke-width:0.5;" width="172.2891" x="1333" y="401.0994"/><rect fill="#F1F1F1" height="10" style="stroke:#181818;stroke-width:0.5;" width="15" x="1485.2891" y="406.0994"/><rect fill="#F1F1F1" height="2" style="stroke:#181818;stroke-width:0.5;" width="4" x="1483.2891" y="408.0994"/><rect fill="#F1F1F1" height="2" style="stroke:#181818;stroke-width:0.5;" width="4" x="1483.2891" y="412.0994"/><text fill="#000000" font-family="sans-serif" font-size="14" lengthAdjust="spacing" textLength="132.2891" x="1348" y="435.6326">Authorization Service</text></g><!--entity session_svc--><g class="entity" data-qualified-name="Service Layer.session_svc" data-source-line="32" id="ent0018"><rect fill="#F1F1F1" height="47.6094" rx="2.5" ry="2.5" style="stroke:#181818;stroke-width:0.5;" width="140.3789" x="848" y="527.0994"/><rect fill="#F1F1F1" height="10" style="stroke:#181818;stroke-width:0.5;" width="15" x="968.3789" y="532.0994"/><rect fill="#F1F1F1" height="2" style="stroke:#181818;stroke-width:0.5;" width="4" x="966.3789" y="534.0994"/><rect fill="#F1F1F1" height="2" style="stroke:#181818;stroke-width:0.5;" width="4" x="966.3789" y="538.0994"/><text fill="#000000" font-family="sans-serif" font-size="14" lengthAdjust="spacing" textLength="100.3789" x="863" y="561.6326">Session Service</text></g><!--entity salt_svc--><g class="entity" data-qualified-name="Service Layer.salt_svc" data-source-line="33" id="ent0019"><rect fill="#F1F1F1" height="47.6094" rx="2.5" ry="2.5" style="stroke:#181818;stroke-width:0.5;" width="114.6963" x="998.5" y="653.0994"/><rect fill="#F1F1F1" height="10" style="stroke:#181818;stroke-width:0.5;" width="15" x="1093.1963" y="658.0994"/><rect fill="#F1F1F1" height="2" style="stroke:#181818;stroke-width:0.5;" width="4" x="1091.1963" y="660.0994"/><rect fill="#F1F1F1" height="2" style="stroke:#181818;stroke-width:0.5;" width="4" x="1091.1963" y="664.0994"/><text fill="#000000" font-family="sans-serif" font-size="14" lengthAdjust="spacing" textLength="74.6963" x="1013.5" y="687.6326">Salt Service</text></g><!--entity register_svc--><g class="entity" data-qualified-name="Service Layer.register_svc" data-source-line="34" id="ent0020"><rect fill="#F1F1F1" height="47.6094" rx="2.5" ry="2.5" style="stroke:#181818;stroke-width:0.5;" width="165.2754" x="682.5" y="401.0994"/><rect fill="#F1F1F1" height="10" style="stroke:#181818;stroke-width:0.5;" width="15" x="827.7754" y="406.0994"/><rect fill="#F1F1F1" height="2" style="stroke:#181818;stroke-width:0.5;" width="4" x="825.7754" y="408.0994"/><rect fill="#F1F1F1" height="2" style="stroke:#181818;stroke-width:0.5;" width="4" x="825.7754" y="412.0994"/><text fill="#000000" font-family="sans-serif" font-size="14" lengthAdjust="spacing" textLength="125.2754" x="697.5" y="435.6326">Registration Service</text></g><!--entity svcmsg_svc--><g class="entity" data-qualified-name="Service Layer.svcmsg_svc" data-source-line="35" id="ent0021"><rect fill="#F1F1F1" height="47.6094" rx="2.5" ry="2.5" style="stroke:#181818;stroke-width:0.5;" width="200.2959" x="1098" y="401.0994"/><rect fill="#F1F1F1" height="10" style="stroke:#181818;stroke-width:0.5;" width="15" x="1278.2959" y="406.0994"/><rect fill="#F1F1F1" height="2" style="stroke:#181818;stroke-width:0.5;" width="4" x="1276.2959" y="408.0994"/><rect fill="#F1F1F1" height="2" style="stroke:#181818;stroke-width:0.5;" width="4" x="1276.2959" y="412.0994"/><text fill="#000000" font-family="sans-serif" font-size="14" lengthAdjust="spacing" textLength="160.2959" x="1113" y="435.6326">Service Message Handler</text></g><!--entity media_svc--><g class="entity" data-qualified-name="Service Layer.media_svc" data-source-line="36" id="ent0022"><rect fill="#F1F1F1" height="47.6094" rx="2.5" ry="2.5" style="stroke:#181818;stroke-width:0.5;" width="201.8477" x="915" y="257.0994"/><rect fill="#F1F1F1" height="10" style="stroke:#181818;stroke-width:0.5;" width="15" x="1096.8477" y="262.0994"/><rect fill="#F1F1F1" height="2" style="stroke:#181818;stroke-width:0.5;" width="4" x="1094.8477" y="264.0994"/><rect fill="#F1F1F1" height="2" style="stroke:#181818;stroke-width:0.5;" width="4" x="1094.8477" y="268.0994"/><text fill="#000000" font-family="sans-serif" font-size="14" lengthAdjust="spacing" textLength="161.8477" x="930" y="291.6326">Media Processing Service</text></g><!--entity futuresalt_svc--><g class="entity" data-qualified-name="Service Layer.futuresalt_svc" data-source-line="37" id="ent0023"><rect fill="#F1F1F1" height="47.6094" rx="2.5" ry="2.5" style="stroke:#181818;stroke-width:0.5;" width="159.0479" x="1023.5" y="527.0994"/><rect fill="#F1F1F1" height="10" style="stroke:#181818;stroke-width:0.5;" width="15" x="1162.5479" y="532.0994"/><rect fill="#F1F1F1" height="2" style="stroke:#181818;stroke-width:0.5;" width="4" x="1160.5479" y="534.0994"/><rect fill="#F1F1F1" height="2" style="stroke:#181818;stroke-width:0.5;" width="4" x="1160.5479" y="538.0994"/><text fill="#000000" font-family="sans-serif" font-size="14" lengthAdjust="spacing" textLength="119.0479" x="1038.5" y="561.6326">Future Salt Service</text></g><!--entity verifycode_svc--><g class="entity" data-qualified-name="Service Layer.verifycode_svc" data-source-line="38" id="ent0024"><rect fill="#F1F1F1" height="47.6094" rx="2.5" ry="2.5" style="stroke:#181818;stroke-width:0.5;" width="197.1855" x="682.5" y="257.0994"/><rect fill="#F1F1F1" height="10" style="stroke:#181818;stroke-width:0.5;" width="15" x="859.6855" y="262.0994"/><rect fill="#F1F1F1" height="2" style="stroke:#181818;stroke-width:0.5;" width="4" x="857.6855" y="264.0994"/><rect fill="#F1F1F1" height="2" style="stroke:#181818;stroke-width:0.5;" width="4" x="857.6855" y="268.0994"/><text fill="#000000" font-family="sans-serif" font-size="14" lengthAdjust="spacing" textLength="157.1855" x="697.5" y="291.6326">Verification Code Service</text></g><!--entity db_adapters--><g class="entity" data-qualified-name="Storage Layer.db_adapters" data-source-line="42" id="ent0026"><rect fill="#F1F1F1" height="47.6094" rx="2.5" ry="2.5" style="stroke:#181818;stroke-width:0.5;" width="159.8545" x="563" y="803.0994"/><rect fill="#F1F1F1" height="10" style="stroke:#181818;stroke-width:0.5;" width="15" x="702.8545" y="808.0994"/><rect fill="#F1F1F1" height="2" style="stroke:#181818;stroke-width:0.5;" width="4" x="700.8545" y="810.0994"/><rect fill="#F1F1F1" height="2" style="stroke:#181818;stroke-width:0.5;" width="4" x="700.8545" y="814.0994"/><text fill="#000000" font-family="sans-serif" font-size="14" lengthAdjust="spacing" textLength="119.8545" x="578" y="837.6326">Database Adapters</text></g><!--entity obj_client--><g class="entity" data-qualified-name="Storage Layer.obj_client" data-source-line="43" id="ent0027"><rect fill="#F1F1F1" height="47.6094" rx="2.5" ry="2.5" style="stroke:#181818;stroke-width:0.5;" width="173.0684" x="758.5" y="803.0994"/><rect fill="#F1F1F1" height="10" style="stroke:#181818;stroke-width:0.5;" width="15" x="911.5684" y="808.0994"/><rect fill="#F1F1F1" height="2" style="stroke:#181818;stroke-width:0.5;" width="4" x="909.5684" y="810.0994"/><rect fill="#F1F1F1" height="2" style="stroke:#181818;stroke-width:0.5;" width="4" x="909.5684" y="814.0994"/><text fill="#000000" font-family="sans-serif" font-size="14" lengthAdjust="spacing" textLength="133.0684" x="773.5" y="837.6326">Object Storage Client</text></g><!--entity mq_client--><g class="entity" data-qualified-name="Infrastructure Layer.mq_client" data-source-line="47" id="ent0029"><rect fill="#F1F1F1" height="47.6094" rx="2.5" ry="2.5" style="stroke:#181818;stroke-width:0.5;" width="182.4131" x="1295" y="803.0994"/><rect fill="#F1F1F1" height="10" style="stroke:#181818;stroke-width:0.5;" width="15" x="1457.4131" y="808.0994"/><rect fill="#F1F1F1" height="2" style="stroke:#181818;stroke-width:0.5;" width="4" x="1455.4131" y="810.0994"/><rect fill="#F1F1F1" height="2" style="stroke:#181818;stroke-width:0.5;" width="4" x="1455.4131" y="814.0994"/><text fill="#000000" font-family="sans-serif" font-size="14" lengthAdjust="spacing" textLength="142.4131" x="1310" y="837.6326">Message Queue Client</text></g><g class="entity" data-qualified-name="GMN8" data-source-line="14" id="ent0009"><path d="M540.5,115.0994 L540.5,140.5994 L505.61,144.5994 L540.5,148.5994 L540.5,174.1541 A0,0 0 0 0 540.5,174.1541 L677.1416,174.1541 A0,0 0 0 0 677.1416,174.1541 L677.1416,125.0994 L667.1416,115.0994 L540.5,115.0994 A0,0 0 0 0 540.5,115.0994" fill="#FEFFDD" style="stroke:#181818;stroke-width:0.5;"/><path d="M667.1416,115.0994 L667.1416,125.0994 L677.1416,125.0994 L667.1416,115.0994" fill="#FEFFDD" style="stroke:#181818;stroke-width:0.5;"/><text fill="#000000" font-family="sans-serif" font-size="13" lengthAdjust="spacing" textLength="115.6416" x="546.5" y="133.5945">Can be deployed in:</text><text fill="#000000" font-family="sans-serif" font-size="13" lengthAdjust="spacing" textLength="109.0972" x="546.5" y="149.9461">- Docker Container</text><text fill="#000000" font-family="sans-serif" font-size="13" lengthAdjust="spacing" textLength="91.0381" x="546.5" y="166.2976">- Manual Binary</text></g><g class="entity" data-qualified-name="GMN11" data-source-line="20" id="ent0012"><path d="M713,115.0994 L713,174.1541 L845.2617,174.1541 L845.2617,125.0994 L835.2617,115.0994 L713,115.0994" fill="#FEFFDD" style="stroke:#181818;stroke-width:0.5;"/><path d="M835.2617,115.0994 L835.2617,125.0994 L845.2617,125.0994 L835.2617,115.0994" fill="#FEFFDD" style="stroke:#181818;stroke-width:1;"/><text fill="#000000" font-family="sans-serif" font-size="13" lengthAdjust="spacing" textLength="45.5317" x="719" y="133.5945">Can be:</text><text fill="#000000" font-family="sans-serif" font-size="13" lengthAdjust="spacing" textLength="111.2617" x="719" y="149.9461">- MySQL Container</text><text fill="#000000" font-family="sans-serif" font-size="13" lengthAdjust="spacing" textLength="102.5845" x="719" y="166.2976">- External MySQL</text></g><!--entity mysql_db_sys--><g class="entity" data-qualified-name="mysql_db_sys" data-source-line="51" id="ent0030"><rect fill="#F1F1F1" height="47.6094" rx="2.5" ry="2.5" style="stroke:#181818;stroke-width:0.5;" width="86.6758" x="462.5" y="931.0994"/><rect fill="#F1F1F1" height="10" style="stroke:#181818;stroke-width:0.5;" width="15" x="529.1758" y="936.0994"/><rect fill="#F1F1F1" height="2" style="stroke:#181818;stroke-width:0.5;" width="4" x="527.1758" y="938.0994"/><rect fill="#F1F1F1" height="2" style="stroke:#181818;stroke-width:0.5;" width="4" x="527.1758" y="942.0994"/><text fill="#000000" font-family="sans-serif" font-size="14" lengthAdjust="spacing" textLength="46.6758" x="477.5" y="965.6326">MySQL</text></g><!--entity redis_db_sys--><g class="entity" data-qualified-name="redis_db_sys" data-source-line="52" id="ent0031"><rect fill="#F1F1F1" height="47.6094" rx="2.5" ry="2.5" style="stroke:#181818;stroke-width:0.5;" width="75.793" x="718" y="931.0994"/><rect fill="#F1F1F1" height="10" style="stroke:#181818;stroke-width:0.5;" width="15" x="773.793" y="936.0994"/><rect fill="#F1F1F1" height="2" style="stroke:#181818;stroke-width:0.5;" width="4" x="771.793" y="938.0994"/><rect fill="#F1F1F1" height="2" style="stroke:#181818;stroke-width:0.5;" width="4" x="771.793" y="942.0994"/><text fill="#000000" font-family="sans-serif" font-size="14" lengthAdjust="spacing" textLength="35.793" x="733" y="965.6326">Redis</text></g><!--entity etcd_db_sys--><g class="entity" data-qualified-name="etcd_db_sys" data-source-line="53" id="ent0032"><rect fill="#F1F1F1" height="47.6094" rx="2.5" ry="2.5" style="stroke:#181818;stroke-width:0.5;" width="66.4619" x="588" y="931.0994"/><rect fill="#F1F1F1" height="10" style="stroke:#181818;stroke-width:0.5;" width="15" x="634.4619" y="936.0994"/><rect fill="#F1F1F1" height="2" style="stroke:#181818;stroke-width:0.5;" width="4" x="632.4619" y="938.0994"/><rect fill="#F1F1F1" height="2" style="stroke:#181818;stroke-width:0.5;" width="4" x="632.4619" y="942.0994"/><text fill="#000000" font-family="sans-serif" font-size="14" lengthAdjust="spacing" textLength="26.4619" x="603" y="965.6326">etcd</text></g><!--entity minio_cloud_sys--><g class="entity" data-qualified-name="minio_cloud_sys" data-source-line="54" id="ent0033"><rect fill="#F1F1F1" height="47.6094" rx="2.5" ry="2.5" style="stroke:#181818;stroke-width:0.5;" width="77.3379" x="829.5" y="931.0994"/><rect fill="#F1F1F1" height="10" style="stroke:#181818;stroke-width:0.5;" width="15" x="886.8379" y="936.0994"/><rect fill="#F1F1F1" height="2" style="stroke:#181818;stroke-width:0.5;" width="4" x="884.8379" y="938.0994"/><rect fill="#F1F1F1" height="2" style="stroke:#181818;stroke-width:0.5;" width="4" x="884.8379" y="942.0994"/><text fill="#000000" font-family="sans-serif" font-size="14" lengthAdjust="spacing" textLength="37.3379" x="844.5" y="965.6326">MinIO</text></g><!--entity kafka_cloud_sys--><g class="entity" data-qualified-name="kafka_cloud_sys" data-source-line="55" id="ent0034"><rect fill="#F1F1F1" height="47.6094" rx="2.5" ry="2.5" style="stroke:#181818;stroke-width:0.5;" width="75.7998" x="1348" y="931.0994"/><rect fill="#F1F1F1" height="10" style="stroke:#181818;stroke-width:0.5;" width="15" x="1403.7998" y="936.0994"/><rect fill="#F1F1F1" height="2" style="stroke:#181818;stroke-width:0.5;" width="4" x="1401.7998" y="938.0994"/><rect fill="#F1F1F1" height="2" style="stroke:#181818;stroke-width:0.5;" width="4" x="1401.7998" y="942.0994"/><text fill="#000000" font-family="sans-serif" font-size="14" lengthAdjust="spacing" textLength="35.7998" x="1363" y="965.6326">Kafka</text></g><g class="entity" data-qualified-name="GMN61" data-source-line="86" id="ent0062"><path d="M880,131.5994 L880,157.9509 A0,0 0 0 0 880,157.9509 L1012,157.9509 L1016,257.0194 L1020,157.9509 L1151.7007,157.9509 A0,0 0 0 0 1151.7007,157.9509 L1151.7007,141.5994 L1141.7007,131.5994 L880,131.5994 A0,0 0 0 0 880,131.5994" fill="#FEFFDD" style="stroke:#181818;stroke-width:0.5;"/><path d="M1141.7007,131.5994 L1141.7007,141.5994 L1151.7007,141.5994 L1141.7007,131.5994" fill="#FEFFDD" style="stroke:#181818;stroke-width:0.5;"/><text fill="#000000" font-family="sans-serif" font-size="13" lengthAdjust="spacing" textLength="250.7007" x="886" y="150.0945">Uses external tools:\n- FFmpeg\n- FFProbe</text></g><!--link mysql_db to GMN11--><g class="link" data-entity-1="ent0003" data-entity-2="ent0012" data-link-type="association" data-source-line="20" id="lnk13"><path d="M300.61,120.2994 C313.66,98.3194 336.35,67.7494 366.5,56.5994 C398.91,44.6094 645.09,44.6094 677.5,56.5994 C708.78,68.1694 736.78,94.2694 755.41,115.0594" fill="none" id="mysql_db-GMN11" style="stroke:#181818;stroke-width:1;stroke-dasharray:7,7;"/></g><!--link mtproto_comp to auth_svc--><g class="link" data-entity-1="ent0015" data-entity-2="ent0017" data-link-type="dependency" data-source-line="58" id="lnk35"><path d="M1636.65,305.2294 C1588.3,331.6394 1514.0684,372.1832 1465.7184,398.5832" fill="none" id="mtproto_comp-to-auth_svc" style="stroke:#181818;stroke-width:1;"/><polygon fill="#181818" points="1461.33,400.9794,1471.1461,400.177,1465.7184,398.5832,1467.3123,393.1555,1461.33,400.9794" style="stroke:#181818;stroke-width:1;stroke-linejoin:miter;stroke-miterlimit:10;"/><text fill="#000000" font-family="sans-serif" font-size="13" lengthAdjust="spacing" textLength="27.46" x="1573" y="359.5945">uses</text></g><!--link auth_svc to session_svc--><g class="link" data-entity-1="ent0017" data-entity-2="ent0018" data-link-type="dependency" data-source-line="59" id="lnk36"><path d="M1332.68,446.7894 C1249.06,466.9294 1118.71,498.5894 1006,527.0994 C1000.18,528.5694 998.9916,528.861 992.9416,530.421" fill="none" id="auth_svc-to-session_svc" style="stroke:#181818;stroke-width:1;"/><polygon fill="#181818" points="988.1,531.6694,997.8137,533.2955,992.9416,530.421,995.8162,525.5489,988.1,531.6694" style="stroke:#181818;stroke-width:1;stroke-linejoin:miter;stroke-miterlimit:10;"/><text fill="#000000" font-family="sans-serif" font-size="13" lengthAdjust="spacing" textLength="153.9116" x="1199" y="493.5945">creates/manages sessions</text></g><!--link session_svc to salt_svc--><g class="link" data-entity-1="ent0018" data-entity-2="ent0019" data-link-type="dependency" data-source-line="60" id="lnk37"><path d="M938.56,575.3894 C951.62,589.7094 969.17,608.1194 986,623.0994 C997.61,633.4394 1007.0644,640.9703 1019.0744,649.8803" fill="none" id="session_svc-to-salt_svc" style="stroke:#181818;stroke-width:1;"/><polygon fill="#181818" points="1023.09,652.8594,1018.2452,644.2845,1019.0744,649.8803,1013.4787,650.7095,1023.09,652.8594" style="stroke:#181818;stroke-width:1;stroke-linejoin:miter;stroke-miterlimit:10;"/><text fill="#000000" font-family="sans-serif" font-size="13" lengthAdjust="spacing" textLength="80.2026" x="987" y="619.5945">requests salts</text></g><!--link register_svc to session_svc--><g class="link" data-entity-1="ent0020" data-entity-2="ent0018" data-link-type="dependency" data-source-line="61" id="lnk38"><path d="M767.09,449.4294 C769.58,464.6694 775.03,484.0894 787,497.0994 C803.11,514.6194 821.109,524.7663 843.109,532.7363" fill="none" id="register_svc-to-session_svc" style="stroke:#181818;stroke-width:1;"/><polygon fill="#181818" points="847.81,534.4394,840.7106,527.6131,843.109,532.7363,837.9857,535.1347,847.81,534.4394" style="stroke:#181818;stroke-width:1;stroke-linejoin:miter;stroke-miterlimit:10;"/><text fill="#000000" font-family="sans-serif" font-size="13" lengthAdjust="spacing" textLength="120.6753" x="788" y="493.5945">uses session context</text></g><!--link svcmsg_svc to session_svc--><g class="link" data-entity-1="ent0021" data-entity-2="ent0018" data-link-type="dependency" data-source-line="62" id="lnk39"><path d="M1097.69,443.9894 C1036.48,455.6094 967.77,470.1994 956,479.0994 C940.39,490.9094 932.2032,506.3321 926.4332,522.1521" fill="none" id="svcmsg_svc-to-session_svc" style="stroke:#181818;stroke-width:1;"/><polygon fill="#181818" points="924.72,526.8494,931.5617,519.7648,926.4332,522.1521,924.046,517.0236,924.72,526.8494" style="stroke:#181818;stroke-width:1;stroke-linejoin:miter;stroke-miterlimit:10;"/><text fill="#000000" font-family="sans-serif" font-size="13" lengthAdjust="spacing" textLength="132.9644" x="957" y="493.5945">manages session state</text></g><!--link auth_svc to db_adapters--><g class="link" data-entity-1="ent0017" data-entity-2="ent0026" data-link-type="dependency" data-source-line="63" id="lnk40"><path d="M1332.92,446.4194 C1327.21,447.4294 1321.54,448.3394 1316,449.0994 C1255.59,457.4394 816.92,442.6894 768,479.0994 C713.42,519.7194 664.3836,727.1138 648.9336,798.0838" fill="none" id="auth_svc-to-db_adapters" style="stroke:#181818;stroke-width:1;"/><polygon fill="#181818" points="647.87,802.9694,653.6929,795.0262,648.9336,798.0838,645.876,793.3245,647.87,802.9694" style="stroke:#181818;stroke-width:1;stroke-linejoin:miter;stroke-miterlimit:10;"/><text fill="#000000" font-family="sans-serif" font-size="13" lengthAdjust="spacing" textLength="93.228" x="702" y="619.5945">stores auth data</text></g><!--link session_svc to db_adapters--><g class="link" data-entity-1="ent0018" data-entity-2="ent0026" data-link-type="dependency" data-source-line="64" id="lnk41"><path d="M904.39,575.2094 C879.67,615.5094 823.84,699.2894 758,751.0994 C751.44,756.2594 748.25,754.9494 741,759.0994 C717.75,772.4094 696.8998,786.5608 678.0098,800.1408" fill="none" id="session_svc-to-db_adapters" style="stroke:#181818;stroke-width:1;"/><polygon fill="#181818" points="673.95,803.0594,683.5925,801.0538,678.0098,800.1408,678.9228,794.5581,673.95,803.0594" style="stroke:#181818;stroke-width:1;stroke-linejoin:miter;stroke-miterlimit:10;"/><text fill="#000000" font-family="sans-serif" font-size="13" lengthAdjust="spacing" textLength="112.0044" x="851" y="682.5945">stores session data</text></g><!--link salt_svc to db_adapters--><g class="link" data-entity-1="ent0019" data-entity-2="ent0026" data-link-type="dependency" data-source-line="65" id="lnk42"><path d="M1018.88,701.1694 C1004.33,709.5294 987.25,718.5194 971,725.0994 C930.03,741.6894 918.62,743.9694 875,751.0994 C845.56,755.9094 769.22,749.4394 741,759.0994 C713.7,768.4394 690.7996,784.4086 672.1596,799.8586" fill="none" id="salt_svc-to-db_adapters" style="stroke:#181818;stroke-width:1;"/><polygon fill="#181818" points="668.31,803.0494,677.7918,800.3857,672.1596,799.8586,672.6866,794.2264,668.31,803.0494" style="stroke:#181818;stroke-width:1;stroke-linejoin:miter;stroke-miterlimit:10;"/><text fill="#000000" font-family="sans-serif" font-size="13" lengthAdjust="spacing" textLength="88.1563" x="950" y="747.5945">stores salt data</text></g><!--link register_svc to db_adapters--><g class="link" data-entity-1="ent0020" data-entity-2="ent0026" data-link-type="dependency" data-source-line="66" id="lnk43"><path d="M682.22,434.1794 C584.89,448.8894 429.8,490.1294 376,605.0994 C331.05,701.1594 469.8397,768.0221 563.6097,801.4121" fill="none" id="register_svc-to-db_adapters" style="stroke:#181818;stroke-width:1;"/><polygon fill="#181818" points="568.32,803.0894,561.1833,796.3021,563.6097,801.4121,558.4997,803.8385,568.32,803.0894" style="stroke:#181818;stroke-width:1;stroke-linejoin:miter;stroke-miterlimit:10;"/><text fill="#000000" font-family="sans-serif" font-size="13" lengthAdjust="spacing" textLength="132.2344" x="377" y="619.5945">stores registration data</text></g><!--link svcmsg_svc to db_adapters--><g class="link" data-entity-1="ent0021" data-entity-2="ent0026" data-link-type="dependency" data-source-line="67" id="lnk44"><path d="M1097.71,447.7694 C1094.78,448.2394 1091.87,448.6894 1089,449.0994 C1004.5,461.2694 785.32,447.5294 706,479.0994 C623.19,512.0594 588.42,524.6794 550,605.0994 C516.17,675.8994 579.1942,758.5802 616.5742,799.2002" fill="none" id="svcmsg_svc-to-db_adapters" style="stroke:#181818;stroke-width:1;"/><polygon fill="#181818" points="619.96,802.8794,616.809,793.5482,616.5742,799.2002,610.9223,798.9654,619.96,802.8794" style="stroke:#181818;stroke-width:1;stroke-linejoin:miter;stroke-miterlimit:10;"/><text fill="#000000" font-family="sans-serif" font-size="13" lengthAdjust="spacing" textLength="137.2744" x="551" y="619.5945">stores service msg data</text></g><!--link media_svc to db_adapters--><g class="link" data-entity-1="ent0022" data-entity-2="ent0026" data-link-type="dependency" data-source-line="68" id="lnk45"><path d="M967.89,305.1194 C946.64,314.2294 921.07,323.7694 897,329.0994 C742.66,363.2694 192,266.0194 192,424.0994 C192,424.0994 192,424.0994 192,678.0994 C192,755.2494 428.3364,798.0398 557.9364,815.8198" fill="none" id="media_svc-to-db_adapters" style="stroke:#181818;stroke-width:1;"/><polygon fill="#181818" points="562.89,816.4994,554.5172,811.3132,557.9364,815.8198,553.4298,819.239,562.89,816.4994" style="stroke:#181818;stroke-width:1;stroke-linejoin:miter;stroke-miterlimit:10;"/><text fill="#000000" font-family="sans-serif" font-size="13" lengthAdjust="spacing" textLength="132.2344" x="193" y="556.5945">stores media metadata</text></g><!--link db_adapters to mysql_db_sys--><g class="link" data-entity-1="ent0026" data-entity-2="ent0030" data-link-type="dependency" data-source-line="69" id="lnk46"><path d="M577.05,851.2094 C561.01,859.2994 545.03,869.7994 533,883.0994 C520.88,896.4994 515.2119,911.0385 511.4319,926.1685" fill="none" id="db_adapters-to-mysql_db_sys" style="stroke:#181818;stroke-width:1;"/><polygon fill="#181818" points="510.22,931.0194,516.2822,923.2573,511.4319,926.1685,508.5207,921.3182,510.22,931.0194" style="stroke:#181818;stroke-width:1;stroke-linejoin:miter;stroke-miterlimit:10;"/><text fill="#000000" font-family="sans-serif" font-size="13" lengthAdjust="spacing" textLength="73.7026" x="534" y="897.5945">persists data</text></g><!--link db_adapters to redis_db_sys--><g class="link" data-entity-1="ent0026" data-entity-2="ent0031" data-link-type="dependency" data-source-line="70" id="lnk47"><path d="M680.61,851.3094 C693.16,860.2194 706.59,871.1494 717,883.0994 C729.38,897.3094 737.3834,911.5548 744.2034,926.2348" fill="none" id="db_adapters-to-redis_db_sys" style="stroke:#181818;stroke-width:1;"/><polygon fill="#181818" points="746.31,930.7694,746.1457,920.9219,744.2034,926.2348,738.8904,924.2925,746.31,930.7694" style="stroke:#181818;stroke-width:1;stroke-linejoin:miter;stroke-miterlimit:10;"/><text fill="#000000" font-family="sans-serif" font-size="13" lengthAdjust="spacing" textLength="70.1035" x="731" y="897.5945">caches data</text></g><!--link db_adapters to etcd_db_sys--><g class="link" data-entity-1="ent0026" data-entity-2="ent0032" data-link-type="dependency" data-source-line="71" id="lnk48"><path d="M629.87,851.1594 C625.13,860.7194 620.38,872.1294 618,883.0994 C614.6,898.7794 614.8474,911.8734 616.4874,925.8534" fill="none" id="db_adapters-to-etcd_db_sys" style="stroke:#181818;stroke-width:1;"/><polygon fill="#181818" points="617.07,930.8194,619.9942,921.4146,616.4874,925.8534,612.0486,922.3467,617.07,930.8194" style="stroke:#181818;stroke-width:1;stroke-linejoin:miter;stroke-miterlimit:10;"/><text fill="#000000" font-family="sans-serif" font-size="13" lengthAdjust="spacing" textLength="93.2153" x="619" y="897.5945">stores metadata</text></g><!--link obj_client to minio_cloud_sys--><g class="link" data-entity-1="ent0027" data-entity-2="ent0033" data-link-type="dependency" data-source-line="72" id="lnk49"><path d="M849.22,851.2094 C853.34,873.7994 858.6925,903.1006 862.8325,925.7906" fill="none" id="obj_client-to-minio_cloud_sys" style="stroke:#181818;stroke-width:1;"/><polygon fill="#181818" points="863.73,930.7094,866.0496,921.1376,862.8325,925.7906,858.1795,922.5735,863.73,930.7094" style="stroke:#181818;stroke-width:1;stroke-linejoin:miter;stroke-miterlimit:10;"/><text fill="#000000" font-family="sans-serif" font-size="13" lengthAdjust="spacing" textLength="80.2026" x="858" y="897.5945">stores objects</text></g><!--link mq_client to kafka_cloud_sys--><g class="link" data-entity-1="ent0029" data-entity-2="ent0034" data-link-type="dependency" data-source-line="73" id="lnk50"><path d="M1386,851.2094 C1386,873.7994 1386,903.0194 1386,925.7094" fill="none" id="mq_client-to-kafka_cloud_sys" style="stroke:#181818;stroke-width:1;"/><polygon fill="#181818" points="1386,930.7094,1390,921.7094,1386,925.7094,1382,921.7094,1386,930.7094" style="stroke:#181818;stroke-width:1;stroke-linejoin:miter;stroke-miterlimit:10;"/><text fill="#000000" font-family="sans-serif" font-size="13" lengthAdjust="spacing" textLength="149.5698" x="1387" y="897.5945">sends/receives messages</text></g><!--link mtproto_comp to mq_client--><g class="link" data-entity-1="ent0015" data-entity-2="ent0029" data-link-type="dependency" data-source-line="74" id="lnk51"><path d="M1691.84,305.4394 C1705.76,332.9494 1726,380.4694 1726,424.0994 C1726,424.0994 1726,424.0994 1726,678.0994 C1726,786.8994 1582.8159,816.1737 1482.0959,823.7637" fill="none" id="mtproto_comp-to-mq_client" style="stroke:#181818;stroke-width:1;"/><polygon fill="#181818" points="1477.11,824.1394,1486.3851,827.4518,1482.0959,823.7637,1485.784,819.4744,1477.11,824.1394" style="stroke:#181818;stroke-width:1;stroke-linejoin:miter;stroke-miterlimit:10;"/><text fill="#000000" font-family="sans-serif" font-size="13" lengthAdjust="spacing" textLength="106.2217" x="1727" y="556.5945">async notifications</text></g><!--link auth_svc to mq_client--><g class="link" data-entity-1="ent0017" data-entity-2="ent0029" data-link-type="dependency" data-source-line="75" id="lnk52"><path d="M1467.35,449.2294 C1528.75,482.2094 1623.51,547.2194 1595,623.0994 C1563.86,705.9594 1481.858,767.7303 1430.408,800.2103" fill="none" id="auth_svc-to-mq_client" style="stroke:#181818;stroke-width:1;"/><polygon fill="#181818" points="1426.18,802.8794,1435.9257,801.4574,1430.408,800.2103,1431.6551,794.6926,1426.18,802.8794" style="stroke:#181818;stroke-width:1;stroke-linejoin:miter;stroke-miterlimit:10;"/><text fill="#000000" font-family="sans-serif" font-size="13" lengthAdjust="spacing" textLength="67.9136" x="1600" y="619.5945">async tasks</text></g><!--link session_svc to mq_client--><g class="link" data-entity-1="ent0018" data-entity-2="ent0029" data-link-type="dependency" data-source-line="76" id="lnk53"><path d="M988.03,570.8494 C994.09,572.3294 1000.15,573.7694 1006,575.0994 C1074.86,590.6994 1107.39,560.3494 1162,605.0994 C1206.56,641.6194 1173.12,681.6994 1211,725.0994 C1241.79,760.3794 1283.5007,784.2769 1320.7307,801.0369" fill="none" id="session_svc-to-mq_client" style="stroke:#181818;stroke-width:1;"/><polygon fill="#181818" points="1325.29,803.0894,1318.7252,795.7475,1320.7307,801.0369,1315.4413,803.0423,1325.29,803.0894" style="stroke:#181818;stroke-width:1;stroke-linejoin:miter;stroke-miterlimit:10;"/><text fill="#000000" font-family="sans-serif" font-size="13" lengthAdjust="spacing" textLength="75.8735" x="1212" y="682.5945">async events</text></g><!--link register_svc to mq_client--><g class="link" data-entity-1="ent0020" data-entity-2="ent0029" data-link-type="dependency" data-source-line="77" id="lnk54"><path d="M847.77,439.8794 C869.59,443.2194 893.15,446.5494 915,449.0994 C956.41,453.9294 1259.17,449.9694 1289,479.0994 C1335.04,524.0594 1288.46,560.6594 1304,623.0994 C1320.89,690.9694 1353.6356,761.6714 1371.9756,798.5914" fill="none" id="register_svc-to-mq_client" style="stroke:#181818;stroke-width:1;"/><polygon fill="#181818" points="1374.2,803.0694,1373.7784,793.2295,1371.9756,798.5914,1366.6137,796.7886,1374.2,803.0694" style="stroke:#181818;stroke-width:1;stroke-linejoin:miter;stroke-miterlimit:10;"/><text fill="#000000" font-family="sans-serif" font-size="13" lengthAdjust="spacing" textLength="104.0508" x="1305" y="619.5945">verification events</text></g><!--link svcmsg_svc to mq_client--><g class="link" data-entity-1="ent0021" data-entity-2="ent0029" data-link-type="dependency" data-source-line="78" id="lnk55"><path d="M1284.19,449.2194 C1302.83,456.7794 1321.56,466.5694 1337,479.0994 C1388.69,521.0594 1399.24,541.2194 1418,605.0994 C1438.65,675.3994 1413.1695,757.6944 1397.4695,798.3944" fill="none" id="svcmsg_svc-to-mq_client" style="stroke:#181818;stroke-width:1;"/><polygon fill="#181818" points="1395.67,803.0594,1402.6411,796.1021,1397.4695,798.3944,1395.1771,793.2229,1395.67,803.0594" style="stroke:#181818;stroke-width:1;stroke-linejoin:miter;stroke-miterlimit:10;"/><text fill="#000000" font-family="sans-serif" font-size="13" lengthAdjust="spacing" textLength="135.1416" x="1423" y="619.5945">session cleanup events</text></g><!--link salt_svc to mq_client--><g class="link" data-entity-1="ent0019" data-entity-2="ent0029" data-link-type="dependency" data-source-line="79" id="lnk56"><path d="M1049.87,701.3694 C1047.2,717.1194 1046.83,737.4694 1058,751.0994 C1087.63,787.2394 1203.384,806.9175 1289.754,817.0375" fill="none" id="salt_svc-to-mq_client" style="stroke:#181818;stroke-width:1;"/><polygon fill="#181818" points="1294.72,817.6194,1286.2466,812.5992,1289.754,817.0375,1285.3157,820.5448,1294.72,817.6194" style="stroke:#181818;stroke-width:1;stroke-linejoin:miter;stroke-miterlimit:10;"/><text fill="#000000" font-family="sans-serif" font-size="13" lengthAdjust="spacing" textLength="98.998" x="1059" y="747.5945">future salt events</text></g><!--link futuresalt_svc to salt_svc--><g class="link" data-entity-1="ent0023" data-entity-2="ent0019" data-link-type="dependency" data-source-line="80" id="lnk57"><path d="M1094.27,575.1294 C1085.88,597.2694 1075.0429,625.8642 1066.6129,648.0942" fill="none" id="futuresalt_svc-to-salt_svc" style="stroke:#181818;stroke-width:1;"/><polygon fill="#181818" points="1064.84,652.7694,1071.7713,645.7725,1066.6129,648.0942,1064.2911,642.9358,1064.84,652.7694" style="stroke:#181818;stroke-width:1;stroke-linejoin:miter;stroke-miterlimit:10;"/><text fill="#000000" font-family="sans-serif" font-size="13" lengthAdjust="spacing" textLength="116.3335" x="1083" y="619.5945">provides future salts</text></g><!--link verifycode_svc to register_svc--><g class="link" data-entity-1="ent0024" data-entity-2="ent0020" data-link-type="dependency" data-source-line="81" id="lnk58"><path d="M778.39,305.2294 C775.42,331.6394 771.139,369.6107 768.169,396.0107" fill="none" id="verifycode_svc-to-register_svc" style="stroke:#181818;stroke-width:1;stroke-dasharray:7,7;"/><polygon fill="#181818" points="767.61,400.9794,772.5911,392.483,768.169,396.0107,764.6412,391.5886,767.61,400.9794" style="stroke:#181818;stroke-width:1;stroke-linejoin:miter;stroke-miterlimit:10;"/><text fill="#000000" font-family="sans-serif" font-size="13" lengthAdjust="spacing" textLength="60.709" x="784.385" y="351.5945">&#171;external&#187;</text><text fill="#000000" font-family="sans-serif" font-size="13" lengthAdjust="spacing" textLength="79.479" x="775" y="367.9461">verifies codes</text></g><!--link media_svc to svcmsg_svc--><g class="link" data-entity-1="ent0022" data-entity-2="ent0021" data-link-type="dependency" data-source-line="82" id="lnk59"><path d="M1045.65,305.2294 C1079.49,331.6394 1130.5878,371.5039 1164.4278,397.9039" fill="none" id="media_svc-to-svcmsg_svc" style="stroke:#181818;stroke-width:1;stroke-dasharray:7,7;"/><polygon fill="#181818" points="1168.37,400.9794,1163.7344,392.2897,1164.4278,397.9039,1158.8136,398.5973,1168.37,400.9794" style="stroke:#181818;stroke-width:1;stroke-linejoin:miter;stroke-miterlimit:10;"/><text fill="#000000" font-family="sans-serif" font-size="13" lengthAdjust="spacing" textLength="149.5952" x="1129" y="359.5945">handles rpc_drop_answer</text></g><!--link media_svc to session_svc--><g class="link" data-entity-1="ent0022" data-entity-2="ent0018" data-link-type="dependency" data-source-line="83" id="lnk60"><path d="M995.47,305.2894 C976.63,328.0094 949.62,364.4694 936,401.0994 C920.24,443.4694 917.595,491.8494 917.505,521.8494" fill="none" id="media_svc-to-session_svc" style="stroke:#181818;stroke-width:1;stroke-dasharray:7,7;"/><polygon fill="#181818" points="917.49,526.8494,921.517,517.8614,917.505,521.8494,913.517,517.8374,917.49,526.8494" style="stroke:#181818;stroke-width:1;stroke-linejoin:miter;stroke-miterlimit:10;"/><text fill="#000000" font-family="sans-serif" font-size="13" lengthAdjust="spacing" textLength="143.0889" x="937" y="430.5945">handles destroy_session</text></g><?plantuml-src VLPDRzim3BtxLmWTi9xIteCYG9QiMB46NTjjbtKmP9b9rDYI8ybPlM7_VPHaE_BNSWXiwZsAfFWe6suo89klNvGqaZo3Ee4YIyNst00pfG8o8okP5rA0CEGzMKEHoIgtBsjETuhcKNGPMkzf1IeICWLo4PXNKXXuCnVaJqJmzwExuqz2DSbDuKplChxRcoGheOPMpu_t7b7fOnQdIGt1tIiFUOAKQmTHzcaC0eQb3c4VnW2VwVP07U9Wd-ByE81ikBXxy95mmMMiZSG21QY_4MPkW2Xh8NBRv8Jq5HKa0PAwaa1Ak9YZTKRMaXsmvBO-b0iidJLkg2XfHZvmGLKLWKY9TJjmNfUZzUuzkdhr77vyCw04kdIBWSVBu7JzqHMK7UWEJs-LSMjTCWPQ-yNc-5ZB-Sz1nXPbIz9wj1ZEODBNiZHxgVXlQhWKf4OxbnHNOdrYVSOpXjR7QcyRXTFCTB5e60C-mOvheuQ1ABS0QZmOdzu60x3vVg8YpUgQ83pNkp7M1ZkM4YoYBJCNkyvskLqSOzsMJfo3XBREFfNMTr1yovbFQsKr6d9FThLYQ7RSpibXfzk7gPDRKqCJge4iKrfWURmOqoIczNkVy92yudmXZL_VQuuaazUOkTTE17TYgoWUIUcdqcGxrhL_BA7ikCsFWTVBTkFd2ayprr7Q930oRc9TXO3XiEa1-gF6BRDCbkbmX3Xp2EYFeJF0QLK8B1kUdev2bP7PRD5gXCn9YHg8sdUx68W2rva2Qa1VvrHW4Lh9w2Y4ELhTICXHS2n16wyP7OL26Dd1Hj2Oy7pSy8_E8XXXz68Xsc28tII2VaA2cxv-D11R_47me_36lMSqwKt3hS0STf3mA5w5WyFlqKrw8YW_EH3eIQtkfpaEWl-6EaQ8iPomUP5Ke9tRqni5XurisuEoFKn0WvuEOwcZE8lN1z7jyJD1ElbZ4nz3UA_ZBHnlAdsjW04_kNsSkaUQ_-neZjgf1BFtMplhUc8OWWtLXs7t3t5mmhUHvW-Hft38reHU4uJmLYGPuArVj8omDKEyd_2-CMjiT-ZtXOkLEl4KTCZKKNVOawkhHUTkGzxD3THV3Ol5Y_1PeHTBqK63McQGtfpitRM7KYXOd2fPn5JeN_XXqQDqnDzmqBLHiehhrVgBnyZ2VUy4b-4tEr-Q-10WCpr_4JDoUviNiFDFUAScSFxM-GS0?></g></svg>