<svg xmlns="http://www.w3.org/2000/svg" xmlns:xlink="http://www.w3.org/1999/xlink" contentStyleType="text/css" data-diagram-type="DESCRIPTION" height="1045px" preserveAspectRatio="none" style="width:1361px;height:1045px;background:#FFFFFF;" version="1.1" viewBox="0 0 1361 1045" width="1361px" zoomAndPan="magnify"><?plantuml 1.2026.6?><defs/><g><!--cluster JVM Environment--><g class="cluster" data-qualified-name="JVM Environment" data-source-line="3" id="ent0001"><polygon fill="none" points="16,16,26,6,970,6,970,610,960,620,16,620,16,16" style="stroke:#181818;stroke-width:1;stroke-linejoin:miter;stroke-miterlimit:10;"/><line style="stroke:#181818;stroke-width:1;" x1="960" x2="970" y1="16" y2="6"/><line style="stroke:#181818;stroke-width:1;" x1="16" x2="960" y1="16" y2="16"/><line style="stroke:#181818;stroke-width:1;" x1="960" x2="960" y1="16" y2="620"/><text fill="#000000" font-family="sans-serif" font-size="14" font-weight="700" lengthAdjust="spacing" textLength="118.2412" x="429.8794" y="33.5332">JVM Environment</text></g><!--cluster Proxy Layer--><g class="cluster" data-qualified-name="JVM Environment.Proxy Layer" data-source-line="4" id="ent0002"><polygon fill="none" points="583,375,593,365,789,365,789,586,779,596,583,596,583,375" style="stroke:#181818;stroke-width:1;stroke-linejoin:miter;stroke-miterlimit:10;"/><line style="stroke:#181818;stroke-width:1;" x1="779" x2="789" y1="375" y2="365"/><line style="stroke:#181818;stroke-width:1;" x1="583" x2="779" y1="375" y2="375"/><line style="stroke:#181818;stroke-width:1;" x1="779" x2="779" y1="375" y2="596"/><text fill="#000000" font-family="sans-serif" font-size="14" font-weight="700" lengthAdjust="spacing" textLength="80.1582" x="641.9209" y="392.5332">Proxy Layer</text></g><!--cluster Test Server Layer--><g class="cluster" data-qualified-name="JVM Environment.Test Server Layer" data-source-line="9" id="ent0005"><polygon fill="none" points="40,220,50,210,559,210,559,586,549,596,40,596,40,220" style="stroke:#181818;stroke-width:1;stroke-linejoin:miter;stroke-miterlimit:10;"/><line style="stroke:#181818;stroke-width:1;" x1="549" x2="559" y1="220" y2="210"/><line style="stroke:#181818;stroke-width:1;" x1="40" x2="549" y1="220" y2="220"/><line style="stroke:#181818;stroke-width:1;" x1="549" x2="549" y1="220" y2="596"/><text fill="#000000" font-family="sans-serif" font-size="14" font-weight="700" lengthAdjust="spacing" textLength="117.5166" x="236.7417" y="237.5332">Test Server Layer</text></g><!--cluster Test Client Layer--><g class="cluster" data-qualified-name="JVM Environment.Test Client Layer" data-source-line="17" id="ent0011"><polygon fill="none" points="690,220,700,210,878,210,878,305,868,315,690,315,690,220" style="stroke:#181818;stroke-width:1;stroke-linejoin:miter;stroke-miterlimit:10;"/><line style="stroke:#181818;stroke-width:1;" x1="868" x2="878" y1="220" y2="210"/><line style="stroke:#181818;stroke-width:1;" x1="690" x2="868" y1="220" y2="220"/><line style="stroke:#181818;stroke-width:1;" x1="868" x2="868" y1="220" y2="315"/><text fill="#000000" font-family="sans-serif" font-size="14" font-weight="700" lengthAdjust="spacing" textLength="112.8135" x="723.5933" y="237.5332">Test Client Layer</text></g><!--cluster Data Layer--><g class="cluster" data-qualified-name="JVM Environment.Data Layer" data-source-line="21" id="ent0013"><polygon fill="none" points="658,65,668,55,910,55,910,150,900,160,658,160,658,65" style="stroke:#181818;stroke-width:1;stroke-linejoin:miter;stroke-miterlimit:10;"/><line style="stroke:#181818;stroke-width:1;" x1="900" x2="910" y1="65" y2="55"/><line style="stroke:#181818;stroke-width:1;" x1="658" x2="900" y1="65" y2="65"/><line style="stroke:#181818;stroke-width:1;" x1="900" x2="900" y1="65" y2="160"/><text fill="#000000" font-family="sans-serif" font-size="14" font-weight="700" lengthAdjust="spacing" textLength="71.5928" x="744.2036" y="82.5332">Data Layer</text></g><!--cluster External Systems--><g class="cluster" data-qualified-name="External Systems" data-source-line="26" id="ent0015"><path d="M588.6402,678.1063 C606.7228,653.3074 624.5856,654.867 639.6628,681.1106 C658.756,654.2732 676.8895,654.7127 692.2846,684.5445 C700.7874,659.7794 719.0019,659.5896 734.6972,677.3754 C749.202,655.7445 767.5255,653.1972 782.8551,676.4912 C799.3455,653.5958 824.2634,653.5958 834.3842,682.7919 C845.3803,659.5647 866.0609,660.6441 878.3022,681.5528 C893.0781,652.2557 915.5514,657.2421 932.1488,679.6561 C944.2818,653.0491 965.6171,653.4552 980.1303,677.3967 C997.4844,653.1227 1017.0602,653.3201 1030.1919,681.4318 C1045.3908,656.7121 1063.604,653.3912 1080.2137,680.0584 C1094.2264,660.585 1115.8413,656.0627 1128.4974,681.5165 C1144.0119,659.7778 1162.3848,662.9694 1175.6268,684.0195 C1188.4975,659.016 1204.1234,657.3865 1220.8875,680.3455 C1236.9917,661.1254 1259.7267,662.152 1272,685 C1277.6084,683.4445 1280.521,687.0949 1279.5175,692.3251 C1299.0399,703.6713 1297.3326,724.7871 1279.1824,735.8432 C1302.5746,749.3779 1306.8959,766.1758 1284.5761,784.7517 C1309.0686,801.1793 1312.1973,818.3067 1286.8561,836.9126 C1311.2322,856.023 1309.1248,870.7406 1282.3639,885.082 C1305.5366,903.6228 1300.9351,921.2546 1276.901,934.586 C1300.7082,957.7251 1294.7083,978.3542 1265,990 C1267.4001,989.6582 1269.0561,991.0487 1268.1815,993.6005 C1253.175,1015.2395 1232.8268,1020.899 1216.7038,994.8046 C1207.7808,1016.0349 1185.8111,1017.112 1172.109,1000.4255 C1154.0398,1022.5033 1139.4327,1017.829 1127.3988,994.4847 C1114.1192,1019.8046 1090.1863,1023.6038 1072.5345,999.3206 C1058.3126,1021.9103 1043.5316,1030.0934 1023.5714,1005.2431 C1008.9794,1025.3425 988.6318,1027.2262 977.6592,1001.6082 C965.1287,1022.8344 940.6678,1029.1591 927.2172,1002.5791 C916.3768,1022.8145 899.3118,1028.1918 884.8229,1006.2459 C867.7914,1026.5595 851.1691,1028.5104 835.3964,1004.8316 C820.7915,1023.5246 798.8119,1021.9797 788.6797,999.7282 C773.9167,1025.1398 756.2655,1019.8918 740.8433,1000.4309 C723.0837,1020.7646 707.3876,1023.1119 690.6358,999.285 C673.7823,1023.223 654.6713,1020.3371 641.9986,995.1461 C619.5108,1023.7567 592.1317,1011.4207 581,983 C583.8256,980.8378 585.8595,981.9889 586.8005,985.0807 C562.3389,971.9821 561.4508,951.7375 584.5099,936.4027 C559.6459,922.6556 557.8917,901.1851 580.4526,883.7814 C559.5892,869.4433 561.5662,853.9091 582.1554,841.2299 C558.6906,825.631 550.0704,803.5215 579.7193,785.5969 C558.0787,771.4576 560.8119,751.2112 584.6341,742.2234 C553.8732,723.3144 556.0614,693.623 588,678 C588.219,677.6799 588.535,677.7415 588.6402,678.1063" fill="none" style="stroke:#181818;stroke-width:1;"/><text fill="#000000" font-family="sans-serif" font-size="14" font-weight="700" lengthAdjust="spacing" textLength="116.7305" x="868.1348" y="697.5332">External Systems</text></g><!--cluster Grizzly/Jersey HTTP Server Environment--><g class="cluster" data-qualified-name="External Systems.Grizzly.Jersey HTTP Server Environment" data-source-line="30" id="ent0018"><polygon fill="none" points="909,879,919,869,1256,869,1256,964,1246,974,909,974,909,879" style="stroke:#181818;stroke-width:1;stroke-linejoin:miter;stroke-miterlimit:10;"/><line style="stroke:#181818;stroke-width:1;" x1="1246" x2="1256" y1="879" y2="869"/><line style="stroke:#181818;stroke-width:1;" x1="909" x2="1246" y1="879" y2="879"/><line style="stroke:#181818;stroke-width:1;" x1="1246" x2="1246" y1="879" y2="974"/><text fill="#000000" font-family="sans-serif" font-size="14" font-weight="700" lengthAdjust="spacing" textLength="271.5508" x="942.7246" y="896.5332">Grizzly/Jersey HTTP Server Environment</text></g><!--cluster Asynchronous HTTP Client Environment--><g class="cluster" data-qualified-name="External Systems.Asynchronous HTTP Client Environment" data-source-line="34" id="ent0020"><polygon fill="none" points="910,724,920,714,1256,714,1256,809,1246,819,910,819,910,724" style="stroke:#181818;stroke-width:1;stroke-linejoin:miter;stroke-miterlimit:10;"/><line style="stroke:#181818;stroke-width:1;" x1="1246" x2="1256" y1="724" y2="714"/><line style="stroke:#181818;stroke-width:1;" x1="910" x2="1246" y1="724" y2="724"/><line style="stroke:#181818;stroke-width:1;" x1="1246" x2="1246" y1="724" y2="819"/><text fill="#000000" font-family="sans-serif" font-size="14" font-weight="700" lengthAdjust="spacing" textLength="270.6895" x="943.6553" y="741.5332">Asynchronous HTTP Client Environment</text></g><!--entity HTTP Proxy--><g class="entity" data-qualified-name="JVM Environment.Proxy Layer.HTTP Proxy" data-source-line="5" id="ent0003"><rect fill="#F1F1F1" height="47.6094" rx="2.5" ry="2.5" style="stroke:#181818;stroke-width:0.5;" width="116.2275" x="628" y="406"/><rect fill="#F1F1F1" height="10" style="stroke:#181818;stroke-width:0.5;" width="15" x="724.2275" y="411"/><rect fill="#F1F1F1" height="2" style="stroke:#181818;stroke-width:0.5;" width="4" x="722.2275" y="413"/><rect fill="#F1F1F1" height="2" style="stroke:#181818;stroke-width:0.5;" width="4" x="722.2275" y="417"/><text fill="#000000" font-family="sans-serif" font-size="14" lengthAdjust="spacing" textLength="76.2275" x="643" y="440.5332">HTTP Proxy</text></g><!--entity Channel Manager--><g class="entity" data-qualified-name="JVM Environment.Proxy Layer.Channel Manager" data-source-line="6" id="ent0004"><rect fill="#F1F1F1" height="47.6094" rx="2.5" ry="2.5" style="stroke:#181818;stroke-width:0.5;" width="151.2959" x="599.5" y="532"/><rect fill="#F1F1F1" height="10" style="stroke:#181818;stroke-width:0.5;" width="15" x="730.7959" y="537"/><rect fill="#F1F1F1" height="2" style="stroke:#181818;stroke-width:0.5;" width="4" x="728.7959" y="539"/><rect fill="#F1F1F1" height="2" style="stroke:#181818;stroke-width:0.5;" width="4" x="728.7959" y="543"/><text fill="#000000" font-family="sans-serif" font-size="14" lengthAdjust="spacing" textLength="111.2959" x="614.5" y="566.5332">Channel Manager</text></g><!--entity Test Server--><g class="entity" data-qualified-name="JVM Environment.Test Server Layer.Test Server" data-source-line="10" id="ent0006"><rect fill="#F1F1F1" height="47.6094" rx="2.5" ry="2.5" style="stroke:#181818;stroke-width:0.5;" width="112.3516" x="224" y="251"/><rect fill="#F1F1F1" height="10" style="stroke:#181818;stroke-width:0.5;" width="15" x="316.3516" y="256"/><rect fill="#F1F1F1" height="2" style="stroke:#181818;stroke-width:0.5;" width="4" x="314.3516" y="258"/><rect fill="#F1F1F1" height="2" style="stroke:#181818;stroke-width:0.5;" width="4" x="314.3516" y="262"/><text fill="#000000" font-family="sans-serif" font-size="14" lengthAdjust="spacing" textLength="72.3516" x="239" y="285.5332">Test Server</text></g><!--entity File Handler--><g class="entity" data-qualified-name="JVM Environment.Test Server Layer.File Handler" data-source-line="11" id="ent0007"><rect fill="#F1F1F1" height="47.6094" rx="2.5" ry="2.5" style="stroke:#181818;stroke-width:0.5;" width="115.4756" x="368.5" y="532"/><rect fill="#F1F1F1" height="10" style="stroke:#181818;stroke-width:0.5;" width="15" x="463.9756" y="537"/><rect fill="#F1F1F1" height="2" style="stroke:#181818;stroke-width:0.5;" width="4" x="461.9756" y="539"/><rect fill="#F1F1F1" height="2" style="stroke:#181818;stroke-width:0.5;" width="4" x="461.9756" y="543"/><text fill="#000000" font-family="sans-serif" font-size="14" lengthAdjust="spacing" textLength="75.4756" x="383.5" y="566.5332">File Handler</text></g><!--entity Download Endpoint--><g class="entity" data-qualified-name="JVM Environment.Test Server Layer.Download Endpoint" data-source-line="12" id="ent0008"><rect fill="#F1F1F1" height="47.6094" rx="2.5" ry="2.5" style="stroke:#181818;stroke-width:0.5;" width="161.4199" x="345.5" y="406"/><rect fill="#F1F1F1" height="10" style="stroke:#181818;stroke-width:0.5;" width="15" x="486.9199" y="411"/><rect fill="#F1F1F1" height="2" style="stroke:#181818;stroke-width:0.5;" width="4" x="484.9199" y="413"/><rect fill="#F1F1F1" height="2" style="stroke:#181818;stroke-width:0.5;" width="4" x="484.9199" y="417"/><text fill="#000000" font-family="sans-serif" font-size="14" lengthAdjust="spacing" textLength="121.4199" x="360.5" y="440.5332">Download Endpoint</text></g><!--entity Upload Endpoint--><g class="entity" data-qualified-name="JVM Environment.Test Server Layer.Upload Endpoint" data-source-line="13" id="ent0009"><rect fill="#F1F1F1" height="47.6094" rx="2.5" ry="2.5" style="stroke:#181818;stroke-width:0.5;" width="143.5234" x="166" y="406"/><rect fill="#F1F1F1" height="10" style="stroke:#181818;stroke-width:0.5;" width="15" x="289.5234" y="411"/><rect fill="#F1F1F1" height="2" style="stroke:#181818;stroke-width:0.5;" width="4" x="287.5234" y="413"/><rect fill="#F1F1F1" height="2" style="stroke:#181818;stroke-width:0.5;" width="4" x="287.5234" y="417"/><text fill="#000000" font-family="sans-serif" font-size="14" lengthAdjust="spacing" textLength="103.5234" x="181" y="440.5332">Upload Endpoint</text></g><!--entity Request Queue--><g class="entity" data-qualified-name="JVM Environment.Test Server Layer.Request Queue" data-source-line="14" id="ent0010"><rect fill="#F1F1F1" height="47.6094" rx="2.5" ry="2.5" style="stroke:#181818;stroke-width:0.5;" width="138.0684" x="405" y="251"/><rect fill="#F1F1F1" height="10" style="stroke:#181818;stroke-width:0.5;" width="15" x="523.0684" y="256"/><rect fill="#F1F1F1" height="2" style="stroke:#181818;stroke-width:0.5;" width="4" x="521.0684" y="258"/><rect fill="#F1F1F1" height="2" style="stroke:#181818;stroke-width:0.5;" width="4" x="521.0684" y="262"/><text fill="#000000" font-family="sans-serif" font-size="14" lengthAdjust="spacing" textLength="98.0684" x="420" y="285.5332">Request Queue</text></g><!--entity Test Client--><g class="entity" data-qualified-name="JVM Environment.Test Client Layer.Test Client" data-source-line="18" id="ent0012"><rect fill="#F1F1F1" height="47.6094" rx="2.5" ry="2.5" style="stroke:#181818;stroke-width:0.5;" width="106.9102" x="730.5" y="251"/><rect fill="#F1F1F1" height="10" style="stroke:#181818;stroke-width:0.5;" width="15" x="817.4102" y="256"/><rect fill="#F1F1F1" height="2" style="stroke:#181818;stroke-width:0.5;" width="4" x="815.4102" y="258"/><rect fill="#F1F1F1" height="2" style="stroke:#181818;stroke-width:0.5;" width="4" x="815.4102" y="262"/><text fill="#000000" font-family="sans-serif" font-size="14" lengthAdjust="spacing" textLength="66.9102" x="745.5" y="285.5332">Test Client</text></g><!--entity Structured Response Builder--><g class="entity" data-qualified-name="JVM Environment.Data Layer.Structured Response Builder" data-source-line="22" id="ent0014"><rect fill="#F1F1F1" height="47.6094" rx="2.5" ry="2.5" style="stroke:#181818;stroke-width:0.5;" width="218.9854" x="674.5" y="96"/><rect fill="#F1F1F1" height="10" style="stroke:#181818;stroke-width:0.5;" width="15" x="873.4854" y="101"/><rect fill="#F1F1F1" height="2" style="stroke:#181818;stroke-width:0.5;" width="4" x="871.4854" y="103"/><rect fill="#F1F1F1" height="2" style="stroke:#181818;stroke-width:0.5;" width="4" x="871.4854" y="107"/><text fill="#000000" font-family="sans-serif" font-size="14" lengthAdjust="spacing" textLength="178.9854" x="689.5" y="130.5332">Structured Response Builder</text></g><!--entity Upstream Server--><g class="entity" data-qualified-name="External Systems.Upstream Server" data-source-line="27" id="ent0016"><polygon fill="#F1F1F1" points="748,765,758,755,893.8066,755,893.8066,792.6094,883.8066,802.6094,748,802.6094,748,765" style="stroke:#181818;stroke-width:0.5;stroke-linejoin:miter;stroke-miterlimit:10;"/><line style="stroke:#181818;stroke-width:0.5;" x1="883.8066" x2="893.8066" y1="765" y2="755"/><line style="stroke:#181818;stroke-width:0.5;" x1="748" x2="883.8066" y1="765" y2="765"/><line style="stroke:#181818;stroke-width:0.5;" x1="883.8066" x2="883.8066" y1="765" y2="802.6094"/><text fill="#000000" font-family="sans-serif" font-size="14" lengthAdjust="spacing" textLength="105.8066" x="763" y="789.5332">Upstream Server</text></g><!--entity Local Filesystem--><g class="entity" data-qualified-name="External Systems.Local Filesystem" data-source-line="28" id="ent0017"><path d="M589,765.5 C589,755.5 651.1274,755.5 651.1274,755.5 C651.1274,755.5 713.2549,755.5 713.2549,765.5 L713.2549,792.1094 C713.2549,802.1094 651.1274,802.1094 651.1274,802.1094 C651.1274,802.1094 589,802.1094 589,792.1094 L589,765.5" fill="#F1F1F1" style="stroke:#181818;stroke-width:0.5;"/><path d="M589,765.5 C589,775.5 651.1274,775.5 651.1274,775.5 C651.1274,775.5 713.2549,775.5 713.2549,765.5" fill="none" style="stroke:#181818;stroke-width:0.5;"/><text fill="#000000" font-family="sans-serif" font-size="14" lengthAdjust="spacing" textLength="104.2549" x="599" y="794.0332">Local Filesystem</text></g><!--entity Grizzly/Jersey HTTP Server--><g class="entity" data-qualified-name="External Systems.Grizzly.Jersey HTTP Server Environment.Grizzly.Jersey HTTP Server" data-source-line="31" id="ent0019"><rect fill="#F1F1F1" height="47.6094" rx="2.5" ry="2.5" style="stroke:#181818;stroke-width:0.5;" width="213.4619" x="1026.5" y="910"/><rect fill="#F1F1F1" height="10" style="stroke:#181818;stroke-width:0.5;" width="15" x="1219.9619" y="915"/><rect fill="#F1F1F1" height="2" style="stroke:#181818;stroke-width:0.5;" width="4" x="1217.9619" y="917"/><rect fill="#F1F1F1" height="2" style="stroke:#181818;stroke-width:0.5;" width="4" x="1217.9619" y="921"/><text fill="#000000" font-family="sans-serif" font-size="14" lengthAdjust="spacing" textLength="173.4619" x="1041.5" y="944.5332">Grizzly/Jersey HTTP Server</text></g><!--entity Async HTTP Client--><g class="entity" data-qualified-name="External Systems.Asynchronous HTTP Client Environment.Async HTTP Client" data-source-line="35" id="ent0021"><rect fill="#F1F1F1" height="47.6094" rx="2.5" ry="2.5" style="stroke:#181818;stroke-width:0.5;" width="158.248" x="1068" y="755"/><rect fill="#F1F1F1" height="10" style="stroke:#181818;stroke-width:0.5;" width="15" x="1206.248" y="760"/><rect fill="#F1F1F1" height="2" style="stroke:#181818;stroke-width:0.5;" width="4" x="1204.248" y="762"/><rect fill="#F1F1F1" height="2" style="stroke:#181818;stroke-width:0.5;" width="4" x="1204.248" y="766"/><text fill="#000000" font-family="sans-serif" font-size="14" lengthAdjust="spacing" textLength="118.248" x="1083" y="789.5332">Async HTTP Client</text></g><!--link Channel Manager to Upstream Server--><g class="link" data-entity-1="ent0004" data-entity-2="ent0016" data-link-type="dependency" data-source-line="40" id="lnk22"><path d="M663.06,580.37 C653.82,602.12 645.3,634.09 663,654 C673.11,665.37 717.75,654.52 731,662 C768.73,683.31 793.7448,723.0279 807.8348,750.2979" fill="none" id="Channel Manager-to-Upstream Server" style="stroke:#181818;stroke-width:1;"/><polygon fill="#181818" points="810.13,754.74,809.5524,744.9081,807.8348,750.2979,802.445,748.5804,810.13,754.74" style="stroke:#181818;stroke-width:1;stroke-linejoin:miter;stroke-miterlimit:10;"/><text fill="#000000" font-family="sans-serif" font-size="13" lengthAdjust="spacing" textLength="130.7935" x="664" y="650.4951">monitors channel state</text></g><!--link HTTP Proxy to Channel Manager--><g class="link" data-entity-1="ent0003" data-entity-2="ent0004" data-link-type="dependency" data-source-line="41" id="lnk23"><path d="M669.47,454.14 C664.07,463.04 658.75,473.57 656,484 C651.78,500.04 654.7824,513.4992 660.6924,527.3892" fill="none" id="HTTP Proxy-to-Channel Manager" style="stroke:#181818;stroke-width:1;"/><polygon fill="#181818" points="662.65,531.99,662.807,522.1424,660.6924,527.3892,655.4456,525.2745,662.65,531.99" style="stroke:#181818;stroke-width:1;stroke-linejoin:miter;stroke-miterlimit:10;"/><text fill="#000000" font-family="sans-serif" font-size="13" lengthAdjust="spacing" textLength="137.2871" x="657" y="498.4951">checks activation status</text></g><!--link HTTP Proxy to Upstream Server--><g class="link" data-entity-1="ent0003" data-entity-2="ent0016" data-link-type="dependency" data-source-line="42" id="lnk24"><path d="M744.09,445.01 C764.76,452.98 786.09,465.27 799,484 C857.38,568.71 838.6781,696.7468 827.4981,749.9568" fill="none" id="HTTP Proxy-to-Upstream Server" style="stroke:#181818;stroke-width:1;"/><polygon fill="#181818" points="826.47,754.85,832.2351,746.8648,827.4981,749.9568,824.4061,745.2198,826.47,754.85" style="stroke:#181818;stroke-width:1;stroke-linejoin:miter;stroke-miterlimit:10;"/><text fill="#000000" font-family="sans-serif" font-size="13" lengthAdjust="spacing" textLength="184.2407" x="839" y="561.4951">forwards requests (when active)</text></g><!--link Test Server to Download Endpoint--><g class="link" data-entity-1="ent0006" data-entity-2="ent0008" data-link-type="dependency" data-source-line="44" id="lnk25"><path d="M334.45,299.01 C349.89,307.42 365.8,318.1 378,331 C398.31,352.47 410.0713,379.4393 417.4213,400.9193" fill="none" id="Test Server-to-Download Endpoint" style="stroke:#181818;stroke-width:1;"/><polygon fill="#181818" points="419.04,405.65,419.9108,395.8397,417.4213,400.9193,412.3417,398.4297,419.04,405.65" style="stroke:#181818;stroke-width:1;stroke-linejoin:miter;stroke-miterlimit:10;"/><text fill="#000000" font-family="sans-serif" font-size="13" lengthAdjust="spacing" textLength="124.2871" x="391" y="345.4951">serves file downloads</text></g><!--link Test Server to Upload Endpoint--><g class="link" data-entity-1="ent0006" data-entity-2="ent0009" data-link-type="dependency" data-source-line="45" id="lnk26"><path d="M260.95,299.23 C254.38,308.55 247.74,319.74 244,331 C235.84,355.59 235.0456,380.5346 235.9156,400.8046" fill="none" id="Test Server-to-Upload Endpoint" style="stroke:#181818;stroke-width:1;"/><polygon fill="#181818" points="236.13,405.8,239.7404,396.6368,235.9156,400.8046,231.7477,396.9798,236.13,405.8" style="stroke:#181818;stroke-width:1;stroke-linejoin:miter;stroke-miterlimit:10;"/><text fill="#000000" font-family="sans-serif" font-size="13" lengthAdjust="spacing" textLength="128.6289" x="245" y="345.4951">processes file uploads</text></g><!--link Upload Endpoint to Test Server--><g class="link" data-entity-1="ent0009" data-entity-2="ent0006" data-link-type="dependency" data-source-line="56" id="lnk35"><path d="M171.87,405.89 C132.36,388.29 93.79,361.88 116,331 C140.38,297.11 181.676,284.4867 218.866,279.4067" fill="none" id="Upload Endpoint-to-Test Server" style="stroke:#181818;stroke-width:1;"/><polygon fill="#181818" points="223.82,278.73,214.3614,275.9849,218.866,279.4067,215.4442,283.9112,223.82,278.73" style="stroke:#181818;stroke-width:1;stroke-linejoin:miter;stroke-miterlimit:10;"/><text fill="#000000" font-family="sans-serif" font-size="13" lengthAdjust="spacing" textLength="114.8926" x="117" y="345.4951">returns filepath map</text></g><!--link Download Endpoint to File Handler--><g class="link" data-entity-1="ent0008" data-entity-2="ent0007" data-link-type="dependency" data-source-line="46" id="lnk27"><path d="M426,454.03 C426,476.17 426,504.44 426,526.67" fill="none" id="Download Endpoint-to-File Handler" style="stroke:#181818;stroke-width:1;"/><polygon fill="#181818" points="426,531.67,430,522.67,426,526.67,422,522.67,426,531.67" style="stroke:#181818;stroke-width:1;stroke-linejoin:miter;stroke-miterlimit:10;"/><text fill="#000000" font-family="sans-serif" font-size="13" lengthAdjust="spacing" textLength="98.9917" x="427" y="498.4951">retrieves file data</text></g><!--link Upload Endpoint to File Handler--><g class="link" data-entity-1="ent0009" data-entity-2="ent0007" data-link-type="dependency" data-source-line="47" id="lnk28"><path d="M252.69,454 C263.42,469.3 279.18,488.9 297,502 C318.27,517.63 340.112,527.8386 363.582,536.3886" fill="none" id="Upload Endpoint-to-File Handler" style="stroke:#181818;stroke-width:1;"/><polygon fill="#181818" points="368.28,538.1,361.1928,531.261,363.582,536.3886,358.4545,538.7778,368.28,538.1" style="stroke:#181818;stroke-width:1;stroke-linejoin:miter;stroke-miterlimit:10;"/><text fill="#000000" font-family="sans-serif" font-size="13" lengthAdjust="spacing" textLength="119.2407" x="298" y="498.4951">stores uploaded files</text></g><!--link File Handler to Local Filesystem--><g class="link" data-entity-1="ent0007" data-entity-2="ent0017" data-link-type="dependency" data-source-line="48" id="lnk29"><path d="M449.65,580.23 C493.09,622.9 581.483,709.7162 624.433,751.9062" fill="none" id="File Handler-to-Local Filesystem" style="stroke:#181818;stroke-width:1;"/><polygon fill="#181818" points="628,755.41,624.3826,746.2495,624.433,751.9062,618.7764,751.9567,628,755.41" style="stroke:#181818;stroke-width:1;stroke-linejoin:miter;stroke-miterlimit:10;"/><text fill="#000000" font-family="sans-serif" font-size="13" lengthAdjust="spacing" textLength="96.8081" x="519" y="650.4951">reads/writes files</text></g><!--link Test Client to Async HTTP Client--><g class="link" data-entity-1="ent0012" data-entity-2="ent0021" data-link-type="dependency" data-source-line="50" id="lnk30"><path d="M837.71,281.35 C912.82,289.58 1044.66,306.94 1086,331 C1162.62,375.6 1183.74,400.67 1214,484 C1249.47,581.67 1192.1249,700.2955 1163.4649,750.6055" fill="none" id="Test Client-to-Async HTTP Client" style="stroke:#181818;stroke-width:1;"/><polygon fill="#181818" points="1160.99,754.95,1168.9205,749.1098,1163.4649,750.6055,1161.9693,745.1499,1160.99,754.95" style="stroke:#181818;stroke-width:1;stroke-linejoin:miter;stroke-miterlimit:10;"/><text fill="#000000" font-family="sans-serif" font-size="13" lengthAdjust="spacing" textLength="125.7344" x="1220" y="498.4951">sends async requests</text></g><!--link Test Client to HTTP Proxy--><g class="link" data-entity-1="ent0012" data-entity-2="ent0003" data-link-type="dependency" data-source-line="51" id="lnk31"><path d="M769.12,299.24 C750.7,327.99 722.208,372.4804 703.718,401.3304" fill="none" id="Test Client-to-HTTP Proxy" style="stroke:#181818;stroke-width:1;"/><polygon fill="#181818" points="701.02,405.54,709.244,400.121,703.718,401.3304,702.5086,395.8043,701.02,405.54" style="stroke:#181818;stroke-width:1;stroke-linejoin:miter;stroke-miterlimit:10;"/><text fill="#000000" font-family="sans-serif" font-size="13" lengthAdjust="spacing" textLength="185.7007" x="747" y="345.4951">routes requests for proxy testing</text></g><!--link Async HTTP Client to Grizzly/Jersey HTTP Server--><g class="link" data-entity-1="ent0021" data-entity-2="ent0019" data-link-type="dependency" data-source-line="52" id="lnk32"><path d="M1144.87,803.24 C1142.24,831.99 1138.2456,875.7108 1135.6056,904.5608" fill="none" id="Async HTTP Client-to-Grizzly/Jersey HTTP Server" style="stroke:#181818;stroke-width:1;"/><polygon fill="#181818" points="1135.15,909.54,1139.9535,900.942,1135.6056,904.5608,1131.9868,900.2129,1135.15,909.54" style="stroke:#181818;stroke-width:1;stroke-linejoin:miter;stroke-miterlimit:10;"/><text fill="#000000" font-family="sans-serif" font-size="13" lengthAdjust="spacing" textLength="114.1689" x="1142" y="849.4951">executes workloads</text></g><!--link Request Queue to HTTP Proxy--><g class="link" data-entity-1="ent0010" data-entity-2="ent0003" data-link-type="dependency" data-source-line="54" id="lnk33"><path d="M506.2,299.24 C546.16,328.08 609.8559,374.0436 649.7959,402.8736" fill="none" id="Request Queue-to-HTTP Proxy" style="stroke:#181818;stroke-width:1;"/><polygon fill="#181818" points="653.85,405.8,648.8937,397.2891,649.7959,402.8736,644.2114,403.7758,653.85,405.8" style="stroke:#181818;stroke-width:1;stroke-linejoin:miter;stroke-miterlimit:10;"/><text fill="#000000" font-family="sans-serif" font-size="13" lengthAdjust="spacing" textLength="142.3716" x="574" y="345.4951">retains inbound requests</text></g><!--link Test Server to Upstream Server--><g class="link" data-entity-1="ent0006" data-entity-2="ent0016" data-link-type="dependency" data-source-line="55" id="lnk34"><path d="M322.31,299.05 C341.72,308.4 365.41,318.13 388,323 C403.02,326.24 928.15,322.58 941,331 C998.74,368.83 1063.66,566.66 1032,628 C1000.26,689.51 934.8849,729.1941 884.2149,752.7241" fill="none" id="Test Server-to-Upstream Server" style="stroke:#181818;stroke-width:1;"/><polygon fill="#181818" points="879.68,754.83,889.5275,754.6673,884.2149,752.7241,886.1581,747.4115,879.68,754.83" style="stroke:#181818;stroke-width:1;stroke-linejoin:miter;stroke-miterlimit:10;"/><text fill="#000000" font-family="sans-serif" font-size="13" lengthAdjust="spacing" textLength="151.7471" x="1029" y="498.4951">integration communication</text></g><!--link Structured Response Builder to Test Client--><g class="link" data-entity-1="ent0014" data-entity-2="ent0012" data-link-type="dependency" data-source-line="58" id="lnk36"><path d="M784,144.24 C784,172.99 784,216.69 784,245.54" fill="none" id="Structured Response Builder-to-Test Client" style="stroke:#181818;stroke-width:1;"/><polygon fill="#181818" points="784,250.54,788,241.54,784,245.54,780,241.54,784,250.54" style="stroke:#181818;stroke-width:1;stroke-linejoin:miter;stroke-miterlimit:10;"/><text fill="#000000" font-family="sans-serif" font-size="13" lengthAdjust="spacing" textLength="151.0298" x="785" y="190.4951">provides response objects</text></g><?plantuml-src XLHDRzim3BtxLn2-T3iKlVSmO4lQ5KKxT4swkoAnYLPRyaGfYJlilu-MdSQEbSI70B7UX_X8-WAcM1MsBj5u-64LKcRu5_BxNuzmOzRQMTESvV0t0txQmoTdjpKyY1hTxg1vf2qhQngb_6u-Vu88orF7avKm1Wju54OiMIHY_cKzYpcIXncwDRgJHZrSqkbM5mXtmgZY261gDwQmGd6rghAQIqsXNghpc6Vy4vhR_0mOy5X9aq8tuBCbjRY4obHuSP8-yov87nmgU4RYjuJmBUX2xNDcGLdOe22_sNfqHXGmgybZISC-lrJa7Ofo4B3Y2om4Y-OFLZApIPWYE-_VyxlJx-z5VNMFZh26E11TFnDpTL33SN8YaQzK6xbYGHkeXNOXd_U9r3wdbz05J3w0l2He51gfUK56qmkNbr_6OS4rbDPeRns1x1ZaXSUilnqjTwHupHIKRmH2UhqMNbiJoO4Ix8JpgtKRuHI1QuUIuDDcXQQLmyzPDbYSLcQy2In43OBWjLaZrG4enJxS4EPMpaeasj53rP4JHb5YiAlCT-YTnhqz3ruszabIYMDdNcl9cz08iFCG5fcZ8Ox6VC-hZTE-ywPTODsKjDJnzCJ03CSkuj4k_1IvtqLsjA7n-kWMzw-9Zx-o_DfhiynIRb7enAwmC6vHHkcDTMzj_jd1bofv7_H26m9j5ZOOTLZ9GUT7uyUDmQLhnvRNhGn6o_ZlMFy6gj4-EDDcNmc_Wb9KVEzJdxQUphuP7E5QgnXi1xUBtoYvZly0?></g></svg>