<svg xmlns="http://www.w3.org/2000/svg" xmlns:xlink="http://www.w3.org/1999/xlink" contentStyleType="text/css" data-diagram-type="DESCRIPTION" height="856px" preserveAspectRatio="none" style="width:1012px;height:856px;background:#FFFFFF;" version="1.1" viewBox="0 0 1012 856" width="1012px" zoomAndPan="magnify"><?plantuml 1.2026.6?><defs/><g><g class="title" data-source-line="1"><text fill="#000000" font-family="sans-serif" font-size="14" font-weight="700" lengthAdjust="spacing" textLength="531.3301" x="237.2154" y="24.5332">Nobel Prize Laureates Autocomplete System - Component/Deployment Diagram</text></g><!--cluster Web Browser--><g class="cluster" data-qualified-name="Web Browser" data-source-line="6" id="ent0001"><polygon fill="none" points="188.7609,54.6094,198.7609,44.6094,384.7609,44.6094,384.7609,129.6094,374.7609,139.6094,188.7609,139.6094,188.7609,54.6094" style="stroke:#181818;stroke-width:1;stroke-linejoin:miter;stroke-miterlimit:10;"/><line style="stroke:#181818;stroke-width:1;" x1="374.7609" x2="384.7609" y1="54.6094" y2="44.6094"/><line style="stroke:#181818;stroke-width:1;" x1="188.7609" x2="374.7609" y1="54.6094" y2="54.6094"/><line style="stroke:#181818;stroke-width:1;" x1="374.7609" x2="374.7609" y1="54.6094" y2="139.6094"/><text fill="#000000" font-family="sans-serif" font-size="14" font-weight="700" lengthAdjust="spacing" textLength="89.4619" x="238.03" y="72.1426">Web Browser</text></g><!--cluster Heroku--><g class="cluster" data-qualified-name="Heroku" data-source-line="10" id="ent0003"><path d="M52.0639,200.4692 C68.2346,174.2697 94.8801,179.0562 107.9095,203.9057 C122.0408,176.4975 151.0344,168.4449 170.6276,197.8792 C182.6664,175.3847 205.9404,172.4086 220.1176,195.5608 C242.4107,165.7732 267.3883,169.9717 283.4767,201.9278 C297.7206,177.3232 315.5237,171.2398 335.2156,196.246 C348.3405,165.6725 371.1909,163.1094 390.4842,190.3491 C411.1877,160.3292 433.6265,167.4754 449.7806,195.0342 C466.7553,167.5264 485.36,164.342 506.0055,191.2407 C523.9992,161.2042 551.3622,158.7504 568.3175,192.2589 C589.7011,163.2385 614.6555,168.314 626.0297,201.5393 C641.3621,173.7924 664.3636,174.2998 681.825,199.2867 C698.6064,168.8554 720.3216,166.1426 739.9701,196.5463 C758.5189,173.1282 780.4205,178.0434 791.6978,204.1424 C807.0118,172.1827 836.8864,180.0361 851.7609,204.6094 C854.7642,204.0528 856.7028,205.3721 855.9762,208.679 C880.5584,229.4031 886.945,247.854 856.3746,268.9427 C883.8005,283.2633 889.3659,305.7158 860.7944,324.4919 C892.0207,338.6611 892.3848,366.436 865.4247,385.0539 C890.7709,404.8098 890.8093,421.1479 863.4716,438.9963 C891.3186,457.1755 890.7379,479.8442 864.8054,499.2146 C887.8012,517.3687 889.8162,534.6396 864.6107,552.6181 C891.3207,572.8564 892.3624,593.3353 862.081,611.1088 C885.331,635.0583 876.5536,661.2395 844.7609,668.6094 C847.7153,667.6108 849.1426,669.3997 848.5335,672.1732 C834.0415,696.7509 817.351,701.2751 797.3644,678.0555 C778.3942,704.4902 755.1166,700.2243 740.383,673.5132 C725.7874,707.5266 700.2321,709.3696 679.6205,679.2094 C665.6406,711.1413 635.226,711.8624 618.3765,682.056 C598.769,708.1129 578.8966,711.1536 560.9569,680.3711 C542.9374,710.3273 524.7551,704.2981 506.1559,680.9672 C491.9684,705.5861 475.4179,705.9835 455.8425,687.2151 C436.8319,717.6243 417.076,720.0216 396.9164,688.3049 C374.9145,719.1942 345.3888,710.6815 334.2609,677.6466 C323.2426,705.9185 301.4421,705.4828 283.8763,684.3198 C261.4563,710.0932 237.2207,706.7836 220.7998,677.4527 C204.2712,706.7551 184.0364,707.4885 166.2325,678.6497 C147.0726,703.3847 119.622,706.9289 106.1338,672.8536 C82.1231,699.0278 54.8727,692.9863 40.7609,661.6094 C45.9117,662.2756 48.1047,666.2303 45.4867,670.8637 C16.3682,654.8528 18.9534,625.5921 46.0043,610.0594 C15.3284,595.0113 14.2679,570.9623 38.9294,549.4543 C12.4462,534.2228 9.5423,512.0804 36.3371,494.3428 C9.1752,475.6347 6,453.6726 35.5498,434.2218 C10.2466,413.8108 16.2987,390.8032 42.188,376.2544 C17.1548,363.1536 14.7735,337.9545 39.6708,322.515 C20.8837,305.2171 19.4806,281.8543 46.6561,270.76 C17.6506,249.4113 14.0456,218.0107 47.7609,197.6094 C50.309,196.6032 52.0988,197.5889 52.0639,200.4692" fill="none" style="stroke:#181818;stroke-width:1;"/><text fill="#000000" font-family="sans-serif" font-size="14" font-weight="700" lengthAdjust="spacing" textLength="48.2344" x="422.1437" y="217.1426">Heroku</text></g><!--cluster Node.js Runtime--><g class="cluster" data-qualified-name="Heroku.Node.js Runtime" data-source-line="11" id="ent0004"><polygon fill="none" points="56.7609,243.6094,66.7609,233.6094,621.7609,233.6094,621.7609,642.6094,611.7609,652.6094,56.7609,652.6094,56.7609,243.6094" style="stroke:#181818;stroke-width:1;stroke-linejoin:miter;stroke-miterlimit:10;"/><line style="stroke:#181818;stroke-width:1;" x1="611.7609" x2="621.7609" y1="243.6094" y2="233.6094"/><line style="stroke:#181818;stroke-width:1;" x1="56.7609" x2="611.7609" y1="243.6094" y2="243.6094"/><line style="stroke:#181818;stroke-width:1;" x1="611.7609" x2="611.7609" y1="243.6094" y2="652.6094"/><text fill="#000000" font-family="sans-serif" font-size="14" font-weight="700" lengthAdjust="spacing" textLength="110.4551" x="280.0334" y="261.1426">Node.js Runtime</text></g><!--cluster Routing Layer--><g class="cluster" data-qualified-name="Heroku.Node.js Runtime.Routing Layer" data-source-line="12" id="ent0005"><path d="M222.2609,282.6094 L317.3781,282.6094 A3.75,3.75 0 0 1 319.8781,285.1094 L326.8781,306.2188 L351.2609,306.2188 A2.5,2.5 0 0 1 353.7609,308.7188 L353.7609,370.1094 A2.5,2.5 0 0 1 351.2609,372.6094 L222.2609,372.6094 A2.5,2.5 0 0 1 219.7609,370.1094 L219.7609,285.1094 A2.5,2.5 0 0 1 222.2609,282.6094" fill="none" style="stroke:#000000;stroke-width:1.5;"/><line style="stroke:#000000;stroke-width:1.5;" x1="219.7609" x2="326.8781" y1="306.2188" y2="306.2188"/><text fill="#000000" font-family="sans-serif" font-size="14" font-weight="700" lengthAdjust="spacing" textLength="94.1172" x="223.7609" y="299.1426">Routing Layer</text></g><!--cluster Handler Module--><g class="cluster" data-qualified-name="Heroku.Node.js Runtime.Handler Module" data-source-line="16" id="ent0007"><path d="M440.2609,422.6094 L546.2677,422.6094 A3.75,3.75 0 0 1 548.7677,425.1094 L555.7677,446.2188 L593.2609,446.2188 A2.5,2.5 0 0 1 595.7609,448.7188 L595.7609,510.1094 A2.5,2.5 0 0 1 593.2609,512.6094 L440.2609,512.6094 A2.5,2.5 0 0 1 437.7609,510.1094 L437.7609,425.1094 A2.5,2.5 0 0 1 440.2609,422.6094" fill="none" style="stroke:#000000;stroke-width:1.5;"/><line style="stroke:#000000;stroke-width:1.5;" x1="437.7609" x2="555.7677" y1="446.2188" y2="446.2188"/><text fill="#000000" font-family="sans-serif" font-size="14" font-weight="700" lengthAdjust="spacing" textLength="105.0068" x="441.7609" y="439.1426">Handler Module</text></g><!--cluster Data Access Layer--><g class="cluster" data-qualified-name="Heroku.Data Access Layer" data-source-line="25" id="ent0012"><path d="M648.2609,562.6094 L773.7843,562.6094 A3.75,3.75 0 0 1 776.2843,565.1094 L783.2843,586.2188 L833.2609,586.2188 A2.5,2.5 0 0 1 835.7609,588.7188 L835.7609,650.1094 A2.5,2.5 0 0 1 833.2609,652.6094 L648.2609,652.6094 A2.5,2.5 0 0 1 645.7609,650.1094 L645.7609,565.1094 A2.5,2.5 0 0 1 648.2609,562.6094" fill="none" style="stroke:#000000;stroke-width:1.5;"/><line style="stroke:#000000;stroke-width:1.5;" x1="645.7609" x2="783.2843" y1="586.2188" y2="586.2188"/><text fill="#000000" font-family="sans-serif" font-size="14" font-weight="700" lengthAdjust="spacing" textLength="124.5234" x="649.7609" y="579.1426">Data Access Layer</text></g><!--cluster File System--><g class="cluster" data-qualified-name="File System" data-source-line="30" id="ent0014"><path d="M614.7609,736.6094 C614.7609,726.6094 801.2609,726.6094 801.2609,726.6094 C801.2609,726.6094 987.7609,726.6094 987.7609,736.6094 L987.7609,821.6094 C987.7609,831.6094 801.2609,831.6094 801.2609,831.6094 C801.2609,831.6094 614.7609,831.6094 614.7609,821.6094 L614.7609,736.6094" fill="none" style="stroke:#181818;stroke-width:1;"/><path d="M614.7609,736.6094 C614.7609,746.6094 801.2609,746.6094 801.2609,746.6094 C801.2609,746.6094 987.7609,746.6094 987.7609,736.6094" fill="none" style="stroke:#181818;stroke-width:1;"/><text fill="#000000" font-family="sans-serif" font-size="14" font-weight="700" lengthAdjust="spacing" textLength="77.8135" x="762.3542" y="763.1426">File System</text></g><!--entity Frontend Input Handler--><g class="entity" data-qualified-name="Web Browser.Frontend Input Handler" data-source-line="7" id="ent0002"><rect fill="#F1F1F1" height="37.6094" rx="2.5" ry="2.5" style="stroke:#181818;stroke-width:0.5;" width="163.9785" x="204.7609" y="85.6094"/><text fill="#000000" font-family="sans-serif" font-size="14" lengthAdjust="spacing" textLength="143.9785" x="214.7609" y="110.1426">Frontend Input Handler</text></g><!--entity Autocomplete Algorithm--><g class="entity" data-qualified-name="Heroku.Node.js Runtime.Autocomplete Algorithm" data-source-line="20" id="ent0009"><rect fill="#F1F1F1" height="37.6094" rx="2.5" ry="2.5" style="stroke:#181818;stroke-width:0.5;" width="168.627" x="77.2609" y="458.6094"/><text fill="#000000" font-family="sans-serif" font-size="14" lengthAdjust="spacing" textLength="148.627" x="87.2609" y="483.1426">Autocomplete Algorithm</text></g><!--entity NotFound Handler--><g class="entity" data-qualified-name="Heroku.Node.js Runtime.NotFound Handler" data-source-line="21" id="ent0010"><rect fill="#F1F1F1" height="37.6094" rx="2.5" ry="2.5" style="stroke:#181818;stroke-width:0.5;" width="134.3994" x="283.7609" y="458.6094"/><text fill="#000000" font-family="sans-serif" font-size="14" lengthAdjust="spacing" textLength="114.3994" x="293.7609" y="483.1426">NotFound Handler</text></g><!--entity Content-Type Mapper--><g class="entity" data-qualified-name="Heroku.Node.js Runtime.Content-Type Mapper" data-source-line="22" id="ent0011"><rect fill="#F1F1F1" height="37.6094" rx="2.5" ry="2.5" style="stroke:#181818;stroke-width:0.5;" width="156.1787" x="275.7609" y="598.6094"/><text fill="#000000" font-family="sans-serif" font-size="14" lengthAdjust="spacing" textLength="136.1787" x="285.7609" y="623.1426">Content-Type Mapper</text></g><!--entity HTTP Router--><g class="entity" data-qualified-name="Heroku.Node.js Runtime.Routing Layer.HTTP Router" data-source-line="13" id="ent0006"><rect fill="#F1F1F1" height="37.6094" rx="2.5" ry="2.5" style="stroke:#181818;stroke-width:0.5;" width="102.4619" x="235.7609" y="318.6094"/><text fill="#000000" font-family="sans-serif" font-size="14" lengthAdjust="spacing" textLength="82.4619" x="245.7609" y="343.1426">HTTP Router</text></g><!--entity Request Handler--><g class="entity" data-qualified-name="Heroku.Node.js Runtime.Handler Module.Request Handler" data-source-line="17" id="ent0008"><rect fill="#F1F1F1" height="37.6094" rx="2.5" ry="2.5" style="stroke:#181818;stroke-width:0.5;" width="125.0615" x="454.2609" y="458.6094"/><text fill="#000000" font-family="sans-serif" font-size="14" lengthAdjust="spacing" textLength="105.0615" x="464.2609" y="483.1426">Request Handler</text></g><!--entity Laureate Data Source--><g class="entity" data-qualified-name="Heroku.Data Access Layer.Laureate Data Source" data-source-line="26" id="ent0013"><rect fill="#F1F1F1" height="37.6094" rx="2.5" ry="2.5" style="stroke:#181818;stroke-width:0.5;" width="156.9785" x="662.2609" y="598.6094"/><text fill="#000000" font-family="sans-serif" font-size="14" lengthAdjust="spacing" textLength="136.9785" x="672.2609" y="623.1426">Laureate Data Source</text></g><!--entity Public Assets Directory--><g class="entity" data-qualified-name="File System.Public Assets Directory" data-source-line="31" id="ent0015"><rect fill="#F1F1F1" height="37.6094" rx="2.5" ry="2.5" style="stroke:#181818;stroke-width:0.5;" width="163.9307" x="807.7609" y="777.6094"/><text fill="#000000" font-family="sans-serif" font-size="14" lengthAdjust="spacing" textLength="143.9307" x="817.7609" y="802.1426">Public Assets Directory</text></g><!--entity Laureate Data Files--><g class="entity" data-qualified-name="File System.Laureate Data Files" data-source-line="32" id="ent0016"><rect fill="#F1F1F1" height="37.6094" rx="2.5" ry="2.5" style="stroke:#181818;stroke-width:0.5;" width="142.1787" x="630.7609" y="777.6094"/><text fill="#000000" font-family="sans-serif" font-size="14" lengthAdjust="spacing" textLength="122.1787" x="640.7609" y="802.1426">Laureate Data Files</text></g><!--link Frontend Input Handler to HTTP Router--><g class="link" data-entity-1="ent0002" data-entity-2="ent0006" data-link-type="dependency" data-source-line="36" id="lnk17"><path d="M286.7609,123.7394 C286.7609,166.9194 286.7609,270.4694 286.7609,313.5694" fill="none" id="Frontend Input Handler-to-HTTP Router" style="stroke:#181818;stroke-width:1;"/><polygon fill="#181818" points="286.7609,318.5694,290.7609,309.5694,286.7609,313.5694,282.7609,309.5694,286.7609,318.5694" style="stroke:#181818;stroke-width:1;stroke-linejoin:miter;stroke-miterlimit:10;"/><text fill="#000000" font-family="sans-serif" font-size="13" lengthAdjust="spacing" textLength="140.9053" x="287.7609" y="170.1045">Initiates search requests</text></g><!--link HTTP Router to Autocomplete Algorithm--><g class="link" data-entity-1="ent0006" data-entity-2="ent0009" data-link-type="dependency" data-source-line="37" id="lnk18"><path d="M235.6109,340.2594 C200.1809,344.3994 155.3109,356.2694 131.7609,388.6094 C116.3709,409.7494 129.5096,435.3407 143.4096,454.2507" fill="none" id="HTTP Router-to-Autocomplete Algorithm" style="stroke:#181818;stroke-width:1;"/><polygon fill="#181818" points="146.3709,458.2794,144.2635,448.6586,143.4096,454.2507,137.8175,453.3968,146.3709,458.2794" style="stroke:#181818;stroke-width:1;stroke-linejoin:miter;stroke-miterlimit:10;"/><text fill="#000000" font-family="sans-serif" font-size="13" lengthAdjust="spacing" textLength="137.2935" x="132.7609" y="403.1045">Routes search requests</text></g><!--link HTTP Router to Request Handler--><g class="link" data-entity-1="ent0006" data-entity-2="ent0008" data-link-type="dependency" data-source-line="38" id="lnk19"><path d="M337.8409,349.2194 C367.7309,356.9894 405.2509,369.5594 434.7609,388.6094 C463.8809,407.4094 486.7559,434.8034 501.3159,454.5734" fill="none" id="HTTP Router-to-Request Handler" style="stroke:#181818;stroke-width:1;"/><polygon fill="#181818" points="504.2809,458.5994,502.1647,448.9806,501.3159,454.5734,495.7231,453.7246,504.2809,458.5994" style="stroke:#181818;stroke-width:1;stroke-linejoin:miter;stroke-miterlimit:10;"/><text fill="#000000" font-family="sans-serif" font-size="13" lengthAdjust="spacing" textLength="130.7935" x="455.7609" y="403.1045">Routes home requests</text></g><!--link HTTP Router to NotFound Handler--><g class="link" data-entity-1="ent0006" data-entity-2="ent0010" data-link-type="dependency" data-source-line="39" id="lnk20"><path d="M282.0109,356.6194 C279.2109,370.7294 277.3309,390.5994 283.7609,406.6094 C292.2209,427.6894 306.5323,442.8196 321.8223,455.4196" fill="none" id="HTTP Router-to-NotFound Handler" style="stroke:#181818;stroke-width:1;"/><polygon fill="#181818" points="325.6809,458.5994,321.2792,449.7889,321.8223,455.4196,316.1916,455.9627,325.6809,458.5994" style="stroke:#181818;stroke-width:1;stroke-linejoin:miter;stroke-miterlimit:10;"/><text fill="#000000" font-family="sans-serif" font-size="13" lengthAdjust="spacing" textLength="145.2407" x="284.7609" y="403.1045">Routes unmatched URLs</text></g><!--link Autocomplete Algorithm to Laureate Data Source--><g class="link" data-entity-1="ent0009" data-entity-2="ent0013" data-link-type="dependency" data-source-line="40" id="lnk21"><path d="M200.9009,496.7994 C220.3409,505.1694 244.3909,514.5694 266.7609,520.6094 C290.1809,526.9394 297.8109,520.7494 320.7609,528.6094 C336.2009,533.8894 337.0409,542.2394 352.7609,546.6094 C410.3809,562.6194 563.8909,539.5194 621.7609,554.6094 C655.8009,563.4794 686.872,580.7604 710.092,595.6504" fill="none" id="Autocomplete Algorithm-to-Laureate Data Source" style="stroke:#181818;stroke-width:1;"/><polygon fill="#181818" points="714.3009,598.3494,708.884,590.124,710.092,595.6504,704.5656,596.8583,714.3009,598.3494" style="stroke:#181818;stroke-width:1;stroke-linejoin:miter;stroke-miterlimit:10;"/><text fill="#000000" font-family="sans-serif" font-size="13" lengthAdjust="spacing" textLength="117.0825" x="353.7609" y="543.1045">Reads laureate data</text></g><!--link Request Handler to Laureate Data Source--><g class="link" data-entity-1="ent0008" data-entity-2="ent0013" data-link-type="dependency" data-source-line="41" id="lnk22"><path d="M559.3709,496.6494 C578.8409,505.4594 601.9409,516.7094 621.7609,528.6094 C657.4509,550.0294 691.7351,576.4329 714.9651,595.2429" fill="none" id="Request Handler-to-Laureate Data Source" style="stroke:#181818;stroke-width:1;"/><polygon fill="#181818" points="718.8509,598.3894,714.3736,589.6171,714.9651,595.2429,709.3392,595.8344,718.8509,598.3894" style="stroke:#181818;stroke-width:1;stroke-linejoin:miter;stroke-miterlimit:10;"/><text fill="#000000" font-family="sans-serif" font-size="13" lengthAdjust="spacing" textLength="143.8125" x="649.7609" y="543.1045">Gets data for home page</text></g><!--link NotFound Handler to Laureate Data Source--><g class="link" data-entity-1="ent0010" data-entity-2="ent0013" data-link-type="dependency" data-source-line="42" id="lnk23"><path d="M382.9609,496.6594 C399.0109,504.9894 418.9709,514.3994 437.7609,520.6094 C455.8009,526.5694 461.6709,522.8094 479.7609,528.6094 C497.9409,534.4394 500.2909,541.7994 518.7609,546.6094 C563.1909,558.1894 577.6209,541.9694 621.7609,554.6094 C655.3509,564.2294 686.1948,581.2032 709.4948,595.8132" fill="none" id="NotFound Handler-to-Laureate Data Source" style="stroke:#181818;stroke-width:1;"/><polygon fill="#181818" points="713.7309,598.4694,708.2309,590.2993,709.4948,595.8132,703.981,597.0771,713.7309,598.4694" style="stroke:#181818;stroke-width:1;stroke-linejoin:miter;stroke-miterlimit:10;"/><text fill="#000000" font-family="sans-serif" font-size="13" lengthAdjust="spacing" textLength="138.7407" x="519.7609" y="543.1045">Gets data for error page</text></g><!--link Request Handler to Public Assets Directory--><g class="link" data-entity-1="ent0008" data-entity-2="ent0015" data-link-type="dependency" data-source-line="43" id="lnk24"><path d="M579.5409,481.0694 C638.9909,485.3394 729.6509,496.9894 801.7609,528.6094 C819.1809,536.2494 825.5109,538.5894 835.7609,554.6094 C882.3209,627.3894 888.9526,729.9102 889.7026,772.3902" fill="none" id="Request Handler-to-Public Assets Directory" style="stroke:#181818;stroke-width:1;"/><polygon fill="#181818" points="889.7909,777.3894,893.6314,768.3202,889.7026,772.3902,885.6327,768.4614,889.7909,777.3894" style="stroke:#181818;stroke-width:1;stroke-linejoin:miter;stroke-miterlimit:10;"/><text fill="#000000" font-family="sans-serif" font-size="13" lengthAdjust="spacing" textLength="101.1436" x="881.7609" y="623.1045">Serves static files</text></g><!--link Request Handler to Content-Type Mapper--><g class="link" data-entity-1="ent0008" data-entity-2="ent0011" data-link-type="dependency" data-source-line="44" id="lnk25"><path d="M495.0509,496.6494 C482.8509,505.6594 466.8609,515.6694 450.7609,520.6094 C436.2009,525.0794 187.3709,517.6894 176.7609,528.6094 C139.7009,566.7694 207.5061,589.9592 270.6461,603.1192" fill="none" id="Request Handler-to-Content-Type Mapper" style="stroke:#181818;stroke-width:1;"/><polygon fill="#181818" points="275.5409,604.1394,267.5464,598.3872,270.6461,603.1192,265.9141,606.2189,275.5409,604.1394" style="stroke:#181818;stroke-width:1;stroke-linejoin:miter;stroke-miterlimit:10;"/><text fill="#000000" font-family="sans-serif" font-size="13" lengthAdjust="spacing" textLength="138.7026" x="177.7609" y="543.1045">Determines MIME types</text></g><!--link Content-Type Mapper to Public Assets Directory--><g class="link" data-entity-1="ent0011" data-entity-2="ent0015" data-link-type="dependency" data-source-line="45" id="lnk26"><path d="M385.0009,636.7194 C425.1009,658.8794 497.5409,695.3494 564.7609,710.6094 C613.7709,721.7394 743.5209,701.4594 790.7609,718.6094 C824.1209,730.7194 851.6576,755.0423 869.7876,773.7123" fill="none" id="Content-Type Mapper-to-Public Assets Directory" style="stroke:#181818;stroke-width:1;"/><polygon fill="#181818" points="873.2709,777.2994,869.8706,768.0561,869.7876,773.7123,864.1314,773.6293,873.2709,777.2994" style="stroke:#181818;stroke-width:1;stroke-linejoin:miter;stroke-miterlimit:10;"/><text fill="#000000" font-family="sans-serif" font-size="13" lengthAdjust="spacing" textLength="146.688" x="565.7609" y="707.1045">Maps extensions to types</text></g><!--link Laureate Data Source to Laureate Data Files--><g class="link" data-entity-1="ent0013" data-entity-2="ent0016" data-link-type="dependency" data-source-line="46" id="lnk27"><path d="M736.7309,636.8894 C729.2409,670.8894 714.3173,738.6166 706.8373,772.5466" fill="none" id="Laureate Data Source-to-Laureate Data Files" style="stroke:#181818;stroke-width:1;"/><polygon fill="#181818" points="705.7609,777.4294,711.6047,769.5016,706.8373,772.5466,703.7923,767.7793,705.7609,777.4294" style="stroke:#181818;stroke-width:1;stroke-linejoin:miter;stroke-miterlimit:10;"/><text fill="#000000" font-family="sans-serif" font-size="13" lengthAdjust="spacing" textLength="102.6162" x="723.7609" y="707.1045">Loads JSON data</text></g><?plantuml-src bPF1RXen48RlVeeHbvvexvMeH4CfgO0YeEfXbOFnJi35Qs_jSTjjrNVlU9TDs6H9KWx8yip_pNZ-MT9a49PkXmPMNlz6cCleKH8664TooXMbGKBOL86mW25SyOspQEdD14lZgeAFCD5oxsKXH3XgMqe-WchpDbHn2O-AfDqR5E8LZ4OZE5ClNSxb-59OFi7WA-xWlNS_0_e1_140sTGxIsXpkBPb99X9cnlqD-Al4CgucCDWXjuTOvFUK1BrzRS0wsX95zY404gfZdBFyRMBfEsU7rorTT8lcsstAqZ1L23TS96Ey5GT5YwF1i-KQ_mUCPorTwREEjCScxtpcWv5avCj7KrTvFTrfDbL_MeQRgiIOI7BiedKoBjs9f8aZ9N24BfloLeheKxPkEWLDdecv7otau41KsrQVq_ZNiMTqGh68I05DZUPvtoLj0-WIHjg7nfNxxOZ-Sk6eLNwvEqb4s4uVDUTEhpb54swtiA0qgi3xqyzso2wcRNsmcWPKwUzYF7GktlnmHNufFIHUVVQQ0j9we0vV5dFMNofqvhJQrTYeSm3c3QQZ1EF-tqIyJ7vc8HmwtppefANH_Jq_XySz9x_6r1_FvSMYL4Rz3-IDII9CsxJ7bsYz7q6J9Zm47sXBLCMruiFG1ncHc_sSzrmNW3ynSAWdGr0hiNrZw9dIisdmAovItvzsdnUDbxz0m00?></g></svg>