<svg xmlns="http://www.w3.org/2000/svg" xmlns:xlink="http://www.w3.org/1999/xlink" contentStyleType="text/css" data-diagram-type="DESCRIPTION" height="479px" preserveAspectRatio="none" style="width:1970px;height:479px;background:#FFFFFF;" version="1.1" viewBox="0 0 1970 479" width="1970px" zoomAndPan="magnify"><?plantuml 1.2026.6?><defs/><g><g class="title" data-source-line="4"><text fill="#000000" font-family="sans-serif" font-size="14" font-weight="700" lengthAdjust="spacing" textLength="376.5508" x="793.4746" y="24.5332">Zhiyan Tongjie - Requirements Review Checklist System</text></g><!--cluster Review Artifact Interface--><g class="cluster" data-qualified-name="Review Artifact Interface" data-source-line="10" id="ent0004"><path d="M840,146.1094 L1004.3926,146.1094 A3.75,3.75 0 0 1 1006.8926,148.6094 L1013.8926,169.7188 L1059,169.7188 A2.5,2.5 0 0 1 1061.5,172.2188 L1061.5,233.6094 A2.5,2.5 0 0 1 1059,236.1094 L840,236.1094 A2.5,2.5 0 0 1 837.5,233.6094 L837.5,148.6094 A2.5,2.5 0 0 1 840,146.1094" fill="none" style="stroke:#000000;stroke-width:1.5;"/><line style="stroke:#000000;stroke-width:1.5;" x1="837.5" x2="1013.8926" y1="169.7188" y2="169.7188"/><text fill="#000000" font-family="sans-serif" font-size="14" font-weight="700" lengthAdjust="spacing" textLength="163.3926" x="841.5" y="162.6426">Review Artifact Interface</text></g><!--cluster Review Inspection Services--><g class="cluster" data-qualified-name="Review Inspection Services" data-source-line="14" id="ent0006"><path d="M896,260.1094 L1080.6406,260.1094 A3.75,3.75 0 0 1 1083.1406,262.6094 L1090.1406,283.7188 L1953,283.7188 A2.5,2.5 0 0 1 1955.5,286.2188 L1955.5,347.6094 A2.5,2.5 0 0 1 1953,350.1094 L896,350.1094 A2.5,2.5 0 0 1 893.5,347.6094 L893.5,262.6094 A2.5,2.5 0 0 1 896,260.1094" fill="none" style="stroke:#000000;stroke-width:1.5;"/><line style="stroke:#000000;stroke-width:1.5;" x1="893.5" x2="1090.1406" y1="283.7188" y2="283.7188"/><text fill="#000000" font-family="sans-serif" font-size="14" font-weight="700" lengthAdjust="spacing" textLength="183.6406" x="897.5" y="276.6426">Review Inspection Services</text></g><!--cluster Review Recording Services--><g class="cluster" data-qualified-name="Review Recording Services" data-source-line="21" id="ent0011"><path d="M221,260.1094 L404.8613,260.1094 A3.75,3.75 0 0 1 407.3613,262.6094 L414.3613,283.7188 L804,283.7188 A2.5,2.5 0 0 1 806.5,286.2188 L806.5,347.6094 A2.5,2.5 0 0 1 804,350.1094 L221,350.1094 A2.5,2.5 0 0 1 218.5,347.6094 L218.5,262.6094 A2.5,2.5 0 0 1 221,260.1094" fill="none" style="stroke:#000000;stroke-width:1.5;"/><line style="stroke:#000000;stroke-width:1.5;" x1="218.5" x2="414.3613" y1="283.7188" y2="283.7188"/><text fill="#000000" font-family="sans-serif" font-size="14" font-weight="700" lengthAdjust="spacing" textLength="182.8613" x="222.5" y="276.6426">Review Recording Services</text></g><!--cluster Data Storage--><g class="cluster" data-qualified-name="Data Storage" data-source-line="27" id="ent0015"><path d="M206,374.1094 L293.3584,374.1094 A3.75,3.75 0 0 1 295.8584,376.6094 L302.8584,397.7188 L1150,397.7188 A2.5,2.5 0 0 1 1152.5,400.2188 L1152.5,461.6094 A2.5,2.5 0 0 1 1150,464.1094 L206,464.1094 A2.5,2.5 0 0 1 203.5,461.6094 L203.5,376.6094 A2.5,2.5 0 0 1 206,374.1094" fill="none" style="stroke:#000000;stroke-width:1.5;"/><line style="stroke:#000000;stroke-width:1.5;" x1="203.5" x2="302.8584" y1="397.7188" y2="397.7188"/><text fill="#000000" font-family="sans-serif" font-size="14" font-weight="700" lengthAdjust="spacing" textLength="86.3584" x="207.5" y="390.6426">Data Storage</text></g><!--cluster External Standards and References--><g class="cluster" data-qualified-name="External Standards and References" data-source-line="35" id="ent0021"><path d="M1179,374.1094 L1415.7578,374.1094 A3.75,3.75 0 0 1 1418.2578,376.6094 L1425.2578,397.7188 L1935,397.7188 A2.5,2.5 0 0 1 1937.5,400.2188 L1937.5,461.6094 A2.5,2.5 0 0 1 1935,464.1094 L1179,464.1094 A2.5,2.5 0 0 1 1176.5,461.6094 L1176.5,376.6094 A2.5,2.5 0 0 1 1179,374.1094" fill="none" style="stroke:#000000;stroke-width:1.5;"/><line style="stroke:#000000;stroke-width:1.5;" x1="1176.5" x2="1425.2578" y1="397.7188" y2="397.7188"/><text fill="#000000" font-family="sans-serif" font-size="14" font-weight="700" lengthAdjust="spacing" textLength="235.7578" x="1180.5" y="390.6426">External Standards and References</text></g><!--entity UI--><g class="entity" data-qualified-name="Review Artifact Interface.UI" data-source-line="11" id="ent0005"><rect fill="#F1F1F1" height="37.6094" rx="2.5" ry="2.5" style="stroke:#181818;stroke-width:0.5;" width="191.1855" x="854" y="182.1094"/><text fill="#000000" font-family="sans-serif" font-size="14" lengthAdjust="spacing" textLength="171.1855" x="864" y="206.6426">Checklist Viewer and Editor</text></g><!--entity CompReview--><g class="entity" data-qualified-name="Review Inspection Services.CompReview" data-source-line="15" id="ent0007"><rect fill="#F1F1F1" height="37.6094" rx="2.5" ry="2.5" style="stroke:#181818;stroke-width:0.5;" width="209.0889" x="1730" y="296.1094"/><text fill="#000000" font-family="sans-serif" font-size="14" lengthAdjust="spacing" textLength="189.0889" x="1740" y="320.6426">Completeness Review Module</text></g><!--entity UndReview--><g class="entity" data-qualified-name="Review Inspection Services.UndReview" data-source-line="16" id="ent0008"><rect fill="#F1F1F1" height="37.6094" rx="2.5" ry="2.5" style="stroke:#181818;stroke-width:0.5;" width="227.7715" x="1466.5" y="296.1094"/><text fill="#000000" font-family="sans-serif" font-size="14" lengthAdjust="spacing" textLength="207.7715" x="1476.5" y="320.6426">Understandability Review Module</text></g><!--entity ModReview--><g class="entity" data-qualified-name="Review Inspection Services.ModReview" data-source-line="17" id="ent0009"><rect fill="#F1F1F1" height="37.6094" rx="2.5" ry="2.5" style="stroke:#181818;stroke-width:0.5;" width="219.1924" x="1212" y="296.1094"/><text fill="#000000" font-family="sans-serif" font-size="14" lengthAdjust="spacing" textLength="199.1924" x="1222" y="320.6426">Model Accuracy Review Module</text></g><!--entity ExtReview--><g class="entity" data-qualified-name="Review Inspection Services.ExtReview" data-source-line="18" id="ent0010"><rect fill="#F1F1F1" height="37.6094" rx="2.5" ry="2.5" style="stroke:#181818;stroke-width:0.5;" width="266.668" x="910" y="296.1094"/><text fill="#000000" font-family="sans-serif" font-size="14" lengthAdjust="spacing" textLength="246.668" x="920" y="320.6426">Extension Improvement Review Module</text></g><!--entity ProbRecorder--><g class="entity" data-qualified-name="Review Recording Services.ProbRecorder" data-source-line="22" id="ent0012"><rect fill="#F1F1F1" height="37.6094" rx="2.5" ry="2.5" style="stroke:#181818;stroke-width:0.5;" width="179.5098" x="385.5" y="296.1094"/><text fill="#000000" font-family="sans-serif" font-size="14" lengthAdjust="spacing" textLength="159.5098" x="395.5" y="320.6426">Problem Report Recorder</text></g><!--entity ScoreEngine--><g class="entity" data-qualified-name="Review Recording Services.ScoreEngine" data-source-line="23" id="ent0013"><rect fill="#F1F1F1" height="37.6094" rx="2.5" ry="2.5" style="stroke:#181818;stroke-width:0.5;" width="114.9512" x="235" y="296.1094"/><text fill="#000000" font-family="sans-serif" font-size="14" lengthAdjust="spacing" textLength="94.9512" x="245" y="320.6426">Scoring Engine</text></g><!--entity MetaRecorder--><g class="entity" data-qualified-name="Review Recording Services.MetaRecorder" data-source-line="24" id="ent0014"><rect fill="#F1F1F1" height="37.6094" rx="2.5" ry="2.5" style="stroke:#181818;stroke-width:0.5;" width="189.6338" x="600.5" y="296.1094"/><text fill="#000000" font-family="sans-serif" font-size="14" lengthAdjust="spacing" textLength="169.6338" x="610.5" y="320.6426">Review Metadata Recorder</text></g><!--entity PurposeDB--><g class="entity" data-qualified-name="Data Storage.PurposeDB" data-source-line="28" id="ent0016"><rect fill="#F1F1F1" height="37.6094" rx="2.5" ry="2.5" style="stroke:#181818;stroke-width:0.5;" width="159.2891" x="790" y="410.1094"/><text fill="#000000" font-family="sans-serif" font-size="14" lengthAdjust="spacing" textLength="139.2891" x="800" y="434.6426">Review Purpose Store</text></g><!--entity ChecklistDB--><g class="entity" data-qualified-name="Data Storage.ChecklistDB" data-source-line="29" id="ent0017"><rect fill="#F1F1F1" height="37.6094" rx="2.5" ry="2.5" style="stroke:#181818;stroke-width:0.5;" width="152.2617" x="984.5" y="410.1094"/><text fill="#000000" font-family="sans-serif" font-size="14" lengthAdjust="spacing" textLength="132.2617" x="994.5" y="434.6426">Checklist Items Store</text></g><!--entity ProbDB--><g class="entity" data-qualified-name="Data Storage.ProbDB" data-source-line="30" id="ent0018"><rect fill="#F1F1F1" height="37.6094" rx="2.5" ry="2.5" style="stroke:#181818;stroke-width:0.5;" width="155.3926" x="398" y="410.1094"/><text fill="#000000" font-family="sans-serif" font-size="14" lengthAdjust="spacing" textLength="135.3926" x="408" y="434.6426">Problem Report Store</text></g><!--entity ScoreDB--><g class="entity" data-qualified-name="Data Storage.ScoreDB" data-source-line="31" id="ent0019"><rect fill="#F1F1F1" height="37.6094" rx="2.5" ry="2.5" style="stroke:#181818;stroke-width:0.5;" width="142.9443" x="220" y="410.1094"/><text fill="#000000" font-family="sans-serif" font-size="14" lengthAdjust="spacing" textLength="122.9443" x="230" y="434.6426">Score Record Store</text></g><!--entity MetaDB--><g class="entity" data-qualified-name="Data Storage.MetaDB" data-source-line="32" id="ent0020"><rect fill="#F1F1F1" height="37.6094" rx="2.5" ry="2.5" style="stroke:#181818;stroke-width:0.5;" width="165.5166" x="588.5" y="410.1094"/><text fill="#000000" font-family="sans-serif" font-size="14" lengthAdjust="spacing" textLength="145.5166" x="598.5" y="434.6426">Review Metadata Store</text></g><!--entity IndStd--><g class="entity" data-qualified-name="External Standards and References.IndStd" data-source-line="36" id="ent0022"><rect fill="#F1F1F1" height="37.6094" rx="2.5" ry="2.5" style="stroke:#181818;stroke-width:0.5;" width="137.5098" x="1783.5" y="410.1094"/><text fill="#000000" font-family="sans-serif" font-size="14" lengthAdjust="spacing" textLength="117.5098" x="1793.5" y="434.6426">Industry Standards</text></g><!--entity ProdSpec--><g class="entity" data-qualified-name="External Standards and References.ProdSpec" data-source-line="37" id="ent0023"><rect fill="#F1F1F1" height="37.6094" rx="2.5" ry="2.5" style="stroke:#181818;stroke-width:0.5;" width="158.5166" x="1395" y="410.1094"/><text fill="#000000" font-family="sans-serif" font-size="14" lengthAdjust="spacing" textLength="138.5166" x="1405" y="434.6426">Product Specifications</text></g><!--entity BizSpec--><g class="entity" data-qualified-name="External Standards and References.BizSpec" data-source-line="38" id="ent0024"><rect fill="#F1F1F1" height="37.6094" rx="2.5" ry="2.5" style="stroke:#181818;stroke-width:0.5;" width="167.0752" x="1193" y="410.1094"/><text fill="#000000" font-family="sans-serif" font-size="14" lengthAdjust="spacing" textLength="147.0752" x="1203" y="434.6426">Business Specifications</text></g><!--entity DocNorm--><g class="entity" data-qualified-name="External Standards and References.DocNorm" data-source-line="39" id="ent0025"><rect fill="#F1F1F1" height="37.6094" rx="2.5" ry="2.5" style="stroke:#181818;stroke-width:0.5;" width="159.2754" x="1589" y="410.1094"/><text fill="#000000" font-family="sans-serif" font-size="14" lengthAdjust="spacing" textLength="139.2754" x="1599" y="434.6426">Documentation Norms</text></g><!--entity Reviewer--><g class="entity" data-qualified-name="Reviewer" data-source-line="6" id="ent0001"><ellipse cx="738.6758" cy="52.6094" fill="#F1F1F1" rx="8" ry="8" style="stroke:#181818;stroke-width:0.5;"/><path d="M738.6758,60.6094 L738.6758,87.6094 M725.6758,68.6094 L751.6758,68.6094 M738.6758,87.6094 L725.6758,102.6094 M738.6758,87.6094 L751.6758,102.6094" fill="none" style="stroke:#181818;stroke-width:0.5;"/><text fill="#000000" font-family="sans-serif" font-size="14" lengthAdjust="spacing" textLength="58.3516" x="709.5" y="118.6426">Reviewer</text></g><!--entity RequirementsOwner--><g class="entity" data-qualified-name="RequirementsOwner" data-source-line="7" id="ent0002"><ellipse cx="868.6377" cy="52.6094" fill="#F1F1F1" rx="8" ry="8" style="stroke:#181818;stroke-width:0.5;"/><path d="M868.6377,60.6094 L868.6377,87.6094 M855.6377,68.6094 L881.6377,68.6094 M868.6377,87.6094 L855.6377,102.6094 M868.6377,87.6094 L881.6377,102.6094" fill="none" style="stroke:#181818;stroke-width:0.5;"/><text fill="#000000" font-family="sans-serif" font-size="14" lengthAdjust="spacing" textLength="132.2754" x="802.5" y="118.6426">Requirements Owner</text></g><!--entity ProjectStakeholder--><g class="entity" data-qualified-name="ProjectStakeholder" data-source-line="8" id="ent0003"><ellipse cx="1030.5894" cy="52.6094" fill="#F1F1F1" rx="8" ry="8" style="stroke:#181818;stroke-width:0.5;"/><path d="M1030.5894,60.6094 L1030.5894,87.6094 M1017.5894,68.6094 L1043.5894,68.6094 M1030.5894,87.6094 L1017.5894,102.6094 M1030.5894,87.6094 L1043.5894,102.6094" fill="none" style="stroke:#181818;stroke-width:0.5;"/><text fill="#000000" font-family="sans-serif" font-size="14" lengthAdjust="spacing" textLength="122.1787" x="969.5" y="118.6426">Project Stakeholder</text></g><!--entity SRD--><g class="entity" data-qualified-name="SRD" data-source-line="42" id="ent0026"><rect fill="#F1F1F1" height="37.6094" rx="2.5" ry="2.5" style="stroke:#181818;stroke-width:0.5;" width="223.0957" x="1127" y="64.1094"/><text fill="#000000" font-family="sans-serif" font-size="14" lengthAdjust="spacing" textLength="203.0957" x="1137" y="88.6426">Source Requirements Document</text></g><g class="entity" data-qualified-name="GMN50" data-source-line="75" id="ent0051"><path d="M6,407.6094 L6,450.3125 L184.5361,450.3125 L184.5361,417.6094 L174.5361,407.6094 L6,407.6094" fill="#FEFFDD" style="stroke:#181818;stroke-width:0.5;"/><path d="M174.5361,407.6094 L174.5361,417.6094 L184.5361,417.6094 L174.5361,407.6094" fill="#FEFFDD" style="stroke:#181818;stroke-width:1;"/><text fill="#000000" font-family="sans-serif" font-size="13" lengthAdjust="spacing" textLength="157.5361" x="12" y="426.1045">4 dimensions x 10 pts each</text><text fill="#000000" font-family="sans-serif" font-size="13" lengthAdjust="spacing" textLength="99.709" x="12" y="442.4561">Total: 40 pts max</text></g><!--link Reviewer to UI--><g class="link" data-entity-1="ent0001" data-entity-2="ent0005" data-link-type="dependency" data-source-line="44" id="lnk27"><path d="M738.5,122.3494 C738.5,152.8794 738.5,190.1094 738.5,190.1094 C738.5,190.1094 793.05,190.1094 848.88,190.1094" fill="none" id="Reviewer-to-UI" style="stroke:#181818;stroke-width:1;"/><polygon fill="#181818" points="853.88,190.1094,844.88,186.1094,848.88,190.1094,844.88,194.1094,853.88,190.1094" style="stroke:#181818;stroke-width:1;stroke-linejoin:miter;stroke-miterlimit:10;"/><text fill="#000000" font-family="sans-serif" font-size="13" lengthAdjust="spacing" textLength="92.4663" x="669.31" y="186.6045">performs review</text></g><!--link RequirementsOwner to UI--><g class="link" data-entity-1="ent0002" data-entity-2="ent0005" data-link-type="dependency" data-source-line="45" id="lnk28"><path d="M894.25,122.3994 C894.25,142.3794 894.25,160.7694 894.25,176.8194" fill="none" id="RequirementsOwner-to-UI" style="stroke:#181818;stroke-width:1;"/><polygon fill="#181818" points="894.25,181.8194,898.25,172.8194,894.25,176.8194,890.25,172.8194,894.25,181.8194" style="stroke:#181818;stroke-width:1;stroke-linejoin:miter;stroke-miterlimit:10;"/><text fill="#000000" font-family="sans-serif" font-size="13" lengthAdjust="spacing" textLength="80.939" x="813.25" y="148.6045">reads findings</text></g><!--link ProjectStakeholder to UI--><g class="link" data-entity-1="ent0003" data-entity-2="ent0005" data-link-type="dependency" data-source-line="46" id="lnk29"><path d="M1007.25,122.3994 C1007.25,142.3794 1007.25,160.7694 1007.25,176.8194" fill="none" id="ProjectStakeholder-to-UI" style="stroke:#181818;stroke-width:1;"/><polygon fill="#181818" points="1007.25,181.8194,1011.25,172.8194,1007.25,176.8194,1003.25,172.8194,1007.25,181.8194" style="stroke:#181818;stroke-width:1;stroke-linejoin:miter;stroke-miterlimit:10;"/><text fill="#000000" font-family="sans-serif" font-size="13" lengthAdjust="spacing" textLength="124.979" x="1008.25" y="148.6045">reads result summary</text></g><!--link SRD to UI--><g class="link" data-entity-1="ent0026" data-entity-2="ent0005" data-link-type="dependency" data-source-line="48" id="lnk30"><path d="M1152,102.2394 C1152,133.0194 1152,190.1094 1152,190.1094 C1152,190.1094 1102.55,190.1094 1050.12,190.1094" fill="none" id="SRD-to-UI" style="stroke:#181818;stroke-width:1;"/><polygon fill="#181818" points="1045.12,190.1094,1054.12,194.1094,1050.12,190.1094,1054.12,186.1094,1045.12,190.1094" style="stroke:#181818;stroke-width:1;stroke-linejoin:miter;stroke-miterlimit:10;"/><text fill="#000000" font-family="sans-serif" font-size="13" lengthAdjust="spacing" textLength="83.8208" x="1058.49" y="186.6045">input to review</text></g><!--link UI to CompReview--><g class="link" data-entity-1="ent0005" data-entity-2="ent0007" data-link-type="dependency" data-source-line="50" id="lnk31"><path d="M1045.05,198.1094 C1273.89,198.1094 1834.5,198.1094 1834.5,198.1094 C1834.5,198.1094 1834.5,257.8994 1834.5,291.0494" fill="none" id="UI-to-CompReview" style="stroke:#181818;stroke-width:1;"/><polygon fill="#181818" points="1834.5,296.0494,1838.5,287.0494,1834.5,291.0494,1830.5,287.0494,1834.5,296.0494" style="stroke:#181818;stroke-width:1;stroke-linejoin:miter;stroke-miterlimit:10;"/></g><!--link UI to UndReview--><g class="link" data-entity-1="ent0005" data-entity-2="ent0008" data-link-type="dependency" data-source-line="51" id="lnk32"><path d="M1045.34,205.1094 C1221.86,205.1094 1580.5,205.1094 1580.5,205.1094 C1580.5,205.1094 1580.5,259.4294 1580.5,290.9494" fill="none" id="UI-to-UndReview" style="stroke:#181818;stroke-width:1;"/><polygon fill="#181818" points="1580.5,295.9494,1584.5,286.9494,1580.5,290.9494,1576.5,286.9494,1580.5,295.9494" style="stroke:#181818;stroke-width:1;stroke-linejoin:miter;stroke-miterlimit:10;"/></g><!--link UI to ModReview--><g class="link" data-entity-1="ent0005" data-entity-2="ent0009" data-link-type="dependency" data-source-line="52" id="lnk33"><path d="M1045.38,213.1094 C1143.29,213.1094 1281,213.1094 1281,213.1094 C1281,213.1094 1281,261.3794 1281,290.9194" fill="none" id="UI-to-ModReview" style="stroke:#181818;stroke-width:1;"/><polygon fill="#181818" points="1281,295.9194,1285,286.9194,1281,290.9194,1277,286.9194,1281,295.9194" style="stroke:#181818;stroke-width:1;stroke-linejoin:miter;stroke-miterlimit:10;"/></g><!--link UI to ExtReview--><g class="link" data-entity-1="ent0005" data-entity-2="ent0010" data-link-type="dependency" data-source-line="53" id="lnk34"><path d="M977.5,220.1894 C977.5,241.2294 977.5,269.8994 977.5,290.9694" fill="none" id="UI-to-ExtReview" style="stroke:#181818;stroke-width:1;"/><polygon fill="#181818" points="977.5,295.9694,981.5,286.9694,977.5,290.9694,973.5,286.9694,977.5,295.9694" style="stroke:#181818;stroke-width:1;stroke-linejoin:miter;stroke-miterlimit:10;"/></g><!--link UI to ProbRecorder--><g class="link" data-entity-1="ent0005" data-entity-2="ent0012" data-link-type="dependency" data-source-line="54" id="lnk35"><path d="M853.86,205.1094 C715.4,205.1094 475.5,205.1094 475.5,205.1094 C475.5,205.1094 475.5,259.4294 475.5,290.9494" fill="none" id="UI-to-ProbRecorder" style="stroke:#181818;stroke-width:1;"/><polygon fill="#181818" points="475.5,295.9494,479.5,286.9494,475.5,290.9494,471.5,286.9494,475.5,295.9494" style="stroke:#181818;stroke-width:1;stroke-linejoin:miter;stroke-miterlimit:10;"/></g><!--link UI to ScoreEngine--><g class="link" data-entity-1="ent0005" data-entity-2="ent0013" data-link-type="dependency" data-source-line="55" id="lnk36"><path d="M853.97,198.1094 C671.75,198.1094 292.5,198.1094 292.5,198.1094 C292.5,198.1094 292.5,257.8994 292.5,291.0494" fill="none" id="UI-to-ScoreEngine" style="stroke:#181818;stroke-width:1;"/><polygon fill="#181818" points="292.5,296.0494,296.5,287.0494,292.5,291.0494,288.5,287.0494,292.5,296.0494" style="stroke:#181818;stroke-width:1;stroke-linejoin:miter;stroke-miterlimit:10;"/></g><!--link UI to MetaRecorder--><g class="link" data-entity-1="ent0005" data-entity-2="ent0014" data-link-type="dependency" data-source-line="56" id="lnk37"><path d="M853.78,213.1094 C814.92,213.1094 779,213.1094 779,213.1094 C779,213.1094 779,261.3794 779,290.9194" fill="none" id="UI-to-MetaRecorder" style="stroke:#181818;stroke-width:1;"/><polygon fill="#181818" points="779,295.9194,783,286.9194,779,290.9194,775,286.9194,779,295.9194" style="stroke:#181818;stroke-width:1;stroke-linejoin:miter;stroke-miterlimit:10;"/></g><!--link CompReview to ChecklistDB--><g class="link" data-entity-1="ent0007" data-entity-2="ent0017" data-link-type="dependency" data-source-line="58" id="lnk38"><path d="M1739,334.4094 C1739,354.5194 1739,383.1094 1739,383.1094 C1739,383.1094 1098.5,383.1094 1098.5,383.1094 C1098.5,383.1094 1098.5,392.2594 1098.5,404.8694" fill="none" id="CompReview-to-ChecklistDB" style="stroke:#181818;stroke-width:1;"/><polygon fill="#181818" points="1098.5,409.8694,1102.5,400.8694,1098.5,404.8694,1094.5,400.8694,1098.5,409.8694" style="stroke:#181818;stroke-width:1;stroke-linejoin:miter;stroke-miterlimit:10;"/><text fill="#000000" font-family="sans-serif" font-size="13" lengthAdjust="spacing" textLength="114.8799" x="1314.72" y="397.6045">completeness items</text></g><!--link UndReview to ChecklistDB--><g class="link" data-entity-1="ent0008" data-entity-2="ent0017" data-link-type="dependency" data-source-line="59" id="lnk39"><path d="M1510.25,334.2794 C1510.25,346.1394 1510.25,359.1094 1510.25,359.1094 C1510.25,359.1094 1060.5,359.1094 1060.5,359.1094 C1060.5,359.1094 1060.5,384.2594 1060.5,404.9794" fill="none" id="UndReview-to-ChecklistDB" style="stroke:#181818;stroke-width:1;"/><polygon fill="#181818" points="1060.5,409.9794,1064.5,400.9794,1060.5,404.9794,1056.5,400.9794,1060.5,409.9794" style="stroke:#181818;stroke-width:1;stroke-linejoin:miter;stroke-miterlimit:10;"/><text fill="#000000" font-family="sans-serif" font-size="13" lengthAdjust="spacing" textLength="132.958" x="1139.35" y="373.6045">understandability items</text></g><!--link ModReview to ChecklistDB--><g class="link" data-entity-1="ent0009" data-entity-2="ent0017" data-link-type="dependency" data-source-line="60" id="lnk40"><path d="M1211.97,309.1094 C1196.1,309.1094 1185,309.1094 1185,309.1094 C1185,309.1094 1185,429.1094 1185,429.1094 C1185,429.1094 1167.43,429.1094 1141.51,429.1094" fill="none" id="ModReview-to-ChecklistDB" style="stroke:#181818;stroke-width:1;"/><polygon fill="#181818" points="1136.51,429.1094,1145.51,433.1094,1141.51,429.1094,1145.51,425.1094,1136.51,429.1094" style="stroke:#181818;stroke-width:1;stroke-linejoin:miter;stroke-miterlimit:10;"/><text fill="#000000" font-family="sans-serif" font-size="13" lengthAdjust="spacing" textLength="125.709" x="1059" y="394.3645">model accuracy items</text></g><!--link ExtReview to ChecklistDB--><g class="link" data-entity-1="ent0010" data-entity-2="ent0017" data-link-type="dependency" data-source-line="61" id="lnk41"><path d="M1022.5,334.1894 C1022.5,355.2294 1022.5,383.8994 1022.5,404.9694" fill="none" id="ExtReview-to-ChecklistDB" style="stroke:#181818;stroke-width:1;"/><polygon fill="#181818" points="1022.5,409.9694,1026.5,400.9694,1022.5,404.9694,1018.5,400.9694,1022.5,409.9694" style="stroke:#181818;stroke-width:1;stroke-linejoin:miter;stroke-miterlimit:10;"/><text fill="#000000" font-family="sans-serif" font-size="13" lengthAdjust="spacing" textLength="90.3208" x="931.5" y="368.5745">extension items</text></g><!--link CompReview to IndStd--><g class="link" data-entity-1="ent0007" data-entity-2="ent0022" data-link-type="dependency" data-source-line="63" id="lnk42"><path d="M1852.5,334.1894 C1852.5,355.2294 1852.5,383.8994 1852.5,404.9694" fill="none" id="CompReview-to-IndStd" style="stroke:#181818;stroke-width:1;stroke-dasharray:7,7;"/><polygon fill="#181818" points="1852.5,409.9694,1856.5,400.9694,1852.5,404.9694,1848.5,400.9694,1852.5,409.9694" style="stroke:#181818;stroke-width:1;stroke-linejoin:miter;stroke-miterlimit:10;"/><text fill="#000000" font-family="sans-serif" font-size="13" lengthAdjust="spacing" textLength="61.4199" x="1790.5" y="368.5745">references</text></g><!--link UndReview to DocNorm--><g class="link" data-entity-1="ent0008" data-entity-2="ent0025" data-link-type="dependency" data-source-line="64" id="lnk43"><path d="M1641.75,334.1894 C1641.75,355.2294 1641.75,383.8994 1641.75,404.9694" fill="none" id="UndReview-to-DocNorm" style="stroke:#181818;stroke-width:1;stroke-dasharray:7,7;"/><polygon fill="#181818" points="1641.75,409.9694,1645.75,400.9694,1641.75,404.9694,1637.75,400.9694,1641.75,409.9694" style="stroke:#181818;stroke-width:1;stroke-linejoin:miter;stroke-miterlimit:10;"/><text fill="#000000" font-family="sans-serif" font-size="13" lengthAdjust="spacing" textLength="61.4199" x="1579.75" y="368.5745">references</text></g><!--link ModReview to ProdSpec--><g class="link" data-entity-1="ent0009" data-entity-2="ent0023" data-link-type="dependency" data-source-line="65" id="lnk44"><path d="M1413,334.1894 C1413,355.2294 1413,383.8994 1413,404.9694" fill="none" id="ModReview-to-ProdSpec" style="stroke:#181818;stroke-width:1;stroke-dasharray:7,7;"/><polygon fill="#181818" points="1413,409.9694,1417,400.9694,1413,404.9694,1409,400.9694,1413,409.9694" style="stroke:#181818;stroke-width:1;stroke-linejoin:miter;stroke-miterlimit:10;"/><text fill="#000000" font-family="sans-serif" font-size="13" lengthAdjust="spacing" textLength="61.4199" x="1351" y="368.5745">references</text></g><!--link ExtReview to BizSpec--><g class="link" data-entity-1="ent0010" data-entity-2="ent0024" data-link-type="dependency" data-source-line="66" id="lnk45"><path d="M1177.31,322.1094 C1192.41,322.1094 1202.5,322.1094 1202.5,322.1094 C1202.5,322.1094 1202.5,374.1994 1202.5,404.9794" fill="none" id="ExtReview-to-BizSpec" style="stroke:#181818;stroke-width:1;stroke-dasharray:7,7;"/><polygon fill="#181818" points="1202.5,409.9794,1206.5,400.9794,1202.5,404.9794,1198.5,400.9794,1202.5,409.9794" style="stroke:#181818;stroke-width:1;stroke-linejoin:miter;stroke-miterlimit:10;"/><text fill="#000000" font-family="sans-serif" font-size="13" lengthAdjust="spacing" textLength="61.4199" x="1140.5" y="349.9445">references</text></g><!--link ProbRecorder to ProbDB--><g class="link" data-entity-1="ent0012" data-entity-2="ent0018" data-link-type="dependency" data-source-line="68" id="lnk46"><path d="M475.5,334.1894 C475.5,355.2294 475.5,383.8994 475.5,404.9694" fill="none" id="ProbRecorder-to-ProbDB" style="stroke:#181818;stroke-width:1;"/><polygon fill="#181818" points="475.5,409.9694,479.5,400.9694,475.5,404.9694,471.5,400.9694,475.5,409.9694" style="stroke:#181818;stroke-width:1;stroke-linejoin:miter;stroke-miterlimit:10;"/><text fill="#000000" font-family="sans-serif" font-size="13" lengthAdjust="spacing" textLength="190.7725" x="284.5" y="368.5745">stores problems and suggestions</text></g><!--link ScoreEngine to ScoreDB--><g class="link" data-entity-1="ent0013" data-entity-2="ent0019" data-link-type="dependency" data-source-line="69" id="lnk47"><path d="M292.5,334.1894 C292.5,355.2294 292.5,383.8994 292.5,404.9694" fill="none" id="ScoreEngine-to-ScoreDB" style="stroke:#181818;stroke-width:1;"/><polygon fill="#181818" points="292.5,409.9694,296.5,400.9694,292.5,404.9694,288.5,400.9694,292.5,409.9694" style="stroke:#181818;stroke-width:1;stroke-linejoin:miter;stroke-miterlimit:10;"/><text fill="#000000" font-family="sans-serif" font-size="13" lengthAdjust="spacing" textLength="193.6543" x="98.5" y="386.5745">stores dimension scores and total</text></g><!--link MetaRecorder to MetaDB--><g class="link" data-entity-1="ent0014" data-entity-2="ent0020" data-link-type="dependency" data-source-line="70" id="lnk48"><path d="M677.5,334.1894 C677.5,355.2294 677.5,383.8994 677.5,404.9694" fill="none" id="MetaRecorder-to-MetaDB" style="stroke:#181818;stroke-width:1;"/><polygon fill="#181818" points="677.5,409.9694,681.5,400.9694,677.5,404.9694,673.5,400.9694,677.5,409.9694" style="stroke:#181818;stroke-width:1;stroke-linejoin:miter;stroke-miterlimit:10;"/><text fill="#000000" font-family="sans-serif" font-size="13" lengthAdjust="spacing" textLength="187.1543" x="489.5" y="368.5745">stores reviewer identity and date</text></g><!--link UI to PurposeDB--><g class="link" data-entity-1="ent0005" data-entity-2="ent0016" data-link-type="dependency" data-source-line="72" id="lnk49"><path d="M882,220.1594 C882,263.0694 882,361.9394 882,404.9594" fill="none" id="UI-to-PurposeDB" style="stroke:#181818;stroke-width:1;"/><polygon fill="#181818" points="882,409.9594,886,400.9594,882,404.9594,878,400.9594,882,409.9594" style="stroke:#181818;stroke-width:1;stroke-linejoin:miter;stroke-miterlimit:10;"/><text fill="#000000" font-family="sans-serif" font-size="13" lengthAdjust="spacing" textLength="188.6016" x="740.5" y="329.5545">reads and stores review purpose</text></g><!--link ScoreEngine to GMN50--><g class="link" data-entity-1="ent0013" data-entity-2="ent0051" data-link-type="association" data-source-line="75" id="lnk52"><path d="M234.99,315.1094 C176.84,315.1094 95.5,315.1094 95.5,315.1094 C95.5,315.1094 95.5,374.3194 95.5,407.3994" fill="none" id="ScoreEngine-GMN50" style="stroke:#181818;stroke-width:1;stroke-dasharray:7,7;"/></g><?plantuml-src VLGzRzim4DtvAmxU4xH0fWm1aZg3XxQ1dNHeqO6XpZPZYLH9AebRzB_tZg8eMXRgoNfyx_XuN_wWJIkTR43PfhK6JTY4OutWK0LfTZKAdocrDXYEBO9rOM-523eGy_jU7wM1HsjsBnhX0jRugzCE6uhbwUDLunjysgCwrDe7s1nzm4O8gO9rwHXT_XobNzyCEf0U5YS18xn8_0TdNyZe9iW3xcrT9K62eS0NGhHI7UGEELxqTEk2tb8SM9c0ZlxX0lu8e5_E1VmOZN-BHa6Q2kuhJRV_vBkULkBlUUYLyIqPqDR01jshLkZdOjFV6WCQz3bHdstLrHX3yt6FJeLFXbxagJwLVDQr3iSPDN7cnSJ16cwLwfnKSqhwEw-yVoUldX-rQbfdNsD5PW8GBmMOISqQbNMLDhl_POOA-5nZG-IMUYrfiCyudmt0LBSXc4FVcntrQgGpXFttb3quno0h6UJfDOpcQyftB9cweVhJrs2TvS_IOuxvqBdMqZVpUXy9MTvD16E3hMWkVA789sUQINgAI-ZWZ1qpa1vNS2DyHfxcPEGpHFGo5TmGpiYQ1urwqLK-ZiSQj-ZGp9TsPQhE1tSSDJ4wmPjGpVH1rV4WqpJfhLQIHyeFJwqOdahkEg_ZGCrexlJlESdIgevREJBXYtLDJoUSF_Z9PO_PpYaytN93X3wnwwKGmsA3YuiRMX9m3Itj60vDgpNEnlckorI7abAvrORdn8kPBJUXElHT7S1tJIFTKGYoC59eVNS1WXqk5eJoOR5V4ZBkZ0ICgo01usWdu6GQ4rQEt12ed2OntjmR6HkTxAfoAsgU2P5zpT2xirtOQxBr6KqJLw0SLc0lo4-R4M3UV3stVC7bvKtgtbYEeVKBqyn8lNHA6JqoPUZeKyveYpcfWqyfeYn2haeqxdbyFRJzmkZ7qtUx7Veu5Q8erLYwKbdf9htSgmXmX623h4LPqrpaKkk66T0LDJcNXiMqLZ3tODwAkPMZmr8FRSyHmjY0y6n3i0tOxMIpNurMFRp3nm_Gqc2YL7iwV6J3rt3LWury5qZNS3pn3m00?></g></svg>