<svg xmlns="http://www.w3.org/2000/svg" xmlns:xlink="http://www.w3.org/1999/xlink" contentStyleType="text/css" data-diagram-type="DESCRIPTION" height="861px" preserveAspectRatio="none" style="width:1910px;height:861px;background:#FFFFFF;" version="1.1" viewBox="0 0 1910 861" width="1910px" zoomAndPan="magnify"><?plantuml 1.2026.6?><defs/><g><g class="title" data-source-line="3"><text fill="#000000" font-family="Verdana" font-size="22" font-weight="700" lengthAdjust="spacing" textLength="473.9775" x="717.3759" y="37.1182">AwesomeMusic - Layered Architecture</text></g><!--cluster Client Layer--><g class="cluster" data-qualified-name="Client Layer" data-source-line="5" id="ent0001"><path d="M675.31,58.7373 L770.0854,58.7373 A3.75,3.75 0 0 1 772.5854,61.2373 L779.5854,81.752 L816.31,81.752 A2.5,2.5 0 0 1 818.81,84.252 L818.81,145.2373 A2.5,2.5 0 0 1 816.31,147.7373 L675.31,147.7373 A2.5,2.5 0 0 1 672.81,145.2373 L672.81,61.2373 A2.5,2.5 0 0 1 675.31,58.7373" fill="#E8F4FD" style="stroke:#000000;stroke-width:1;"/><line style="stroke:#000000;stroke-width:1;" x1="672.81" x2="779.5854" y1="81.752" y2="81.752"/><text fill="#000000" font-family="Verdana" font-size="14" font-weight="700" lengthAdjust="spacing" textLength="93.7754" x="676.81" y="74.8125">Client Layer</text></g><!--cluster Gateway Layer--><g class="cluster" data-qualified-name="Gateway Layer" data-source-line="9" id="ent0003"><path d="M649.31,196.7373 L767.2934,196.7373 A3.75,3.75 0 0 1 769.7934,199.2373 L776.7934,219.752 L842.31,219.752 A2.5,2.5 0 0 1 844.81,222.252 L844.81,283.2373 A2.5,2.5 0 0 1 842.31,285.7373 L649.31,285.7373 A2.5,2.5 0 0 1 646.81,283.2373 L646.81,199.2373 A2.5,2.5 0 0 1 649.31,196.7373" fill="#FFF3CD" style="stroke:#000000;stroke-width:1;"/><line style="stroke:#000000;stroke-width:1;" x1="646.81" x2="776.7934" y1="219.752" y2="219.752"/><text fill="#000000" font-family="Verdana" font-size="14" font-weight="700" lengthAdjust="spacing" textLength="116.9834" x="650.81" y="212.8125">Gateway Layer</text></g><!--cluster Web Frontend Layer--><g class="cluster" data-qualified-name="Web Frontend Layer" data-source-line="13" id="ent0005"><path d="M190.31,334.7373 L350.4916,334.7373 A3.75,3.75 0 0 1 352.9916,337.2373 L359.9916,357.752 L383.31,357.752 A2.5,2.5 0 0 1 385.81,360.252 L385.81,421.2373 A2.5,2.5 0 0 1 383.31,423.7373 L190.31,423.7373 A2.5,2.5 0 0 1 187.81,421.2373 L187.81,337.2373 A2.5,2.5 0 0 1 190.31,334.7373" fill="#D4EDDA" style="stroke:#000000;stroke-width:1;"/><line style="stroke:#000000;stroke-width:1;" x1="187.81" x2="359.9916" y1="357.752" y2="357.752"/><text fill="#000000" font-family="Verdana" font-size="14" font-weight="700" lengthAdjust="spacing" textLength="159.1816" x="191.81" y="350.8125">Web Frontend Layer</text></g><!--cluster Web Backend Layer--><g class="cluster" data-qualified-name="Web Backend Layer" data-source-line="17" id="ent0007"><path d="M412.31,334.7373 L568.1098,334.7373 A3.75,3.75 0 0 1 570.6098,337.2373 L577.6098,357.752 L1556.31,357.752 A2.5,2.5 0 0 1 1558.81,360.252 L1558.81,421.2373 A2.5,2.5 0 0 1 1556.31,423.7373 L412.31,423.7373 A2.5,2.5 0 0 1 409.81,421.2373 L409.81,337.2373 A2.5,2.5 0 0 1 412.31,334.7373" fill="#D1ECF1" style="stroke:#000000;stroke-width:1;"/><line style="stroke:#000000;stroke-width:1;" x1="409.81" x2="577.6098" y1="357.752" y2="357.752"/><text fill="#000000" font-family="Verdana" font-size="14" font-weight="700" lengthAdjust="spacing" textLength="154.7998" x="413.81" y="350.8125">Web Backend Layer</text></g><!--cluster Message Queue Layer--><g class="cluster" data-qualified-name="Message Queue Layer" data-source-line="26" id="ent0014"><path d="M932.31,472.7373 L1104.5776,472.7373 A3.75,3.75 0 0 1 1107.0776,475.2373 L1114.0776,495.752 L1135.31,495.752 A2.5,2.5 0 0 1 1137.81,498.252 L1137.81,559.2373 A2.5,2.5 0 0 1 1135.31,561.7373 L932.31,561.7373 A2.5,2.5 0 0 1 929.81,559.2373 L929.81,475.2373 A2.5,2.5 0 0 1 932.31,472.7373" fill="#F8D7DA" style="stroke:#000000;stroke-width:1;"/><line style="stroke:#000000;stroke-width:1;" x1="929.81" x2="1114.0776" y1="495.752" y2="495.752"/><text fill="#000000" font-family="Verdana" font-size="14" font-weight="700" lengthAdjust="spacing" textLength="171.2676" x="933.81" y="488.8125">Message Queue Layer</text></g><!--cluster Algorithm Service Layer--><g class="cluster" data-qualified-name="Algorithm Service Layer" data-source-line="30" id="ent0016"><path d="M606.31,610.7373 L796.1049,610.7373 A3.75,3.75 0 0 1 798.6049,613.2373 L805.6049,633.752 L1490.31,633.752 A2.5,2.5 0 0 1 1492.81,636.252 L1492.81,697.2373 A2.5,2.5 0 0 1 1490.31,699.7373 L606.31,699.7373 A2.5,2.5 0 0 1 603.81,697.2373 L603.81,613.2373 A2.5,2.5 0 0 1 606.31,610.7373" fill="#E2D9F3" style="stroke:#000000;stroke-width:1;"/><line style="stroke:#000000;stroke-width:1;" x1="603.81" x2="805.6049" y1="633.752" y2="633.752"/><text fill="#000000" font-family="Verdana" font-size="14" font-weight="700" lengthAdjust="spacing" textLength="188.7949" x="607.81" y="626.8125">Algorithm Service Layer</text></g><!--cluster Data and Storage Layer--><g class="cluster" data-qualified-name="Data and Storage Layer" data-source-line="37" id="ent0021"><path d="M507.31,748.7373 L693.4545,748.7373 A3.75,3.75 0 0 1 695.9545,751.2373 L702.9545,771.752 L1006.31,771.752 A2.5,2.5 0 0 1 1008.81,774.252 L1008.81,844.2373 A2.5,2.5 0 0 1 1006.31,846.7373 L507.31,846.7373 A2.5,2.5 0 0 1 504.81,844.2373 L504.81,751.2373 A2.5,2.5 0 0 1 507.31,748.7373" fill="#FFF8E1" style="stroke:#000000;stroke-width:1;"/><line style="stroke:#000000;stroke-width:1;" x1="504.81" x2="702.9545" y1="771.752" y2="771.752"/><text fill="#000000" font-family="Verdana" font-size="14" font-weight="700" lengthAdjust="spacing" textLength="185.1445" x="508.81" y="764.8125">Data and Storage Layer</text></g><!--cluster Scheduled Tasks--><g class="cluster" data-qualified-name="Scheduled Tasks" data-source-line="43" id="ent0025"><path d="M1329.31,196.7373 L1461.0815,196.7373 A3.75,3.75 0 0 1 1463.5815,199.2373 L1470.5815,219.752 L1572.31,219.752 A2.5,2.5 0 0 1 1574.81,222.252 L1574.81,283.2373 A2.5,2.5 0 0 1 1572.31,285.7373 L1329.31,285.7373 A2.5,2.5 0 0 1 1326.81,283.2373 L1326.81,199.2373 A2.5,2.5 0 0 1 1329.31,196.7373" fill="#F0F0F0" style="stroke:#000000;stroke-width:1;"/><line style="stroke:#000000;stroke-width:1;" x1="1326.81" x2="1470.5815" y1="219.752" y2="219.752"/><text fill="#000000" font-family="Verdana" font-size="14" font-weight="700" lengthAdjust="spacing" textLength="130.7715" x="1330.81" y="212.8125">Scheduled Tasks</text></g><!--entity Browser--><g class="entity" data-qualified-name="Client Layer.Browser" data-source-line="6" id="ent0002"><rect fill="#FFFFFF" height="37.0146" rx="2.5" ry="2.5" style="stroke:#000000;stroke-width:1;" width="112.9619" x="689.31" y="94.7373"/><text fill="#000000" font-family="Verdana" font-size="14" lengthAdjust="spacing" textLength="92.9619" x="699.31" y="118.8125">Web Browser</text></g><!--entity Nginx--><g class="entity" data-qualified-name="Gateway Layer.Nginx" data-source-line="10" id="ent0004"><rect fill="#FFFFFF" height="37.0146" rx="2.5" ry="2.5" style="stroke:#000000;stroke-width:1;" width="165.8174" x="662.81" y="232.7373"/><text fill="#000000" font-family="Verdana" font-size="14" lengthAdjust="spacing" textLength="145.8174" x="672.81" y="256.8125">Nginx Reverse Proxy</text></g><!--entity Frontend--><g class="entity" data-qualified-name="Web Frontend Layer.Frontend" data-source-line="14" id="ent0006"><rect fill="#FFFFFF" height="37.0146" rx="2.5" ry="2.5" style="stroke:#000000;stroke-width:1;" width="164.8535" x="204.31" y="370.7373"/><text fill="#000000" font-family="Verdana" font-size="14" lengthAdjust="spacing" textLength="144.8535" x="214.31" y="394.8125">Frontend Application</text></g><!--entity AccountSvc--><g class="entity" data-qualified-name="Web Backend Layer.AccountSvc" data-source-line="18" id="ent0008"><rect fill="#FFFFFF" height="37.0146" rx="2.5" ry="2.5" style="stroke:#000000;stroke-width:1;" width="132.458" x="425.81" y="370.7373"/><text fill="#000000" font-family="Verdana" font-size="14" lengthAdjust="spacing" textLength="112.458" x="435.81" y="394.8125">Account Service</text></g><!--entity ScoreSvc--><g class="entity" data-qualified-name="Web Backend Layer.ScoreSvc" data-source-line="19" id="ent0009"><rect fill="#FFFFFF" height="37.0146" rx="2.5" ry="2.5" style="stroke:#000000;stroke-width:1;" width="116.2432" x="592.81" y="370.7373"/><text fill="#000000" font-family="Verdana" font-size="14" lengthAdjust="spacing" textLength="96.2432" x="602.81" y="394.8125">Score Service</text></g><!--entity GenTaskSvc--><g class="entity" data-qualified-name="Web Backend Layer.GenTaskSvc" data-source-line="20" id="ent0010"><rect fill="#FFFFFF" height="37.0146" rx="2.5" ry="2.5" style="stroke:#000000;stroke-width:1;" width="191.5957" x="743.81" y="370.7373"/><text fill="#000000" font-family="Verdana" font-size="14" lengthAdjust="spacing" textLength="171.5957" x="753.81" y="394.8125">Generation Task Service</text></g><!--entity ModelSvc--><g class="entity" data-qualified-name="Web Backend Layer.ModelSvc" data-source-line="21" id="ent0011"><rect fill="#FFFFFF" height="37.0146" rx="2.5" ry="2.5" style="stroke:#000000;stroke-width:1;" width="117.7676" x="970.81" y="370.7373"/><text fill="#000000" font-family="Verdana" font-size="14" lengthAdjust="spacing" textLength="97.7676" x="980.81" y="394.8125">Model Service</text></g><!--entity RecommendSvc--><g class="entity" data-qualified-name="Web Backend Layer.RecommendSvc" data-source-line="22" id="ent0012"><rect fill="#FFFFFF" height="37.0146" rx="2.5" ry="2.5" style="stroke:#000000;stroke-width:1;" width="198.7119" x="1124.31" y="370.7373"/><text fill="#000000" font-family="Verdana" font-size="14" lengthAdjust="spacing" textLength="178.7119" x="1134.31" y="394.8125">Recommendation Service</text></g><!--entity Scheduler--><g class="entity" data-qualified-name="Web Backend Layer.Scheduler" data-source-line="23" id="ent0013"><rect fill="#FFFFFF" height="37.0146" rx="2.5" ry="2.5" style="stroke:#000000;stroke-width:1;" width="184.3975" x="1358.81" y="370.7373"/><text fill="#000000" font-family="Verdana" font-size="14" lengthAdjust="spacing" textLength="164.3975" x="1368.81" y="394.8125">Scheduling Coordinator</text></g><!--entity MQ--><g class="entity" data-qualified-name="Message Queue Layer.MQ" data-source-line="27" id="ent0015"><rect fill="#FFFFFF" height="37.0146" rx="2.5" ry="2.5" style="stroke:#000000;stroke-width:1;" width="175.6406" x="945.81" y="508.7373"/><text fill="#000000" font-family="Verdana" font-size="14" lengthAdjust="spacing" textLength="155.6406" x="955.81" y="532.8125">RabbitMQ Task Queue</text></g><!--entity GenSvc--><g class="entity" data-qualified-name="Algorithm Service Layer.GenSvc" data-source-line="31" id="ent0017"><rect fill="#FFFFFF" height="37.0146" rx="2.5" ry="2.5" style="stroke:#000000;stroke-width:1;" width="203.7432" x="838.81" y="646.7373"/><text fill="#000000" font-family="Verdana" font-size="14" lengthAdjust="spacing" textLength="183.7432" x="848.81" y="670.8125">Online Generation Service</text></g><!--entity TrainSvc--><g class="entity" data-qualified-name="Algorithm Service Layer.TrainSvc" data-source-line="32" id="ent0018"><rect fill="#FFFFFF" height="37.0146" rx="2.5" ry="2.5" style="stroke:#000000;stroke-width:1;" width="184.3701" x="619.81" y="646.7373"/><text fill="#000000" font-family="Verdana" font-size="14" lengthAdjust="spacing" textLength="164.3701" x="629.81" y="670.8125">Offline Training Service</text></g><!--entity ClassifySvc--><g class="entity" data-qualified-name="Algorithm Service Layer.ClassifySvc" data-source-line="33" id="ent0019"><rect fill="#FFFFFF" height="37.0146" rx="2.5" ry="2.5" style="stroke:#000000;stroke-width:1;" width="168.2031" x="1077.81" y="646.7373"/><text fill="#000000" font-family="Verdana" font-size="14" lengthAdjust="spacing" textLength="148.2031" x="1087.81" y="670.8125">Classification Service</text></g><!--entity RecommendEngine--><g class="entity" data-qualified-name="Algorithm Service Layer.RecommendEngine" data-source-line="34" id="ent0020"><rect fill="#FFFFFF" height="37.0146" rx="2.5" ry="2.5" style="stroke:#000000;stroke-width:1;" width="194.542" x="1281.31" y="646.7373"/><text fill="#000000" font-family="Verdana" font-size="14" lengthAdjust="spacing" textLength="174.542" x="1291.31" y="670.8125">Recommendation Engine</text></g><!--entity RDBMS--><g class="entity" data-qualified-name="Data and Storage Layer.RDBMS" data-source-line="38" id="ent0022"><path d="M877.31,794.7373 C877.31,784.7373 934.6079,784.7373 934.6079,784.7373 C934.6079,784.7373 991.9057,784.7373 991.9057,794.7373 L991.9057,820.752 C991.9057,830.752 934.6079,830.752 934.6079,830.752 C934.6079,830.752 877.31,830.752 877.31,820.752 L877.31,794.7373" fill="#FFFFFF" style="stroke:#000000;stroke-width:1;"/><path d="M877.31,794.7373 C877.31,804.7373 934.6079,804.7373 934.6079,804.7373 C934.6079,804.7373 991.9057,804.7373 991.9057,794.7373" fill="none" style="stroke:#000000;stroke-width:1;"/><text fill="#000000" font-family="Verdana" font-size="14" lengthAdjust="spacing" textLength="94.5957" x="887.31" y="822.8125">Relational DB</text></g><!--entity HDFS--><g class="entity" data-qualified-name="Data and Storage Layer.HDFS" data-source-line="39" id="ent0023"><path d="M725.31,794.7373 C725.31,784.7373 783.9169,784.7373 783.9169,784.7373 C783.9169,784.7373 842.5239,784.7373 842.5239,794.7373 L842.5239,820.752 C842.5239,830.752 783.9169,830.752 783.9169,830.752 C783.9169,830.752 725.31,830.752 725.31,820.752 L725.31,794.7373" fill="#FFFFFF" style="stroke:#000000;stroke-width:1;"/><path d="M725.31,794.7373 C725.31,804.7373 783.9169,804.7373 783.9169,804.7373 C783.9169,804.7373 842.5239,804.7373 842.5239,794.7373" fill="none" style="stroke:#000000;stroke-width:1;"/><text fill="#000000" font-family="Verdana" font-size="14" lengthAdjust="spacing" textLength="97.2139" x="735.31" y="822.8125">Hadoop HDFS</text></g><!--entity ETCD--><g class="entity" data-qualified-name="Data and Storage Layer.ETCD" data-source-line="40" id="ent0024"><rect fill="#FFFFFF" height="37.0146" rx="2.5" ry="2.5" style="stroke:#000000;stroke-width:1;" width="169.0713" x="521.31" y="789.2373"/><text fill="#000000" font-family="Verdana" font-size="14" lengthAdjust="spacing" textLength="149.0713" x="531.31" y="813.3125">etcd Service Registry</text></g><!--entity Cron--><g class="entity" data-qualified-name="Scheduled Tasks.Cron" data-source-line="44" id="ent0026"><rect fill="#FFFFFF" height="37.0146" rx="2.5" ry="2.5" style="stroke:#000000;stroke-width:1;" width="214.7969" x="1343.31" y="232.7373"/><text fill="#000000" font-family="Verdana" font-size="14" lengthAdjust="spacing" textLength="194.7969" x="1353.31" y="256.8125">Cron Scheduler Daily 02:00</text></g><!--link Browser to Nginx--><g class="link" data-entity-1="ent0002" data-entity-2="ent0004" data-link-type="dependency" data-source-line="47" id="lnk27"><path d="M745.81,131.7373 C745.81,157.7073 745.81,201.1873 745.81,227.3673" fill="none" id="Browser-to-Nginx" style="stroke:#000000;stroke-width:1;"/><polygon fill="#000000" points="745.81,232.3673,749.81,223.3673,745.81,227.3673,741.81,223.3673,745.81,232.3673" style="stroke:#000000;stroke-width:1;stroke-linejoin:miter;stroke-miterlimit:10;"/><text fill="#000000" font-family="Verdana" font-size="13" lengthAdjust="spacing" textLength="42.5166" x="746.81" y="177.8071">HTTPS</text></g><!--link Nginx to Frontend--><g class="link" data-entity-1="ent0004" data-entity-2="ent0006" data-link-type="dependency" data-source-line="48" id="lnk28"><path d="M662.75,264.7973 C593.77,276.6173 493.71,296.9673 409.81,326.7373 C376.73,338.4673 345.4407,354.561 321.0907,368.221" fill="none" id="Nginx-to-Frontend" style="stroke:#000000;stroke-width:1;"/><polygon fill="#000000" points="316.73,370.6673,326.5363,369.7525,321.0907,368.221,322.6222,362.7754,316.73,370.6673" style="stroke:#000000;stroke-width:1;stroke-linejoin:miter;stroke-miterlimit:10;"/><text fill="#000000" font-family="Verdana" font-size="13" lengthAdjust="spacing" textLength="33.6299" x="491.81" y="315.8071">HTTP</text></g><!--link Nginx to AccountSvc--><g class="link" data-entity-1="ent0004" data-entity-2="ent0008" data-link-type="dependency" data-source-line="49" id="lnk29"><path d="M697.36,269.7773 C662.47,283.2773 614.86,303.5173 575.81,326.7373 C553.59,339.9473 533.9084,354.4941 517.3984,367.4941" fill="none" id="Nginx-to-AccountSvc" style="stroke:#000000;stroke-width:1;"/><polygon fill="#000000" points="513.47,370.5873,523.0156,368.1622,517.3984,367.4941,518.0665,361.8768,513.47,370.5873" style="stroke:#000000;stroke-width:1;stroke-linejoin:miter;stroke-miterlimit:10;"/><text fill="#000000" font-family="Verdana" font-size="13" lengthAdjust="spacing" textLength="60.3979" x="620.81" y="315.8071">HTTP API</text></g><!--link Nginx to ScoreSvc--><g class="link" data-entity-1="ent0004" data-entity-2="ent0009" data-link-type="dependency" data-source-line="50" id="lnk30"><path d="M733.13,270.0773 C726.47,279.4873 718.17,291.2173 710.81,301.7373 C694.14,325.5373 677.872,349.0336 665.782,366.5336" fill="none" id="Nginx-to-ScoreSvc" style="stroke:#000000;stroke-width:1;"/><polygon fill="#000000" points="662.94,370.6473,671.3466,365.5162,665.782,366.5336,664.7646,360.9689,662.94,370.6473" style="stroke:#000000;stroke-width:1;stroke-linejoin:miter;stroke-miterlimit:10;"/><text fill="#000000" font-family="Verdana" font-size="13" lengthAdjust="spacing" textLength="60.3979" x="711.81" y="315.8071">HTTP API</text></g><!--link Nginx to GenTaskSvc--><g class="link" data-entity-1="ent0004" data-entity-2="ent0010" data-link-type="dependency" data-source-line="51" id="lnk31"><path d="M757.9,269.7373 C775.85,295.7073 806.5166,340.0745 824.6166,366.2545" fill="none" id="Nginx-to-GenTaskSvc" style="stroke:#000000;stroke-width:1;"/><polygon fill="#000000" points="827.46,370.3673,825.632,360.6896,824.6166,366.2545,819.0516,365.2391,827.46,370.3673" style="stroke:#000000;stroke-width:1;stroke-linejoin:miter;stroke-miterlimit:10;"/><text fill="#000000" font-family="Verdana" font-size="13" lengthAdjust="spacing" textLength="60.3979" x="790.81" y="315.8071">HTTP API</text></g><!--link Nginx to ModelSvc--><g class="link" data-entity-1="ent0004" data-entity-2="ent0011" data-link-type="dependency" data-source-line="52" id="lnk32"><path d="M812.45,269.8473 C854.52,282.4573 909.17,301.6473 953.81,326.7373 C975.41,338.8773 993.4106,353.7917 1008.0606,367.2717" fill="none" id="Nginx-to-ModelSvc" style="stroke:#000000;stroke-width:1;"/><polygon fill="#000000" points="1011.74,370.6573,1007.8255,361.6198,1008.0606,367.2717,1002.4086,367.5068,1011.74,370.6573" style="stroke:#000000;stroke-width:1;stroke-linejoin:miter;stroke-miterlimit:10;"/><text fill="#000000" font-family="Verdana" font-size="13" lengthAdjust="spacing" textLength="60.3979" x="938.81" y="315.8071">HTTP API</text></g><!--link Nginx to RecommendSvc--><g class="link" data-entity-1="ent0004" data-entity-2="ent0012" data-link-type="dependency" data-source-line="53" id="lnk33"><path d="M828.96,261.6073 C903.55,271.8273 1015.07,291.6173 1106.81,326.7373 C1138.1,338.7173 1167.4332,354.5144 1190.5832,368.0444" fill="none" id="Nginx-to-RecommendSvc" style="stroke:#000000;stroke-width:1;"/><polygon fill="#000000" points="1194.9,370.5673,1189.1481,362.5726,1190.5832,368.0444,1185.1114,369.4794,1194.9,370.5673" style="stroke:#000000;stroke-width:1;stroke-linejoin:miter;stroke-miterlimit:10;"/><text fill="#000000" font-family="Verdana" font-size="13" lengthAdjust="spacing" textLength="60.3979" x="1078.81" y="315.8071">HTTP API</text></g><!--link AccountSvc to RDBMS--><g class="link" data-entity-1="ent0008" data-entity-2="ent0022" data-link-type="dependency" data-source-line="55" id="lnk34"><path d="M449.01,407.8273 C429.81,415.4973 406.8,424.4073 385.81,431.7373 C338.83,448.1573 319.92,436.6873 278.81,464.7373 C220.76,504.3373 165.46,528.4573 188.81,594.7373 C214.96,668.9773 229.06,698.2273 299.81,732.7373 C327.77,746.3773 830.78,729.5473 859.81,740.7373 C882.95,749.6573 900.323,765.466 914.083,780.986" fill="none" id="AccountSvc-to-RDBMS" style="stroke:#000000;stroke-width:1;"/><polygon fill="#000000" points="917.4,784.7273,914.4224,775.3393,914.083,780.986,908.4363,780.6466,917.4,784.7273" style="stroke:#000000;stroke-width:1;stroke-linejoin:miter;stroke-miterlimit:10;"/><text fill="#000000" font-family="Verdana" font-size="13" lengthAdjust="spacing" textLength="61.6992" x="189.81" y="591.8071">user data</text></g><!--link ScoreSvc to RDBMS--><g class="link" data-entity-1="ent0009" data-entity-2="ent0022" data-link-type="dependency" data-source-line="56" id="lnk35"><path d="M640.56,408.0373 C606.85,468.9773 507.73,668.9473 619.81,732.7373 C643,745.9373 835,730.9073 859.81,740.7373 C882.7,749.8173 899.9345,765.4024 913.7245,780.8024" fill="none" id="ScoreSvc-to-RDBMS" style="stroke:#000000;stroke-width:1;"/><polygon fill="#000000" points="917.06,784.5273,914.0361,775.1542,913.7245,780.8024,908.0763,780.4909,917.06,784.5273" style="stroke:#000000;stroke-width:1;stroke-linejoin:miter;stroke-miterlimit:10;"/><text fill="#000000" font-family="Verdana" font-size="13" lengthAdjust="spacing" textLength="101.4546" x="573.81" y="591.8071">score metadata</text></g><!--link ScoreSvc to HDFS--><g class="link" data-entity-1="ent0009" data-entity-2="ent0023" data-link-type="dependency" data-source-line="57" id="lnk36"><path d="M623.57,407.7373 C609.72,416.0073 592.35,425.4173 575.81,431.7373 C560.9,437.4373 554.5,431.5473 540.81,439.7373 C523.34,450.1873 306.96,696.6773 299.81,715.7373 C297.15,722.8073 294.52,727.3473 299.81,732.7373 C315.68,748.9273 686.65,732.5973 707.81,740.7373 C730.97,749.6473 748.4666,765.2686 762.4366,780.7186" fill="none" id="ScoreSvc-to-HDFS" style="stroke:#000000;stroke-width:1;"/><polygon fill="#000000" points="765.79,784.4273,762.7208,775.0689,762.4366,780.7186,756.7869,780.4344,765.79,784.4273" style="stroke:#000000;stroke-width:1;stroke-linejoin:miter;stroke-miterlimit:10;"/><text fill="#000000" font-family="Verdana" font-size="13" lengthAdjust="spacing" textLength="65.5205" x="411.81" y="591.8071">score files</text></g><!--link GenTaskSvc to MQ--><g class="link" data-entity-1="ent0010" data-entity-2="ent0015" data-link-type="dependency" data-source-line="58" id="lnk37"><path d="M864.77,407.7373 C901.92,433.7773 967.266,479.587 1004.536,505.717" fill="none" id="GenTaskSvc-to-MQ" style="stroke:#000000;stroke-width:1;"/><polygon fill="#000000" points="1008.63,508.5873,1003.557,500.1455,1004.536,505.717,998.9645,506.6959,1008.63,508.5873" style="stroke:#000000;stroke-width:1;stroke-linejoin:miter;stroke-miterlimit:10;"/><text fill="#000000" font-family="Verdana" font-size="13" lengthAdjust="spacing" textLength="169.2983" x="931.81" y="453.8071">enqueue generation tasks</text></g><!--link ModelSvc to RDBMS--><g class="link" data-entity-1="ent0011" data-entity-2="ent0022" data-link-type="dependency" data-source-line="59" id="lnk38"><path d="M1060.99,407.7573 C1074.89,415.3773 1091.53,424.2573 1106.81,431.7373 C1275.32,514.2673 1345.74,486.2073 1492.81,602.7373 C1547.1,645.7573 1624.91,681.0273 1578.81,732.7373 C1540.07,776.1773 1148.3851,797.5164 997.5651,804.1864" fill="none" id="ModelSvc-to-RDBMS" style="stroke:#000000;stroke-width:1;"/><polygon fill="#000000" points="992.57,804.4073,1001.7379,808.0058,997.5651,804.1864,1001.3845,800.0136,992.57,804.4073" style="stroke:#000000;stroke-width:1;stroke-linejoin:miter;stroke-miterlimit:10;"/><text fill="#000000" font-family="Verdana" font-size="13" lengthAdjust="spacing" textLength="101.2324" x="1479.81" y="591.8071">model favorites</text></g><!--link RecommendSvc to RDBMS--><g class="link" data-entity-1="ent0012" data-entity-2="ent0022" data-link-type="dependency" data-source-line="60" id="lnk39"><path d="M1264.51,407.7773 C1286.88,416.5873 1315.4,426.4873 1341.81,431.7373 C1374.11,438.1573 1460.88,423.9773 1489.81,439.7373 C1613.38,507.0573 1703.73,627.9473 1609.81,732.7373 C1568.87,778.4173 1153.3463,798.5346 997.4963,804.5446" fill="none" id="RecommendSvc-to-RDBMS" style="stroke:#000000;stroke-width:1;"/><polygon fill="#000000" points="992.5,804.7373,1001.6475,808.3875,997.4963,804.5446,1001.3392,800.3935,992.5,804.7373" style="stroke:#000000;stroke-width:1;stroke-linejoin:miter;stroke-miterlimit:10;"/><text fill="#000000" font-family="Verdana" font-size="13" lengthAdjust="spacing" textLength="143.3364" x="1640.81" y="591.8071">recommendation data</text></g><!--link Scheduler to MQ--><g class="link" data-entity-1="ent0013" data-entity-2="ent0015" data-link-type="dependency" data-source-line="61" id="lnk40"><path d="M1406.08,407.8373 C1386.19,415.4673 1362.44,424.3373 1340.81,431.7373 C1256.12,460.7173 1161.7488,489.0932 1099.5488,507.2932" fill="none" id="Scheduler-to-MQ" style="stroke:#000000;stroke-width:1;"/><polygon fill="#000000" points="1094.75,508.6973,1104.5111,510.0089,1099.5488,507.2932,1102.2645,502.3308,1094.75,508.6973" style="stroke:#000000;stroke-width:1;stroke-linejoin:miter;stroke-miterlimit:10;"/><text fill="#000000" font-family="Verdana" font-size="13" lengthAdjust="spacing" textLength="164.5757" x="1316.81" y="453.8071">enqueue scheduled tasks</text></g><!--link Scheduler to RDBMS--><g class="link" data-entity-1="ent0013" data-entity-2="ent0022" data-link-type="dependency" data-source-line="62" id="lnk41"><path d="M1543.07,404.7573 C1660.43,428.0273 1842.31,482.9273 1792.81,594.7373 C1755.87,678.1673 1724.09,695.4673 1640.81,732.7373 C1525.08,784.5273 1144.3377,800.717 997.3577,805.137" fill="none" id="Scheduler-to-RDBMS" style="stroke:#000000;stroke-width:1;"/><polygon fill="#000000" points="992.36,805.2873,1001.4762,809.015,997.3577,805.137,1001.2357,801.0186,992.36,805.2873" style="stroke:#000000;stroke-width:1;stroke-linejoin:miter;stroke-miterlimit:10;"/><text fill="#000000" font-family="Verdana" font-size="13" lengthAdjust="spacing" textLength="95.9194" x="1798.81" y="591.8071">log task status</text></g><!--link MQ to GenSvc--><g class="link" data-entity-1="ent0015" data-entity-2="ent0017" data-link-type="dependency" data-source-line="64" id="lnk42"><path d="M1017.01,545.8873 C1008.68,555.0473 998.74,566.6173 990.81,577.7373 C974.59,600.4673 961.302,624.3939 951.962,642.3039" fill="none" id="MQ-to-GenSvc" style="stroke:#000000;stroke-width:1;"/><polygon fill="#000000" points="949.65,646.7373,957.3583,640.6068,951.962,642.3039,950.2649,636.9077,949.65,646.7373" style="stroke:#000000;stroke-width:1;stroke-linejoin:miter;stroke-miterlimit:10;"/><text fill="#000000" font-family="Verdana" font-size="13" lengthAdjust="spacing" textLength="108.7163" x="991.81" y="591.8071">generation tasks</text></g><!--link MQ to TrainSvc--><g class="link" data-entity-1="ent0015" data-entity-2="ent0018" data-link-type="dependency" data-source-line="65" id="lnk43"><path d="M972,545.8473 C928.89,559.1073 870.58,579.0373 821.81,602.7373 C793.86,616.3173 767.3827,631.2273 745.5127,644.0573" fill="none" id="MQ-to-TrainSvc" style="stroke:#000000;stroke-width:1;"/><polygon fill="#000000" points="741.2,646.5873,750.9868,645.4834,745.5127,644.0573,746.9388,638.5832,741.2,646.5873" style="stroke:#000000;stroke-width:1;stroke-linejoin:miter;stroke-miterlimit:10;"/><text fill="#000000" font-family="Verdana" font-size="13" lengthAdjust="spacing" textLength="88.9053" x="878.81" y="591.8071">training tasks</text></g><!--link MQ to ClassifySvc--><g class="link" data-entity-1="ent0015" data-entity-2="ent0019" data-link-type="dependency" data-source-line="66" id="lnk44"><path d="M1064.43,545.9373 C1077.74,554.5073 1092.96,565.5773 1104.81,577.7373 C1125.26,598.7373 1140.4027,623.6586 1150.4227,642.1986" fill="none" id="MQ-to-ClassifySvc" style="stroke:#000000;stroke-width:1;"/><polygon fill="#000000" points="1152.8,646.5973,1152.0398,636.7778,1150.4227,642.1986,1145.0019,640.5815,1152.8,646.5973" style="stroke:#000000;stroke-width:1;stroke-linejoin:miter;stroke-miterlimit:10;"/><text fill="#000000" font-family="Verdana" font-size="13" lengthAdjust="spacing" textLength="121.5259" x="1118.81" y="591.8071">classification tasks</text></g><!--link MQ to RecommendEngine--><g class="link" data-entity-1="ent0015" data-entity-2="ent0020" data-link-type="dependency" data-source-line="67" id="lnk45"><path d="M1121.86,541.0873 C1161.68,548.7573 1208.7,560.4673 1248.81,577.7373 C1290.39,595.6473 1329.1307,623.88 1353.7607,643.52" fill="none" id="MQ-to-RecommendEngine" style="stroke:#000000;stroke-width:1;"/><polygon fill="#000000" points="1357.67,646.6373,1353.1271,637.8988,1353.7607,643.52,1348.1394,644.1536,1357.67,646.6373" style="stroke:#000000;stroke-width:1;stroke-linejoin:miter;stroke-miterlimit:10;"/><text fill="#000000" font-family="Verdana" font-size="13" lengthAdjust="spacing" textLength="148.6685" x="1279.81" y="591.8071">recommendation tasks</text></g><!--link GenSvc to HDFS--><g class="link" data-entity-1="ent0017" data-entity-2="ent0023" data-link-type="dependency" data-source-line="69" id="lnk46"><path d="M896.14,683.7573 C874.03,691.9273 846.8,701.2573 821.81,707.7373 C811.76,710.3473 782.49,707.7973 775.81,715.7373 C759.88,734.6673 764.6118,759.6255 772.0818,779.9055" fill="none" id="GenSvc-to-HDFS" style="stroke:#000000;stroke-width:1;"/><polygon fill="#000000" points="773.81,784.5973,774.4527,774.7694,772.0818,779.9055,766.9458,777.5346,773.81,784.5973" style="stroke:#000000;stroke-width:1;stroke-linejoin:miter;stroke-miterlimit:10;"/><text fill="#000000" font-family="Verdana" font-size="13" lengthAdjust="spacing" textLength="114.626" x="776.81" y="729.8071">midi and abc files</text></g><!--link GenSvc to RDBMS--><g class="link" data-entity-1="ent0017" data-entity-2="ent0022" data-link-type="dependency" data-source-line="70" id="lnk47"><path d="M982.51,683.8373 C1005.23,692.6173 1034.1,702.4573 1060.81,707.7373 C1076.09,710.7573 1190.11,704.4073 1200.81,715.7373 C1264.23,782.8873 1093.5042,800.2473 997.5642,804.8573" fill="none" id="GenSvc-to-RDBMS" style="stroke:#000000;stroke-width:1;"/><polygon fill="#000000" points="992.57,805.0973,1001.7516,808.6607,997.5642,804.8573,1001.3676,800.67,992.57,805.0973" style="stroke:#000000;stroke-width:1;stroke-linejoin:miter;stroke-miterlimit:10;"/><text fill="#000000" font-family="Verdana" font-size="13" lengthAdjust="spacing" textLength="121.4624" x="1211.81" y="729.8071">update task status</text></g><!--link TrainSvc to HDFS--><g class="link" data-entity-1="ent0018" data-entity-2="ent0023" data-link-type="dependency" data-source-line="71" id="lnk48"><path d="M619.53,670.8973 C550.81,676.5373 465.18,688.8673 442.81,715.7373 C437.97,721.5473 437.55,727.3173 442.81,732.7373 C453.06,743.3073 694.09,735.3773 707.81,740.7373 C730.92,749.7673 748.409,765.3854 762.409,780.8054" fill="none" id="TrainSvc-to-HDFS" style="stroke:#000000;stroke-width:1;"/><polygon fill="#000000" points="765.77,784.5073,762.6817,775.1552,762.409,780.8054,756.7588,780.5327,765.77,784.5073" style="stroke:#000000;stroke-width:1;stroke-linejoin:miter;stroke-miterlimit:10;"/><text fill="#000000" font-family="Verdana" font-size="13" lengthAdjust="spacing" textLength="137.8647" x="443.81" y="729.8071">GPT-2 model params</text></g><!--link TrainSvc to RDBMS--><g class="link" data-entity-1="ent0018" data-entity-2="ent0022" data-link-type="dependency" data-source-line="72" id="lnk49"><path d="M751.02,683.7973 C771.68,692.3373 797.68,701.9773 821.81,707.7373 C837.9,711.5773 882.51,705.8973 895.81,715.7373 C917.78,731.9873 926.5278,758.2527 930.7478,779.5427" fill="none" id="TrainSvc-to-RDBMS" style="stroke:#000000;stroke-width:1;"/><polygon fill="#000000" points="931.72,784.4473,933.8938,774.8413,930.7478,779.5427,926.0464,776.3968,931.72,784.4473" style="stroke:#000000;stroke-width:1;stroke-linejoin:miter;stroke-miterlimit:10;"/><text fill="#000000" font-family="Verdana" font-size="13" lengthAdjust="spacing" textLength="156.3428" x="910.81" y="729.8071">update model metadata</text></g><!--link ClassifySvc to HDFS--><g class="link" data-entity-1="ent0019" data-entity-2="ent0023" data-link-type="dependency" data-source-line="73" id="lnk50"><path d="M1145.67,683.8473 C1129.7,699.9173 1103.67,722.6473 1075.81,732.7373 C1030.65,749.0973 904.48,723.0973 859.81,740.7373 C836.73,749.8473 819.2346,765.4587 805.2346,780.8487" fill="none" id="ClassifySvc-to-HDFS" style="stroke:#000000;stroke-width:1;"/><polygon fill="#000000" points="801.87,784.5473,810.8851,780.5814,805.2346,780.8487,804.9673,775.1982,801.87,784.5473" style="stroke:#000000;stroke-width:1;stroke-linejoin:miter;stroke-miterlimit:10;"/><text fill="#000000" font-family="Verdana" font-size="13" lengthAdjust="spacing" textLength="65.5205" x="1107.81" y="729.8071">score files</text></g><!--link ClassifySvc to RDBMS--><g class="link" data-entity-1="ent0019" data-entity-2="ent0022" data-link-type="dependency" data-source-line="74" id="lnk51"><path d="M1197.79,683.8073 C1216.95,692.4073 1241.18,702.0973 1263.81,707.7373 C1280.71,711.9473 1330.13,702.8073 1341.81,715.7373 C1346.87,721.3473 1346.65,726.9373 1341.81,732.7373 C1297.98,785.2573 1098.9953,800.3703 997.4953,804.7803" fill="none" id="ClassifySvc-to-RDBMS" style="stroke:#000000;stroke-width:1;"/><polygon fill="#000000" points="992.5,804.9973,1001.6651,808.6029,997.4953,804.7803,1001.3179,800.6104,992.5,804.9973" style="stroke:#000000;stroke-width:1;stroke-linejoin:miter;stroke-miterlimit:10;"/><text fill="#000000" font-family="Verdana" font-size="13" lengthAdjust="spacing" textLength="76.8574" x="1345.81" y="729.8071">score labels</text></g><!--link RecommendEngine to RDBMS--><g class="link" data-entity-1="ent0020" data-entity-2="ent0022" data-link-type="dependency" data-source-line="75" id="lnk52"><path d="M1407.48,683.8273 C1426.16,697.4473 1444.68,716.6373 1430.81,732.7373 C1374.75,797.7773 1115.6099,806.5028 997.3299,807.0828" fill="none" id="RecommendEngine-to-RDBMS" style="stroke:#000000;stroke-width:1;"/><polygon fill="#000000" points="992.33,807.1073,1001.3495,811.0631,997.3299,807.0828,1001.3103,803.0632,992.33,807.1073" style="stroke:#000000;stroke-width:1;stroke-linejoin:miter;stroke-miterlimit:10;"/><text fill="#000000" font-family="Verdana" font-size="13" lengthAdjust="spacing" textLength="134.8877" x="1435.81" y="729.8071">favorites and follows</text></g><!--link Cron to Scheduler--><g class="link" data-entity-1="ent0026" data-entity-2="ent0013" data-link-type="dependency" data-source-line="77" id="lnk53"><path d="M1450.81,269.7373 C1450.81,295.7073 1450.81,339.1873 1450.81,365.3673" fill="none" id="Cron-to-Scheduler" style="stroke:#000000;stroke-width:1;"/><polygon fill="#000000" points="1450.81,370.3673,1454.81,361.3673,1450.81,365.3673,1446.81,361.3673,1450.81,370.3673" style="stroke:#000000;stroke-width:1;stroke-linejoin:miter;stroke-miterlimit:10;"/><text fill="#000000" font-family="Verdana" font-size="13" lengthAdjust="spacing" textLength="117.7744" x="1451.81" y="315.8071">trigger daily tasks</text></g><!--link AccountSvc to ETCD--><g class="link" data-entity-1="ent0008" data-entity-2="ent0024" data-link-type="dependency" data-source-line="79" id="lnk54"><path d="M455.95,407.7673 C435.83,416.6973 409.99,426.7173 385.81,431.7373 C361.97,436.6873 189,429.7173 166.81,439.7373 C84.6,476.8373 11,508.0173 35.81,594.7373 C55.69,664.2173 61.46,692.9773 121.81,732.7373 C185.87,774.9473 395.2204,794.1048 516.0704,801.9148" fill="none" id="AccountSvc-to-ETCD" style="stroke:#000000;stroke-width:1;"/><polygon fill="#000000" points="521.06,802.2373,512.3367,797.6652,516.0704,801.9148,511.8208,805.6486,521.06,802.2373" style="stroke:#000000;stroke-width:1;stroke-linejoin:miter;stroke-miterlimit:10;"/><text fill="#000000" font-family="Verdana" font-size="13" lengthAdjust="spacing" textLength="112.1948" x="36.81" y="591.8071">service discovery</text></g><!--link ScoreSvc to ETCD--><g class="link" data-entity-1="ent0009" data-entity-2="ent0024" data-link-type="dependency" data-source-line="80" id="lnk55"><path d="M625.7,407.9073 C611.7,416.7573 593.55,426.6573 575.81,431.7373 C543.29,441.0473 454.89,426.3873 423.81,439.7373 C418.69,441.9373 135.01,710.6173 132.81,715.7373 C129.82,722.6773 127.89,726.9973 132.81,732.7373 C181.81,790.0073 393.8114,803.15 516.1514,806.02" fill="none" id="ScoreSvc-to-ETCD" style="stroke:#000000;stroke-width:1;"/><polygon fill="#000000" points="521.15,806.1373,512.2463,801.9273,516.1514,806.02,512.0587,809.9251,521.15,806.1373" style="stroke:#000000;stroke-width:1;stroke-linejoin:miter;stroke-miterlimit:10;"/><text fill="#000000" font-family="Verdana" font-size="13" lengthAdjust="spacing" textLength="112.1948" x="274.81" y="591.8071">service discovery</text></g><!--link GenSvc to ETCD--><g class="link" data-entity-1="ent0017" data-entity-2="ent0024" data-link-type="dependency" data-source-line="81" id="lnk56"><path d="M900.04,683.7573 C877.43,692.6273 848.56,702.5873 821.81,707.7373 C802.48,711.4573 660.99,704.5273 644.81,715.7373 C620.5,732.5673 612.0476,762.9213 608.5976,784.2713" fill="none" id="GenSvc-to-ETCD" style="stroke:#000000;stroke-width:1;"/><polygon fill="#000000" points="607.8,789.2073,613.1845,780.9606,608.5976,784.2713,605.2869,779.6845,607.8,789.2073" style="stroke:#000000;stroke-width:1;stroke-linejoin:miter;stroke-miterlimit:10;"/><text fill="#000000" font-family="Verdana" font-size="13" lengthAdjust="spacing" textLength="112.1948" x="645.81" y="729.8071">service discovery</text></g><!--link TrainSvc to ETCD--><g class="link" data-entity-1="ent0018" data-entity-2="ent0024" data-link-type="dependency" data-source-line="82" id="lnk57"><path d="M619.45,671.4673 C509.02,678.6873 336.53,693.3873 316.81,715.7373 C255.46,785.2473 410.5732,801.9972 516.2832,805.8072" fill="none" id="TrainSvc-to-ETCD" style="stroke:#000000;stroke-width:1;"/><polygon fill="#000000" points="521.28,805.9873,512.4299,801.6657,516.2832,805.8072,512.1418,809.6605,521.28,805.9873" style="stroke:#000000;stroke-width:1;stroke-linejoin:miter;stroke-miterlimit:10;"/><text fill="#000000" font-family="Verdana" font-size="13" lengthAdjust="spacing" textLength="112.1948" x="317.81" y="729.8071">service discovery</text></g><?plantuml-src TLLDZzem5BpxLxZqZCH-IDtsK0a8sQrKkYn1wg7gmIIFOAqJfxR3Bghwt-kl13k0k2IUoUIzDs_21xM72d332AsHVALrGmIfSCwhXjTGgqmT6M01kI9roG0fglJzz0qahs3PIfhZCVvEZY2Wm5EHxwdIt5O0GWt9Nqa9U3HdL2ivrWX_N3oazsc2_oACV_s4BPu9_YP1_CP4TjVeN_3u8r7mHexzyscQtitzypzAMh_ZDHn0IC0hmT-FLiUUHohcJQdWjOAwwAMI-qMIJ9rK3qwRXj6SACfhgzK1Pt8pVHEftIpcwOrJc-OvRtNJ6OW3pS4A-RFia1j6bdC14MvFFFe8DGXR0zuG-HhnD6REF7F92s0HRayykWPjPQMhT5eXhOVwWlPGj8pM9PvpBWfQ4yM5hyn20sEM8AMvU6cXXPCz3ycdRgPhijrIjNnnFLYUg_0b4fgoaWkgzbLNtsbNRfFFwPqJUwvrRO23oGo6uljutkqiSIFqJfjkGfezzCGv8rBIdVSweddeU7cAYrglrs28xYngAo6AOA8N9DDpD2V11ZyitA9eHR8bUdT7Qs1MdJ2Sp4PMEvajiuZpH0hE6_oKf9bbc0jJ7wYyw6UtXf9A9LmG5fjv4XNLMLbOJwIfPc9-RiPpOGRHkOqJGjaHJsw_J2PkB1esQZwcU3p-wgA6l-2dpMQL8NTdpliyEIX0JZdm69wklWLubuFBw6dxB-FTzbz6mwKF6IWeolBCx3MXDMqQ0r1VLGXB6-8A53dd67Dwoeuoa2YetPRwed6e_zZybAUzLiOPr3SIlh2oQT-HWmcCLepw2OaYNbbVNcVisTjblnRkvJ6r4sMyj3YMYgXM8gGrl2TkdkTDE48NEqrHNImZGX0upSdZP4RCGUBEMtLiv6iAdAXeGMqUoJO_6NBcUADr86gphpuGUrnjnhVU3lkVEQ0Dv1onNvImtIkxCgJ4AyV85bXWlnz6IEoNnFQyuupfq29a8-vYrbbiJA5bQJVT1DvFS109yoanx_UVcOBgIlJ_xZ7U-gkiODHNET44hxB-0m00?></g></svg>