<svg xmlns="http://www.w3.org/2000/svg" xmlns:xlink="http://www.w3.org/1999/xlink" contentStyleType="text/css" data-diagram-type="DESCRIPTION" height="859px" preserveAspectRatio="none" style="width:1470px;height:859px;background:#FAFAFA;" version="1.1" viewBox="0 0 1470 859" width="1470px" zoomAndPan="magnify"><?plantuml 1.2026.6?><defs/><g><rect fill="#FAFAFA" height="859" style="stroke:none;stroke-width:1;" width="1470" x="0" y="0"/><g class="title" data-source-line="1"><text fill="#000000" font-family="sans-serif" font-size="14" font-weight="700" lengthAdjust="spacing" textLength="524.3096" x="469.3452" y="24.5332">Model Evolution Version Management Visualization Tool - System Architecture</text></g><!--cluster Client Layer--><g class="cluster" data-qualified-name="Client Layer" data-source-line="12" id="ent0004"><polygon fill="none" points="161,237.6094,171,227.6094,442,227.6094,442,312.6094,432,322.6094,161,322.6094,161,237.6094" style="stroke:#181818;stroke-width:1;stroke-linejoin:miter;stroke-miterlimit:10;"/><line style="stroke:#181818;stroke-width:1;" x1="432" x2="442" y1="237.6094" y2="227.6094"/><line style="stroke:#181818;stroke-width:1;" x1="161" x2="432" y1="237.6094" y2="237.6094"/><line style="stroke:#181818;stroke-width:1;" x1="432" x2="432" y1="237.6094" y2="322.6094"/><text fill="#000000" font-family="sans-serif" font-size="14" font-weight="700" lengthAdjust="spacing" textLength="80.1377" x="257.4312" y="255.1426">Client Layer</text></g><!--cluster Front-End Layer--><g class="cluster" data-qualified-name="Front-End Layer" data-source-line="16" id="ent0006"><polygon fill="none" points="470,54.6094,480,44.6094,688,44.6094,688,494.6094,678,504.6094,470,504.6094,470,54.6094" style="stroke:#181818;stroke-width:1;stroke-linejoin:miter;stroke-miterlimit:10;"/><line style="stroke:#181818;stroke-width:1;" x1="678" x2="688" y1="54.6094" y2="44.6094"/><line style="stroke:#181818;stroke-width:1;" x1="470" x2="678" y1="54.6094" y2="54.6094"/><line style="stroke:#181818;stroke-width:1;" x1="678" x2="678" y1="54.6094" y2="504.6094"/><text fill="#000000" font-family="sans-serif" font-size="14" font-weight="700" lengthAdjust="spacing" textLength="108.1172" x="520.9414" y="72.1426">Front-End Layer</text></g><!--cluster Back-End Layer--><g class="cluster" data-qualified-name="Back-End Layer" data-source-line="25" id="ent0013"><polygon fill="none" points="716,54.6094,726,44.6094,1264,44.6094,1264,348.6094,1254,358.6094,716,358.6094,716,54.6094" style="stroke:#181818;stroke-width:1;stroke-linejoin:miter;stroke-miterlimit:10;"/><line style="stroke:#181818;stroke-width:1;" x1="1254" x2="1264" y1="54.6094" y2="44.6094"/><line style="stroke:#181818;stroke-width:1;" x1="716" x2="1254" y1="54.6094" y2="54.6094"/><line style="stroke:#181818;stroke-width:1;" x1="1254" x2="1254" y1="54.6094" y2="358.6094"/><text fill="#000000" font-family="sans-serif" font-size="14" font-weight="700" lengthAdjust="spacing" textLength="105.8203" x="933.0898" y="72.1426">Back-End Layer</text></g><!--cluster Algorithm Support Layer--><g class="cluster" data-qualified-name="Algorithm Support Layer" data-source-line="34" id="ent0020"><polygon fill="none" points="1016,603.6094,1026,593.6094,1445,593.6094,1445,824.6094,1435,834.6094,1016,834.6094,1016,603.6094" style="stroke:#181818;stroke-width:1;stroke-linejoin:miter;stroke-miterlimit:10;"/><line style="stroke:#181818;stroke-width:1;" x1="1435" x2="1445" y1="603.6094" y2="593.6094"/><line style="stroke:#181818;stroke-width:1;" x1="1016" x2="1435" y1="603.6094" y2="603.6094"/><line style="stroke:#181818;stroke-width:1;" x1="1435" x2="1435" y1="603.6094" y2="834.6094"/><text fill="#000000" font-family="sans-serif" font-size="14" font-weight="700" lengthAdjust="spacing" textLength="164.8965" x="1144.0518" y="621.1426">Algorithm Support Layer</text></g><!--cluster Data Layer--><g class="cluster" data-qualified-name="Data Layer" data-source-line="41" id="ent0025"><polygon fill="none" points="1039.5,392.6094,1049.5,382.6094,1186.5,382.6094,1186.5,559.6094,1176.5,569.6094,1039.5,569.6094,1039.5,392.6094" style="stroke:#181818;stroke-width:1;stroke-linejoin:miter;stroke-miterlimit:10;"/><line style="stroke:#181818;stroke-width:1;" x1="1176.5" x2="1186.5" y1="392.6094" y2="382.6094"/><line style="stroke:#181818;stroke-width:1;" x1="1039.5" x2="1176.5" y1="392.6094" y2="392.6094"/><line style="stroke:#181818;stroke-width:1;" x1="1176.5" x2="1176.5" y1="392.6094" y2="569.6094"/><text fill="#000000" font-family="sans-serif" font-size="14" font-weight="700" lengthAdjust="spacing" textLength="71.5928" x="1073.2036" y="410.1426">Data Layer</text></g><!--entity Browser--><g class="entity" data-qualified-name="Client Layer.Browser" data-source-line="13" id="ent0005"><rect fill="#F1F1F1" height="37.6094" rx="2.5" ry="2.5" style="stroke:#181818;stroke-width:0.5;" width="248.7305" x="177" y="268.6094"/><text fill="#000000" font-family="sans-serif" font-size="14" lengthAdjust="spacing" textLength="228.7305" x="187" y="293.1426">Web Browser (Chrome, Firefox, 360)</text></g><!--entity AccountUI--><g class="entity" data-qualified-name="Front-End Layer.AccountUI" data-source-line="17" id="ent0007"><rect fill="#F1F1F1" height="37.6094" rx="2.5" ry="2.5" style="stroke:#181818;stroke-width:0.5;" width="174.082" x="492" y="85.6094"/><text fill="#000000" font-family="sans-serif" font-size="14" lengthAdjust="spacing" textLength="154.082" x="502" y="110.1426">Account Management UI</text></g><!--entity ModelViewUI--><g class="entity" data-qualified-name="Front-End Layer.ModelViewUI" data-source-line="18" id="ent0008"><rect fill="#F1F1F1" height="37.6094" rx="2.5" ry="2.5" style="stroke:#181818;stroke-width:0.5;" width="185.751" x="486" y="304.6094"/><text fill="#000000" font-family="sans-serif" font-size="14" lengthAdjust="spacing" textLength="165.751" x="496" y="329.1426">Model Search and View UI</text></g><!--entity ModelEditUI--><g class="entity" data-qualified-name="Front-End Layer.ModelEditUI" data-source-line="19" id="ent0009"><rect fill="#F1F1F1" height="37.6094" rx="2.5" ry="2.5" style="stroke:#181818;stroke-width:0.5;" width="155.3994" x="501.5" y="377.6094"/><text fill="#000000" font-family="sans-serif" font-size="14" lengthAdjust="spacing" textLength="135.3994" x="511.5" y="402.1426">Model Contribution UI</text></g><!--entity EvoUI--><g class="entity" data-qualified-name="Front-End Layer.EvoUI" data-source-line="20" id="ent0010"><rect fill="#F1F1F1" height="37.6094" rx="2.5" ry="2.5" style="stroke:#181818;stroke-width:0.5;" width="176.4199" x="491" y="231.6094"/><text fill="#000000" font-family="sans-serif" font-size="14" lengthAdjust="spacing" textLength="156.4199" x="501" y="256.1426">Evolution Relationship UI</text></g><!--entity UserMgmtUI--><g class="entity" data-qualified-name="Front-End Layer.UserMgmtUI" data-source-line="21" id="ent0011"><rect fill="#F1F1F1" height="37.6094" rx="2.5" ry="2.5" style="stroke:#181818;stroke-width:0.5;" width="153.0547" x="502.5" y="158.6094"/><text fill="#000000" font-family="sans-serif" font-size="14" lengthAdjust="spacing" textLength="133.0547" x="512.5" y="183.1426">User Management UI</text></g><!--entity NavUI--><g class="entity" data-qualified-name="Front-End Layer.NavUI" data-source-line="22" id="ent0012"><rect fill="#F1F1F1" height="37.6094" rx="2.5" ry="2.5" style="stroke:#181818;stroke-width:0.5;" width="159.3232" x="499.5" y="450.6094"/><text fill="#000000" font-family="sans-serif" font-size="14" lengthAdjust="spacing" textLength="139.3232" x="509.5" y="475.1426">Navigation and Layout</text></g><!--entity AccountSvc--><g class="entity" data-qualified-name="Back-End Layer.AccountSvc" data-source-line="26" id="ent0014"><rect fill="#F1F1F1" height="37.6094" rx="2.5" ry="2.5" style="stroke:#181818;stroke-width:0.5;" width="121.1582" x="764.5" y="85.6094"/><text fill="#000000" font-family="sans-serif" font-size="14" lengthAdjust="spacing" textLength="101.1582" x="774.5" y="110.1426">Account Service</text></g><!--entity ModelSvc--><g class="entity" data-qualified-name="Back-End Layer.ModelSvc" data-source-line="27" id="ent0015"><rect fill="#F1F1F1" height="37.6094" rx="2.5" ry="2.5" style="stroke:#181818;stroke-width:0.5;" width="108.7031" x="770.5" y="304.6094"/><text fill="#000000" font-family="sans-serif" font-size="14" lengthAdjust="spacing" textLength="88.7031" x="780.5" y="329.1426">Model Service</text></g><!--entity EvoSvc--><g class="entity" data-qualified-name="Back-End Layer.EvoSvc" data-source-line="28" id="ent0016"><rect fill="#F1F1F1" height="37.6094" rx="2.5" ry="2.5" style="stroke:#181818;stroke-width:0.5;" width="128.165" x="761" y="231.6094"/><text fill="#000000" font-family="sans-serif" font-size="14" lengthAdjust="spacing" textLength="108.165" x="771" y="256.1426">Evolution Service</text></g><!--entity UserMgmtSvc--><g class="entity" data-qualified-name="Back-End Layer.UserMgmtSvc" data-source-line="29" id="ent0017"><rect fill="#F1F1F1" height="37.6094" rx="2.5" ry="2.5" style="stroke:#181818;stroke-width:0.5;" width="185.7373" x="732" y="158.6094"/><text fill="#000000" font-family="sans-serif" font-size="14" lengthAdjust="spacing" textLength="165.7373" x="742" y="183.1426">User Management Service</text></g><!--entity SecurityMod--><g class="entity" data-qualified-name="Back-End Layer.SecurityMod" data-source-line="30" id="ent0018"><rect fill="#F1F1F1" height="37.6094" rx="2.5" ry="2.5" style="stroke:#181818;stroke-width:0.5;" width="217.6611" x="1004" y="158.6094"/><text fill="#000000" font-family="sans-serif" font-size="14" lengthAdjust="spacing" textLength="197.6611" x="1014" y="183.1426">Security and Encryption Module</text></g><!--entity PerfMod--><g class="entity" data-qualified-name="Back-End Layer.PerfMod" data-source-line="31" id="ent0019"><rect fill="#F1F1F1" height="37.6094" rx="2.5" ry="2.5" style="stroke:#181818;stroke-width:0.5;" width="269.792" x="978" y="231.6094"/><text fill="#000000" font-family="sans-serif" font-size="14" lengthAdjust="spacing" textLength="249.792" x="988" y="256.1426">Performance and Concurrency Manager</text></g><!--entity PythonLib--><g class="entity" data-qualified-name="Algorithm Support Layer.PythonLib" data-source-line="35" id="ent0021"><rect fill="#F1F1F1" height="37.6094" rx="2.5" ry="2.5" style="stroke:#181818;stroke-width:0.5;" width="121.165" x="1308" y="707.6094"/><text fill="#000000" font-family="sans-serif" font-size="14" lengthAdjust="spacing" textLength="101.165" x="1318" y="732.1426">Python Libraries</text></g><!--entity AnalysisEngine--><g class="entity" data-qualified-name="Algorithm Support Layer.AnalysisEngine" data-source-line="36" id="ent0022"><rect fill="#F1F1F1" height="37.6094" rx="2.5" ry="2.5" style="stroke:#181818;stroke-width:0.5;" width="161.6338" x="1032" y="634.6094"/><text fill="#000000" font-family="sans-serif" font-size="14" lengthAdjust="spacing" textLength="141.6338" x="1042" y="659.1426">Model Analysis Engine</text></g><!--entity OnnxProc--><g class="entity" data-qualified-name="Algorithm Support Layer.OnnxProc" data-source-line="37" id="ent0023"><rect fill="#F1F1F1" height="37.6094" rx="2.5" ry="2.5" style="stroke:#181818;stroke-width:0.5;" width="127.3584" x="1049.5" y="707.6094"/><text fill="#000000" font-family="sans-serif" font-size="14" lengthAdjust="spacing" textLength="107.3584" x="1059.5" y="732.1426">ONNX Processor</text></g><!--entity PyTorchHandler--><g class="entity" data-qualified-name="Algorithm Support Layer.PyTorchHandler" data-source-line="38" id="ent0024"><rect fill="#F1F1F1" height="37.6094" rx="2.5" ry="2.5" style="stroke:#181818;stroke-width:0.5;" width="162.3994" x="1032" y="780.6094"/><text fill="#000000" font-family="sans-serif" font-size="14" lengthAdjust="spacing" textLength="142.3994" x="1042" y="805.1426">PyTorch Code Handler</text></g><!--entity MySQL--><g class="entity" data-qualified-name="Data Layer.MySQL" data-source-line="42" id="ent0026"><path d="M1079.5,434.1094 C1079.5,424.1094 1112.8379,424.1094 1112.8379,424.1094 C1112.8379,424.1094 1146.1758,424.1094 1146.1758,434.1094 L1146.1758,460.7188 C1146.1758,470.7188 1112.8379,470.7188 1112.8379,470.7188 C1112.8379,470.7188 1079.5,470.7188 1079.5,460.7188 L1079.5,434.1094" fill="#F1F1F1" style="stroke:#181818;stroke-width:0.5;"/><path d="M1079.5,434.1094 C1079.5,444.1094 1112.8379,444.1094 1112.8379,444.1094 C1112.8379,444.1094 1146.1758,444.1094 1146.1758,434.1094" fill="none" style="stroke:#181818;stroke-width:0.5;"/><text fill="#000000" font-family="sans-serif" font-size="14" lengthAdjust="spacing" textLength="46.6758" x="1089.5" y="462.6426">MySQL</text></g><!--entity Neo4j--><g class="entity" data-qualified-name="Data Layer.Neo4j" data-source-line="43" id="ent0027"><path d="M1084.5,516.1094 C1084.5,506.1094 1112.7896,506.1094 1112.7896,506.1094 C1112.7896,506.1094 1141.0791,506.1094 1141.0791,516.1094 L1141.0791,542.7188 C1141.0791,552.7188 1112.7896,552.7188 1112.7896,552.7188 C1112.7896,552.7188 1084.5,552.7188 1084.5,542.7188 L1084.5,516.1094" fill="#F1F1F1" style="stroke:#181818;stroke-width:0.5;"/><path d="M1084.5,516.1094 C1084.5,526.1094 1112.7896,526.1094 1112.7896,526.1094 C1112.7896,526.1094 1141.0791,526.1094 1141.0791,516.1094" fill="none" style="stroke:#181818;stroke-width:0.5;"/><text fill="#000000" font-family="sans-serif" font-size="14" lengthAdjust="spacing" textLength="36.5791" x="1094.5" y="544.6426">Neo4j</text></g><!--entity Learner--><g class="entity" data-qualified-name="Learner" data-source-line="8" id="ent0001"><ellipse cx="61.6274" cy="144.1094" fill="#F1F1F1" rx="8" ry="8" style="stroke:#181818;stroke-width:0.5;"/><path d="M61.6274,152.1094 L61.6274,179.1094 M48.6274,160.1094 L74.6274,160.1094 M61.6274,179.1094 L48.6274,194.1094 M61.6274,179.1094 L74.6274,194.1094" fill="none" style="stroke:#181818;stroke-width:0.5;"/><text fill="#000000" font-family="sans-serif" font-size="14" lengthAdjust="spacing" textLength="48.2549" x="37.5" y="210.1426">Learner</text></g><!--entity Contributor--><g class="entity" data-qualified-name="Contributor" data-source-line="9" id="ent0002"><ellipse cx="61.6377" cy="257.1094" fill="#F1F1F1" rx="8" ry="8" style="stroke:#181818;stroke-width:0.5;"/><path d="M61.6377,265.1094 L61.6377,292.1094 M48.6377,273.1094 L74.6377,273.1094 M61.6377,292.1094 L48.6377,307.1094 M61.6377,292.1094 L74.6377,307.1094" fill="none" style="stroke:#181818;stroke-width:0.5;"/><text fill="#000000" font-family="sans-serif" font-size="14" lengthAdjust="spacing" textLength="111.2754" x="6" y="323.1426">Model Contributor</text></g><!--entity Administrator--><g class="entity" data-qualified-name="Administrator" data-source-line="10" id="ent0003"><ellipse cx="61.7344" cy="370.1094" fill="#F1F1F1" rx="8" ry="8" style="stroke:#181818;stroke-width:0.5;"/><path d="M61.7344,378.1094 L61.7344,405.1094 M48.7344,386.1094 L74.7344,386.1094 M61.7344,405.1094 L48.7344,420.1094 M61.7344,405.1094 L74.7344,420.1094" fill="none" style="stroke:#181818;stroke-width:0.5;"/><text fill="#000000" font-family="sans-serif" font-size="14" lengthAdjust="spacing" textLength="82.4688" x="20.5" y="436.1426">Administrator</text></g><!--link Learner to Browser--><g class="link" data-entity-1="ent0001" data-entity-2="ent0005" data-link-type="dependency" data-source-line="46" id="lnk28"><path d="M85.75,185.6494 C126.22,204.8694 205.5535,242.5243 255.6635,266.3243" fill="none" id="Learner-to-Browser" style="stroke:#181818;stroke-width:1;"/><polygon fill="#181818" points="260.18,268.4694,253.7665,260.995,255.6635,266.3243,250.3343,268.2213,260.18,268.4694" style="stroke:#181818;stroke-width:1;stroke-linejoin:miter;stroke-miterlimit:10;"/></g><!--link Contributor to Browser--><g class="link" data-entity-1="ent0002" data-entity-2="ent0005" data-link-type="dependency" data-source-line="47" id="lnk29"><path d="M117.1,287.6094 C135.08,287.6094 150.86,287.6094 171.84,287.6094" fill="none" id="Contributor-to-Browser" style="stroke:#181818;stroke-width:1;"/><polygon fill="#181818" points="176.84,287.6094,167.84,283.6094,171.84,287.6094,167.84,291.6094,176.84,287.6094" style="stroke:#181818;stroke-width:1;stroke-linejoin:miter;stroke-miterlimit:10;"/></g><!--link Administrator to Browser--><g class="link" data-entity-1="ent0003" data-entity-2="ent0005" data-link-type="dependency" data-source-line="48" id="lnk30"><path d="M102.6,381.5694 C146.45,360.7494 211.8033,329.7241 255.7133,308.8741" fill="none" id="Administrator-to-Browser" style="stroke:#181818;stroke-width:1;"/><polygon fill="#181818" points="260.23,306.7294,250.3842,306.9764,255.7133,308.8741,253.8157,314.2031,260.23,306.7294" style="stroke:#181818;stroke-width:1;stroke-linejoin:miter;stroke-miterlimit:10;"/></g><!--link Browser to AccountUI--><g class="link" data-entity-1="ent0005" data-entity-2="ent0007" data-link-type="dependency" data-source-line="50" id="lnk31"><path d="M318.14,268.4894 C344.61,237.3394 401.31,175.5794 462,140.6094 C473.69,133.8694 482.0781,129.9221 495.1481,125.2821" fill="none" id="Browser-to-AccountUI" style="stroke:#181818;stroke-width:1;"/><polygon fill="#181818" points="499.86,123.6094,490.0404,122.8509,495.1481,125.2821,492.7168,130.3899,499.86,123.6094" style="stroke:#181818;stroke-width:1;stroke-linejoin:miter;stroke-miterlimit:10;"/></g><!--link Browser to ModelViewUI--><g class="link" data-entity-1="ent0005" data-entity-2="ent0008" data-link-type="dependency" data-source-line="51" id="lnk32"><path d="M426.15,303.7694 C446.17,306.3794 461.6422,308.4008 480.7522,310.9008" fill="none" id="Browser-to-ModelViewUI" style="stroke:#181818;stroke-width:1;"/><polygon fill="#181818" points="485.71,311.5494,477.3049,306.4157,480.7522,310.9008,476.2672,314.3481,485.71,311.5494" style="stroke:#181818;stroke-width:1;stroke-linejoin:miter;stroke-miterlimit:10;"/></g><!--link Browser to ModelEditUI--><g class="link" data-entity-1="ent0005" data-entity-2="ent0009" data-link-type="dependency" data-source-line="52" id="lnk33"><path d="M341.3,306.6394 C373.27,321.9494 420.02,343.4994 462,359.6094 C478.58,365.9694 492.0076,370.6165 508.9576,376.0365" fill="none" id="Browser-to-ModelEditUI" style="stroke:#181818;stroke-width:1;"/><polygon fill="#181818" points="513.72,377.5594,506.3659,371.0083,508.9576,376.0365,503.9293,378.6282,513.72,377.5594" style="stroke:#181818;stroke-width:1;stroke-linejoin:miter;stroke-miterlimit:10;"/></g><!--link Browser to EvoUI--><g class="link" data-entity-1="ent0005" data-entity-2="ent0010" data-link-type="dependency" data-source-line="53" id="lnk34"><path d="M426.15,270.9994 C447.89,268.0794 465.1544,265.7645 485.6444,263.0145" fill="none" id="Browser-to-EvoUI" style="stroke:#181818;stroke-width:1;"/><polygon fill="#181818" points="490.6,262.3494,481.1479,259.5821,485.6444,263.0145,482.2121,267.511,490.6,262.3494" style="stroke:#181818;stroke-width:1;stroke-linejoin:miter;stroke-miterlimit:10;"/></g><!--link Browser to UserMgmtUI--><g class="link" data-entity-1="ent0005" data-entity-2="ent0011" data-link-type="dependency" data-source-line="54" id="lnk35"><path d="M339.91,268.5194 C371.85,252.6494 419.27,230.0694 462,213.6094 C477.74,207.5494 490.1992,203.2558 506.4592,198.1558" fill="none" id="Browser-to-UserMgmtUI" style="stroke:#181818;stroke-width:1;"/><polygon fill="#181818" points="511.23,196.6594,501.4454,195.5362,506.4592,198.1558,503.8396,203.1695,511.23,196.6594" style="stroke:#181818;stroke-width:1;stroke-linejoin:miter;stroke-miterlimit:10;"/></g><!--link Browser to NavUI--><g class="link" data-entity-1="ent0005" data-entity-2="ent0012" data-link-type="dependency" data-source-line="55" id="lnk36"><path d="M318.66,306.8994 C345.44,337.6994 402.03,398.0094 462,432.6094 C474.36,439.7394 483.5583,444.0061 497.3283,448.8961" fill="none" id="Browser-to-NavUI" style="stroke:#181818;stroke-width:1;"/><polygon fill="#181818" points="502.04,450.5694,494.8975,443.7882,497.3283,448.8961,492.2203,451.3269,502.04,450.5694" style="stroke:#181818;stroke-width:1;stroke-linejoin:miter;stroke-miterlimit:10;"/></g><!--link AccountUI to AccountSvc--><g class="link" data-entity-1="ent0007" data-entity-2="ent0014" data-link-type="dependency" data-source-line="57" id="lnk37"><path d="M666.03,104.6094 C698.54,104.6094 729.81,104.6094 759.38,104.6094" fill="none" id="AccountUI-to-AccountSvc" style="stroke:#181818;stroke-width:1;"/><polygon fill="#181818" points="764.38,104.6094,755.38,100.6094,759.38,104.6094,755.38,108.6094,764.38,104.6094" style="stroke:#181818;stroke-width:1;stroke-linejoin:miter;stroke-miterlimit:10;"/></g><!--link ModelViewUI to ModelSvc--><g class="link" data-entity-1="ent0008" data-entity-2="ent0015" data-link-type="dependency" data-source-line="58" id="lnk38"><path d="M672.25,323.6094 C705.31,323.6094 736.48,323.6094 765.21,323.6094" fill="none" id="ModelViewUI-to-ModelSvc" style="stroke:#181818;stroke-width:1;"/><polygon fill="#181818" points="770.21,323.6094,761.21,319.6094,765.21,323.6094,761.21,327.6094,770.21,323.6094" style="stroke:#181818;stroke-width:1;stroke-linejoin:miter;stroke-miterlimit:10;"/></g><!--link ModelViewUI to EvoSvc--><g class="link" data-entity-1="ent0008" data-entity-2="ent0016" data-link-type="dependency" data-source-line="59" id="lnk39"><path d="M643.79,304.5294 C679.8,293.7494 719.8501,281.7734 755.7901,271.0134" fill="none" id="ModelViewUI-to-EvoSvc" style="stroke:#181818;stroke-width:1;"/><polygon fill="#181818" points="760.58,269.5794,750.8109,268.3287,755.7901,271.0134,753.1054,275.9926,760.58,269.5794" style="stroke:#181818;stroke-width:1;stroke-linejoin:miter;stroke-miterlimit:10;"/></g><!--link ModelEditUI to ModelSvc--><g class="link" data-entity-1="ent0009" data-entity-2="ent0015" data-link-type="dependency" data-source-line="60" id="lnk40"><path d="M643.79,377.5294 C683.18,365.7394 728.37,352.2231 765.69,341.0531" fill="none" id="ModelEditUI-to-ModelSvc" style="stroke:#181818;stroke-width:1;"/><polygon fill="#181818" points="770.48,339.6194,760.711,338.368,765.69,341.0531,763.0049,346.032,770.48,339.6194" style="stroke:#181818;stroke-width:1;stroke-linejoin:miter;stroke-miterlimit:10;"/></g><!--link EvoUI to EvoSvc--><g class="link" data-entity-1="ent0010" data-entity-2="ent0016" data-link-type="dependency" data-source-line="61" id="lnk41"><path d="M667.06,250.6094 C697.99,250.6094 727.19,250.6094 755.75,250.6094" fill="none" id="EvoUI-to-EvoSvc" style="stroke:#181818;stroke-width:1;"/><polygon fill="#181818" points="760.75,250.6094,751.75,246.6094,755.75,250.6094,751.75,254.6094,760.75,250.6094" style="stroke:#181818;stroke-width:1;stroke-linejoin:miter;stroke-miterlimit:10;"/></g><!--link UserMgmtUI to UserMgmtSvc--><g class="link" data-entity-1="ent0011" data-entity-2="ent0017" data-link-type="dependency" data-source-line="62" id="lnk42"><path d="M655.53,177.6094 C679.61,177.6094 701.52,177.6094 726.64,177.6094" fill="none" id="UserMgmtUI-to-UserMgmtSvc" style="stroke:#181818;stroke-width:1;"/><polygon fill="#181818" points="731.64,177.6094,722.64,173.6094,726.64,177.6094,722.64,181.6094,731.64,177.6094" style="stroke:#181818;stroke-width:1;stroke-linejoin:miter;stroke-miterlimit:10;"/></g><!--link AccountSvc to SecurityMod--><g class="link" data-entity-1="ent0014" data-entity-2="ent0018" data-link-type="dependency" data-source-line="64" id="lnk43"><path d="M885.61,119.8194 C929.73,131.0894 985.2754,145.2626 1032.5954,157.3426" fill="none" id="AccountSvc-to-SecurityMod" style="stroke:#181818;stroke-width:1;"/><polygon fill="#181818" points="1037.44,158.5794,1029.7091,152.4775,1032.5954,157.3426,1027.7303,160.2289,1037.44,158.5794" style="stroke:#181818;stroke-width:1;stroke-linejoin:miter;stroke-miterlimit:10;"/></g><!--link ModelSvc to SecurityMod--><g class="link" data-entity-1="ent0015" data-entity-2="ent0018" data-link-type="dependency" data-source-line="65" id="lnk44"><path d="M879.95,307.1294 C893.08,301.7494 906.61,294.9594 918,286.6094 C951.87,261.7794 942.7,236.3694 978,213.6094 C988.63,206.7594 995.838,202.9272 1008.058,198.4272" fill="none" id="ModelSvc-to-SecurityMod" style="stroke:#181818;stroke-width:1;"/><polygon fill="#181818" points="1012.75,196.6994,1002.9222,196.0559,1008.058,198.4272,1005.6867,203.563,1012.75,196.6994" style="stroke:#181818;stroke-width:1;stroke-linejoin:miter;stroke-miterlimit:10;"/></g><!--link EvoSvc to SecurityMod--><g class="link" data-entity-1="ent0016" data-entity-2="ent0018" data-link-type="dependency" data-source-line="66" id="lnk45"><path d="M889.12,234.4994 C932.87,223.3294 986.4753,209.646 1032.5453,197.886" fill="none" id="EvoSvc-to-SecurityMod" style="stroke:#181818;stroke-width:1;"/><polygon fill="#181818" points="1037.39,196.6494,1027.6803,194.9996,1032.5453,197.886,1029.659,202.7511,1037.39,196.6494" style="stroke:#181818;stroke-width:1;stroke-linejoin:miter;stroke-miterlimit:10;"/></g><!--link UserMgmtSvc to SecurityMod--><g class="link" data-entity-1="ent0017" data-entity-2="ent0018" data-link-type="dependency" data-source-line="67" id="lnk46"><path d="M918.07,177.6094 C945.42,177.6094 970.63,177.6094 998.9,177.6094" fill="none" id="UserMgmtSvc-to-SecurityMod" style="stroke:#181818;stroke-width:1;"/><polygon fill="#181818" points="1003.9,177.6094,994.9,173.6094,998.9,177.6094,994.9,181.6094,1003.9,177.6094" style="stroke:#181818;stroke-width:1;stroke-linejoin:miter;stroke-miterlimit:10;"/></g><!--link AccountSvc to PerfMod--><g class="link" data-entity-1="ent0014" data-entity-2="ent0019" data-link-type="dependency" data-source-line="69" id="lnk47"><path d="M885.74,122.8394 C897,127.6694 908.28,133.5594 918,140.6094 C951.99,165.2794 942.78,190.7294 978,213.6094 C989.23,220.9094 997.1927,225.066 1010.1327,229.786" fill="none" id="AccountSvc-to-PerfMod" style="stroke:#181818;stroke-width:1;"/><polygon fill="#181818" points="1014.83,231.4994,1007.7456,224.6575,1010.1327,229.786,1005.0042,232.1731,1014.83,231.4994" style="stroke:#181818;stroke-width:1;stroke-linejoin:miter;stroke-miterlimit:10;"/></g><!--link ModelSvc to PerfMod--><g class="link" data-entity-1="ent0015" data-entity-2="ent0019" data-link-type="dependency" data-source-line="70" id="lnk48"><path d="M879.79,309.8794 C924.29,298.5194 983.1355,283.5065 1032.5555,270.8865" fill="none" id="ModelSvc-to-PerfMod" style="stroke:#181818;stroke-width:1;"/><polygon fill="#181818" points="1037.4,269.6494,1027.6901,268.0005,1032.5555,270.8865,1029.6695,275.7518,1037.4,269.6494" style="stroke:#181818;stroke-width:1;stroke-linejoin:miter;stroke-miterlimit:10;"/></g><!--link EvoSvc to PerfMod--><g class="link" data-entity-1="ent0016" data-entity-2="ent0019" data-link-type="dependency" data-source-line="71" id="lnk49"><path d="M889.12,250.6094 C915.36,250.6094 941.88,250.6094 972.84,250.6094" fill="none" id="EvoSvc-to-PerfMod" style="stroke:#181818;stroke-width:1;"/><polygon fill="#181818" points="977.84,250.6094,968.84,246.6094,972.84,250.6094,968.84,254.6094,977.84,250.6094" style="stroke:#181818;stroke-width:1;stroke-linejoin:miter;stroke-miterlimit:10;"/></g><!--link ModelSvc to AnalysisEngine--><g class="link" data-entity-1="ent0015" data-entity-2="ent0022" data-link-type="dependency" data-source-line="73" id="lnk50"><path d="M834.18,342.8794 C853.74,387.1994 906.88,498.0294 978,569.6094 C1005.19,596.9794 1038.4655,617.2995 1066.9555,632.1395" fill="none" id="ModelSvc-to-AnalysisEngine" style="stroke:#181818;stroke-width:1;"/><polygon fill="#181818" points="1071.39,634.4494,1065.2558,626.7441,1066.9555,632.1395,1061.5601,633.8392,1071.39,634.4494" style="stroke:#181818;stroke-width:1;stroke-linejoin:miter;stroke-miterlimit:10;"/></g><!--link ModelSvc to OnnxProc--><g class="link" data-entity-1="ent0015" data-entity-2="ent0023" data-link-type="dependency" data-source-line="74" id="lnk51"><path d="M828.13,342.9094 C835.87,403.6494 868.14,592.6094 978,689.6094 C997.63,706.9394 1019.7877,715.2457 1044.4577,720.1957" fill="none" id="ModelSvc-to-OnnxProc" style="stroke:#181818;stroke-width:1;"/><polygon fill="#181818" points="1049.36,721.1794,1041.3228,715.487,1044.4577,720.1957,1039.749,723.3307,1049.36,721.1794" style="stroke:#181818;stroke-width:1;stroke-linejoin:miter;stroke-miterlimit:10;"/></g><!--link ModelSvc to PyTorchHandler--><g class="link" data-entity-1="ent0015" data-entity-2="ent0024" data-link-type="dependency" data-source-line="75" id="lnk52"><path d="M826.62,342.7294 C829.89,410.6994 850.35,642.8694 978,762.6094 C992.79,776.4794 1007.487,783.8746 1027.027,789.3746" fill="none" id="ModelSvc-to-PyTorchHandler" style="stroke:#181818;stroke-width:1;"/><polygon fill="#181818" points="1031.84,790.7294,1024.2604,784.4405,1027.027,789.3746,1022.0929,792.1412,1031.84,790.7294" style="stroke:#181818;stroke-width:1;stroke-linejoin:miter;stroke-miterlimit:10;"/></g><!--link EvoSvc to AnalysisEngine--><g class="link" data-entity-1="ent0016" data-entity-2="ent0022" data-link-type="dependency" data-source-line="76" id="lnk53"><path d="M889.3,265.7294 C900.13,270.8094 910.35,277.5794 918,286.6094 C1001.16,384.6694 904.36,464.2194 978,569.6094 C998.76,599.3194 1029.223,618.5753 1058.233,632.3453" fill="none" id="EvoSvc-to-AnalysisEngine" style="stroke:#181818;stroke-width:1;"/><polygon fill="#181818" points="1062.75,634.4894,1056.3347,627.0165,1058.233,632.3453,1052.9042,634.2437,1062.75,634.4894" style="stroke:#181818;stroke-width:1;stroke-linejoin:miter;stroke-miterlimit:10;"/></g><!--link AnalysisEngine to PythonLib--><g class="link" data-entity-1="ent0022" data-entity-2="ent0021" data-link-type="dependency" data-source-line="78" id="lnk54"><path d="M1194.16,669.4994 C1219.29,675.1094 1246.98,681.9594 1272,689.6094 C1288.66,694.7094 1301.9105,699.4802 1317.6605,705.7102" fill="none" id="AnalysisEngine-to-PythonLib" style="stroke:#181818;stroke-width:1;"/><polygon fill="#181818" points="1322.31,707.5494,1315.4122,700.5194,1317.6605,705.7102,1312.4696,707.9585,1322.31,707.5494" style="stroke:#181818;stroke-width:1;stroke-linejoin:miter;stroke-miterlimit:10;"/></g><!--link OnnxProc to PythonLib--><g class="link" data-entity-1="ent0023" data-entity-2="ent0021" data-link-type="dependency" data-source-line="79" id="lnk55"><path d="M1176.66,726.6094 C1216.69,726.6094 1263.29,726.6094 1302.74,726.6094" fill="none" id="OnnxProc-to-PythonLib" style="stroke:#181818;stroke-width:1;"/><polygon fill="#181818" points="1307.74,726.6094,1298.74,722.6094,1302.74,726.6094,1298.74,730.6094,1307.74,726.6094" style="stroke:#181818;stroke-width:1;stroke-linejoin:miter;stroke-miterlimit:10;"/></g><!--link PyTorchHandler to PythonLib--><g class="link" data-entity-1="ent0024" data-entity-2="ent0021" data-link-type="dependency" data-source-line="80" id="lnk56"><path d="M1194.11,782.9794 C1219.23,777.1994 1246.93,770.2294 1272,762.6094 C1287.93,757.7594 1300.3685,753.4018 1315.6485,747.5718" fill="none" id="PyTorchHandler-to-PythonLib" style="stroke:#181818;stroke-width:1;"/><polygon fill="#181818" points="1320.32,745.7894,1310.4854,745.2605,1315.6485,747.5718,1313.3372,752.7349,1320.32,745.7894" style="stroke:#181818;stroke-width:1;stroke-linejoin:miter;stroke-miterlimit:10;"/></g><!--link AccountSvc to MySQL--><g class="link" data-entity-1="ent0014" data-entity-2="ent0026" data-link-type="dependency" data-source-line="82" id="lnk57"><path d="M885.55,118.6094 C897.62,123.8194 909.28,130.9194 918,140.6094 C985.25,215.2794 919.08,277.2094 978,358.6094 C1003.87,394.3494 1044.3189,417.7654 1074.9689,432.0654" fill="none" id="AccountSvc-to-MySQL" style="stroke:#181818;stroke-width:1;"/><polygon fill="#181818" points="1079.5,434.1794,1073.0352,426.7493,1074.9689,432.0654,1069.6528,433.999,1079.5,434.1794" style="stroke:#181818;stroke-width:1;stroke-linejoin:miter;stroke-miterlimit:10;"/></g><!--link ModelSvc to MySQL--><g class="link" data-entity-1="ent0015" data-entity-2="ent0026" data-link-type="dependency" data-source-line="83" id="lnk58"><path d="M870.06,342.7094 C927.88,367.7794 1023.4327,409.2103 1074.8627,431.5103" fill="none" id="ModelSvc-to-MySQL" style="stroke:#181818;stroke-width:1;"/><polygon fill="#181818" points="1079.45,433.4994,1072.7841,426.2492,1074.8627,431.5103,1069.6015,433.5889,1079.45,433.4994" style="stroke:#181818;stroke-width:1;stroke-linejoin:miter;stroke-miterlimit:10;"/></g><!--link UserMgmtSvc to MySQL--><g class="link" data-entity-1="ent0017" data-entity-2="ent0026" data-link-type="dependency" data-source-line="84" id="lnk59"><path d="M893.7,196.6394 C902.59,201.1794 911.02,206.7594 918,213.6094 C967.79,262.4494 933.69,304.7494 978,358.6094 C1005.68,392.2494 1044.9067,415.7057 1074.8267,430.6457" fill="none" id="UserMgmtSvc-to-MySQL" style="stroke:#181818;stroke-width:1;"/><polygon fill="#181818" points="1079.3,432.8794,1073.0349,425.2801,1074.8267,430.6457,1069.4611,432.4374,1079.3,432.8794" style="stroke:#181818;stroke-width:1;stroke-linejoin:miter;stroke-miterlimit:10;"/></g><!--link EvoSvc to MySQL--><g class="link" data-entity-1="ent0016" data-entity-2="ent0026" data-link-type="dependency" data-source-line="85" id="lnk60"><path d="M887.63,269.7294 C898.25,274.3894 908.82,279.9894 918,286.6094 C951.79,310.9694 946.99,330.7994 978,358.6094 C1009.6,386.9594 1046.5876,410.5061 1074.9476,426.9961" fill="none" id="EvoSvc-to-MySQL" style="stroke:#181818;stroke-width:1;"/><polygon fill="#181818" points="1079.27,429.5094,1073.5003,421.5275,1074.9476,426.9961,1069.479,428.4434,1079.27,429.5094" style="stroke:#181818;stroke-width:1;stroke-linejoin:miter;stroke-miterlimit:10;"/></g><!--link EvoSvc to Neo4j--><g class="link" data-entity-1="ent0016" data-entity-2="ent0027" data-link-type="dependency" data-source-line="86" id="lnk61"><path d="M889.21,266.4494 C899.92,271.4594 910.11,278.0194 918,286.6094 C981.38,355.5594 912.05,422.1194 978,488.6094 C1006.35,517.1994 1049.0687,525.5269 1079.2487,528.1469" fill="none" id="EvoSvc-to-Neo4j" style="stroke:#181818;stroke-width:1;"/><polygon fill="#181818" points="1084.23,528.5794,1075.6097,523.816,1079.2487,528.1469,1074.9178,531.786,1084.23,528.5794" style="stroke:#181818;stroke-width:1;stroke-linejoin:miter;stroke-miterlimit:10;"/></g><!--link ModelSvc to Neo4j--><g class="link" data-entity-1="ent0015" data-entity-2="ent0027" data-link-type="dependency" data-source-line="87" id="lnk62"><path d="M838.43,342.7294 C861.7,377.0194 915.2,449.0894 978,488.6094 C1011.25,509.5394 1050.9601,519.4878 1079.3801,524.6378" fill="none" id="ModelSvc-to-Neo4j" style="stroke:#181818;stroke-width:1;"/><polygon fill="#181818" points="1084.3,525.5294,1076.1575,519.9887,1079.3801,524.6378,1074.731,527.8605,1084.3,525.5294" style="stroke:#181818;stroke-width:1;stroke-linejoin:miter;stroke-miterlimit:10;"/></g><?plantuml-src ZLHTRzCm57tFhx3A2qYhX0JY4QahhPZKTeLiWrVNkKlC7BkodMu1yT-vZkF6JZe9zQ7nkUVSBzzhowq0ibK52B8wAT5OhYHv06tS_vPAMa8Dqf87RXeg-6_Q4UwK4cHEyjPOgCb2iufROBRHa6NcYSiZrRGcJDL79L6TsnQZQ6HGMGg8A0VAdagj6baibL2Ql5alt2_B13nQOXNHlAmiARWJO-GieymYRmDKIz3zQUOBM2ffDJyq2Cq8DV6v9owAcajkhAOEooJAo6mfkAjmGrj0tP-C38cJsGyua6kjdWreydPPQLN35LbZEe_gvOfy-FJ-NHUgfsH_WzErnk3pbInUyRjW3AksSOllRpfNlUN-9XNu4dEicrM4ejy73iz1qnaTS5brReIxkrYoAlWaq306tq5qrsqgVWmoj8u5zwutqpeSl2thYVyTFV7IZn7rxL6DxHHeGVAvXTSu6__HmHpqYJE8UvUVsENc3SmEcV26scCkeXFckEYO7ogVY79WZUQsxGfVIQRROnSCasc4rmOAGgbs3_fHwPfA1fqSxnIP6YHh-ppyq3kU4v_Rk12bGezLJVBcU5JwjKdVjxR2N3RyeAdcOBot3aJiKZyNaehMS6oGBBdiRw37F9IgRdUxdsIl5GDZ-XMzbVB58UDKxfGRywKhu2jMAq9ntj13GurVgALnMGMU3zIWPTlctpR-njrNOjk1-lZBJvxxSkxwTuNCvv_FEnqz8mcUF2Q99GilXWE7VOxHU6CdUB-MCUxtBaQY_OfXlqJPEMgSWnl8AF0Gy9AXd_eeePJVPHGpXuII_9mf6nBeRF6K1uSJWtSxWIE_4ziuJbY694O08_y1IecZMKvivy5DNQVp6KKO-ShISoyEknQSZ-3K-yWuBjsFUvATXyRzysYKwWJmsv6uyj0_?></g></svg>