<svg xmlns="http://www.w3.org/2000/svg" xmlns:xlink="http://www.w3.org/1999/xlink" contentStyleType="text/css" data-diagram-type="DESCRIPTION" height="1127px" preserveAspectRatio="none" style="width:2150px;height:1127px;background:#FEFEFE;" version="1.1" viewBox="0 0 2150 1127" width="2150px" zoomAndPan="magnify"><?plantuml 1.2026.6?><defs/><g><rect fill="#FEFEFE" height="1127" style="stroke:none;stroke-width:1;" width="2150" x="0" y="0"/><g class="title" data-source-line="4"><text fill="#000000" font-family="sans-serif" font-size="14" font-weight="700" lengthAdjust="spacing" textLength="288.6201" x="927.1899" y="24.5332">PromptHub - Layered Architecture Diagram</text></g><!--cluster Client Layer--><g class="cluster" data-qualified-name="Client Layer" data-source-line="10" id="ent0004"><rect fill="none" height="90" rx="2.5" ry="2.5" style="stroke:#181818;stroke-width:1;" width="286" x="1519" y="169.1094"/><text fill="#000000" font-family="sans-serif" font-size="14" font-weight="700" lengthAdjust="spacing" textLength="80.1377" x="1621.9312" y="185.6426">Client Layer</text></g><!--cluster Front-End Layer--><g class="cluster" data-qualified-name="Front-End Layer" data-source-line="14" id="ent0006"><rect fill="none" height="189" rx="2.5" ry="2.5" style="stroke:#181818;stroke-width:1;" width="1032" x="1104" y="292.1094"/><text fill="#000000" font-family="sans-serif" font-size="14" font-weight="700" lengthAdjust="spacing" textLength="108.1172" x="1565.9414" y="308.6426">Front-End Layer</text></g><!--cluster Back-End Layer (Django)--><g class="cluster" data-qualified-name="Back-End Layer .Django." data-source-line="23" id="ent0013"><rect fill="none" height="211" rx="2.5" ry="2.5" style="stroke:#181818;stroke-width:1;" width="1551" x="536" y="514.1094"/><text fill="#000000" font-family="sans-serif" font-size="14" font-weight="700" lengthAdjust="spacing" textLength="166.4756" x="1228.2622" y="530.6426">Back-End Layer (Django)</text></g><!--cluster Algorithm Support Layer--><g class="cluster" data-qualified-name="Algorithm Support Layer" data-source-line="35" id="ent0023"><rect fill="none" height="217.5" rx="2.5" ry="2.5" style="stroke:#181818;stroke-width:1;" width="505" x="7" y="635.1094"/><text fill="#000000" font-family="sans-serif" font-size="14" font-weight="700" lengthAdjust="spacing" textLength="164.8965" x="177.0518" y="651.6426">Algorithm Support Layer</text></g><!--cluster Data Persistence Layer--><g class="cluster" data-qualified-name="Data Persistence Layer" data-source-line="41" id="ent0027"><rect fill="none" height="99" rx="2.5" ry="2.5" style="stroke:#181818;stroke-width:1;" width="534" x="1409" y="758.1094"/><text fill="#000000" font-family="sans-serif" font-size="14" font-weight="700" lengthAdjust="spacing" textLength="154.0889" x="1598.9556" y="774.6426">Data Persistence Layer</text></g><!--cluster Infrastructure Layer--><g class="cluster" data-qualified-name="Infrastructure Layer" data-source-line="47" id="ent0031"><rect fill="none" height="206" rx="2.5" ry="2.5" style="stroke:#181818;stroke-width:1;" width="438" x="1590" y="907.1094"/><text fill="#000000" font-family="sans-serif" font-size="14" font-weight="700" lengthAdjust="spacing" textLength="132.2686" x="1742.8657" y="923.6426">Infrastructure Layer</text></g><!--entity browser--><g class="entity" data-qualified-name="Client Layer.browser" data-source-line="11" id="ent0005"><rect fill="#F1F1F1" height="37.6094" rx="2.5" ry="2.5" style="stroke:#181818;stroke-width:0.5;" width="254.165" x="1535" y="205.1094"/><text fill="#000000" font-family="sans-serif" font-size="14" lengthAdjust="spacing" textLength="234.165" x="1545" y="229.6426">Web Browser (Chrome/Safari/Firefox)</text></g><!--entity frontend--><g class="entity" data-qualified-name="Front-End Layer.frontend" data-source-line="15" id="ent0007"><rect fill="#F1F1F1" height="37.6094" rx="2.5" ry="2.5" style="stroke:#181818;stroke-width:0.5;" width="143.7168" x="1590" y="328.1094"/><text fill="#000000" font-family="sans-serif" font-size="14" lengthAdjust="spacing" textLength="123.7168" x="1600" y="352.6426">Vue.js / jQuery SPA</text></g><!--entity browse_ui--><g class="entity" data-qualified-name="Front-End Layer.browse_ui" data-source-line="16" id="ent0008"><rect fill="#F1F1F1" height="37.6094" rx="2.5" ry="2.5" style="stroke:#181818;stroke-width:0.5;" width="178.751" x="1120.5" y="427.1094"/><text fill="#000000" font-family="sans-serif" font-size="14" lengthAdjust="spacing" textLength="158.751" x="1130.5" y="451.6426">Home and Browse Pages</text></g><!--entity upload_ui--><g class="entity" data-qualified-name="Front-End Layer.upload_ui" data-source-line="17" id="ent0009"><rect fill="#F1F1F1" height="37.6094" rx="2.5" ry="2.5" style="stroke:#181818;stroke-width:0.5;" width="184.9922" x="1746.5" y="427.1094"/><text fill="#000000" font-family="sans-serif" font-size="14" lengthAdjust="spacing" textLength="164.9922" x="1756.5" y="451.6426">Upload and Review Pages</text></g><!--entity profile_ui--><g class="entity" data-qualified-name="Front-End Layer.profile_ui" data-source-line="18" id="ent0010"><rect fill="#F1F1F1" height="37.6094" rx="2.5" ry="2.5" style="stroke:#181818;stroke-width:0.5;" width="242.5234" x="1334.5" y="427.1094"/><text fill="#000000" font-family="sans-serif" font-size="14" lengthAdjust="spacing" textLength="222.5234" x="1344.5" y="451.6426">User Profile Favorites Follow Pages</text></g><!--entity admin_ui--><g class="entity" data-qualified-name="Front-End Layer.admin_ui" data-source-line="19" id="ent0011"><rect fill="#F1F1F1" height="37.6094" rx="2.5" ry="2.5" style="stroke:#181818;stroke-width:0.5;" width="99.3789" x="1612.5" y="427.1094"/><text fill="#000000" font-family="sans-serif" font-size="14" lengthAdjust="spacing" textLength="79.3789" x="1622.5" y="451.6426">Admin Panel</text></g><!--entity notif_ui--><g class="entity" data-qualified-name="Front-End Layer.notif_ui" data-source-line="20" id="ent0012"><rect fill="#F1F1F1" height="37.6094" rx="2.5" ry="2.5" style="stroke:#181818;stroke-width:0.5;" width="153.0547" x="1966.5" y="427.1094"/><text fill="#000000" font-family="sans-serif" font-size="14" lengthAdjust="spacing" textLength="133.0547" x="1976.5" y="451.6426">Notification Center UI</text></g><!--entity user_svc--><g class="entity" data-qualified-name="Back-End Layer .Django..user_svc" data-source-line="24" id="ent0014"><rect fill="#F1F1F1" height="37.6094" rx="2.5" ry="2.5" style="stroke:#181818;stroke-width:0.5;" width="160.0684" x="1374" y="550.1094"/><text fill="#000000" font-family="sans-serif" font-size="14" lengthAdjust="spacing" textLength="140.0684" x="1384" y="574.6426">User and Auth Service</text></g><!--entity artwork_svc--><g class="entity" data-qualified-name="Back-End Layer .Django..artwork_svc" data-source-line="25" id="ent0015"><rect fill="#F1F1F1" height="37.6094" rx="2.5" ry="2.5" style="stroke:#181818;stroke-width:0.5;" width="118.0205" x="1802" y="550.1094"/><text fill="#000000" font-family="sans-serif" font-size="14" lengthAdjust="spacing" textLength="98.0205" x="1812" y="574.6426">Artwork Service</text></g><!--entity review_svc--><g class="entity" data-qualified-name="Back-End Layer .Django..review_svc" data-source-line="26" id="ent0016"><rect fill="#F1F1F1" height="37.6094" rx="2.5" ry="2.5" style="stroke:#181818;stroke-width:0.5;" width="116.4756" x="1955" y="550.1094"/><text fill="#000000" font-family="sans-serif" font-size="14" lengthAdjust="spacing" textLength="96.4756" x="1965" y="574.6426">Review Service</text></g><!--entity comment_svc--><g class="entity" data-qualified-name="Back-End Layer .Django..comment_svc" data-source-line="27" id="ent0017"><rect fill="#F1F1F1" height="37.6094" rx="2.5" ry="2.5" style="stroke:#181818;stroke-width:0.5;" width="198.1855" x="1569" y="550.1094"/><text fill="#000000" font-family="sans-serif" font-size="14" lengthAdjust="spacing" textLength="178.1855" x="1579" y="574.6426">Comment and Reply Service</text></g><!--entity fav_svc--><g class="entity" data-qualified-name="Back-End Layer .Django..fav_svc" data-source-line="28" id="ent0018"><rect fill="#F1F1F1" height="37.6094" rx="2.5" ry="2.5" style="stroke:#181818;stroke-width:0.5;" width="128.1445" x="956" y="550.1094"/><text fill="#000000" font-family="sans-serif" font-size="14" lengthAdjust="spacing" textLength="108.1445" x="966" y="574.6426">Favorites Service</text></g><!--entity follow_svc--><g class="entity" data-qualified-name="Back-End Layer .Django..follow_svc" data-source-line="29" id="ent0019"><rect fill="#F1F1F1" height="37.6094" rx="2.5" ry="2.5" style="stroke:#181818;stroke-width:0.5;" width="219.2129" x="1119.5" y="550.1094"/><text fill="#000000" font-family="sans-serif" font-size="14" lengthAdjust="spacing" textLength="199.2129" x="1129.5" y="574.6426">Follow and Relationship Service</text></g><!--entity notif_svc--><g class="entity" data-qualified-name="Back-End Layer .Django..notif_svc" data-source-line="30" id="ent0020"><rect fill="#F1F1F1" height="37.6094" rx="2.5" ry="2.5" style="stroke:#181818;stroke-width:0.5;" width="139.8271" x="1791" y="671.1094"/><text fill="#000000" font-family="sans-serif" font-size="14" lengthAdjust="spacing" textLength="119.8271" x="1801" y="695.6426">Notification Service</text></g><!--entity rec_api--><g class="entity" data-qualified-name="Back-End Layer .Django..rec_api" data-source-line="31" id="ent0021"><rect fill="#F1F1F1" height="37.6094" rx="2.5" ry="2.5" style="stroke:#181818;stroke-width:0.5;" width="156.1787" x="552" y="550.1094"/><text fill="#000000" font-family="sans-serif" font-size="14" lengthAdjust="spacing" textLength="136.1787" x="562" y="574.6426">Recommendation API</text></g><!--entity search_svc--><g class="entity" data-qualified-name="Back-End Layer .Django..search_svc" data-source-line="32" id="ent0022"><rect fill="#F1F1F1" height="37.6094" rx="2.5" ry="2.5" style="stroke:#181818;stroke-width:0.5;" width="177.1787" x="743.5" y="550.1094"/><text fill="#000000" font-family="sans-serif" font-size="14" lengthAdjust="spacing" textLength="157.1787" x="753.5" y="574.6426">Search and Filter Service</text></g><!--entity rec_engine--><g class="entity" data-qualified-name="Algorithm Support Layer.rec_engine" data-source-line="36" id="ent0024"><rect fill="#F1F1F1" height="37.6094" rx="2.5" ry="2.5" style="stroke:#181818;stroke-width:0.5;" width="319.5645" x="176" y="671.1094"/><text fill="#000000" font-family="sans-serif" font-size="14" lengthAdjust="spacing" textLength="299.5645" x="186" y="695.6426">Recommendation Engine (PyTorch/TensorFlow)</text></g><!--entity popular_module--><g class="entity" data-qualified-name="Algorithm Support Layer.popular_module" data-source-line="37" id="ent0025"><rect fill="#F1F1F1" height="37.6094" rx="2.5" ry="2.5" style="stroke:#181818;stroke-width:0.5;" width="173.3164" x="23.5" y="798.6094"/><text fill="#000000" font-family="sans-serif" font-size="14" lengthAdjust="spacing" textLength="153.3164" x="33.5" y="823.1426">Popular Ranking Module</text></g><!--entity personalized_module--><g class="entity" data-qualified-name="Algorithm Support Layer.personalized_module" data-source-line="38" id="ent0026"><rect fill="#F1F1F1" height="37.6094" rx="2.5" ry="2.5" style="stroke:#181818;stroke-width:0.5;" width="264.3574" x="232" y="798.6094"/><text fill="#000000" font-family="sans-serif" font-size="14" lengthAdjust="spacing" textLength="244.3574" x="242" y="823.1426">Personalized Recommendation Module</text></g><!--entity sqlite--><g class="entity" data-qualified-name="Data Persistence Layer.sqlite" data-source-line="42" id="ent0028"><path d="M1425.5,804.1094 C1425.5,794.1094 1488.8101,794.1094 1488.8101,794.1094 C1488.8101,794.1094 1552.1201,794.1094 1552.1201,804.1094 L1552.1201,830.7188 C1552.1201,840.7188 1488.8101,840.7188 1488.8101,840.7188 C1488.8101,840.7188 1425.5,840.7188 1425.5,830.7188 L1425.5,804.1094" fill="#F1F1F1" style="stroke:#181818;stroke-width:0.5;"/><path d="M1425.5,804.1094 C1425.5,814.1094 1488.8101,814.1094 1488.8101,814.1094 C1488.8101,814.1094 1552.1201,814.1094 1552.1201,804.1094" fill="none" style="stroke:#181818;stroke-width:0.5;"/><text fill="#000000" font-family="sans-serif" font-size="14" lengthAdjust="spacing" textLength="106.6201" x="1435.5" y="832.6426">SQLite Database</text></g><!--entity file_storage--><g class="entity" data-qualified-name="Data Persistence Layer.file_storage" data-source-line="43" id="ent0029"><path d="M1587.5,804.1094 C1587.5,794.1094 1699.0308,794.1094 1699.0308,794.1094 C1699.0308,794.1094 1810.5615,794.1094 1810.5615,804.1094 L1810.5615,830.7188 C1810.5615,840.7188 1699.0308,840.7188 1699.0308,840.7188 C1699.0308,840.7188 1587.5,840.7188 1587.5,830.7188 L1587.5,804.1094" fill="#F1F1F1" style="stroke:#181818;stroke-width:0.5;"/><path d="M1587.5,804.1094 C1587.5,814.1094 1699.0308,814.1094 1699.0308,814.1094 C1699.0308,814.1094 1810.5615,814.1094 1810.5615,804.1094" fill="none" style="stroke:#181818;stroke-width:0.5;"/><text fill="#000000" font-family="sans-serif" font-size="14" lengthAdjust="spacing" textLength="203.0615" x="1597.5" y="832.6426">File Storage (AI Artwork Images)</text></g><!--entity log_store--><g class="entity" data-qualified-name="Data Persistence Layer.log_store" data-source-line="44" id="ent0030"><path d="M1845.5,804.1094 C1845.5,794.1094 1885.855,794.1094 1885.855,794.1094 C1885.855,794.1094 1926.21,794.1094 1926.21,804.1094 L1926.21,830.7188 C1926.21,840.7188 1885.855,840.7188 1885.855,840.7188 C1885.855,840.7188 1845.5,840.7188 1845.5,830.7188 L1845.5,804.1094" fill="#F1F1F1" style="stroke:#181818;stroke-width:0.5;"/><path d="M1845.5,804.1094 C1845.5,814.1094 1885.855,814.1094 1885.855,814.1094 C1885.855,814.1094 1926.21,814.1094 1926.21,804.1094" fill="none" style="stroke:#181818;stroke-width:0.5;"/><text fill="#000000" font-family="sans-serif" font-size="14" lengthAdjust="spacing" textLength="60.71" x="1855.5" y="832.6426">Log Store</text></g><!--entity docker--><g class="entity" data-qualified-name="Infrastructure Layer.docker" data-source-line="48" id="ent0032"><rect fill="#F1F1F1" height="37.6094" rx="2.5" ry="2.5" style="stroke:#181818;stroke-width:0.5;" width="184.958" x="1826.5" y="943.1094"/><text fill="#000000" font-family="sans-serif" font-size="14" lengthAdjust="spacing" textLength="164.958" x="1836.5" y="967.6426">Docker Container Runtime</text></g><!--entity email_alert--><g class="entity" data-qualified-name="Infrastructure Layer.email_alert" data-source-line="49" id="ent0033"><rect fill="#F1F1F1" height="37.6094" rx="2.5" ry="2.5" style="stroke:#181818;stroke-width:0.5;" width="138.2549" x="1850" y="1059.1094"/><text fill="#000000" font-family="sans-serif" font-size="14" lengthAdjust="spacing" textLength="118.2549" x="1860" y="1083.6426">Email Alert Service</text></g><!--entity backup--><g class="entity" data-qualified-name="Infrastructure Layer.backup" data-source-line="50" id="ent0034"><rect fill="#F1F1F1" height="37.6094" rx="2.5" ry="2.5" style="stroke:#181818;stroke-width:0.5;" width="184.9512" x="1606.5" y="943.1094"/><text fill="#000000" font-family="sans-serif" font-size="14" lengthAdjust="spacing" textLength="164.9512" x="1616.5" y="967.6426">Disaster Recovery Backup</text></g><!--entity visitor--><g class="entity" data-qualified-name="visitor" data-source-line="6" id="ent0001"><ellipse cx="1556.9482" cy="52.6094" fill="#F1F1F1" rx="8" ry="8" style="stroke:#181818;stroke-width:0.5;"/><path d="M1556.9482,60.6094 L1556.9482,87.6094 M1543.9482,68.6094 L1569.9482,68.6094 M1556.9482,87.6094 L1543.9482,102.6094 M1556.9482,87.6094 L1569.9482,102.6094" fill="none" style="stroke:#181818;stroke-width:0.5;"/><text fill="#000000" font-family="sans-serif" font-size="14" lengthAdjust="spacing" textLength="38.8965" x="1537.5" y="118.6426">Visitor</text></g><!--entity user--><g class="entity" data-qualified-name="user" data-source-line="7" id="ent0002"><ellipse cx="1662.0757" cy="52.6094" fill="#F1F1F1" rx="8" ry="8" style="stroke:#181818;stroke-width:0.5;"/><path d="M1662.0757,60.6094 L1662.0757,87.6094 M1649.0757,68.6094 L1675.0757,68.6094 M1662.0757,87.6094 L1649.0757,102.6094 M1662.0757,87.6094 L1675.0757,102.6094" fill="none" style="stroke:#181818;stroke-width:0.5;"/><text fill="#000000" font-family="sans-serif" font-size="14" lengthAdjust="spacing" textLength="101.1514" x="1611.5" y="118.6426">Registered User</text></g><!--entity admin--><g class="entity" data-qualified-name="admin" data-source-line="8" id="ent0003"><ellipse cx="1789.2344" cy="52.6094" fill="#F1F1F1" rx="8" ry="8" style="stroke:#181818;stroke-width:0.5;"/><path d="M1789.2344,60.6094 L1789.2344,87.6094 M1776.2344,68.6094 L1802.2344,68.6094 M1789.2344,87.6094 L1776.2344,102.6094 M1789.2344,87.6094 L1802.2344,102.6094" fill="none" style="stroke:#181818;stroke-width:0.5;"/><text fill="#000000" font-family="sans-serif" font-size="14" lengthAdjust="spacing" textLength="82.4688" x="1748" y="118.6426">Administrator</text></g><!--link visitor to browser--><g class="link" data-entity-1="ent0001" data-entity-2="ent0005" data-link-type="dependency" data-source-line="53" id="lnk35"><path d="M1576.5,109.9294 C1597.38,137.5694 1626.9458,176.7101 1645.2758,200.9701" fill="none" id="visitor-to-browser" style="stroke:#181818;stroke-width:1;"/><polygon fill="#181818" points="1648.29,204.9594,1646.0559,195.3672,1645.2758,200.9701,1639.673,200.19,1648.29,204.9594" style="stroke:#181818;stroke-width:1;stroke-linejoin:miter;stroke-miterlimit:10;"/></g><!--link user to browser--><g class="link" data-entity-1="ent0002" data-entity-2="ent0005" data-link-type="dependency" data-source-line="54" id="lnk36"><path d="M1662,122.4594 C1662,149.2994 1662,178.9494 1662,199.8094" fill="none" id="user-to-browser" style="stroke:#181818;stroke-width:1;"/><polygon fill="#181818" points="1662,204.8094,1666,195.8094,1662,199.8094,1658,195.8094,1662,204.8094" style="stroke:#181818;stroke-width:1;stroke-linejoin:miter;stroke-miterlimit:10;"/></g><!--link admin to browser--><g class="link" data-entity-1="ent0003" data-entity-2="ent0005" data-link-type="dependency" data-source-line="55" id="lnk37"><path d="M1753.96,122.4594 C1729.44,149.2994 1701.1527,180.2582 1682.0927,201.1182" fill="none" id="admin-to-browser" style="stroke:#181818;stroke-width:1;"/><polygon fill="#181818" points="1678.72,204.8094,1687.7438,200.8634,1682.0927,201.1182,1681.8379,195.4671,1678.72,204.8094" style="stroke:#181818;stroke-width:1;stroke-linejoin:miter;stroke-miterlimit:10;"/></g><!--link browser to frontend--><g class="link" data-entity-1="ent0005" data-entity-2="ent0007" data-link-type="dependency" data-source-line="57" id="lnk38"><path d="M1662,243.2194 C1662,266.0394 1662,299.9994 1662,322.8694" fill="none" id="browser-to-frontend" style="stroke:#181818;stroke-width:1;"/><polygon fill="#181818" points="1662,327.8694,1666,318.8694,1662,322.8694,1658,318.8694,1662,327.8694" style="stroke:#181818;stroke-width:1;stroke-linejoin:miter;stroke-miterlimit:10;"/></g><!--link frontend to browse_ui--><g class="link" data-entity-1="ent0007" data-entity-2="ent0008" data-link-type="dependency" data-source-line="59" id="lnk39"><path d="M1589.88,363.5894 C1509.37,380.8594 1384.1487,407.7403 1299.0587,426.0003" fill="none" id="frontend-to-browse_ui" style="stroke:#181818;stroke-width:1;"/><polygon fill="#181818" points="1294.17,427.0494,1303.8089,429.072,1299.0587,426.0003,1302.1304,421.25,1294.17,427.0494" style="stroke:#181818;stroke-width:1;stroke-linejoin:miter;stroke-miterlimit:10;"/></g><!--link frontend to upload_ui--><g class="link" data-entity-1="ent0007" data-entity-2="ent0009" data-link-type="dependency" data-source-line="60" id="lnk40"><path d="M1694.88,366.1294 C1726.57,383.4994 1769.8853,407.2263 1801.6153,424.6163" fill="none" id="frontend-to-upload_ui" style="stroke:#181818;stroke-width:1;"/><polygon fill="#181818" points="1806,427.0194,1800.0301,419.1861,1801.6153,424.6163,1796.1852,426.2016,1806,427.0194" style="stroke:#181818;stroke-width:1;stroke-linejoin:miter;stroke-miterlimit:10;"/></g><!--link frontend to profile_ui--><g class="link" data-entity-1="ent0007" data-entity-2="ent0010" data-link-type="dependency" data-source-line="61" id="lnk41"><path d="M1623.74,366.1294 C1586.85,383.4994 1535.8636,407.4993 1498.9336,424.8893" fill="none" id="frontend-to-profile_ui" style="stroke:#181818;stroke-width:1;"/><polygon fill="#181818" points="1494.41,427.0194,1504.2565,426.804,1498.9336,424.8893,1500.8483,419.5663,1494.41,427.0194" style="stroke:#181818;stroke-width:1;stroke-linejoin:miter;stroke-miterlimit:10;"/></g><!--link frontend to admin_ui--><g class="link" data-entity-1="ent0007" data-entity-2="ent0011" data-link-type="dependency" data-source-line="62" id="lnk42"><path d="M1662,366.3494 C1662,383.6994 1662,404.6294 1662,421.9494" fill="none" id="frontend-to-admin_ui" style="stroke:#181818;stroke-width:1;"/><polygon fill="#181818" points="1662,426.9494,1666,417.9494,1662,421.9494,1658,417.9494,1662,426.9494" style="stroke:#181818;stroke-width:1;stroke-linejoin:miter;stroke-miterlimit:10;"/></g><!--link frontend to notif_ui--><g class="link" data-entity-1="ent0007" data-entity-2="ent0012" data-link-type="dependency" data-source-line="63" id="lnk43"><path d="M1732.77,366.1294 C1801.1,383.5194 1899.1345,408.4858 1967.4445,425.8758" fill="none" id="frontend-to-notif_ui" style="stroke:#181818;stroke-width:1;"/><polygon fill="#181818" points="1972.29,427.1094,1964.555,421.0127,1967.4445,425.8758,1962.5814,428.7654,1972.29,427.1094" style="stroke:#181818;stroke-width:1;stroke-linejoin:miter;stroke-miterlimit:10;"/></g><!--link browse_ui to artwork_svc--><g class="link" data-entity-1="ent0008" data-entity-2="ent0015" data-link-type="dependency" data-source-line="65" id="lnk44"><path d="M1247.17,465.2894 C1267.33,474.2194 1292.97,484.1094 1317,489.1094 C1367.94,499.7094 1736.31,487.7594 1785,506.1094 C1809.06,515.1794 1827.7348,531.4958 1841.8348,546.3258" fill="none" id="browse_ui-to-artwork_svc" style="stroke:#181818;stroke-width:1;"/><polygon fill="#181818" points="1845.28,549.9494,1841.9775,540.6707,1841.8348,546.3258,1836.1797,546.1831,1845.28,549.9494" style="stroke:#181818;stroke-width:1;stroke-linejoin:miter;stroke-miterlimit:10;"/></g><!--link browse_ui to search_svc--><g class="link" data-entity-1="ent0008" data-entity-2="ent0022" data-link-type="dependency" data-source-line="66" id="lnk45"><path d="M1120.4,459.4294 C1066.6,468.5694 997.48,483.4394 939,506.1094 C909.77,517.4394 883.2509,533.252 862.2709,547.122" fill="none" id="browse_ui-to-search_svc" style="stroke:#181818;stroke-width:1;"/><polygon fill="#181818" points="858.1,549.8794,867.8136,548.2528,862.2709,547.122,863.4017,541.5793,858.1,549.8794" style="stroke:#181818;stroke-width:1;stroke-linejoin:miter;stroke-miterlimit:10;"/></g><!--link browse_ui to rec_api--><g class="link" data-entity-1="ent0008" data-entity-2="ent0021" data-link-type="dependency" data-source-line="67" id="lnk46"><path d="M1120.3,453.2094 C1000.85,462.1694 796.44,480.6094 726,506.1094 C698.2,516.1694 674.1854,532.4579 655.6754,546.8679" fill="none" id="browse_ui-to-rec_api" style="stroke:#181818;stroke-width:1;"/><polygon fill="#181818" points="651.73,549.9394,661.2889,547.567,655.6754,546.8679,656.3745,541.2544,651.73,549.9394" style="stroke:#181818;stroke-width:1;stroke-linejoin:miter;stroke-miterlimit:10;"/></g><!--link upload_ui to artwork_svc--><g class="link" data-entity-1="ent0009" data-entity-2="ent0015" data-link-type="dependency" data-source-line="68" id="lnk47"><path d="M1842.29,465.2194 C1846.44,488.0394 1852.6373,522.0797 1856.7873,544.9497" fill="none" id="upload_ui-to-artwork_svc" style="stroke:#181818;stroke-width:1;"/><polygon fill="#181818" points="1857.68,549.8694,1860.0088,540.2998,1856.7873,544.9497,1852.1374,541.7282,1857.68,549.8694" style="stroke:#181818;stroke-width:1;stroke-linejoin:miter;stroke-miterlimit:10;"/></g><!--link upload_ui to review_svc--><g class="link" data-entity-1="ent0009" data-entity-2="ent0016" data-link-type="dependency" data-source-line="69" id="lnk48"><path d="M1872.35,465.2794 C1891.93,476.3694 1916.91,491.2394 1938,506.1094 C1957.33,519.7394 1974.1844,533.7099 1988.8944,546.5599" fill="none" id="upload_ui-to-review_svc" style="stroke:#181818;stroke-width:1;"/><polygon fill="#181818" points="1992.66,549.8494,1988.5135,540.9159,1988.8944,546.5599,1983.2504,546.9408,1992.66,549.8494" style="stroke:#181818;stroke-width:1;stroke-linejoin:miter;stroke-miterlimit:10;"/></g><!--link profile_ui to user_svc--><g class="link" data-entity-1="ent0010" data-entity-2="ent0014" data-link-type="dependency" data-source-line="70" id="lnk49"><path d="M1455.7,465.2194 C1455.32,488.0394 1454.7631,522.0001 1454.3831,544.8701" fill="none" id="profile_ui-to-user_svc" style="stroke:#181818;stroke-width:1;"/><polygon fill="#181818" points="1454.3,549.8694,1458.449,540.9371,1454.3831,544.8701,1450.4501,540.8042,1454.3,549.8694" style="stroke:#181818;stroke-width:1;stroke-linejoin:miter;stroke-miterlimit:10;"/></g><!--link profile_ui to fav_svc--><g class="link" data-entity-1="ent0010" data-entity-2="ent0018" data-link-type="dependency" data-source-line="71" id="lnk50"><path d="M1405.81,465.1194 C1379.67,473.7694 1346.98,483.4594 1317,489.1094 C1222.8,506.8494 1191.6,472.0594 1102,506.1094 C1076.97,515.6194 1056.7505,531.8314 1041.2905,546.4714" fill="none" id="profile_ui-to-fav_svc" style="stroke:#181818;stroke-width:1;"/><polygon fill="#181818" points="1037.66,549.9094,1046.9453,546.6255,1041.2905,546.4714,1041.4446,540.8167,1037.66,549.9094" style="stroke:#181818;stroke-width:1;stroke-linejoin:miter;stroke-miterlimit:10;"/></g><!--link profile_ui to follow_svc--><g class="link" data-entity-1="ent0010" data-entity-2="ent0019" data-link-type="dependency" data-source-line="72" id="lnk51"><path d="M1422.02,465.2194 C1379.1,488.0994 1310.1123,524.8775 1267.2623,547.7175" fill="none" id="profile_ui-to-follow_svc" style="stroke:#181818;stroke-width:1;"/><polygon fill="#181818" points="1262.85,550.0694,1272.6737,549.3659,1267.2623,547.7175,1268.9107,542.3061,1262.85,550.0694" style="stroke:#181818;stroke-width:1;stroke-linejoin:miter;stroke-miterlimit:10;"/></g><!--link admin_ui to review_svc--><g class="link" data-entity-1="ent0011" data-entity-2="ent0016" data-link-type="dependency" data-source-line="73" id="lnk52"><path d="M1684.79,465.2494 C1697.14,474.0494 1713.1,483.8294 1729,489.1094 C1817.45,518.4694 1851.66,471.0294 1938,506.1094 C1961.48,515.6494 1979.7383,531.682 1993.6983,546.312" fill="none" id="admin_ui-to-review_svc" style="stroke:#181818;stroke-width:1;"/><polygon fill="#181818" points="1997.15,549.9294,1993.8308,540.6567,1993.6983,546.312,1988.043,546.1794,1997.15,549.9294" style="stroke:#181818;stroke-width:1;stroke-linejoin:miter;stroke-miterlimit:10;"/></g><!--link admin_ui to user_svc--><g class="link" data-entity-1="ent0011" data-entity-2="ent0014" data-link-type="dependency" data-source-line="74" id="lnk53"><path d="M1635.6,465.2294 C1623.52,473.1094 1608.84,482.1094 1595,489.1094 C1576.66,498.3794 1570.32,496.7994 1552,506.1094 C1526.51,519.0594 1503.2824,533.9045 1483.9624,547.0645" fill="none" id="admin_ui-to-user_svc" style="stroke:#181818;stroke-width:1;"/><polygon fill="#181818" points="1479.83,549.8794,1489.5202,548.1186,1483.9624,547.0645,1485.0165,541.5068,1479.83,549.8794" style="stroke:#181818;stroke-width:1;stroke-linejoin:miter;stroke-miterlimit:10;"/></g><!--link admin_ui to comment_svc--><g class="link" data-entity-1="ent0011" data-entity-2="ent0017" data-link-type="dependency" data-source-line="75" id="lnk54"><path d="M1662.9,465.2194 C1664.03,488.0394 1665.7111,522.0056 1666.8511,544.8756" fill="none" id="admin_ui-to-comment_svc" style="stroke:#181818;stroke-width:1;"/><polygon fill="#181818" points="1667.1,549.8694,1670.647,540.6814,1666.8511,544.8756,1662.6569,541.0797,1667.1,549.8694" style="stroke:#181818;stroke-width:1;stroke-linejoin:miter;stroke-miterlimit:10;"/></g><!--link notif_ui to notif_svc--><g class="link" data-entity-1="ent0012" data-entity-2="ent0020" data-link-type="dependency" data-source-line="76" id="lnk55"><path d="M2062.42,465.3294 C2072.45,476.0994 2083.68,490.6294 2089,506.1094 C2100.85,540.5694 2108.88,557.5594 2089,588.1094 C2054.35,641.3594 1989.3785,665.6538 1936.0785,677.6238" fill="none" id="notif_ui-to-notif_svc" style="stroke:#181818;stroke-width:1;"/><polygon fill="#181818" points="1931.2,678.7194,1940.8578,680.6501,1936.0785,677.6238,1939.1048,672.8445,1931.2,678.7194" style="stroke:#181818;stroke-width:1;stroke-linejoin:miter;stroke-miterlimit:10;"/></g><!--link artwork_svc to notif_svc--><g class="link" data-entity-1="ent0015" data-entity-2="ent0020" data-link-type="dependency" data-source-line="78" id="lnk56"><path d="M1861,588.1794 C1861,610.5494 1861,643.4194 1861,665.8694" fill="none" id="artwork_svc-to-notif_svc" style="stroke:#181818;stroke-width:1;"/><polygon fill="#181818" points="1861,670.8694,1865,661.8694,1861,665.8694,1857,661.8694,1861,670.8694" style="stroke:#181818;stroke-width:1;stroke-linejoin:miter;stroke-miterlimit:10;"/></g><!--link review_svc to notif_svc--><g class="link" data-entity-1="ent0016" data-entity-2="ent0020" data-link-type="dependency" data-source-line="79" id="lnk57"><path d="M1989.91,588.1794 C1961.35,610.5494 1916.9067,645.3368 1888.2367,667.7868" fill="none" id="review_svc-to-notif_svc" style="stroke:#181818;stroke-width:1;"/><polygon fill="#181818" points="1884.3,670.8694,1893.8521,668.47,1888.2367,667.7868,1888.9199,662.1713,1884.3,670.8694" style="stroke:#181818;stroke-width:1;stroke-linejoin:miter;stroke-miterlimit:10;"/></g><!--link comment_svc to notif_svc--><g class="link" data-entity-1="ent0017" data-entity-2="ent0020" data-link-type="dependency" data-source-line="80" id="lnk58"><path d="M1697.31,588.1794 C1733.69,610.6194 1791.114,646.0151 1827.474,668.4351" fill="none" id="comment_svc-to-notif_svc" style="stroke:#181818;stroke-width:1;"/><polygon fill="#181818" points="1831.73,671.0594,1826.1687,662.9309,1827.474,668.4351,1821.9699,669.7404,1831.73,671.0594" style="stroke:#181818;stroke-width:1;stroke-linejoin:miter;stroke-miterlimit:10;"/></g><!--link rec_api to rec_engine--><g class="link" data-entity-1="ent0021" data-entity-2="ent0024" data-link-type="dependency" data-source-line="81" id="lnk59"><path d="M585.35,588.1794 C529.93,610.6194 440.6147,646.7634 385.2247,669.1834" fill="none" id="rec_api-to-rec_engine" style="stroke:#181818;stroke-width:1;"/><polygon fill="#181818" points="380.59,671.0594,390.4333,671.3904,385.2247,669.1834,387.4317,663.9748,380.59,671.0594" style="stroke:#181818;stroke-width:1;stroke-linejoin:miter;stroke-miterlimit:10;"/></g><!--link rec_engine to popular_module--><g class="link" data-entity-1="ent0024" data-entity-2="ent0025" data-link-type="dependency" data-source-line="83" id="lnk60"><path d="M295.55,709.1994 C271.5,720.3194 240.6,735.2394 214,750.1094 C186.87,765.2694 161.2607,781.8016 140.5507,795.7116" fill="none" id="rec_engine-to-popular_module" style="stroke:#181818;stroke-width:1;"/><polygon fill="#181818" points="136.4,798.4994,146.1015,796.8018,140.5507,795.7116,141.6409,790.1608,136.4,798.4994" style="stroke:#181818;stroke-width:1;stroke-linejoin:miter;stroke-miterlimit:10;"/></g><!--link rec_engine to personalized_module--><g class="link" data-entity-1="ent0024" data-entity-2="ent0026" data-link-type="dependency" data-source-line="84" id="lnk61"><path d="M340.07,709.3594 C345.38,733.1494 353.5217,769.6493 358.8317,793.4593" fill="none" id="rec_engine-to-personalized_module" style="stroke:#181818;stroke-width:1;"/><polygon fill="#181818" points="359.92,798.3394,361.8651,788.6845,358.8317,793.4593,354.0569,790.4258,359.92,798.3394" style="stroke:#181818;stroke-width:1;stroke-linejoin:miter;stroke-miterlimit:10;"/></g><!--link user_svc to sqlite--><g class="link" data-entity-1="ent0014" data-entity-2="ent0028" data-link-type="dependency" data-source-line="86" id="lnk62"><path d="M1456.57,588.2394 C1462.84,632.3794 1478.1762,740.4192 1485.0762,788.9492" fill="none" id="user_svc-to-sqlite" style="stroke:#181818;stroke-width:1;"/><polygon fill="#181818" points="1485.78,793.8994,1488.4733,784.4259,1485.0762,788.9492,1480.5529,785.552,1485.78,793.8994" style="stroke:#181818;stroke-width:1;stroke-linejoin:miter;stroke-miterlimit:10;"/></g><!--link artwork_svc to sqlite--><g class="link" data-entity-1="ent0015" data-entity-2="ent0028" data-link-type="dependency" data-source-line="87" id="lnk63"><path d="M1801.71,584.3194 C1796.06,585.6194 1790.43,586.8994 1785,588.1094 C1721.19,602.3094 1695.53,582.0494 1641,618.1094 C1589.06,652.4494 1599.16,683.9094 1561,733.1094 C1544.46,754.4394 1527.635,773.8741 1512.855,790.3841" fill="none" id="artwork_svc-to-sqlite" style="stroke:#181818;stroke-width:1;"/><polygon fill="#181818" points="1509.52,794.1094,1518.5032,790.0718,1512.855,790.3841,1512.5427,784.7358,1509.52,794.1094" style="stroke:#181818;stroke-width:1;stroke-linejoin:miter;stroke-miterlimit:10;"/></g><!--link artwork_svc to file_storage--><g class="link" data-entity-1="ent0015" data-entity-2="ent0029" data-link-type="dependency" data-source-line="88" id="lnk64"><path d="M1822.84,588.2894 C1806.01,597.8794 1787.12,611.0094 1774,627.1094 C1732.2,678.3994 1712.4975,750.9803 1704.3475,789.0203" fill="none" id="artwork_svc-to-file_storage" style="stroke:#181818;stroke-width:1;"/><polygon fill="#181818" points="1703.3,793.9094,1709.0967,785.9471,1704.3475,789.0203,1701.2742,784.2711,1703.3,793.9094" style="stroke:#181818;stroke-width:1;stroke-linejoin:miter;stroke-miterlimit:10;"/></g><!--link review_svc to sqlite--><g class="link" data-entity-1="ent0016" data-entity-2="ent0028" data-link-type="dependency" data-source-line="89" id="lnk65"><path d="M1954.86,584.0794 C1949.16,585.4394 1943.47,586.7994 1938,588.1094 C1865.13,605.5194 1842.47,596.6894 1774,627.1094 C1698.07,660.8494 1694.26,695.8294 1620,733.1094 C1599.02,743.6394 1590.51,738.6994 1570,750.1094 C1548.53,762.0494 1530.8547,776.4988 1515.4647,790.6988" fill="none" id="review_svc-to-sqlite" style="stroke:#181818;stroke-width:1;"/><polygon fill="#181818" points="1511.79,794.0894,1521.117,790.9261,1515.4647,790.6988,1515.6921,785.0465,1511.79,794.0894" style="stroke:#181818;stroke-width:1;stroke-linejoin:miter;stroke-miterlimit:10;"/></g><!--link comment_svc to sqlite--><g class="link" data-entity-1="ent0017" data-entity-2="ent0028" data-link-type="dependency" data-source-line="90" id="lnk66"><path d="M1613.78,588.1694 C1598.08,595.4894 1581.96,605.2994 1570,618.1094 C1521.85,669.6494 1501.5519,748.7408 1493.7619,788.9108" fill="none" id="comment_svc-to-sqlite" style="stroke:#181818;stroke-width:1;"/><polygon fill="#181818" points="1492.81,793.8194,1498.4503,785.7455,1493.7619,788.9108,1490.5966,784.2225,1492.81,793.8194" style="stroke:#181818;stroke-width:1;stroke-linejoin:miter;stroke-miterlimit:10;"/></g><!--link fav_svc to sqlite--><g class="link" data-entity-1="ent0018" data-entity-2="ent0028" data-link-type="dependency" data-source-line="91" id="lnk67"><path d="M1045.89,588.3394 C1091.94,620.2594 1191.73,687.2594 1282,733.1094 C1328.64,756.7994 1378.9724,776.9898 1420.5524,792.4198" fill="none" id="fav_svc-to-sqlite" style="stroke:#181818;stroke-width:1;"/><polygon fill="#181818" points="1425.24,794.1594,1418.1939,787.2781,1420.5524,792.4198,1415.4106,794.7783,1425.24,794.1594" style="stroke:#181818;stroke-width:1;stroke-linejoin:miter;stroke-miterlimit:10;"/></g><!--link follow_svc to sqlite--><g class="link" data-entity-1="ent0019" data-entity-2="ent0028" data-link-type="dependency" data-source-line="92" id="lnk68"><path d="M1248.12,588.2394 C1294.68,632.3794 1410.2314,741.9294 1461.4214,790.4594" fill="none" id="follow_svc-to-sqlite" style="stroke:#181818;stroke-width:1;"/><polygon fill="#181818" points="1465.05,793.8994,1461.2706,784.8045,1461.4214,790.4594,1455.7666,790.6102,1465.05,793.8994" style="stroke:#181818;stroke-width:1;stroke-linejoin:miter;stroke-miterlimit:10;"/></g><!--link notif_svc to sqlite--><g class="link" data-entity-1="ent0020" data-entity-2="ent0028" data-link-type="dependency" data-source-line="93" id="lnk69"><path d="M1812.11,709.2094 C1778.98,720.6594 1733.94,734.6694 1693,742.1094 C1666.05,747.0094 1595.48,740.0494 1570,750.1094 C1546.31,759.4694 1527.8075,774.916 1512.7375,790.226" fill="none" id="notif_svc-to-sqlite" style="stroke:#181818;stroke-width:1;"/><polygon fill="#181818" points="1509.23,793.7894,1518.3942,790.1813,1512.7375,790.226,1512.6928,784.5693,1509.23,793.7894" style="stroke:#181818;stroke-width:1;stroke-linejoin:miter;stroke-miterlimit:10;"/></g><!--link search_svc to sqlite--><g class="link" data-entity-1="ent0022" data-entity-2="ent0028" data-link-type="dependency" data-source-line="94" id="lnk70"><path d="M855.15,588.3694 C899.21,622.2094 999.29,694.6794 1095,733.1094 C1206.44,777.8594 1340.7276,799.5371 1420.3176,809.3571" fill="none" id="search_svc-to-sqlite" style="stroke:#181818;stroke-width:1;"/><polygon fill="#181818" points="1425.28,809.9694,1416.8375,804.8974,1420.3176,809.3571,1415.8579,812.8372,1425.28,809.9694" style="stroke:#181818;stroke-width:1;stroke-linejoin:miter;stroke-miterlimit:10;"/></g><!--link rec_engine to sqlite--><g class="link" data-entity-1="ent0024" data-entity-2="ent0028" data-link-type="dependency" data-source-line="95" id="lnk71"><path d="M411.59,709.2094 C448.86,717.5694 494.59,726.9694 536,733.1094 C868.89,782.4694 1266.8562,805.7499 1420.4162,813.4199" fill="none" id="rec_engine-to-sqlite" style="stroke:#181818;stroke-width:1;"/><polygon fill="#181818" points="1425.41,813.6694,1416.6207,809.2254,1420.4162,813.4199,1416.2217,817.2154,1425.41,813.6694" style="stroke:#181818;stroke-width:1;stroke-linejoin:miter;stroke-miterlimit:10;"/></g><!--link docker to email_alert--><g class="link" data-entity-1="ent0032" data-entity-2="ent0033" data-link-type="dependency" data-source-line="97" id="lnk72"><path d="M1919,981.1694 C1919,1002.3894 1919,1032.4094 1919,1053.7494" fill="none" id="docker-to-email_alert" style="stroke:#181818;stroke-width:1;"/><polygon fill="#181818" points="1919,1058.7494,1923,1049.7494,1919,1053.7494,1915,1049.7494,1919,1058.7494" style="stroke:#181818;stroke-width:1;stroke-linejoin:miter;stroke-miterlimit:10;"/><text fill="#000000" font-family="sans-serif" font-size="13" lengthAdjust="spacing" textLength="53.479" x="1920" y="1025.6045">on failure</text></g><!--link sqlite to backup--><g class="link" data-entity-1="ent0028" data-entity-2="ent0034" data-link-type="dependency" data-source-line="98" id="lnk73"><path d="M1522.28,841.1894 C1563.79,869.3594 1629.8322,914.1825 1668.0722,940.1225" fill="none" id="sqlite-to-backup" style="stroke:#181818;stroke-width:1;"/><polygon fill="#181818" points="1672.21,942.9294,1667.0074,934.5668,1668.0722,940.1225,1662.5164,941.1873,1672.21,942.9294" style="stroke:#181818;stroke-width:1;stroke-linejoin:miter;stroke-miterlimit:10;"/><text fill="#000000" font-family="sans-serif" font-size="13" lengthAdjust="spacing" textLength="80.2153" x="1595" y="887.6045">offsite backup</text></g><!--link file_storage to backup--><g class="link" data-entity-1="ent0029" data-entity-2="ent0034" data-link-type="dependency" data-source-line="99" id="lnk74"><path d="M1699,841.1894 C1699,869.2794 1699,911.7194 1699,937.7094" fill="none" id="file_storage-to-backup" style="stroke:#181818;stroke-width:1;"/><polygon fill="#181818" points="1699,942.7094,1703,933.7094,1699,937.7094,1695,933.7094,1699,942.7094" style="stroke:#181818;stroke-width:1;stroke-linejoin:miter;stroke-miterlimit:10;"/></g><!--link log_store to backup--><g class="link" data-entity-1="ent0030" data-entity-2="ent0034" data-link-type="dependency" data-source-line="100" id="lnk75"><path d="M1858.14,841.2794 C1848.63,848.9294 1837.91,857.4594 1828,865.1094 C1792.21,892.7594 1754.0959,920.9078 1727.9659,940.0178" fill="none" id="log_store-to-backup" style="stroke:#181818;stroke-width:1;"/><polygon fill="#181818" points="1723.93,942.9694,1733.5558,940.8852,1727.9659,940.0178,1728.8333,934.4278,1723.93,942.9694" style="stroke:#181818;stroke-width:1;stroke-linejoin:miter;stroke-miterlimit:10;"/></g><?plantuml-src TLLDSzCm4BthL-o4ItielNDW9YJDa9d2X8R2CREnPKUjB1d9JWaC_vsLv0_9RgU7gc_txQVtrJuBLQF12Z9TrLfnrUoRY-HWUDQWAYLdTd0vOlPS6jsgVAMbDl1kS-T-66j4GvITeH3Dv_O8Dt2F5svu3akJdKH3iLh3OIsmf3YCOTOG_OUmmlr62-Vmx0oB1ruAs_W0ZvQRXNDfwT7Pbtab53aOxEZe0CQ6cc6nae9Q2MKiu2-3iJzO_EH7-6Jq2qM4gzM9okQtUopGYDkDCBpGlwzzocFmOV-Iq1kZLNDpf_8telze-Vid2xVmzAtbvWBxtT97AnoFgppr_ap90IbOA0XsM78RPJ-q8YKyrb9ZxYaF_2puIqHflMrESOtITWf1zM_mh0sjnC96IwbZUXrSPdm_R_9JN2w6SS-ylkf652B3HcW5Au8ewUFM4vGpEK8woK_qFOs3XAlr4ndqzMoYldxNyB9jJh3dvYmoFdmK1tlE9lMQvaMRvyGJ0pPtxeOO-neFpLrNkghS8yo-bfU4bGNhd3PEF7OlyFoAQrX9I23zAEr9r2dH-yovoVnZGfZ-Aus7YlF0MEwsNVFP0Ul9RlSSwP1zNHiXtMRZ1DPRVOPqmKjPkivF5UpRkjRchOESb7AdIg4uNEqktpK5lltEbTLcGrrV3oLoxvE6sUcwbMZW0HLfLWbVTDxAK68TJ8VAGnCQDrOhbE8FTsDFIeb3H6vzdBJTDJO8BfeJBvNnk5kAXqUa0r_ilztJnm3h3WWJ_2K9IzmsxbZt971qdd2rt4B_LMyhTx1X4lvSRN1AsFUwzEGGNkhIUqqBtgh28Ebe6_JvzUMiTVPC2r-HUY6DdCRRgaPK8NBkZIdXha8XOIavxJl-JBZ33-ZmIGPXqScz7_xPQQPJXhOECkYVhl3kdmJSt7mSfDa9G09uRKeGrZqyE8Wmwr-HhrEe11xrD84ZdKpmGHSJT10_DcG9tf4YfPRedb93Vvj3NRD0gIKIih7cq5ald1EyLwKfF6fEt-GqGO8FuHCqLiX-Aj687CoYPYQcCTV448MTKVoyXjbrei76TzXdAWvJwojtp_e6mxx2zKvBVmDERdRIL4UPTjJ1tN8IQ5XCZ0uJYC7nguhHIRCToi9TUoWwM_W0f8a5_KromO9lk1z_fCvS5DQ1tTN6lKQER12a6FmF?></g></svg>