<svg xmlns="http://www.w3.org/2000/svg" xmlns:xlink="http://www.w3.org/1999/xlink" contentStyleType="text/css" data-diagram-type="DESCRIPTION" height="885px" preserveAspectRatio="none" style="width:2724px;height:885px;background:#FFFFFF;" version="1.1" viewBox="0 0 2724 885" width="2724px" zoomAndPan="magnify"><?plantuml 1.2026.6?><defs/><g><g class="title" data-source-line="3"><text fill="#000000" font-family="sans-serif" font-size="14" font-weight="700" lengthAdjust="spacing" textLength="529.7852" x="1094.1055" y="24.5332">System Architecture - AI-Driven Text Adventure Game and Community Platform</text></g><!--cluster Frontend Layer--><g class="cluster" data-qualified-name="Frontend Layer" data-source-line="7" id="ent0001"><path d="M1717.5,44.6094 L1820.4033,44.6094 A3.75,3.75 0 0 1 1822.9033,47.1094 L1829.9033,68.2188 L1956.5,68.2188 A2.5,2.5 0 0 1 1959,70.7188 L1959,132.1094 A2.5,2.5 0 0 1 1956.5,134.6094 L1717.5,134.6094 A2.5,2.5 0 0 1 1715,132.1094 L1715,47.1094 A2.5,2.5 0 0 1 1717.5,44.6094" fill="none" style="stroke:#000000;stroke-width:1.5;"/><line style="stroke:#000000;stroke-width:1.5;" x1="1715" x2="1829.9033" y1="68.2188" y2="68.2188"/><text fill="#000000" font-family="sans-serif" font-size="14" font-weight="700" lengthAdjust="spacing" textLength="101.9033" x="1719" y="61.1426">Frontend Layer</text></g><!--cluster API Gateway & Load Balancer--><g class="cluster" data-qualified-name="API Gateway . Load Balancer" data-source-line="11" id="ent0003"><path d="M1732.5,185.1094 L1932.6787,185.1094 A3.75,3.75 0 0 1 1935.1787,187.6094 L1942.1787,208.7188 L1942.5,208.7188 A2.5,2.5 0 0 1 1945,211.2188 L1945,272.6094 A2.5,2.5 0 0 1 1942.5,275.1094 L1732.5,275.1094 A2.5,2.5 0 0 1 1730,272.6094 L1730,187.6094 A2.5,2.5 0 0 1 1732.5,185.1094" fill="none" style="stroke:#000000;stroke-width:1.5;"/><line style="stroke:#000000;stroke-width:1.5;" x1="1730" x2="1942.1787" y1="208.7188" y2="208.7188"/><text fill="#000000" font-family="sans-serif" font-size="14" font-weight="700" lengthAdjust="spacing" textLength="199.1787" x="1734" y="201.6426">API Gateway &amp; Load Balancer</text></g><!--cluster Backend Services--><g class="cluster" data-qualified-name="Backend Services" data-source-line="15" id="ent0005"><path d="M1158.5,330.1094 L1279.3545,330.1094 A3.75,3.75 0 0 1 1281.8545,332.6094 L1288.8545,353.7188 L2274.5,353.7188 A2.5,2.5 0 0 1 2277,356.2188 L2277,606.6094 A2.5,2.5 0 0 1 2274.5,609.1094 L1158.5,609.1094 A2.5,2.5 0 0 1 1156,606.6094 L1156,332.6094 A2.5,2.5 0 0 1 1158.5,330.1094" fill="none" style="stroke:#000000;stroke-width:1.5;"/><line style="stroke:#000000;stroke-width:1.5;" x1="1156" x2="1288.8545" y1="353.7188" y2="353.7188"/><text fill="#000000" font-family="sans-serif" font-size="14" font-weight="700" lengthAdjust="spacing" textLength="119.8545" x="1160" y="346.6426">Backend Services</text></g><!--cluster Core Services--><g class="cluster" data-qualified-name="Backend Services.Core Services" data-source-line="18" id="ent0007"><path d="M1182.5,495.1094 L1276.8926,495.1094 A3.75,3.75 0 0 1 1279.3926,497.6094 L1286.3926,518.7188 L2250.5,518.7188 A2.5,2.5 0 0 1 2253,521.2188 L2253,582.6094 A2.5,2.5 0 0 1 2250.5,585.1094 L1182.5,585.1094 A2.5,2.5 0 0 1 1180,582.6094 L1180,497.6094 A2.5,2.5 0 0 1 1182.5,495.1094" fill="none" style="stroke:#000000;stroke-width:1.5;"/><line style="stroke:#000000;stroke-width:1.5;" x1="1180" x2="1286.3926" y1="518.7188" y2="518.7188"/><text fill="#000000" font-family="sans-serif" font-size="14" font-weight="700" lengthAdjust="spacing" textLength="93.3926" x="1184" y="511.6426">Core Services</text></g><!--cluster Data Layer--><g class="cluster" data-qualified-name="Data Layer" data-source-line="35" id="ent0020"><path d="M1569.5,659.1094 L1642.0928,659.1094 A3.75,3.75 0 0 1 1644.5928,661.6094 L1651.5928,682.7188 L1726.5,682.7188 A2.5,2.5 0 0 1 1729,685.2188 L1729,867.6094 A2.5,2.5 0 0 1 1726.5,870.1094 L1569.5,870.1094 A2.5,2.5 0 0 1 1567,867.6094 L1567,661.6094 A2.5,2.5 0 0 1 1569.5,659.1094" fill="none" style="stroke:#000000;stroke-width:1.5;"/><line style="stroke:#000000;stroke-width:1.5;" x1="1567" x2="1651.5928" y1="682.7188" y2="682.7188"/><text fill="#000000" font-family="sans-serif" font-size="14" font-weight="700" lengthAdjust="spacing" textLength="71.5928" x="1571" y="675.6426">Data Layer</text></g><!--cluster External Services--><g class="cluster" data-qualified-name="External Services" data-source-line="42" id="ent0024"><path d="M2241.5,659.1094 L2359.2441,659.1094 A3.75,3.75 0 0 1 2361.7441,661.6094 L2368.7441,682.7188 L2488.5,682.7188 A2.5,2.5 0 0 1 2491,685.2188 L2491,746.6094 A2.5,2.5 0 0 1 2488.5,749.1094 L2241.5,749.1094 A2.5,2.5 0 0 1 2239,746.6094 L2239,661.6094 A2.5,2.5 0 0 1 2241.5,659.1094" fill="none" style="stroke:#000000;stroke-width:1.5;"/><line style="stroke:#000000;stroke-width:1.5;" x1="2239" x2="2368.7441" y1="682.7188" y2="682.7188"/><text fill="#000000" font-family="sans-serif" font-size="14" font-weight="700" lengthAdjust="spacing" textLength="116.7441" x="2243" y="675.6426">External Services</text></g><!--cluster Infrastructure--><g class="cluster" data-qualified-name="Infrastructure" data-source-line="119" id="ent0065"><path d="M1320.5,44.6094 L1412.5205,44.6094 A3.75,3.75 0 0 1 1415.0205,47.1094 L1422.0205,68.2188 L1527.5,68.2188 A2.5,2.5 0 0 1 1530,70.7188 L1530,272.6094 A2.5,2.5 0 0 1 1527.5,275.1094 L1320.5,275.1094 A2.5,2.5 0 0 1 1318,272.6094 L1318,47.1094 A2.5,2.5 0 0 1 1320.5,44.6094" fill="none" style="stroke:#000000;stroke-width:1.5;"/><line style="stroke:#000000;stroke-width:1.5;" x1="1318" x2="1422.0205" y1="68.2188" y2="68.2188"/><text fill="#000000" font-family="sans-serif" font-size="14" font-weight="700" lengthAdjust="spacing" textLength="91.0205" x="1322" y="61.1426">Infrastructure</text></g><!--entity frontend--><g class="entity" data-qualified-name="Frontend Layer.frontend" data-source-line="8" id="ent0002"><rect fill="#F1F1F1" height="37.6094" rx="2.5" ry="2.5" style="stroke:#181818;stroke-width:0.5;" width="210.6406" x="1731.5" y="80.6094"/><text fill="#000000" font-family="sans-serif" font-size="14" lengthAdjust="spacing" textLength="190.6406" x="1741.5" y="105.1426">Vue.js/Nuxt.js Web Application</text></g><!--entity gateway--><g class="entity" data-qualified-name="API Gateway . Load Balancer.gateway" data-source-line="12" id="ent0004"><rect fill="#F1F1F1" height="37.6094" rx="2.5" ry="2.5" style="stroke:#181818;stroke-width:0.5;" width="101.7031" x="1786" y="221.1094"/><text fill="#000000" font-family="sans-serif" font-size="14" lengthAdjust="spacing" textLength="81.7031" x="1796" y="245.6426">API Gateway</text></g><!--entity backend--><g class="entity" data-qualified-name="Backend Services.backend" data-source-line="16" id="ent0006"><rect fill="#F1F1F1" height="37.6094" rx="2.5" ry="2.5" style="stroke:#181818;stroke-width:0.5;" width="145.2344" x="1764.5" y="366.1094"/><text fill="#000000" font-family="sans-serif" font-size="14" lengthAdjust="spacing" textLength="125.2344" x="1774.5" y="390.6426">Iris Web Framework</text></g><!--entity user_service--><g class="entity" data-qualified-name="Backend Services.Core Services.user_service" data-source-line="19" id="ent0008"><rect fill="#F1F1F1" height="37.6094" rx="2.5" ry="2.5" style="stroke:#181818;stroke-width:0.5;" width="185.7373" x="1196" y="531.1094"/><text fill="#000000" font-family="sans-serif" font-size="14" lengthAdjust="spacing" textLength="165.7373" x="1206" y="555.6426">User Management Service</text></g><!--entity game_service--><g class="entity" data-qualified-name="Backend Services.Core Services.game_service" data-source-line="20" id="ent0009"><rect fill="#F1F1F1" height="37.6094" rx="2.5" ry="2.5" style="stroke:#181818;stroke-width:0.5;" width="108.6963" x="2127.5" y="531.1094"/><text fill="#000000" font-family="sans-serif" font-size="14" lengthAdjust="spacing" textLength="88.6963" x="2137.5" y="555.6426">Game Service</text></g><!--entity community_service--><g class="entity" data-qualified-name="Backend Services.Core Services.community_service" data-source-line="21" id="ent0010"><rect fill="#F1F1F1" height="37.6094" rx="2.5" ry="2.5" style="stroke:#181818;stroke-width:0.5;" width="141.3652" x="1417.5" y="531.1094"/><text fill="#000000" font-family="sans-serif" font-size="14" lengthAdjust="spacing" textLength="121.3652" x="1427.5" y="555.6426">Community Service</text></g><!--entity admin_service--><g class="entity" data-qualified-name="Backend Services.Core Services.admin_service" data-source-line="22" id="ent0011"><rect fill="#F1F1F1" height="37.6094" rx="2.5" ry="2.5" style="stroke:#181818;stroke-width:0.5;" width="159.2754" x="1757.5" y="531.1094"/><text fill="#000000" font-family="sans-serif" font-size="14" lengthAdjust="spacing" textLength="139.2754" x="1767.5" y="555.6426">Administration Service</text></g><!--entity notification_service--><g class="entity" data-qualified-name="Backend Services.Core Services.notification_service" data-source-line="23" id="ent0012"><rect fill="#F1F1F1" height="37.6094" rx="2.5" ry="2.5" style="stroke:#181818;stroke-width:0.5;" width="139.8271" x="1952" y="531.1094"/><text fill="#000000" font-family="sans-serif" font-size="14" lengthAdjust="spacing" textLength="119.8271" x="1962" y="555.6426">Notification Service</text></g><!--entity favorites_service--><g class="entity" data-qualified-name="Backend Services.Core Services.favorites_service" data-source-line="24" id="ent0013"><rect fill="#F1F1F1" height="37.6094" rx="2.5" ry="2.5" style="stroke:#181818;stroke-width:0.5;" width="128.1445" x="1594" y="531.1094"/><text fill="#000000" font-family="sans-serif" font-size="14" lengthAdjust="spacing" textLength="108.1445" x="1604" y="555.6426">Favorites Service</text></g><!--entity orm--><g class="entity" data-qualified-name="Data Layer.orm" data-source-line="36" id="ent0021"><rect fill="#F1F1F1" height="37.6094" rx="2.5" ry="2.5" style="stroke:#181818;stroke-width:0.5;" width="100.1035" x="1608" y="695.1094"/><text fill="#000000" font-family="sans-serif" font-size="14" lengthAdjust="spacing" textLength="80.1035" x="1618" y="719.6426">GORM ORM</text></g><!--entity database--><g class="entity" data-qualified-name="Data Layer.database" data-source-line="37" id="ent0022"><rect fill="#F1F1F1" height="37.6094" rx="2.5" ry="2.5" style="stroke:#181818;stroke-width:0.5;" width="130.4961" x="1583" y="816.1094"/><text fill="#000000" font-family="sans-serif" font-size="14" lengthAdjust="spacing" textLength="110.4961" x="1593" y="840.6426">MySQL Database</text></g><!--entity llm_provider--><g class="entity" data-qualified-name="External Services.llm_provider" data-source-line="43" id="ent0025"><rect fill="#F1F1F1" height="37.6094" rx="2.5" ry="2.5" style="stroke:#181818;stroke-width:0.5;" width="220.0264" x="2255" y="695.1094"/><text fill="#000000" font-family="sans-serif" font-size="14" lengthAdjust="spacing" textLength="200.0264" x="2265" y="719.6426">Large Language Model Provider</text></g><!--entity docker--><g class="entity" data-qualified-name="Infrastructure.docker" data-source-line="120" id="ent0066"><rect fill="#F1F1F1" height="37.6094" rx="2.5" ry="2.5" style="stroke:#181818;stroke-width:0.5;" width="135.9375" x="1356" y="221.1094"/><text fill="#000000" font-family="sans-serif" font-size="14" lengthAdjust="spacing" textLength="115.9375" x="1366" y="245.6426">Docker Containers</text></g><!--entity k8s--><g class="entity" data-qualified-name="Infrastructure.k8s" data-source-line="121" id="ent0067"><rect fill="#F1F1F1" height="37.6094" rx="2.5" ry="2.5" style="stroke:#181818;stroke-width:0.5;" width="179.5303" x="1334" y="80.6094"/><text fill="#000000" font-family="sans-serif" font-size="14" lengthAdjust="spacing" textLength="159.5303" x="1344" y="105.1426">Kubernetes Orchestration</text></g><g class="entity" data-qualified-name="GMN35" data-source-line="58" id="ent0036"><path d="M1978,78.1094 L1978,95.6094 L1942.57,99.6094 L1978,103.6094 L1978,120.8125 A0,0 0 0 0 1978,120.8125 L2157.9644,120.8125 A0,0 0 0 0 2157.9644,120.8125 L2157.9644,88.1094 L2147.9644,78.1094 L1978,78.1094 A0,0 0 0 0 1978,78.1094" fill="#FEFFDD" style="stroke:#181818;stroke-width:0.5;"/><path d="M2147.9644,78.1094 L2147.9644,88.1094 L2157.9644,88.1094 L2147.9644,78.1094" fill="#FEFFDD" style="stroke:#181818;stroke-width:0.5;"/><text fill="#000000" font-family="sans-serif" font-size="13" lengthAdjust="spacing" textLength="127.1816" x="1984" y="96.6045">Client-side application</text><text fill="#000000" font-family="sans-serif" font-size="13" lengthAdjust="spacing" textLength="158.9644" x="1984" y="112.9561">built with Vue.js and Nuxt.js</text></g><g class="entity" data-qualified-name="GMN38" data-source-line="63" id="ent0039"><path d="M2293.5,363.6094 L2293.5,381.1094 L1909.62,385.1094 L2293.5,389.1094 L2293.5,406.3125 A0,0 0 0 0 2293.5,406.3125 L2450.3081,406.3125 A0,0 0 0 0 2450.3081,406.3125 L2450.3081,373.6094 L2440.3081,363.6094 L2293.5,363.6094 A0,0 0 0 0 2293.5,363.6094" fill="#FEFFDD" style="stroke:#181818;stroke-width:0.5;"/><path d="M2440.3081,363.6094 L2440.3081,373.6094 L2450.3081,373.6094 L2440.3081,363.6094" fill="#FEFFDD" style="stroke:#181818;stroke-width:0.5;"/><text fill="#000000" font-family="sans-serif" font-size="13" lengthAdjust="spacing" textLength="132.2344" x="2299.5" y="382.1045">Server-side application</text><text fill="#000000" font-family="sans-serif" font-size="13" lengthAdjust="spacing" textLength="135.8081" x="2299.5" y="398.4561">built with Iris framework</text></g><g class="entity" data-qualified-name="GMN41" data-source-line="68" id="ent0042"><path d="M1748,813.6094 L1748,831.1094 L1713.08,835.1094 L1748,839.1094 L1748,856.3125 A0,0 0 0 0 1748,856.3125 L1887.5044,856.3125 A0,0 0 0 0 1887.5044,856.3125 L1887.5044,823.6094 L1877.5044,813.6094 L1748,813.6094 A0,0 0 0 0 1748,813.6094" fill="#FEFFDD" style="stroke:#181818;stroke-width:0.5;"/><path d="M1877.5044,813.6094 L1877.5044,823.6094 L1887.5044,823.6094 L1877.5044,813.6094" fill="#FEFFDD" style="stroke:#181818;stroke-width:0.5;"/><text fill="#000000" font-family="sans-serif" font-size="13" lengthAdjust="spacing" textLength="114.918" x="1754" y="832.1045">Relational database</text><text fill="#000000" font-family="sans-serif" font-size="13" lengthAdjust="spacing" textLength="118.5044" x="1754" y="848.4561">managed by MySQL</text></g><g class="entity" data-qualified-name="GMN44" data-source-line="73" id="ent0045"><path d="M2510.5,692.6094 L2510.5,710.1094 L2475.06,714.1094 L2510.5,718.1094 L2510.5,735.3125 A0,0 0 0 0 2510.5,735.3125 L2709.9961,735.3125 A0,0 0 0 0 2709.9961,735.3125 L2709.9961,702.6094 L2699.9961,692.6094 L2510.5,692.6094 A0,0 0 0 0 2510.5,692.6094" fill="#FEFFDD" style="stroke:#181818;stroke-width:0.5;"/><path d="M2699.9961,692.6094 L2699.9961,702.6094 L2709.9961,702.6094 L2699.9961,692.6094" fill="#FEFFDD" style="stroke:#181818;stroke-width:0.5;"/><text fill="#000000" font-family="sans-serif" font-size="13" lengthAdjust="spacing" textLength="108.3735" x="2516.5" y="711.1045">External AI service</text><text fill="#000000" font-family="sans-serif" font-size="13" lengthAdjust="spacing" textLength="178.4961" x="2516.5" y="727.4561">for dynamic content generation</text></g><g class="entity" data-qualified-name="GMN47" data-source-line="78" id="ent0048"><path d="M59.5,347.6094 L59.5,423.0156 L204.7808,423.0156 L204.7808,357.6094 L194.7808,347.6094 L59.5,347.6094" fill="#FEFFDD" style="stroke:#181818;stroke-width:0.5;"/><path d="M194.7808,347.6094 L194.7808,357.6094 L204.7808,357.6094 L194.7808,347.6094" fill="#FEFFDD" style="stroke:#181818;stroke-width:1;"/><text fill="#000000" font-family="sans-serif" font-size="13" lengthAdjust="spacing" textLength="51.3081" x="65.5" y="366.1045">Handles:</text><text fill="#000000" font-family="sans-serif" font-size="13" lengthAdjust="spacing" textLength="112.728" x="65.5" y="382.4561">- Registration/Login</text><text fill="#000000" font-family="sans-serif" font-size="13" lengthAdjust="spacing" textLength="124.2808" x="65.5" y="398.8076">- Profile management</text><text fill="#000000" font-family="sans-serif" font-size="13" lengthAdjust="spacing" textLength="119.2344" x="65.5" y="415.1592">- Account operations</text></g><g class="entity" data-qualified-name="GMN50" data-source-line="85" id="ent0051"><path d="M998.5,339.1094 L998.5,430.8672 L1139.4453,430.8672 L1139.4453,349.1094 L1129.4453,339.1094 L998.5,339.1094" fill="#FEFFDD" style="stroke:#181818;stroke-width:0.5;"/><path d="M1129.4453,339.1094 L1129.4453,349.1094 L1139.4453,349.1094 L1129.4453,339.1094" fill="#FEFFDD" style="stroke:#181818;stroke-width:1;"/><text fill="#000000" font-family="sans-serif" font-size="13" lengthAdjust="spacing" textLength="51.3081" x="1004.5" y="357.6045">Handles:</text><text fill="#000000" font-family="sans-serif" font-size="13" lengthAdjust="spacing" textLength="80.9136" x="1004.5" y="373.9561">- Game saves</text><text fill="#000000" font-family="sans-serif" font-size="13" lengthAdjust="spacing" textLength="112.7344" x="1004.5" y="390.3076">- Background setup</text><text fill="#000000" font-family="sans-serif" font-size="13" lengthAdjust="spacing" textLength="119.9453" x="1004.5" y="406.6592">- Choice progression</text><text fill="#000000" font-family="sans-serif" font-size="13" lengthAdjust="spacing" textLength="83.8208" x="1004.5" y="423.0107">- Save sharing</text></g><g class="entity" data-qualified-name="GMN53" data-source-line="93" id="ent0054"><path d="M239.5,339.1094 L239.5,430.8672 L378.2554,430.8672 L378.2554,349.1094 L368.2554,339.1094 L239.5,339.1094" fill="#FEFFDD" style="stroke:#181818;stroke-width:0.5;"/><path d="M368.2554,339.1094 L368.2554,349.1094 L378.2554,349.1094 L368.2554,339.1094" fill="#FEFFDD" style="stroke:#181818;stroke-width:1;"/><text fill="#000000" font-family="sans-serif" font-size="13" lengthAdjust="spacing" textLength="51.3081" x="245.5" y="357.6045">Handles:</text><text fill="#000000" font-family="sans-serif" font-size="13" lengthAdjust="spacing" textLength="40.4536" x="245.5" y="373.9561">- Posts</text><text fill="#000000" font-family="sans-serif" font-size="13" lengthAdjust="spacing" textLength="117.7554" x="245.5" y="390.3076">- Comments/Replies</text><text fill="#000000" font-family="sans-serif" font-size="13" lengthAdjust="spacing" textLength="49.1309" x="245.5" y="406.6592">- Search</text><text fill="#000000" font-family="sans-serif" font-size="13" lengthAdjust="spacing" textLength="116.3271" x="245.5" y="423.0107">- Recommendations</text></g><g class="entity" data-qualified-name="GMN56" data-source-line="101" id="ent0057"><path d="M611,347.6094 L611,423.0156 L738.939,423.0156 L738.939,357.6094 L728.939,347.6094 L611,347.6094" fill="#FEFFDD" style="stroke:#181818;stroke-width:0.5;"/><path d="M728.939,347.6094 L728.939,357.6094 L738.939,357.6094 L728.939,347.6094" fill="#FEFFDD" style="stroke:#181818;stroke-width:1;"/><text fill="#000000" font-family="sans-serif" font-size="13" lengthAdjust="spacing" textLength="51.3081" x="617" y="366.1045">Handles:</text><text fill="#000000" font-family="sans-serif" font-size="13" lengthAdjust="spacing" textLength="106.939" x="617" y="382.4561">- User governance</text><text fill="#000000" font-family="sans-serif" font-size="13" lengthAdjust="spacing" textLength="75.1309" x="617" y="398.8076">- Post review</text><text fill="#000000" font-family="sans-serif" font-size="13" lengthAdjust="spacing" textLength="106.228" x="617" y="415.1592">- Reports handling</text></g><g class="entity" data-qualified-name="GMN59" data-source-line="108" id="ent0060"><path d="M774.5,355.6094 L774.5,414.6641 L963.8398,414.6641 L963.8398,365.6094 L953.8398,355.6094 L774.5,355.6094" fill="#FEFFDD" style="stroke:#181818;stroke-width:0.5;"/><path d="M953.8398,355.6094 L953.8398,365.6094 L963.8398,365.6094 L953.8398,355.6094" fill="#FEFFDD" style="stroke:#181818;stroke-width:1;"/><text fill="#000000" font-family="sans-serif" font-size="13" lengthAdjust="spacing" textLength="51.3081" x="780.5" y="374.1045">Handles:</text><text fill="#000000" font-family="sans-serif" font-size="13" lengthAdjust="spacing" textLength="168.3398" x="780.5" y="390.4561">- Comment/reply notifications</text><text fill="#000000" font-family="sans-serif" font-size="13" lengthAdjust="spacing" textLength="138.7344" x="780.5" y="406.8076">- Review status updates</text></g><g class="entity" data-qualified-name="GMN62" data-source-line="114" id="ent0063"><path d="M414,355.6094 L414,414.6641 L575.8926,414.6641 L575.8926,365.6094 L565.8926,355.6094 L414,355.6094" fill="#FEFFDD" style="stroke:#181818;stroke-width:0.5;"/><path d="M565.8926,355.6094 L565.8926,365.6094 L575.8926,365.6094 L565.8926,355.6094" fill="#FEFFDD" style="stroke:#181818;stroke-width:1;"/><text fill="#000000" font-family="sans-serif" font-size="13" lengthAdjust="spacing" textLength="51.3081" x="420" y="374.1045">Handles:</text><text fill="#000000" font-family="sans-serif" font-size="13" lengthAdjust="spacing" textLength="90.3145" x="420" y="390.4561">- Post favoriting</text><text fill="#000000" font-family="sans-serif" font-size="13" lengthAdjust="spacing" textLength="140.8926" x="420" y="406.8076">- Favorites management</text></g><!--link backend to user_service--><g class="link" data-entity-1="ent0006" data-entity-2="ent0008" data-link-type="dependency" data-source-line="27" id="lnk14"><path d="M1764.39,396.4494 C1676.13,410.4694 1523.68,439.3894 1400,487.1094 C1369.93,498.7094 1342.2886,514.5813 1320.4486,528.3613" fill="none" id="backend-to-user_service" style="stroke:#181818;stroke-width:1;"/><polygon fill="#181818" points="1316.22,531.0294,1325.966,529.6098,1320.4486,528.3613,1321.6971,522.8439,1316.22,531.0294" style="stroke:#181818;stroke-width:1;stroke-linejoin:miter;stroke-miterlimit:10;"/><text fill="#000000" font-family="sans-serif" font-size="13" lengthAdjust="spacing" textLength="45.5381" x="1470" y="475.6045">handles</text></g><!--link backend to game_service--><g class="link" data-entity-1="ent0006" data-entity-2="ent0009" data-link-type="dependency" data-source-line="28" id="lnk15"><path d="M1905.93,404.1694 C1963.02,420.8394 2045.02,448.8094 2110,487.1094 C2130.61,499.2594 2147.4074,514.0211 2161.1874,527.5911" fill="none" id="backend-to-game_service" style="stroke:#181818;stroke-width:1;"/><polygon fill="#181818" points="2164.75,531.0994,2161.144,521.9344,2161.1874,527.5911,2155.5307,527.6345,2164.75,531.0994" style="stroke:#181818;stroke-width:1;stroke-linejoin:miter;stroke-miterlimit:10;"/><text fill="#000000" font-family="sans-serif" font-size="13" lengthAdjust="spacing" textLength="45.5381" x="2090" y="475.6045">handles</text></g><!--link backend to community_service--><g class="link" data-entity-1="ent0006" data-entity-2="ent0010" data-link-type="dependency" data-source-line="29" id="lnk16"><path d="M1779.24,404.1294 C1725.37,421.9494 1643.57,451.6494 1577,487.1094 C1553.23,499.7694 1532.225,514.5963 1514.795,527.8963" fill="none" id="backend-to-community_service" style="stroke:#181818;stroke-width:1;"/><polygon fill="#181818" points="1510.82,530.9294,1520.4014,528.6498,1514.795,527.8963,1515.5484,522.2898,1510.82,530.9294" style="stroke:#181818;stroke-width:1;stroke-linejoin:miter;stroke-miterlimit:10;"/><text fill="#000000" font-family="sans-serif" font-size="13" lengthAdjust="spacing" textLength="45.5381" x="1625" y="475.6045">handles</text></g><!--link backend to admin_service--><g class="link" data-entity-1="ent0006" data-entity-2="ent0011" data-link-type="dependency" data-source-line="30" id="lnk17"><path d="M1837,404.1794 C1837,435.5094 1837,494.5694 1837,525.9594" fill="none" id="backend-to-admin_service" style="stroke:#181818;stroke-width:1;"/><polygon fill="#181818" points="1837,530.9594,1841,521.9594,1837,525.9594,1833,521.9594,1837,530.9594" style="stroke:#181818;stroke-width:1;stroke-linejoin:miter;stroke-miterlimit:10;"/><text fill="#000000" font-family="sans-serif" font-size="13" lengthAdjust="spacing" textLength="45.5381" x="1838" y="475.6045">handles</text></g><!--link backend to notification_service--><g class="link" data-entity-1="ent0006" data-entity-2="ent0012" data-link-type="dependency" data-source-line="31" id="lnk18"><path d="M1857.51,404.1794 C1893.07,435.5094 1962.0288,496.2636 1997.6488,527.6536" fill="none" id="backend-to-notification_service" style="stroke:#181818;stroke-width:1;"/><polygon fill="#181818" points="2001.4,530.9594,1997.2924,522.008,1997.6488,527.6536,1992.0031,528.01,2001.4,530.9594" style="stroke:#181818;stroke-width:1;stroke-linejoin:miter;stroke-miterlimit:10;"/><text fill="#000000" font-family="sans-serif" font-size="13" lengthAdjust="spacing" textLength="45.5381" x="1941" y="475.6045">handles</text></g><!--link backend to favorites_service--><g class="link" data-entity-1="ent0006" data-entity-2="ent0013" data-link-type="dependency" data-source-line="32" id="lnk19"><path d="M1817.16,404.1794 C1782.75,435.5094 1716.0968,496.2029 1681.6268,527.5929" fill="none" id="backend-to-favorites_service" style="stroke:#181818;stroke-width:1;"/><polygon fill="#181818" points="1677.93,530.9594,1687.2775,527.8571,1681.6268,527.5929,1681.8911,521.9422,1677.93,530.9594" style="stroke:#181818;stroke-width:1;stroke-linejoin:miter;stroke-miterlimit:10;"/><text fill="#000000" font-family="sans-serif" font-size="13" lengthAdjust="spacing" textLength="45.5381" x="1753" y="475.6045">handles</text></g><!--link orm to database--><g class="link" data-entity-1="ent0021" data-entity-2="ent0022" data-link-type="dependency" data-source-line="39" id="lnk23"><path d="M1656.48,733.1794 C1654.6,755.5494 1651.8395,788.437 1649.9495,810.887" fill="none" id="orm-to-database" style="stroke:#181818;stroke-width:1;"/><polygon fill="#181818" points="1649.53,815.8694,1654.2709,807.2367,1649.9495,810.887,1646.2991,806.5655,1649.53,815.8694" style="stroke:#181818;stroke-width:1;stroke-linejoin:miter;stroke-miterlimit:10;"/><text fill="#000000" font-family="sans-serif" font-size="13" lengthAdjust="spacing" textLength="53.479" x="1654" y="780.1045">manages</text></g><!--link game_service to llm_provider--><g class="link" data-entity-1="ent0009" data-entity-2="ent0025" data-link-type="dependency" data-source-line="46" id="lnk26"><path d="M2202.64,569.3794 C2237.88,600.5694 2305.5061,660.4453 2340.6961,691.5953" fill="none" id="game_service-to-llm_provider" style="stroke:#181818;stroke-width:1;"/><polygon fill="#181818" points="2344.44,694.9094,2340.3522,685.9489,2340.6961,691.5953,2335.0497,691.9391,2344.44,694.9094" style="stroke:#181818;stroke-width:1;stroke-linejoin:miter;stroke-miterlimit:10;"/><text fill="#000000" font-family="sans-serif" font-size="13" lengthAdjust="spacing" textLength="44.0781" x="2285" y="639.6045">invokes</text></g><!--link backend to orm--><g class="link" data-entity-1="ent0006" data-entity-2="ent0021" data-link-type="dependency" data-source-line="47" id="lnk27"><path d="M1909.82,393.1194 C2017.51,405.1694 2211.08,433.7994 2253,487.1094 C2288.71,532.5294 2290.46,573.1194 2253,617.1094 C2182.96,699.3594 1843.7596,711.3188 1713.2796,712.8988" fill="none" id="backend-to-orm" style="stroke:#181818;stroke-width:1;"/><polygon fill="#181818" points="1708.28,712.9594,1717.3278,716.8501,1713.2796,712.8988,1717.2309,708.8507,1708.28,712.9594" style="stroke:#181818;stroke-width:1;stroke-linejoin:miter;stroke-miterlimit:10;"/><text fill="#000000" font-family="sans-serif" font-size="13" lengthAdjust="spacing" textLength="27.46" x="2281" y="555.6045">uses</text></g><!--link user_service to orm--><g class="link" data-entity-1="ent0008" data-entity-2="ent0021" data-link-type="dependency" data-source-line="48" id="lnk28"><path d="M1316.52,569.3694 C1338.52,583.4994 1370.47,602.9794 1400,617.1094 C1470.05,650.6294 1550.3754,678.7323 1603.1754,695.9123" fill="none" id="user_service-to-orm" style="stroke:#181818;stroke-width:1;"/><polygon fill="#181818" points="1607.93,697.4594,1600.6093,690.871,1603.1754,695.9123,1598.134,698.4784,1607.93,697.4594" style="stroke:#181818;stroke-width:1;stroke-linejoin:miter;stroke-miterlimit:10;"/><text fill="#000000" font-family="sans-serif" font-size="13" lengthAdjust="spacing" textLength="27.46" x="1456" y="639.6045">uses</text></g><!--link community_service to orm--><g class="link" data-entity-1="ent0010" data-entity-2="ent0021" data-link-type="dependency" data-source-line="49" id="lnk29"><path d="M1507.17,569.3794 C1539.91,600.5694 1602.5902,660.3101 1635.2802,691.4601" fill="none" id="community_service-to-orm" style="stroke:#181818;stroke-width:1;"/><polygon fill="#181818" points="1638.9,694.9094,1635.1438,685.8049,1635.2802,691.4601,1629.625,691.5966,1638.9,694.9094" style="stroke:#181818;stroke-width:1;stroke-linejoin:miter;stroke-miterlimit:10;"/><text fill="#000000" font-family="sans-serif" font-size="13" lengthAdjust="spacing" textLength="27.46" x="1584" y="639.6045">uses</text></g><!--link admin_service to orm--><g class="link" data-entity-1="ent0011" data-entity-2="ent0021" data-link-type="dependency" data-source-line="50" id="lnk30"><path d="M1816.81,569.3794 C1782.34,600.5694 1716.2372,660.4043 1681.8172,691.5543" fill="none" id="admin_service-to-orm" style="stroke:#181818;stroke-width:1;"/><polygon fill="#181818" points="1678.11,694.9094,1687.4671,691.8361,1681.8172,691.5543,1682.099,685.9045,1678.11,694.9094" style="stroke:#181818;stroke-width:1;stroke-linejoin:miter;stroke-miterlimit:10;"/><text fill="#000000" font-family="sans-serif" font-size="13" lengthAdjust="spacing" textLength="27.46" x="1753" y="639.6045">uses</text></g><!--link notification_service to orm--><g class="link" data-entity-1="ent0012" data-entity-2="ent0021" data-link-type="dependency" data-source-line="51" id="lnk31"><path d="M2001.55,569.3494 C1984.46,583.8494 1958.95,603.8294 1934,617.1094 C1859.32,656.8594 1769.6607,684.2694 1712.8507,699.4394" fill="none" id="notification_service-to-orm" style="stroke:#181818;stroke-width:1;"/><polygon fill="#181818" points="1708.02,700.7294,1717.7473,702.272,1712.8507,699.4394,1715.6834,694.5429,1708.02,700.7294" style="stroke:#181818;stroke-width:1;stroke-linejoin:miter;stroke-miterlimit:10;"/><text fill="#000000" font-family="sans-serif" font-size="13" lengthAdjust="spacing" textLength="27.46" x="1913" y="639.6045">uses</text></g><!--link favorites_service to orm--><g class="link" data-entity-1="ent0013" data-entity-2="ent0021" data-link-type="dependency" data-source-line="52" id="lnk32"><path d="M1658,569.3794 C1658,600.4894 1658,658.4194 1658,689.6594" fill="none" id="favorites_service-to-orm" style="stroke:#181818;stroke-width:1;"/><polygon fill="#181818" points="1658,694.6594,1662,685.6594,1658,689.6594,1654,685.6594,1658,694.6594" style="stroke:#181818;stroke-width:1;stroke-linejoin:miter;stroke-miterlimit:10;"/><text fill="#000000" font-family="sans-serif" font-size="13" lengthAdjust="spacing" textLength="27.46" x="1659" y="639.6045">uses</text></g><!--link frontend to gateway--><g class="link" data-entity-1="ent0002" data-entity-2="ent0004" data-link-type="dependency" data-source-line="54" id="lnk33"><path d="M1837,118.7194 C1837,145.2594 1837,189.4494 1837,215.9994" fill="none" id="frontend-to-gateway" style="stroke:#181818;stroke-width:1;"/><polygon fill="#181818" points="1837,220.9994,1841,211.9994,1837,215.9994,1833,211.9994,1837,220.9994" style="stroke:#181818;stroke-width:1;stroke-linejoin:miter;stroke-miterlimit:10;"/><text fill="#000000" font-family="sans-serif" font-size="13" lengthAdjust="spacing" textLength="66.4854" x="1838" y="165.6045">connects to</text></g><!--link gateway to backend--><g class="link" data-entity-1="ent0004" data-entity-2="ent0006" data-link-type="dependency" data-source-line="55" id="lnk34"><path d="M1837,259.2194 C1837,286.5794 1837,333.1594 1837,360.6894" fill="none" id="gateway-to-backend" style="stroke:#181818;stroke-width:1;"/><polygon fill="#181818" points="1837,365.6894,1841,356.6894,1837,360.6894,1833,356.6894,1837,365.6894" style="stroke:#181818;stroke-width:1;stroke-linejoin:miter;stroke-miterlimit:10;"/><text fill="#000000" font-family="sans-serif" font-size="13" lengthAdjust="spacing" textLength="50.5845" x="1838" y="305.6045">routes to</text></g><!--link GMN47 to user_service--><g class="link" data-entity-1="ent0048" data-entity-2="ent0008" data-link-type="association" data-source-line="78" id="lnk49"><path d="M178.04,422.6294 C206.55,443.0794 244.89,466.8694 283,479.1094 C451.25,533.1394 979.73,545.4894 1195.67,548.2894" fill="none" id="GMN47-user_service" style="stroke:#181818;stroke-width:1;stroke-dasharray:7,7;"/></g><!--link GMN50 to game_service--><g class="link" data-entity-1="ent0051" data-entity-2="ent0009" data-link-type="association" data-source-line="85" id="lnk52"><path d="M1098.7,431.3494 C1113.49,449.7694 1133.12,469.0694 1156,479.1094 C1204.53,500.4094 2060.39,468.4594 2110,487.1094 C2133.47,495.9294 2154.45,516.1394 2167.63,531.0994" fill="none" id="GMN50-game_service" style="stroke:#181818;stroke-width:1;stroke-dasharray:7,7;"/></g><!--link GMN53 to community_service--><g class="link" data-entity-1="ent0054" data-entity-2="ent0010" data-link-type="association" data-source-line="93" id="lnk55"><path d="M378.76,424.2494 C384.83,426.8094 390.96,429.1494 397,431.1094 C527.93,473.6494 565.82,467.6194 703,479.1094 C741.59,482.3394 1363.15,475.1994 1400,487.1094 C1427.03,495.8494 1452.99,516.0694 1469.61,531.0494" fill="none" id="GMN53-community_service" style="stroke:#181818;stroke-width:1;stroke-dasharray:7,7;"/></g><!--link GMN56 to admin_service--><g class="link" data-entity-1="ent0057" data-entity-2="ent0011" data-link-type="association" data-source-line="101" id="lnk58"><path d="M736.68,422.7494 C743.4,425.8894 750.25,428.7594 757,431.1094 C877.91,473.1594 913.5,467.6794 1041,479.1094 C1079.68,482.5794 1702.79,475.9994 1740,487.1094 C1769.11,495.7994 1797.85,516.0294 1816.39,531.0294" fill="none" id="GMN56-admin_service" style="stroke:#181818;stroke-width:1;stroke-dasharray:7,7;"/></g><!--link GMN59 to notification_service--><g class="link" data-entity-1="ent0060" data-entity-2="ent0012" data-link-type="association" data-source-line="108" id="lnk61"><path d="M927.38,414.6494 C977.39,437.3794 1052.06,467.2694 1121,479.1094 C1165.52,486.7494 1891.01,473.2494 1934,487.1094 C1961.04,495.8194 1986.99,516.0494 2003.62,531.0394" fill="none" id="GMN59-notification_service" style="stroke:#181818;stroke-width:1;stroke-dasharray:7,7;"/></g><!--link GMN62 to favorites_service--><g class="link" data-entity-1="ent0063" data-entity-2="ent0013" data-link-type="association" data-source-line="114" id="lnk64"><path d="M551.38,414.6394 C565.07,420.7494 579.85,426.6894 594,431.1094 C708.24,466.8094 739.85,467.7394 859,479.1094 C898.66,482.8994 1538.3,474.2294 1576,487.1094 C1601.67,495.8794 1625.77,516.0894 1641.11,531.0694" fill="none" id="GMN62-favorites_service" style="stroke:#181818;stroke-width:1;stroke-dasharray:7,7;"/></g><!--link k8s to docker--><g class="link" data-entity-1="ent0067" data-entity-2="ent0066" data-link-type="dependency" data-source-line="123" id="lnk68"><path d="M1424,118.7194 C1424,145.2594 1424,189.4494 1424,215.9994" fill="none" id="k8s-to-docker" style="stroke:#181818;stroke-width:1;"/><polygon fill="#181818" points="1424,220.9994,1428,211.9994,1424,215.9994,1420,211.9994,1424,220.9994" style="stroke:#181818;stroke-width:1;stroke-linejoin:miter;stroke-miterlimit:10;"/><text fill="#000000" font-family="sans-serif" font-size="13" lengthAdjust="spacing" textLength="71.5317" x="1425" y="165.6045">orchestrates</text></g><!--link docker to backend--><g class="link" data-entity-1="ent0066" data-entity-2="ent0006" data-link-type="dependency" data-source-line="124" id="lnk69"><path d="M1476.31,259.2194 C1555.64,286.6894 1700.7953,336.9433 1780.0653,364.3933" fill="none" id="docker-to-backend" style="stroke:#181818;stroke-width:1;"/><polygon fill="#181818" points="1784.79,366.0294,1777.5944,359.3046,1780.0653,364.3933,1774.9766,366.8642,1784.79,366.0294" style="stroke:#181818;stroke-width:1;stroke-linejoin:miter;stroke-miterlimit:10;"/><text fill="#000000" font-family="sans-serif" font-size="13" lengthAdjust="spacing" textLength="48.4199" x="1619" y="305.6045">contains</text></g><!--link docker to database--><g class="link" data-entity-1="ent0066" data-entity-2="ent0022" data-link-type="dependency" data-source-line="125" id="lnk70"><path d="M1355.93,241.3594 C1093.24,242.8194 154.52,252.8694 42,322.1094 C14.86,338.8094 6,352.2494 6,384.1094 C6,384.1094 6,384.1094 6,715.1094 C6,795.6094 1272.9311,826.4866 1577.8711,832.7566" fill="none" id="docker-to-database" style="stroke:#181818;stroke-width:1;"/><polygon fill="#181818" points="1582.87,832.8594,1573.9541,828.6752,1577.8711,832.7566,1573.7897,836.6735,1582.87,832.8594" style="stroke:#181818;stroke-width:1;stroke-linejoin:miter;stroke-miterlimit:10;"/><text fill="#000000" font-family="sans-serif" font-size="13" lengthAdjust="spacing" textLength="48.4199" x="7" y="555.6045">contains</text></g><?plantuml-src XLPDZzem4BtdLqptq1lbMd6eb6K_YWgx5BRjeQfM9Xc2Is97jiDkLEr_xzXE80wabLZX7J-_yNpu3UzIt7A1iBgTFiKFz_DRI7AcTHGPRdA4TQqD5X2hPCSD9gPI22E8PwCRnGyeu0bV3SGfBTtMFIiGc4XXAekY4jpKiCoPsKfLH97USr4onGf8P55AGMVMfYOdYeYPo7ACef8bUvOXNDqfAGmIqvpLgAxWJmJmytk57txhyKFrQkWRVk06uhBCUS8Cb-8NC0tRvbpqrY6BbpEwci4NLiDxc4kMmZNBcKYEp1s4eydyEc2vfeMzqHhLWIUecwCpnVrLxYWqV95gxnWs7aq8-XmvffAo518GnJUD2XPC4AIWhBG0nrFHthFs1ezsIUv2CZA4a5FwkxYajORWE2suuDeebyNW1BDR8Vf16hvjCXvWHMSZF7B73b9H--W0lssj7V2RJrUJEnYDFWNnmmHsr5qvwXwecu51q5duWyWWx47KfO07mMVHTf3T9hjXXWKzV_-uMW3zkPpPTqIsHRt-EWSBtJ3jivas__W44ivvRQtah73j5JgxVJMe1ClxBJrdYhRdz2OhYrl857DOAddWAIhdBi-Bvx8nMCgW0DPp5q3UkJZ8FNdlfiHUScBhgwEWoBszyxBr066rUfiNYzJ3dDUc1uXQLMcQpIl9X3fA2D8k3KP6hTKYsYWde6Hb-vxsxKr8wdYsCo2t9vq2cEQS7lr8Kwg0dUJCDb35SmCltEp0Iv_JraR-8kl1alQfJyfZouhgFynElxQjTWsoTXfiXRdZeSRfM7s3fR2fmVNd85FGEm379endS5826XcGre8LFB5fDbOMCnJeHQhFRMHfcNjQ-Tc_hmajHtJfxAXnuxdCk71cwkejfnbK7DNNcUCaaHMvb6NZKG-ux6bluD89jMO79mOZiFCZeuOW7escAfrnkfEsuIWVcKAjVNL6iAPJe7TCSP4DUBwave7xfTJ6UxRZW2BJunLI4pJNMIEZgTxa9d68z9-XzeT1uCoDi4mUR2c5s_ONeE5-uFZIk2cbejVYT6yui8514hXh8Xeh2gWEJkZ6bVKAsZ1JqGmjAJ8SYklI83fBP8korxQsqqphTCw9_oYnCq5FY_gkSh-T6dszaVH25GKX3ACVNqfx2NTMk_-bsb0UqR8_KesmxLi7st_KNkHfuKNUiqr8iLgiAt5Z3mKfyJvx-vqvSGIyHNy1?></g></svg>