<svg xmlns="http://www.w3.org/2000/svg" xmlns:xlink="http://www.w3.org/1999/xlink" contentStyleType="text/css" data-diagram-type="CLASS" height="759px" preserveAspectRatio="none" style="width:1863px;height:759px;background:#FFFFFF;" version="1.1" viewBox="0 0 1863 759" width="1863px" zoomAndPan="magnify"><?plantuml 1.2026.6?><defs/><g><g class="title" data-source-line="3"><text fill="#000000" font-family="sans-serif" font-size="14" font-weight="700" lengthAdjust="spacing" textLength="311.9785" x="772.4539" y="24.5332">Campus Helper Platform - System Architecture</text></g><!--cluster Presentation Layer--><g class="cluster" data-qualified-name="Presentation Layer" data-source-line="6" id="ent0001"><path d="M1176,78.3394 L1303.0479,78.3394 A3.75,3.75 0 0 1 1305.5479,80.8394 L1312.5479,101.9488 L1413,101.9488 A2.5,2.5 0 0 1 1415.5,104.4488 L1415.5,175.8394 A2.5,2.5 0 0 1 1413,178.3394 L1176,178.3394 A2.5,2.5 0 0 1 1173.5,175.8394 L1173.5,80.8394 A2.5,2.5 0 0 1 1176,78.3394" fill="none" style="stroke:#000000;stroke-width:1.5;"/><line style="stroke:#000000;stroke-width:1.5;" x1="1173.5" x2="1312.5479" y1="101.9488" y2="101.9488"/><text fill="#000000" font-family="sans-serif" font-size="14" font-weight="700" lengthAdjust="spacing" textLength="126.0479" x="1177.5" y="94.8726">Presentation Layer</text></g><!--cluster Business Layer--><g class="cluster" data-qualified-name="Business Layer" data-source-line="11" id="ent0003"><path d="M213,78.3394 L317.4961,78.3394 A3.75,3.75 0 0 1 319.9961,80.8394 L326.9961,101.9488 L1147,101.9488 A2.5,2.5 0 0 1 1149.5,104.4488 L1149.5,312.8394 A2.5,2.5 0 0 1 1147,315.3394 L213,315.3394 A2.5,2.5 0 0 1 210.5,312.8394 L210.5,80.8394 A2.5,2.5 0 0 1 213,78.3394" fill="none" style="stroke:#000000;stroke-width:1.5;"/><line style="stroke:#000000;stroke-width:1.5;" x1="210.5" x2="326.9961" y1="101.9488" y2="101.9488"/><text fill="#000000" font-family="sans-serif" font-size="14" font-weight="700" lengthAdjust="spacing" textLength="103.4961" x="214.5" y="94.8726">Business Layer</text></g><!--cluster Data Layer--><g class="cluster" data-qualified-name="Data Layer" data-source-line="21" id="ent0010"><path d="M610,368.8394 L682.5928,368.8394 A3.75,3.75 0 0 1 685.0928,371.3394 L692.0928,392.4488 L799,392.4488 A2.5,2.5 0 0 1 801.5,394.9488 L801.5,592.3394 A2.5,2.5 0 0 1 799,594.8394 L610,594.8394 A2.5,2.5 0 0 1 607.5,592.3394 L607.5,371.3394 A2.5,2.5 0 0 1 610,368.8394" fill="none" style="stroke:#000000;stroke-width:1.5;"/><line style="stroke:#000000;stroke-width:1.5;" x1="607.5" x2="692.0928" y1="392.4488" y2="392.4488"/><text fill="#000000" font-family="sans-serif" font-size="14" font-weight="700" lengthAdjust="spacing" textLength="71.5928" x="611.5" y="385.3726">Data Layer</text></g><!--cluster Data Entity Layer--><g class="cluster" data-qualified-name="Data Entity Layer" data-source-line="27" id="ent0013"><path d="M96,644.8394 L211.3721,644.8394 A3.75,3.75 0 0 1 213.8721,647.3394 L220.8721,668.4488 L1328,668.4488 A2.5,2.5 0 0 1 1330.5,670.9488 L1330.5,742.3394 A2.5,2.5 0 0 1 1328,744.8394 L96,744.8394 A2.5,2.5 0 0 1 93.5,742.3394 L93.5,647.3394 A2.5,2.5 0 0 1 96,644.8394" fill="none" style="stroke:#000000;stroke-width:1.5;"/><line style="stroke:#000000;stroke-width:1.5;" x1="93.5" x2="220.8721" y1="668.4488" y2="668.4488"/><text fill="#000000" font-family="sans-serif" font-size="14" font-weight="700" lengthAdjust="spacing" textLength="114.3721" x="97.5" y="661.3726">Data Entity Layer</text></g><!--class client--><g class="entity" data-qualified-name="Presentation Layer.client" data-source-line="7" id="ent0002"><rect fill="#F1F1F1" height="48" rx="2.5" ry="2.5" style="stroke:#181818;stroke-width:0.5;" width="209.3857" x="1190" y="114.3394"/><ellipse cx="1205" cy="130.3394" fill="#ADD1B2" rx="11" ry="11" style="stroke:#181818;stroke-width:1;"/><path d="M1207.7656,126.2144 Q1207.9219,125.9956 1208.1094,125.8863 Q1208.2969,125.7769 1208.5156,125.7769 Q1208.8906,125.7769 1209.125,126.0425 Q1209.3594,126.2925 1209.3594,126.9019 L1209.3594,128.355 Q1209.3594,128.9644 1209.125,129.23 Q1208.8906,129.4956 1208.5156,129.4956 Q1208.1719,129.4956 1207.9688,129.2925 Q1207.7656,129.105 1207.6563,128.5894 Q1207.6094,128.23 1207.4219,128.0425 Q1207.0938,127.6675 1206.4844,127.4488 Q1205.875,127.23 1205.25,127.23 Q1204.4844,127.23 1203.8438,127.5581 Q1203.2188,127.8863 1202.7188,128.6363 Q1202.2344,129.3863 1202.2344,130.4175 L1202.2344,131.5113 Q1202.2344,132.7456 1203.125,133.5738 Q1204.0156,134.3863 1205.6094,134.3863 Q1206.5469,134.3863 1207.2031,134.1363 Q1207.5938,133.98 1208.0156,133.5425 Q1208.2813,133.2769 1208.4219,133.1988 Q1208.5781,133.1206 1208.7813,133.1206 Q1209.1094,133.1206 1209.3594,133.3863 Q1209.625,133.6363 1209.625,133.98 Q1209.625,134.3238 1209.2813,134.73 Q1208.7813,135.3081 1207.9844,135.6363 Q1206.9063,136.0894 1205.6094,136.0894 Q1204.0938,136.0894 1202.8906,135.4644 Q1201.9063,134.9644 1201.2188,133.9019 Q1200.5313,132.8238 1200.5313,131.5425 L1200.5313,130.3863 Q1200.5313,129.0581 1201.1406,127.9175 Q1201.7656,126.7613 1202.8594,126.1519 Q1203.9531,125.5269 1205.1875,125.5269 Q1205.9219,125.5269 1206.5625,125.6988 Q1207.2188,125.855 1207.7656,126.2144 Z " fill="#000000"/><text fill="#000000" font-family="sans-serif" font-size="14" lengthAdjust="spacing" textLength="177.3857" x="1219" y="136.0679">WeChat Mini Program Client</text><line style="stroke:#181818;stroke-width:0.5;" x1="1191" x2="1398.3857" y1="146.3394" y2="146.3394"/><line style="stroke:#181818;stroke-width:0.5;" x1="1191" x2="1398.3857" y1="154.3394" y2="154.3394"/></g><!--class productService--><g class="entity" data-qualified-name="Business Layer.productService" data-source-line="12" id="ent0004"><rect fill="#F1F1F1" height="48" rx="2.5" ry="2.5" style="stroke:#181818;stroke-width:0.5;" width="192.2891" x="226.5" y="251.3394"/><ellipse cx="241.5" cy="267.3394" fill="#ADD1B2" rx="11" ry="11" style="stroke:#181818;stroke-width:1;"/><path d="M244.2656,263.2144 Q244.4219,262.9956 244.6094,262.8863 Q244.7969,262.7769 245.0156,262.7769 Q245.3906,262.7769 245.625,263.0425 Q245.8594,263.2925 245.8594,263.9019 L245.8594,265.355 Q245.8594,265.9644 245.625,266.23 Q245.3906,266.4956 245.0156,266.4956 Q244.6719,266.4956 244.4688,266.2925 Q244.2656,266.105 244.1563,265.5894 Q244.1094,265.23 243.9219,265.0425 Q243.5938,264.6675 242.9844,264.4488 Q242.375,264.23 241.75,264.23 Q240.9844,264.23 240.3438,264.5581 Q239.7188,264.8863 239.2188,265.6363 Q238.7344,266.3863 238.7344,267.4175 L238.7344,268.5113 Q238.7344,269.7456 239.625,270.5738 Q240.5156,271.3863 242.1094,271.3863 Q243.0469,271.3863 243.7031,271.1363 Q244.0938,270.98 244.5156,270.5425 Q244.7813,270.2769 244.9219,270.1988 Q245.0781,270.1206 245.2813,270.1206 Q245.6094,270.1206 245.8594,270.3863 Q246.125,270.6363 246.125,270.98 Q246.125,271.3238 245.7813,271.73 Q245.2813,272.3081 244.4844,272.6363 Q243.4063,273.0894 242.1094,273.0894 Q240.5938,273.0894 239.3906,272.4644 Q238.4063,271.9644 237.7188,270.9019 Q237.0313,269.8238 237.0313,268.5425 L237.0313,267.3863 Q237.0313,266.0581 237.6406,264.9175 Q238.2656,263.7613 239.3594,263.1519 Q240.4531,262.5269 241.6875,262.5269 Q242.4219,262.5269 243.0625,262.6988 Q243.7188,262.855 244.2656,263.2144 Z " fill="#000000"/><text fill="#000000" font-family="sans-serif" font-size="14" lengthAdjust="spacing" textLength="160.2891" x="255.5" y="273.0679">Product Browsing Service</text><line style="stroke:#181818;stroke-width:0.5;" x1="227.5" x2="417.7891" y1="283.3394" y2="283.3394"/><line style="stroke:#181818;stroke-width:0.5;" x1="227.5" x2="417.7891" y1="291.3394" y2="291.3394"/></g><!--class orderService--><g class="entity" data-qualified-name="Business Layer.orderService" data-source-line="13" id="ent0005"><rect fill="#F1F1F1" height="48" rx="2.5" ry="2.5" style="stroke:#181818;stroke-width:0.5;" width="203.9648" x="453.5" y="251.3394"/><ellipse cx="468.5" cy="267.3394" fill="#ADD1B2" rx="11" ry="11" style="stroke:#181818;stroke-width:1;"/><path d="M471.2656,263.2144 Q471.4219,262.9956 471.6094,262.8863 Q471.7969,262.7769 472.0156,262.7769 Q472.3906,262.7769 472.625,263.0425 Q472.8594,263.2925 472.8594,263.9019 L472.8594,265.355 Q472.8594,265.9644 472.625,266.23 Q472.3906,266.4956 472.0156,266.4956 Q471.6719,266.4956 471.4688,266.2925 Q471.2656,266.105 471.1563,265.5894 Q471.1094,265.23 470.9219,265.0425 Q470.5938,264.6675 469.9844,264.4488 Q469.375,264.23 468.75,264.23 Q467.9844,264.23 467.3438,264.5581 Q466.7188,264.8863 466.2188,265.6363 Q465.7344,266.3863 465.7344,267.4175 L465.7344,268.5113 Q465.7344,269.7456 466.625,270.5738 Q467.5156,271.3863 469.1094,271.3863 Q470.0469,271.3863 470.7031,271.1363 Q471.0938,270.98 471.5156,270.5425 Q471.7813,270.2769 471.9219,270.1988 Q472.0781,270.1206 472.2813,270.1206 Q472.6094,270.1206 472.8594,270.3863 Q473.125,270.6363 473.125,270.98 Q473.125,271.3238 472.7813,271.73 Q472.2813,272.3081 471.4844,272.6363 Q470.4063,273.0894 469.1094,273.0894 Q467.5938,273.0894 466.3906,272.4644 Q465.4063,271.9644 464.7188,270.9019 Q464.0313,269.8238 464.0313,268.5425 L464.0313,267.3863 Q464.0313,266.0581 464.6406,264.9175 Q465.2656,263.7613 466.3594,263.1519 Q467.4531,262.5269 468.6875,262.5269 Q469.4219,262.5269 470.0625,262.6988 Q470.7188,262.855 471.2656,263.2144 Z " fill="#000000"/><text fill="#000000" font-family="sans-serif" font-size="14" lengthAdjust="spacing" textLength="171.9648" x="482.5" y="273.0679">Order Management Service</text><line style="stroke:#181818;stroke-width:0.5;" x1="454.5" x2="656.4648" y1="283.3394" y2="283.3394"/><line style="stroke:#181818;stroke-width:0.5;" x1="454.5" x2="656.4648" y1="291.3394" y2="291.3394"/></g><!--class userService--><g class="entity" data-qualified-name="Business Layer.userService" data-source-line="14" id="ent0006"><rect fill="#F1F1F1" height="48" rx="2.5" ry="2.5" style="stroke:#181818;stroke-width:0.5;" width="197.7373" x="692.5" y="251.3394"/><ellipse cx="707.5" cy="267.3394" fill="#ADD1B2" rx="11" ry="11" style="stroke:#181818;stroke-width:1;"/><path d="M710.2656,263.2144 Q710.4219,262.9956 710.6094,262.8863 Q710.7969,262.7769 711.0156,262.7769 Q711.3906,262.7769 711.625,263.0425 Q711.8594,263.2925 711.8594,263.9019 L711.8594,265.355 Q711.8594,265.9644 711.625,266.23 Q711.3906,266.4956 711.0156,266.4956 Q710.6719,266.4956 710.4688,266.2925 Q710.2656,266.105 710.1563,265.5894 Q710.1094,265.23 709.9219,265.0425 Q709.5938,264.6675 708.9844,264.4488 Q708.375,264.23 707.75,264.23 Q706.9844,264.23 706.3438,264.5581 Q705.7188,264.8863 705.2188,265.6363 Q704.7344,266.3863 704.7344,267.4175 L704.7344,268.5113 Q704.7344,269.7456 705.625,270.5738 Q706.5156,271.3863 708.1094,271.3863 Q709.0469,271.3863 709.7031,271.1363 Q710.0938,270.98 710.5156,270.5425 Q710.7813,270.2769 710.9219,270.1988 Q711.0781,270.1206 711.2813,270.1206 Q711.6094,270.1206 711.8594,270.3863 Q712.125,270.6363 712.125,270.98 Q712.125,271.3238 711.7813,271.73 Q711.2813,272.3081 710.4844,272.6363 Q709.4063,273.0894 708.1094,273.0894 Q706.5938,273.0894 705.3906,272.4644 Q704.4063,271.9644 703.7188,270.9019 Q703.0313,269.8238 703.0313,268.5425 L703.0313,267.3863 Q703.0313,266.0581 703.6406,264.9175 Q704.2656,263.7613 705.3594,263.1519 Q706.4531,262.5269 707.6875,262.5269 Q708.4219,262.5269 709.0625,262.6988 Q709.7188,262.855 710.2656,263.2144 Z " fill="#000000"/><text fill="#000000" font-family="sans-serif" font-size="14" lengthAdjust="spacing" textLength="165.7373" x="721.5" y="273.0679">User Management Service</text><line style="stroke:#181818;stroke-width:0.5;" x1="693.5" x2="889.2373" y1="283.3394" y2="283.3394"/><line style="stroke:#181818;stroke-width:0.5;" x1="693.5" x2="889.2373" y1="291.3394" y2="291.3394"/></g><!--class adminService--><g class="entity" data-qualified-name="Business Layer.adminService" data-source-line="15" id="ent0007"><rect fill="#F1F1F1" height="48" rx="2.5" ry="2.5" style="stroke:#181818;stroke-width:0.5;" width="207.8613" x="925.5" y="251.3394"/><ellipse cx="940.5" cy="267.3394" fill="#ADD1B2" rx="11" ry="11" style="stroke:#181818;stroke-width:1;"/><path d="M943.2656,263.2144 Q943.4219,262.9956 943.6094,262.8863 Q943.7969,262.7769 944.0156,262.7769 Q944.3906,262.7769 944.625,263.0425 Q944.8594,263.2925 944.8594,263.9019 L944.8594,265.355 Q944.8594,265.9644 944.625,266.23 Q944.3906,266.4956 944.0156,266.4956 Q943.6719,266.4956 943.4688,266.2925 Q943.2656,266.105 943.1563,265.5894 Q943.1094,265.23 942.9219,265.0425 Q942.5938,264.6675 941.9844,264.4488 Q941.375,264.23 940.75,264.23 Q939.9844,264.23 939.3438,264.5581 Q938.7188,264.8863 938.2188,265.6363 Q937.7344,266.3863 937.7344,267.4175 L937.7344,268.5113 Q937.7344,269.7456 938.625,270.5738 Q939.5156,271.3863 941.1094,271.3863 Q942.0469,271.3863 942.7031,271.1363 Q943.0938,270.98 943.5156,270.5425 Q943.7813,270.2769 943.9219,270.1988 Q944.0781,270.1206 944.2813,270.1206 Q944.6094,270.1206 944.8594,270.3863 Q945.125,270.6363 945.125,270.98 Q945.125,271.3238 944.7813,271.73 Q944.2813,272.3081 943.4844,272.6363 Q942.4063,273.0894 941.1094,273.0894 Q939.5938,273.0894 938.3906,272.4644 Q937.4063,271.9644 936.7188,270.9019 Q936.0313,269.8238 936.0313,268.5425 L936.0313,267.3863 Q936.0313,266.0581 936.6406,264.9175 Q937.2656,263.7613 938.3594,263.1519 Q939.4531,262.5269 940.6875,262.5269 Q941.4219,262.5269 942.0625,262.6988 Q942.7188,262.855 943.2656,263.2144 Z " fill="#000000"/><text fill="#000000" font-family="sans-serif" font-size="14" lengthAdjust="spacing" textLength="175.8613" x="954.5" y="273.0679">Admin Management Service</text><line style="stroke:#181818;stroke-width:0.5;" x1="926.5" x2="1132.3613" y1="283.3394" y2="283.3394"/><line style="stroke:#181818;stroke-width:0.5;" x1="926.5" x2="1132.3613" y1="291.3394" y2="291.3394"/></g><!--class authModule--><g class="entity" data-qualified-name="Business Layer.authModule" data-source-line="16" id="ent0008"><rect fill="#F1F1F1" height="48" rx="2.5" ry="2.5" style="stroke:#181818;stroke-width:0.5;" width="219.5645" x="681.5" y="114.3394"/><ellipse cx="696.5" cy="130.3394" fill="#ADD1B2" rx="11" ry="11" style="stroke:#181818;stroke-width:1;"/><path d="M699.2656,126.2144 Q699.4219,125.9956 699.6094,125.8863 Q699.7969,125.7769 700.0156,125.7769 Q700.3906,125.7769 700.625,126.0425 Q700.8594,126.2925 700.8594,126.9019 L700.8594,128.355 Q700.8594,128.9644 700.625,129.23 Q700.3906,129.4956 700.0156,129.4956 Q699.6719,129.4956 699.4688,129.2925 Q699.2656,129.105 699.1563,128.5894 Q699.1094,128.23 698.9219,128.0425 Q698.5938,127.6675 697.9844,127.4488 Q697.375,127.23 696.75,127.23 Q695.9844,127.23 695.3438,127.5581 Q694.7188,127.8863 694.2188,128.6363 Q693.7344,129.3863 693.7344,130.4175 L693.7344,131.5113 Q693.7344,132.7456 694.625,133.5738 Q695.5156,134.3863 697.1094,134.3863 Q698.0469,134.3863 698.7031,134.1363 Q699.0938,133.98 699.5156,133.5425 Q699.7813,133.2769 699.9219,133.1988 Q700.0781,133.1206 700.2813,133.1206 Q700.6094,133.1206 700.8594,133.3863 Q701.125,133.6363 701.125,133.98 Q701.125,134.3238 700.7813,134.73 Q700.2813,135.3081 699.4844,135.6363 Q698.4063,136.0894 697.1094,136.0894 Q695.5938,136.0894 694.3906,135.4644 Q693.4063,134.9644 692.7188,133.9019 Q692.0313,132.8238 692.0313,131.5425 L692.0313,130.3863 Q692.0313,129.0581 692.6406,127.9175 Q693.2656,126.7613 694.3594,126.1519 Q695.4531,125.5269 696.6875,125.5269 Q697.4219,125.5269 698.0625,125.6988 Q698.7188,125.855 699.2656,126.2144 Z " fill="#000000"/><text fill="#000000" font-family="sans-serif" font-size="14" lengthAdjust="spacing" textLength="187.5645" x="710.5" y="136.0679">Authentication &amp; Authorization</text><line style="stroke:#181818;stroke-width:0.5;" x1="682.5" x2="900.0645" y1="146.3394" y2="146.3394"/><line style="stroke:#181818;stroke-width:0.5;" x1="682.5" x2="900.0645" y1="154.3394" y2="154.3394"/></g><!--class securityModule--><g class="entity" data-qualified-name="Business Layer.securityModule" data-source-line="17" id="ent0009"><rect fill="#F1F1F1" height="48" rx="2.5" ry="2.5" style="stroke:#181818;stroke-width:0.5;" width="196.2061" x="338.5" y="114.3394"/><ellipse cx="353.5" cy="130.3394" fill="#ADD1B2" rx="11" ry="11" style="stroke:#181818;stroke-width:1;"/><path d="M356.2656,126.2144 Q356.4219,125.9956 356.6094,125.8863 Q356.7969,125.7769 357.0156,125.7769 Q357.3906,125.7769 357.625,126.0425 Q357.8594,126.2925 357.8594,126.9019 L357.8594,128.355 Q357.8594,128.9644 357.625,129.23 Q357.3906,129.4956 357.0156,129.4956 Q356.6719,129.4956 356.4688,129.2925 Q356.2656,129.105 356.1563,128.5894 Q356.1094,128.23 355.9219,128.0425 Q355.5938,127.6675 354.9844,127.4488 Q354.375,127.23 353.75,127.23 Q352.9844,127.23 352.3438,127.5581 Q351.7188,127.8863 351.2188,128.6363 Q350.7344,129.3863 350.7344,130.4175 L350.7344,131.5113 Q350.7344,132.7456 351.625,133.5738 Q352.5156,134.3863 354.1094,134.3863 Q355.0469,134.3863 355.7031,134.1363 Q356.0938,133.98 356.5156,133.5425 Q356.7813,133.2769 356.9219,133.1988 Q357.0781,133.1206 357.2813,133.1206 Q357.6094,133.1206 357.8594,133.3863 Q358.125,133.6363 358.125,133.98 Q358.125,134.3238 357.7813,134.73 Q357.2813,135.3081 356.4844,135.6363 Q355.4063,136.0894 354.1094,136.0894 Q352.5938,136.0894 351.3906,135.4644 Q350.4063,134.9644 349.7188,133.9019 Q349.0313,132.8238 349.0313,131.5425 L349.0313,130.3863 Q349.0313,129.0581 349.6406,127.9175 Q350.2656,126.7613 351.3594,126.1519 Q352.4531,125.5269 353.6875,125.5269 Q354.4219,125.5269 355.0625,125.6988 Q355.7188,125.855 356.2656,126.2144 Z " fill="#000000"/><text fill="#000000" font-family="sans-serif" font-size="14" lengthAdjust="spacing" textLength="164.2061" x="367.5" y="136.0679">Input Validation &amp; Security</text><line style="stroke:#181818;stroke-width:0.5;" x1="339.5" x2="533.7061" y1="146.3394" y2="146.3394"/><line style="stroke:#181818;stroke-width:0.5;" x1="339.5" x2="533.7061" y1="154.3394" y2="154.3394"/></g><!--class dbInterface--><g class="entity" data-qualified-name="Data Layer.dbInterface" data-source-line="22" id="ent0011"><rect fill="#F1F1F1" height="48" rx="2.5" ry="2.5" style="stroke:#181818;stroke-width:0.5;" width="150.2959" x="629.5" y="404.8394"/><ellipse cx="644.5" cy="420.8394" fill="#ADD1B2" rx="11" ry="11" style="stroke:#181818;stroke-width:1;"/><path d="M647.2656,416.7144 Q647.4219,416.4956 647.6094,416.3863 Q647.7969,416.2769 648.0156,416.2769 Q648.3906,416.2769 648.625,416.5425 Q648.8594,416.7925 648.8594,417.4019 L648.8594,418.855 Q648.8594,419.4644 648.625,419.73 Q648.3906,419.9956 648.0156,419.9956 Q647.6719,419.9956 647.4688,419.7925 Q647.2656,419.605 647.1563,419.0894 Q647.1094,418.73 646.9219,418.5425 Q646.5938,418.1675 645.9844,417.9488 Q645.375,417.73 644.75,417.73 Q643.9844,417.73 643.3438,418.0581 Q642.7188,418.3863 642.2188,419.1363 Q641.7344,419.8863 641.7344,420.9175 L641.7344,422.0113 Q641.7344,423.2456 642.625,424.0738 Q643.5156,424.8863 645.1094,424.8863 Q646.0469,424.8863 646.7031,424.6363 Q647.0938,424.48 647.5156,424.0425 Q647.7813,423.7769 647.9219,423.6988 Q648.0781,423.6206 648.2813,423.6206 Q648.6094,423.6206 648.8594,423.8863 Q649.125,424.1363 649.125,424.48 Q649.125,424.8238 648.7813,425.23 Q648.2813,425.8081 647.4844,426.1363 Q646.4063,426.5894 645.1094,426.5894 Q643.5938,426.5894 642.3906,425.9644 Q641.4063,425.4644 640.7188,424.4019 Q640.0313,423.3238 640.0313,422.0425 L640.0313,420.8863 Q640.0313,419.5581 640.6406,418.4175 Q641.2656,417.2613 642.3594,416.6519 Q643.4531,416.0269 644.6875,416.0269 Q645.4219,416.0269 646.0625,416.1988 Q646.7188,416.355 647.2656,416.7144 Z " fill="#000000"/><text fill="#000000" font-family="sans-serif" font-size="14" lengthAdjust="spacing" textLength="118.2959" x="658.5" y="426.5679">Database Interface</text><line style="stroke:#181818;stroke-width:0.5;" x1="630.5" x2="778.7959" y1="436.8394" y2="436.8394"/><line style="stroke:#181818;stroke-width:0.5;" x1="630.5" x2="778.7959" y1="444.8394" y2="444.8394"/></g><!--class daoLayer--><g class="entity" data-qualified-name="Data Layer.daoLayer" data-source-line="23" id="ent0012"><rect fill="#F1F1F1" height="48" rx="2.5" ry="2.5" style="stroke:#181818;stroke-width:0.5;" width="161.9375" x="623.5" y="530.8394"/><ellipse cx="638.5" cy="546.8394" fill="#ADD1B2" rx="11" ry="11" style="stroke:#181818;stroke-width:1;"/><path d="M641.2656,542.7144 Q641.4219,542.4956 641.6094,542.3863 Q641.7969,542.2769 642.0156,542.2769 Q642.3906,542.2769 642.625,542.5425 Q642.8594,542.7925 642.8594,543.4019 L642.8594,544.855 Q642.8594,545.4644 642.625,545.73 Q642.3906,545.9956 642.0156,545.9956 Q641.6719,545.9956 641.4688,545.7925 Q641.2656,545.605 641.1563,545.0894 Q641.1094,544.73 640.9219,544.5425 Q640.5938,544.1675 639.9844,543.9488 Q639.375,543.73 638.75,543.73 Q637.9844,543.73 637.3438,544.0581 Q636.7188,544.3863 636.2188,545.1363 Q635.7344,545.8863 635.7344,546.9175 L635.7344,548.0113 Q635.7344,549.2456 636.625,550.0738 Q637.5156,550.8863 639.1094,550.8863 Q640.0469,550.8863 640.7031,550.6363 Q641.0938,550.48 641.5156,550.0425 Q641.7813,549.7769 641.9219,549.6988 Q642.0781,549.6206 642.2813,549.6206 Q642.6094,549.6206 642.8594,549.8863 Q643.125,550.1363 643.125,550.48 Q643.125,550.8238 642.7813,551.23 Q642.2813,551.8081 641.4844,552.1363 Q640.4063,552.5894 639.1094,552.5894 Q637.5938,552.5894 636.3906,551.9644 Q635.4063,551.4644 634.7188,550.4019 Q634.0313,549.3238 634.0313,548.0425 L634.0313,546.8863 Q634.0313,545.5581 634.6406,544.4175 Q635.2656,543.2613 636.3594,542.6519 Q637.4531,542.0269 638.6875,542.0269 Q639.4219,542.0269 640.0625,542.1988 Q640.7188,542.355 641.2656,542.7144 Z " fill="#000000"/><text fill="#000000" font-family="sans-serif" font-size="14" lengthAdjust="spacing" textLength="129.9375" x="652.5" y="552.5679">Data Access Objects</text><line style="stroke:#181818;stroke-width:0.5;" x1="624.5" x2="784.4375" y1="562.8394" y2="562.8394"/><line style="stroke:#181818;stroke-width:0.5;" x1="624.5" x2="784.4375" y1="570.8394" y2="570.8394"/></g><!--class usersDB--><g class="entity" data-qualified-name="Data Entity Layer.usersDB" data-source-line="28" id="ent0014"><rect fill="#F1F1F1" height="48" rx="2.5" ry="2.5" style="stroke:#181818;stroke-width:0.5;" width="107.4688" x="344" y="680.8394"/><ellipse cx="359" cy="696.8394" fill="#ADD1B2" rx="11" ry="11" style="stroke:#181818;stroke-width:1;"/><path d="M361.7656,692.7144 Q361.9219,692.4956 362.1094,692.3863 Q362.2969,692.2769 362.5156,692.2769 Q362.8906,692.2769 363.125,692.5425 Q363.3594,692.7925 363.3594,693.4019 L363.3594,694.855 Q363.3594,695.4644 363.125,695.73 Q362.8906,695.9956 362.5156,695.9956 Q362.1719,695.9956 361.9688,695.7925 Q361.7656,695.605 361.6563,695.0894 Q361.6094,694.73 361.4219,694.5425 Q361.0938,694.1675 360.4844,693.9488 Q359.875,693.73 359.25,693.73 Q358.4844,693.73 357.8438,694.0581 Q357.2188,694.3863 356.7188,695.1363 Q356.2344,695.8863 356.2344,696.9175 L356.2344,698.0113 Q356.2344,699.2456 357.125,700.0738 Q358.0156,700.8863 359.6094,700.8863 Q360.5469,700.8863 361.2031,700.6363 Q361.5938,700.48 362.0156,700.0425 Q362.2813,699.7769 362.4219,699.6988 Q362.5781,699.6206 362.7813,699.6206 Q363.1094,699.6206 363.3594,699.8863 Q363.625,700.1363 363.625,700.48 Q363.625,700.8238 363.2813,701.23 Q362.7813,701.8081 361.9844,702.1363 Q360.9063,702.5894 359.6094,702.5894 Q358.0938,702.5894 356.8906,701.9644 Q355.9063,701.4644 355.2188,700.4019 Q354.5313,699.3238 354.5313,698.0425 L354.5313,696.8863 Q354.5313,695.5581 355.1406,694.4175 Q355.7656,693.2613 356.8594,692.6519 Q357.9531,692.0269 359.1875,692.0269 Q359.9219,692.0269 360.5625,692.1988 Q361.2188,692.355 361.7656,692.7144 Z " fill="#000000"/><text fill="#000000" font-family="sans-serif" font-size="14" lengthAdjust="spacing" textLength="75.4688" x="373" y="702.5679">Users Table</text><line style="stroke:#181818;stroke-width:0.5;" x1="345" x2="450.4688" y1="712.8394" y2="712.8394"/><line style="stroke:#181818;stroke-width:0.5;" x1="345" x2="450.4688" y1="720.8394" y2="720.8394"/></g><!--class productsDB--><g class="entity" data-qualified-name="Data Entity Layer.productsDB" data-source-line="29" id="ent0015"><rect fill="#F1F1F1" height="48" rx="2.5" ry="2.5" style="stroke:#181818;stroke-width:0.5;" width="126.1582" x="486.5" y="680.8394"/><ellipse cx="501.5" cy="696.8394" fill="#ADD1B2" rx="11" ry="11" style="stroke:#181818;stroke-width:1;"/><path d="M504.2656,692.7144 Q504.4219,692.4956 504.6094,692.3863 Q504.7969,692.2769 505.0156,692.2769 Q505.3906,692.2769 505.625,692.5425 Q505.8594,692.7925 505.8594,693.4019 L505.8594,694.855 Q505.8594,695.4644 505.625,695.73 Q505.3906,695.9956 505.0156,695.9956 Q504.6719,695.9956 504.4688,695.7925 Q504.2656,695.605 504.1563,695.0894 Q504.1094,694.73 503.9219,694.5425 Q503.5938,694.1675 502.9844,693.9488 Q502.375,693.73 501.75,693.73 Q500.9844,693.73 500.3438,694.0581 Q499.7188,694.3863 499.2188,695.1363 Q498.7344,695.8863 498.7344,696.9175 L498.7344,698.0113 Q498.7344,699.2456 499.625,700.0738 Q500.5156,700.8863 502.1094,700.8863 Q503.0469,700.8863 503.7031,700.6363 Q504.0938,700.48 504.5156,700.0425 Q504.7813,699.7769 504.9219,699.6988 Q505.0781,699.6206 505.2813,699.6206 Q505.6094,699.6206 505.8594,699.8863 Q506.125,700.1363 506.125,700.48 Q506.125,700.8238 505.7813,701.23 Q505.2813,701.8081 504.4844,702.1363 Q503.4063,702.5894 502.1094,702.5894 Q500.5938,702.5894 499.3906,701.9644 Q498.4063,701.4644 497.7188,700.4019 Q497.0313,699.3238 497.0313,698.0425 L497.0313,696.8863 Q497.0313,695.5581 497.6406,694.4175 Q498.2656,693.2613 499.3594,692.6519 Q500.4531,692.0269 501.6875,692.0269 Q502.4219,692.0269 503.0625,692.1988 Q503.7188,692.355 504.2656,692.7144 Z " fill="#000000"/><text fill="#000000" font-family="sans-serif" font-size="14" lengthAdjust="spacing" textLength="94.1582" x="515.5" y="702.5679">Products Table</text><line style="stroke:#181818;stroke-width:0.5;" x1="487.5" x2="611.6582" y1="712.8394" y2="712.8394"/><line style="stroke:#181818;stroke-width:0.5;" x1="487.5" x2="611.6582" y1="720.8394" y2="720.8394"/></g><!--class ordersDB--><g class="entity" data-qualified-name="Data Entity Layer.ordersDB" data-source-line="30" id="ent0016"><rect fill="#F1F1F1" height="48" rx="2.5" ry="2.5" style="stroke:#181818;stroke-width:0.5;" width="113.6963" x="647.5" y="680.8394"/><ellipse cx="662.5" cy="696.8394" fill="#ADD1B2" rx="11" ry="11" style="stroke:#181818;stroke-width:1;"/><path d="M665.2656,692.7144 Q665.4219,692.4956 665.6094,692.3863 Q665.7969,692.2769 666.0156,692.2769 Q666.3906,692.2769 666.625,692.5425 Q666.8594,692.7925 666.8594,693.4019 L666.8594,694.855 Q666.8594,695.4644 666.625,695.73 Q666.3906,695.9956 666.0156,695.9956 Q665.6719,695.9956 665.4688,695.7925 Q665.2656,695.605 665.1563,695.0894 Q665.1094,694.73 664.9219,694.5425 Q664.5938,694.1675 663.9844,693.9488 Q663.375,693.73 662.75,693.73 Q661.9844,693.73 661.3438,694.0581 Q660.7188,694.3863 660.2188,695.1363 Q659.7344,695.8863 659.7344,696.9175 L659.7344,698.0113 Q659.7344,699.2456 660.625,700.0738 Q661.5156,700.8863 663.1094,700.8863 Q664.0469,700.8863 664.7031,700.6363 Q665.0938,700.48 665.5156,700.0425 Q665.7813,699.7769 665.9219,699.6988 Q666.0781,699.6206 666.2813,699.6206 Q666.6094,699.6206 666.8594,699.8863 Q667.125,700.1363 667.125,700.48 Q667.125,700.8238 666.7813,701.23 Q666.2813,701.8081 665.4844,702.1363 Q664.4063,702.5894 663.1094,702.5894 Q661.5938,702.5894 660.3906,701.9644 Q659.4063,701.4644 658.7188,700.4019 Q658.0313,699.3238 658.0313,698.0425 L658.0313,696.8863 Q658.0313,695.5581 658.6406,694.4175 Q659.2656,693.2613 660.3594,692.6519 Q661.4531,692.0269 662.6875,692.0269 Q663.4219,692.0269 664.0625,692.1988 Q664.7188,692.355 665.2656,692.7144 Z " fill="#000000"/><text fill="#000000" font-family="sans-serif" font-size="14" lengthAdjust="spacing" textLength="81.6963" x="676.5" y="702.5679">Orders Table</text><line style="stroke:#181818;stroke-width:0.5;" x1="648.5" x2="760.1963" y1="712.8394" y2="712.8394"/><line style="stroke:#181818;stroke-width:0.5;" x1="648.5" x2="760.1963" y1="720.8394" y2="720.8394"/></g><!--class favoritesDB--><g class="entity" data-qualified-name="Data Entity Layer.favoritesDB" data-source-line="31" id="ent0017"><rect fill="#F1F1F1" height="48" rx="2.5" ry="2.5" style="stroke:#181818;stroke-width:0.5;" width="128.4824" x="796.5" y="680.8394"/><ellipse cx="811.5" cy="696.8394" fill="#ADD1B2" rx="11" ry="11" style="stroke:#181818;stroke-width:1;"/><path d="M814.2656,692.7144 Q814.4219,692.4956 814.6094,692.3863 Q814.7969,692.2769 815.0156,692.2769 Q815.3906,692.2769 815.625,692.5425 Q815.8594,692.7925 815.8594,693.4019 L815.8594,694.855 Q815.8594,695.4644 815.625,695.73 Q815.3906,695.9956 815.0156,695.9956 Q814.6719,695.9956 814.4688,695.7925 Q814.2656,695.605 814.1563,695.0894 Q814.1094,694.73 813.9219,694.5425 Q813.5938,694.1675 812.9844,693.9488 Q812.375,693.73 811.75,693.73 Q810.9844,693.73 810.3438,694.0581 Q809.7188,694.3863 809.2188,695.1363 Q808.7344,695.8863 808.7344,696.9175 L808.7344,698.0113 Q808.7344,699.2456 809.625,700.0738 Q810.5156,700.8863 812.1094,700.8863 Q813.0469,700.8863 813.7031,700.6363 Q814.0938,700.48 814.5156,700.0425 Q814.7813,699.7769 814.9219,699.6988 Q815.0781,699.6206 815.2813,699.6206 Q815.6094,699.6206 815.8594,699.8863 Q816.125,700.1363 816.125,700.48 Q816.125,700.8238 815.7813,701.23 Q815.2813,701.8081 814.4844,702.1363 Q813.4063,702.5894 812.1094,702.5894 Q810.5938,702.5894 809.3906,701.9644 Q808.4063,701.4644 807.7188,700.4019 Q807.0313,699.3238 807.0313,698.0425 L807.0313,696.8863 Q807.0313,695.5581 807.6406,694.4175 Q808.2656,693.2613 809.3594,692.6519 Q810.4531,692.0269 811.6875,692.0269 Q812.4219,692.0269 813.0625,692.1988 Q813.7188,692.355 814.2656,692.7144 Z " fill="#000000"/><text fill="#000000" font-family="sans-serif" font-size="14" lengthAdjust="spacing" textLength="96.4824" x="825.5" y="702.5679">Favorites Table</text><line style="stroke:#181818;stroke-width:0.5;" x1="797.5" x2="923.9824" y1="712.8394" y2="712.8394"/><line style="stroke:#181818;stroke-width:0.5;" x1="797.5" x2="923.9824" y1="720.8394" y2="720.8394"/></g><!--class tagsDB--><g class="entity" data-qualified-name="Data Entity Layer.tagsDB" data-source-line="32" id="ent0018"><rect fill="#F1F1F1" height="48" rx="2.5" ry="2.5" style="stroke:#181818;stroke-width:0.5;" width="173.627" x="959.5" y="680.8394"/><ellipse cx="974.5" cy="696.8394" fill="#ADD1B2" rx="11" ry="11" style="stroke:#181818;stroke-width:1;"/><path d="M977.2656,692.7144 Q977.4219,692.4956 977.6094,692.3863 Q977.7969,692.2769 978.0156,692.2769 Q978.3906,692.2769 978.625,692.5425 Q978.8594,692.7925 978.8594,693.4019 L978.8594,694.855 Q978.8594,695.4644 978.625,695.73 Q978.3906,695.9956 978.0156,695.9956 Q977.6719,695.9956 977.4688,695.7925 Q977.2656,695.605 977.1563,695.0894 Q977.1094,694.73 976.9219,694.5425 Q976.5938,694.1675 975.9844,693.9488 Q975.375,693.73 974.75,693.73 Q973.9844,693.73 973.3438,694.0581 Q972.7188,694.3863 972.2188,695.1363 Q971.7344,695.8863 971.7344,696.9175 L971.7344,698.0113 Q971.7344,699.2456 972.625,700.0738 Q973.5156,700.8863 975.1094,700.8863 Q976.0469,700.8863 976.7031,700.6363 Q977.0938,700.48 977.5156,700.0425 Q977.7813,699.7769 977.9219,699.6988 Q978.0781,699.6206 978.2813,699.6206 Q978.6094,699.6206 978.8594,699.8863 Q979.125,700.1363 979.125,700.48 Q979.125,700.8238 978.7813,701.23 Q978.2813,701.8081 977.4844,702.1363 Q976.4063,702.5894 975.1094,702.5894 Q973.5938,702.5894 972.3906,701.9644 Q971.4063,701.4644 970.7188,700.4019 Q970.0313,699.3238 970.0313,698.0425 L970.0313,696.8863 Q970.0313,695.5581 970.6406,694.4175 Q971.2656,693.2613 972.3594,692.6519 Q973.4531,692.0269 974.6875,692.0269 Q975.4219,692.0269 976.0625,692.1988 Q976.7188,692.355 977.2656,692.7144 Z " fill="#000000"/><text fill="#000000" font-family="sans-serif" font-size="14" lengthAdjust="spacing" textLength="141.627" x="988.5" y="702.5679">Tags/Categories Table</text><line style="stroke:#181818;stroke-width:0.5;" x1="960.5" x2="1132.127" y1="712.8394" y2="712.8394"/><line style="stroke:#181818;stroke-width:0.5;" x1="960.5" x2="1132.127" y1="720.8394" y2="720.8394"/></g><!--class logsDB--><g class="entity" data-qualified-name="Data Entity Layer.logsDB" data-source-line="33" id="ent0019"><rect fill="#F1F1F1" height="48" rx="2.5" ry="2.5" style="stroke:#181818;stroke-width:0.5;" width="144.8408" x="1169" y="680.8394"/><ellipse cx="1184" cy="696.8394" fill="#ADD1B2" rx="11" ry="11" style="stroke:#181818;stroke-width:1;"/><path d="M1186.7656,692.7144 Q1186.9219,692.4956 1187.1094,692.3863 Q1187.2969,692.2769 1187.5156,692.2769 Q1187.8906,692.2769 1188.125,692.5425 Q1188.3594,692.7925 1188.3594,693.4019 L1188.3594,694.855 Q1188.3594,695.4644 1188.125,695.73 Q1187.8906,695.9956 1187.5156,695.9956 Q1187.1719,695.9956 1186.9688,695.7925 Q1186.7656,695.605 1186.6563,695.0894 Q1186.6094,694.73 1186.4219,694.5425 Q1186.0938,694.1675 1185.4844,693.9488 Q1184.875,693.73 1184.25,693.73 Q1183.4844,693.73 1182.8438,694.0581 Q1182.2188,694.3863 1181.7188,695.1363 Q1181.2344,695.8863 1181.2344,696.9175 L1181.2344,698.0113 Q1181.2344,699.2456 1182.125,700.0738 Q1183.0156,700.8863 1184.6094,700.8863 Q1185.5469,700.8863 1186.2031,700.6363 Q1186.5938,700.48 1187.0156,700.0425 Q1187.2813,699.7769 1187.4219,699.6988 Q1187.5781,699.6206 1187.7813,699.6206 Q1188.1094,699.6206 1188.3594,699.8863 Q1188.625,700.1363 1188.625,700.48 Q1188.625,700.8238 1188.2813,701.23 Q1187.7813,701.8081 1186.9844,702.1363 Q1185.9063,702.5894 1184.6094,702.5894 Q1183.0938,702.5894 1181.8906,701.9644 Q1180.9063,701.4644 1180.2188,700.4019 Q1179.5313,699.3238 1179.5313,698.0425 L1179.5313,696.8863 Q1179.5313,695.5581 1180.1406,694.4175 Q1180.7656,693.2613 1181.8594,692.6519 Q1182.9531,692.0269 1184.1875,692.0269 Q1184.9219,692.0269 1185.5625,692.1988 Q1186.2188,692.355 1186.7656,692.7144 Z " fill="#000000"/><text fill="#000000" font-family="sans-serif" font-size="14" lengthAdjust="spacing" textLength="112.8408" x="1198" y="702.5679">Admin Logs Table</text><line style="stroke:#181818;stroke-width:0.5;" x1="1170" x2="1312.8408" y1="712.8394" y2="712.8394"/><line style="stroke:#181818;stroke-width:0.5;" x1="1170" x2="1312.8408" y1="720.8394" y2="720.8394"/></g><!--class metricsDB--><g class="entity" data-qualified-name="Data Entity Layer.metricsDB" data-source-line="34" id="ent0020"><rect fill="#F1F1F1" height="48" rx="2.5" ry="2.5" style="stroke:#181818;stroke-width:0.5;" width="199.2891" x="110" y="680.8394"/><ellipse cx="125" cy="696.8394" fill="#ADD1B2" rx="11" ry="11" style="stroke:#181818;stroke-width:1;"/><path d="M127.7656,692.7144 Q127.9219,692.4956 128.1094,692.3863 Q128.2969,692.2769 128.5156,692.2769 Q128.8906,692.2769 129.125,692.5425 Q129.3594,692.7925 129.3594,693.4019 L129.3594,694.855 Q129.3594,695.4644 129.125,695.73 Q128.8906,695.9956 128.5156,695.9956 Q128.1719,695.9956 127.9688,695.7925 Q127.7656,695.605 127.6563,695.0894 Q127.6094,694.73 127.4219,694.5425 Q127.0938,694.1675 126.4844,693.9488 Q125.875,693.73 125.25,693.73 Q124.4844,693.73 123.8438,694.0581 Q123.2188,694.3863 122.7188,695.1363 Q122.2344,695.8863 122.2344,696.9175 L122.2344,698.0113 Q122.2344,699.2456 123.125,700.0738 Q124.0156,700.8863 125.6094,700.8863 Q126.5469,700.8863 127.2031,700.6363 Q127.5938,700.48 128.0156,700.0425 Q128.2813,699.7769 128.4219,699.6988 Q128.5781,699.6206 128.7813,699.6206 Q129.1094,699.6206 129.3594,699.8863 Q129.625,700.1363 129.625,700.48 Q129.625,700.8238 129.2813,701.23 Q128.7813,701.8081 127.9844,702.1363 Q126.9063,702.5894 125.6094,702.5894 Q124.0938,702.5894 122.8906,701.9644 Q121.9063,701.4644 121.2188,700.4019 Q120.5313,699.3238 120.5313,698.0425 L120.5313,696.8863 Q120.5313,695.5581 121.1406,694.4175 Q121.7656,693.2613 122.8594,692.6519 Q123.9531,692.0269 125.1875,692.0269 Q125.9219,692.0269 126.5625,692.1988 Q127.2188,692.355 127.7656,692.7144 Z " fill="#000000"/><text fill="#000000" font-family="sans-serif" font-size="14" lengthAdjust="spacing" textLength="167.2891" x="139" y="702.5679">Monitoring Metrics Storage</text><line style="stroke:#181818;stroke-width:0.5;" x1="111" x2="308.2891" y1="712.8394" y2="712.8394"/><line style="stroke:#181818;stroke-width:0.5;" x1="111" x2="308.2891" y1="720.8394" y2="720.8394"/></g><g class="entity" data-qualified-name="GMN41" data-source-line="63" id="ent0042"><path d="M1648,108.8394 L1648,167.8941 L1848.8862,167.8941 L1848.8862,118.8394 L1838.8862,108.8394 L1648,108.8394" fill="#FEFFDD" style="stroke:#181818;stroke-width:0.5;"/><path d="M1838.8862,108.8394 L1838.8862,118.8394 L1848.8862,118.8394 L1838.8862,108.8394" fill="#FEFFDD" style="stroke:#181818;stroke-width:1;"/><text fill="#000000" font-family="sans-serif" font-size="13" lengthAdjust="spacing" textLength="179.8862" x="1654" y="127.3345">WeChat Mini Program Runtime</text><text fill="#000000" font-family="sans-serif" font-size="13" lengthAdjust="spacing" textLength="131.8726" x="1654" y="143.6861">Requires WeChat 8.0+</text><text fill="#000000" font-family="sans-serif" font-size="13" lengthAdjust="spacing" textLength="147.4116" x="1654" y="160.0376">Android 5.0+, 4GB+ RAM</text></g><g class="entity" data-qualified-name="GMN44" data-source-line="69" id="ent0045"><path d="M1434.5,116.8394 L1434.5,159.5425 L1612.3125,159.5425 L1612.3125,126.8394 L1602.3125,116.8394 L1434.5,116.8394" fill="#FEFFDD" style="stroke:#181818;stroke-width:0.5;"/><path d="M1602.3125,116.8394 L1602.3125,126.8394 L1612.3125,126.8394 L1602.3125,116.8394" fill="#FEFFDD" style="stroke:#181818;stroke-width:1;"/><text fill="#000000" font-family="sans-serif" font-size="13" lengthAdjust="spacing" textLength="136.5698" x="1440.5" y="135.3345">Admin functions require</text><text fill="#000000" font-family="sans-serif" font-size="13" lengthAdjust="spacing" textLength="156.8125" x="1440.5" y="151.6861">authenticated administrator</text></g><g class="entity" data-qualified-name="GMN47" data-source-line="74" id="ent0048"><path d="M6,245.8394 L6,304.8941 A0,0 0 0 0 6,304.8941 L191.0361,304.8941 A0,0 0 0 0 191.0361,304.8941 L191.0361,255.8394 L181.0361,245.8394 L174.09,245.8394 L378.78,162.3894 L166.09,245.8394 L6,245.8394 A0,0 0 0 0 6,245.8394" fill="#FEFFDD" style="stroke:#181818;stroke-width:0.5;"/><path d="M181.0361,245.8394 L181.0361,255.8394 L191.0361,255.8394 L181.0361,245.8394" fill="#FEFFDD" style="stroke:#181818;stroke-width:0.5;"/><text fill="#000000" font-family="sans-serif" font-size="13" lengthAdjust="spacing" textLength="87.4517" x="12" y="264.3345">Input validation</text><text fill="#000000" font-family="sans-serif" font-size="13" lengthAdjust="spacing" textLength="141.6416" x="12" y="280.6861">SQL injection prevention</text><text fill="#000000" font-family="sans-serif" font-size="13" lengthAdjust="spacing" textLength="164.0361" x="12" y="297.0376">Malicious behavior detection</text></g><g class="entity" data-qualified-name="GMN50" data-source-line="80" id="ent0051"><path d="M1349,675.3394 L1349,734.3941 L1510.1689,734.3941 L1510.1689,685.3394 L1500.1689,675.3394 L1349,675.3394" fill="#FEFFDD" style="stroke:#181818;stroke-width:0.5;"/><path d="M1500.1689,675.3394 L1500.1689,685.3394 L1510.1689,685.3394 L1500.1689,675.3394" fill="#FEFFDD" style="stroke:#181818;stroke-width:1;"/><text fill="#000000" font-family="sans-serif" font-size="13" lengthAdjust="spacing" textLength="138.728" x="1355" y="693.8345">Performance monitoring</text><text fill="#000000" font-family="sans-serif" font-size="13" lengthAdjust="spacing" textLength="78.019" x="1355" y="710.1861">Error tracking</text><text fill="#000000" font-family="sans-serif" font-size="13" lengthAdjust="spacing" textLength="140.1689" x="1355" y="726.5376">Resource usage metrics</text></g><!--link client to productService--><g class="link" data-entity-1="ent0002" data-entity-2="ent0004" data-link-type="dependency" data-source-line="38" id="lnk21"><path codeLine="38" d="M1235.46,162.4494 C1209.5,171.5594 1178.4,181.0894 1149.5,186.3394 C1039.19,206.3594 1007.08,174.1294 897.5,197.8394 C876.45,202.3894 873.49,211.0094 852.5,215.8394 C671.86,257.4194 619.55,216.5794 436.5,245.8394 C427.13,247.3394 422.2957,248.1662 412.6457,250.2662" fill="none" id="client-to-productService" style="stroke:#181818;stroke-width:1;"/><polygon fill="#181818" points="407.76,251.3294,417.4047,253.3241,412.6457,250.2662,415.7036,245.5071,407.76,251.3294" style="stroke:#181818;stroke-width:1;stroke-linejoin:miter;stroke-miterlimit:10;"/><text fill="#000000" font-family="sans-serif" font-size="13" lengthAdjust="spacing" textLength="27.46" x="898.5" y="212.3345">uses</text></g><!--link client to orderService--><g class="link" data-entity-1="ent0002" data-entity-2="ent0005" data-link-type="dependency" data-source-line="39" id="lnk22"><path codeLine="39" d="M1233.94,162.3594 C1208.25,171.2294 1177.77,180.5994 1149.5,186.3394 C1091.79,198.0494 1075.73,189.0294 1017.5,197.8394 C980.18,203.4894 971.74,209.6594 934.5,215.8394 C820.18,234.8094 789.63,225.7494 675.5,245.8394 C666.43,247.4394 661.9099,248.2557 652.5399,250.2557" fill="none" id="client-to-orderService" style="stroke:#181818;stroke-width:1;"/><polygon fill="#181818" points="647.65,251.2994,657.2867,253.3326,652.5399,250.2557,655.6168,245.5088,647.65,251.2994" style="stroke:#181818;stroke-width:1;stroke-linejoin:miter;stroke-miterlimit:10;"/><text fill="#000000" font-family="sans-serif" font-size="13" lengthAdjust="spacing" textLength="27.46" x="1018.5" y="212.3345">uses</text></g><!--link client to userService--><g class="link" data-entity-1="ent0002" data-entity-2="ent0006" data-link-type="dependency" data-source-line="40" id="lnk23"><path codeLine="40" d="M1224.16,162.4494 C1200.47,170.1494 1173.87,178.6994 1149.5,186.3394 C1132.66,191.6194 1128.36,192.6294 1111.5,197.8394 C1086.12,205.6894 1080.21,209.1594 1054.5,215.8394 C990.39,232.4994 973.14,231.3294 908.5,245.8394 C900.75,247.5794 897.5876,248.2865 889.5376,250.1765" fill="none" id="client-to-userService" style="stroke:#181818;stroke-width:1;"/><polygon fill="#181818" points="884.67,251.3194,894.346,253.1564,889.5376,250.1765,892.5175,245.3682,884.67,251.3194" style="stroke:#181818;stroke-width:1;stroke-linejoin:miter;stroke-miterlimit:10;"/><text fill="#000000" font-family="sans-serif" font-size="13" lengthAdjust="spacing" textLength="27.46" x="1112.5" y="212.3345">uses</text></g><!--link client to adminService--><g class="link" data-entity-1="ent0002" data-entity-2="ent0007" data-link-type="dependency" data-source-line="41" id="lnk24"><path codeLine="41" d="M1251.21,162.3994 C1222.24,177.7294 1183.2,198.2194 1148.5,215.8394 C1125.1,227.7194 1103.4325,238.4246 1081.6125,249.0846" fill="none" id="client-to-adminService" style="stroke:#181818;stroke-width:1;"/><polygon fill="#181818" points="1077.12,251.2794,1086.9624,250.9228,1081.6125,249.0846,1083.4507,243.7347,1077.12,251.2794" style="stroke:#181818;stroke-width:1;stroke-linejoin:miter;stroke-miterlimit:10;"/><text fill="#000000" font-family="sans-serif" font-size="13" lengthAdjust="spacing" textLength="27.46" x="1181.5" y="212.3345">uses</text></g><!--link productService to dbInterface--><g class="link" data-entity-1="ent0004" data-entity-2="ent0011" data-link-type="dependency" data-source-line="43" id="lnk25"><path codeLine="43" d="M377.79,299.3794 C396.41,307.0794 417.33,315.6494 436.5,323.3394 C507.76,351.9194 585.434,382.0725 639.834,403.0225" fill="none" id="productService-to-dbInterface" style="stroke:#181818;stroke-width:1;"/><polygon fill="#181818" points="644.5,404.8194,637.5388,397.8522,639.834,403.0225,634.6638,405.3177,644.5,404.8194" style="stroke:#181818;stroke-width:1;stroke-linejoin:miter;stroke-miterlimit:10;"/><text fill="#000000" font-family="sans-serif" font-size="13" lengthAdjust="spacing" textLength="42.6372" x="510.5" y="349.3345">queries</text></g><!--link orderService to dbInterface--><g class="link" data-entity-1="ent0005" data-entity-2="ent0011" data-link-type="dependency" data-source-line="44" id="lnk26"><path codeLine="44" d="M578.13,299.3494 C606.14,327.8194 650.0433,372.4753 678.1533,401.0453" fill="none" id="orderService-to-dbInterface" style="stroke:#181818;stroke-width:1;"/><polygon fill="#181818" points="681.66,404.6094,678.1992,395.3886,678.1533,401.0453,672.4966,400.9994,681.66,404.6094" style="stroke:#181818;stroke-width:1;stroke-linejoin:miter;stroke-miterlimit:10;"/><text fill="#000000" font-family="sans-serif" font-size="13" lengthAdjust="spacing" textLength="70.0781" x="630.5" y="349.3345">reads/writes</text></g><!--link userService to dbInterface--><g class="link" data-entity-1="ent0006" data-entity-2="ent0011" data-link-type="dependency" data-source-line="45" id="lnk27"><path codeLine="45" d="M778.29,299.3494 C761.93,327.8194 736.7403,371.7037 720.3303,400.2737" fill="none" id="userService-to-dbInterface" style="stroke:#181818;stroke-width:1;"/><polygon fill="#181818" points="717.84,404.6094,725.7912,398.7974,720.3303,400.2737,718.854,394.8129,717.84,404.6094" style="stroke:#181818;stroke-width:1;stroke-linejoin:miter;stroke-miterlimit:10;"/><text fill="#000000" font-family="sans-serif" font-size="13" lengthAdjust="spacing" textLength="70.0781" x="756.5" y="349.3345">reads/writes</text></g><!--link adminService to dbInterface--><g class="link" data-entity-1="ent0007" data-entity-2="ent0011" data-link-type="dependency" data-source-line="46" id="lnk28"><path codeLine="46" d="M980.14,299.3494 C918.97,327.8694 819.8517,374.0666 758.5917,402.6266" fill="none" id="adminService-to-dbInterface" style="stroke:#181818;stroke-width:1;"/><polygon fill="#181818" points="754.06,404.7394,763.9073,404.5618,758.5917,402.6266,760.5269,397.3111,754.06,404.7394" style="stroke:#181818;stroke-width:1;stroke-linejoin:miter;stroke-miterlimit:10;"/><text fill="#000000" font-family="sans-serif" font-size="13" lengthAdjust="spacing" textLength="70.0781" x="896.5" y="349.3345">reads/writes</text></g><!--link authModule to userService--><g class="link" data-entity-1="ent0008" data-entity-2="ent0006" data-link-type="dependency" data-source-line="48" id="lnk29"><path codeLine="48" d="M791.5,162.5494 C791.5,187.2694 791.5,221.1994 791.5,245.9794" fill="none" id="authModule-to-userService" style="stroke:#181818;stroke-width:1;"/><polygon fill="#181818" points="791.5,250.9794,795.5,241.9794,791.5,245.9794,787.5,241.9794,791.5,250.9794" style="stroke:#181818;stroke-width:1;stroke-linejoin:miter;stroke-miterlimit:10;"/><text fill="#000000" font-family="sans-serif" font-size="13" lengthAdjust="spacing" textLength="51.3081" x="792.5" y="212.3345">validates</text></g><!--link securityModule to productService--><g class="link" data-entity-1="ent0009" data-entity-2="ent0004" data-link-type="dependency" data-source-line="49" id="lnk30"><path codeLine="49" d="M416.9,162.5494 C396.02,187.2694 366.3763,222.3796 345.4463,247.1596" fill="none" id="securityModule-to-productService" style="stroke:#181818;stroke-width:1;"/><polygon fill="#181818" points="342.22,250.9794,351.0832,246.6848,345.4463,247.1596,344.9715,241.5227,342.22,250.9794" style="stroke:#181818;stroke-width:1;stroke-linejoin:miter;stroke-miterlimit:10;"/><text fill="#000000" font-family="sans-serif" font-size="13" lengthAdjust="spacing" textLength="31.0591" x="386.5" y="212.3345">filters</text></g><!--link securityModule to orderService--><g class="link" data-entity-1="ent0009" data-entity-2="ent0005" data-link-type="dependency" data-source-line="50" id="lnk31"><path codeLine="50" d="M456.96,162.5494 C478.75,187.2694 509.764,222.4483 531.604,247.2283" fill="none" id="securityModule-to-orderService" style="stroke:#181818;stroke-width:1;"/><polygon fill="#181818" points="534.91,250.9794,531.96,241.5827,531.604,247.2283,525.9584,246.8723,534.91,250.9794" style="stroke:#181818;stroke-width:1;stroke-linejoin:miter;stroke-miterlimit:10;"/><text fill="#000000" font-family="sans-serif" font-size="13" lengthAdjust="spacing" textLength="31.0591" x="503.5" y="212.3345">filters</text></g><!--link securityModule to adminService--><g class="link" data-entity-1="ent0009" data-entity-2="ent0007" data-link-type="dependency" data-source-line="51" id="lnk32"><path codeLine="51" d="M525.89,162.4094 C588.56,178.2694 674.41,199.3594 750.5,215.8394 C820.36,230.9694 838.59,230.9794 908.5,245.8394 C916.63,247.5694 920.1721,248.3213 928.6121,250.2213" fill="none" id="securityModule-to-adminService" style="stroke:#181818;stroke-width:1;"/><polygon fill="#181818" points="933.49,251.3194,925.5882,245.4404,928.6121,250.2213,923.8312,253.2451,933.49,251.3194" style="stroke:#181818;stroke-width:1;stroke-linejoin:miter;stroke-miterlimit:10;"/><text fill="#000000" font-family="sans-serif" font-size="13" lengthAdjust="spacing" textLength="31.0591" x="751.5" y="212.3345">filters</text></g><!--link dbInterface to daoLayer--><g class="link" data-entity-1="ent0011" data-entity-2="ent0012" data-link-type="dependency" data-source-line="53" id="lnk33"><path codeLine="53" d="M704.5,452.8694 C704.5,475.0094 704.5,503.2794 704.5,525.5094" fill="none" id="dbInterface-to-daoLayer" style="stroke:#181818;stroke-width:1;"/><polygon fill="#181818" points="704.5,530.5094,708.5,521.5094,704.5,525.5094,700.5,521.5094,704.5,530.5094" style="stroke:#181818;stroke-width:1;stroke-linejoin:miter;stroke-miterlimit:10;"/><text fill="#000000" font-family="sans-serif" font-size="13" lengthAdjust="spacing" textLength="49.1309" x="705.5" y="497.3345">interacts</text></g><!--link daoLayer to usersDB--><g class="link" data-entity-1="ent0012" data-entity-2="ent0014" data-link-type="dependency" data-source-line="54" id="lnk34"><path codeLine="54" d="M623.34,574.7894 C576.3,587.9194 517.14,608.2394 469.5,636.8394 C449.88,648.6194 434.5083,662.7798 421.0383,677.0798" fill="none" id="daoLayer-to-usersDB" style="stroke:#181818;stroke-width:1;"/><polygon fill="#181818" points="417.61,680.7194,426.6927,676.9108,421.0383,677.0798,420.8693,671.4255,417.61,680.7194" style="stroke:#181818;stroke-width:1;stroke-linejoin:miter;stroke-miterlimit:10;"/><text fill="#000000" font-family="sans-serif" font-size="13" lengthAdjust="spacing" textLength="53.479" x="518.5" y="625.3345">manages</text></g><!--link daoLayer to productsDB--><g class="link" data-entity-1="ent0012" data-entity-2="ent0015" data-link-type="dependency" data-source-line="55" id="lnk35"><path codeLine="55" d="M677.14,578.9694 C665.93,588.6394 652.93,600.0994 641.5,610.8394 C616.84,634.0094 593.1841,658.1038 574.8241,677.2138" fill="none" id="daoLayer-to-productsDB" style="stroke:#181818;stroke-width:1;"/><polygon fill="#181818" points="571.36,680.8194,580.4798,677.1006,574.8241,677.2138,574.7109,671.5581,571.36,680.8194" style="stroke:#181818;stroke-width:1;stroke-linejoin:miter;stroke-miterlimit:10;"/><text fill="#000000" font-family="sans-serif" font-size="13" lengthAdjust="spacing" textLength="53.479" x="642.5" y="625.3345">manages</text></g><!--link daoLayer to ordersDB--><g class="link" data-entity-1="ent0012" data-entity-2="ent0016" data-link-type="dependency" data-source-line="56" id="lnk36"><path codeLine="56" d="M704.5,578.9594 C704.5,606.6094 704.5,647.5994 704.5,675.3894" fill="none" id="daoLayer-to-ordersDB" style="stroke:#181818;stroke-width:1;"/><polygon fill="#181818" points="704.5,680.3894,708.5,671.3894,704.5,675.3894,700.5,671.3894,704.5,680.3894" style="stroke:#181818;stroke-width:1;stroke-linejoin:miter;stroke-miterlimit:10;"/><text fill="#000000" font-family="sans-serif" font-size="13" lengthAdjust="spacing" textLength="53.479" x="705.5" y="625.3345">manages</text></g><!--link daoLayer to favoritesDB--><g class="link" data-entity-1="ent0012" data-entity-2="ent0017" data-link-type="dependency" data-source-line="57" id="lnk37"><path codeLine="57" d="M731.84,578.9994 C743.04,588.6694 756.04,600.1294 767.5,610.8394 C792.19,633.9094 815.9327,657.8063 834.5027,676.8863" fill="none" id="daoLayer-to-favoritesDB" style="stroke:#181818;stroke-width:1;"/><polygon fill="#181818" points="837.99,680.4694,834.5793,671.2299,834.5027,676.8863,828.8463,676.8097,837.99,680.4694" style="stroke:#181818;stroke-width:1;stroke-linejoin:miter;stroke-miterlimit:10;"/><text fill="#000000" font-family="sans-serif" font-size="13" lengthAdjust="spacing" textLength="53.479" x="786.5" y="625.3345">manages</text></g><!--link daoLayer to tagsDB--><g class="link" data-entity-1="ent0012" data-entity-2="ent0018" data-link-type="dependency" data-source-line="58" id="lnk38"><path codeLine="58" d="M785.77,578.1094 C832.7,592.2794 892.2,612.5294 942.5,636.8394 C968.03,649.1794 990.7815,663.7354 1010.8015,677.7254" fill="none" id="daoLayer-to-tagsDB" style="stroke:#181818;stroke-width:1;"/><polygon fill="#181818" points="1014.9,680.5894,1009.814,672.1554,1010.8015,677.7254,1005.2315,678.7129,1014.9,680.5894" style="stroke:#181818;stroke-width:1;stroke-linejoin:miter;stroke-miterlimit:10;"/><text fill="#000000" font-family="sans-serif" font-size="13" lengthAdjust="spacing" textLength="53.479" x="924.5" y="625.3345">manages</text></g><!--link daoLayer to logsDB--><g class="link" data-entity-1="ent0012" data-entity-2="ent0019" data-link-type="dependency" data-source-line="59" id="lnk39"><path codeLine="59" d="M785.62,559.4094 C877.73,565.9494 1030.87,584.4694 1151.5,636.8394 C1175.98,647.4694 1196.2567,662.6288 1213.3367,677.4788" fill="none" id="daoLayer-to-logsDB" style="stroke:#181818;stroke-width:1;"/><polygon fill="#181818" points="1217.11,680.7594,1212.9426,671.8356,1213.3367,677.4788,1207.6936,677.8729,1217.11,680.7594" style="stroke:#181818;stroke-width:1;stroke-linejoin:miter;stroke-miterlimit:10;"/><text fill="#000000" font-family="sans-serif" font-size="13" lengthAdjust="spacing" textLength="53.479" x="1129.5" y="625.3345">manages</text></g><!--link daoLayer to metricsDB--><g class="link" data-entity-1="ent0012" data-entity-2="ent0020" data-link-type="dependency" data-source-line="60" id="lnk40"><path codeLine="60" d="M623.43,565.5594 C545.38,576.6694 425.01,598.4994 326.5,636.8394 C297.05,648.2994 270.3449,663.6197 247.6849,678.0797" fill="none" id="daoLayer-to-metricsDB" style="stroke:#181818;stroke-width:1;"/><polygon fill="#181818" points="243.47,680.7694,253.2086,679.2999,247.6849,678.0797,248.9051,672.556,243.47,680.7694" style="stroke:#181818;stroke-width:1;stroke-linejoin:miter;stroke-miterlimit:10;"/><text fill="#000000" font-family="sans-serif" font-size="13" lengthAdjust="spacing" textLength="35.4009" x="396.5" y="625.3345">stores</text></g><!--link client to GMN41--><g class="link" data-entity-1="ent0002" data-entity-2="ent0042" data-link-type="association" data-source-line="63" id="lnk43"><path d="M1324.39,114.1994 C1351.44,93.9994 1393.32,66.7294 1435,55.3394 C1473.16,44.9094 1574.93,44.6094 1613,55.3394 C1649.91,65.7494 1686.68,89.3194 1712.59,108.6994" fill="none" id="client-GMN41" style="stroke:#181818;stroke-width:1;stroke-dasharray:7,7;"/></g><!--link GMN44 to adminService--><g class="link" data-entity-1="ent0045" data-entity-2="ent0007" data-link-type="association" data-source-line="69" id="lnk46"><path d="M1481.38,159.8494 C1461.7,168.8594 1437.74,179.0294 1415.5,186.3394 C1321.95,217.0594 1212.24,240.9494 1133.73,256.0394" fill="none" id="GMN44-adminService" style="stroke:#181818;stroke-width:1;stroke-dasharray:7,7;"/></g><!--link metricsDB to GMN50--><g class="link" data-entity-1="ent0020" data-entity-2="ent0051" data-link-type="association" data-source-line="80" id="lnk52"><path d="M237.08,680.7394 C262.77,660.0294 303.14,631.6694 344,619.8394 C395.71,604.8694 1261.82,603.1494 1313,619.8394 C1346.33,630.7094 1378.04,655.1094 1399.94,674.9894" fill="none" id="metricsDB-GMN50" style="stroke:#181818;stroke-width:1;stroke-dasharray:7,7;"/></g><?plantuml-src XLPBSzCm4BxhLomvy9XIoW5c60xC96aedKbeIGgS5NljYDgMgqSwWU6_ivBi-16RvXJjVf--rMftvMSn9g90M2_cTzElLyi5H1dNcZ4ZJ8OmvtbfDNp1h4G5jnatYLGvdCFce0tcC5NHJXYCZ5N8s0kuLQYnCDm8MS2I7r2naaVtF4MOdFecy8S1_HhnoK-SxxY1bIW4RIPJnNEOPu9u4-2QWdD_sL-dDREQ8jUwhzEr3sZGlh6D3CoKV2He2XjKUn6XLoY3ipBrgJSgfZoiU45AEKNIeKhd725-r-CygqTfqpWNnHYFE-SOqPeTuKKKqlqSd44gyTkl0vqiApfiTaA-Bafhu0VFH5pJDnXP9Sp1CtMrgDZ-DYwvuVsRQ6m3j-2SMwuHhWk3Ak7LeUBjSJt4W6aKkRkzsVwYgjE1mcKGRW9PqD7D8MZ3orhgLI-qDceWGdTd6kxuDclkIL_EHigfZQoAQ03i2wWDzKKp0FpCztHT1jlOfBQTmkzugY_ct61AY0x9aESK7mfhATCsD9D3q9KiXA5TgL5MQ9I8D6neJMdqf3pOYEVJlyRCrupUYLApqAzmVlwfrrZmqQMp0sYtpu2xrIK3tdOlr6xMatIuLdaHxC6YonRhI9_25F9ONppwrBDs74z0Eq4zWMLDEmuSTnzwaN3TtXlER28oKXd4zfBy7sGlepMIjS_WprHr7s64St2gUtOqraUX-Y10xWTPpzqqonYYxf4nVwilnY2X2yQyeV37lCSA9u2codUtLKY3e4IwCo2J-ba267g-rfR6JEwcsHeVh21w3VlmvkqPcQT5hAI8uJqjNyExgzaPhAShXaKCJgOICx9qKhsX7_euiKNacuvgoakGXpSl0CQ19hHHd0xGttehZP6vsxqtsG72Kx0_FWLasdnRqasxyUkUXbBXtiburufmaP3qnR357TyBgI164v1zqMFocW42S4k5HHyOlA3YoezpXnmBfMWp2Z-w3uOrQcaLmQns0xtQf17v1m00?></g></svg>