<svg xmlns="http://www.w3.org/2000/svg" xmlns:xlink="http://www.w3.org/1999/xlink" contentStyleType="text/css" data-diagram-type="DESCRIPTION" height="1173px" preserveAspectRatio="none" style="width:2860px;height:1173px;background:#FFFFFF;" version="1.1" viewBox="0 0 2860 1173" width="2860px" zoomAndPan="magnify"><?plantuml 1.2026.6?><defs/><g><g class="title" data-source-line="3"><text fill="#000000" font-family="sans-serif" font-size="14" font-weight="700" lengthAdjust="spacing" textLength="209.2891" x="1322.0331" y="24.5332">DeepCode System Architecture</text></g><!--cluster Frontend Layer--><g class="cluster" data-qualified-name="Frontend Layer" data-source-line="8" id="ent0001"><path d="M396.87,44.6094 L499.7733,44.6094 A3.75,3.75 0 0 1 502.2733,47.1094 L509.2733,68.2188 L553.87,68.2188 A2.5,2.5 0 0 1 556.37,70.7188 L556.37,152.1094 A2.5,2.5 0 0 1 553.87,154.6094 L396.87,154.6094 A2.5,2.5 0 0 1 394.37,152.1094 L394.37,47.1094 A2.5,2.5 0 0 1 396.87,44.6094" fill="none" style="stroke:#000000;stroke-width:1.5;"/><line style="stroke:#000000;stroke-width:1.5;" x1="394.37" x2="509.2733" y1="68.2188" y2="68.2188"/><text fill="#000000" font-family="sans-serif" font-size="14" font-weight="700" lengthAdjust="spacing" textLength="101.9033" x="398.37" y="61.1426">Frontend Layer</text></g><!--cluster Presentation Layer--><g class="cluster" data-qualified-name="Presentation Layer" data-source-line="12" id="ent0003"><path d="M310.87,204.6094 L437.9179,204.6094 A3.75,3.75 0 0 1 440.4179,207.1094 L447.4179,228.2188 L574.87,228.2188 A2.5,2.5 0 0 1 577.37,230.7188 L577.37,312.1094 A2.5,2.5 0 0 1 574.87,314.6094 L310.87,314.6094 A2.5,2.5 0 0 1 308.37,312.1094 L308.37,207.1094 A2.5,2.5 0 0 1 310.87,204.6094" fill="none" style="stroke:#000000;stroke-width:1.5;"/><line style="stroke:#000000;stroke-width:1.5;" x1="308.37" x2="447.4179" y1="228.2188" y2="228.2188"/><text fill="#000000" font-family="sans-serif" font-size="14" font-weight="700" lengthAdjust="spacing" textLength="126.0479" x="312.37" y="221.1426">Presentation Layer</text></g><!--cluster Proxy Layer--><g class="cluster" data-qualified-name="Proxy Layer" data-source-line="17" id="ent0006"><path d="M335.87,364.6094 L417.0282,364.6094 A3.75,3.75 0 0 1 419.5282,367.1094 L426.5282,388.2188 L464.87,388.2188 A2.5,2.5 0 0 1 467.37,390.7188 L467.37,472.1094 A2.5,2.5 0 0 1 464.87,474.6094 L335.87,474.6094 A2.5,2.5 0 0 1 333.37,472.1094 L333.37,367.1094 A2.5,2.5 0 0 1 335.87,364.6094" fill="none" style="stroke:#000000;stroke-width:1.5;"/><line style="stroke:#000000;stroke-width:1.5;" x1="333.37" x2="426.5282" y1="388.2188" y2="388.2188"/><text fill="#000000" font-family="sans-serif" font-size="14" font-weight="700" lengthAdjust="spacing" textLength="80.1582" x="337.37" y="381.1426">Proxy Layer</text></g><!--cluster Business Layer--><g class="cluster" data-qualified-name="Business Layer" data-source-line="21" id="ent0008"><path d="M92.87,524.6094 L197.3661,524.6094 A3.75,3.75 0 0 1 199.8661,527.1094 L206.8661,548.2188 L1706.87,548.2188 A2.5,2.5 0 0 1 1709.37,550.7188 L1709.37,1029.1094 A2.5,2.5 0 0 1 1706.87,1031.6094 L92.87,1031.6094 A2.5,2.5 0 0 1 90.37,1029.1094 L90.37,527.1094 A2.5,2.5 0 0 1 92.87,524.6094" fill="none" style="stroke:#000000;stroke-width:1.5;"/><line style="stroke:#000000;stroke-width:1.5;" x1="90.37" x2="206.8661" y1="548.2188" y2="548.2188"/><text fill="#000000" font-family="sans-serif" font-size="14" font-weight="700" lengthAdjust="spacing" textLength="103.4961" x="94.37" y="541.1426">Business Layer</text></g><!--cluster User Module--><g class="cluster" data-qualified-name="Business Layer.User Module" data-source-line="22" id="ent0009"><path d="M1132.87,728.6094 L1217.8837,728.6094 A3.75,3.75 0 0 1 1220.3837,731.1094 L1227.3837,752.2188 L1454.87,752.2188 A2.5,2.5 0 0 1 1457.37,754.7188 L1457.37,836.1094 A2.5,2.5 0 0 1 1454.87,838.6094 L1132.87,838.6094 A2.5,2.5 0 0 1 1130.37,836.1094 L1130.37,731.1094 A2.5,2.5 0 0 1 1132.87,728.6094" fill="none" style="stroke:#000000;stroke-width:1.5;"/><line style="stroke:#000000;stroke-width:1.5;" x1="1130.37" x2="1227.3837" y1="752.2188" y2="752.2188"/><text fill="#000000" font-family="sans-serif" font-size="14" font-weight="700" lengthAdjust="spacing" textLength="84.0137" x="1134.37" y="745.1426">User Module</text></g><!--cluster Problem Module--><g class="cluster" data-qualified-name="Business Layer.Problem Module" data-source-line="27" id="ent0012"><path d="M520.87,568.6094 L630.7665,568.6094 A3.75,3.75 0 0 1 633.2665,571.1094 L640.2665,592.2188 L827.87,592.2188 A2.5,2.5 0 0 1 830.37,594.7188 L830.37,676.1094 A2.5,2.5 0 0 1 827.87,678.6094 L520.87,678.6094 A2.5,2.5 0 0 1 518.37,676.1094 L518.37,571.1094 A2.5,2.5 0 0 1 520.87,568.6094" fill="none" style="stroke:#000000;stroke-width:1.5;"/><line style="stroke:#000000;stroke-width:1.5;" x1="518.37" x2="640.2665" y1="592.2188" y2="592.2188"/><text fill="#000000" font-family="sans-serif" font-size="14" font-weight="700" lengthAdjust="spacing" textLength="108.8965" x="522.37" y="585.1426">Problem Module</text></g><!--cluster Forum Module--><g class="cluster" data-qualified-name="Business Layer.Forum Module" data-source-line="32" id="ent0015"><path d="M856.87,568.6094 L954.3046,568.6094 A3.75,3.75 0 0 1 956.8046,571.1094 L963.8046,592.2188 L1188.87,592.2188 A2.5,2.5 0 0 1 1191.37,594.7188 L1191.37,676.1094 A2.5,2.5 0 0 1 1188.87,678.6094 L856.87,678.6094 A2.5,2.5 0 0 1 854.37,676.1094 L854.37,571.1094 A2.5,2.5 0 0 1 856.87,568.6094" fill="none" style="stroke:#000000;stroke-width:1.5;"/><line style="stroke:#000000;stroke-width:1.5;" x1="854.37" x2="963.8046" y1="592.2188" y2="592.2188"/><text fill="#000000" font-family="sans-serif" font-size="14" font-weight="700" lengthAdjust="spacing" textLength="96.4346" x="858.37" y="585.1426">Forum Module</text></g><!--cluster Judging Module--><g class="cluster" data-qualified-name="Business Layer.Judging Module" data-source-line="37" id="ent0018"><path d="M116.87,568.6094 L225.1874,568.6094 A3.75,3.75 0 0 1 227.6874,571.1094 L234.6874,592.2188 L279.87,592.2188 A2.5,2.5 0 0 1 282.37,594.7188 L282.37,1005.1094 A2.5,2.5 0 0 1 279.87,1007.6094 L116.87,1007.6094 A2.5,2.5 0 0 1 114.37,1005.1094 L114.37,571.1094 A2.5,2.5 0 0 1 116.87,568.6094" fill="none" style="stroke:#000000;stroke-width:1.5;"/><line style="stroke:#000000;stroke-width:1.5;" x1="114.37" x2="234.6874" y1="592.2188" y2="592.2188"/><text fill="#000000" font-family="sans-serif" font-size="14" font-weight="700" lengthAdjust="spacing" textLength="107.3174" x="118.37" y="585.1426">Judging Module</text></g><!--cluster AI Module--><g class="cluster" data-qualified-name="Business Layer.AI Module" data-source-line="43" id="ent0022"><path d="M308.87,568.6094 L376.7528,568.6094 A3.75,3.75 0 0 1 379.2528,571.1094 L386.2528,592.2188 L491.87,592.2188 A2.5,2.5 0 0 1 494.37,594.7188 L494.37,836.1094 A2.5,2.5 0 0 1 491.87,838.6094 L308.87,838.6094 A2.5,2.5 0 0 1 306.37,836.1094 L306.37,571.1094 A2.5,2.5 0 0 1 308.87,568.6094" fill="none" style="stroke:#000000;stroke-width:1.5;"/><line style="stroke:#000000;stroke-width:1.5;" x1="306.37" x2="386.2528" y1="592.2188" y2="592.2188"/><text fill="#000000" font-family="sans-serif" font-size="14" font-weight="700" lengthAdjust="spacing" textLength="66.8828" x="310.37" y="585.1426">AI Module</text></g><!--cluster Platform Operations--><g class="cluster" data-qualified-name="Business Layer.Platform Operations" data-source-line="48" id="ent0025"><path d="M1217.87,568.6094 L1353.4491,568.6094 A3.75,3.75 0 0 1 1355.9491,571.1094 L1362.9491,592.2188 L1682.87,592.2188 A2.5,2.5 0 0 1 1685.37,594.7188 L1685.37,676.1094 A2.5,2.5 0 0 1 1682.87,678.6094 L1217.87,678.6094 A2.5,2.5 0 0 1 1215.37,676.1094 L1215.37,571.1094 A2.5,2.5 0 0 1 1217.87,568.6094" fill="none" style="stroke:#000000;stroke-width:1.5;"/><line style="stroke:#000000;stroke-width:1.5;" x1="1215.37" x2="1362.9491" y1="592.2188" y2="592.2188"/><text fill="#000000" font-family="sans-serif" font-size="14" font-weight="700" lengthAdjust="spacing" textLength="134.5791" x="1219.37" y="585.1426">Platform Operations</text></g><!--cluster Access Layer--><g class="cluster" data-qualified-name="Access Layer" data-source-line="55" id="ent0029"><path d="M2135.87,897.6094 L2227.1591,897.6094 A3.75,3.75 0 0 1 2229.6591,900.1094 L2236.6591,921.2188 L2572.87,921.2188 A2.5,2.5 0 0 1 2575.37,923.7188 L2575.37,1005.1094 A2.5,2.5 0 0 1 2572.87,1007.6094 L2135.87,1007.6094 A2.5,2.5 0 0 1 2133.37,1005.1094 L2133.37,900.1094 A2.5,2.5 0 0 1 2135.87,897.6094" fill="none" style="stroke:#000000;stroke-width:1.5;"/><line style="stroke:#000000;stroke-width:1.5;" x1="2133.37" x2="2236.6591" y1="921.2188" y2="921.2188"/><text fill="#000000" font-family="sans-serif" font-size="14" font-weight="700" lengthAdjust="spacing" textLength="90.2891" x="2137.37" y="914.1426">Access Layer</text></g><!--cluster External Services--><g class="cluster" data-qualified-name="External Services" data-source-line="61" id="ent0033"><path d="M1800.87,897.6094 L1918.6141,897.6094 A3.75,3.75 0 0 1 1921.1141,900.1094 L1928.1141,921.2188 L2106.87,921.2188 A2.5,2.5 0 0 1 2109.37,923.7188 L2109.37,1005.1094 A2.5,2.5 0 0 1 2106.87,1007.6094 L1800.87,1007.6094 A2.5,2.5 0 0 1 1798.37,1005.1094 L1798.37,900.1094 A2.5,2.5 0 0 1 1800.87,897.6094" fill="none" style="stroke:#000000;stroke-width:1.5;"/><line style="stroke:#000000;stroke-width:1.5;" x1="1798.37" x2="1928.1141" y1="921.2188" y2="921.2188"/><text fill="#000000" font-family="sans-serif" font-size="14" font-weight="700" lengthAdjust="spacing" textLength="116.7441" x="1802.37" y="914.1426">External Services</text></g><!--entity frontend--><g class="entity" data-qualified-name="Frontend Layer.frontend" data-source-line="9" id="ent0002"><rect fill="#F1F1F1" height="37.6094" rx="2.5" ry="2.5" style="stroke:#181818;stroke-width:0.5;" width="128.9648" x="410.87" y="100.6094"/><text fill="#000000" font-family="sans-serif" font-size="14" lengthAdjust="spacing" textLength="108.9648" x="420.87" y="125.1426">Vue 3 Application</text></g><!--entity nginx--><g class="entity" data-qualified-name="Presentation Layer.nginx" data-source-line="13" id="ent0004"><rect fill="#F1F1F1" height="37.6094" rx="2.5" ry="2.5" style="stroke:#181818;stroke-width:0.5;" width="151.4893" x="324.87" y="260.6094"/><text fill="#000000" font-family="sans-serif" font-size="14" lengthAdjust="spacing" textLength="131.4893" x="334.87" y="285.1426">Nginx Reverse Proxy</text></g><!--entity cdn--><g class="entity" data-qualified-name="Presentation Layer.cdn" data-source-line="14" id="ent0005"><rect fill="#F1F1F1" height="37.6094" rx="2.5" ry="2.5" style="stroke:#181818;stroke-width:0.5;" width="50.3311" x="511.37" y="260.6094"/><text fill="#000000" font-family="sans-serif" font-size="14" lengthAdjust="spacing" textLength="30.3311" x="521.37" y="285.1426">CDN</text></g><!--entity gateway--><g class="entity" data-qualified-name="Proxy Layer.gateway" data-source-line="18" id="ent0007"><rect fill="#F1F1F1" height="37.6094" rx="2.5" ry="2.5" style="stroke:#181818;stroke-width:0.5;" width="101.7031" x="349.37" y="420.6094"/><text fill="#000000" font-family="sans-serif" font-size="14" lengthAdjust="spacing" textLength="81.7031" x="359.37" y="445.1426">API Gateway</text></g><!--entity userService--><g class="entity" data-qualified-name="Business Layer.User Module.userService" data-source-line="23" id="ent0010"><rect fill="#F1F1F1" height="37.6094" rx="2.5" ry="2.5" style="stroke:#181818;stroke-width:0.5;" width="100.1309" x="1341.37" y="784.6094"/><text fill="#000000" font-family="sans-serif" font-size="14" lengthAdjust="spacing" textLength="80.1309" x="1351.37" y="809.1426">User Service</text></g><!--entity authService--><g class="entity" data-qualified-name="Business Layer.User Module.authService" data-source-line="24" id="ent0011"><rect fill="#F1F1F1" height="37.6094" rx="2.5" ry="2.5" style="stroke:#181818;stroke-width:0.5;" width="159.3027" x="1146.87" y="784.6094"/><text fill="#000000" font-family="sans-serif" font-size="14" lengthAdjust="spacing" textLength="139.3027" x="1156.87" y="809.1426">Authentication Service</text></g><!--entity problemService--><g class="entity" data-qualified-name="Business Layer.Problem Module.problemService" data-source-line="28" id="ent0013"><rect fill="#F1F1F1" height="37.6094" rx="2.5" ry="2.5" style="stroke:#181818;stroke-width:0.5;" width="122.7031" x="534.87" y="624.6094"/><text fill="#000000" font-family="sans-serif" font-size="14" lengthAdjust="spacing" textLength="102.7031" x="544.87" y="649.1426">Problem Service</text></g><!--entity solutionService--><g class="entity" data-qualified-name="Business Layer.Problem Module.solutionService" data-source-line="29" id="ent0014"><rect fill="#F1F1F1" height="37.6094" rx="2.5" ry="2.5" style="stroke:#181818;stroke-width:0.5;" width="121.165" x="692.87" y="624.6094"/><text fill="#000000" font-family="sans-serif" font-size="14" lengthAdjust="spacing" textLength="101.165" x="702.87" y="649.1426">Solution Service</text></g><!--entity discussionService--><g class="entity" data-qualified-name="Business Layer.Forum Module.discussionService" data-source-line="33" id="ent0016"><rect fill="#F1F1F1" height="37.6094" rx="2.5" ry="2.5" style="stroke:#181818;stroke-width:0.5;" width="138.2617" x="1037.37" y="624.6094"/><text fill="#000000" font-family="sans-serif" font-size="14" lengthAdjust="spacing" textLength="118.2617" x="1047.37" y="649.1426">Discussion Service</text></g><!--entity commentService--><g class="entity" data-qualified-name="Business Layer.Forum Module.commentService" data-source-line="34" id="ent0017"><rect fill="#F1F1F1" height="37.6094" rx="2.5" ry="2.5" style="stroke:#181818;stroke-width:0.5;" width="131.2549" x="870.87" y="624.6094"/><text fill="#000000" font-family="sans-serif" font-size="14" lengthAdjust="spacing" textLength="111.2549" x="880.87" y="649.1426">Comment Service</text></g><!--entity judgeScheduler--><g class="entity" data-qualified-name="Business Layer.Judging Module.judgeScheduler" data-source-line="38" id="ent0019"><rect fill="#F1F1F1" height="37.6094" rx="2.5" ry="2.5" style="stroke:#181818;stroke-width:0.5;" width="135.9717" x="130.37" y="624.6094"/><text fill="#000000" font-family="sans-serif" font-size="14" lengthAdjust="spacing" textLength="115.9717" x="140.37" y="649.1426">Judging Scheduler</text></g><!--entity judgeHost--><g class="entity" data-qualified-name="Business Layer.Judging Module.judgeHost" data-source-line="39" id="ent0020"><rect fill="#F1F1F1" height="37.6094" rx="2.5" ry="2.5" style="stroke:#181818;stroke-width:0.5;" width="86.9307" x="133.87" y="784.6094"/><text fill="#000000" font-family="sans-serif" font-size="14" lengthAdjust="spacing" textLength="66.9307" x="143.87" y="809.1426">JudgeHost</text></g><!--entity judgeCore--><g class="entity" data-qualified-name="Business Layer.Judging Module.judgeCore" data-source-line="40" id="ent0021"><rect fill="#F1F1F1" height="37.6094" rx="2.5" ry="2.5" style="stroke:#181818;stroke-width:0.5;" width="88.4893" x="178.37" y="953.6094"/><text fill="#000000" font-family="sans-serif" font-size="14" lengthAdjust="spacing" textLength="68.4893" x="188.37" y="978.1426">JudgeCore</text></g><!--entity llmInterface--><g class="entity" data-qualified-name="Business Layer.AI Module.llmInterface" data-source-line="44" id="ent0023"><rect fill="#F1F1F1" height="37.6094" rx="2.5" ry="2.5" style="stroke:#181818;stroke-width:0.5;" width="156.1719" x="322.37" y="624.6094"/><text fill="#000000" font-family="sans-serif" font-size="14" lengthAdjust="spacing" textLength="136.1719" x="332.37" y="649.1426">LLM Service Interface</text></g><!--entity langchain--><g class="entity" data-qualified-name="Business Layer.AI Module.langchain" data-source-line="45" id="ent0024"><rect fill="#F1F1F1" height="37.6094" rx="2.5" ry="2.5" style="stroke:#181818;stroke-width:0.5;" width="98.6201" x="371.87" y="784.6094"/><text fill="#000000" font-family="sans-serif" font-size="14" lengthAdjust="spacing" textLength="78.6201" x="381.87" y="809.1426">LangChain4j</text></g><!--entity monitoring--><g class="entity" data-qualified-name="Business Layer.Platform Operations.monitoring" data-source-line="49" id="ent0026"><rect fill="#F1F1F1" height="37.6094" rx="2.5" ry="2.5" style="stroke:#181818;stroke-width:0.5;" width="149.9512" x="1519.37" y="624.6094"/><text fill="#000000" font-family="sans-serif" font-size="14" lengthAdjust="spacing" textLength="129.9512" x="1529.37" y="649.1426">Monitoring &amp; Alerting</text></g><!--entity cicd--><g class="entity" data-qualified-name="Business Layer.Platform Operations.cicd" data-source-line="50" id="ent0027"><rect fill="#F1F1F1" height="37.6094" rx="2.5" ry="2.5" style="stroke:#181818;stroke-width:0.5;" width="111.8135" x="1372.37" y="624.6094"/><text fill="#000000" font-family="sans-serif" font-size="14" lengthAdjust="spacing" textLength="91.8135" x="1382.37" y="649.1426">CI/CD Pipeline</text></g><!--entity securityFilter--><g class="entity" data-qualified-name="Business Layer.Platform Operations.securityFilter" data-source-line="51" id="ent0028"><rect fill="#F1F1F1" height="37.6094" rx="2.5" ry="2.5" style="stroke:#181818;stroke-width:0.5;" width="105.5723" x="1231.37" y="624.6094"/><text fill="#000000" font-family="sans-serif" font-size="14" lengthAdjust="spacing" textLength="85.5723" x="1241.37" y="649.1426">Security Filter</text></g><!--entity mysql--><g class="entity" data-qualified-name="Access Layer.mysql" data-source-line="56" id="ent0030"><rect fill="#F1F1F1" height="37.6094" rx="2.5" ry="2.5" style="stroke:#181818;stroke-width:0.5;" width="130.4961" x="2284.37" y="953.6094"/><text fill="#000000" font-family="sans-serif" font-size="14" lengthAdjust="spacing" textLength="110.4961" x="2294.37" y="978.1426">MySQL Database</text></g><!--entity redis--><g class="entity" data-qualified-name="Access Layer.redis" data-source-line="57" id="ent0031"><rect fill="#F1F1F1" height="37.6094" rx="2.5" ry="2.5" style="stroke:#181818;stroke-width:0.5;" width="100.1514" x="2149.37" y="953.6094"/><text fill="#000000" font-family="sans-serif" font-size="14" lengthAdjust="spacing" textLength="80.1514" x="2159.37" y="978.1426">Redis Cache</text></g><!--entity minio--><g class="entity" data-qualified-name="Access Layer.minio" data-source-line="58" id="ent0032"><rect fill="#F1F1F1" height="37.6094" rx="2.5" ry="2.5" style="stroke:#181818;stroke-width:0.5;" width="110.2617" x="2449.37" y="953.6094"/><text fill="#000000" font-family="sans-serif" font-size="14" lengthAdjust="spacing" textLength="90.2617" x="2459.37" y="978.1426">MinIO Storage</text></g><!--entity smtp--><g class="entity" data-qualified-name="External Services.smtp" data-source-line="62" id="ent0034"><rect fill="#F1F1F1" height="37.6094" rx="2.5" ry="2.5" style="stroke:#181818;stroke-width:0.5;" width="104.0137" x="1989.37" y="953.6094"/><text fill="#000000" font-family="sans-serif" font-size="14" lengthAdjust="spacing" textLength="84.0137" x="1999.37" y="978.1426">SMTP Server</text></g><!--entity aiProvider--><g class="entity" data-qualified-name="External Services.aiProvider" data-source-line="63" id="ent0035"><rect fill="#F1F1F1" height="37.6094" rx="2.5" ry="2.5" style="stroke:#181818;stroke-width:0.5;" width="139.8203" x="1814.37" y="953.6094"/><text fill="#000000" font-family="sans-serif" font-size="14" lengthAdjust="spacing" textLength="119.8203" x="1824.37" y="978.1426">AI Service Provider</text></g><!--entity prometheus--><g class="entity" data-qualified-name="prometheus" data-source-line="96" id="ent0059"><ellipse cx="2770.37" cy="803.6094" fill="#F1F1F1" rx="8" ry="8" style="stroke:#181818;stroke-width:0.5;"/><text fill="#000000" font-family="sans-serif" font-size="14" lengthAdjust="spacing" textLength="73.9307" x="2733.4047" y="835.1426">prometheus</text></g><!--entity grafana--><g class="entity" data-qualified-name="grafana" data-source-line="97" id="ent0061"><ellipse cx="2770.37" cy="972.6094" fill="#F1F1F1" rx="8" ry="8" style="stroke:#181818;stroke-width:0.5;"/><text fill="#000000" font-family="sans-serif" font-size="14" lengthAdjust="spacing" textLength="47.4824" x="2746.6288" y="1004.1426">grafana</text></g><!--entity pagerduty--><g class="entity" data-qualified-name="pagerduty" data-source-line="98" id="ent0063"><ellipse cx="2770.37" cy="1125.6094" fill="#F1F1F1" rx="8" ry="8" style="stroke:#181818;stroke-width:0.5;"/><text fill="#000000" font-family="sans-serif" font-size="14" lengthAdjust="spacing" textLength="62.2686" x="2739.2357" y="1157.1426">pagerduty</text></g><!--entity kubernetes--><g class="entity" data-qualified-name="kubernetes" data-source-line="100" id="ent0065"><ellipse cx="2649.37" cy="803.6094" fill="#F1F1F1" rx="8" ry="8" style="stroke:#181818;stroke-width:0.5;"/><text fill="#000000" font-family="sans-serif" font-size="14" lengthAdjust="spacing" textLength="69.2686" x="2614.7357" y="835.1426">kubernetes</text></g><!--entity dockerRegistry--><g class="entity" data-qualified-name="dockerRegistry" data-source-line="101" id="ent0067"><ellipse cx="2649.37" cy="972.6094" fill="#F1F1F1" rx="8" ry="8" style="stroke:#181818;stroke-width:0.5;"/><text fill="#000000" font-family="sans-serif" font-size="14" lengthAdjust="spacing" textLength="93.3652" x="2602.6874" y="1004.1426">dockerRegistry</text></g><!--entity jwt--><g class="entity" data-qualified-name="jwt" data-source-line="104" id="ent0070"><ellipse cx="1752.37" cy="972.6094" fill="#F1F1F1" rx="8" ry="8" style="stroke:#181818;stroke-width:0.5;"/><text fill="#000000" font-family="sans-serif" font-size="14" lengthAdjust="spacing" textLength="17.1104" x="1743.8148" y="1004.1426">jwt</text></g><!--link frontend to nginx--><g class="link" data-entity-1="ent0002" data-entity-2="ent0004" data-link-type="dependency" data-source-line="67" id="lnk36"><path d="M461.86,139.0294 C455.46,148.2294 448.01,159.7094 442.37,170.6094 C426.67,200.9894 414.8655,233.9008 407.6555,255.7708" fill="none" id="frontend-to-nginx" style="stroke:#181818;stroke-width:1;"/><polygon fill="#181818" points="406.09,260.5194,412.7068,253.2243,407.6555,255.7708,405.109,250.7195,406.09,260.5194" style="stroke:#181818;stroke-width:1;stroke-linejoin:miter;stroke-miterlimit:10;"/><text fill="#000000" font-family="sans-serif" font-size="13" lengthAdjust="spacing" textLength="42.6118" x="443.37" y="185.1045">HTTPS</text></g><!--link nginx to gateway--><g class="link" data-entity-1="ent0004" data-entity-2="ent0007" data-link-type="dependency" data-source-line="68" id="lnk37"><path d="M400.37,298.7294 C400.37,329.0494 400.37,384.7094 400.37,415.2094" fill="none" id="nginx-to-gateway" style="stroke:#181818;stroke-width:1;"/><polygon fill="#181818" points="400.37,420.2094,404.37,411.2094,400.37,415.2094,396.37,411.2094,400.37,420.2094" style="stroke:#181818;stroke-width:1;stroke-linejoin:miter;stroke-miterlimit:10;"/><text fill="#000000" font-family="sans-serif" font-size="13" lengthAdjust="spacing" textLength="69.3672" x="401.37" y="345.1045">Internal Call</text></g><!--link gateway to userService--><g class="link" data-entity-1="ent0007" data-entity-2="ent0010" data-link-type="dependency" data-source-line="69" id="lnk38"><path d="M349.36,444.1394 C262.09,451.3694 89.96,471.1494 53.37,516.6094 C6,575.4694 11.72,623.5694 53.37,686.6094 C69.62,711.1994 85.52,706.6194 114.37,712.6094 C147.25,719.4394 1293.02,706.2294 1323.37,720.6094 C1351.28,733.8394 1369.3262,760.3096 1380.1562,780.1696" fill="none" id="gateway-to-userService" style="stroke:#181818;stroke-width:1;"/><polygon fill="#181818" points="1382.55,784.5594,1381.753,774.7428,1380.1562,780.1696,1374.7294,778.5729,1382.55,784.5594" style="stroke:#181818;stroke-width:1;stroke-linejoin:miter;stroke-miterlimit:10;"/><text fill="#000000" font-family="sans-serif" font-size="13" lengthAdjust="spacing" textLength="59.2363" x="54.37" y="649.1045">REST API</text></g><!--link gateway to problemService--><g class="link" data-entity-1="ent0007" data-entity-2="ent0013" data-link-type="dependency" data-source-line="70" id="lnk39"><path d="M427.76,458.7794 C440.78,467.8294 456.31,479.2494 469.37,490.6094 C517.62,532.5894 559.9452,589.7045 581.0452,620.0445" fill="none" id="gateway-to-problemService" style="stroke:#181818;stroke-width:1;"/><polygon fill="#181818" points="583.9,624.1494,582.0453,614.4767,581.0452,620.0445,575.4775,619.0443,583.9,624.1494" style="stroke:#181818;stroke-width:1;stroke-linejoin:miter;stroke-miterlimit:10;"/><text fill="#000000" font-family="sans-serif" font-size="13" lengthAdjust="spacing" textLength="59.2363" x="485.37" y="505.1045">REST API</text></g><!--link gateway to discussionService--><g class="link" data-entity-1="ent0007" data-entity-2="ent0016" data-link-type="dependency" data-source-line="71" id="lnk40"><path d="M451.54,441.5794 C582.12,444.8694 924.08,458.9294 1019.37,516.6094 C1061.22,541.9394 1085.9471,591.3256 1097.6271,619.7056" fill="none" id="gateway-to-discussionService" style="stroke:#181818;stroke-width:1;"/><polygon fill="#181818" points="1099.53,624.3294,1099.8037,614.4843,1097.6271,619.7056,1092.4057,617.529,1099.53,624.3294" style="stroke:#181818;stroke-width:1;stroke-linejoin:miter;stroke-miterlimit:10;"/><text fill="#000000" font-family="sans-serif" font-size="13" lengthAdjust="spacing" textLength="59.2363" x="1003.37" y="505.1045">REST API</text></g><!--link gateway to judgeScheduler--><g class="link" data-entity-1="ent0007" data-entity-2="ent0019" data-link-type="dependency" data-source-line="72" id="lnk41"><path d="M372.98,458.7794 C359.96,467.8294 344.43,479.2494 331.37,490.6094 C282.17,533.4194 237.2472,590.2573 214.7272,620.3273" fill="none" id="gateway-to-judgeScheduler" style="stroke:#181818;stroke-width:1;"/><polygon fill="#181818" points="211.73,624.3294,220.3267,619.5234,214.7272,620.3273,213.9234,614.7279,211.73,624.3294" style="stroke:#181818;stroke-width:1;stroke-linejoin:miter;stroke-miterlimit:10;"/><text fill="#000000" font-family="sans-serif" font-size="13" lengthAdjust="spacing" textLength="59.2363" x="332.37" y="505.1045">REST API</text></g><!--link gateway to llmInterface--><g class="link" data-entity-1="ent0007" data-entity-2="ent0023" data-link-type="dependency" data-source-line="73" id="lnk42"><path d="M400.37,458.8894 C400.37,497.3494 400.37,581.2194 400.37,619.5094" fill="none" id="gateway-to-llmInterface" style="stroke:#181818;stroke-width:1;"/><polygon fill="#181818" points="400.37,624.5094,404.37,615.5094,400.37,619.5094,396.37,615.5094,400.37,624.5094" style="stroke:#181818;stroke-width:1;stroke-linejoin:miter;stroke-miterlimit:10;"/><text fill="#000000" font-family="sans-serif" font-size="13" lengthAdjust="spacing" textLength="59.2363" x="401.37" y="505.1045">REST API</text></g><!--link userService to mysql--><g class="link" data-entity-1="ent0010" data-entity-2="ent0030" data-link-type="dependency" data-source-line="75" id="lnk43"><path d="M1426.69,822.7394 C1466.12,841.8494 1532.42,870.6794 1593.37,881.6094 C1630.23,888.2194 2232.86,875.0694 2267.37,889.6094 C2298.36,902.6594 2320.9405,929.4848 2334.9005,949.4048" fill="none" id="userService-to-mysql" style="stroke:#181818;stroke-width:1;"/><polygon fill="#181818" points="2337.77,953.4994,2335.8806,943.8335,2334.9005,949.4048,2329.3292,948.4247,2337.77,953.4994" style="stroke:#181818;stroke-width:1;stroke-linejoin:miter;stroke-miterlimit:10;"/><text fill="#000000" font-family="sans-serif" font-size="13" lengthAdjust="spacing" textLength="72.9727" x="1594.37" y="878.1045">Data Access</text></g><!--link problemService to mysql--><g class="link" data-entity-1="ent0013" data-entity-2="ent0030" data-link-type="dependency" data-source-line="76" id="lnk44"><path d="M622.84,662.7994 C637.59,671.8494 656.71,681.8494 675.37,686.6094 C715.37,696.8094 1377.26,690.8494 1418.37,694.6094 C1485.75,700.7694 1512.19,682.8994 1568.37,720.6094 C1623.25,757.4494 1592.72,809.4294 1647.37,846.6094 C1717.64,894.4194 1750.82,873.0194 1835.37,881.6094 C1859.25,884.0394 2245.28,880.2194 2267.37,889.6094 C2298.31,902.7594 2320.9062,929.5578 2334.8762,949.4478" fill="none" id="problemService-to-mysql" style="stroke:#181818;stroke-width:1;"/><polygon fill="#181818" points="2337.75,953.5394,2335.8505,943.8754,2334.8762,949.4478,2329.3039,948.4735,2337.75,953.5394" style="stroke:#181818;stroke-width:1;stroke-linejoin:miter;stroke-miterlimit:10;"/><text fill="#000000" font-family="sans-serif" font-size="13" lengthAdjust="spacing" textLength="72.9727" x="1648.37" y="809.1045">Data Access</text></g><!--link solutionService to mysql--><g class="link" data-entity-1="ent0014" data-entity-2="ent0030" data-link-type="dependency" data-source-line="77" id="lnk45"><path d="M787.84,662.8294 C806.88,671.8894 831.3,681.8894 854.37,686.6094 C943.53,704.8594 1584.61,674.5494 1673.37,694.6094 C1700.14,700.6594 1708.3,703.0294 1729.37,720.6094 C1782.02,764.5294 1764.27,804.4894 1818.37,846.6094 C1852.56,873.2294 1866.86,873.2194 1909.37,881.6094 C1948.41,889.3094 2230.79,873.9694 2267.37,889.6094 C2298.29,902.8194 2320.8829,929.6001 2334.8629,949.4701" fill="none" id="solutionService-to-mysql" style="stroke:#181818;stroke-width:1;"/><polygon fill="#181818" points="2337.74,953.5594,2335.8326,943.897,2334.8629,949.4701,2329.2898,948.5004,2337.74,953.5594" style="stroke:#181818;stroke-width:1;stroke-linejoin:miter;stroke-miterlimit:10;"/><text fill="#000000" font-family="sans-serif" font-size="13" lengthAdjust="spacing" textLength="72.9727" x="1819.37" y="809.1045">Data Access</text></g><!--link discussionService to mysql--><g class="link" data-entity-1="ent0016" data-entity-2="ent0030" data-link-type="dependency" data-source-line="78" id="lnk46"><path d="M1143.22,662.6294 C1163.9,671.7494 1190.47,681.8794 1215.37,686.6094 C1271.43,697.2594 2186.71,682.0894 2242.37,694.6094 C2269.14,700.6294 2281.37,699.0694 2298.37,720.6094 C2354.58,791.8094 2353.8941,903.9286 2351.1741,948.5686" fill="none" id="discussionService-to-mysql" style="stroke:#181818;stroke-width:1;"/><polygon fill="#181818" points="2350.87,953.5594,2355.41,944.8193,2351.1741,948.5686,2347.4248,944.3328,2350.87,953.5594" style="stroke:#181818;stroke-width:1;stroke-linejoin:miter;stroke-miterlimit:10;"/><text fill="#000000" font-family="sans-serif" font-size="13" lengthAdjust="spacing" textLength="72.9727" x="2346.37" y="809.1045">Data Access</text></g><!--link commentService to mysql--><g class="link" data-entity-1="ent0017" data-entity-2="ent0030" data-link-type="dependency" data-source-line="79" id="lnk47"><path d="M964.28,662.6094 C980.06,671.7294 1000.55,681.8494 1020.37,686.6094 C1078.61,700.5894 2039.94,681.4794 2098.37,694.6094 C2125.14,700.6294 2134.75,701.4294 2154.37,720.6094 C2199,764.2394 2177.92,797.4494 2216.37,846.6094 C2234.64,869.9594 2245.54,869.5494 2267.37,889.6094 C2290.5,910.8594 2312.4189,933.0606 2328.7289,949.9706" fill="none" id="commentService-to-mysql" style="stroke:#181818;stroke-width:1;"/><polygon fill="#181818" points="2332.2,953.5694,2328.831,944.3146,2328.7289,949.9706,2323.073,949.8684,2332.2,953.5694" style="stroke:#181818;stroke-width:1;stroke-linejoin:miter;stroke-miterlimit:10;"/><text fill="#000000" font-family="sans-serif" font-size="13" lengthAdjust="spacing" textLength="72.9727" x="2217.37" y="809.1045">Data Access</text></g><!--link userService to redis--><g class="link" data-entity-1="ent0010" data-entity-2="ent0031" data-link-type="dependency" data-source-line="81" id="lnk48"><path d="M1376.32,822.8794 C1363.94,840.1894 1350.75,865.8194 1366.37,881.6094 C1380.89,896.2794 2090.16,882.0494 2109.37,889.6094 C2142.22,902.5294 2167.4188,929.5594 2183.1188,949.5194" fill="none" id="userService-to-redis" style="stroke:#181818;stroke-width:1;"/><polygon fill="#181818" points="2186.21,953.4494,2183.7898,943.9025,2183.1188,949.5194,2177.5019,948.8484,2186.21,953.4494" style="stroke:#181818;stroke-width:1;stroke-linejoin:miter;stroke-miterlimit:10;"/><text fill="#000000" font-family="sans-serif" font-size="13" lengthAdjust="spacing" textLength="37.5781" x="1367.37" y="878.1045">Cache</text></g><!--link authService to redis--><g class="link" data-entity-1="ent0011" data-entity-2="ent0031" data-link-type="dependency" data-source-line="82" id="lnk49"><path d="M1230.55,822.6594 C1235.88,841.1094 1247.09,868.8394 1268.37,881.6094 C1288.4,893.6294 2087.63,881.0694 2109.37,889.6094 C2142.23,902.5094 2167.4298,929.5487 2183.1298,949.5187" fill="none" id="authService-to-redis" style="stroke:#181818;stroke-width:1;"/><polygon fill="#181818" points="2186.22,953.4494,2183.8021,943.9019,2183.1298,949.5187,2177.513,948.8463,2186.22,953.4494" style="stroke:#181818;stroke-width:1;stroke-linejoin:miter;stroke-miterlimit:10;"/><text fill="#000000" font-family="sans-serif" font-size="13" lengthAdjust="spacing" textLength="80.9326" x="1269.37" y="878.1045">Session Store</text></g><!--link problemService to redis--><g class="link" data-entity-1="ent0013" data-entity-2="ent0031" data-link-type="dependency" data-source-line="83" id="lnk50"><path d="M622.84,662.7894 C637.59,671.8394 656.71,681.8394 675.37,686.6094 C711.28,695.7894 1305.57,690.2794 1342.37,694.6094 C1394.41,700.7394 1414.48,690.5094 1457.37,720.6094 C1526.9,769.4094 1486.16,840.2794 1560.37,881.6094 C1587.02,896.4494 2081.01,878.3894 2109.37,889.6094 C2142.2,902.5994 2167.3957,929.6119 2183.1057,949.5519" fill="none" id="problemService-to-redis" style="stroke:#181818;stroke-width:1;"/><polygon fill="#181818" points="2186.2,953.4794,2183.7722,943.9344,2183.1057,949.5519,2177.4882,948.8854,2186.2,953.4794" style="stroke:#181818;stroke-width:1;stroke-linejoin:miter;stroke-miterlimit:10;"/><text fill="#000000" font-family="sans-serif" font-size="13" lengthAdjust="spacing" textLength="37.5781" x="1522.37" y="809.1045">Cache</text></g><!--reverse link minio to problemService--><g class="link" data-entity-1="ent0032" data-entity-2="ent0013" data-link-type="dependency" data-source-line="85" id="lnk51"><path d="M2491.939,948.975 C2480.119,929.155 2460.87,902.9194 2432.37,889.6094 C2415.3,881.6394 2112.07,883.8794 2093.37,881.6094 C2021.97,872.9394 1988.28,895.3394 1935.37,846.6094 C1892.25,806.8994 1942.36,756.9694 1896.37,720.6094 C1829.11,667.4294 1597.06,697.9094 1511.37,694.6094 C1464.96,692.8194 720.38,698.0594 675.37,686.6094 C656.71,681.8594 637.59,671.8594 622.83,662.8094" fill="none" id="minio-backto-problemService" style="stroke:#181818;stroke-width:1;"/><polygon fill="#181818" points="2494.5,953.2694,2493.3257,943.4908,2491.939,948.975,2486.4547,947.5884,2494.5,953.2694" style="stroke:#181818;stroke-width:1;stroke-linejoin:miter;stroke-miterlimit:10;"/><text fill="#000000" font-family="sans-serif" font-size="13" lengthAdjust="spacing" textLength="65.7427" x="1936.37" y="809.1045">Test Cases</text></g><!--reverse link minio to solutionService--><g class="link" data-entity-1="ent0032" data-entity-2="ent0014" data-link-type="dependency" data-source-line="86" id="lnk52"><path d="M2491.3851,949.1662 C2479.3051,929.7862 2460.03,904.1694 2432.37,889.6094 C2289.78,814.5494 2203.87,939.7394 2072.37,846.6094 C2021.44,810.5394 2053.82,765.4094 2010.37,720.6094 C1993.21,702.9094 1985.27,700.6494 1961.37,694.6094 C1901.74,679.5394 914.64,698.8694 854.37,686.6094 C831.11,681.8794 806.48,671.7494 787.37,662.6294" fill="none" id="minio-backto-solutionService" style="stroke:#181818;stroke-width:1;"/><polygon fill="#181818" points="2494.03,953.4094,2492.6638,943.6557,2491.3851,949.1662,2485.8747,947.8875,2494.03,953.4094" style="stroke:#181818;stroke-width:1;stroke-linejoin:miter;stroke-miterlimit:10;"/><text fill="#000000" font-family="sans-serif" font-size="13" lengthAdjust="spacing" textLength="72.2554" x="2073.37" y="809.1045">Attachments</text></g><!--reverse link minio to discussionService--><g class="link" data-entity-1="ent0032" data-entity-2="ent0016" data-link-type="dependency" data-source-line="87" id="lnk53"><path d="M2504.6774,948.4694 C2504.4674,902.0394 2497.06,783.1894 2427.37,720.6094 C2381.91,679.7894 2353.18,700.6394 2292.37,694.6094 C2232.83,688.7094 1274.16,697.7694 1215.37,686.6094 C1190.47,681.8794 1163.9,671.7594 1143.22,662.6294" fill="none" id="minio-backto-discussionService" style="stroke:#181818;stroke-width:1;"/><polygon fill="#181818" points="2504.7,953.4694,2508.6593,944.4514,2504.6774,948.4694,2500.6593,944.4876,2504.7,953.4694" style="stroke:#181818;stroke-width:1;stroke-linejoin:miter;stroke-miterlimit:10;"/><text fill="#000000" font-family="sans-serif" font-size="13" lengthAdjust="spacing" textLength="66.4663" x="2493.37" y="809.1045">Media Files</text></g><!--link judgeScheduler to judgeHost--><g class="link" data-entity-1="ent0019" data-entity-2="ent0020" data-link-type="dependency" data-source-line="89" id="lnk54"><path d="M195.96,662.7294 C191.93,693.0494 184.5282,748.7529 180.4782,779.2529" fill="none" id="judgeScheduler-to-judgeHost" style="stroke:#181818;stroke-width:1;"/><polygon fill="#181818" points="179.82,784.2094,184.9699,775.8142,180.4782,779.2529,177.0395,774.7612,179.82,784.2094" style="stroke:#181818;stroke-width:1;stroke-linejoin:miter;stroke-miterlimit:10;"/><text fill="#000000" font-family="sans-serif" font-size="13" lengthAdjust="spacing" textLength="85.9727" x="192.37" y="709.1045">HTTP Request</text></g><!--link judgeHost to judgeCore--><g class="link" data-entity-1="ent0020" data-entity-2="ent0021" data-link-type="dependency" data-source-line="90" id="lnk55"><path d="M182.27,822.7994 C190.93,854.9194 207.518,916.5019 216.178,948.6119" fill="none" id="judgeHost-to-judgeCore" style="stroke:#181818;stroke-width:1;"/><polygon fill="#181818" points="217.48,953.4394,218.9985,943.7083,216.178,948.6119,211.2744,945.7914,217.48,953.4394" style="stroke:#181818;stroke-width:1;stroke-linejoin:miter;stroke-miterlimit:10;"/><text fill="#000000" font-family="sans-serif" font-size="13" lengthAdjust="spacing" textLength="88.8735" x="197.37" y="878.1045">Task Execution</text></g><!--link judgeCore to minio--><g class="link" data-entity-1="ent0021" data-entity-2="ent0032" data-link-type="dependency" data-source-line="91" id="lnk56"><path d="M266.73,969.5094 C493.35,953.6794 1511.37,882.5894 1515.37,882.6094 C1617.26,882.9994 2339.84,846.9494 2432.37,889.6094 C2460.96,902.7894 2480.0756,929.1434 2491.8556,949.2834" fill="none" id="judgeCore-to-minio" style="stroke:#181818;stroke-width:1;"/><polygon fill="#181818" points="2494.38,953.5994,2493.2888,943.8112,2491.8556,949.2834,2486.3833,947.8502,2494.38,953.5994" style="stroke:#181818;stroke-width:1;stroke-linejoin:miter;stroke-miterlimit:10;"/><text fill="#000000" font-family="sans-serif" font-size="13" lengthAdjust="spacing" textLength="100.4326" x="1414.37" y="878.1045">Read Test Cases</text></g><!--link llmInterface to langchain--><g class="link" data-entity-1="ent0023" data-entity-2="ent0024" data-link-type="dependency" data-source-line="93" id="lnk57"><path d="M402.78,662.7294 C406.81,693.0494 414.2102,748.7531 418.2702,779.2531" fill="none" id="llmInterface-to-langchain" style="stroke:#181818;stroke-width:1;"/><polygon fill="#181818" points="418.93,784.2094,421.7075,774.7603,418.2702,779.2531,413.7774,775.8159,418.93,784.2094" style="stroke:#181818;stroke-width:1;stroke-linejoin:miter;stroke-miterlimit:10;"/><text fill="#000000" font-family="sans-serif" font-size="13" lengthAdjust="spacing" textLength="61.4326" x="409.37" y="709.1045">Integration</text></g><!--link langchain to aiProvider--><g class="link" data-entity-1="ent0024" data-entity-2="ent0035" data-link-type="dependency" data-source-line="94" id="lnk58"><path d="M471.21,806.1794 C585.47,810.3694 874.84,824.2794 1113.37,863.6094 C1146.34,869.0494 1153.23,877.3594 1186.37,881.6094 C1220.04,885.9194 1765.9,876.8794 1797.37,889.6094 C1829.5,902.6094 1853.7278,929.5485 1868.7778,949.4885" fill="none" id="langchain-to-aiProvider" style="stroke:#181818;stroke-width:1;"/><polygon fill="#181818" points="1871.79,953.4794,1869.5608,943.8861,1868.7778,949.4885,1863.1754,948.7056,1871.79,953.4794" style="stroke:#181818;stroke-width:1;stroke-linejoin:miter;stroke-miterlimit:10;"/><text fill="#000000" font-family="sans-serif" font-size="13" lengthAdjust="spacing" textLength="53.46" x="1187.37" y="878.1045">API Calls</text></g><!--link monitoring to prometheus--><g class="link" data-entity-1="ent0026" data-entity-2="ent0059" data-link-type="dependency" data-source-line="96" id="lnk60"><path d="M1669.74,644.8494 C1901.36,646.0394 2592.65,653.0494 2684.37,694.6094 C2729.56,715.0894 2755.9309,768.4634 2765.1209,789.9134" fill="none" id="monitoring-to-prometheus" style="stroke:#181818;stroke-width:1;"/><polygon fill="#181818" points="2767.09,794.5094,2767.2224,784.6614,2765.1209,789.9134,2759.8689,787.8119,2767.09,794.5094" style="stroke:#181818;stroke-width:1;stroke-linejoin:miter;stroke-miterlimit:10;"/><text fill="#000000" font-family="sans-serif" font-size="13" lengthAdjust="spacing" textLength="102.5845" x="2709.37" y="709.1045">Metrics Collection</text></g><!--link prometheus to grafana--><g class="link" data-entity-1="ent0059" data-entity-2="ent0061" data-link-type="dependency" data-source-line="97" id="lnk62"><path d="M2770.37,812.6594 C2770.37,840.8094 2770.37,929.6194 2770.37,958.2394" fill="none" id="prometheus-to-grafana" style="stroke:#181818;stroke-width:1;"/><polygon fill="#181818" points="2770.37,963.2394,2774.37,954.2394,2770.37,958.2394,2766.37,954.2394,2770.37,963.2394" style="stroke:#181818;stroke-width:1;stroke-linejoin:miter;stroke-miterlimit:10;"/><text fill="#000000" font-family="sans-serif" font-size="13" lengthAdjust="spacing" textLength="72.9854" x="2771.37" y="878.1045">Visualization</text></g><!--link grafana to pagerduty--><g class="link" data-entity-1="ent0061" data-entity-2="ent0063" data-link-type="dependency" data-source-line="98" id="lnk64"><path d="M2770.37,981.7294 C2770.37,1007.9494 2770.37,1085.1794 2770.37,1111.4494" fill="none" id="grafana-to-pagerduty" style="stroke:#181818;stroke-width:1;"/><polygon fill="#181818" points="2770.37,1116.4494,2774.37,1107.4494,2770.37,1111.4494,2766.37,1107.4494,2770.37,1116.4494" style="stroke:#181818;stroke-width:1;stroke-linejoin:miter;stroke-miterlimit:10;"/><text fill="#000000" font-family="sans-serif" font-size="13" lengthAdjust="spacing" textLength="33.23" x="2771.37" y="1062.1045">Alerts</text></g><!--link cicd to kubernetes--><g class="link" data-entity-1="ent0027" data-entity-2="ent0065" data-link-type="dependency" data-source-line="100" id="lnk66"><path d="M1452.99,662.8094 C1466.76,671.8594 1484.68,681.8694 1502.37,686.6094 C1557.54,701.3994 2474.95,680.8294 2530.37,694.6094 C2586.96,708.6794 2627.8364,767.5092 2641.8964,790.1992" fill="none" id="cicd-to-kubernetes" style="stroke:#181818;stroke-width:1;"/><polygon fill="#181818" points="2644.53,794.4494,2643.1896,784.6922,2641.8964,790.1992,2636.3893,788.906,2644.53,794.4494" style="stroke:#181818;stroke-width:1;stroke-linejoin:miter;stroke-miterlimit:10;"/><text fill="#000000" font-family="sans-serif" font-size="13" lengthAdjust="spacing" textLength="69.3672" x="2569.37" y="709.1045">Deployment</text></g><!--link kubernetes to dockerRegistry--><g class="link" data-entity-1="ent0065" data-entity-2="ent0067" data-link-type="dependency" data-source-line="101" id="lnk68"><path d="M2649.37,812.6594 C2649.37,840.8094 2649.37,929.6194 2649.37,958.2394" fill="none" id="kubernetes-to-dockerRegistry" style="stroke:#181818;stroke-width:1;"/><polygon fill="#181818" points="2649.37,963.2394,2653.37,954.2394,2649.37,958.2394,2645.37,954.2394,2649.37,963.2394" style="stroke:#181818;stroke-width:1;stroke-linejoin:miter;stroke-miterlimit:10;"/><text fill="#000000" font-family="sans-serif" font-size="13" lengthAdjust="spacing" textLength="61.4199" x="2650.37" y="878.1045">Image Pull</text></g><!--link securityFilter to authService--><g class="link" data-entity-1="ent0028" data-entity-2="ent0011" data-link-type="dependency" data-source-line="103" id="lnk69"><path d="M1277.72,662.7294 C1266.59,693.0494 1246.0422,749.0153 1234.8522,779.5153" fill="none" id="securityFilter-to-authService" style="stroke:#181818;stroke-width:1;"/><polygon fill="#181818" points="1233.13,784.2094,1239.9852,777.1378,1234.8522,779.5153,1232.4747,774.3823,1233.13,784.2094" style="stroke:#181818;stroke-width:1;stroke-linejoin:miter;stroke-miterlimit:10;"/><text fill="#000000" font-family="sans-serif" font-size="13" lengthAdjust="spacing" textLength="67.2026" x="1266.37" y="709.1045">Auth Check</text></g><!--link authService to jwt--><g class="link" data-entity-1="ent0011" data-entity-2="ent0070" data-link-type="dependency" data-source-line="104" id="lnk71"><path d="M1146.68,808.4094 C1068.92,814.9694 968.19,832.8594 1011.37,881.6094 C1062.61,939.4494 1656.5348,967.4097 1738.1848,970.9997" fill="none" id="authService-to-jwt" style="stroke:#181818;stroke-width:1;"/><polygon fill="#181818" points="1743.18,971.2194,1734.3644,966.8279,1738.1848,970.9997,1734.013,974.8202,1743.18,971.2194" style="stroke:#181818;stroke-width:1;stroke-linejoin:miter;stroke-miterlimit:10;"/><text fill="#000000" font-family="sans-serif" font-size="13" lengthAdjust="spacing" textLength="96.8398" x="1012.37" y="878.1045">Token Validation</text></g><!--link cdn to frontend--><g class="link" data-entity-1="ent0005" data-entity-2="ent0002" data-link-type="dependency" data-source-line="106" id="lnk72"><path d="M529.27,260.2094 C517.49,229.7094 495.87,173.7141 484.17,143.3941" fill="none" id="cdn-to-frontend" style="stroke:#181818;stroke-width:1;"/><polygon fill="#181818" points="482.37,138.7294,481.8783,148.566,484.17,143.3941,489.3419,145.6859,482.37,138.7294" style="stroke:#181818;stroke-width:1;stroke-linejoin:miter;stroke-miterlimit:10;"/><text fill="#000000" font-family="sans-serif" font-size="13" lengthAdjust="spacing" textLength="75.1372" x="501.37" y="185.1045">Static Assets</text></g><?plantuml-src VLPDSzis4BtZLsnpQ4wU7ffJfjCPbf8JPIH75LLVF3t0u4g21G8C03fME_tlNG0aHL9IT19s7_S3k--HFvMuanfXCy-tsSEdvHo4uiunvgLN23F4EZSbGd5o7Yl8h3X8Zy8t5XbpHwbhRda5mbIrqQXzuK_qc2K4rtj5cFUmv2UqZjLS7FaUuTszDTgZBfFZ7VpBW7vFZmt2hv3LjPA2Usdqty0Tx5em-u-T8wmjEieLKPCe3tkfts23hvGIOMtDsod6qS6U8Fdi8Pf4gITH2Jm9bwqNy8bx_CvJc7twFthkZyRH3JetVhHt_-NGmigKZSBE5qD7Uu7sLGgCiHiojESpAclyWLfjhsI4v-GQugccKMBgvrdHpAxaxbp3S7MoNLHG6DLSv7QjyKVvxurjhcQVIISQvwOnozvyKKDkgefkOGGNoVQZ2huq9OrzVws6pbM80mQdZJ5Vo8gzQOp6pyRvCogS9e3SM3m3mkbgLTdYMa7BvQfh3nQqydR7sqQLgdh304_yoWzSwWyl2KLd4SxNTq5nlpEsWgyrshXARfHzPRJqneOR-HaowjtJtnYtwZs3SIn-oMUmbZKgslmq3IdAmSwWQApq9xYNohTtwrfRChLL3dcK2N71egVLgVXp2JFk-JDtALLrSjzKycwGbWPoJXEBBXlExODIBxv2GQLJyFISrDACCixVg1BDLNVn_Pqy5QljEbgxuYjVjugmwCT4B7gLPOlWiZk65EyXDrgJ2eQRPfs8mTtTxqc9u2DytcxN1KkdO6-bXJnnsg6id2l5Edl032I2S9jviGLIg15aJEDRg0kktGAE6N4BDLpH8OOD2mx0E3j2X8526ZYRL7mBDf6ScxZBrcuXnmfo4tRHHDmo0iMzOmCP7daBR2NE1o6uqkGu38lh2R_TtLsES8lE4yoX6w2cz_4HCkyfL6XfYBiswXMbve6S595DHjnFFIXSkwVqGltMK17ixEXXGUT2ZTmTOVv690z5iRChNckiXXO3UJdiXeqM9svI9sCj3_P9hTZP7b1dieMswHqTc4BXpcBLSQ52UdysBlRihHIa5aQfH4msy4S6MhxZcXFsKRg6A_bFojtPOqWI3bisFl0qwYHb3TeNdSVccOYB7aE-6TRAdC8qsC0UoMV44Uq6zz9v6mbV1JbQDyHsDfR9rErWmoWhdI0_e3XUhDxBzp2mhJcYXaUglqprC_hIYVvUXsWxmzUJWCmvf1R-1m00?></g></svg>