<svg xmlns="http://www.w3.org/2000/svg" xmlns:xlink="http://www.w3.org/1999/xlink" contentStyleType="text/css" data-diagram-type="DESCRIPTION" height="990px" preserveAspectRatio="none" style="width:2045px;height:990px;background:#FFFFFF;" version="1.1" viewBox="0 0 2045 990" width="2045px" zoomAndPan="magnify"><?plantuml 1.2026.6?><defs/><g><g class="title" data-source-line="6"><text fill="#000000" font-family="sans-serif" font-size="14" font-weight="700" lengthAdjust="spacing" textLength="213.2129" x="912.8567" y="24.5332">EasyLaTex System Architecture</text></g><!--cluster BrowserClient--><g class="cluster" data-qualified-name="BrowserClient" data-source-line="11" id="ent0001"><rect fill="none" height="106" rx="2.5" ry="2.5" style="stroke:#181818;stroke-width:1;" width="175" x="372" y="45.6094"/><text fill="#000000" font-family="sans-serif" font-size="14" font-weight="700" lengthAdjust="spacing" textLength="98.7998" x="410.1001" y="62.1426">Browser Client</text></g><!--cluster Frontend--><g class="cluster" data-qualified-name="Frontend" data-source-line="16" id="ent0003"><rect fill="none" height="106" rx="2.5" ry="2.5" style="stroke:#181818;stroke-width:1;" width="189" x="372" y="217.6094"/><text fill="#000000" font-family="sans-serif" font-size="14" font-weight="700" lengthAdjust="spacing" textLength="101.9033" x="415.5483" y="234.1426">Frontend Layer</text></g><!--cluster Backend--><g class="cluster" data-qualified-name="Backend" data-source-line="21" id="ent0005"><rect fill="none" height="349" rx="2.5" ry="2.5" style="stroke:#181818;stroke-width:1;" width="1461" x="372" y="389.6094"/><text fill="#000000" font-family="sans-serif" font-size="14" font-weight="700" lengthAdjust="spacing" textLength="99.6064" x="1052.6968" y="406.1426">Backend Layer</text></g><!--cluster DataLayer--><g class="cluster" data-qualified-name="DataLayer" data-source-line="35" id="ent0016"><rect fill="none" height="230.86" rx="2.5" ry="2.5" style="stroke:#181818;stroke-width:1;" width="325" x="7" y="628.1094"/><text fill="#000000" font-family="sans-serif" font-size="14" font-weight="700" lengthAdjust="spacing" textLength="71.5928" x="133.7036" y="644.6426">Data Layer</text></g><!--cluster External--><g class="cluster" data-qualified-name="External" data-source-line="41" id="ent0019"><rect fill="none" height="175.36" rx="2.5" ry="2.5" style="stroke:#181818;stroke-width:1;" width="310" x="1508" y="787.6094"/><text fill="#000000" font-family="sans-serif" font-size="14" font-weight="700" lengthAdjust="spacing" textLength="116.7305" x="1604.6348" y="804.1426">External Systems</text></g><!--entity UI--><g class="entity" data-qualified-name="BrowserClient.UI" data-source-line="12" id="ent0002"><rect fill="#F1F1F1" height="37.6094" rx="2.5" ry="2.5" style="stroke:#181818;stroke-width:0.5;" width="107.9238" x="415" y="89.6094"/><text fill="#000000" font-family="sans-serif" font-size="14" lengthAdjust="spacing" textLength="87.9238" x="425" y="114.1426">User Interface</text></g><!--entity WebApp--><g class="entity" data-qualified-name="Frontend.WebApp" data-source-line="17" id="ent0004"><rect fill="#F1F1F1" height="37.6094" rx="2.5" ry="2.5" style="stroke:#181818;stroke-width:0.5;" width="121.165" x="415.5" y="261.6094"/><text fill="#000000" font-family="sans-serif" font-size="14" lengthAdjust="spacing" textLength="101.165" x="425.5" y="286.1426">Web Application</text></g><!--entity APIGateway--><g class="entity" data-qualified-name="Backend.APIGateway" data-source-line="22" id="ent0006"><rect fill="#F1F1F1" height="37.6094" rx="2.5" ry="2.5" style="stroke:#181818;stroke-width:0.5;" width="101.7031" x="1139" y="433.6094"/><text fill="#000000" font-family="sans-serif" font-size="14" lengthAdjust="spacing" textLength="81.7031" x="1149" y="458.1426">API Gateway</text></g><!--entity AuthService--><g class="entity" data-qualified-name="Backend.AuthService" data-source-line="23" id="ent0007"><rect fill="#F1F1F1" height="37.6094" rx="2.5" ry="2.5" style="stroke:#181818;stroke-width:0.5;" width="159.3027" x="588.5" y="535.1094"/><text fill="#000000" font-family="sans-serif" font-size="14" lengthAdjust="spacing" textLength="139.3027" x="598.5" y="559.6426">Authentication Service</text></g><!--entity UserManager--><g class="entity" data-qualified-name="Backend.UserManager" data-source-line="24" id="ent0008"><rect fill="#F1F1F1" height="37.6094" rx="2.5" ry="2.5" style="stroke:#181818;stroke-width:0.5;" width="135.165" x="1122.5" y="535.1094"/><text fill="#000000" font-family="sans-serif" font-size="14" lengthAdjust="spacing" textLength="115.165" x="1132.5" y="559.6426">User Management</text></g><!--entity ProjectManager--><g class="entity" data-qualified-name="Backend.ProjectManager" data-source-line="25" id="ent0009"><rect fill="#F1F1F1" height="37.6094" rx="2.5" ry="2.5" style="stroke:#181818;stroke-width:0.5;" width="149.1787" x="404.5" y="535.1094"/><text fill="#000000" font-family="sans-serif" font-size="14" lengthAdjust="spacing" textLength="129.1787" x="414.5" y="559.6426">Project Management</text></g><!--entity FileProcessor--><g class="entity" data-qualified-name="Backend.FileProcessor" data-source-line="26" id="ent0010"><rect fill="#F1F1F1" height="37.6094" rx="2.5" ry="2.5" style="stroke:#181818;stroke-width:0.5;" width="166.2754" x="1439" y="535.1094"/><text fill="#000000" font-family="sans-serif" font-size="14" lengthAdjust="spacing" textLength="146.2754" x="1449" y="559.6426">File Processing Service</text></g><!--entity AIEngine--><g class="entity" data-qualified-name="Backend.AIEngine" data-source-line="27" id="ent0011"><rect fill="#F1F1F1" height="37.6094" rx="2.5" ry="2.5" style="stroke:#181818;stroke-width:0.5;" width="158.5371" x="1649.5" y="676.6094"/><text fill="#000000" font-family="sans-serif" font-size="14" lengthAdjust="spacing" textLength="138.5371" x="1659.5" y="701.1426">AI Recognition Engine</text></g><!--entity Renderer--><g class="entity" data-qualified-name="Backend.Renderer" data-source-line="28" id="ent0012"><rect fill="#F1F1F1" height="37.6094" rx="2.5" ry="2.5" style="stroke:#181818;stroke-width:0.5;" width="132.082" x="1640" y="535.1094"/><text fill="#000000" font-family="sans-serif" font-size="14" lengthAdjust="spacing" textLength="112.082" x="1650" y="559.6426">Rendering Engine</text></g><!--entity Collaboration--><g class="entity" data-qualified-name="Backend.Collaboration" data-source-line="29" id="ent0013"><rect fill="#F1F1F1" height="37.6094" rx="2.5" ry="2.5" style="stroke:#181818;stroke-width:0.5;" width="153.0684" x="782.5" y="535.1094"/><text fill="#000000" font-family="sans-serif" font-size="14" lengthAdjust="spacing" textLength="133.0684" x="792.5" y="559.6426">Collaboration Service</text></g><!--entity VersionControl--><g class="entity" data-qualified-name="Backend.VersionControl" data-source-line="30" id="ent0014"><rect fill="#F1F1F1" height="37.6094" rx="2.5" ry="2.5" style="stroke:#181818;stroke-width:0.5;" width="116.4893" x="971" y="535.1094"/><text fill="#000000" font-family="sans-serif" font-size="14" lengthAdjust="spacing" textLength="96.4893" x="981" y="559.6426">Version Control</text></g><!--entity ExportService--><g class="entity" data-qualified-name="Backend.ExportService" data-source-line="31" id="ent0015"><rect fill="#F1F1F1" height="37.6094" rx="2.5" ry="2.5" style="stroke:#181818;stroke-width:0.5;" width="111.0342" x="1292.5" y="535.1094"/><text fill="#000000" font-family="sans-serif" font-size="14" lengthAdjust="spacing" textLength="91.0342" x="1302.5" y="559.6426">Export Service</text></g><!--entity DB--><g class="entity" data-qualified-name="DataLayer.DB" data-source-line="36" id="ent0017"><path d="M31,682.1094 C31,672.1094 104.041,672.1094 104.041,672.1094 C104.041,672.1094 177.082,672.1094 177.082,682.1094 L177.082,708.7188 C177.082,718.7188 104.041,718.7188 104.041,718.7188 C104.041,718.7188 31,718.7188 31,708.7188 L31,682.1094" fill="#F1F1F1" style="stroke:#181818;stroke-width:0.5;"/><path d="M31,682.1094 C31,692.1094 104.041,692.1094 104.041,692.1094 C104.041,692.1094 177.082,692.1094 177.082,682.1094" fill="none" style="stroke:#181818;stroke-width:0.5;"/><text fill="#000000" font-family="sans-serif" font-size="14" lengthAdjust="spacing" textLength="126.082" x="41" y="710.6426">Relational Database</text></g><!--entity FileStorage--><g class="entity" data-qualified-name="DataLayer.FileStorage" data-source-line="37" id="ent0018"><rect fill="#F1F1F1" height="37.6094" rx="2.5" ry="2.5" style="stroke:#181818;stroke-width:0.5;" width="95.4824" x="212.5" y="676.6094"/><text fill="#000000" font-family="sans-serif" font-size="14" lengthAdjust="spacing" textLength="75.4824" x="222.5" y="701.1426">File Storage</text></g><!--entity LaTeXEngine--><g class="entity" data-qualified-name="External.LaTeXEngine" data-source-line="42" id="ent0020"><rect fill="#F1F1F1" height="37.6094" rx="2.5" ry="2.5" style="stroke:#181818;stroke-width:0.5;" width="108.7305" x="1532.5" y="831.6094"/><text fill="#000000" font-family="sans-serif" font-size="14" lengthAdjust="spacing" textLength="88.7305" x="1542.5" y="856.1426">LaTeX Engine</text></g><!--entity AIModels--><g class="entity" data-qualified-name="External.AIModels" data-source-line="43" id="ent0021"><rect fill="#F1F1F1" height="37.6094" rx="2.5" ry="2.5" style="stroke:#181818;stroke-width:0.5;" width="117.248" x="1676.5" y="831.6094"/><text fill="#000000" font-family="sans-serif" font-size="14" lengthAdjust="spacing" textLength="97.248" x="1686.5" y="856.1426">OCR/AI Models</text></g><g class="entity" data-qualified-name="GMN47" data-source-line="77" id="ent0048"><path d="M1857.5,431.1094 L1857.5,473.8125 L2030.9263,473.8125 L2030.9263,441.1094 L2020.9263,431.1094 L1857.5,431.1094" fill="#FEFFDD" style="stroke:#181818;stroke-width:0.5;"/><path d="M2020.9263,431.1094 L2020.9263,441.1094 L2030.9263,441.1094 L2020.9263,431.1094" fill="#FEFFDD" style="stroke:#181818;stroke-width:1;"/><text fill="#000000" font-family="sans-serif" font-size="13" lengthAdjust="spacing" textLength="152.4263" x="1863.5" y="449.6045">Microservices Architecture</text><text fill="#000000" font-family="sans-serif" font-size="13" lengthAdjust="spacing" textLength="136.5825" x="1863.5" y="465.9561">Separation of Concerns</text></g><g class="entity" data-qualified-name="GMN50" data-source-line="82" id="ent0051"><path d="M117,933.1094 L117,975.8125 L244.9453,975.8125 L244.9453,943.1094 L234.9453,933.1094 L117,933.1094" fill="#FEFFDD" style="stroke:#181818;stroke-width:0.5;"/><path d="M234.9453,933.1094 L234.9453,943.1094 L244.9453,943.1094 L234.9453,933.1094" fill="#FEFFDD" style="stroke:#181818;stroke-width:1;"/><text fill="#000000" font-family="sans-serif" font-size="13" lengthAdjust="spacing" textLength="106.9453" x="123" y="951.6045">Persistent Storage</text><text fill="#000000" font-family="sans-serif" font-size="13" lengthAdjust="spacing" textLength="89.6035" x="123" y="967.9561">Encrypted Data</text></g><g class="entity" data-qualified-name="GMN53" data-source-line="87" id="ent0054"><path d="M1842.5,829.1094 L1842.5,871.8125 L2013.0762,871.8125 L2013.0762,839.1094 L2003.0762,829.1094 L1842.5,829.1094" fill="#FEFFDD" style="stroke:#181818;stroke-width:0.5;"/><path d="M2003.0762,829.1094 L2003.0762,839.1094 L2013.0762,839.1094 L2003.0762,829.1094" fill="#FEFFDD" style="stroke:#181818;stroke-width:1;"/><text fill="#000000" font-family="sans-serif" font-size="13" lengthAdjust="spacing" textLength="149.5762" x="1848.5" y="847.6045">Third-party Dependencies</text><text fill="#000000" font-family="sans-serif" font-size="13" lengthAdjust="spacing" textLength="134.3989" x="1848.5" y="863.9561">AI &amp; LaTeX Processing</text></g><!--link BrowserClient to Frontend--><g class="link" data-entity-1="ent0001" data-entity-2="ent0003" data-link-type="dependency" data-source-line="47" id="lnk22"><path d="M380,152.0303 C380,152.5959 380,153.1648 380,153.737 C380,154.8814 380,156.0387 380,157.2079 C380,159.5462 380,161.9316 380,164.3548 C380,174.0475 380,184.3438 380,194.6394 C380,199.7872 380,204.9348 380,210.0068 C380,212.5428 380,210.0599 380,212.5486" fill="none" id="BrowserClient-to-Frontend" style="stroke:#181818;stroke-width:1;"/><polygon fill="#181818" points="380,217.5486,384,208.5486,380,212.5486,376,208.5486,380,217.5486" style="stroke:#181818;stroke-width:1;stroke-linejoin:miter;stroke-miterlimit:10;"/><text fill="#000000" font-family="sans-serif" font-size="13" lengthAdjust="spacing" textLength="104.0254" x="381" y="190.1045">HTTP/WebSocket</text></g><!--link Frontend to Backend--><g class="link" data-entity-1="ent0003" data-entity-2="ent0005" data-link-type="dependency" data-source-line="48" id="lnk23"><path d="M380,324.0303 C380,324.5959 380,325.1648 380,325.737 C380,326.8814 380,328.0387 380,329.2079 C380,331.5462 380,333.9316 380,336.3548 C380,346.0475 380,356.3438 380,366.6394 C380,371.7872 380,376.9348 380,382.0068 C380,384.5428 380,382.0599 380,384.5486" fill="none" id="Frontend-to-Backend" style="stroke:#181818;stroke-width:1;"/><polygon fill="#181818" points="380,389.5486,384,380.5486,380,384.5486,376,380.5486,380,389.5486" style="stroke:#181818;stroke-width:1;stroke-linejoin:miter;stroke-miterlimit:10;"/><text fill="#000000" font-family="sans-serif" font-size="13" lengthAdjust="spacing" textLength="59.2363" x="381" y="362.1045">REST API</text></g><!--link APIGateway to AuthService--><g class="link" data-entity-1="ent0006" data-entity-2="ent0007" data-link-type="dependency" data-source-line="49" id="lnk24"><path d="M1143.39,471.6794 C1140.57,472.5594 1137.76,473.3794 1135,474.1094 C973.94,516.9694 929.16,506.3494 765,535.1094 C759.35,536.0994 758.4304,536.2508 752.5604,537.3108" fill="none" id="APIGateway-to-AuthService" style="stroke:#181818;stroke-width:1;"/><polygon fill="#181818" points="747.64,538.1994,757.2076,540.5364,752.5604,537.3108,755.7859,532.6637,747.64,538.1994" style="stroke:#181818;stroke-width:1;stroke-linejoin:miter;stroke-miterlimit:10;"/></g><!--link APIGateway to UserManager--><g class="link" data-entity-1="ent0006" data-entity-2="ent0008" data-link-type="dependency" data-source-line="50" id="lnk25"><path d="M1190,471.8594 C1190,489.8094 1190,512.0594 1190,529.9794" fill="none" id="APIGateway-to-UserManager" style="stroke:#181818;stroke-width:1;"/><polygon fill="#181818" points="1190,534.9794,1194,525.9794,1190,529.9794,1186,525.9794,1190,534.9794" style="stroke:#181818;stroke-width:1;stroke-linejoin:miter;stroke-miterlimit:10;"/></g><!--link APIGateway to ProjectManager--><g class="link" data-entity-1="ent0006" data-entity-2="ent0009" data-link-type="dependency" data-source-line="51" id="lnk26"><path d="M1144.04,471.6894 C1141.01,472.5894 1137.98,473.4094 1135,474.1094 C889.64,532.1394 820.28,497.3094 571,535.1094 C565.37,535.9594 564.4854,536.0591 558.6454,537.0791" fill="none" id="APIGateway-to-ProjectManager" style="stroke:#181818;stroke-width:1;"/><polygon fill="#181818" points="553.72,537.9394,563.274,540.3312,558.6454,537.0791,561.8976,532.4505,553.72,537.9394" style="stroke:#181818;stroke-width:1;stroke-linejoin:miter;stroke-miterlimit:10;"/></g><!--link APIGateway to FileProcessor--><g class="link" data-entity-1="ent0006" data-entity-2="ent0010" data-link-type="dependency" data-source-line="52" id="lnk27"><path d="M1241.15,468.9394 C1300.63,486.7594 1393.9007,514.7133 1457.0007,533.6333" fill="none" id="APIGateway-to-FileProcessor" style="stroke:#181818;stroke-width:1;"/><polygon fill="#181818" points="1461.79,535.0694,1454.318,528.653,1457.0007,533.6333,1452.0204,536.316,1461.79,535.0694" style="stroke:#181818;stroke-width:1;stroke-linejoin:miter;stroke-miterlimit:10;"/></g><!--link APIGateway to AIEngine--><g class="link" data-entity-1="ent0006" data-entity-2="ent0011" data-link-type="dependency" data-source-line="53" id="lnk28"><path d="M1241.08,456.7594 C1379.52,465.7994 1754,493.8894 1790,535.1094 C1826.96,577.4294 1779.1332,640.7896 1750.0532,672.7796" fill="none" id="APIGateway-to-AIEngine" style="stroke:#181818;stroke-width:1;"/><polygon fill="#181818" points="1746.69,676.4794,1755.7037,672.5103,1750.0532,672.7796,1749.784,667.1291,1746.69,676.4794" style="stroke:#181818;stroke-width:1;stroke-linejoin:miter;stroke-miterlimit:10;"/></g><!--link APIGateway to Renderer--><g class="link" data-entity-1="ent0006" data-entity-2="ent0012" data-link-type="dependency" data-source-line="54" id="lnk29"><path d="M1241.08,462.7494 C1322.16,477.3694 1485.24,507.2094 1623,535.1094 C1628.49,536.2194 1629.2869,536.3711 1634.9969,537.5711" fill="none" id="APIGateway-to-Renderer" style="stroke:#181818;stroke-width:1;"/><polygon fill="#181818" points="1639.89,538.5994,1631.9051,532.8339,1634.9969,537.5711,1630.2597,540.6629,1639.89,538.5994" style="stroke:#181818;stroke-width:1;stroke-linejoin:miter;stroke-miterlimit:10;"/></g><!--link APIGateway to Collaboration--><g class="link" data-entity-1="ent0006" data-entity-2="ent0013" data-link-type="dependency" data-source-line="55" id="lnk30"><path d="M1142.38,471.6194 C1139.89,472.4794 1137.42,473.3094 1135,474.1094 C1064.93,497.1594 988.4574,518.657 932.3374,533.797" fill="none" id="APIGateway-to-Collaboration" style="stroke:#181818;stroke-width:1;"/><polygon fill="#181818" points="927.51,535.0994,937.2412,536.6171,932.3374,533.797,935.1575,528.8932,927.51,535.0994" style="stroke:#181818;stroke-width:1;stroke-linejoin:miter;stroke-miterlimit:10;"/></g><!--link APIGateway to VersionControl--><g class="link" data-entity-1="ent0006" data-entity-2="ent0014" data-link-type="dependency" data-source-line="56" id="lnk31"><path d="M1160.84,471.6294 C1131.76,489.6094 1091.5733,514.4408 1062.4633,532.4308" fill="none" id="APIGateway-to-VersionControl" style="stroke:#181818;stroke-width:1;"/><polygon fill="#181818" points="1058.21,535.0594,1067.9688,533.7306,1062.4633,532.4308,1063.7631,526.9253,1058.21,535.0594" style="stroke:#181818;stroke-width:1;stroke-linejoin:miter;stroke-miterlimit:10;"/></g><!--link APIGateway to ExportService--><g class="link" data-entity-1="ent0006" data-entity-2="ent0015" data-link-type="dependency" data-source-line="57" id="lnk32"><path d="M1218.61,471.6294 C1247.16,489.6094 1286.5394,514.4045 1315.0994,532.3945" fill="none" id="APIGateway-to-ExportService" style="stroke:#181818;stroke-width:1;"/><polygon fill="#181818" points="1319.33,535.0594,1313.8468,526.8781,1315.0994,532.3945,1309.5829,533.6471,1319.33,535.0594" style="stroke:#181818;stroke-width:1;stroke-linejoin:miter;stroke-miterlimit:10;"/></g><!--link AuthService to DB--><g class="link" data-entity-1="ent0007" data-entity-2="ent0017" data-link-type="dependency" data-source-line="59" id="lnk33"><path d="M588.42,570.4094 C582.53,571.3794 576.68,572.2894 571,573.1094 C550.21,576.1094 214.18,603.5494 195,612.1094 C165.21,625.4094 141.7696,648.4794 125.1196,667.9494" fill="none" id="AuthService-to-DB" style="stroke:#181818;stroke-width:1;"/><polygon fill="#181818" points="121.87,671.7494,130.7593,667.5091,125.1196,667.9494,124.6793,662.3097,121.87,671.7494" style="stroke:#181818;stroke-width:1;stroke-linejoin:miter;stroke-miterlimit:10;"/></g><!--link UserManager to DB--><g class="link" data-entity-1="ent0008" data-entity-2="ent0017" data-link-type="dependency" data-source-line="60" id="lnk34"><path d="M1122.43,570.4694 C1116.56,571.4894 1110.69,572.3894 1105,573.1094 C1098.72,573.8994 200.85,609.7094 195,612.1094 C164.42,624.6694 140.7056,648.4138 124.2356,668.2338" fill="none" id="UserManager-to-DB" style="stroke:#181818;stroke-width:1;"/><polygon fill="#181818" points="121.04,672.0794,129.8685,667.7138,124.2356,668.2338,123.7156,662.6009,121.04,672.0794" style="stroke:#181818;stroke-width:1;stroke-linejoin:miter;stroke-miterlimit:10;"/></g><!--link ProjectManager to DB--><g class="link" data-entity-1="ent0009" data-entity-2="ent0017" data-link-type="dependency" data-source-line="61" id="lnk35"><path d="M404.28,559.1994 C344.85,564.9594 261,578.8094 195,612.1094 C166.06,626.7094 142.7329,649.3233 125.8429,668.3133" fill="none" id="ProjectManager-to-DB" style="stroke:#181818;stroke-width:1;"/><polygon fill="#181818" points="122.52,672.0494,131.4901,667.9828,125.8429,668.3133,125.5124,662.6661,122.52,672.0494" style="stroke:#181818;stroke-width:1;stroke-linejoin:miter;stroke-miterlimit:10;"/></g><!--link FileProcessor to FileStorage--><g class="link" data-entity-1="ent0010" data-entity-2="ent0018" data-link-type="dependency" data-source-line="62" id="lnk36"><path d="M1438.91,570.8594 C1432.86,571.7194 1426.84,572.4794 1421,573.1094 C1363.9,579.2494 442.78,594.8594 388,612.1094 C345.89,625.3694 308.0819,653.2274 284.2219,673.2274" fill="none" id="FileProcessor-to-FileStorage" style="stroke:#181818;stroke-width:1;"/><polygon fill="#181818" points="280.39,676.4394,289.8569,673.7233,284.2219,673.2274,284.7178,667.5923,280.39,676.4394" style="stroke:#181818;stroke-width:1;stroke-linejoin:miter;stroke-miterlimit:10;"/></g><!--link FileProcessor to AIEngine--><g class="link" data-entity-1="ent0010" data-entity-2="ent0011" data-link-type="dependency" data-source-line="63" id="lnk37"><path d="M1549.06,573.3494 C1588.84,600.1594 1658.5138,647.1049 1698.1138,673.7949" fill="none" id="FileProcessor-to-AIEngine" style="stroke:#181818;stroke-width:1;"/><polygon fill="#181818" points="1702.26,676.5894,1697.0325,668.2424,1698.1138,673.7949,1692.5613,674.8762,1702.26,676.5894" style="stroke:#181818;stroke-width:1;stroke-linejoin:miter;stroke-miterlimit:10;"/></g><!--link AIEngine to AIModels--><g class="link" data-entity-1="ent0011" data-entity-2="ent0021" data-link-type="dependency" data-source-line="64" id="lnk38"><path d="M1729.71,714.7594 C1730.87,744.2094 1732.9331,797.0533 1734.0931,826.4833" fill="none" id="AIEngine-to-AIModels" style="stroke:#181818;stroke-width:1;"/><polygon fill="#181818" points="1734.29,831.4794,1737.9324,822.3288,1734.0931,826.4833,1729.9386,822.6439,1734.29,831.4794" style="stroke:#181818;stroke-width:1;stroke-linejoin:miter;stroke-miterlimit:10;"/></g><!--link Renderer to LaTeXEngine--><g class="link" data-entity-1="ent0012" data-entity-2="ent0020" data-link-type="dependency" data-source-line="65" id="lnk39"><path d="M1672.65,573.2194 C1657.96,582.8794 1641.85,596.0794 1632,612.1094 C1587.85,683.9794 1585.1781,784.4106 1586.1181,826.3906" fill="none" id="Renderer-to-LaTeXEngine" style="stroke:#181818;stroke-width:1;"/><polygon fill="#181818" points="1586.23,831.3894,1590.0275,822.3021,1586.1181,826.3906,1582.0295,822.4812,1586.23,831.3894" style="stroke:#181818;stroke-width:1;stroke-linejoin:miter;stroke-miterlimit:10;"/></g><!--link Collaboration to DB--><g class="link" data-entity-1="ent0013" data-entity-2="ent0017" data-link-type="dependency" data-source-line="66" id="lnk40"><path d="M782.43,570.5594 C776.55,571.5094 770.69,572.3694 765,573.1094 C749.26,575.1494 209.6,605.8994 195,612.1094 C164.78,624.9694 141.2091,648.3835 124.6591,668.0535" fill="none" id="Collaboration-to-DB" style="stroke:#181818;stroke-width:1;"/><polygon fill="#181818" points="121.44,671.8794,130.295,667.568,124.6591,668.0535,124.1736,662.4175,121.44,671.8794" style="stroke:#181818;stroke-width:1;stroke-linejoin:miter;stroke-miterlimit:10;"/></g><!--link VersionControl to DB--><g class="link" data-entity-1="ent0014" data-entity-2="ent0017" data-link-type="dependency" data-source-line="67" id="lnk41"><path d="M970.7,570.0394 C964.75,571.2294 958.77,572.2794 953,573.1094 C942.56,574.5994 204.73,608.0594 195,612.1094 C164.68,624.7094 141.108,648.1742 124.588,667.9242" fill="none" id="VersionControl-to-DB" style="stroke:#181818;stroke-width:1;"/><polygon fill="#181818" points="121.38,671.7594,130.2225,667.4224,124.588,667.9242,124.0862,662.2896,121.38,671.7594" style="stroke:#181818;stroke-width:1;stroke-linejoin:miter;stroke-miterlimit:10;"/></g><!--link ExportService to FileStorage--><g class="link" data-entity-1="ent0015" data-entity-2="ent0018" data-link-type="dependency" data-source-line="68" id="lnk42"><path d="M1292.42,570.0194 C1286.57,571.2194 1280.68,572.2894 1275,573.1094 C1079.71,601.1994 576,552.2494 388,612.1094 C345.93,625.4994 308.1164,653.3228 284.2364,673.2828" fill="none" id="ExportService-to-FileStorage" style="stroke:#181818;stroke-width:1;"/><polygon fill="#181818" points="280.4,676.4894,289.8707,673.7866,284.2364,673.2828,284.7402,667.6484,280.4,676.4894" style="stroke:#181818;stroke-width:1;stroke-linejoin:miter;stroke-miterlimit:10;"/></g><!--link DB to DataLayer--><g class="link" data-entity-1="ent0017" data-entity-2="ent0016" data-link-type="dependency" data-source-line="70" id="lnk43"><path d="M115.36,719.1894 C136.45,761.0794 177.3639,842.4173 178.7139,845.0873" fill="none" id="DB-to-DataLayer" style="stroke:#181818;stroke-width:1;"/><polygon fill="#181818" points="180.97,849.5494,180.4787,839.7128,178.7139,845.0873,173.3394,843.3225,180.97,849.5494" style="stroke:#181818;stroke-width:1;stroke-linejoin:miter;stroke-miterlimit:10;"/></g><!--link FileStorage to DataLayer--><g class="link" data-entity-1="ent0018" data-entity-2="ent0016" data-link-type="dependency" data-source-line="71" id="lnk44"><path d="M250.63,714.7594 C230.03,754.6594 184.818,842.2387 183.338,845.0987" fill="none" id="FileStorage-to-DataLayer" style="stroke:#181818;stroke-width:1;"/><polygon fill="#181818" points="181.04,849.5394,188.7288,843.3846,183.338,845.0987,181.6238,839.7078,181.04,849.5394" style="stroke:#181818;stroke-width:1;stroke-linejoin:miter;stroke-miterlimit:10;"/></g><!--link LaTeXEngine to External--><g class="link" data-entity-1="ent0020" data-entity-2="ent0019" data-link-type="dependency" data-source-line="73" id="lnk45"><path d="M1613.12,869.6094 C1654.94,898.4394 1728.4123,949.0731 1730.8223,950.7331" fill="none" id="LaTeXEngine-to-External" style="stroke:#181818;stroke-width:1;"/><polygon fill="#181818" points="1734.94,953.5694,1729.7971,945.1699,1730.8223,950.7331,1725.2591,951.7583,1734.94,953.5694" style="stroke:#181818;stroke-width:1;stroke-linejoin:miter;stroke-miterlimit:10;"/></g><!--link AIModels to External--><g class="link" data-entity-1="ent0021" data-entity-2="ent0019" data-link-type="dependency" data-source-line="74" id="lnk46"><path d="M1735,869.8494 C1735,898.2694 1735,945.2294 1735,948.4494" fill="none" id="AIModels-to-External" style="stroke:#181818;stroke-width:1;"/><polygon fill="#181818" points="1735,953.4494,1739,944.4494,1735,948.4494,1731,944.4494,1735,953.4494" style="stroke:#181818;stroke-width:1;stroke-linejoin:miter;stroke-miterlimit:10;"/></g><!--link Backend to GMN47--><g class="link" data-entity-1="ent0005" data-entity-2="ent0048" data-link-type="association" data-source-line="77" id="lnk49"><path d="M380.5249,389.576 C380.5658,389.4165 380.6072,389.2573 380.6489,389.0982 C380.7325,388.7801 380.8178,388.4629 380.9049,388.1465 C381.2536,386.8811 381.6313,385.6301 382.04,384.3972 C382.8575,381.9314 383.799,379.5381 384.8797,377.2475 C389.2025,368.085 395.7525,360.5644 405.5,356.6094 C441.59,341.9694 1770.37,344.8594 1807.5,356.6094 C1853.35,371.1194 1897.13,407.1794 1922.25,430.7394" fill="none" id="Backend-GMN47" style="stroke:#181818;stroke-width:1;stroke-dasharray:7,7;"/></g><!--link DataLayer to GMN50--><g class="link" data-entity-1="ent0016" data-entity-2="ent0051" data-link-type="association" data-source-line="82" id="lnk52"><path d="M181,859.0362 C181,859.1127 181,859.1896 181,859.2671 C181,859.8871 181,860.539 181,861.2209 C181,866.6763 181,874.0481 181,882.2619 C181,898.6894 181,918.4844 181,933.0494" fill="none" id="DataLayer-GMN50" style="stroke:#181818;stroke-width:1;stroke-dasharray:7,7;"/></g><!--link GMN53 to External--><g class="link" data-entity-1="ent0054" data-entity-2="ent0019" data-link-type="association" data-source-line="87" id="lnk55"><path d="M1888.94,872.2494 C1875.0625,879.5844 1858.6925,888.2363 1841.8972,897.1127 C1837.6984,899.3318 1833.4729,901.5649 1829.2533,903.795 C1827.1434,904.91 1825.035,906.0243 1822.932,907.1357 C1821.8806,907.6914 1820.8305,908.2464 1819.7822,908.8004 C1819.2581,909.0774 1818.7345,909.3541 1818.2113,909.6306" fill="none" id="GMN53-External" style="stroke:#181818;stroke-width:1;stroke-dasharray:7,7;"/></g><?plantuml-src RLNBRjim4BppAnWVsbEGUmu5P5b93SIEOIbjWQ07McPaDZ8fa4mJeUY_T_cIIBevXJFBvSxkh7Lrf2-CKxologROtZzKMD9M4zxr55rvRbKqnRAeAtmacXo8cfdoSRDxt5RR1hVYF0XEkPwuzRQfzdT5MM76DPKlfAK8QQPxYYkYnWVIq0zSZqhJCovaUs8Q7dwJ4AHU6H-89ESvQwr7k3UNXZxZfHJlYafSzimyEmjOfCm24nM27OB_80n_pqycQ1sA-sdYdjRehqb-9mNW_8WVo4Xbd3nbRF89ydc_qmCkXg5dBT5CS9iOC81SyYLfN_-REo5StHxncOlT6jyJJT_9QBF2sHyz_wPF8D0_Z6igVpElp53-7AdV44uwUeOxJZvW3f8kQ2V5BsXw7kVX9FIEmOI0QAbIZ7V9uuRpbF3XnHhlQIiwpcof5U_0DAxIjJkuk3t8fz8aZ48S65ukHT-JWv2NeXF61N-ZKfcm4cOcHM_3FEOX5rTz34Bg99k3GXFjA5Um4PTpd54xH7Eq9p_6QPyMUzhRqaXlWynkkHlBgAUr1W7Tt4X_TWLK7s1VSzzjaehBoBc54-51RocpXp_YtbeWdi1ZkR-1QMt4aVRAJyWTN0dGDWvc01aAfNjsVVrbNevR_BLfTZUm2BK0KsiqCIOi6FqMVedgnXWRpUQs4R61CogsRKPbJitOr9VvWy676JwPByDJisLaPh6CJPs58gcM1Zj44WEKIWje8caI6JnpoSug_JyUzHCEOYqQMoDTElzugZAWYRgBaj1gwGB3bg28pHWKLU0RvzoCGi4fYhZGyDbWtKbZyH9CPcszOQqKojMaqW-GeMjgla1M6rm4GIraLCXOrEJqcGz2Qt4s4NEDvlREz05s3dOWo3HmnLiv3feURNYUJ8l1P9gADpUQ4vF7QoX5ZtX51pCCtZAgB0bB-SdD9FhTdRF-0m00?></g></svg>