<svg xmlns="http://www.w3.org/2000/svg" xmlns:xlink="http://www.w3.org/1999/xlink" contentStyleType="text/css" data-diagram-type="DESCRIPTION" height="837px" preserveAspectRatio="none" style="width:1332px;height:837px;background:#FFFFFF;" version="1.1" viewBox="0 0 1332 837" width="1332px" zoomAndPan="magnify"><?plantuml 1.2026.6?><defs/><g><g class="title" data-source-line="3"><text fill="#000000" font-family="sans-serif" font-size="14" font-weight="700" lengthAdjust="spacing" textLength="182.0684" x="571.7202" y="24.5332">EIVAS System Architecture</text></g><!--cluster EIVAS Web Application--><g class="cluster" data-qualified-name="EIVAS Web Application" data-source-line="7" id="ent0001"><path d="M8.5,181.3629 L165.0654,181.3629 A3.75,3.75 0 0 1 167.5654,183.8629 L174.5654,204.9723 L488.5,204.9723 A2.5,2.5 0 0 1 491,207.4723 L491,656.8629 A2.5,2.5 0 0 1 488.5,659.3629 L8.5,659.3629 A2.5,2.5 0 0 1 6,656.8629 L6,183.8629 A2.5,2.5 0 0 1 8.5,181.3629" fill="none" style="stroke:#000000;stroke-width:1.5;"/><line style="stroke:#000000;stroke-width:1.5;" x1="6" x2="174.5654" y1="204.9723" y2="204.9723"/><text fill="#000000" font-family="sans-serif" font-size="14" font-weight="700" lengthAdjust="spacing" textLength="155.5654" x="10" y="197.8961">EIVAS Web Application</text></g><!--entity frontend--><g class="entity" data-qualified-name="EIVAS Web Application.frontend" data-source-line="8" id="ent0002"><rect fill="#F1F1F1" height="37.6094" rx="2.5" ry="2.5" style="stroke:#181818;stroke-width:0.5;" width="119.6201" x="355" y="217.3629"/><text fill="#000000" font-family="sans-serif" font-size="14" lengthAdjust="spacing" textLength="99.6201" x="365" y="241.8961">Frontend Pages</text></g><!--entity backend--><g class="entity" data-qualified-name="EIVAS Web Application.backend" data-source-line="9" id="ent0003"><rect fill="#F1F1F1" height="37.6094" rx="2.5" ry="2.5" style="stroke:#181818;stroke-width:0.5;" width="132.0547" x="113" y="411.3629"/><text fill="#000000" font-family="sans-serif" font-size="14" lengthAdjust="spacing" textLength="112.0547" x="123" y="435.8961">Backend Services</text></g><!--entity database--><g class="entity" data-qualified-name="EIVAS Web Application.database" data-source-line="10" id="ent0004"><rect fill="#F1F1F1" height="37.6094" rx="2.5" ry="2.5" style="stroke:#181818;stroke-width:0.5;" width="79.9307" x="372" y="605.3629"/><text fill="#000000" font-family="sans-serif" font-size="14" lengthAdjust="spacing" textLength="59.9307" x="382" y="629.8961">Database</text></g><!--entity algorithm--><g class="entity" data-qualified-name="EIVAS Web Application.algorithm" data-source-line="11" id="ent0005"><rect fill="#F1F1F1" height="37.6094" rx="2.5" ry="2.5" style="stroke:#181818;stroke-width:0.5;" width="128.9375" x="140.5" y="605.3629"/><text fill="#000000" font-family="sans-serif" font-size="14" lengthAdjust="spacing" textLength="108.9375" x="150.5" y="629.8961">Algorithm Module</text></g><!--entity mapservice--><g class="entity" data-qualified-name="EIVAS Web Application.mapservice" data-source-line="12" id="ent0006"><rect fill="#F1F1F1" height="37.6094" rx="2.5" ry="2.5" style="stroke:#181818;stroke-width:0.5;" width="97.8066" x="375" y="411.3629"/><text fill="#000000" font-family="sans-serif" font-size="14" lengthAdjust="spacing" textLength="77.8066" x="385" y="435.8961">Map Service</text></g><g class="entity" data-qualified-name="GMN12" data-source-line="22" id="ent0013"><path d="M510.5,174.3629 L510.5,232.3629 L475.24,236.3629 L510.5,240.3629 L510.5,298.8239 A0,0 0 0 0 510.5,298.8239 L717.918,298.8239 A0,0 0 0 0 717.918,298.8239 L717.918,184.3629 L707.918,174.3629 L510.5,174.3629 A0,0 0 0 0 510.5,174.3629" fill="#FEFFDD" style="stroke:#181818;stroke-width:0.5;"/><path d="M707.918,174.3629 L707.918,184.3629 L717.918,184.3629 L707.918,174.3629" fill="#FEFFDD" style="stroke:#181818;stroke-width:0.5;"/><text fill="#000000" font-family="sans-serif" font-size="13" lengthAdjust="spacing" textLength="91.7554" x="516.5" y="192.858">User Interfaces:</text><text fill="#000000" font-family="sans-serif" font-size="13" lengthAdjust="spacing" textLength="183.5234" x="516.5" y="209.2096">- Epidemiological reporting form</text><text fill="#000000" font-family="sans-serif" font-size="13" lengthAdjust="spacing" textLength="137.2808" x="516.5" y="225.5612">- Case management list</text><text fill="#000000" font-family="sans-serif" font-size="13" lengthAdjust="spacing" textLength="130.7808" x="516.5" y="241.9127">- Map display interface</text><text fill="#000000" font-family="sans-serif" font-size="13" lengthAdjust="spacing" textLength="186.418" x="516.5" y="258.2643">- Association information display</text><text fill="#000000" font-family="sans-serif" font-size="13" lengthAdjust="spacing" textLength="158.2471" x="516.5" y="274.6159">- Graph relationship display</text><text fill="#000000" font-family="sans-serif" font-size="13" lengthAdjust="spacing" textLength="102.5845" x="516.5" y="290.9674">- Statistical charts</text></g><g class="entity" data-qualified-name="GMN15" data-source-line="32" id="ent0016"><path d="M508.5,376.3629 L508.5,484.4723 L683.4116,484.4723 L683.4116,386.3629 L673.4116,376.3629 L508.5,376.3629" fill="#FEFFDD" style="stroke:#181818;stroke-width:0.5;"/><path d="M673.4116,376.3629 L673.4116,386.3629 L683.4116,386.3629 L673.4116,376.3629" fill="#FEFFDD" style="stroke:#181818;stroke-width:1;"/><text fill="#000000" font-family="sans-serif" font-size="13" lengthAdjust="spacing" textLength="91.7617" x="514.5" y="394.858">Core Functions:</text><text fill="#000000" font-family="sans-serif" font-size="13" lengthAdjust="spacing" textLength="153.9116" x="514.5" y="411.2096">- Epidemiological reporting</text><text fill="#000000" font-family="sans-serif" font-size="13" lengthAdjust="spacing" textLength="117.7808" x="514.5" y="427.5612">- Case management</text><text fill="#000000" font-family="sans-serif" font-size="13" lengthAdjust="spacing" textLength="144.5171" x="514.5" y="443.9127">- Individual case analysis</text><text fill="#000000" font-family="sans-serif" font-size="13" lengthAdjust="spacing" textLength="99.6963" x="514.5" y="460.2643">- Overall analysis</text><text fill="#000000" font-family="sans-serif" font-size="13" lengthAdjust="spacing" textLength="116.3208" x="514.5" y="476.6159">- Outbreak overview</text></g><g class="entity" data-qualified-name="GMN18" data-source-line="41" id="ent0019"><path d="M704,562.3629 L704,686.8239 L891.9053,686.8239 L891.9053,572.3629 L881.9053,562.3629 L704,562.3629" fill="#FEFFDD" style="stroke:#181818;stroke-width:0.5;"/><path d="M881.9053,562.3629 L881.9053,572.3629 L891.9053,572.3629 L881.9053,562.3629" fill="#FEFFDD" style="stroke:#181818;stroke-width:1;"/><text fill="#000000" font-family="sans-serif" font-size="13" lengthAdjust="spacing" textLength="78.7554" x="710" y="580.858">Data Objects:</text><text fill="#000000" font-family="sans-serif" font-size="13" lengthAdjust="spacing" textLength="138.7217" x="710" y="597.2096">- Basic case information</text><text fill="#000000" font-family="sans-serif" font-size="13" lengthAdjust="spacing" textLength="166.9053" x="710" y="613.5612">- Disease-related information</text><text fill="#000000" font-family="sans-serif" font-size="13" lengthAdjust="spacing" textLength="111.9727" x="710" y="629.9127">- Itinerary trajectory</text><text fill="#000000" font-family="sans-serif" font-size="13" lengthAdjust="spacing" textLength="158.9517" x="710" y="646.2643">- Imported-case information</text><text fill="#000000" font-family="sans-serif" font-size="13" lengthAdjust="spacing" textLength="145.2344" x="710" y="662.6159">- Associated case entries</text><text fill="#000000" font-family="sans-serif" font-size="13" lengthAdjust="spacing" textLength="125.0044" x="710" y="678.9674">- Analytical chart data</text></g><g class="entity" data-qualified-name="GMN21" data-source-line="51" id="ent0022"><path d="M507,578.3629 L507,670.1207 L668.8989,670.1207 L668.8989,588.3629 L658.8989,578.3629 L507,578.3629" fill="#FEFFDD" style="stroke:#181818;stroke-width:0.5;"/><path d="M658.8989,578.3629 L658.8989,588.3629 L668.8989,588.3629 L658.8989,578.3629" fill="#FEFFDD" style="stroke:#181818;stroke-width:1;"/><text fill="#000000" font-family="sans-serif" font-size="13" lengthAdjust="spacing" textLength="70.8145" x="513" y="596.858">Capabilities:</text><text fill="#000000" font-family="sans-serif" font-size="13" lengthAdjust="spacing" textLength="121.3862" x="513" y="613.2096">- Regional flow maps</text><text fill="#000000" font-family="sans-serif" font-size="13" lengthAdjust="spacing" textLength="140.8989" x="513" y="629.5612">- Case clustering graphs</text><text fill="#000000" font-family="sans-serif" font-size="13" lengthAdjust="spacing" textLength="104.7554" x="513" y="645.9127">- Risk calculations</text><text fill="#000000" font-family="sans-serif" font-size="13" lengthAdjust="spacing" textLength="130.0444" x="513" y="662.2643">- Clustering algorithms</text></g><g class="entity" data-qualified-name="GMN24" data-source-line="59" id="ent0025"><path d="M718.5,384.3629 L718.5,476.1207 L869.5508,476.1207 L869.5508,394.3629 L859.5508,384.3629 L718.5,384.3629" fill="#FEFFDD" style="stroke:#181818;stroke-width:0.5;"/><path d="M859.5508,384.3629 L859.5508,394.3629 L869.5508,394.3629 L859.5508,384.3629" fill="#FEFFDD" style="stroke:#181818;stroke-width:1;"/><text fill="#000000" font-family="sans-serif" font-size="13" lengthAdjust="spacing" textLength="76.5972" x="724.5" y="402.858">Visualization:</text><text fill="#000000" font-family="sans-serif" font-size="13" lengthAdjust="spacing" textLength="101.1689" x="724.5" y="419.2096">- Location display</text><text fill="#000000" font-family="sans-serif" font-size="13" lengthAdjust="spacing" textLength="90.3145" x="724.5" y="435.5612">- Itinerary paths</text><text fill="#000000" font-family="sans-serif" font-size="13" lengthAdjust="spacing" textLength="120.6753" x="724.5" y="451.9127">- Geographic context</text><text fill="#000000" font-family="sans-serif" font-size="13" lengthAdjust="spacing" textLength="130.0508" x="724.5" y="468.2643">- Address confirmation</text></g><!--entity filler--><g class="entity" data-qualified-name="filler" data-source-line="66" id="ent0027"><rect fill="#F1F1F1" height="55.2188" rx="2.5" ry="2.5" style="stroke:#181818;stroke-width:0.5;" width="118.0547" x="1108" y="402.8629"/><text fill="#000000" font-family="sans-serif" font-size="14" lengthAdjust="spacing" textLength="98.0547" x="1118" y="427.3961">Epidemiological</text><text fill="#000000" font-family="sans-serif" font-size="14" lengthAdjust="spacing" textLength="66.8828" x="1118" y="445.0055">Form Filler</text></g><!--entity analyst--><g class="entity" data-qualified-name="analyst" data-source-line="67" id="ent0028"><rect fill="#F1F1F1" height="55.2188" rx="2.5" ry="2.5" style="stroke:#181818;stroke-width:0.5;" width="118.0547" x="905" y="402.8629"/><text fill="#000000" font-family="sans-serif" font-size="14" lengthAdjust="spacing" textLength="98.0547" x="915" y="427.3961">Epidemiological</text><text fill="#000000" font-family="sans-serif" font-size="14" lengthAdjust="spacing" textLength="45.9102" x="915" y="445.0055">Analyst</text></g><g class="entity" data-qualified-name="GMN33" data-source-line="73" id="ent0034"><path d="M1066,206.8629 L1066,265.9176 A0,0 0 0 0 1066,265.9176 L1184.26,265.9176 L1170.49,402.5929 L1192.26,265.9176 L1317.5088,265.9176 A0,0 0 0 0 1317.5088,265.9176 L1317.5088,216.8629 L1307.5088,206.8629 L1066,206.8629 A0,0 0 0 0 1066,206.8629" fill="#FEFFDD" style="stroke:#181818;stroke-width:0.5;"/><path d="M1307.5088,206.8629 L1307.5088,216.8629 L1317.5088,216.8629 L1307.5088,206.8629" fill="#FEFFDD" style="stroke:#181818;stroke-width:0.5;"/><text fill="#000000" font-family="sans-serif" font-size="13" lengthAdjust="spacing" textLength="93.9326" x="1072" y="225.358">Responsibilities:</text><text fill="#000000" font-family="sans-serif" font-size="13" lengthAdjust="spacing" textLength="182.8188" x="1072" y="241.7096">- Accurate/convenient info entry</text><text fill="#000000" font-family="sans-serif" font-size="13" lengthAdjust="spacing" textLength="230.5088" x="1072" y="258.0612">- Questionnaire/interview data collection</text></g><g class="entity" data-qualified-name="GMN36" data-source-line="79" id="ent0037"><path d="M845.5,198.8629 L845.5,274.2692 A0,0 0 0 0 845.5,274.2692 L938.95,274.2692 L960.4,402.8129 L946.95,274.2692 L1030.5171,274.2692 A0,0 0 0 0 1030.5171,274.2692 L1030.5171,208.8629 L1020.5171,198.8629 L845.5,198.8629 A0,0 0 0 0 845.5,198.8629" fill="#FEFFDD" style="stroke:#181818;stroke-width:0.5;"/><path d="M1020.5171,198.8629 L1020.5171,208.8629 L1030.5171,208.8629 L1020.5171,198.8629" fill="#FEFFDD" style="stroke:#181818;stroke-width:0.5;"/><text fill="#000000" font-family="sans-serif" font-size="13" lengthAdjust="spacing" textLength="93.9326" x="851.5" y="217.358">Responsibilities:</text><text fill="#000000" font-family="sans-serif" font-size="13" lengthAdjust="spacing" textLength="158.939" x="851.5" y="233.7096">- Outbreak statistics access</text><text fill="#000000" font-family="sans-serif" font-size="13" lengthAdjust="spacing" textLength="164.0171" x="851.5" y="250.0612">- Case associations analysis</text><text fill="#000000" font-family="sans-serif" font-size="13" lengthAdjust="spacing" textLength="156.8062" x="851.5" y="266.4127">- Infection source inference</text></g><!--entity browser--><g class="entity" data-qualified-name="browser" data-source-line="85" id="ent0039"><path d="M367.5962,58.2702 C370.4118,53.0038 374.9092,51.2651 379.3403,56.4561 C381.6889,50.7115 387.519,48.7803 391.9441,54.0883 C394.9033,48.436 399.9066,48.8786 402.7714,54.1817 C405.661,46.2825 411.1592,44.6094 417.0435,51.2402 C421.7315,45.3427 426.1494,46.0598 429.018,52.9447 C432.7243,47.0685 438.8663,46.7256 441.6701,53.8248 C446.0718,48.8648 451.0138,50.748 453.1037,56.3317 C457.5233,52.0864 461.9454,52.936 464.5409,58.4659 C473.7278,57.9567 477.1808,64.5063 473.172,72.2561 C478.2631,82.1887 475.7573,87.6534 464.2331,88.3675 C461.8324,94.1711 456.8825,95.5445 452.7143,90.1926 C449.0628,95.3465 444.845,97.3768 440.5064,90.9147 C437.2455,95.902 431.2471,97.4353 428.0487,90.8476 C423.8542,95.7729 419.418,97.1205 415.6493,90.3943 C411.3167,95.5625 406.7953,95.3764 402.7886,89.9968 C398.923,96.0115 395.2863,96.3516 390.9937,90.4184 C386.2419,96.4125 381.8541,95.9096 378.7856,88.8448 C375.957,95.4986 370.7609,95.8103 366.8604,89.8588 C355.4013,88.3441 351.7628,82.384 358.3756,72.1906 C354.121,63.2562 358.181,58.1501 367.5962,58.2702" fill="#F1F1F1" style="stroke:#181818;stroke-width:0.5;"/><text fill="#000000" font-family="sans-serif" font-size="14" lengthAdjust="spacing" textLength="84.0205" x="373" y="77.8961">Web Browser</text></g><g class="entity" data-qualified-name="GMN42" data-source-line="89" id="ent0043"><path d="M341.5,747.3629 L341.5,822.7692 A0,0 0 0 0 341.5,822.7692 L482.4263,822.7692 A0,0 0 0 0 482.4263,822.7692 L482.4263,757.3629 L472.4263,747.3629 L416,747.3629 L412,643.5429 L408,747.3629 L341.5,747.3629 A0,0 0 0 0 341.5,747.3629" fill="#FEFFDD" style="stroke:#181818;stroke-width:0.5;"/><path d="M472.4263,747.3629 L472.4263,757.3629 L482.4263,757.3629 L472.4263,747.3629" fill="#FEFFDD" style="stroke:#181818;stroke-width:0.5;"/><text fill="#000000" font-family="sans-serif" font-size="13" lengthAdjust="spacing" textLength="78.0317" x="347.5" y="765.858">Assumptions:</text><text fill="#000000" font-family="sans-serif" font-size="13" lengthAdjust="spacing" textLength="112.7153" x="347.5" y="782.2096">- Persistent storage</text><text fill="#000000" font-family="sans-serif" font-size="13" lengthAdjust="spacing" textLength="84.5317" x="347.5" y="798.5612">- Data integrity</text><text fill="#000000" font-family="sans-serif" font-size="13" lengthAdjust="spacing" textLength="119.9263" x="347.5" y="814.9127">- Privacy compliance</text></g><g class="entity" data-qualified-name="GMN45" data-source-line="96" id="ent0046"><path d="M123,747.3629 L123,822.7692 A0,0 0 0 0 123,822.7692 L287.0825,822.7692 A0,0 0 0 0 287.0825,822.7692 L287.0825,757.3629 L277.0825,747.3629 L209,747.3629 L205,643.5429 L201,747.3629 L123,747.3629 A0,0 0 0 0 123,747.3629" fill="#FEFFDD" style="stroke:#181818;stroke-width:0.5;"/><path d="M277.0825,747.3629 L277.0825,757.3629 L287.0825,757.3629 L277.0825,747.3629" fill="#FEFFDD" style="stroke:#181818;stroke-width:0.5;"/><text fill="#000000" font-family="sans-serif" font-size="13" lengthAdjust="spacing" textLength="86.728" x="129" y="765.858">Dependencies:</text><text fill="#000000" font-family="sans-serif" font-size="13" lengthAdjust="spacing" textLength="143.0825" x="129" y="782.2096">- Case investigation data</text><text fill="#000000" font-family="sans-serif" font-size="13" lengthAdjust="spacing" textLength="135.1099" x="129" y="798.5612">- Threshold parameters</text><text fill="#000000" font-family="sans-serif" font-size="13" lengthAdjust="spacing" textLength="88.1372" x="129" y="814.9127">- Analysis rules</text></g><!--link frontend to backend--><g class="link" data-entity-1="ent0002" data-entity-2="ent0003" data-link-type="dependency" data-source-line="15" id="lnk7"><path d="M392.8,255.4229 C347.82,292.0229 250.268,371.3768 205.198,408.0568" fill="none" id="frontend-to-backend" style="stroke:#181818;stroke-width:1;"/><polygon fill="#181818" points="201.32,411.2129,210.8253,408.6343,205.198,408.0568,205.7755,402.4295,201.32,411.2129" style="stroke:#181818;stroke-width:1;stroke-linejoin:miter;stroke-miterlimit:10;"/><text fill="#000000" font-family="sans-serif" font-size="13" lengthAdjust="spacing" textLength="92.4727" x="298" y="342.858">HTTP Requests</text></g><!--link backend to database--><g class="link" data-entity-1="ent0003" data-entity-2="ent0004" data-link-type="dependency" data-source-line="16" id="lnk8"><path d="M207.01,449.3929 C231.46,465.5129 267.54,490.2529 297,514.3629 C333.4,544.1529 368.989,579.2132 390.919,601.5732" fill="none" id="backend-to-database" style="stroke:#181818;stroke-width:1;"/><polygon fill="#181818" points="394.42,605.1429,390.9739,595.9166,390.919,601.5732,385.2624,601.5183,394.42,605.1429" style="stroke:#181818;stroke-width:1;stroke-linejoin:miter;stroke-miterlimit:10;"/><text fill="#000000" font-family="sans-serif" font-size="13" lengthAdjust="spacing" textLength="131.5107" x="318" y="528.858">Data Storage/Retrieval</text></g><!--link backend to algorithm--><g class="link" data-entity-1="ent0003" data-entity-2="ent0005" data-link-type="dependency" data-source-line="17" id="lnk9"><path d="M123.96,449.3729 C81.44,466.5629 33.07,495.3129 54,532.3629 C74.1,567.9429 109.6826,589.2448 143.5526,603.3148" fill="none" id="backend-to-algorithm" style="stroke:#181818;stroke-width:1;"/><polygon fill="#181818" points="148.17,605.2329,141.3931,598.0863,143.5526,603.3148,138.3241,605.4742,148.17,605.2329" style="stroke:#181818;stroke-width:1;stroke-linejoin:miter;stroke-miterlimit:10;"/><text fill="#000000" font-family="sans-serif" font-size="13" lengthAdjust="spacing" textLength="106.939" x="55" y="528.858">Analysis Requests</text></g><!--link algorithm to backend--><g class="link" data-entity-1="ent0005" data-entity-2="ent0003" data-link-type="dependency" data-source-line="18" id="lnk10"><path d="M202.54,605.2129 C197.58,568.5329 187.0701,490.9778 182.1201,454.3778" fill="none" id="algorithm-to-backend" style="stroke:#181818;stroke-width:1;"/><polygon fill="#181818" points="181.45,449.4229,178.6923,458.8778,182.1201,454.3778,186.6201,457.8056,181.45,449.4229" style="stroke:#181818;stroke-width:1;stroke-linejoin:miter;stroke-miterlimit:10;"/><text fill="#000000" font-family="sans-serif" font-size="13" lengthAdjust="spacing" textLength="95.3672" x="193" y="528.858">Analysis Results</text></g><!--link backend to mapservice--><g class="link" data-entity-1="ent0003" data-entity-2="ent0006" data-link-type="dependency" data-source-line="19" id="lnk11"><path d="M245.3,430.3629 C286.11,430.3629 332.55,430.3629 369.75,430.3629" fill="none" id="backend-to-mapservice" style="stroke:#181818;stroke-width:1;"/><polygon fill="#181818" points="374.75,430.3629,365.75,426.3629,369.75,430.3629,365.75,434.3629,374.75,430.3629" style="stroke:#181818;stroke-width:1;stroke-linejoin:miter;stroke-miterlimit:10;"/><text fill="#000000" font-family="sans-serif" font-size="13" lengthAdjust="spacing" textLength="93.2217" x="263.5" y="423.858">Geospatial Data</text></g><!--link backend to GMN15--><g class="link" data-entity-1="ent0003" data-entity-2="ent0016" data-link-type="association" data-source-line="32" id="lnk17"><path d="M204.32,411.3529 C255.4,375.4329 374.41,304.0129 473.5,337.3629 C497.67,345.4929 520.85,360.5029 540.42,376.1229" fill="none" id="backend-GMN15" style="stroke:#181818;stroke-width:1;stroke-dasharray:7,7;"/></g><!--link database to GMN18--><g class="link" data-entity-1="ent0004" data-entity-2="ent0019" data-link-type="association" data-source-line="41" id="lnk20"><path d="M423.08,605.0329 C438.29,580.6729 468.17,539.9929 506.5,523.3629 C572.96,494.5329 601.04,499.6729 669.5,523.3629 C693.5,531.6629 716.43,546.5129 736.09,562.3029" fill="none" id="database-GMN18" style="stroke:#181818;stroke-width:1;stroke-dasharray:7,7;"/></g><!--link algorithm to GMN21--><g class="link" data-entity-1="ent0005" data-entity-2="ent0022" data-link-type="association" data-source-line="51" id="lnk23"><path d="M227.34,605.2129 C257.64,580.6429 314.52,539.2929 371.5,523.3629 C415.16,511.1529 431.1,507.3329 473.5,523.3629 C503.01,534.5129 529.82,557.1229 550.07,578.1329" fill="none" id="algorithm-GMN21" style="stroke:#181818;stroke-width:1;stroke-dasharray:7,7;"/></g><!--link mapservice to GMN24--><g class="link" data-entity-1="ent0006" data-entity-2="ent0025" data-link-type="association" data-source-line="59" id="lnk26"><path d="M434.72,411.0129 C448.45,388.4529 474.59,352.3729 508.5,337.3629 C579.62,305.8929 610.43,310.7029 683.5,337.3629 C709.88,346.9829 734.33,365.9929 753.49,384.3229" fill="none" id="mapservice-GMN24" style="stroke:#181818;stroke-width:1;stroke-dasharray:7,7;"/></g><!--reverse link frontend to filler--><g class="link" data-entity-1="ent0002" data-entity-2="ent0027" data-link-type="dependency" data-source-line="69" id="lnk30"><path d="M436.043,258.9092 C450.793,273.0192 469.59,288.3929 493,298.3629 C521.29,310.4129 1011.36,368.1629 1041,376.3629 C1065.02,383.0029 1090.53,393.1129 1112.27,402.7329" fill="none" id="frontend-backto-filler" style="stroke:#181818;stroke-width:1;"/><polygon fill="#181818" points="432.43,255.4529,436.1685,264.5647,436.043,258.9092,441.6985,258.7838,432.43,255.4529" style="stroke:#181818;stroke-width:1;stroke-linejoin:miter;stroke-miterlimit:10;"/><text fill="#000000" font-family="sans-serif" font-size="13" lengthAdjust="spacing" textLength="61.4136" x="814" y="342.858">Data Entry</text></g><!--reverse link frontend to analyst--><g class="link" data-entity-1="ent0002" data-entity-2="ent0028" data-link-type="dependency" data-source-line="70" id="lnk32"><path d="M436.8003,258.9211 C464.0203,284.7011 514.61,327.4729 571,346.3629 C704.77,391.1629 754.42,328.1529 887,376.3629 C903.47,382.3529 919.75,392.7229 933.07,402.7129" fill="none" id="frontend-backto-analyst" style="stroke:#181818;stroke-width:1;"/><polygon fill="#181818" points="433.17,255.4829,436.9539,264.5759,436.8003,258.9211,442.455,258.7675,433.17,255.4829" style="stroke:#181818;stroke-width:1;stroke-linejoin:miter;stroke-miterlimit:10;"/><text fill="#000000" font-family="sans-serif" font-size="13" lengthAdjust="spacing" textLength="106.9263" x="572" y="342.858">Analysis &amp; Review</text></g><!--reverse link browser to frontend--><g class="link" data-entity-1="ent0039" data-entity-2="ent0002" data-link-type="dependency" data-source-line="86" id="lnk41"><path d="M415,101.5729 C415,134.1229 415,187.6429 415,217.2029" fill="none" id="browser-backto-frontend" style="stroke:#181818;stroke-width:1;"/><polygon fill="#181818" points="415,96.5729,411,105.5729,415,101.5729,419,105.5729,415,96.5729" style="stroke:#181818;stroke-width:1;stroke-linejoin:miter;stroke-miterlimit:10;"/><text fill="#000000" font-family="sans-serif" font-size="13" lengthAdjust="spacing" textLength="84.5127" x="416" y="140.858">HTML/CSS/JS</text></g><?plantuml-src XLR1Sjiu3BthAz0SzkRnFOVEA8wJTIVPfbQsFNJtG5EqZ8OYMP9orktqtmk2aYKxpVPc0I08F3my-asjjcWKh9UBn_AlsxibI2r2A8g8KIjOhZwM5LI745KBfPSxZ4h6pgkY24zedF2Y1MbRPuqoiOe7EkCfGfX6KumJyaaq2Yvodazg0wLp6gM8QCq5V2y0FjzuQw8oDJnGQFWNH81jRqhkAygHl9NoUvHzm2ORa_zQHB4HGR6zxZ-IezIDzHXtBTpRkjCvG0p6574lt92MdQrm8NyMFufYA09cjNqsixV3fN09Vpu-Fi1QVUrKYA4Ox4FSK0G5fkAWYjPJQ_ErYXxLNkZnXCTc5-d8iImwKngX3m73UC7eVLdA93fqUbhDa7liYi9lbGsEq1UQQoiAOoEDB8M2tKw1_viEmOg-_5OGx9Taci7IOQrQjDesD4HDitRMHpGDRArlEMIHEc-5eOvRuWHe394T2UqQWzFY03ZaPKyPWfN8d21FofH_zz4SS-k5sz5zcbrXX-x4NKMoXyX5oPtm14G28NLttkF8dONr2cuw8pdbRphyLNDiMvaQzrXtwURa5lr4sFb-hxpG-ipOnOrNuWdiFWr6FRzQwuJFJANtco-qNNsfLoAWp7TEK6FNDGP5zXdZfUeN_XLrH8Nv0qGlKahhCuwhDhMhwjalqmw3eepi9mY8qRaf9k9a05pxgurDzt0XdDYWneW3pTQgeIifqrRRPoRmYBxK7QcHJvnh4YUoQutXYMhIiki9aW-CiSSBNoV6PFq1FcAWYU8tpfQhkhFo9Iz796cj-c9eoRYqD9sqJ_zbefHrxLK8oRR50TQncADkaboUal0VSqDZW1lKMlaB5aZ--Rz7iZ143i_iYwHfV0vcdIDXE0fShrDBckQXw6DVnXoLvW-Q3xCsunUjO-d89K4I8deE0fwEj9IoyyISENM_LmQJD2HwCOSob1-IsX4cHg1NSvQ8T0qJYK2ZzF8CikdzGu-l5N1SkZ181U4YITact1AZ48NJbLsPRRuTWksyvDLGNXdYobYErBQhuI8zSrVUFeT-M9lyU_AWCBIzcP-J-xlveghcxwg-fusDqRPd2a3RrxLkebKFobDzCK4PyXkJbp_XbU1hYF0PsWUFUo4F_5Hh5ATbdzquNSrhvIYEsZp2kCYwi4-ZQlfrI8kUV8yxulVEwXhuZu6Y0Kwq8L77qpiyMS2V?></g></svg>