<svg xmlns="http://www.w3.org/2000/svg" xmlns:xlink="http://www.w3.org/1999/xlink" contentStyleType="text/css" data-diagram-type="DESCRIPTION" height="615px" preserveAspectRatio="none" style="width:2264px;height:615px;background:#FFFFFF;" version="1.1" viewBox="0 0 2264 615" width="2264px" zoomAndPan="magnify"><?plantuml 1.2026.6?><defs/><g><g class="title" data-source-line="3"><text fill="#000000" font-family="sans-serif" font-size="14" font-weight="700" lengthAdjust="spacing" textLength="192.1787" x="1032.8696" y="24.5332">LabHire System Architecture</text></g><!--cluster User Interfaces--><g class="cluster" data-qualified-name="User Interfaces" data-source-line="7" id="ent0001"><path d="M670.5,44.6094 L772.665,44.6094 A3.75,3.75 0 0 1 775.165,47.1094 L782.165,68.2188 L1254.5,68.2188 A2.5,2.5 0 0 1 1257,70.7188 L1257,132.1094 A2.5,2.5 0 0 1 1254.5,134.6094 L670.5,134.6094 A2.5,2.5 0 0 1 668,132.1094 L668,47.1094 A2.5,2.5 0 0 1 670.5,44.6094" fill="none" style="stroke:#000000;stroke-width:1.5;"/><line style="stroke:#000000;stroke-width:1.5;" x1="668" x2="782.165" y1="68.2188" y2="68.2188"/><text fill="#000000" font-family="sans-serif" font-size="14" font-weight="700" lengthAdjust="spacing" textLength="101.165" x="672" y="61.1426">User Interfaces</text></g><!--cluster Application Layer--><g class="cluster" data-qualified-name="Application Layer" data-source-line="14" id="ent0006"><path d="M8.5,158.6094 L126.9688,158.6094 A3.75,3.75 0 0 1 129.4688,161.1094 L136.4688,182.2188 L1987.5,182.2188 A2.5,2.5 0 0 1 1990,184.7188 L1990,246.1094 A2.5,2.5 0 0 1 1987.5,248.6094 L8.5,248.6094 A2.5,2.5 0 0 1 6,246.1094 L6,161.1094 A2.5,2.5 0 0 1 8.5,158.6094" fill="none" style="stroke:#000000;stroke-width:1.5;"/><line style="stroke:#000000;stroke-width:1.5;" x1="6" x2="136.4688" y1="182.2188" y2="182.2188"/><text fill="#000000" font-family="sans-serif" font-size="14" font-weight="700" lengthAdjust="spacing" textLength="117.4688" x="10" y="175.1426">Application Layer</text></g><!--cluster Data Access Layer--><g class="cluster" data-qualified-name="Data Access Layer" data-source-line="27" id="ent0017"><path d="M834.5,272.6094 L960.0234,272.6094 A3.75,3.75 0 0 1 962.5234,275.1094 L969.5234,296.2188 L1371.5,296.2188 A2.5,2.5 0 0 1 1374,298.7188 L1374,360.1094 A2.5,2.5 0 0 1 1371.5,362.6094 L834.5,362.6094 A2.5,2.5 0 0 1 832,360.1094 L832,275.1094 A2.5,2.5 0 0 1 834.5,272.6094" fill="none" style="stroke:#000000;stroke-width:1.5;"/><line style="stroke:#000000;stroke-width:1.5;" x1="832" x2="969.5234" y1="296.2188" y2="296.2188"/><text fill="#000000" font-family="sans-serif" font-size="14" font-weight="700" lengthAdjust="spacing" textLength="124.5234" x="836" y="289.1426">Data Access Layer</text></g><!--cluster External Systems--><g class="cluster" data-qualified-name="External Systems" data-source-line="33" id="ent0021"><path d="M1230.5,389.1094 L1348.2305,389.1094 A3.75,3.75 0 0 1 1350.7305,391.6094 L1357.7305,412.7188 L2014.5,412.7188 A2.5,2.5 0 0 1 2017,415.2188 L2017,476.6094 A2.5,2.5 0 0 1 2014.5,479.1094 L1230.5,479.1094 A2.5,2.5 0 0 1 1228,476.6094 L1228,391.6094 A2.5,2.5 0 0 1 1230.5,389.1094" fill="none" style="stroke:#000000;stroke-width:1.5;"/><line style="stroke:#000000;stroke-width:1.5;" x1="1228" x2="1357.7305" y1="412.7188" y2="412.7188"/><text fill="#000000" font-family="sans-serif" font-size="14" font-weight="700" lengthAdjust="spacing" textLength="116.7305" x="1232" y="405.6426">External Systems</text></g><!--cluster Security & Compliance--><g class="cluster" data-qualified-name="Security . Compliance" data-source-line="40" id="ent0026"><path d="M624.5,389.1094 L777.9893,389.1094 A3.75,3.75 0 0 1 780.4893,391.6094 L787.4893,412.7188 L1201.5,412.7188 A2.5,2.5 0 0 1 1204,415.2188 L1204,476.6094 A2.5,2.5 0 0 1 1201.5,479.1094 L624.5,479.1094 A2.5,2.5 0 0 1 622,476.6094 L622,391.6094 A2.5,2.5 0 0 1 624.5,389.1094" fill="none" style="stroke:#000000;stroke-width:1.5;"/><line style="stroke:#000000;stroke-width:1.5;" x1="622" x2="787.4893" y1="412.7188" y2="412.7188"/><text fill="#000000" font-family="sans-serif" font-size="14" font-weight="700" lengthAdjust="spacing" textLength="152.4893" x="626" y="405.6426">Security &amp; Compliance</text></g><!--entity Student Web UI--><g class="entity" data-qualified-name="User Interfaces.Student Web UI" data-source-line="8" id="ent0002"><rect fill="#F1F1F1" height="37.6094" rx="2.5" ry="2.5" style="stroke:#181818;stroke-width:0.5;" width="118.8271" x="684.5" y="80.6094"/><text fill="#000000" font-family="sans-serif" font-size="14" lengthAdjust="spacing" textLength="98.8271" x="694.5" y="105.1426">Student Web UI</text></g><!--entity Mentor Web UI--><g class="entity" data-qualified-name="User Interfaces.Mentor Web UI" data-source-line="9" id="ent0003"><rect fill="#F1F1F1" height="37.6094" rx="2.5" ry="2.5" style="stroke:#181818;stroke-width:0.5;" width="114.1377" x="982" y="80.6094"/><text fill="#000000" font-family="sans-serif" font-size="14" lengthAdjust="spacing" textLength="94.1377" x="992" y="105.1426">Mentor Web UI</text></g><!--entity Admin Web UI--><g class="entity" data-qualified-name="User Interfaces.Admin Web UI" data-source-line="10" id="ent0004"><rect fill="#F1F1F1" height="37.6094" rx="2.5" ry="2.5" style="stroke:#181818;stroke-width:0.5;" width="110.248" x="1131" y="80.6094"/><text fill="#000000" font-family="sans-serif" font-size="14" lengthAdjust="spacing" textLength="90.248" x="1141" y="105.1426">Admin Web UI</text></g><!--entity Mobile App UI--><g class="entity" data-qualified-name="User Interfaces.Mobile App UI" data-source-line="11" id="ent0005"><rect fill="#F1F1F1" height="37.6094" rx="2.5" ry="2.5" style="stroke:#181818;stroke-width:0.5;" width="107.9307" x="839" y="80.6094"/><text fill="#000000" font-family="sans-serif" font-size="14" lengthAdjust="spacing" textLength="87.9307" x="849" y="105.1426">Mobile App UI</text></g><!--entity Project Management Service--><g class="entity" data-qualified-name="Application Layer.Project Management Service" data-source-line="15" id="ent0007"><rect fill="#F1F1F1" height="37.6094" rx="2.5" ry="2.5" style="stroke:#181818;stroke-width:0.5;" width="199.751" x="793" y="194.6094"/><text fill="#000000" font-family="sans-serif" font-size="14" lengthAdjust="spacing" textLength="179.751" x="803" y="219.1426">Project Management Service</text></g><!--entity User Authentication Service--><g class="entity" data-qualified-name="Application Layer.User Authentication Service" data-source-line="16" id="ent0008"><rect fill="#F1F1F1" height="37.6094" rx="2.5" ry="2.5" style="stroke:#181818;stroke-width:0.5;" width="192.751" x="1028.5" y="194.6094"/><text fill="#000000" font-family="sans-serif" font-size="14" lengthAdjust="spacing" textLength="172.751" x="1038.5" y="219.1426">User Authentication Service</text></g><!--entity Community Service--><g class="entity" data-qualified-name="Application Layer.Community Service" data-source-line="17" id="ent0009"><rect fill="#F1F1F1" height="37.6094" rx="2.5" ry="2.5" style="stroke:#181818;stroke-width:0.5;" width="141.3652" x="22.5" y="194.6094"/><text fill="#000000" font-family="sans-serif" font-size="14" lengthAdjust="spacing" textLength="121.3652" x="32.5" y="219.1426">Community Service</text></g><!--entity Recommendation Engine--><g class="entity" data-qualified-name="Application Layer.Recommendation Engine" data-source-line="18" id="ent0010"><rect fill="#F1F1F1" height="37.6094" rx="2.5" ry="2.5" style="stroke:#181818;stroke-width:0.5;" width="177.2061" x="580.5" y="194.6094"/><text fill="#000000" font-family="sans-serif" font-size="14" lengthAdjust="spacing" textLength="157.2061" x="590.5" y="219.1426">Recommendation Engine</text></g><!--entity Notification Service--><g class="entity" data-qualified-name="Application Layer.Notification Service" data-source-line="19" id="ent0011"><rect fill="#F1F1F1" height="37.6094" rx="2.5" ry="2.5" style="stroke:#181818;stroke-width:0.5;" width="139.8271" x="1834" y="194.6094"/><text fill="#000000" font-family="sans-serif" font-size="14" lengthAdjust="spacing" textLength="119.8271" x="1844" y="219.1426">Notification Service</text></g><!--entity Chat Service--><g class="entity" data-qualified-name="Application Layer.Chat Service" data-source-line="20" id="ent0012"><rect fill="#F1F1F1" height="37.6094" rx="2.5" ry="2.5" style="stroke:#181818;stroke-width:0.5;" width="100.1445" x="1257" y="194.6094"/><text fill="#000000" font-family="sans-serif" font-size="14" lengthAdjust="spacing" textLength="80.1445" x="1267" y="219.1426">Chat Service</text></g><!--entity Admin Review Service--><g class="entity" data-qualified-name="Application Layer.Admin Review Service" data-source-line="21" id="ent0013"><rect fill="#F1F1F1" height="37.6094" rx="2.5" ry="2.5" style="stroke:#181818;stroke-width:0.5;" width="160.0479" x="1392" y="194.6094"/><text fill="#000000" font-family="sans-serif" font-size="14" lengthAdjust="spacing" textLength="140.0479" x="1402" y="219.1426">Admin Review Service</text></g><!--entity Enterprise Certification Service--><g class="entity" data-qualified-name="Application Layer.Enterprise Certification Service" data-source-line="22" id="ent0014"><rect fill="#F1F1F1" height="37.6094" rx="2.5" ry="2.5" style="stroke:#181818;stroke-width:0.5;" width="212.1855" x="1587" y="194.6094"/><text fill="#000000" font-family="sans-serif" font-size="14" lengthAdjust="spacing" textLength="192.1855" x="1597" y="219.1426">Enterprise Certification Service</text></g><!--entity Search Service--><g class="entity" data-qualified-name="Application Layer.Search Service" data-source-line="23" id="ent0015"><rect fill="#F1F1F1" height="37.6094" rx="2.5" ry="2.5" style="stroke:#181818;stroke-width:0.5;" width="114.9307" x="198.5" y="194.6094"/><text fill="#000000" font-family="sans-serif" font-size="14" lengthAdjust="spacing" textLength="94.9307" x="208.5" y="219.1426">Search Service</text></g><!--entity Profile Management Service--><g class="entity" data-qualified-name="Application Layer.Profile Management Service" data-source-line="24" id="ent0016"><rect fill="#F1F1F1" height="37.6094" rx="2.5" ry="2.5" style="stroke:#181818;stroke-width:0.5;" width="195.8613" x="349" y="194.6094"/><text fill="#000000" font-family="sans-serif" font-size="14" lengthAdjust="spacing" textLength="175.8613" x="359" y="219.1426">Profile Management Service</text></g><!--entity Database Interface--><g class="entity" data-qualified-name="Data Access Layer.Database Interface" data-source-line="28" id="ent0018"><rect fill="#F1F1F1" height="37.6094" rx="2.5" ry="2.5" style="stroke:#181818;stroke-width:0.5;" width="138.2959" x="1037" y="308.6094"/><text fill="#000000" font-family="sans-serif" font-size="14" lengthAdjust="spacing" textLength="118.2959" x="1047" y="333.1426">Database Interface</text></g><!--entity Email/SMS Gateway--><g class="entity" data-qualified-name="Data Access Layer.Email.SMS Gateway" data-source-line="29" id="ent0019"><rect fill="#F1F1F1" height="37.6094" rx="2.5" ry="2.5" style="stroke:#181818;stroke-width:0.5;" width="148.3721" x="1210" y="308.6094"/><text fill="#000000" font-family="sans-serif" font-size="14" lengthAdjust="spacing" textLength="128.3721" x="1220" y="333.1426">Email/SMS Gateway</text></g><!--entity File Storage Interface--><g class="entity" data-qualified-name="Data Access Layer.File Storage Interface" data-source-line="30" id="ent0020"><rect fill="#F1F1F1" height="37.6094" rx="2.5" ry="2.5" style="stroke:#181818;stroke-width:0.5;" width="153.8477" x="848" y="308.6094"/><text fill="#000000" font-family="sans-serif" font-size="14" lengthAdjust="spacing" textLength="133.8477" x="858" y="333.1426">File Storage Interface</text></g><!--entity University Email Servers--><g class="entity" data-qualified-name="External Systems.University Email Servers" data-source-line="34" id="ent0022"><rect fill="#F1F1F1" height="37.6094" rx="2.5" ry="2.5" style="stroke:#181818;stroke-width:0.5;" width="172.4756" x="1600" y="425.1094"/><text fill="#000000" font-family="sans-serif" font-size="14" lengthAdjust="spacing" textLength="152.4756" x="1610" y="449.6426">University Email Servers</text></g><!--entity Enterprise Email Servers--><g class="entity" data-qualified-name="External Systems.Enterprise Email Servers" data-source-line="35" id="ent0023"><rect fill="#F1F1F1" height="37.6094" rx="2.5" ry="2.5" style="stroke:#181818;stroke-width:0.5;" width="174.8271" x="1389.5" y="425.1094"/><text fill="#000000" font-family="sans-serif" font-size="14" lengthAdjust="spacing" textLength="154.8271" x="1399.5" y="449.6426">Enterprise Email Servers</text></g><!--entity Cloud Storage--><g class="entity" data-qualified-name="External Systems.Cloud Storage" data-source-line="36" id="ent0024"><rect fill="#F1F1F1" height="37.6094" rx="2.5" ry="2.5" style="stroke:#181818;stroke-width:0.5;" width="109.5029" x="1244" y="425.1094"/><text fill="#000000" font-family="sans-serif" font-size="14" lengthAdjust="spacing" textLength="89.5029" x="1254" y="449.6426">Cloud Storage</text></g><!--entity Third-party Messaging APIs--><g class="entity" data-qualified-name="External Systems.Third-party Messaging APIs" data-source-line="37" id="ent0025"><rect fill="#F1F1F1" height="37.6094" rx="2.5" ry="2.5" style="stroke:#181818;stroke-width:0.5;" width="192.7305" x="1807.5" y="425.1094"/><text fill="#000000" font-family="sans-serif" font-size="14" lengthAdjust="spacing" textLength="172.7305" x="1817.5" y="449.6426">Third-party Messaging APIs</text></g><!--entity Access Control Module--><g class="entity" data-qualified-name="Security . Compliance.Access Control Module" data-source-line="41" id="ent0027"><rect fill="#F1F1F1" height="37.6094" rx="2.5" ry="2.5" style="stroke:#181818;stroke-width:0.5;" width="163.9512" x="1024" y="425.1094"/><text fill="#000000" font-family="sans-serif" font-size="14" lengthAdjust="spacing" textLength="143.9512" x="1034" y="449.6426">Access Control Module</text></g><!--entity Encryption Module--><g class="entity" data-qualified-name="Security . Compliance.Encryption Module" data-source-line="42" id="ent0028"><rect fill="#F1F1F1" height="37.6094" rx="2.5" ry="2.5" style="stroke:#181818;stroke-width:0.5;" width="135.9512" x="638" y="425.1094"/><text fill="#000000" font-family="sans-serif" font-size="14" lengthAdjust="spacing" textLength="115.9512" x="648" y="449.6426">Encryption Module</text></g><!--entity Risk Control & Audit Logs--><g class="entity" data-qualified-name="Security . Compliance.Risk Control . Audit Logs" data-source-line="43" id="ent0029"><rect fill="#F1F1F1" height="37.6094" rx="2.5" ry="2.5" style="stroke:#181818;stroke-width:0.5;" width="179.5166" x="809" y="425.1094"/><text fill="#000000" font-family="sans-serif" font-size="14" lengthAdjust="spacing" textLength="159.5166" x="819" y="449.6426">Risk Control &amp; Audit Logs</text></g><g class="entity" data-qualified-name="GMN73" data-source-line="101" id="ent0074"><path d="M2009.5,192.1094 L2009.5,234.8125 L2222.707,234.8125 L2222.707,202.1094 L2212.707,192.1094 L2009.5,192.1094" fill="#FEFFDD" style="stroke:#181818;stroke-width:0.5;"/><path d="M2212.707,192.1094 L2212.707,202.1094 L2222.707,202.1094 L2212.707,192.1094" fill="#FEFFDD" style="stroke:#181818;stroke-width:1;"/><text fill="#000000" font-family="sans-serif" font-size="13" lengthAdjust="spacing" textLength="155.3462" x="2015.5" y="210.6045">Uses collaborative filtering,</text><text fill="#000000" font-family="sans-serif" font-size="13" lengthAdjust="spacing" textLength="192.207" x="2015.5" y="226.9561">tag matching, and cold-start rules</text></g><g class="entity" data-qualified-name="GMN76" data-source-line="106" id="ent0077"><path d="M2036,406.6094 L2036,482.0156 L2249.918,482.0156 L2249.918,416.6094 L2239.918,406.6094 L2036,406.6094" fill="#FEFFDD" style="stroke:#181818;stroke-width:0.5;"/><path d="M2239.918,406.6094 L2239.918,416.6094 L2249.918,416.6094 L2239.918,406.6094" fill="#FEFFDD" style="stroke:#181818;stroke-width:1;"/><text fill="#000000" font-family="sans-serif" font-size="13" lengthAdjust="spacing" textLength="192.918" x="2042" y="425.1045">Enforces role-based permissions:</text><text fill="#000000" font-family="sans-serif" font-size="13" lengthAdjust="spacing" textLength="154.6226" x="2042" y="441.4561">- Students view limited info</text><text fill="#000000" font-family="sans-serif" font-size="13" lengthAdjust="spacing" textLength="188.5825" x="2042" y="457.8076">- Mentors see applicant resumes</text><text fill="#000000" font-family="sans-serif" font-size="13" lengthAdjust="spacing" textLength="147.3926" x="2042" y="474.1592">- Admins have full access</text></g><g class="entity" data-qualified-name="GMN79" data-source-line="113" id="ent0080"><path d="M811.5,541.6094 L811.5,600.6641 A0,0 0 0 0 811.5,600.6641 L986.3989,600.6641 A0,0 0 0 0 986.3989,600.6641 L986.3989,551.6094 L976.3989,541.6094 L903,541.6094 L899,463.2894 L895,541.6094 L811.5,541.6094 A0,0 0 0 0 811.5,541.6094" fill="#FEFFDD" style="stroke:#181818;stroke-width:0.5;"/><path d="M976.3989,541.6094 L976.3989,551.6094 L986.3989,551.6094 L976.3989,541.6094" fill="#FEFFDD" style="stroke:#181818;stroke-width:0.5;"/><text fill="#000000" font-family="sans-serif" font-size="13" lengthAdjust="spacing" textLength="153.8989" x="817.5" y="560.1045">Tracks abnormal behavior,</text><text fill="#000000" font-family="sans-serif" font-size="13" lengthAdjust="spacing" textLength="146.688" x="817.5" y="576.4561">supports manual analysis</text><text fill="#000000" font-family="sans-serif" font-size="13" lengthAdjust="spacing" textLength="67.939" x="817.5" y="592.8076">and alerting</text></g><!--link Student Web UI to User Authentication Service--><g class="link" data-entity-1="ent0002" data-entity-2="ent0008" data-link-type="dependency" data-source-line="46" id="lnk30"><path d="M770.51,118.7794 C785.04,127.7094 803.76,137.5994 822,142.6094 C903.07,164.8794 929.98,128.1694 1011,150.6094 C1043.78,159.6894 1073.4035,176.8503 1095.5835,191.6803" fill="none" id="Student Web UI-to-User Authentication Service" style="stroke:#181818;stroke-width:1;"/><polygon fill="#181818" points="1099.74,194.4594,1094.4816,186.1318,1095.5835,191.6803,1090.035,192.7822,1099.74,194.4594" style="stroke:#181818;stroke-width:1;stroke-linejoin:miter;stroke-miterlimit:10;"/></g><!--link Student Web UI to Project Management Service--><g class="link" data-entity-1="ent0002" data-entity-2="ent0007" data-link-type="dependency" data-source-line="47" id="lnk31"><path d="M768.27,118.8494 C795.98,139.6794 837.0431,170.5452 864.7431,191.3652" fill="none" id="Student Web UI-to-Project Management Service" style="stroke:#181818;stroke-width:1;"/><polygon fill="#181818" points="868.74,194.3694,863.9489,185.7644,864.7431,191.3652,859.1423,192.1594,868.74,194.3694" style="stroke:#181818;stroke-width:1;stroke-linejoin:miter;stroke-miterlimit:10;"/></g><!--link Student Web UI to Community Service--><g class="link" data-entity-1="ent0002" data-entity-2="ent0009" data-link-type="dependency" data-source-line="48" id="lnk32"><path d="M684.44,101.9994 C559.12,105.5594 272.22,117.1894 181,150.6094 C154.68,160.2494 132.7601,176.5951 116.0001,191.1951" fill="none" id="Student Web UI-to-Community Service" style="stroke:#181818;stroke-width:1;"/><polygon fill="#181818" points="112.23,194.4794,121.6436,191.5839,116.0001,191.1951,116.3888,185.5517,112.23,194.4794" style="stroke:#181818;stroke-width:1;stroke-linejoin:miter;stroke-miterlimit:10;"/></g><!--link Student Web UI to Search Service--><g class="link" data-entity-1="ent0002" data-entity-2="ent0015" data-link-type="dependency" data-source-line="49" id="lnk33"><path d="M684.25,103.7694 C585.76,109.6694 394.07,124.1794 332,150.6094 C308.66,160.5494 290.2483,176.3568 276.0083,190.8168" fill="none" id="Student Web UI-to-Search Service" style="stroke:#181818;stroke-width:1;"/><polygon fill="#181818" points="272.5,194.3794,281.665,190.7735,276.0083,190.8168,275.965,185.1602,272.5,194.3794" style="stroke:#181818;stroke-width:1;stroke-linejoin:miter;stroke-miterlimit:10;"/></g><!--link Student Web UI to Profile Management Service--><g class="link" data-entity-1="ent0002" data-entity-2="ent0016" data-link-type="dependency" data-source-line="50" id="lnk34"><path d="M684.22,113.5894 C648.41,122.2294 602.35,134.8794 563,150.6094 C532.47,162.8094 503.8887,178.3626 480.9587,191.8626" fill="none" id="Student Web UI-to-Profile Management Service" style="stroke:#181818;stroke-width:1;"/><polygon fill="#181818" points="476.65,194.3994,486.4351,193.2802,480.9587,191.8626,482.3763,186.3863,476.65,194.3994" style="stroke:#181818;stroke-width:1;stroke-linejoin:miter;stroke-miterlimit:10;"/></g><!--link Student Web UI to Notification Service--><g class="link" data-entity-1="ent0002" data-entity-2="ent0011" data-link-type="dependency" data-source-line="51" id="lnk35"><path d="M770.09,118.8194 C784.65,127.8694 803.53,137.8694 822,142.6094 C875.55,156.3394 1764.42,133.5594 1817,150.6094 C1843.82,159.3094 1865.7695,176.1559 1882.1795,191.1559" fill="none" id="Student Web UI-to-Notification Service" style="stroke:#181818;stroke-width:1;"/><polygon fill="#181818" points="1885.87,194.5294,1881.9258,185.5048,1882.1795,191.1559,1876.5283,191.4096,1885.87,194.5294" style="stroke:#181818;stroke-width:1;stroke-linejoin:miter;stroke-miterlimit:10;"/></g><!--link Mentor Web UI to User Authentication Service--><g class="link" data-entity-1="ent0003" data-entity-2="ent0008" data-link-type="dependency" data-source-line="53" id="lnk36"><path d="M1053.2,119.0994 C1069.23,139.9794 1092.0946,169.7638 1108.0146,190.4938" fill="none" id="Mentor Web UI-to-User Authentication Service" style="stroke:#181818;stroke-width:1;"/><polygon fill="#181818" points="1111.06,194.4594,1108.7507,184.8851,1108.0146,190.4938,1102.4058,189.7577,1111.06,194.4594" style="stroke:#181818;stroke-width:1;stroke-linejoin:miter;stroke-miterlimit:10;"/></g><!--link Mentor Web UI to Project Management Service--><g class="link" data-entity-1="ent0003" data-entity-2="ent0007" data-link-type="dependency" data-source-line="54" id="lnk37"><path d="M1015.22,118.8494 C988.07,139.6794 947.8877,170.5068 920.7377,191.3268" fill="none" id="Mentor Web UI-to-Project Management Service" style="stroke:#181818;stroke-width:1;"/><polygon fill="#181818" points="916.77,194.3694,926.3459,192.0668,920.7377,191.3268,921.4777,185.7185,916.77,194.3694" style="stroke:#181818;stroke-width:1;stroke-linejoin:miter;stroke-miterlimit:10;"/></g><!--link Mentor Web UI to Chat Service--><g class="link" data-entity-1="ent0003" data-entity-2="ent0012" data-link-type="dependency" data-source-line="55" id="lnk38"><path d="M1064.44,118.6294 C1078.39,127.5094 1096.4,137.4094 1114,142.6094 C1140.69,150.4894 1213.38,139.7294 1239,150.6094 C1261.06,159.9794 1277.3833,175.8299 1289.7933,190.5199" fill="none" id="Mentor Web UI-to-Chat Service" style="stroke:#181818;stroke-width:1;"/><polygon fill="#181818" points="1293.02,194.3394,1290.2676,184.8829,1289.7933,190.5199,1284.1564,190.0456,1293.02,194.3394" style="stroke:#181818;stroke-width:1;stroke-linejoin:miter;stroke-miterlimit:10;"/></g><!--link Mentor Web UI to Profile Management Service--><g class="link" data-entity-1="ent0003" data-entity-2="ent0016" data-link-type="dependency" data-source-line="56" id="lnk39"><path d="M1014.35,118.7194 C1000.58,127.7494 982.66,137.7594 965,142.6094 C921.92,154.4394 606.23,139.3194 563,150.6094 C529.42,159.3794 498.9859,176.8244 476.4159,191.8044" fill="none" id="Mentor Web UI-to-Profile Management Service" style="stroke:#181818;stroke-width:1;"/><polygon fill="#181818" points="472.25,194.5694,481.9606,192.9252,476.4159,191.8044,477.5367,186.2597,472.25,194.5694" style="stroke:#181818;stroke-width:1;stroke-linejoin:miter;stroke-miterlimit:10;"/></g><!--link Mentor Web UI to Notification Service--><g class="link" data-entity-1="ent0003" data-entity-2="ent0011" data-link-type="dependency" data-source-line="57" id="lnk40"><path d="M1064,118.7894 C1077.97,127.8294 1096.12,137.8394 1114,142.6094 C1151.74,152.6894 1779.87,138.4994 1817,150.6094 C1843.8,159.3494 1865.7572,176.1984 1882.1672,191.1784" fill="none" id="Mentor Web UI-to-Notification Service" style="stroke:#181818;stroke-width:1;"/><polygon fill="#181818" points="1885.86,194.5494,1881.9098,185.5274,1882.1672,191.1784,1876.5162,191.4358,1885.86,194.5494" style="stroke:#181818;stroke-width:1;stroke-linejoin:miter;stroke-miterlimit:10;"/></g><!--link Admin Web UI to Admin Review Service--><g class="link" data-entity-1="ent0004" data-entity-2="ent0013" data-link-type="dependency" data-source-line="59" id="lnk41"><path d="M1241.28,110.5094 C1279.79,118.5294 1331.8,131.6494 1375,150.6094 C1401.72,162.3394 1425.4621,177.9244 1444.4121,191.6644" fill="none" id="Admin Web UI-to-Admin Review Service" style="stroke:#181818;stroke-width:1;"/><polygon fill="#181818" points="1448.46,194.5994,1443.5217,186.078,1444.4121,191.6644,1438.8257,192.5547,1448.46,194.5994" style="stroke:#181818;stroke-width:1;stroke-linejoin:miter;stroke-miterlimit:10;"/></g><!--link Admin Web UI to User Authentication Service--><g class="link" data-entity-1="ent0004" data-entity-2="ent0008" data-link-type="dependency" data-source-line="60" id="lnk42"><path d="M1175.93,119.0994 C1164.56,139.9794 1148.5714,169.3384 1137.2814,190.0684" fill="none" id="Admin Web UI-to-User Authentication Service" style="stroke:#181818;stroke-width:1;"/><polygon fill="#181818" points="1134.89,194.4594,1142.7074,188.4687,1137.2814,190.0684,1135.6818,184.6424,1134.89,194.4594" style="stroke:#181818;stroke-width:1;stroke-linejoin:miter;stroke-miterlimit:10;"/></g><!--link Mobile App UI to User Authentication Service--><g class="link" data-entity-1="ent0005" data-entity-2="ent0008" data-link-type="dependency" data-source-line="62" id="lnk43"><path d="M918.89,118.7494 C932.13,127.2094 948.82,136.6994 965,142.6094 C984.49,149.7294 991.4,143.7794 1011,150.6094 C1042.28,161.4994 1070.9856,177.6704 1093.3756,191.7304" fill="none" id="Mobile App UI-to-User Authentication Service" style="stroke:#181818;stroke-width:1;"/><polygon fill="#181818" points="1097.61,194.3894,1092.1154,186.2157,1093.3756,191.7304,1087.861,192.9907,1097.61,194.3894" style="stroke:#181818;stroke-width:1;stroke-linejoin:miter;stroke-miterlimit:10;"/></g><!--link Mobile App UI to Project Management Service--><g class="link" data-entity-1="ent0005" data-entity-2="ent0007" data-link-type="dependency" data-source-line="63" id="lnk44"><path d="M893,119.0994 C893,139.9794 893,168.7294 893,189.4594" fill="none" id="Mobile App UI-to-Project Management Service" style="stroke:#181818;stroke-width:1;"/><polygon fill="#181818" points="893,194.4594,897,185.4594,893,189.4594,889,185.4594,893,194.4594" style="stroke:#181818;stroke-width:1;stroke-linejoin:miter;stroke-miterlimit:10;"/></g><!--link Mobile App UI to Community Service--><g class="link" data-entity-1="ent0005" data-entity-2="ent0009" data-link-type="dependency" data-source-line="64" id="lnk45"><path d="M869.11,118.7694 C855.73,127.8094 838.29,137.8194 821,142.6094 C752.47,161.5994 248.66,128.6994 181,150.6094 C153.97,159.3594 131.735,176.2329 115.105,191.2129" fill="none" id="Mobile App UI-to-Community Service" style="stroke:#181818;stroke-width:1;"/><polygon fill="#181818" points="111.39,194.5594,120.7542,191.5078,115.105,191.2129,115.3999,185.5638,111.39,194.5594" style="stroke:#181818;stroke-width:1;stroke-linejoin:miter;stroke-miterlimit:10;"/></g><!--link Mobile App UI to Search Service--><g class="link" data-entity-1="ent0005" data-entity-2="ent0015" data-link-type="dependency" data-source-line="65" id="lnk46"><path d="M869.1,118.7494 C855.72,127.7794 838.28,137.7894 821,142.6094 C768.66,157.2194 383.04,131.9594 332,150.6094 C307.85,159.4294 289.1816,175.7829 275.1116,190.6929" fill="none" id="Mobile App UI-to-Search Service" style="stroke:#181818;stroke-width:1;"/><polygon fill="#181818" points="271.68,194.3294,280.7661,190.529,275.1116,190.6929,274.9477,185.0384,271.68,194.3294" style="stroke:#181818;stroke-width:1;stroke-linejoin:miter;stroke-miterlimit:10;"/></g><!--link Mobile App UI to Profile Management Service--><g class="link" data-entity-1="ent0005" data-entity-2="ent0016" data-link-type="dependency" data-source-line="66" id="lnk47"><path d="M869.07,118.6494 C855.68,127.6494 838.25,137.6594 821,142.6094 C765.87,158.4394 618.42,135.8094 563,150.6094 C529.69,159.5094 499.4855,176.729 476.8955,191.609" fill="none" id="Mobile App UI-to-Profile Management Service" style="stroke:#181818;stroke-width:1;"/><polygon fill="#181818" points="472.72,194.3594,482.4363,192.749,476.8955,191.609,478.0356,186.0682,472.72,194.3594" style="stroke:#181818;stroke-width:1;stroke-linejoin:miter;stroke-miterlimit:10;"/></g><!--link Mobile App UI to Notification Service--><g class="link" data-entity-1="ent0005" data-entity-2="ent0011" data-link-type="dependency" data-source-line="67" id="lnk48"><path d="M916.89,118.7894 C930.27,127.8394 947.7,137.8494 965,142.6094 C1010.64,155.1794 1771.98,135.9794 1817,150.6094 C1843.81,159.3194 1865.7573,176.1783 1882.1773,191.1683" fill="none" id="Mobile App UI-to-Notification Service" style="stroke:#181818;stroke-width:1;"/><polygon fill="#181818" points="1885.87,194.5394,1881.9201,185.5173,1882.1773,191.1683,1876.5263,191.4256,1885.87,194.5394" style="stroke:#181818;stroke-width:1;stroke-linejoin:miter;stroke-miterlimit:10;"/></g><!--link Project Management Service to Database Interface--><g class="link" data-entity-1="ent0007" data-entity-2="ent0018" data-link-type="dependency" data-source-line="69" id="lnk49"><path d="M947.48,232.6594 C970.46,241.1294 997.12,252.1194 1020,264.6094 C1043.1,277.2294 1063.312,291.983 1080.112,305.303" fill="none" id="Project Management Service-to-Database Interface" style="stroke:#181818;stroke-width:1;"/><polygon fill="#181818" points="1084.03,308.4094,1079.4628,299.6835,1080.112,305.303,1074.4926,305.9523,1084.03,308.4094" style="stroke:#181818;stroke-width:1;stroke-linejoin:miter;stroke-miterlimit:10;"/></g><!--link User Authentication Service to Database Interface--><g class="link" data-entity-1="ent0008" data-entity-2="ent0018" data-link-type="dependency" data-source-line="70" id="lnk50"><path d="M1121.86,233.0994 C1118.32,253.9794 1113.437,282.7999 1109.917,303.5299" fill="none" id="User Authentication Service-to-Database Interface" style="stroke:#181818;stroke-width:1;"/><polygon fill="#181818" points="1109.08,308.4594,1114.5302,300.256,1109.917,303.5299,1106.6431,298.9168,1109.08,308.4594" style="stroke:#181818;stroke-width:1;stroke-linejoin:miter;stroke-miterlimit:10;"/></g><!--link Community Service to Database Interface--><g class="link" data-entity-1="ent0009" data-entity-2="ent0018" data-link-type="dependency" data-source-line="71" id="lnk51"><path d="M122.75,232.8194 C139.26,241.8794 160.55,251.8794 181,256.6094 C226.41,267.1194 975.71,250.0794 1020,264.6094 C1046.58,273.3294 1068.2511,290.1624 1084.4411,305.1524" fill="none" id="Community Service-to-Database Interface" style="stroke:#181818;stroke-width:1;"/><polygon fill="#181818" points="1088.11,308.5494,1084.2236,299.4998,1084.4411,305.1524,1078.7884,305.37,1088.11,308.5494" style="stroke:#181818;stroke-width:1;stroke-linejoin:miter;stroke-miterlimit:10;"/></g><!--link Recommendation Engine to Database Interface--><g class="link" data-entity-1="ent0010" data-entity-2="ent0018" data-link-type="dependency" data-source-line="72" id="lnk52"><path d="M706.17,232.8194 C726.32,241.7594 751.96,251.6494 776,256.6094 C829.13,267.5694 968.65,247.0994 1020,264.6094 C1046.31,273.5794 1067.8112,290.164 1084.0512,305.024" fill="none" id="Recommendation Engine-to-Database Interface" style="stroke:#181818;stroke-width:1;"/><polygon fill="#181818" points="1087.74,308.3994,1083.8004,299.3728,1084.0512,305.024,1078.3999,305.2748,1087.74,308.3994" style="stroke:#181818;stroke-width:1;stroke-linejoin:miter;stroke-miterlimit:10;"/></g><!--link Notification Service to Database Interface--><g class="link" data-entity-1="ent0011" data-entity-2="ent0018" data-link-type="dependency" data-source-line="73" id="lnk53"><path d="M1874.61,232.7894 C1858.29,241.8394 1837.24,251.8394 1817,256.6094 C1783.25,264.5594 1225.95,253.8394 1193,264.6094 C1166.2,273.3694 1144.2549,290.2208 1127.8349,305.1908" fill="none" id="Notification Service-to-Database Interface" style="stroke:#181818;stroke-width:1;"/><polygon fill="#181818" points="1124.14,308.5594,1133.4857,305.4518,1127.8349,305.1908,1128.0959,299.5399,1124.14,308.5594" style="stroke:#181818;stroke-width:1;stroke-linejoin:miter;stroke-miterlimit:10;"/></g><!--link Chat Service to Database Interface--><g class="link" data-entity-1="ent0012" data-entity-2="ent0018" data-link-type="dependency" data-source-line="74" id="lnk54"><path d="M1282.68,232.7894 C1270.22,241.2594 1254.44,250.7494 1239,256.6094 C1219.6,263.9694 1212.15,256.6094 1193,264.6094 C1167.67,275.1894 1146.3571,291.018 1129.6671,305.228" fill="none" id="Chat Service-to-Database Interface" style="stroke:#181818;stroke-width:1;"/><polygon fill="#181818" points="1125.86,308.4694,1135.3058,305.6806,1129.6671,305.228,1130.1196,299.5893,1125.86,308.4694" style="stroke:#181818;stroke-width:1;stroke-linejoin:miter;stroke-miterlimit:10;"/></g><!--link Admin Review Service to Database Interface--><g class="link" data-entity-1="ent0013" data-entity-2="ent0018" data-link-type="dependency" data-source-line="75" id="lnk55"><path d="M1438.47,232.7394 C1420.25,241.6494 1397,251.5494 1375,256.6094 C1335.55,265.6894 1231.28,251.4294 1193,264.6094 C1166.52,273.7294 1144.7268,290.3149 1128.2568,305.1349" fill="none" id="Admin Review Service-to-Database Interface" style="stroke:#181818;stroke-width:1;"/><polygon fill="#181818" points="1124.54,308.4794,1133.9058,305.4328,1128.2568,305.1349,1128.5547,299.4859,1124.54,308.4794" style="stroke:#181818;stroke-width:1;stroke-linejoin:miter;stroke-miterlimit:10;"/></g><!--link Enterprise Certification Service to Database Interface--><g class="link" data-entity-1="ent0014" data-entity-2="ent0018" data-link-type="dependency" data-source-line="76" id="lnk56"><path d="M1650.59,232.7094 C1627.27,241.7294 1597.55,251.7294 1570,256.6094 C1528.74,263.9094 1232.77,251.4194 1193,264.6094 C1166.42,273.4194 1144.6337,290.0504 1128.1937,304.9604" fill="none" id="Enterprise Certification Service-to-Database Interface" style="stroke:#181818;stroke-width:1;"/><polygon fill="#181818" points="1124.49,308.3194,1133.8438,305.2361,1128.1937,304.9604,1128.4694,299.3103,1124.49,308.3194" style="stroke:#181818;stroke-width:1;stroke-linejoin:miter;stroke-miterlimit:10;"/></g><!--link Search Service to Database Interface--><g class="link" data-entity-1="ent0015" data-entity-2="ent0018" data-link-type="dependency" data-source-line="77" id="lnk57"><path d="M281.37,232.7894 C295.53,241.8294 313.93,251.8394 332,256.6094 C368.96,266.3694 983.69,252.6494 1020,264.6094 C1046.57,273.3594 1068.2389,290.1848 1084.4389,305.1648" fill="none" id="Search Service-to-Database Interface" style="stroke:#181818;stroke-width:1;"/><polygon fill="#181818" points="1088.11,308.5594,1084.2178,299.5122,1084.4389,305.1648,1078.7864,305.3859,1088.11,308.5594" style="stroke:#181818;stroke-width:1;stroke-linejoin:miter;stroke-miterlimit:10;"/></g><!--link Profile Management Service to Database Interface--><g class="link" data-entity-1="ent0016" data-entity-2="ent0018" data-link-type="dependency" data-source-line="78" id="lnk58"><path d="M486.62,232.6394 C508.62,241.7094 536.78,251.7694 563,256.6094 C612.94,265.8194 971.81,248.5794 1020,264.6094 C1046.55,273.4394 1068.2156,290.2484 1084.4256,305.2084" fill="none" id="Profile Management Service-to-Database Interface" style="stroke:#181818;stroke-width:1;"/><polygon fill="#181818" points="1088.1,308.5994,1084.199,299.556,1084.4256,305.2084,1078.7733,305.435,1088.1,308.5994" style="stroke:#181818;stroke-width:1;stroke-linejoin:miter;stroke-miterlimit:10;"/></g><!--link User Authentication Service to Email/SMS Gateway--><g class="link" data-entity-1="ent0008" data-entity-2="ent0019" data-link-type="dependency" data-source-line="80" id="lnk59"><path d="M1150.9,232.8494 C1180.56,253.7394 1224.7529,284.8692 1254.2829,305.6792" fill="none" id="User Authentication Service-to-Email/SMS Gateway" style="stroke:#181818;stroke-width:1;"/><polygon fill="#181818" points="1258.37,308.5594,1253.3174,300.1053,1254.2829,305.6792,1248.7091,306.6447,1258.37,308.5594" style="stroke:#181818;stroke-width:1;stroke-linejoin:miter;stroke-miterlimit:10;"/></g><!--link Enterprise Certification Service to Email/SMS Gateway--><g class="link" data-entity-1="ent0014" data-entity-2="ent0019" data-link-type="dependency" data-source-line="81" id="lnk60"><path d="M1643.35,232.6894 C1621.07,240.5094 1594.36,249.4794 1570,256.6094 C1498.74,277.4494 1421.1459,296.0724 1363.1359,309.2424" fill="none" id="Enterprise Certification Service-to-Email/SMS Gateway" style="stroke:#181818;stroke-width:1;"/><polygon fill="#181818" points="1358.26,310.3494,1367.9222,312.2575,1363.1359,309.2424,1366.1511,304.4561,1358.26,310.3494" style="stroke:#181818;stroke-width:1;stroke-linejoin:miter;stroke-miterlimit:10;"/></g><!--link Notification Service to Email/SMS Gateway--><g class="link" data-entity-1="ent0011" data-entity-2="ent0019" data-link-type="dependency" data-source-line="82" id="lnk61"><path d="M1872.76,232.6994 C1856.61,241.2594 1836.29,250.8494 1817,256.6094 C1658.04,304.0694 1467.8545,319.1341 1363.3945,324.0541" fill="none" id="Notification Service-to-Email/SMS Gateway" style="stroke:#181818;stroke-width:1;"/><polygon fill="#181818" points="1358.4,324.2894,1367.5782,327.8615,1363.3945,324.0541,1367.2018,319.8704,1358.4,324.2894" style="stroke:#181818;stroke-width:1;stroke-linejoin:miter;stroke-miterlimit:10;"/></g><!--link Notification Service to Third-party Messaging APIs--><g class="link" data-entity-1="ent0011" data-entity-2="ent0025" data-link-type="dependency" data-source-line="83" id="lnk62"><path d="M1904,232.9194 C1904,275.8094 1904,377.3694 1904,420.0294" fill="none" id="Notification Service-to-Third-party Messaging APIs" style="stroke:#181818;stroke-width:1;"/><polygon fill="#181818" points="1904,425.0294,1908,416.0294,1904,420.0294,1900,416.0294,1904,425.0294" style="stroke:#181818;stroke-width:1;stroke-linejoin:miter;stroke-miterlimit:10;"/></g><!--link Chat Service to Third-party Messaging APIs--><g class="link" data-entity-1="ent0012" data-entity-2="ent0025" data-link-type="dependency" data-source-line="84" id="lnk63"><path d="M1332.59,232.6294 C1344.98,240.7694 1360.32,250.0094 1375,256.6094 C1550.64,335.5494 1612.25,307.0494 1790,381.1094 C1819.95,393.5894 1847.972,409.0946 1870.532,422.5046" fill="none" id="Chat Service-to-Third-party Messaging APIs" style="stroke:#181818;stroke-width:1;"/><polygon fill="#181818" points="1874.83,425.0594,1869.1374,417.0223,1870.532,422.5046,1865.0497,423.8991,1874.83,425.0594" style="stroke:#181818;stroke-width:1;stroke-linejoin:miter;stroke-miterlimit:10;"/></g><!--link Profile Management Service to File Storage Interface--><g class="link" data-entity-1="ent0016" data-entity-2="ent0020" data-link-type="dependency" data-source-line="86" id="lnk64"><path d="M491.64,232.6294 C512.99,240.7594 539.05,249.9994 563,256.6094 C659.88,283.3394 769.1414,302.8282 842.9814,314.5082" fill="none" id="Profile Management Service-to-File Storage Interface" style="stroke:#181818;stroke-width:1;"/><polygon fill="#181818" points="847.92,315.2894,839.6555,309.9324,842.9814,314.5082,838.4056,317.8341,847.92,315.2894" style="stroke:#181818;stroke-width:1;stroke-linejoin:miter;stroke-miterlimit:10;"/></g><!--link Database Interface to Access Control Module--><g class="link" data-entity-1="ent0018" data-entity-2="ent0027" data-link-type="dependency" data-source-line="88" id="lnk65"><path d="M1106,346.7494 C1106,368.1894 1106,398.6494 1106,420.0494" fill="none" id="Database Interface-to-Access Control Module" style="stroke:#181818;stroke-width:1;"/><polygon fill="#181818" points="1106,425.0494,1110,416.0494,1106,420.0494,1102,416.0494,1106,425.0494" style="stroke:#181818;stroke-width:1;stroke-linejoin:miter;stroke-miterlimit:10;"/></g><!--link Email/SMS Gateway to Encryption Module--><g class="link" data-entity-1="ent0019" data-entity-2="ent0028" data-link-type="dependency" data-source-line="89" id="lnk66"><path d="M1253.13,346.6794 C1236.02,355.6994 1214.01,365.7094 1193,370.6094 C1149.6,380.7394 834.23,366.8594 792,381.1094 C765.67,389.9994 744.1654,406.5903 727.9254,421.4803" fill="none" id="Email/SMS Gateway-to-Encryption Module" style="stroke:#181818;stroke-width:1;"/><polygon fill="#181818" points="724.24,424.8594,733.5769,421.7254,727.9254,421.4803,728.1705,415.8288,724.24,424.8594" style="stroke:#181818;stroke-width:1;stroke-linejoin:miter;stroke-miterlimit:10;"/></g><!--link Chat Service to Encryption Module--><g class="link" data-entity-1="ent0012" data-entity-2="ent0028" data-link-type="dependency" data-source-line="90" id="lnk67"><path d="M1284.57,232.7194 C1271.97,241.7394 1255.5,251.7494 1239,256.6094 C1217.31,262.9994 851.98,254.0094 832,264.6094 C765.82,299.7294 728.5314,382.2237 714.1314,420.2337" fill="none" id="Chat Service-to-Encryption Module" style="stroke:#181818;stroke-width:1;"/><polygon fill="#181818" points="712.36,424.9094,719.289,417.9102,714.1314,420.2337,711.8079,415.076,712.36,424.9094" style="stroke:#181818;stroke-width:1;stroke-linejoin:miter;stroke-miterlimit:10;"/></g><!--link File Storage Interface to Encryption Module--><g class="link" data-entity-1="ent0020" data-entity-2="ent0028" data-link-type="dependency" data-source-line="91" id="lnk68"><path d="M870.55,346.6194 C845.92,355.6394 816.83,367.5394 792,381.1094 C768.91,393.7394 748.6991,408.4944 731.8991,421.8044" fill="none" id="File Storage Interface-to-Encryption Module" style="stroke:#181818;stroke-width:1;"/><polygon fill="#181818" points="727.98,424.9094,737.5183,422.4557,731.8991,421.8044,732.5504,416.1852,727.98,424.9094" style="stroke:#181818;stroke-width:1;stroke-linejoin:miter;stroke-miterlimit:10;"/></g><!--link Risk Control & Audit Logs to Database Interface--><g class="link" data-entity-1="ent0029" data-entity-2="ent0018" data-link-type="dependency" data-source-line="93" id="lnk69"><path d="M930.04,424.9294 C951.54,412.4194 980.88,395.5294 1007,381.1094 C1028.12,369.4494 1047.5825,359.0925 1066.6025,349.1125" fill="none" id="Risk Control &amp; Audit Logs-to-Database Interface" style="stroke:#181818;stroke-width:1;"/><polygon fill="#181818" points="1071.03,346.7894,1061.2019,347.4291,1066.6025,349.1125,1064.919,354.5131,1071.03,346.7894" style="stroke:#181818;stroke-width:1;stroke-linejoin:miter;stroke-miterlimit:10;"/></g><!--link Database Interface to Cloud Storage--><g class="link" data-entity-1="ent0018" data-entity-2="ent0024" data-link-type="dependency" data-source-line="95" id="lnk70"><path d="M1146.2232,349.1517 C1164.9732,358.9317 1183.74,369.0994 1204,381.1094 C1227.55,395.0694 1249.383,409.3561 1268.223,422.0461" fill="none" id="Database Interface-Cloud Storage" style="stroke:#181818;stroke-width:1;"/><polygon fill="#181818" points="1141.79,346.8394,1147.9198,354.5481,1146.2232,349.1517,1151.6196,347.4551,1141.79,346.8394" style="stroke:#181818;stroke-width:1;stroke-linejoin:miter;stroke-miterlimit:10;"/><polygon fill="#181818" points="1272.37,424.8394,1267.14,416.4939,1268.223,422.0461,1262.6708,423.1291,1272.37,424.8394" style="stroke:#181818;stroke-width:1;stroke-linejoin:miter;stroke-miterlimit:10;"/></g><!--link Email/SMS Gateway to University Email Servers--><g class="link" data-entity-1="ent0019" data-entity-2="ent0022" data-link-type="dependency" data-source-line="97" id="lnk71"><path d="M1363.1835,334.6736 C1424.6935,341.0336 1508.63,353.8294 1582,381.1094 C1611.16,391.9494 1637.2563,408.1229 1657.5563,422.2529" fill="none" id="Email/SMS Gateway-University Email Servers" style="stroke:#181818;stroke-width:1;"/><polygon fill="#181818" points="1358.21,334.1594,1366.7509,339.0638,1363.1835,334.6736,1367.5737,331.1062,1358.21,334.1594" style="stroke:#181818;stroke-width:1;stroke-linejoin:miter;stroke-miterlimit:10;"/><polygon fill="#181818" points="1661.66,425.1094,1656.5584,416.6848,1657.5563,422.2529,1651.9881,423.2508,1661.66,425.1094" style="stroke:#181818;stroke-width:1;stroke-linejoin:miter;stroke-miterlimit:10;"/></g><!--link Email/SMS Gateway to Enterprise Email Servers--><g class="link" data-entity-1="ent0019" data-entity-2="ent0023" data-link-type="dependency" data-source-line="98" id="lnk72"><path d="M1318.8802,349.3005 C1355.0202,370.7405 1406.1899,401.0981 1442.2599,422.4981" fill="none" id="Email/SMS Gateway-Enterprise Email Servers" style="stroke:#181818;stroke-width:1;"/><polygon fill="#181818" points="1314.58,346.7494,1320.2795,354.7815,1318.8802,349.3005,1324.3613,347.9012,1314.58,346.7494" style="stroke:#181818;stroke-width:1;stroke-linejoin:miter;stroke-miterlimit:10;"/><polygon fill="#181818" points="1446.56,425.0494,1440.8607,417.017,1442.2599,422.4981,1436.7788,423.8973,1446.56,425.0494" style="stroke:#181818;stroke-width:1;stroke-linejoin:miter;stroke-miterlimit:10;"/></g><!--link Recommendation Engine to GMN73--><g class="link" data-entity-1="ent0010" data-entity-2="ent0074" data-link-type="association" data-source-line="101" id="lnk75"><path d="M691.49,194.6094 C715.11,176.3994 754.23,151.0394 793.5,146.6094 C826.04,142.9394 1939.96,142.9394 1972.5,146.6094 C2014.3,151.3294 2057.39,174.3394 2085.3,192.0894" fill="none" id="Recommendation Engine-GMN73" style="stroke:#181818;stroke-width:1;stroke-dasharray:7,7;"/></g><!--link Access Control Module to GMN76--><g class="link" data-entity-1="ent0027" data-entity-2="ent0077" data-link-type="association" data-source-line="106" id="lnk78"><path d="M1132.38,424.9894 C1159.27,407.0594 1202.95,382.0994 1245.5,375.8594 C1286.94,369.7794 1958.06,369.7794 1999.5,375.8594 C2029.12,380.2094 2059.4,393.1294 2084.48,406.5794" fill="none" id="Access Control Module-GMN76" style="stroke:#181818;stroke-width:1;stroke-dasharray:7,7;"/></g><?plantuml-src bLTDRzim3BtxLt0zzBHWzs4O46HPLw0fYhZ53iCEiiquMcN9aEHsmR3_FifEMZkXrEmOYeyVZyyIywx2ZTG8w-NYVdvxTRE4KWddiinBhn1kHF5DMeHyvpmsCBVbLdeiVMSnozoZrAsmee7IDAtHg7tkTuIov25qhSYd5UMZg14k7XnQkDOUxKQKw2xWJmRm8_TTHJ3uZWKyNFyCfXNzDdPicLUDr1CNKqXACs_Rtl9tb8PiIfR2IwEf-1tQVQ8xQtvHLR0IcloQa3D7-oHBx2FsrSqxlwM30tnylZ1DqsdfTnFh6gbnYbKDWAMkYSh-vDPukM43RSKqyz3S6fyaFayEbe6hrag7i40R2PUZe95CJDJf9h33TJfcwelm0kObpS9Dc0hsGb3Mbs4DvJH2gW_vAeShuV5Px7hhrv0fftc5a2F0ED7oDvcrK7iH7KR_eEKJMXSuxMFtLPBXkFdJmuKoNNN8sblkjz9MCz8Y1LjHGu86KSFyxjfDIycnx6p8U0aqKLAAq2NkwzbJiJ3QMwDWPQfE7IPHsbtRSp-ohgLxVF6-9F5KqiEDgOUKnyg6sUpp6pBZ8IdXyWX6gxpZiNYY1KJrn2DuyMT7N_OvZ728924SOFh9nMB6U-G0iHOdLzNWod_Wd6UIY-perZkBFWQHfey1S7BY_4xK5CcU89e1n8XEj340kMiiILS2Taf1mfb_5180jiLKDMCz9_nOuINyttnm4jYZuISy4mg8eywP7FD0dTiI1qrCvJ_TKuyJDyoK_ndynPxaZ6DsVqNnJn_Jw9w0qmUHQuHpYrGN1MI9TpQb5wxNJyDzDjqUs2u7p_Y64iV45vTC6q-hiQot7imciJoIr1rjr4g9WchqL0FGn2aioU0zdNjHGoCyRUBq6uIkWdCrSvuK0vPOSnb5XP3k96bqoLdgZR5q1cJ6MM2kWXPj8vsZwjn7Sfd1_hLtq5yfIZRqNw02IT3-U7We7JX44CCUJkgqwBg6QWeU_PNaO2j2JvrI8FfwZkijZFUc6LYARra0zvOMEmUYqCOsj60MI96biO4brxMjiLHh8tH7P_Ivg9sJeOv0cL3XFj3rQ-f_?></g></svg>