<svg xmlns="http://www.w3.org/2000/svg" xmlns:xlink="http://www.w3.org/1999/xlink" contentStyleType="text/css" data-diagram-type="CLASS" height="704px" preserveAspectRatio="none" style="width:2345px;height:704px;background:#FFFFFF;" version="1.1" viewBox="0 0 2345 704" width="2345px" zoomAndPan="magnify"><?plantuml 1.2026.6?><defs/><g><!--cluster Frontend System--><g class="cluster" data-qualified-name="Frontend System" data-source-line="5" id="ent0002"><path d="M1549.5,119 L1664.8516,119 A3.75,3.75 0 0 1 1667.3516,121.5 L1674.3516,142.6094 L2267.5,142.6094 A2.5,2.5 0 0 1 2270,145.1094 L2270,216.5 A2.5,2.5 0 0 1 2267.5,219 L1549.5,219 A2.5,2.5 0 0 1 1547,216.5 L1547,121.5 A2.5,2.5 0 0 1 1549.5,119" fill="none" style="stroke:#000000;stroke-width:1.5;"/><line style="stroke:#000000;stroke-width:1.5;" x1="1547" x2="1674.3516" y1="142.6094" y2="142.6094"/><text fill="#000000" font-family="sans-serif" font-size="14" font-weight="700" lengthAdjust="spacing" textLength="114.3516" x="1551" y="135.5332">Frontend System</text></g><!--cluster Backend System--><g class="cluster" data-qualified-name="Backend System" data-source-line="12" id="ent0007"><path d="M1310.5,269 L1423.5547,269 A3.75,3.75 0 0 1 1426.0547,271.5 L1433.0547,292.6094 L2175.5,292.6094 A2.5,2.5 0 0 1 2178,295.1094 L2178,520 A2.5,2.5 0 0 1 2175.5,522.5 L1310.5,522.5 A2.5,2.5 0 0 1 1308,520 L1308,271.5 A2.5,2.5 0 0 1 1310.5,269" fill="none" style="stroke:#000000;stroke-width:1.5;"/><line style="stroke:#000000;stroke-width:1.5;" x1="1308" x2="1433.0547" y1="292.6094" y2="292.6094"/><text fill="#000000" font-family="sans-serif" font-size="14" font-weight="700" lengthAdjust="spacing" textLength="112.0547" x="1312" y="285.5332">Backend System</text></g><!--cluster MyTorch/NNE Framework--><g class="cluster" data-qualified-name="MyTorch.NNE Framework" data-source-line="21" id="ent0014"><path d="M8.5,422.5 L179.8721,422.5 A3.75,3.75 0 0 1 182.3721,425 L189.3721,446.1094 L893.5,446.1094 A2.5,2.5 0 0 1 896,448.6094 L896,520 A2.5,2.5 0 0 1 893.5,522.5 L8.5,522.5 A2.5,2.5 0 0 1 6,520 L6,425 A2.5,2.5 0 0 1 8.5,422.5" fill="none" style="stroke:#000000;stroke-width:1.5;"/><line style="stroke:#000000;stroke-width:1.5;" x1="6" x2="189.3721" y1="446.1094" y2="446.1094"/><text fill="#000000" font-family="sans-serif" font-size="14" font-weight="700" lengthAdjust="spacing" textLength="170.3721" x="10" y="439.0332">MyTorch/NNE Framework</text></g><!--cluster Local Storage--><g class="cluster" data-qualified-name="Local Storage" data-source-line="28" id="ent0019"><path d="M1620.5,584 L1714.0791,584 A3.75,3.75 0 0 1 1716.5791,586.5 L1723.5791,607.6094 L1787.5,607.6094 A2.5,2.5 0 0 1 1790,610.1094 L1790,681.5 A2.5,2.5 0 0 1 1787.5,684 L1620.5,684 A2.5,2.5 0 0 1 1618,681.5 L1618,586.5 A2.5,2.5 0 0 1 1620.5,584" fill="none" style="stroke:#000000;stroke-width:1.5;"/><line style="stroke:#000000;stroke-width:1.5;" x1="1618" x2="1723.5791" y1="607.6094" y2="607.6094"/><text fill="#000000" font-family="sans-serif" font-size="14" font-weight="700" lengthAdjust="spacing" textLength="92.5791" x="1622" y="600.5332">Local Storage</text></g><!--class mainUI--><g class="entity" data-qualified-name="Frontend System.mainUI" data-source-line="6" id="ent0003"><rect fill="#F1F1F1" height="48" rx="2.5" ry="2.5" style="stroke:#181818;stroke-width:0.5;" width="120.71" x="1923.5" y="155"/><ellipse cx="1938.5" cy="171" fill="#ADD1B2" rx="11" ry="11" style="stroke:#181818;stroke-width:1;"/><path d="M1941.2656,166.875 Q1941.4219,166.6563 1941.6094,166.5469 Q1941.7969,166.4375 1942.0156,166.4375 Q1942.3906,166.4375 1942.625,166.7031 Q1942.8594,166.9531 1942.8594,167.5625 L1942.8594,169.0156 Q1942.8594,169.625 1942.625,169.8906 Q1942.3906,170.1563 1942.0156,170.1563 Q1941.6719,170.1563 1941.4688,169.9531 Q1941.2656,169.7656 1941.1563,169.25 Q1941.1094,168.8906 1940.9219,168.7031 Q1940.5938,168.3281 1939.9844,168.1094 Q1939.375,167.8906 1938.75,167.8906 Q1937.9844,167.8906 1937.3438,168.2188 Q1936.7188,168.5469 1936.2188,169.2969 Q1935.7344,170.0469 1935.7344,171.0781 L1935.7344,172.1719 Q1935.7344,173.4063 1936.625,174.2344 Q1937.5156,175.0469 1939.1094,175.0469 Q1940.0469,175.0469 1940.7031,174.7969 Q1941.0938,174.6406 1941.5156,174.2031 Q1941.7813,173.9375 1941.9219,173.8594 Q1942.0781,173.7813 1942.2813,173.7813 Q1942.6094,173.7813 1942.8594,174.0469 Q1943.125,174.2969 1943.125,174.6406 Q1943.125,174.9844 1942.7813,175.3906 Q1942.2813,175.9688 1941.4844,176.2969 Q1940.4063,176.75 1939.1094,176.75 Q1937.5938,176.75 1936.3906,176.125 Q1935.4063,175.625 1934.7188,174.5625 Q1934.0313,173.4844 1934.0313,172.2031 L1934.0313,171.0469 Q1934.0313,169.7188 1934.6406,168.5781 Q1935.2656,167.4219 1936.3594,166.8125 Q1937.4531,166.1875 1938.6875,166.1875 Q1939.4219,166.1875 1940.0625,166.3594 Q1940.7188,166.5156 1941.2656,166.875 Z " fill="#000000"/><text fill="#000000" font-family="sans-serif" font-size="14" lengthAdjust="spacing" textLength="88.71" x="1952.5" y="176.7285">Main Interface</text><line style="stroke:#181818;stroke-width:0.5;" x1="1924.5" x2="2043.21" y1="187" y2="187"/><line style="stroke:#181818;stroke-width:0.5;" x1="1924.5" x2="2043.21" y1="195" y2="195"/></g><!--class configUI--><g class="entity" data-qualified-name="Frontend System.configUI" data-source-line="7" id="ent0004"><rect fill="#F1F1F1" height="48" rx="2.5" ry="2.5" style="stroke:#181818;stroke-width:0.5;" width="173.6406" x="2080" y="155"/><ellipse cx="2095" cy="171" fill="#ADD1B2" rx="11" ry="11" style="stroke:#181818;stroke-width:1;"/><path d="M2097.7656,166.875 Q2097.9219,166.6563 2098.1094,166.5469 Q2098.2969,166.4375 2098.5156,166.4375 Q2098.8906,166.4375 2099.125,166.7031 Q2099.3594,166.9531 2099.3594,167.5625 L2099.3594,169.0156 Q2099.3594,169.625 2099.125,169.8906 Q2098.8906,170.1563 2098.5156,170.1563 Q2098.1719,170.1563 2097.9688,169.9531 Q2097.7656,169.7656 2097.6563,169.25 Q2097.6094,168.8906 2097.4219,168.7031 Q2097.0938,168.3281 2096.4844,168.1094 Q2095.875,167.8906 2095.25,167.8906 Q2094.4844,167.8906 2093.8438,168.2188 Q2093.2188,168.5469 2092.7188,169.2969 Q2092.2344,170.0469 2092.2344,171.0781 L2092.2344,172.1719 Q2092.2344,173.4063 2093.125,174.2344 Q2094.0156,175.0469 2095.6094,175.0469 Q2096.5469,175.0469 2097.2031,174.7969 Q2097.5938,174.6406 2098.0156,174.2031 Q2098.2813,173.9375 2098.4219,173.8594 Q2098.5781,173.7813 2098.7813,173.7813 Q2099.1094,173.7813 2099.3594,174.0469 Q2099.625,174.2969 2099.625,174.6406 Q2099.625,174.9844 2099.2813,175.3906 Q2098.7813,175.9688 2097.9844,176.2969 Q2096.9063,176.75 2095.6094,176.75 Q2094.0938,176.75 2092.8906,176.125 Q2091.9063,175.625 2091.2188,174.5625 Q2090.5313,173.4844 2090.5313,172.2031 L2090.5313,171.0469 Q2090.5313,169.7188 2091.1406,168.5781 Q2091.7656,167.4219 2092.8594,166.8125 Q2093.9531,166.1875 2095.1875,166.1875 Q2095.9219,166.1875 2096.5625,166.3594 Q2097.2188,166.5156 2097.7656,166.875 Z " fill="#000000"/><text fill="#000000" font-family="sans-serif" font-size="14" lengthAdjust="spacing" textLength="141.6406" x="2109" y="176.7285">Configuration Interface</text><line style="stroke:#181818;stroke-width:0.5;" x1="2081" x2="2252.6406" y1="187" y2="187"/><line style="stroke:#181818;stroke-width:0.5;" x1="2081" x2="2252.6406" y1="195" y2="195"/></g><!--class trainUI--><g class="entity" data-qualified-name="Frontend System.trainUI" data-source-line="8" id="ent0005"><rect fill="#F1F1F1" height="48" rx="2.5" ry="2.5" style="stroke:#181818;stroke-width:0.5;" width="140.9443" x="1563.5" y="155"/><ellipse cx="1578.5" cy="171" fill="#ADD1B2" rx="11" ry="11" style="stroke:#181818;stroke-width:1;"/><path d="M1581.2656,166.875 Q1581.4219,166.6563 1581.6094,166.5469 Q1581.7969,166.4375 1582.0156,166.4375 Q1582.3906,166.4375 1582.625,166.7031 Q1582.8594,166.9531 1582.8594,167.5625 L1582.8594,169.0156 Q1582.8594,169.625 1582.625,169.8906 Q1582.3906,170.1563 1582.0156,170.1563 Q1581.6719,170.1563 1581.4688,169.9531 Q1581.2656,169.7656 1581.1563,169.25 Q1581.1094,168.8906 1580.9219,168.7031 Q1580.5938,168.3281 1579.9844,168.1094 Q1579.375,167.8906 1578.75,167.8906 Q1577.9844,167.8906 1577.3438,168.2188 Q1576.7188,168.5469 1576.2188,169.2969 Q1575.7344,170.0469 1575.7344,171.0781 L1575.7344,172.1719 Q1575.7344,173.4063 1576.625,174.2344 Q1577.5156,175.0469 1579.1094,175.0469 Q1580.0469,175.0469 1580.7031,174.7969 Q1581.0938,174.6406 1581.5156,174.2031 Q1581.7813,173.9375 1581.9219,173.8594 Q1582.0781,173.7813 1582.2813,173.7813 Q1582.6094,173.7813 1582.8594,174.0469 Q1583.125,174.2969 1583.125,174.6406 Q1583.125,174.9844 1582.7813,175.3906 Q1582.2813,175.9688 1581.4844,176.2969 Q1580.4063,176.75 1579.1094,176.75 Q1577.5938,176.75 1576.3906,176.125 Q1575.4063,175.625 1574.7188,174.5625 Q1574.0313,173.4844 1574.0313,172.2031 L1574.0313,171.0469 Q1574.0313,169.7188 1574.6406,168.5781 Q1575.2656,167.4219 1576.3594,166.8125 Q1577.4531,166.1875 1578.6875,166.1875 Q1579.4219,166.1875 1580.0625,166.3594 Q1580.7188,166.5156 1581.2656,166.875 Z " fill="#000000"/><text fill="#000000" font-family="sans-serif" font-size="14" lengthAdjust="spacing" textLength="108.9443" x="1592.5" y="176.7285">Training Interface</text><line style="stroke:#181818;stroke-width:0.5;" x1="1564.5" x2="1703.4443" y1="187" y2="187"/><line style="stroke:#181818;stroke-width:0.5;" x1="1564.5" x2="1703.4443" y1="195" y2="195"/></g><!--class inferUI--><g class="entity" data-qualified-name="Frontend System.inferUI" data-source-line="9" id="ent0006"><rect fill="#F1F1F1" height="48" rx="2.5" ry="2.5" style="stroke:#181818;stroke-width:0.5;" width="148.7373" x="1739.5" y="155"/><ellipse cx="1754.5" cy="171" fill="#ADD1B2" rx="11" ry="11" style="stroke:#181818;stroke-width:1;"/><path d="M1757.2656,166.875 Q1757.4219,166.6563 1757.6094,166.5469 Q1757.7969,166.4375 1758.0156,166.4375 Q1758.3906,166.4375 1758.625,166.7031 Q1758.8594,166.9531 1758.8594,167.5625 L1758.8594,169.0156 Q1758.8594,169.625 1758.625,169.8906 Q1758.3906,170.1563 1758.0156,170.1563 Q1757.6719,170.1563 1757.4688,169.9531 Q1757.2656,169.7656 1757.1563,169.25 Q1757.1094,168.8906 1756.9219,168.7031 Q1756.5938,168.3281 1755.9844,168.1094 Q1755.375,167.8906 1754.75,167.8906 Q1753.9844,167.8906 1753.3438,168.2188 Q1752.7188,168.5469 1752.2188,169.2969 Q1751.7344,170.0469 1751.7344,171.0781 L1751.7344,172.1719 Q1751.7344,173.4063 1752.625,174.2344 Q1753.5156,175.0469 1755.1094,175.0469 Q1756.0469,175.0469 1756.7031,174.7969 Q1757.0938,174.6406 1757.5156,174.2031 Q1757.7813,173.9375 1757.9219,173.8594 Q1758.0781,173.7813 1758.2813,173.7813 Q1758.6094,173.7813 1758.8594,174.0469 Q1759.125,174.2969 1759.125,174.6406 Q1759.125,174.9844 1758.7813,175.3906 Q1758.2813,175.9688 1757.4844,176.2969 Q1756.4063,176.75 1755.1094,176.75 Q1753.5938,176.75 1752.3906,176.125 Q1751.4063,175.625 1750.7188,174.5625 Q1750.0313,173.4844 1750.0313,172.2031 L1750.0313,171.0469 Q1750.0313,169.7188 1750.6406,168.5781 Q1751.2656,167.4219 1752.3594,166.8125 Q1753.4531,166.1875 1754.6875,166.1875 Q1755.4219,166.1875 1756.0625,166.3594 Q1756.7188,166.5156 1757.2656,166.875 Z " fill="#000000"/><text fill="#000000" font-family="sans-serif" font-size="14" lengthAdjust="spacing" textLength="116.7373" x="1768.5" y="176.7285">Inference Interface</text><line style="stroke:#181818;stroke-width:0.5;" x1="1740.5" x2="1887.2373" y1="187" y2="187"/><line style="stroke:#181818;stroke-width:0.5;" x1="1740.5" x2="1887.2373" y1="195" y2="195"/></g><!--class modelConfigService--><g class="entity" data-qualified-name="Backend System.modelConfigService" data-source-line="13" id="ent0008"><rect fill="#F1F1F1" height="48" rx="2.5" ry="2.5" style="stroke:#181818;stroke-width:0.5;" width="207.8682" x="1954" y="305"/><ellipse cx="1969" cy="321" fill="#ADD1B2" rx="11" ry="11" style="stroke:#181818;stroke-width:1;"/><path d="M1971.7656,316.875 Q1971.9219,316.6563 1972.1094,316.5469 Q1972.2969,316.4375 1972.5156,316.4375 Q1972.8906,316.4375 1973.125,316.7031 Q1973.3594,316.9531 1973.3594,317.5625 L1973.3594,319.0156 Q1973.3594,319.625 1973.125,319.8906 Q1972.8906,320.1563 1972.5156,320.1563 Q1972.1719,320.1563 1971.9688,319.9531 Q1971.7656,319.7656 1971.6563,319.25 Q1971.6094,318.8906 1971.4219,318.7031 Q1971.0938,318.3281 1970.4844,318.1094 Q1969.875,317.8906 1969.25,317.8906 Q1968.4844,317.8906 1967.8438,318.2188 Q1967.2188,318.5469 1966.7188,319.2969 Q1966.2344,320.0469 1966.2344,321.0781 L1966.2344,322.1719 Q1966.2344,323.4063 1967.125,324.2344 Q1968.0156,325.0469 1969.6094,325.0469 Q1970.5469,325.0469 1971.2031,324.7969 Q1971.5938,324.6406 1972.0156,324.2031 Q1972.2813,323.9375 1972.4219,323.8594 Q1972.5781,323.7813 1972.7813,323.7813 Q1973.1094,323.7813 1973.3594,324.0469 Q1973.625,324.2969 1973.625,324.6406 Q1973.625,324.9844 1973.2813,325.3906 Q1972.7813,325.9688 1971.9844,326.2969 Q1970.9063,326.75 1969.6094,326.75 Q1968.0938,326.75 1966.8906,326.125 Q1965.9063,325.625 1965.2188,324.5625 Q1964.5313,323.4844 1964.5313,322.2031 L1964.5313,321.0469 Q1964.5313,319.7188 1965.1406,318.5781 Q1965.7656,317.4219 1966.8594,316.8125 Q1967.9531,316.1875 1969.1875,316.1875 Q1969.9219,316.1875 1970.5625,316.3594 Q1971.2188,316.5156 1971.7656,316.875 Z " fill="#000000"/><text fill="#000000" font-family="sans-serif" font-size="14" lengthAdjust="spacing" textLength="175.8682" x="1983" y="326.7285">Model Configuration Service</text><line style="stroke:#181818;stroke-width:0.5;" x1="1955" x2="2160.8682" y1="337" y2="337"/><line style="stroke:#181818;stroke-width:0.5;" x1="1955" x2="2160.8682" y1="345" y2="345"/></g><!--class dataLoadingService--><g class="entity" data-qualified-name="Backend System.dataLoadingService" data-source-line="14" id="ent0009"><rect fill="#F1F1F1" height="48" rx="2.5" ry="2.5" style="stroke:#181818;stroke-width:0.5;" width="165.8613" x="1324" y="305"/><ellipse cx="1339" cy="321" fill="#ADD1B2" rx="11" ry="11" style="stroke:#181818;stroke-width:1;"/><path d="M1341.7656,316.875 Q1341.9219,316.6563 1342.1094,316.5469 Q1342.2969,316.4375 1342.5156,316.4375 Q1342.8906,316.4375 1343.125,316.7031 Q1343.3594,316.9531 1343.3594,317.5625 L1343.3594,319.0156 Q1343.3594,319.625 1343.125,319.8906 Q1342.8906,320.1563 1342.5156,320.1563 Q1342.1719,320.1563 1341.9688,319.9531 Q1341.7656,319.7656 1341.6563,319.25 Q1341.6094,318.8906 1341.4219,318.7031 Q1341.0938,318.3281 1340.4844,318.1094 Q1339.875,317.8906 1339.25,317.8906 Q1338.4844,317.8906 1337.8438,318.2188 Q1337.2188,318.5469 1336.7188,319.2969 Q1336.2344,320.0469 1336.2344,321.0781 L1336.2344,322.1719 Q1336.2344,323.4063 1337.125,324.2344 Q1338.0156,325.0469 1339.6094,325.0469 Q1340.5469,325.0469 1341.2031,324.7969 Q1341.5938,324.6406 1342.0156,324.2031 Q1342.2813,323.9375 1342.4219,323.8594 Q1342.5781,323.7813 1342.7813,323.7813 Q1343.1094,323.7813 1343.3594,324.0469 Q1343.625,324.2969 1343.625,324.6406 Q1343.625,324.9844 1343.2813,325.3906 Q1342.7813,325.9688 1341.9844,326.2969 Q1340.9063,326.75 1339.6094,326.75 Q1338.0938,326.75 1336.8906,326.125 Q1335.9063,325.625 1335.2188,324.5625 Q1334.5313,323.4844 1334.5313,322.2031 L1334.5313,321.0469 Q1334.5313,319.7188 1335.1406,318.5781 Q1335.7656,317.4219 1336.8594,316.8125 Q1337.9531,316.1875 1339.1875,316.1875 Q1339.9219,316.1875 1340.5625,316.3594 Q1341.2188,316.5156 1341.7656,316.875 Z " fill="#000000"/><text fill="#000000" font-family="sans-serif" font-size="14" lengthAdjust="spacing" textLength="133.8613" x="1353" y="326.7285">Data Loading Service</text><line style="stroke:#181818;stroke-width:0.5;" x1="1325" x2="1488.8613" y1="337" y2="337"/><line style="stroke:#181818;stroke-width:0.5;" x1="1325" x2="1488.8613" y1="345" y2="345"/></g><!--class modelTrainService--><g class="entity" data-qualified-name="Backend System.modelTrainService" data-source-line="15" id="ent0010"><rect fill="#F1F1F1" height="48" rx="2.5" ry="2.5" style="stroke:#181818;stroke-width:0.5;" width="175.1719" x="1525.5" y="305"/><ellipse cx="1540.5" cy="321" fill="#ADD1B2" rx="11" ry="11" style="stroke:#181818;stroke-width:1;"/><path d="M1543.2656,316.875 Q1543.4219,316.6563 1543.6094,316.5469 Q1543.7969,316.4375 1544.0156,316.4375 Q1544.3906,316.4375 1544.625,316.7031 Q1544.8594,316.9531 1544.8594,317.5625 L1544.8594,319.0156 Q1544.8594,319.625 1544.625,319.8906 Q1544.3906,320.1563 1544.0156,320.1563 Q1543.6719,320.1563 1543.4688,319.9531 Q1543.2656,319.7656 1543.1563,319.25 Q1543.1094,318.8906 1542.9219,318.7031 Q1542.5938,318.3281 1541.9844,318.1094 Q1541.375,317.8906 1540.75,317.8906 Q1539.9844,317.8906 1539.3438,318.2188 Q1538.7188,318.5469 1538.2188,319.2969 Q1537.7344,320.0469 1537.7344,321.0781 L1537.7344,322.1719 Q1537.7344,323.4063 1538.625,324.2344 Q1539.5156,325.0469 1541.1094,325.0469 Q1542.0469,325.0469 1542.7031,324.7969 Q1543.0938,324.6406 1543.5156,324.2031 Q1543.7813,323.9375 1543.9219,323.8594 Q1544.0781,323.7813 1544.2813,323.7813 Q1544.6094,323.7813 1544.8594,324.0469 Q1545.125,324.2969 1545.125,324.6406 Q1545.125,324.9844 1544.7813,325.3906 Q1544.2813,325.9688 1543.4844,326.2969 Q1542.4063,326.75 1541.1094,326.75 Q1539.5938,326.75 1538.3906,326.125 Q1537.4063,325.625 1536.7188,324.5625 Q1536.0313,323.4844 1536.0313,322.2031 L1536.0313,321.0469 Q1536.0313,319.7188 1536.6406,318.5781 Q1537.2656,317.4219 1538.3594,316.8125 Q1539.4531,316.1875 1540.6875,316.1875 Q1541.4219,316.1875 1542.0625,316.3594 Q1542.7188,316.5156 1543.2656,316.875 Z " fill="#000000"/><text fill="#000000" font-family="sans-serif" font-size="14" lengthAdjust="spacing" textLength="143.1719" x="1554.5" y="326.7285">Model Training Service</text><line style="stroke:#181818;stroke-width:0.5;" x1="1526.5" x2="1699.6719" y1="337" y2="337"/><line style="stroke:#181818;stroke-width:0.5;" x1="1526.5" x2="1699.6719" y1="345" y2="345"/></g><!--class modelInferService--><g class="entity" data-qualified-name="Backend System.modelInferService" data-source-line="16" id="ent0011"><rect fill="#F1F1F1" height="48" rx="2.5" ry="2.5" style="stroke:#181818;stroke-width:0.5;" width="182.9648" x="1735.5" y="305"/><ellipse cx="1750.5" cy="321" fill="#ADD1B2" rx="11" ry="11" style="stroke:#181818;stroke-width:1;"/><path d="M1753.2656,316.875 Q1753.4219,316.6563 1753.6094,316.5469 Q1753.7969,316.4375 1754.0156,316.4375 Q1754.3906,316.4375 1754.625,316.7031 Q1754.8594,316.9531 1754.8594,317.5625 L1754.8594,319.0156 Q1754.8594,319.625 1754.625,319.8906 Q1754.3906,320.1563 1754.0156,320.1563 Q1753.6719,320.1563 1753.4688,319.9531 Q1753.2656,319.7656 1753.1563,319.25 Q1753.1094,318.8906 1752.9219,318.7031 Q1752.5938,318.3281 1751.9844,318.1094 Q1751.375,317.8906 1750.75,317.8906 Q1749.9844,317.8906 1749.3438,318.2188 Q1748.7188,318.5469 1748.2188,319.2969 Q1747.7344,320.0469 1747.7344,321.0781 L1747.7344,322.1719 Q1747.7344,323.4063 1748.625,324.2344 Q1749.5156,325.0469 1751.1094,325.0469 Q1752.0469,325.0469 1752.7031,324.7969 Q1753.0938,324.6406 1753.5156,324.2031 Q1753.7813,323.9375 1753.9219,323.8594 Q1754.0781,323.7813 1754.2813,323.7813 Q1754.6094,323.7813 1754.8594,324.0469 Q1755.125,324.2969 1755.125,324.6406 Q1755.125,324.9844 1754.7813,325.3906 Q1754.2813,325.9688 1753.4844,326.2969 Q1752.4063,326.75 1751.1094,326.75 Q1749.5938,326.75 1748.3906,326.125 Q1747.4063,325.625 1746.7188,324.5625 Q1746.0313,323.4844 1746.0313,322.2031 L1746.0313,321.0469 Q1746.0313,319.7188 1746.6406,318.5781 Q1747.2656,317.4219 1748.3594,316.8125 Q1749.4531,316.1875 1750.6875,316.1875 Q1751.4219,316.1875 1752.0625,316.3594 Q1752.7188,316.5156 1753.2656,316.875 Z " fill="#000000"/><text fill="#000000" font-family="sans-serif" font-size="14" lengthAdjust="spacing" textLength="150.9648" x="1764.5" y="326.7285">Model Inference Service</text><line style="stroke:#181818;stroke-width:0.5;" x1="1736.5" x2="1917.4648" y1="337" y2="337"/><line style="stroke:#181818;stroke-width:0.5;" x1="1736.5" x2="1917.4648" y1="345" y2="345"/></g><!--class frameworkExtService--><g class="entity" data-qualified-name="Backend System.frameworkExtService" data-source-line="17" id="ent0012"><rect fill="#F1F1F1" height="48" rx="2.5" ry="2.5" style="stroke:#181818;stroke-width:0.5;" width="217.9512" x="1942" y="458.5"/><ellipse cx="1957" cy="474.5" fill="#ADD1B2" rx="11" ry="11" style="stroke:#181818;stroke-width:1;"/><path d="M1959.7656,470.375 Q1959.9219,470.1563 1960.1094,470.0469 Q1960.2969,469.9375 1960.5156,469.9375 Q1960.8906,469.9375 1961.125,470.2031 Q1961.3594,470.4531 1961.3594,471.0625 L1961.3594,472.5156 Q1961.3594,473.125 1961.125,473.3906 Q1960.8906,473.6563 1960.5156,473.6563 Q1960.1719,473.6563 1959.9688,473.4531 Q1959.7656,473.2656 1959.6563,472.75 Q1959.6094,472.3906 1959.4219,472.2031 Q1959.0938,471.8281 1958.4844,471.6094 Q1957.875,471.3906 1957.25,471.3906 Q1956.4844,471.3906 1955.8438,471.7188 Q1955.2188,472.0469 1954.7188,472.7969 Q1954.2344,473.5469 1954.2344,474.5781 L1954.2344,475.6719 Q1954.2344,476.9063 1955.125,477.7344 Q1956.0156,478.5469 1957.6094,478.5469 Q1958.5469,478.5469 1959.2031,478.2969 Q1959.5938,478.1406 1960.0156,477.7031 Q1960.2813,477.4375 1960.4219,477.3594 Q1960.5781,477.2813 1960.7813,477.2813 Q1961.1094,477.2813 1961.3594,477.5469 Q1961.625,477.7969 1961.625,478.1406 Q1961.625,478.4844 1961.2813,478.8906 Q1960.7813,479.4688 1959.9844,479.7969 Q1958.9063,480.25 1957.6094,480.25 Q1956.0938,480.25 1954.8906,479.625 Q1953.9063,479.125 1953.2188,478.0625 Q1952.5313,476.9844 1952.5313,475.7031 L1952.5313,474.5469 Q1952.5313,473.2188 1953.1406,472.0781 Q1953.7656,470.9219 1954.8594,470.3125 Q1955.9531,469.6875 1957.1875,469.6875 Q1957.9219,469.6875 1958.5625,469.8594 Q1959.2188,470.0156 1959.7656,470.375 Z " fill="#000000"/><text fill="#000000" font-family="sans-serif" font-size="14" lengthAdjust="spacing" textLength="185.9512" x="1971" y="480.2285">Framework Extension Service</text><line style="stroke:#181818;stroke-width:0.5;" x1="1943" x2="2158.9512" y1="490.5" y2="490.5"/><line style="stroke:#181818;stroke-width:0.5;" x1="1943" x2="2158.9512" y1="498.5" y2="498.5"/></g><!--class dbPersistService--><g class="entity" data-qualified-name="Backend System.dbPersistService" data-source-line="18" id="ent0013"><rect fill="#F1F1F1" height="48" rx="2.5" ry="2.5" style="stroke:#181818;stroke-width:0.5;" width="219.5371" x="1594" y="458.5"/><ellipse cx="1609" cy="474.5" fill="#ADD1B2" rx="11" ry="11" style="stroke:#181818;stroke-width:1;"/><path d="M1611.7656,470.375 Q1611.9219,470.1563 1612.1094,470.0469 Q1612.2969,469.9375 1612.5156,469.9375 Q1612.8906,469.9375 1613.125,470.2031 Q1613.3594,470.4531 1613.3594,471.0625 L1613.3594,472.5156 Q1613.3594,473.125 1613.125,473.3906 Q1612.8906,473.6563 1612.5156,473.6563 Q1612.1719,473.6563 1611.9688,473.4531 Q1611.7656,473.2656 1611.6563,472.75 Q1611.6094,472.3906 1611.4219,472.2031 Q1611.0938,471.8281 1610.4844,471.6094 Q1609.875,471.3906 1609.25,471.3906 Q1608.4844,471.3906 1607.8438,471.7188 Q1607.2188,472.0469 1606.7188,472.7969 Q1606.2344,473.5469 1606.2344,474.5781 L1606.2344,475.6719 Q1606.2344,476.9063 1607.125,477.7344 Q1608.0156,478.5469 1609.6094,478.5469 Q1610.5469,478.5469 1611.2031,478.2969 Q1611.5938,478.1406 1612.0156,477.7031 Q1612.2813,477.4375 1612.4219,477.3594 Q1612.5781,477.2813 1612.7813,477.2813 Q1613.1094,477.2813 1613.3594,477.5469 Q1613.625,477.7969 1613.625,478.1406 Q1613.625,478.4844 1613.2813,478.8906 Q1612.7813,479.4688 1611.9844,479.7969 Q1610.9063,480.25 1609.6094,480.25 Q1608.0938,480.25 1606.8906,479.625 Q1605.9063,479.125 1605.2188,478.0625 Q1604.5313,476.9844 1604.5313,475.7031 L1604.5313,474.5469 Q1604.5313,473.2188 1605.1406,472.0781 Q1605.7656,470.9219 1606.8594,470.3125 Q1607.9531,469.6875 1609.1875,469.6875 Q1609.9219,469.6875 1610.5625,469.8594 Q1611.2188,470.0156 1611.7656,470.375 Z " fill="#000000"/><text fill="#000000" font-family="sans-serif" font-size="14" lengthAdjust="spacing" textLength="187.5371" x="1623" y="480.2285">Database Persistence Service</text><line style="stroke:#181818;stroke-width:0.5;" x1="1595" x2="1812.5371" y1="490.5" y2="490.5"/><line style="stroke:#181818;stroke-width:0.5;" x1="1595" x2="1812.5371" y1="498.5" y2="498.5"/></g><!--class gpuModule--><g class="entity" data-qualified-name="MyTorch.NNE Framework.gpuModule" data-source-line="22" id="ent0015"><rect fill="#F1F1F1" height="48" rx="2.5" ry="2.5" style="stroke:#181818;stroke-width:0.5;" width="193.0752" x="238.5" y="458.5"/><ellipse cx="253.5" cy="474.5" fill="#ADD1B2" rx="11" ry="11" style="stroke:#181818;stroke-width:1;"/><path d="M256.2656,470.375 Q256.4219,470.1563 256.6094,470.0469 Q256.7969,469.9375 257.0156,469.9375 Q257.3906,469.9375 257.625,470.2031 Q257.8594,470.4531 257.8594,471.0625 L257.8594,472.5156 Q257.8594,473.125 257.625,473.3906 Q257.3906,473.6563 257.0156,473.6563 Q256.6719,473.6563 256.4688,473.4531 Q256.2656,473.2656 256.1563,472.75 Q256.1094,472.3906 255.9219,472.2031 Q255.5938,471.8281 254.9844,471.6094 Q254.375,471.3906 253.75,471.3906 Q252.9844,471.3906 252.3438,471.7188 Q251.7188,472.0469 251.2188,472.7969 Q250.7344,473.5469 250.7344,474.5781 L250.7344,475.6719 Q250.7344,476.9063 251.625,477.7344 Q252.5156,478.5469 254.1094,478.5469 Q255.0469,478.5469 255.7031,478.2969 Q256.0938,478.1406 256.5156,477.7031 Q256.7813,477.4375 256.9219,477.3594 Q257.0781,477.2813 257.2813,477.2813 Q257.6094,477.2813 257.8594,477.5469 Q258.125,477.7969 258.125,478.1406 Q258.125,478.4844 257.7813,478.8906 Q257.2813,479.4688 256.4844,479.7969 Q255.4063,480.25 254.1094,480.25 Q252.5938,480.25 251.3906,479.625 Q250.4063,479.125 249.7188,478.0625 Q249.0313,476.9844 249.0313,475.7031 L249.0313,474.5469 Q249.0313,473.2188 249.6406,472.0781 Q250.2656,470.9219 251.3594,470.3125 Q252.4531,469.6875 253.6875,469.6875 Q254.4219,469.6875 255.0625,469.8594 Q255.7188,470.0156 256.2656,470.375 Z " fill="#000000"/><text fill="#000000" font-family="sans-serif" font-size="14" lengthAdjust="spacing" textLength="161.0752" x="267.5" y="480.2285">GPU Acceleration Module</text><line style="stroke:#181818;stroke-width:0.5;" x1="239.5" x2="430.5752" y1="490.5" y2="490.5"/><line style="stroke:#181818;stroke-width:0.5;" x1="239.5" x2="430.5752" y1="498.5" y2="498.5"/></g><!--class weightInitModule--><g class="entity" data-qualified-name="MyTorch.NNE Framework.weightInitModule" data-source-line="23" id="ent0016"><rect fill="#F1F1F1" height="48" rx="2.5" ry="2.5" style="stroke:#181818;stroke-width:0.5;" width="202.4199" x="467" y="458.5"/><ellipse cx="482" cy="474.5" fill="#ADD1B2" rx="11" ry="11" style="stroke:#181818;stroke-width:1;"/><path d="M484.7656,470.375 Q484.9219,470.1563 485.1094,470.0469 Q485.2969,469.9375 485.5156,469.9375 Q485.8906,469.9375 486.125,470.2031 Q486.3594,470.4531 486.3594,471.0625 L486.3594,472.5156 Q486.3594,473.125 486.125,473.3906 Q485.8906,473.6563 485.5156,473.6563 Q485.1719,473.6563 484.9688,473.4531 Q484.7656,473.2656 484.6563,472.75 Q484.6094,472.3906 484.4219,472.2031 Q484.0938,471.8281 483.4844,471.6094 Q482.875,471.3906 482.25,471.3906 Q481.4844,471.3906 480.8438,471.7188 Q480.2188,472.0469 479.7188,472.7969 Q479.2344,473.5469 479.2344,474.5781 L479.2344,475.6719 Q479.2344,476.9063 480.125,477.7344 Q481.0156,478.5469 482.6094,478.5469 Q483.5469,478.5469 484.2031,478.2969 Q484.5938,478.1406 485.0156,477.7031 Q485.2813,477.4375 485.4219,477.3594 Q485.5781,477.2813 485.7813,477.2813 Q486.1094,477.2813 486.3594,477.5469 Q486.625,477.7969 486.625,478.1406 Q486.625,478.4844 486.2813,478.8906 Q485.7813,479.4688 484.9844,479.7969 Q483.9063,480.25 482.6094,480.25 Q481.0938,480.25 479.8906,479.625 Q478.9063,479.125 478.2188,478.0625 Q477.5313,476.9844 477.5313,475.7031 L477.5313,474.5469 Q477.5313,473.2188 478.1406,472.0781 Q478.7656,470.9219 479.8594,470.3125 Q480.9531,469.6875 482.1875,469.6875 Q482.9219,469.6875 483.5625,469.8594 Q484.2188,470.0156 484.7656,470.375 Z " fill="#000000"/><text fill="#000000" font-family="sans-serif" font-size="14" lengthAdjust="spacing" textLength="170.4199" x="496" y="480.2285">Weight Initialization Module</text><line style="stroke:#181818;stroke-width:0.5;" x1="468" x2="668.4199" y1="490.5" y2="490.5"/><line style="stroke:#181818;stroke-width:0.5;" x1="468" x2="668.4199" y1="498.5" y2="498.5"/></g><!--class classicModelsModule--><g class="entity" data-qualified-name="MyTorch.NNE Framework.classicModelsModule" data-source-line="24" id="ent0017"><rect fill="#F1F1F1" height="48" rx="2.5" ry="2.5" style="stroke:#181818;stroke-width:0.5;" width="175.9443" x="704" y="458.5"/><ellipse cx="719" cy="474.5" fill="#ADD1B2" rx="11" ry="11" style="stroke:#181818;stroke-width:1;"/><path d="M721.7656,470.375 Q721.9219,470.1563 722.1094,470.0469 Q722.2969,469.9375 722.5156,469.9375 Q722.8906,469.9375 723.125,470.2031 Q723.3594,470.4531 723.3594,471.0625 L723.3594,472.5156 Q723.3594,473.125 723.125,473.3906 Q722.8906,473.6563 722.5156,473.6563 Q722.1719,473.6563 721.9688,473.4531 Q721.7656,473.2656 721.6563,472.75 Q721.6094,472.3906 721.4219,472.2031 Q721.0938,471.8281 720.4844,471.6094 Q719.875,471.3906 719.25,471.3906 Q718.4844,471.3906 717.8438,471.7188 Q717.2188,472.0469 716.7188,472.7969 Q716.2344,473.5469 716.2344,474.5781 L716.2344,475.6719 Q716.2344,476.9063 717.125,477.7344 Q718.0156,478.5469 719.6094,478.5469 Q720.5469,478.5469 721.2031,478.2969 Q721.5938,478.1406 722.0156,477.7031 Q722.2813,477.4375 722.4219,477.3594 Q722.5781,477.2813 722.7813,477.2813 Q723.1094,477.2813 723.3594,477.5469 Q723.625,477.7969 723.625,478.1406 Q723.625,478.4844 723.2813,478.8906 Q722.7813,479.4688 721.9844,479.7969 Q720.9063,480.25 719.6094,480.25 Q718.0938,480.25 716.8906,479.625 Q715.9063,479.125 715.2188,478.0625 Q714.5313,476.9844 714.5313,475.7031 L714.5313,474.5469 Q714.5313,473.2188 715.1406,472.0781 Q715.7656,470.9219 716.8594,470.3125 Q717.9531,469.6875 719.1875,469.6875 Q719.9219,469.6875 720.5625,469.8594 Q721.2188,470.0156 721.7656,470.375 Z " fill="#000000"/><text fill="#000000" font-family="sans-serif" font-size="14" lengthAdjust="spacing" textLength="143.9443" x="733" y="480.2285">Classic Models Module</text><line style="stroke:#181818;stroke-width:0.5;" x1="705" x2="878.9443" y1="490.5" y2="490.5"/><line style="stroke:#181818;stroke-width:0.5;" x1="705" x2="878.9443" y1="498.5" y2="498.5"/></g><!--class presetDatasetsModule--><g class="entity" data-qualified-name="MyTorch.NNE Framework.presetDatasetsModule" data-source-line="25" id="ent0018"><rect fill="#F1F1F1" height="48" rx="2.5" ry="2.5" style="stroke:#181818;stroke-width:0.5;" width="181.4063" x="22.5" y="458.5"/><ellipse cx="37.5" cy="474.5" fill="#ADD1B2" rx="11" ry="11" style="stroke:#181818;stroke-width:1;"/><path d="M40.2656,470.375 Q40.4219,470.1563 40.6094,470.0469 Q40.7969,469.9375 41.0156,469.9375 Q41.3906,469.9375 41.625,470.2031 Q41.8594,470.4531 41.8594,471.0625 L41.8594,472.5156 Q41.8594,473.125 41.625,473.3906 Q41.3906,473.6563 41.0156,473.6563 Q40.6719,473.6563 40.4688,473.4531 Q40.2656,473.2656 40.1563,472.75 Q40.1094,472.3906 39.9219,472.2031 Q39.5938,471.8281 38.9844,471.6094 Q38.375,471.3906 37.75,471.3906 Q36.9844,471.3906 36.3438,471.7188 Q35.7188,472.0469 35.2188,472.7969 Q34.7344,473.5469 34.7344,474.5781 L34.7344,475.6719 Q34.7344,476.9063 35.625,477.7344 Q36.5156,478.5469 38.1094,478.5469 Q39.0469,478.5469 39.7031,478.2969 Q40.0938,478.1406 40.5156,477.7031 Q40.7813,477.4375 40.9219,477.3594 Q41.0781,477.2813 41.2813,477.2813 Q41.6094,477.2813 41.8594,477.5469 Q42.125,477.7969 42.125,478.1406 Q42.125,478.4844 41.7813,478.8906 Q41.2813,479.4688 40.4844,479.7969 Q39.4063,480.25 38.1094,480.25 Q36.5938,480.25 35.3906,479.625 Q34.4063,479.125 33.7188,478.0625 Q33.0313,476.9844 33.0313,475.7031 L33.0313,474.5469 Q33.0313,473.2188 33.6406,472.0781 Q34.2656,470.9219 35.3594,470.3125 Q36.4531,469.6875 37.6875,469.6875 Q38.4219,469.6875 39.0625,469.8594 Q39.7188,470.0156 40.2656,470.375 Z " fill="#000000"/><text fill="#000000" font-family="sans-serif" font-size="14" lengthAdjust="spacing" textLength="149.4063" x="51.5" y="480.2285">Preset Datasets Module</text><line style="stroke:#181818;stroke-width:0.5;" x1="23.5" x2="202.9063" y1="490.5" y2="490.5"/><line style="stroke:#181818;stroke-width:0.5;" x1="23.5" x2="202.9063" y1="498.5" y2="498.5"/></g><!--class sqliteDB--><g class="entity" data-qualified-name="Local Storage.sqliteDB" data-source-line="29" id="ent0020"><rect fill="#F1F1F1" height="48" rx="2.5" ry="2.5" style="stroke:#181818;stroke-width:0.5;" width="138.6201" x="1634.5" y="620"/><ellipse cx="1649.5" cy="636" fill="#ADD1B2" rx="11" ry="11" style="stroke:#181818;stroke-width:1;"/><path d="M1652.2656,631.875 Q1652.4219,631.6563 1652.6094,631.5469 Q1652.7969,631.4375 1653.0156,631.4375 Q1653.3906,631.4375 1653.625,631.7031 Q1653.8594,631.9531 1653.8594,632.5625 L1653.8594,634.0156 Q1653.8594,634.625 1653.625,634.8906 Q1653.3906,635.1563 1653.0156,635.1563 Q1652.6719,635.1563 1652.4688,634.9531 Q1652.2656,634.7656 1652.1563,634.25 Q1652.1094,633.8906 1651.9219,633.7031 Q1651.5938,633.3281 1650.9844,633.1094 Q1650.375,632.8906 1649.75,632.8906 Q1648.9844,632.8906 1648.3438,633.2188 Q1647.7188,633.5469 1647.2188,634.2969 Q1646.7344,635.0469 1646.7344,636.0781 L1646.7344,637.1719 Q1646.7344,638.4063 1647.625,639.2344 Q1648.5156,640.0469 1650.1094,640.0469 Q1651.0469,640.0469 1651.7031,639.7969 Q1652.0938,639.6406 1652.5156,639.2031 Q1652.7813,638.9375 1652.9219,638.8594 Q1653.0781,638.7813 1653.2813,638.7813 Q1653.6094,638.7813 1653.8594,639.0469 Q1654.125,639.2969 1654.125,639.6406 Q1654.125,639.9844 1653.7813,640.3906 Q1653.2813,640.9688 1652.4844,641.2969 Q1651.4063,641.75 1650.1094,641.75 Q1648.5938,641.75 1647.3906,641.125 Q1646.4063,640.625 1645.7188,639.5625 Q1645.0313,638.4844 1645.0313,637.2031 L1645.0313,636.0469 Q1645.0313,634.7188 1645.6406,633.5781 Q1646.2656,632.4219 1647.3594,631.8125 Q1648.4531,631.1875 1649.6875,631.1875 Q1650.4219,631.1875 1651.0625,631.3594 Q1651.7188,631.5156 1652.2656,631.875 Z " fill="#000000"/><text fill="#000000" font-family="sans-serif" font-size="14" lengthAdjust="spacing" textLength="106.6201" x="1663.5" y="641.7285">SQLite Database</text><line style="stroke:#181818;stroke-width:0.5;" x1="1635.5" x2="1772.1201" y1="652" y2="652"/><line style="stroke:#181818;stroke-width:0.5;" x1="1635.5" x2="1772.1201" y1="660" y2="660"/></g><!--class user--><g class="entity" data-qualified-name="user" data-source-line="3" id="ent0001"><rect fill="#F1F1F1" height="48" rx="2.5" ry="2.5" style="stroke:#181818;stroke-width:0.5;" width="61.5586" x="1863" y="7"/><ellipse cx="1878" cy="23" fill="#ADD1B2" rx="11" ry="11" style="stroke:#181818;stroke-width:1;"/><path d="M1880.7656,18.875 Q1880.9219,18.6563 1881.1094,18.5469 Q1881.2969,18.4375 1881.5156,18.4375 Q1881.8906,18.4375 1882.125,18.7031 Q1882.3594,18.9531 1882.3594,19.5625 L1882.3594,21.0156 Q1882.3594,21.625 1882.125,21.8906 Q1881.8906,22.1563 1881.5156,22.1563 Q1881.1719,22.1563 1880.9688,21.9531 Q1880.7656,21.7656 1880.6563,21.25 Q1880.6094,20.8906 1880.4219,20.7031 Q1880.0938,20.3281 1879.4844,20.1094 Q1878.875,19.8906 1878.25,19.8906 Q1877.4844,19.8906 1876.8438,20.2188 Q1876.2188,20.5469 1875.7188,21.2969 Q1875.2344,22.0469 1875.2344,23.0781 L1875.2344,24.1719 Q1875.2344,25.4063 1876.125,26.2344 Q1877.0156,27.0469 1878.6094,27.0469 Q1879.5469,27.0469 1880.2031,26.7969 Q1880.5938,26.6406 1881.0156,26.2031 Q1881.2813,25.9375 1881.4219,25.8594 Q1881.5781,25.7813 1881.7813,25.7813 Q1882.1094,25.7813 1882.3594,26.0469 Q1882.625,26.2969 1882.625,26.6406 Q1882.625,26.9844 1882.2813,27.3906 Q1881.7813,27.9688 1880.9844,28.2969 Q1879.9063,28.75 1878.6094,28.75 Q1877.0938,28.75 1875.8906,28.125 Q1874.9063,27.625 1874.2188,26.5625 Q1873.5313,25.4844 1873.5313,24.2031 L1873.5313,23.0469 Q1873.5313,21.7188 1874.1406,20.5781 Q1874.7656,19.4219 1875.8594,18.8125 Q1876.9531,18.1875 1878.1875,18.1875 Q1878.9219,18.1875 1879.5625,18.3594 Q1880.2188,18.5156 1880.7656,18.875 Z " fill="#000000"/><text fill="#000000" font-family="sans-serif" font-size="14" lengthAdjust="spacing" textLength="29.5586" x="1892" y="28.7285">User</text><line style="stroke:#181818;stroke-width:0.5;" x1="1864" x2="1923.5586" y1="39" y2="39"/><line style="stroke:#181818;stroke-width:0.5;" x1="1864" x2="1923.5586" y1="47" y2="47"/></g><g class="entity" data-qualified-name="GMN42" data-source-line="61" id="ent0043"><path d="M2195,445 L2195,478.5 L2160.31,482.5 L2195,486.5 L2195,520.4063 A0,0 0 0 0 2195,520.4063 L2330.8926,520.4063 A0,0 0 0 0 2330.8926,520.4063 L2330.8926,455 L2320.8926,445 L2195,445 A0,0 0 0 0 2195,445" fill="#FEFFDD" style="stroke:#181818;stroke-width:0.5;"/><path d="M2320.8926,445 L2320.8926,455 L2330.8926,455 L2320.8926,445" fill="#FEFFDD" style="stroke:#181818;stroke-width:0.5;"/><text fill="#000000" font-family="sans-serif" font-size="13" lengthAdjust="spacing" textLength="114.8799" x="2201" y="463.4951">Includes GPU APIs,</text><text fill="#000000" font-family="sans-serif" font-size="13" lengthAdjust="spacing" textLength="114.8926" x="2201" y="479.8467">weight init methods,</text><text fill="#000000" font-family="sans-serif" font-size="13" lengthAdjust="spacing" textLength="88.1372" x="2201" y="496.1982">classic models,</text><text fill="#000000" font-family="sans-serif" font-size="13" lengthAdjust="spacing" textLength="114.188" x="2201" y="512.5498">and preset datasets</text></g><g class="entity" data-qualified-name="GMN45" data-source-line="68" id="ent0046"><path d="M1808.5,598 L1808.5,640 L1773.81,644 L1808.5,648 L1808.5,689.7578 A0,0 0 0 0 1808.5,689.7578 L1921.9917,689.7578 A0,0 0 0 0 1921.9917,689.7578 L1921.9917,608 L1911.9917,598 L1808.5,598 A0,0 0 0 0 1808.5,598" fill="#FEFFDD" style="stroke:#181818;stroke-width:0.5;"/><path d="M1911.9917,598 L1911.9917,608 L1921.9917,608 L1911.9917,598" fill="#FEFFDD" style="stroke:#181818;stroke-width:0.5;"/><text fill="#000000" font-family="sans-serif" font-size="13" lengthAdjust="spacing" textLength="86.7026" x="1814.5" y="616.4951">Stores models,</text><text fill="#000000" font-family="sans-serif" font-size="13" lengthAdjust="spacing" textLength="52.7554" x="1814.5" y="632.8467">datasets,</text><text fill="#000000" font-family="sans-serif" font-size="13" lengthAdjust="spacing" textLength="73.709" x="1814.5" y="649.1982">training logs,</text><text fill="#000000" font-family="sans-serif" font-size="13" lengthAdjust="spacing" textLength="84.5508" x="1814.5" y="665.5498">inference logs,</text><text fill="#000000" font-family="sans-serif" font-size="13" lengthAdjust="spacing" textLength="92.4917" x="1814.5" y="681.9014">and user history</text></g><g class="entity" data-qualified-name="GMN48" data-source-line="76" id="ent0049"><path d="M187.5,299.5 L187.5,358.5547 L362.3989,358.5547 L362.3989,309.5 L352.3989,299.5 L187.5,299.5" fill="#FEFFDD" style="stroke:#181818;stroke-width:0.5;"/><path d="M352.3989,299.5 L352.3989,309.5 L362.3989,309.5 L352.3989,299.5" fill="#FEFFDD" style="stroke:#181818;stroke-width:1;"/><text fill="#000000" font-family="sans-serif" font-size="13" lengthAdjust="spacing" textLength="153.8989" x="193.5" y="317.9951">Provides GPU-accelerated</text><text fill="#000000" font-family="sans-serif" font-size="13" lengthAdjust="spacing" textLength="125.0107" x="193.5" y="334.3467">matrix operations and</text><text fill="#000000" font-family="sans-serif" font-size="13" lengthAdjust="spacing" textLength="138.7471" x="193.5" y="350.6982">computation capabilities</text></g><g class="entity" data-qualified-name="GMN51" data-source-line="82" id="ent0052"><path d="M915,453 L915,512.0547 L1092.8188,512.0547 L1092.8188,463 L1082.8188,453 L915,453" fill="#FEFFDD" style="stroke:#181818;stroke-width:0.5;"/><path d="M1082.8188,453 L1082.8188,463 L1092.8188,463 L1082.8188,453" fill="#FEFFDD" style="stroke:#181818;stroke-width:1;"/><text fill="#000000" font-family="sans-serif" font-size="13" lengthAdjust="spacing" textLength="156.8188" x="921" y="471.4951">Handles training execution,</text><text fill="#000000" font-family="sans-serif" font-size="13" lengthAdjust="spacing" textLength="107.6816" x="921" y="487.8467">evaluation, saving,</text><text fill="#000000" font-family="sans-serif" font-size="13" lengthAdjust="spacing" textLength="135.8589" x="921" y="504.1982">and manual termination</text></g><g class="entity" data-qualified-name="GMN54" data-source-line="88" id="ent0055"><path d="M1128.5,453 L1128.5,512.0547 L1291.1479,512.0547 L1291.1479,463 L1281.1479,453 L1128.5,453" fill="#FEFFDD" style="stroke:#181818;stroke-width:0.5;"/><path d="M1281.1479,453 L1281.1479,463 L1291.1479,463 L1281.1479,453" fill="#FEFFDD" style="stroke:#181818;stroke-width:1;"/><text fill="#000000" font-family="sans-serif" font-size="13" lengthAdjust="spacing" textLength="141.6479" x="1134.5" y="471.4951">Manages model loading,</text><text fill="#000000" font-family="sans-serif" font-size="13" lengthAdjust="spacing" textLength="106.2217" x="1134.5" y="487.8467">forward execution,</text><text fill="#000000" font-family="sans-serif" font-size="13" lengthAdjust="spacing" textLength="112.0107" x="1134.5" y="504.1982">and result returning</text></g><!--link user to mainUI--><g class="link" data-entity-1="ent0001" data-entity-2="ent0003" data-link-type="dependency" data-source-line="32" id="lnk21"><path codeLine="32" d="M1916.54,55.17 C1924.52,64.07 1933.21,74.59 1940,85 C1954.65,107.44 1965.3522,130.8801 1973.2622,150.2801" fill="none" id="user-to-mainUI" style="stroke:#181818;stroke-width:1;"/><polygon fill="#181818" points="1975.15,154.91,1975.456,145.0659,1973.2622,150.2801,1968.0481,148.0863,1975.15,154.91" style="stroke:#181818;stroke-width:1;stroke-linejoin:miter;stroke-miterlimit:10;"/><text fill="#000000" font-family="sans-serif" font-size="13" lengthAdjust="spacing" textLength="75.8608" x="1951" y="99.4951">interacts with</text></g><!--link user to configUI--><g class="link" data-entity-1="ent0001" data-entity-2="ent0004" data-link-type="dependency" data-source-line="33" id="lnk22"><path codeLine="33" d="M1925.23,41.21 C1954.47,50.41 1998.94,65.92 2035,85 C2073.04,105.12 2108.9917,131.4567 2134.8217,151.7967" fill="none" id="user-to-configUI" style="stroke:#181818;stroke-width:1;"/><polygon fill="#181818" points="2138.75,154.89,2134.1538,146.1794,2134.8217,151.7967,2129.2045,152.4646,2138.75,154.89" style="stroke:#181818;stroke-width:1;stroke-linejoin:miter;stroke-miterlimit:10;"/><text fill="#000000" font-family="sans-serif" font-size="13" lengthAdjust="spacing" textLength="105.498" x="2066" y="99.4951">configures models</text></g><!--link user to trainUI--><g class="link" data-entity-1="ent0001" data-entity-2="ent0005" data-link-type="dependency" data-source-line="34" id="lnk23"><path codeLine="34" d="M1862.82,37.77 C1828.66,45.06 1773.13,59.78 1731,85 C1699.97,103.57 1674.2284,129.9661 1656.1584,150.8861" fill="none" id="user-to-trainUI" style="stroke:#181818;stroke-width:1;"/><polygon fill="#181818" points="1652.89,154.67,1661.8002,150.4737,1656.1584,150.8861,1655.746,145.2443,1652.89,154.67" style="stroke:#181818;stroke-width:1;stroke-linejoin:miter;stroke-miterlimit:10;"/><text fill="#000000" font-family="sans-serif" font-size="13" lengthAdjust="spacing" textLength="77.3081" x="1732" y="99.4951">trains models</text></g><!--link user to inferUI--><g class="link" data-entity-1="ent0001" data-entity-2="ent0006" data-link-type="dependency" data-source-line="35" id="lnk24"><path codeLine="35" d="M1862.95,48.69 C1849.37,57.62 1834.61,69.92 1826,85 C1813.82,106.35 1811.724,129.8711 1812.144,149.6711" fill="none" id="user-to-inferUI" style="stroke:#181818;stroke-width:1;"/><polygon fill="#181818" points="1812.25,154.67,1816.0582,145.5872,1812.144,149.6711,1808.06,145.7569,1812.25,154.67" style="stroke:#181818;stroke-width:1;stroke-linejoin:miter;stroke-miterlimit:10;"/><text fill="#000000" font-family="sans-serif" font-size="13" lengthAdjust="spacing" textLength="108.3799" x="1827" y="99.4951">performs inference</text></g><!--link mainUI to modelConfigService--><g class="link" data-entity-1="ent0003" data-entity-2="ent0008" data-link-type="dependency" data-source-line="37" id="lnk25"><path codeLine="37" d="M1982.6,203.29 C1982.57,218.1 1984.16,237.37 1991,253 C1999.75,273 2012.3041,287.9072 2026.5641,301.4472" fill="none" id="mainUI-to-modelConfigService" style="stroke:#181818;stroke-width:1;"/><polygon fill="#181818" points="2030.19,304.89,2026.4177,295.7922,2026.5641,301.4472,2020.9092,301.5936,2030.19,304.89" style="stroke:#181818;stroke-width:1;stroke-linejoin:miter;stroke-miterlimit:10;"/><text fill="#000000" font-family="sans-serif" font-size="13" lengthAdjust="spacing" textLength="127.1816" x="1992" y="249.4951">requests model config</text></g><!--link configUI to modelConfigService--><g class="link" data-entity-1="ent0004" data-entity-2="ent0008" data-link-type="dependency" data-source-line="38" id="lnk26"><path codeLine="38" d="M2154.89,203.06 C2146.8,217.79 2135.56,237.04 2124,253 C2110.67,271.4 2097.1086,286.9519 2083.7186,301.3219" fill="none" id="configUI-to-modelConfigService" style="stroke:#181818;stroke-width:1;"/><polygon fill="#181818" points="2080.31,304.98,2089.3719,301.1224,2083.7186,301.3219,2083.519,295.6686,2080.31,304.98" style="stroke:#181818;stroke-width:1;stroke-linejoin:miter;stroke-miterlimit:10;"/><text fill="#000000" font-family="sans-serif" font-size="13" lengthAdjust="spacing" textLength="112.7407" x="2136" y="249.4951">sends configuration</text></g><!--link trainUI to modelTrainService--><g class="link" data-entity-1="ent0005" data-entity-2="ent0010" data-link-type="dependency" data-source-line="39" id="lnk27"><path codeLine="39" d="M1630.72,203.12 C1626.8,230.77 1620.9719,271.8095 1617.0319,299.5995" fill="none" id="trainUI-to-modelTrainService" style="stroke:#181818;stroke-width:1;"/><polygon fill="#181818" points="1616.33,304.55,1621.5538,296.2006,1617.0319,299.5995,1613.633,295.0776,1616.33,304.55" style="stroke:#181818;stroke-width:1;stroke-linejoin:miter;stroke-miterlimit:10;"/><text fill="#000000" font-family="sans-serif" font-size="13" lengthAdjust="spacing" textLength="112.7153" x="1626" y="249.4951">starts/stops training</text></g><!--link inferUI to modelInferService--><g class="link" data-entity-1="ent0006" data-entity-2="ent0011" data-link-type="dependency" data-source-line="40" id="lnk28"><path codeLine="40" d="M1816.03,203.12 C1818.46,230.77 1822.0627,271.7792 1824.5027,299.5692" fill="none" id="inferUI-to-modelInferService" style="stroke:#181818;stroke-width:1;"/><polygon fill="#181818" points="1824.94,304.55,1828.1375,295.2346,1824.5027,299.5692,1820.1681,295.9344,1824.94,304.55" style="stroke:#181818;stroke-width:1;stroke-linejoin:miter;stroke-miterlimit:10;"/><text fill="#000000" font-family="sans-serif" font-size="13" lengthAdjust="spacing" textLength="106.9517" x="1821" y="249.4951">requests inference</text></g><!--link modelConfigService to frameworkExtService--><g class="link" data-entity-1="ent0008" data-entity-2="ent0012" data-link-type="dependency" data-source-line="42" id="lnk29"><path codeLine="42" d="M2056.94,353.01 C2055.62,381.48 2053.6208,424.7053 2052.3008,453.2753" fill="none" id="modelConfigService-to-frameworkExtService" style="stroke:#181818;stroke-width:1;"/><polygon fill="#181818" points="2052.07,458.27,2056.4811,449.4642,2052.3008,453.2753,2048.4896,449.095,2052.07,458.27" style="stroke:#181818;stroke-width:1;stroke-linejoin:miter;stroke-miterlimit:10;"/><text fill="#000000" font-family="sans-serif" font-size="13" lengthAdjust="spacing" textLength="109.8208" x="2056" y="402.9951">extends framework</text></g><!--link modelConfigService to dbPersistService--><g class="link" data-entity-1="ent0008" data-entity-2="ent0013" data-link-type="dependency" data-source-line="43" id="lnk30"><path codeLine="43" d="M2004.24,353.01 C1937.6,381.53 1829.3067,427.8726 1762.5767,456.4326" fill="none" id="modelConfigService-to-dbPersistService" style="stroke:#181818;stroke-width:1;"/><polygon fill="#181818" points="1757.98,458.4,1767.8279,458.5361,1762.5767,456.4326,1764.6802,451.1814,1757.98,458.4" style="stroke:#181818;stroke-width:1;stroke-linejoin:miter;stroke-miterlimit:10;"/><text fill="#000000" font-family="sans-serif" font-size="13" lengthAdjust="spacing" textLength="72.2617" x="1913" y="402.9951">saves config</text></g><!--link dataLoadingService to presetDatasetsModule--><g class="link" data-entity-1="ent0009" data-entity-2="ent0018" data-link-type="dependency" data-source-line="45" id="lnk31"><path codeLine="45" d="M1323.82,329.98 C1143.51,330.94 703.52,338.69 339,388.5 C285.79,395.77 270.75,394.28 221,414.5 C193.4,425.72 168.9799,440.878 148.1799,455.398" fill="none" id="dataLoadingService-to-presetDatasetsModule" style="stroke:#181818;stroke-width:1;"/><polygon fill="#181818" points="144.08,458.26,153.7494,456.3883,148.1799,455.398,149.1701,449.8285,144.08,458.26" style="stroke:#181818;stroke-width:1;stroke-linejoin:miter;stroke-miterlimit:10;"/><text fill="#000000" font-family="sans-serif" font-size="13" lengthAdjust="spacing" textLength="83.8335" x="340" y="402.9951">loads datasets</text></g><!--link dataLoadingService to dbPersistService--><g class="link" data-entity-1="ent0009" data-entity-2="ent0013" data-link-type="dependency" data-source-line="46" id="lnk32"><path codeLine="46" d="M1431.49,353.13 C1450.01,369.69 1476.66,391.6 1503,406.5 C1541.25,428.15 1582.1963,444.1896 1620.3463,456.8996" fill="none" id="dataLoadingService-to-dbPersistService" style="stroke:#181818;stroke-width:1;"/><polygon fill="#181818" points="1625.09,458.48,1617.8157,451.8404,1620.3463,456.8996,1615.2871,459.4302,1625.09,458.48" style="stroke:#181818;stroke-width:1;stroke-linejoin:miter;stroke-miterlimit:10;"/><text fill="#000000" font-family="sans-serif" font-size="13" lengthAdjust="spacing" textLength="101.1626" x="1504" y="402.9951">persists data logs</text></g><!--link modelTrainService to gpuModule--><g class="link" data-entity-1="ent0010" data-entity-2="ent0015" data-link-type="dependency" data-source-line="48" id="lnk33"><path codeLine="48" d="M1536.31,353.04 C1526.85,355.23 1517.25,357.13 1508,358.5 C1393.75,375.41 578.71,352.41 469,388.5 C425.69,402.75 387.5743,432.5128 362.4843,455.1228" fill="none" id="modelTrainService-to-gpuModule" style="stroke:#181818;stroke-width:1;"/><polygon fill="#181818" points="358.77,458.47,368.1336,455.4165,362.4843,455.1228,362.778,449.4736,358.77,458.47" style="stroke:#181818;stroke-width:1;stroke-linejoin:miter;stroke-miterlimit:10;"/><text fill="#000000" font-family="sans-serif" font-size="13" lengthAdjust="spacing" textLength="112.728" x="470" y="402.9951">accelerates training</text></g><!--link modelTrainService to weightInitModule--><g class="link" data-entity-1="ent0010" data-entity-2="ent0016" data-link-type="dependency" data-source-line="49" id="lnk34"><path codeLine="49" d="M1536.31,353 C1526.84,355.19 1517.25,357.11 1508,358.5 C1458.58,365.93 650.4,360.51 609,388.5 C585.76,404.21 576.5442,431.3758 572.1642,453.4258" fill="none" id="modelTrainService-to-weightInitModule" style="stroke:#181818;stroke-width:1;"/><polygon fill="#181818" points="571.19,458.33,576.8668,450.2818,572.1642,453.4258,569.0201,448.7231,571.19,458.33" style="stroke:#181818;stroke-width:1;stroke-linejoin:miter;stroke-miterlimit:10;"/><text fill="#000000" font-family="sans-serif" font-size="13" lengthAdjust="spacing" textLength="100.4326" x="610" y="402.9951">initializes weights</text></g><!--link modelTrainService to classicModelsModule--><g class="link" data-entity-1="ent0010" data-entity-2="ent0017" data-link-type="dependency" data-source-line="50" id="lnk35"><path codeLine="50" d="M1535.42,353.03 C1526.24,355.16 1516.95,357.06 1508,358.5 C1384.07,378.38 1064.49,353.36 944,388.5 C896.18,402.45 852.3197,432.5385 823.4397,455.2585" fill="none" id="modelTrainService-to-classicModelsModule" style="stroke:#181818;stroke-width:1;"/><polygon fill="#181818" points="819.51,458.35,829.0567,455.929,823.4397,455.2585,824.1103,449.6415,819.51,458.35" style="stroke:#181818;stroke-width:1;stroke-linejoin:miter;stroke-miterlimit:10;"/><text fill="#000000" font-family="sans-serif" font-size="13" lengthAdjust="spacing" textLength="72.979" x="945" y="402.9951">uses models</text></g><!--link modelTrainService to dbPersistService--><g class="link" data-entity-1="ent0010" data-entity-2="ent0013" data-link-type="dependency" data-source-line="51" id="lnk36"><path codeLine="51" d="M1611.21,353.3 C1610.98,369.12 1612.65,390.07 1621,406.5 C1631.64,427.45 1646.787,442.3275 1663.997,455.3875" fill="none" id="modelTrainService-to-dbPersistService" style="stroke:#181818;stroke-width:1;"/><polygon fill="#181818" points="1667.98,458.41,1663.2286,449.783,1663.997,455.3875,1658.3926,456.1558,1667.98,458.41" style="stroke:#181818;stroke-width:1;stroke-linejoin:miter;stroke-miterlimit:10;"/><text fill="#000000" font-family="sans-serif" font-size="13" lengthAdjust="spacing" textLength="119.2217" x="1622" y="402.9951">saves models &amp; logs</text></g><!--link modelInferService to gpuModule--><g class="link" data-entity-1="ent0011" data-entity-2="ent0015" data-link-type="dependency" data-source-line="53" id="lnk37"><path codeLine="53" d="M1747.35,353.01 C1737.53,355.2 1727.58,357.11 1718,358.5 C1300.8,418.86 1185.18,315.54 770,388.5 C744.67,392.95 740.34,402.07 715,406.5 C656.97,416.66 506.64,398.28 450,414.5 C418.9,423.4 391.5099,439.7338 369.3699,455.3038" fill="none" id="modelInferService-to-gpuModule" style="stroke:#181818;stroke-width:1;"/><polygon fill="#181818" points="365.28,458.18,374.9428,456.2747,369.3699,455.3038,370.3408,449.7309,365.28,458.18" style="stroke:#181818;stroke-width:1;stroke-linejoin:miter;stroke-miterlimit:10;"/><text fill="#000000" font-family="sans-serif" font-size="13" lengthAdjust="spacing" textLength="123.5698" x="771" y="402.9951">accelerates inference</text></g><!--link modelInferService to classicModelsModule--><g class="link" data-entity-1="ent0011" data-entity-2="ent0017" data-link-type="dependency" data-source-line="54" id="lnk38"><path codeLine="54" d="M1745.82,353.04 C1736.49,355.15 1727.08,357.04 1718,358.5 C1512.67,391.62 1458.44,373.54 1251,388.5 C1150.94,395.72 1126.07,399.37 1026,406.5 C997.57,408.53 925.11,405.72 898,414.5 C869,423.89 844.0004,440.014 823.6904,455.454" fill="none" id="modelInferService-to-classicModelsModule" style="stroke:#181818;stroke-width:1;"/><polygon fill="#181818" points="819.71,458.48,829.2955,456.2176,823.6904,455.454,824.4539,449.849,819.71,458.48" style="stroke:#181818;stroke-width:1;stroke-linejoin:miter;stroke-miterlimit:10;"/><text fill="#000000" font-family="sans-serif" font-size="13" lengthAdjust="spacing" textLength="76.5972" x="1252" y="402.9951">loads models</text></g><!--link modelInferService to dbPersistService--><g class="link" data-entity-1="ent0011" data-entity-2="ent0013" data-link-type="dependency" data-source-line="55" id="lnk39"><path codeLine="55" d="M1808.32,353.01 C1785.2,381.48 1749.2119,425.8186 1726.0119,454.3886" fill="none" id="modelInferService-to-dbPersistService" style="stroke:#181818;stroke-width:1;"/><polygon fill="#181818" points="1722.86,458.27,1731.6386,453.8049,1726.0119,454.3886,1725.4282,448.7619,1722.86,458.27" style="stroke:#181818;stroke-width:1;stroke-linejoin:miter;stroke-miterlimit:10;"/><text fill="#000000" font-family="sans-serif" font-size="13" lengthAdjust="spacing" textLength="80.939" x="1777" y="402.9951">logs inference</text></g><!--link dbPersistService to sqliteDB--><g class="link" data-entity-1="ent0013" data-entity-2="ent0020" data-link-type="dependency" data-source-line="57" id="lnk40"><path codeLine="57" d="M1662.92,506.73 C1641.38,522.24 1621.29,544.11 1631,568 C1639.34,588.54 1652.5189,603.2817 1667.9889,616.5017" fill="none" id="dbPersistService-to-sqliteDB" style="stroke:#181818;stroke-width:1;"/><polygon fill="#181818" points="1671.79,619.75,1667.5466,610.8622,1667.9889,616.5017,1662.3493,616.944,1671.79,619.75" style="stroke:#181818;stroke-width:1;stroke-linejoin:miter;stroke-miterlimit:10;"/><text fill="#000000" font-family="sans-serif" font-size="13" lengthAdjust="spacing" textLength="98.9917" x="1632" y="564.4951">reads/writes data</text></g><!--link dbPersistService to sqliteDB--><g class="link" data-entity-1="ent0013" data-entity-2="ent0020" data-link-type="dependency" data-source-line="58" id="lnk41"><path codeLine="58" d="M1717.83,506.62 C1724.44,519.01 1731.64,534.83 1735,550 C1740.38,574.26 1731.966,596.728 1721.656,615.308" fill="none" id="dbPersistService-to-sqliteDB-1" style="stroke:#181818;stroke-width:1;"/><polygon fill="#181818" points="1719.23,619.68,1727.0944,613.7512,1721.656,615.308,1720.0992,609.8696,1719.23,619.68" style="stroke:#181818;stroke-width:1;stroke-linejoin:miter;stroke-miterlimit:10;"/><text fill="#000000" font-family="sans-serif" font-size="13" lengthAdjust="spacing" textLength="101.8799" x="1737" y="564.4951">backups/recovery</text></g><!--link GMN48 to gpuModule--><g class="link" data-entity-1="ent0049" data-entity-2="ent0015" data-link-type="association" data-source-line="76" id="lnk50"><path d="M281.89,358.76 C285.72,373.29 290.93,391.07 297,406.5 C304.05,424.43 313.93,443.81 321.85,458.38" fill="none" id="GMN48-gpuModule" style="stroke:#181818;stroke-width:1;stroke-dasharray:7,7;"/></g><!--link modelTrainService to GMN51--><g class="link" data-entity-1="ent0010" data-entity-2="ent0052" data-link-type="association" data-source-line="82" id="lnk53"><path d="M1534.83,353.06 C1525.84,355.16 1516.76,357.04 1508,358.5 C1456.93,366.99 1085.17,358.46 1043,388.5 C1022.18,403.33 1012.42,431.5 1007.88,452.96" fill="none" id="modelTrainService-GMN51" style="stroke:#181818;stroke-width:1;stroke-dasharray:7,7;"/></g><!--link modelInferService to GMN54--><g class="link" data-entity-1="ent0011" data-entity-2="ent0055" data-link-type="association" data-source-line="88" id="lnk56"><path d="M1743.65,353.03 C1735.02,355.04 1726.36,356.91 1718,358.5 C1537.32,392.84 1478.8,346.3 1308,414.5 C1284.84,423.75 1261.68,439.22 1243.69,452.97" fill="none" id="modelInferService-GMN54" style="stroke:#181818;stroke-width:1;stroke-dasharray:7,7;"/></g><?plantuml-src XLPBSzem4BxxLwWSUag6Um-TILAICaCoj2JJiv0NqCIs74c6f9t-z-xgOGi_Q2x0xdxx_bRvbCDELi1-BkwURvuULWic2cvCbdM2sOi1FMFSi0Q_P5dDnIlV0vlTQrLPg7As-J0MoXdxap7yIv2FN5PiYKPwnmKu7oMANfPzmpjLxUI-qTnArKS8fnjYdZMwajM-PsxrQ8HbjGCDbO2UkIGvclzD2hl5BvVhKZaKx3pf3UYZZ4MItgk3kE_X6xUShHJFgO0KcgCYo2UWFdXR_I2kqrp4ThqOW9rg0dolUGadfL_PuXtdRlfLxw8UrHVAtd83R0tQIEnkFuby6pJHGJgNnuzdfSLX_lIqO6qo8-DvMB-m6o6WW30RBBifV81ztVXVVT0laFk3nTv8AtaXVm-G9sT0-d47TqGSAPZhiKcHmckyOXoyrc30CkeFVfwXQwUAcW1Fsx9IWXTiOvN6doFjsFnOIGiizjuvDMy5ohxTaYEYDRk-_XguoRuWAP0YN60U9saFdK6a8fg8iFmG5iTqLe61QEI-3Gq2vz2WHYOgNGOQqZPaMSZ29JJW4M8ql3LWR70R4idQr2Pn1YbjshpTUBEOQWjAoKCOoxKrSsDL7IuBKYwB-RUeb3LfXcbLmvG8Fi8PT034hpnXr1IyJnTAcHyXbfbbmtFYS6CxXTW2BVq98l4KU2HexGKUYsxs9bHyray2j_n358ySXQIvux0--ToI1gP2vAQP08_m3_6uZkrgZkCck-jHx7DQwTaENAgqMufnt7YsVZHfkWFWIBgKNxg50nF2nLlWDXUZp4zQKg8qo_yYjdY5cjhCDGXr1FsHPPN2OwFTCLMxYKTXMOcYoJ66EzNhfRb2eH-YcoihmHvKxiIX7w5sad1yc_q6TxjAxpL5xiTl3nrp5x8T7lc9OFeUzy-rZ0Hjrre9XNKtx83jK5XgBoOU2OgOlZ1hhOuor7dTBK6Egf9RBT-PgiCZPSW_bQlAkh7-zH6yvbk91KWOLBXLrggI0ewz-j_HMP7G2ayAY8QSKYLmv4NZGbpHHgC-rbVogi771Cz_AIj_8o_7xVt3yCWhV8JYRIxyyI3dUEPFNEVdUL1474bJMFomZNO7e8tt3m00?></g></svg>