<svg xmlns="http://www.w3.org/2000/svg" xmlns:xlink="http://www.w3.org/1999/xlink" contentStyleType="text/css" data-diagram-type="CLASS" height="626px" preserveAspectRatio="none" style="width:1299px;height:626px;background:#FFFFFF;" version="1.1" viewBox="0 0 1299 626" width="1299px" zoomAndPan="magnify"><?plantuml 1.2026.6?><defs/><g><!--class TuringSystem--><g class="entity" data-qualified-name="TuringSystem" data-source-line="3" id="ent0001"><rect fill="#F1F1F1" height="171.2656" rx="2.5" ry="2.5" style="stroke:#181818;stroke-width:0.5;" width="346.4072" x="938.5" y="7"/><ellipse cx="1064.2744" cy="23" fill="#ADD1B2" rx="11" ry="11" style="stroke:#181818;stroke-width:1;"/><path d="M1067.04,18.875 Q1067.1963,18.6563 1067.3838,18.5469 Q1067.5713,18.4375 1067.79,18.4375 Q1068.165,18.4375 1068.3994,18.7031 Q1068.6338,18.9531 1068.6338,19.5625 L1068.6338,21.0156 Q1068.6338,21.625 1068.3994,21.8906 Q1068.165,22.1563 1067.79,22.1563 Q1067.4463,22.1563 1067.2432,21.9531 Q1067.04,21.7656 1066.9307,21.25 Q1066.8838,20.8906 1066.6963,20.7031 Q1066.3682,20.3281 1065.7588,20.1094 Q1065.1494,19.8906 1064.5244,19.8906 Q1063.7588,19.8906 1063.1182,20.2188 Q1062.4932,20.5469 1061.9932,21.2969 Q1061.5088,22.0469 1061.5088,23.0781 L1061.5088,24.1719 Q1061.5088,25.4063 1062.3994,26.2344 Q1063.29,27.0469 1064.8838,27.0469 Q1065.8213,27.0469 1066.4775,26.7969 Q1066.8682,26.6406 1067.29,26.2031 Q1067.5557,25.9375 1067.6963,25.8594 Q1067.8525,25.7813 1068.0557,25.7813 Q1068.3838,25.7813 1068.6338,26.0469 Q1068.8994,26.2969 1068.8994,26.6406 Q1068.8994,26.9844 1068.5557,27.3906 Q1068.0557,27.9688 1067.2588,28.2969 Q1066.1807,28.75 1064.8838,28.75 Q1063.3682,28.75 1062.165,28.125 Q1061.1807,27.625 1060.4932,26.5625 Q1059.8057,25.4844 1059.8057,24.2031 L1059.8057,23.0469 Q1059.8057,21.7188 1060.415,20.5781 Q1061.04,19.4219 1062.1338,18.8125 Q1063.2275,18.1875 1064.4619,18.1875 Q1065.1963,18.1875 1065.8369,18.3594 Q1066.4932,18.5156 1067.04,18.875 Z " fill="#000000"/><text fill="#000000" font-family="sans-serif" font-size="14" lengthAdjust="spacing" textLength="86.3584" x="1084.7744" y="28.7285">TuringSystem</text><line style="stroke:#181818;stroke-width:0.5;" x1="939.5" x2="1283.9072" y1="39" y2="39"/><text fill="#000000" font-family="sans-serif" font-size="14" lengthAdjust="spacing" textLength="212.2422" x="944.5" y="57.5332">class "API Service" as api_service</text><text fill="#000000" font-family="sans-serif" font-size="14" lengthAdjust="spacing" textLength="275.2764" x="944.5" y="75.1426">class "Router Management" as router_mgmt</text><text fill="#000000" font-family="sans-serif" font-size="14" lengthAdjust="spacing" textLength="328.9658" x="944.5" y="92.752">class "Ensembler Management" as ensembler_mgmt</text><text fill="#000000" font-family="sans-serif" font-size="14" lengthAdjust="spacing" textLength="334.4072" x="944.5" y="110.3613">class "PyFuncEnsembler Runtime" as pyfunc_runtime</text><text fill="#000000" font-family="sans-serif" font-size="14" lengthAdjust="spacing" textLength="258.9385" x="944.5" y="127.9707">class "Kubernetes Cluster" as k8s_cluster</text><text fill="#000000" font-family="sans-serif" font-size="14" lengthAdjust="spacing" textLength="303.2422" x="944.5" y="145.5801">class "MLflow Model Registry" as mlflow_registry</text><text fill="#000000" font-family="sans-serif" font-size="14" lengthAdjust="spacing" textLength="250.3936" x="944.5" y="163.1895">class "Jaeger Tracing" as jaeger_tracing</text><line style="stroke:#181818;stroke-width:0.5;" x1="939.5" x2="1283.9072" y1="170.2656" y2="170.2656"/></g><!--class api_clients--><g class="entity" data-qualified-name="api_clients" data-source-line="13" id="ent0002"><rect fill="#F1F1F1" height="48" rx="2.5" ry="2.5" style="stroke:#181818;stroke-width:0.5;" width="101.248" x="437" y="68.5"/><ellipse cx="452" cy="84.5" fill="#ADD1B2" rx="11" ry="11" style="stroke:#181818;stroke-width:1;"/><path d="M454.7656,80.375 Q454.9219,80.1563 455.1094,80.0469 Q455.2969,79.9375 455.5156,79.9375 Q455.8906,79.9375 456.125,80.2031 Q456.3594,80.4531 456.3594,81.0625 L456.3594,82.5156 Q456.3594,83.125 456.125,83.3906 Q455.8906,83.6563 455.5156,83.6563 Q455.1719,83.6563 454.9688,83.4531 Q454.7656,83.2656 454.6563,82.75 Q454.6094,82.3906 454.4219,82.2031 Q454.0938,81.8281 453.4844,81.6094 Q452.875,81.3906 452.25,81.3906 Q451.4844,81.3906 450.8438,81.7188 Q450.2188,82.0469 449.7188,82.7969 Q449.2344,83.5469 449.2344,84.5781 L449.2344,85.6719 Q449.2344,86.9063 450.125,87.7344 Q451.0156,88.5469 452.6094,88.5469 Q453.5469,88.5469 454.2031,88.2969 Q454.5938,88.1406 455.0156,87.7031 Q455.2813,87.4375 455.4219,87.3594 Q455.5781,87.2813 455.7813,87.2813 Q456.1094,87.2813 456.3594,87.5469 Q456.625,87.7969 456.625,88.1406 Q456.625,88.4844 456.2813,88.8906 Q455.7813,89.4688 454.9844,89.7969 Q453.9063,90.25 452.6094,90.25 Q451.0938,90.25 449.8906,89.625 Q448.9063,89.125 448.2188,88.0625 Q447.5313,86.9844 447.5313,85.7031 L447.5313,84.5469 Q447.5313,83.2188 448.1406,82.0781 Q448.7656,80.9219 449.8594,80.3125 Q450.9531,79.6875 452.1875,79.6875 Q452.9219,79.6875 453.5625,79.8594 Q454.2188,80.0156 454.7656,80.375 Z " fill="#000000"/><text fill="#000000" font-family="sans-serif" font-size="14" lengthAdjust="spacing" textLength="69.248" x="466" y="90.2285">API Clients</text><line style="stroke:#181818;stroke-width:0.5;" x1="438" x2="537.248" y1="100.5" y2="100.5"/><line style="stroke:#181818;stroke-width:0.5;" x1="438" x2="537.248" y1="108.5" y2="108.5"/></g><!--class platform_operators--><g class="entity" data-qualified-name="platform_operators" data-source-line="14" id="ent0003"><rect fill="#F1F1F1" height="48" rx="2.5" ry="2.5" style="stroke:#181818;stroke-width:0.5;" width="150.2617" x="208.5" y="261.5"/><ellipse cx="223.5" cy="277.5" fill="#ADD1B2" rx="11" ry="11" style="stroke:#181818;stroke-width:1;"/><path d="M226.2656,273.375 Q226.4219,273.1563 226.6094,273.0469 Q226.7969,272.9375 227.0156,272.9375 Q227.3906,272.9375 227.625,273.2031 Q227.8594,273.4531 227.8594,274.0625 L227.8594,275.5156 Q227.8594,276.125 227.625,276.3906 Q227.3906,276.6563 227.0156,276.6563 Q226.6719,276.6563 226.4688,276.4531 Q226.2656,276.2656 226.1563,275.75 Q226.1094,275.3906 225.9219,275.2031 Q225.5938,274.8281 224.9844,274.6094 Q224.375,274.3906 223.75,274.3906 Q222.9844,274.3906 222.3438,274.7188 Q221.7188,275.0469 221.2188,275.7969 Q220.7344,276.5469 220.7344,277.5781 L220.7344,278.6719 Q220.7344,279.9063 221.625,280.7344 Q222.5156,281.5469 224.1094,281.5469 Q225.0469,281.5469 225.7031,281.2969 Q226.0938,281.1406 226.5156,280.7031 Q226.7813,280.4375 226.9219,280.3594 Q227.0781,280.2813 227.2813,280.2813 Q227.6094,280.2813 227.8594,280.5469 Q228.125,280.7969 228.125,281.1406 Q228.125,281.4844 227.7813,281.8906 Q227.2813,282.4688 226.4844,282.7969 Q225.4063,283.25 224.1094,283.25 Q222.5938,283.25 221.3906,282.625 Q220.4063,282.125 219.7188,281.0625 Q219.0313,279.9844 219.0313,278.7031 L219.0313,277.5469 Q219.0313,276.2188 219.6406,275.0781 Q220.2656,273.9219 221.3594,273.3125 Q222.4531,272.6875 223.6875,272.6875 Q224.4219,272.6875 225.0625,272.8594 Q225.7188,273.0156 226.2656,273.375 Z " fill="#000000"/><text fill="#000000" font-family="sans-serif" font-size="14" lengthAdjust="spacing" textLength="118.2617" x="237.5" y="283.2285">Platform Operators</text><line style="stroke:#181818;stroke-width:0.5;" x1="209.5" x2="357.7617" y1="293.5" y2="293.5"/><line style="stroke:#181818;stroke-width:0.5;" x1="209.5" x2="357.7617" y1="301.5" y2="301.5"/></g><!--class end_users--><g class="entity" data-qualified-name="end_users" data-source-line="15" id="ent0004"><rect fill="#F1F1F1" height="48" rx="2.5" ry="2.5" style="stroke:#181818;stroke-width:0.5;" width="97.3584" x="806" y="68.5"/><ellipse cx="821" cy="84.5" fill="#ADD1B2" rx="11" ry="11" style="stroke:#181818;stroke-width:1;"/><path d="M823.7656,80.375 Q823.9219,80.1563 824.1094,80.0469 Q824.2969,79.9375 824.5156,79.9375 Q824.8906,79.9375 825.125,80.2031 Q825.3594,80.4531 825.3594,81.0625 L825.3594,82.5156 Q825.3594,83.125 825.125,83.3906 Q824.8906,83.6563 824.5156,83.6563 Q824.1719,83.6563 823.9688,83.4531 Q823.7656,83.2656 823.6563,82.75 Q823.6094,82.3906 823.4219,82.2031 Q823.0938,81.8281 822.4844,81.6094 Q821.875,81.3906 821.25,81.3906 Q820.4844,81.3906 819.8438,81.7188 Q819.2188,82.0469 818.7188,82.7969 Q818.2344,83.5469 818.2344,84.5781 L818.2344,85.6719 Q818.2344,86.9063 819.125,87.7344 Q820.0156,88.5469 821.6094,88.5469 Q822.5469,88.5469 823.2031,88.2969 Q823.5938,88.1406 824.0156,87.7031 Q824.2813,87.4375 824.4219,87.3594 Q824.5781,87.2813 824.7813,87.2813 Q825.1094,87.2813 825.3594,87.5469 Q825.625,87.7969 825.625,88.1406 Q825.625,88.4844 825.2813,88.8906 Q824.7813,89.4688 823.9844,89.7969 Q822.9063,90.25 821.6094,90.25 Q820.0938,90.25 818.8906,89.625 Q817.9063,89.125 817.2188,88.0625 Q816.5313,86.9844 816.5313,85.7031 L816.5313,84.5469 Q816.5313,83.2188 817.1406,82.0781 Q817.7656,80.9219 818.8594,80.3125 Q819.9531,79.6875 821.1875,79.6875 Q821.9219,79.6875 822.5625,79.8594 Q823.2188,80.0156 823.7656,80.375 Z " fill="#000000"/><text fill="#000000" font-family="sans-serif" font-size="14" lengthAdjust="spacing" textLength="65.3584" x="835" y="90.2285">End Users</text><line style="stroke:#181818;stroke-width:0.5;" x1="807" x2="902.3584" y1="100.5" y2="100.5"/><line style="stroke:#181818;stroke-width:0.5;" x1="807" x2="902.3584" y1="108.5" y2="108.5"/></g><!--class api_service--><g class="entity" data-qualified-name="api_service" data-source-line="17" id="ent0005"><rect fill="#F1F1F1" height="48" rx="2.5" ry="2.5" style="stroke:#181818;stroke-width:0.5;" width="102.8135" x="436" y="261.5"/><ellipse cx="451" cy="277.5" fill="#ADD1B2" rx="11" ry="11" style="stroke:#181818;stroke-width:1;"/><path d="M453.7656,273.375 Q453.9219,273.1563 454.1094,273.0469 Q454.2969,272.9375 454.5156,272.9375 Q454.8906,272.9375 455.125,273.2031 Q455.3594,273.4531 455.3594,274.0625 L455.3594,275.5156 Q455.3594,276.125 455.125,276.3906 Q454.8906,276.6563 454.5156,276.6563 Q454.1719,276.6563 453.9688,276.4531 Q453.7656,276.2656 453.6563,275.75 Q453.6094,275.3906 453.4219,275.2031 Q453.0938,274.8281 452.4844,274.6094 Q451.875,274.3906 451.25,274.3906 Q450.4844,274.3906 449.8438,274.7188 Q449.2188,275.0469 448.7188,275.7969 Q448.2344,276.5469 448.2344,277.5781 L448.2344,278.6719 Q448.2344,279.9063 449.125,280.7344 Q450.0156,281.5469 451.6094,281.5469 Q452.5469,281.5469 453.2031,281.2969 Q453.5938,281.1406 454.0156,280.7031 Q454.2813,280.4375 454.4219,280.3594 Q454.5781,280.2813 454.7813,280.2813 Q455.1094,280.2813 455.3594,280.5469 Q455.625,280.7969 455.625,281.1406 Q455.625,281.4844 455.2813,281.8906 Q454.7813,282.4688 453.9844,282.7969 Q452.9063,283.25 451.6094,283.25 Q450.0938,283.25 448.8906,282.625 Q447.9063,282.125 447.2188,281.0625 Q446.5313,279.9844 446.5313,278.7031 L446.5313,277.5469 Q446.5313,276.2188 447.1406,275.0781 Q447.7656,273.9219 448.8594,273.3125 Q449.9531,272.6875 451.1875,272.6875 Q451.9219,272.6875 452.5625,272.8594 Q453.2188,273.0156 453.7656,273.375 Z " fill="#000000"/><text fill="#000000" font-family="sans-serif" font-size="14" lengthAdjust="spacing" textLength="70.8135" x="465" y="283.2285">api_service</text><line style="stroke:#181818;stroke-width:0.5;" x1="437" x2="537.8135" y1="293.5" y2="293.5"/><line style="stroke:#181818;stroke-width:0.5;" x1="437" x2="537.8135" y1="301.5" y2="301.5"/></g><!--class router_mgmt--><g class="entity" data-qualified-name="router_mgmt" data-source-line="18" id="ent0007"><rect fill="#F1F1F1" height="48" rx="2.5" ry="2.5" style="stroke:#181818;stroke-width:0.5;" width="111.3584" x="228" y="415"/><ellipse cx="243" cy="431" fill="#ADD1B2" rx="11" ry="11" style="stroke:#181818;stroke-width:1;"/><path d="M245.7656,426.875 Q245.9219,426.6563 246.1094,426.5469 Q246.2969,426.4375 246.5156,426.4375 Q246.8906,426.4375 247.125,426.7031 Q247.3594,426.9531 247.3594,427.5625 L247.3594,429.0156 Q247.3594,429.625 247.125,429.8906 Q246.8906,430.1563 246.5156,430.1563 Q246.1719,430.1563 245.9688,429.9531 Q245.7656,429.7656 245.6563,429.25 Q245.6094,428.8906 245.4219,428.7031 Q245.0938,428.3281 244.4844,428.1094 Q243.875,427.8906 243.25,427.8906 Q242.4844,427.8906 241.8438,428.2188 Q241.2188,428.5469 240.7188,429.2969 Q240.2344,430.0469 240.2344,431.0781 L240.2344,432.1719 Q240.2344,433.4063 241.125,434.2344 Q242.0156,435.0469 243.6094,435.0469 Q244.5469,435.0469 245.2031,434.7969 Q245.5938,434.6406 246.0156,434.2031 Q246.2813,433.9375 246.4219,433.8594 Q246.5781,433.7813 246.7813,433.7813 Q247.1094,433.7813 247.3594,434.0469 Q247.625,434.2969 247.625,434.6406 Q247.625,434.9844 247.2813,435.3906 Q246.7813,435.9688 245.9844,436.2969 Q244.9063,436.75 243.6094,436.75 Q242.0938,436.75 240.8906,436.125 Q239.9063,435.625 239.2188,434.5625 Q238.5313,433.4844 238.5313,432.2031 L238.5313,431.0469 Q238.5313,429.7188 239.1406,428.5781 Q239.7656,427.4219 240.8594,426.8125 Q241.9531,426.1875 243.1875,426.1875 Q243.9219,426.1875 244.5625,426.3594 Q245.2188,426.5156 245.7656,426.875 Z " fill="#000000"/><text fill="#000000" font-family="sans-serif" font-size="14" lengthAdjust="spacing" textLength="79.3584" x="257" y="436.7285">router_mgmt</text><line style="stroke:#181818;stroke-width:0.5;" x1="229" x2="338.3584" y1="447" y2="447"/><line style="stroke:#181818;stroke-width:0.5;" x1="229" x2="338.3584" y1="455" y2="455"/></g><!--class pyfunc_runtime--><g class="entity" data-qualified-name="pyfunc_runtime" data-source-line="19" id="ent0009"><rect fill="#F1F1F1" height="48" rx="2.5" ry="2.5" style="stroke:#181818;stroke-width:0.5;" width="127.7168" x="790.5" y="261.5"/><ellipse cx="805.5" cy="277.5" fill="#ADD1B2" rx="11" ry="11" style="stroke:#181818;stroke-width:1;"/><path d="M808.2656,273.375 Q808.4219,273.1563 808.6094,273.0469 Q808.7969,272.9375 809.0156,272.9375 Q809.3906,272.9375 809.625,273.2031 Q809.8594,273.4531 809.8594,274.0625 L809.8594,275.5156 Q809.8594,276.125 809.625,276.3906 Q809.3906,276.6563 809.0156,276.6563 Q808.6719,276.6563 808.4688,276.4531 Q808.2656,276.2656 808.1563,275.75 Q808.1094,275.3906 807.9219,275.2031 Q807.5938,274.8281 806.9844,274.6094 Q806.375,274.3906 805.75,274.3906 Q804.9844,274.3906 804.3438,274.7188 Q803.7188,275.0469 803.2188,275.7969 Q802.7344,276.5469 802.7344,277.5781 L802.7344,278.6719 Q802.7344,279.9063 803.625,280.7344 Q804.5156,281.5469 806.1094,281.5469 Q807.0469,281.5469 807.7031,281.2969 Q808.0938,281.1406 808.5156,280.7031 Q808.7813,280.4375 808.9219,280.3594 Q809.0781,280.2813 809.2813,280.2813 Q809.6094,280.2813 809.8594,280.5469 Q810.125,280.7969 810.125,281.1406 Q810.125,281.4844 809.7813,281.8906 Q809.2813,282.4688 808.4844,282.7969 Q807.4063,283.25 806.1094,283.25 Q804.5938,283.25 803.3906,282.625 Q802.4063,282.125 801.7188,281.0625 Q801.0313,279.9844 801.0313,278.7031 L801.0313,277.5469 Q801.0313,276.2188 801.6406,275.0781 Q802.2656,273.9219 803.3594,273.3125 Q804.4531,272.6875 805.6875,272.6875 Q806.4219,272.6875 807.0625,272.8594 Q807.7188,273.0156 808.2656,273.375 Z " fill="#000000"/><text fill="#000000" font-family="sans-serif" font-size="14" lengthAdjust="spacing" textLength="95.7168" x="819.5" y="283.2285">pyfunc_runtime</text><line style="stroke:#181818;stroke-width:0.5;" x1="791.5" x2="917.2168" y1="293.5" y2="293.5"/><line style="stroke:#181818;stroke-width:0.5;" x1="791.5" x2="917.2168" y1="301.5" y2="301.5"/></g><!--class ensembler_mgmt--><g class="entity" data-qualified-name="ensembler_mgmt" data-source-line="21" id="ent0011"><rect fill="#F1F1F1" height="48" rx="2.5" ry="2.5" style="stroke:#181818;stroke-width:0.5;" width="140.1514" x="586.5" y="415"/><ellipse cx="601.5" cy="431" fill="#ADD1B2" rx="11" ry="11" style="stroke:#181818;stroke-width:1;"/><path d="M604.2656,426.875 Q604.4219,426.6563 604.6094,426.5469 Q604.7969,426.4375 605.0156,426.4375 Q605.3906,426.4375 605.625,426.7031 Q605.8594,426.9531 605.8594,427.5625 L605.8594,429.0156 Q605.8594,429.625 605.625,429.8906 Q605.3906,430.1563 605.0156,430.1563 Q604.6719,430.1563 604.4688,429.9531 Q604.2656,429.7656 604.1563,429.25 Q604.1094,428.8906 603.9219,428.7031 Q603.5938,428.3281 602.9844,428.1094 Q602.375,427.8906 601.75,427.8906 Q600.9844,427.8906 600.3438,428.2188 Q599.7188,428.5469 599.2188,429.2969 Q598.7344,430.0469 598.7344,431.0781 L598.7344,432.1719 Q598.7344,433.4063 599.625,434.2344 Q600.5156,435.0469 602.1094,435.0469 Q603.0469,435.0469 603.7031,434.7969 Q604.0938,434.6406 604.5156,434.2031 Q604.7813,433.9375 604.9219,433.8594 Q605.0781,433.7813 605.2813,433.7813 Q605.6094,433.7813 605.8594,434.0469 Q606.125,434.2969 606.125,434.6406 Q606.125,434.9844 605.7813,435.3906 Q605.2813,435.9688 604.4844,436.2969 Q603.4063,436.75 602.1094,436.75 Q600.5938,436.75 599.3906,436.125 Q598.4063,435.625 597.7188,434.5625 Q597.0313,433.4844 597.0313,432.2031 L597.0313,431.0469 Q597.0313,429.7188 597.6406,428.5781 Q598.2656,427.4219 599.3594,426.8125 Q600.4531,426.1875 601.6875,426.1875 Q602.4219,426.1875 603.0625,426.3594 Q603.7188,426.5156 604.2656,426.875 Z " fill="#000000"/><text fill="#000000" font-family="sans-serif" font-size="14" lengthAdjust="spacing" textLength="108.1514" x="615.5" y="436.7285">ensembler_mgmt</text><line style="stroke:#181818;stroke-width:0.5;" x1="587.5" x2="725.6514" y1="447" y2="447"/><line style="stroke:#181818;stroke-width:0.5;" x1="587.5" x2="725.6514" y1="455" y2="455"/></g><!--class k8s_cluster--><g class="entity" data-qualified-name="k8s_cluster" data-source-line="23" id="ent0014"><rect fill="#F1F1F1" height="48" rx="2.5" ry="2.5" style="stroke:#181818;stroke-width:0.5;" width="102.8066" x="63" y="563"/><ellipse cx="78" cy="579" fill="#ADD1B2" rx="11" ry="11" style="stroke:#181818;stroke-width:1;"/><path d="M80.7656,574.875 Q80.9219,574.6563 81.1094,574.5469 Q81.2969,574.4375 81.5156,574.4375 Q81.8906,574.4375 82.125,574.7031 Q82.3594,574.9531 82.3594,575.5625 L82.3594,577.0156 Q82.3594,577.625 82.125,577.8906 Q81.8906,578.1563 81.5156,578.1563 Q81.1719,578.1563 80.9688,577.9531 Q80.7656,577.7656 80.6563,577.25 Q80.6094,576.8906 80.4219,576.7031 Q80.0938,576.3281 79.4844,576.1094 Q78.875,575.8906 78.25,575.8906 Q77.4844,575.8906 76.8438,576.2188 Q76.2188,576.5469 75.7188,577.2969 Q75.2344,578.0469 75.2344,579.0781 L75.2344,580.1719 Q75.2344,581.4063 76.125,582.2344 Q77.0156,583.0469 78.6094,583.0469 Q79.5469,583.0469 80.2031,582.7969 Q80.5938,582.6406 81.0156,582.2031 Q81.2813,581.9375 81.4219,581.8594 Q81.5781,581.7813 81.7813,581.7813 Q82.1094,581.7813 82.3594,582.0469 Q82.625,582.2969 82.625,582.6406 Q82.625,582.9844 82.2813,583.3906 Q81.7813,583.9688 80.9844,584.2969 Q79.9063,584.75 78.6094,584.75 Q77.0938,584.75 75.8906,584.125 Q74.9063,583.625 74.2188,582.5625 Q73.5313,581.4844 73.5313,580.2031 L73.5313,579.0469 Q73.5313,577.7188 74.1406,576.5781 Q74.7656,575.4219 75.8594,574.8125 Q76.9531,574.1875 78.1875,574.1875 Q78.9219,574.1875 79.5625,574.3594 Q80.2188,574.5156 80.7656,574.875 Z " fill="#000000"/><text fill="#000000" font-family="sans-serif" font-size="14" lengthAdjust="spacing" textLength="70.8066" x="92" y="584.7285">k8s_cluster</text><line style="stroke:#181818;stroke-width:0.5;" x1="64" x2="164.8066" y1="595" y2="595"/><line style="stroke:#181818;stroke-width:0.5;" x1="64" x2="164.8066" y1="603" y2="603"/></g><!--class mlflow_registry--><g class="entity" data-qualified-name="mlflow_registry" data-source-line="24" id="ent0016"><rect fill="#F1F1F1" height="48" rx="2.5" ry="2.5" style="stroke:#181818;stroke-width:0.5;" width="125.3516" x="792" y="415"/><ellipse cx="807" cy="431" fill="#ADD1B2" rx="11" ry="11" style="stroke:#181818;stroke-width:1;"/><path d="M809.7656,426.875 Q809.9219,426.6563 810.1094,426.5469 Q810.2969,426.4375 810.5156,426.4375 Q810.8906,426.4375 811.125,426.7031 Q811.3594,426.9531 811.3594,427.5625 L811.3594,429.0156 Q811.3594,429.625 811.125,429.8906 Q810.8906,430.1563 810.5156,430.1563 Q810.1719,430.1563 809.9688,429.9531 Q809.7656,429.7656 809.6563,429.25 Q809.6094,428.8906 809.4219,428.7031 Q809.0938,428.3281 808.4844,428.1094 Q807.875,427.8906 807.25,427.8906 Q806.4844,427.8906 805.8438,428.2188 Q805.2188,428.5469 804.7188,429.2969 Q804.2344,430.0469 804.2344,431.0781 L804.2344,432.1719 Q804.2344,433.4063 805.125,434.2344 Q806.0156,435.0469 807.6094,435.0469 Q808.5469,435.0469 809.2031,434.7969 Q809.5938,434.6406 810.0156,434.2031 Q810.2813,433.9375 810.4219,433.8594 Q810.5781,433.7813 810.7813,433.7813 Q811.1094,433.7813 811.3594,434.0469 Q811.625,434.2969 811.625,434.6406 Q811.625,434.9844 811.2813,435.3906 Q810.7813,435.9688 809.9844,436.2969 Q808.9063,436.75 807.6094,436.75 Q806.0938,436.75 804.8906,436.125 Q803.9063,435.625 803.2188,434.5625 Q802.5313,433.4844 802.5313,432.2031 L802.5313,431.0469 Q802.5313,429.7188 803.1406,428.5781 Q803.7656,427.4219 804.8594,426.8125 Q805.9531,426.1875 807.1875,426.1875 Q807.9219,426.1875 808.5625,426.3594 Q809.2188,426.5156 809.7656,426.875 Z " fill="#000000"/><text fill="#000000" font-family="sans-serif" font-size="14" lengthAdjust="spacing" textLength="93.3516" x="821" y="436.7285">mlflow_registry</text><line style="stroke:#181818;stroke-width:0.5;" x1="793" x2="916.3516" y1="447" y2="447"/><line style="stroke:#181818;stroke-width:0.5;" x1="793" x2="916.3516" y1="455" y2="455"/></g><!--class jaeger_tracing--><g class="entity" data-qualified-name="jaeger_tracing" data-source-line="25" id="ent0018"><rect fill="#F1F1F1" height="48" rx="2.5" ry="2.5" style="stroke:#181818;stroke-width:0.5;" width="120.7236" x="252" y="563"/><ellipse cx="267" cy="579" fill="#ADD1B2" rx="11" ry="11" style="stroke:#181818;stroke-width:1;"/><path d="M269.7656,574.875 Q269.9219,574.6563 270.1094,574.5469 Q270.2969,574.4375 270.5156,574.4375 Q270.8906,574.4375 271.125,574.7031 Q271.3594,574.9531 271.3594,575.5625 L271.3594,577.0156 Q271.3594,577.625 271.125,577.8906 Q270.8906,578.1563 270.5156,578.1563 Q270.1719,578.1563 269.9688,577.9531 Q269.7656,577.7656 269.6563,577.25 Q269.6094,576.8906 269.4219,576.7031 Q269.0938,576.3281 268.4844,576.1094 Q267.875,575.8906 267.25,575.8906 Q266.4844,575.8906 265.8438,576.2188 Q265.2188,576.5469 264.7188,577.2969 Q264.2344,578.0469 264.2344,579.0781 L264.2344,580.1719 Q264.2344,581.4063 265.125,582.2344 Q266.0156,583.0469 267.6094,583.0469 Q268.5469,583.0469 269.2031,582.7969 Q269.5938,582.6406 270.0156,582.2031 Q270.2813,581.9375 270.4219,581.8594 Q270.5781,581.7813 270.7813,581.7813 Q271.1094,581.7813 271.3594,582.0469 Q271.625,582.2969 271.625,582.6406 Q271.625,582.9844 271.2813,583.3906 Q270.7813,583.9688 269.9844,584.2969 Q268.9063,584.75 267.6094,584.75 Q266.0938,584.75 264.8906,584.125 Q263.9063,583.625 263.2188,582.5625 Q262.5313,581.4844 262.5313,580.2031 L262.5313,579.0469 Q262.5313,577.7188 263.1406,576.5781 Q263.7656,575.4219 264.8594,574.8125 Q265.9531,574.1875 267.1875,574.1875 Q267.9219,574.1875 268.5625,574.3594 Q269.2188,574.5156 269.7656,574.875 Z " fill="#000000"/><text fill="#000000" font-family="sans-serif" font-size="14" lengthAdjust="spacing" textLength="88.7236" x="281" y="584.7285">jaeger_tracing</text><line style="stroke:#181818;stroke-width:0.5;" x1="253" x2="371.7236" y1="595" y2="595"/><line style="stroke:#181818;stroke-width:0.5;" x1="253" x2="371.7236" y1="603" y2="603"/></g><g class="entity" data-qualified-name="GMN20" data-source-line="28" id="ent0021"><path d="M574,256 L574,281.5 L539.16,285.5 L574,289.5 L574,315.0547 A0,0 0 0 0 574,315.0547 L748.9053,315.0547 A0,0 0 0 0 748.9053,315.0547 L748.9053,266 L738.9053,256 L574,256 A0,0 0 0 0 574,256" fill="#FEFFDD" style="stroke:#181818;stroke-width:0.5;"/><path d="M738.9053,256 L738.9053,266 L748.9053,266 L738.9053,256" fill="#FEFFDD" style="stroke:#181818;stroke-width:0.5;"/><text fill="#000000" font-family="sans-serif" font-size="13" lengthAdjust="spacing" textLength="93.2217" x="580" y="274.4951">- OpenAPI 3.0.3</text><text fill="#000000" font-family="sans-serif" font-size="13" lengthAdjust="spacing" textLength="153.9053" x="580" y="290.8467">- Authorization Middleware</text><text fill="#000000" font-family="sans-serif" font-size="13" lengthAdjust="spacing" textLength="117.0698" x="580" y="307.1982">- Request Validation</text></g><g class="entity" data-qualified-name="GMN23" data-source-line="34" id="ent0024"><path d="M374,393 L374,435 L339.09,439 L374,443 L374,484.7578 A0,0 0 0 0 374,484.7578 L551.0762,484.7578 A0,0 0 0 0 551.0762,484.7578 L551.0762,403 L541.0762,393 L374,393 A0,0 0 0 0 374,393" fill="#FEFFDD" style="stroke:#181818;stroke-width:0.5;"/><path d="M541.0762,393 L541.0762,403 L551.0762,403 L541.0762,393" fill="#FEFFDD" style="stroke:#181818;stroke-width:0.5;"/><text fill="#000000" font-family="sans-serif" font-size="13" lengthAdjust="spacing" textLength="156.0762" x="380" y="411.4951">- Kubernetes Lifecycle Ops</text><text fill="#000000" font-family="sans-serif" font-size="13" lengthAdjust="spacing" textLength="109.1162" x="380" y="427.8467">- Default Port 8080</text><text fill="#000000" font-family="sans-serif" font-size="13" lengthAdjust="spacing" textLength="108.3862" x="380" y="444.1982">- Protocol Support:</text><text fill="#000000" font-family="sans-serif" font-size="13" lengthAdjust="spacing" textLength="84.5127" x="387.2236" y="460.5498">* HTTP_JSON</text><text fill="#000000" font-family="sans-serif" font-size="13" lengthAdjust="spacing" textLength="53.4727" x="387.2236" y="476.9014">* UPI_V1</text></g><g class="entity" data-qualified-name="GMN26" data-source-line="42" id="ent0027"><path d="M953.5,264 L953.5,281.5 L918.8,285.5 L953.5,289.5 L953.5,306.7031 A0,0 0 0 0 953.5,306.7031 L1127.688,306.7031 A0,0 0 0 0 1127.688,306.7031 L1127.688,274 L1117.688,264 L953.5,264 A0,0 0 0 0 953.5,264" fill="#FEFFDD" style="stroke:#181818;stroke-width:0.5;"/><path d="M1117.688,264 L1117.688,274 L1127.688,274 L1117.688,264" fill="#FEFFDD" style="stroke:#181818;stroke-width:0.5;"/><text fill="#000000" font-family="sans-serif" font-size="13" lengthAdjust="spacing" textLength="153.188" x="959.5" y="282.4951">- Docker-based Packaging</text><text fill="#000000" font-family="sans-serif" font-size="13" lengthAdjust="spacing" textLength="134.3799" x="959.5" y="298.8467">- Webservice Exposure</text></g><g class="entity" data-qualified-name="GMN29" data-source-line="47" id="ent0030"><path d="M6,426 L6,452.3516 A0,0 0 0 0 6,452.3516 L83.92,452.3516 L109.9,562.83 L91.92,452.3516 L165.0107,452.3516 A0,0 0 0 0 165.0107,452.3516 L165.0107,436 L155.0107,426 L6,426 A0,0 0 0 0 6,426" fill="#FEFFDD" style="stroke:#181818;stroke-width:0.5;"/><path d="M155.0107,426 L155.0107,436 L165.0107,436 L155.0107,426" fill="#FEFFDD" style="stroke:#181818;stroke-width:0.5;"/><text fill="#000000" font-family="sans-serif" font-size="13" lengthAdjust="spacing" textLength="138.0107" x="12" y="444.4951">Container Orchestration</text></g><g class="entity" data-qualified-name="GMN32" data-source-line="51" id="ent0033"><path d="M782,574 L782,600.3516 A0,0 0 0 0 782,600.3516 L927.2744,600.3516 A0,0 0 0 0 927.2744,600.3516 L927.2744,584 L917.2744,574 L858.5,574 L854.5,463.13 L850.5,574 L782,574 A0,0 0 0 0 782,574" fill="#FEFFDD" style="stroke:#181818;stroke-width:0.5;"/><path d="M917.2744,574 L917.2744,584 L927.2744,584 L917.2744,574" fill="#FEFFDD" style="stroke:#181818;stroke-width:0.5;"/><text fill="#000000" font-family="sans-serif" font-size="13" lengthAdjust="spacing" textLength="124.2744" x="788" y="592.4951">Model Artifact Source</text></g><g class="entity" data-qualified-name="GMN35" data-source-line="55" id="ent0036"><path d="M408.5,574 L408.5,583 L373.26,587 L408.5,591 L408.5,600.3516 A0,0 0 0 0 408.5,600.3516 L524.8799,600.3516 A0,0 0 0 0 524.8799,600.3516 L524.8799,584 L514.8799,574 L408.5,574 A0,0 0 0 0 408.5,574" fill="#FEFFDD" style="stroke:#181818;stroke-width:0.5;"/><path d="M514.8799,574 L514.8799,584 L524.8799,584 L514.8799,574" fill="#FEFFDD" style="stroke:#181818;stroke-width:0.5;"/><text fill="#000000" font-family="sans-serif" font-size="13" lengthAdjust="spacing" textLength="95.3799" x="414.5" y="592.4951">Optional Tracing</text></g><!--link api_clients to api_service--><g class="link" data-entity-1="ent0002" data-entity-2="ent0005" data-link-type="dependency" data-source-line="17" id="lnk6"><path codeLine="17" d="M487.5,116.54 C487.5,153.25 487.5,219.62 487.5,256.38" fill="none" id="api_clients-to-api_service" style="stroke:#181818;stroke-width:1;"/><polygon fill="#181818" points="487.5,261.38,491.5,252.38,487.5,256.38,483.5,252.38,487.5,261.38" style="stroke:#181818;stroke-width:1;stroke-linejoin:miter;stroke-miterlimit:10;"/><text fill="#000000" font-family="sans-serif" font-size="13" lengthAdjust="spacing" textLength="92.4727" x="488.5" y="222.4951">HTTP Requests</text></g><!--link platform_operators to router_mgmt--><g class="link" data-entity-1="ent0003" data-entity-2="ent0007" data-link-type="dependency" data-source-line="18" id="lnk8"><path codeLine="18" d="M283.5,309.51 C283.5,337.98 283.5,381.2 283.5,409.77" fill="none" id="platform_operators-to-router_mgmt" style="stroke:#181818;stroke-width:1;"/><polygon fill="#181818" points="283.5,414.77,287.5,405.77,283.5,409.77,279.5,405.77,283.5,414.77" style="stroke:#181818;stroke-width:1;stroke-linejoin:miter;stroke-miterlimit:10;"/><text fill="#000000" font-family="sans-serif" font-size="13" lengthAdjust="spacing" textLength="126.458" x="284.5" y="359.4951">Manage Deployments</text></g><!--link end_users to pyfunc_runtime--><g class="link" data-entity-1="ent0004" data-entity-2="ent0009" data-link-type="dependency" data-source-line="19" id="lnk10"><path codeLine="19" d="M854.5,116.54 C854.5,153.25 854.5,219.62 854.5,256.38" fill="none" id="end_users-to-pyfunc_runtime" style="stroke:#181818;stroke-width:1;"/><polygon fill="#181818" points="854.5,261.38,858.5,252.38,854.5,256.38,850.5,252.38,854.5,261.38" style="stroke:#181818;stroke-width:1;stroke-linejoin:miter;stroke-miterlimit:10;"/><text fill="#000000" font-family="sans-serif" font-size="13" lengthAdjust="spacing" textLength="95.3672" x="855.5" y="222.4951">Use Ensemblers</text></g><!--link api_service to ensembler_mgmt--><g class="link" data-entity-1="ent0005" data-entity-2="ent0011" data-link-type="dependency" data-source-line="21" id="lnk12"><path codeLine="21" d="M527.24,309.72 C542.95,319.7 560.75,332.05 575.5,345 C599.8,366.33 620.5351,390.9073 635.9851,410.7173" fill="none" id="api_service-to-ensembler_mgmt" style="stroke:#181818;stroke-width:1;"/><polygon fill="#181818" points="639.06,414.66,636.6793,405.1032,635.9851,410.7173,630.371,410.0231,639.06,414.66" style="stroke:#181818;stroke-width:1;stroke-linejoin:miter;stroke-miterlimit:10;"/><text fill="#000000" font-family="sans-serif" font-size="13" lengthAdjust="spacing" textLength="119.228" x="594.5" y="359.4951">Manage Ensemblers</text></g><!--link api_service to router_mgmt--><g class="link" data-entity-1="ent0005" data-entity-2="ent0007" data-link-type="dependency" data-source-line="22" id="lnk13"><path codeLine="22" d="M470.79,309.83 C458.13,326.27 439.53,347.95 419.5,363 C394.7,381.63 383.74,378.17 356.5,393 C344.21,399.69 335.3471,404.8915 323.6771,412.1415" fill="none" id="api_service-to-router_mgmt" style="stroke:#181818;stroke-width:1;"/><polygon fill="#181818" points="319.43,414.78,329.1857,413.4283,323.6771,412.1415,324.964,406.6329,319.43,414.78" style="stroke:#181818;stroke-width:1;stroke-linejoin:miter;stroke-miterlimit:10;"/><text fill="#000000" font-family="sans-serif" font-size="13" lengthAdjust="spacing" textLength="96.1099" x="440.5" y="359.4951">Manage Routers</text></g><!--link router_mgmt to k8s_cluster--><g class="link" data-entity-1="ent0007" data-entity-2="ent0014" data-link-type="dependency" data-source-line="23" id="lnk15"><path codeLine="23" d="M236.32,463.12 C212.5,476.24 184.15,494.19 162.5,515 C148.02,528.92 137.9736,543.5777 129.3436,558.4177" fill="none" id="router_mgmt-to-k8s_cluster" style="stroke:#181818;stroke-width:1;"/><polygon fill="#181818" points="126.83,562.74,134.8122,556.9708,129.3436,558.4177,127.8966,552.9491,126.83,562.74" style="stroke:#181818;stroke-width:1;stroke-linejoin:miter;stroke-miterlimit:10;"/><text fill="#000000" font-family="sans-serif" font-size="13" lengthAdjust="spacing" textLength="127.188" x="163.5" y="529.4951">Deploy/Update/Delete</text></g><!--link pyfunc_runtime to mlflow_registry--><g class="link" data-entity-1="ent0009" data-entity-2="ent0016" data-link-type="dependency" data-source-line="24" id="lnk17"><path codeLine="24" d="M854.5,309.51 C854.5,337.98 854.5,381.2 854.5,409.77" fill="none" id="pyfunc_runtime-to-mlflow_registry" style="stroke:#181818;stroke-width:1;"/><polygon fill="#181818" points="854.5,414.77,858.5,405.77,854.5,409.77,850.5,405.77,854.5,414.77" style="stroke:#181818;stroke-width:1;stroke-linejoin:miter;stroke-miterlimit:10;"/><text fill="#000000" font-family="sans-serif" font-size="13" lengthAdjust="spacing" textLength="108.3799" x="855.5" y="359.4951">Download Artifacts</text></g><!--link router_mgmt to jaeger_tracing--><g class="link" data-entity-1="ent0007" data-entity-2="ent0018" data-link-type="dependency" data-source-line="25" id="lnk19"><path codeLine="25" d="M288.1,463.13 C293.53,490.47 301.536,530.7758 306.956,558.0658" fill="none" id="router_mgmt-to-jaeger_tracing" style="stroke:#181818;stroke-width:1;"/><polygon fill="#181818" points="307.93,562.97,310.1001,553.3632,306.956,558.0658,302.2534,554.9216,307.93,562.97" style="stroke:#181818;stroke-width:1;stroke-linejoin:miter;stroke-miterlimit:10;"/><text fill="#000000" font-family="sans-serif" font-size="13" lengthAdjust="spacing" textLength="91.7617" x="302.5" y="529.4951">Trace Requests</text></g><?plantuml-src TLHDSzem4BtxLsnpx0m9dLoO73h306sJGl3maHuzGbuR5LbozL7gTlBVAyaOR9CSjVkUzcdVhZwac361i9fDDkFdh_CPK4wqZg9BO6CL4_cwqWOB-1T12tipZXzXZUetetW3H0CfMQBhSnUuajQWWWKH9CS2XGbm5Q99aHUc2vy9ZSMENpEmIRn1YgilLj0BTMM5OKKjhAmobqjK7UholjiTAe46DKouTSzKWN8OwOJMvov-CS-uFC92fiXXXJdJHbM1Kd2VITGfrgKz4SoTgeqYrFKpu7-6K6BgKFJQRdlexOGpzt9zxYsjpsrOp8d9f2fWMQ8YHgeQNPx2YMp2KQU_AMoTKVhKr3In_XH5hI8m67nk6meFy6spYTsBVrdKJiHrYK1fcUeejNymnPBBgWZYp-K2lEkCOpXTS3Rn9AcHu0dT4RYKQ77wb3SbrIEfetRIWrk-Et0j_6vRfiJWtHIvcvEefzcpUjPxfZmABaaAOsLOHgYvBjNrtt7ySE2bmv6G1a6nV6z0Phtj6dZ7XP-I-zlXxNs8ZAtPIyN-4iEaW0LBKuv7echuwLfu8Pob0U6j05-ZNwcxc0DehSYSPKWhoj6Lro4vnOnORY2Moi1eE1g6QAoaaLHoMDkoT9a75mNu66OeULeldq_dRVoOl7nwLydLuhfwaXvG3NP4OmeneGUI--tngH-uQtoV_IcbjkxflPkDBFsztUsUI668-mSLB1NTkoQfD_kpayR8mjElDxt-3XglOIsjelZkitgR3wwPlY3XpVzmOVu7?></g></svg>