<svg xmlns="http://www.w3.org/2000/svg" xmlns:xlink="http://www.w3.org/1999/xlink" contentStyleType="text/css" data-diagram-type="CLASS" height="617px" preserveAspectRatio="none" style="width:1376px;height:617px;background:#FFFFFF;" version="1.1" viewBox="0 0 1376 617" width="1376px" zoomAndPan="magnify"><?plantuml 1.2026.6?><defs/><g><!--class user--><g class="entity" data-qualified-name="user" data-source-line="3" id="ent0001"><rect fill="#F1F1F1" height="48" rx="2.5" ry="2.5" style="stroke:#181818;stroke-width:0.5;" width="151.0684" x="7" y="7"/><ellipse cx="22" cy="23" fill="#ADD1B2" rx="11" ry="11" style="stroke:#181818;stroke-width:1;"/><path d="M24.7656,18.875 Q24.9219,18.6563 25.1094,18.5469 Q25.2969,18.4375 25.5156,18.4375 Q25.8906,18.4375 26.125,18.7031 Q26.3594,18.9531 26.3594,19.5625 L26.3594,21.0156 Q26.3594,21.625 26.125,21.8906 Q25.8906,22.1563 25.5156,22.1563 Q25.1719,22.1563 24.9688,21.9531 Q24.7656,21.7656 24.6563,21.25 Q24.6094,20.8906 24.4219,20.7031 Q24.0938,20.3281 23.4844,20.1094 Q22.875,19.8906 22.25,19.8906 Q21.4844,19.8906 20.8438,20.2188 Q20.2188,20.5469 19.7188,21.2969 Q19.2344,22.0469 19.2344,23.0781 L19.2344,24.1719 Q19.2344,25.4063 20.125,26.2344 Q21.0156,27.0469 22.6094,27.0469 Q23.5469,27.0469 24.2031,26.7969 Q24.5938,26.6406 25.0156,26.2031 Q25.2813,25.9375 25.4219,25.8594 Q25.5781,25.7813 25.7813,25.7813 Q26.1094,25.7813 26.3594,26.0469 Q26.625,26.2969 26.625,26.6406 Q26.625,26.9844 26.2813,27.3906 Q25.7813,27.9688 24.9844,28.2969 Q23.9063,28.75 22.6094,28.75 Q21.0938,28.75 19.8906,28.125 Q18.9063,27.625 18.2188,26.5625 Q17.5313,25.4844 17.5313,24.2031 L17.5313,23.0469 Q17.5313,21.7188 18.1406,20.5781 Q18.7656,19.4219 19.8594,18.8125 Q20.9531,18.1875 22.1875,18.1875 Q22.9219,18.1875 23.5625,18.3594 Q24.2188,18.5156 24.7656,18.875 Z " fill="#000000"/><text fill="#000000" font-family="sans-serif" font-size="14" lengthAdjust="spacing" textLength="119.0684" x="36" y="28.7285">Authenticated User</text><line style="stroke:#181818;stroke-width:0.5;" x1="8" x2="157.0684" y1="39" y2="39"/><line style="stroke:#181818;stroke-width:0.5;" x1="8" x2="157.0684" y1="47" y2="47"/></g><!--class keycloak--><g class="entity" data-qualified-name="keycloak" data-source-line="4" id="ent0002"><rect fill="#F1F1F1" height="48" rx="2.5" ry="2.5" style="stroke:#181818;stroke-width:0.5;" width="88.8066" x="231" y="554"/><ellipse cx="246" cy="570" fill="#ADD1B2" rx="11" ry="11" style="stroke:#181818;stroke-width:1;"/><path d="M248.7656,565.875 Q248.9219,565.6563 249.1094,565.5469 Q249.2969,565.4375 249.5156,565.4375 Q249.8906,565.4375 250.125,565.7031 Q250.3594,565.9531 250.3594,566.5625 L250.3594,568.0156 Q250.3594,568.625 250.125,568.8906 Q249.8906,569.1563 249.5156,569.1563 Q249.1719,569.1563 248.9688,568.9531 Q248.7656,568.7656 248.6563,568.25 Q248.6094,567.8906 248.4219,567.7031 Q248.0938,567.3281 247.4844,567.1094 Q246.875,566.8906 246.25,566.8906 Q245.4844,566.8906 244.8438,567.2188 Q244.2188,567.5469 243.7188,568.2969 Q243.2344,569.0469 243.2344,570.0781 L243.2344,571.1719 Q243.2344,572.4063 244.125,573.2344 Q245.0156,574.0469 246.6094,574.0469 Q247.5469,574.0469 248.2031,573.7969 Q248.5938,573.6406 249.0156,573.2031 Q249.2813,572.9375 249.4219,572.8594 Q249.5781,572.7813 249.7813,572.7813 Q250.1094,572.7813 250.3594,573.0469 Q250.625,573.2969 250.625,573.6406 Q250.625,573.9844 250.2813,574.3906 Q249.7813,574.9688 248.9844,575.2969 Q247.9063,575.75 246.6094,575.75 Q245.0938,575.75 243.8906,575.125 Q242.9063,574.625 242.2188,573.5625 Q241.5313,572.4844 241.5313,571.2031 L241.5313,570.0469 Q241.5313,568.7188 242.1406,567.5781 Q242.7656,566.4219 243.8594,565.8125 Q244.9531,565.1875 246.1875,565.1875 Q246.9219,565.1875 247.5625,565.3594 Q248.2188,565.5156 248.7656,565.875 Z " fill="#000000"/><text fill="#000000" font-family="sans-serif" font-size="14" lengthAdjust="spacing" textLength="56.8066" x="260" y="575.7285">Keycloak</text><line style="stroke:#181818;stroke-width:0.5;" x1="232" x2="318.8066" y1="586" y2="586"/><line style="stroke:#181818;stroke-width:0.5;" x1="232" x2="318.8066" y1="594" y2="594"/></g><!--class gateway--><g class="entity" data-qualified-name="gateway" data-source-line="5" id="ent0003"><rect fill="#F1F1F1" height="48" rx="2.5" ry="2.5" style="stroke:#181818;stroke-width:0.5;" width="113.7031" x="170.5" y="149"/><ellipse cx="185.5" cy="165" fill="#ADD1B2" rx="11" ry="11" style="stroke:#181818;stroke-width:1;"/><path d="M188.2656,160.875 Q188.4219,160.6563 188.6094,160.5469 Q188.7969,160.4375 189.0156,160.4375 Q189.3906,160.4375 189.625,160.7031 Q189.8594,160.9531 189.8594,161.5625 L189.8594,163.0156 Q189.8594,163.625 189.625,163.8906 Q189.3906,164.1563 189.0156,164.1563 Q188.6719,164.1563 188.4688,163.9531 Q188.2656,163.7656 188.1563,163.25 Q188.1094,162.8906 187.9219,162.7031 Q187.5938,162.3281 186.9844,162.1094 Q186.375,161.8906 185.75,161.8906 Q184.9844,161.8906 184.3438,162.2188 Q183.7188,162.5469 183.2188,163.2969 Q182.7344,164.0469 182.7344,165.0781 L182.7344,166.1719 Q182.7344,167.4063 183.625,168.2344 Q184.5156,169.0469 186.1094,169.0469 Q187.0469,169.0469 187.7031,168.7969 Q188.0938,168.6406 188.5156,168.2031 Q188.7813,167.9375 188.9219,167.8594 Q189.0781,167.7813 189.2813,167.7813 Q189.6094,167.7813 189.8594,168.0469 Q190.125,168.2969 190.125,168.6406 Q190.125,168.9844 189.7813,169.3906 Q189.2813,169.9688 188.4844,170.2969 Q187.4063,170.75 186.1094,170.75 Q184.5938,170.75 183.3906,170.125 Q182.4063,169.625 181.7188,168.5625 Q181.0313,167.4844 181.0313,166.2031 L181.0313,165.0469 Q181.0313,163.7188 181.6406,162.5781 Q182.2656,161.4219 183.3594,160.8125 Q184.4531,160.1875 185.6875,160.1875 Q186.4219,160.1875 187.0625,160.3594 Q187.7188,160.5156 188.2656,160.875 Z " fill="#000000"/><text fill="#000000" font-family="sans-serif" font-size="14" lengthAdjust="spacing" textLength="81.7031" x="199.5" y="170.7285">API Gateway</text><line style="stroke:#181818;stroke-width:0.5;" x1="171.5" x2="283.2031" y1="181" y2="181"/><line style="stroke:#181818;stroke-width:0.5;" x1="171.5" x2="283.2031" y1="189" y2="189"/></g><!--class runtimeBundle--><g class="entity" data-qualified-name="runtimeBundle" data-source-line="6" id="ent0004"><rect fill="#F1F1F1" height="48" rx="2.5" ry="2.5" style="stroke:#181818;stroke-width:0.5;" width="189.9717" x="464.5" y="288.5"/><ellipse cx="479.5" cy="304.5" fill="#ADD1B2" rx="11" ry="11" style="stroke:#181818;stroke-width:1;"/><path d="M482.2656,300.375 Q482.4219,300.1563 482.6094,300.0469 Q482.7969,299.9375 483.0156,299.9375 Q483.3906,299.9375 483.625,300.2031 Q483.8594,300.4531 483.8594,301.0625 L483.8594,302.5156 Q483.8594,303.125 483.625,303.3906 Q483.3906,303.6563 483.0156,303.6563 Q482.6719,303.6563 482.4688,303.4531 Q482.2656,303.2656 482.1563,302.75 Q482.1094,302.3906 481.9219,302.2031 Q481.5938,301.8281 480.9844,301.6094 Q480.375,301.3906 479.75,301.3906 Q478.9844,301.3906 478.3438,301.7188 Q477.7188,302.0469 477.2188,302.7969 Q476.7344,303.5469 476.7344,304.5781 L476.7344,305.6719 Q476.7344,306.9063 477.625,307.7344 Q478.5156,308.5469 480.1094,308.5469 Q481.0469,308.5469 481.7031,308.2969 Q482.0938,308.1406 482.5156,307.7031 Q482.7813,307.4375 482.9219,307.3594 Q483.0781,307.2813 483.2813,307.2813 Q483.6094,307.2813 483.8594,307.5469 Q484.125,307.7969 484.125,308.1406 Q484.125,308.4844 483.7813,308.8906 Q483.2813,309.4688 482.4844,309.7969 Q481.4063,310.25 480.1094,310.25 Q478.5938,310.25 477.3906,309.625 Q476.4063,309.125 475.7188,308.0625 Q475.0313,306.9844 475.0313,305.7031 L475.0313,304.5469 Q475.0313,303.2188 475.6406,302.0781 Q476.2656,300.9219 477.3594,300.3125 Q478.4531,299.6875 479.6875,299.6875 Q480.4219,299.6875 481.0625,299.8594 Q481.7188,300.0156 482.2656,300.375 Z " fill="#000000"/><text fill="#000000" font-family="sans-serif" font-size="14" lengthAdjust="spacing" textLength="157.9717" x="493.5" y="310.2285">Example Runtime Bundle</text><line style="stroke:#181818;stroke-width:0.5;" x1="465.5" x2="653.4717" y1="320.5" y2="320.5"/><line style="stroke:#181818;stroke-width:0.5;" x1="465.5" x2="653.4717" y1="328.5" y2="328.5"/></g><!--class processRuntime--><g class="entity" data-qualified-name="processRuntime" data-source-line="7" id="ent0005"><rect fill="#F1F1F1" height="48" rx="2.5" ry="2.5" style="stroke:#181818;stroke-width:0.5;" width="161.1582" x="281" y="428"/><ellipse cx="296" cy="444" fill="#ADD1B2" rx="11" ry="11" style="stroke:#181818;stroke-width:1;"/><path d="M298.7656,439.875 Q298.9219,439.6563 299.1094,439.5469 Q299.2969,439.4375 299.5156,439.4375 Q299.8906,439.4375 300.125,439.7031 Q300.3594,439.9531 300.3594,440.5625 L300.3594,442.0156 Q300.3594,442.625 300.125,442.8906 Q299.8906,443.1563 299.5156,443.1563 Q299.1719,443.1563 298.9688,442.9531 Q298.7656,442.7656 298.6563,442.25 Q298.6094,441.8906 298.4219,441.7031 Q298.0938,441.3281 297.4844,441.1094 Q296.875,440.8906 296.25,440.8906 Q295.4844,440.8906 294.8438,441.2188 Q294.2188,441.5469 293.7188,442.2969 Q293.2344,443.0469 293.2344,444.0781 L293.2344,445.1719 Q293.2344,446.4063 294.125,447.2344 Q295.0156,448.0469 296.6094,448.0469 Q297.5469,448.0469 298.2031,447.7969 Q298.5938,447.6406 299.0156,447.2031 Q299.2813,446.9375 299.4219,446.8594 Q299.5781,446.7813 299.7813,446.7813 Q300.1094,446.7813 300.3594,447.0469 Q300.625,447.2969 300.625,447.6406 Q300.625,447.9844 300.2813,448.3906 Q299.7813,448.9688 298.9844,449.2969 Q297.9063,449.75 296.6094,449.75 Q295.0938,449.75 293.8906,449.125 Q292.9063,448.625 292.2188,447.5625 Q291.5313,446.4844 291.5313,445.2031 L291.5313,444.0469 Q291.5313,442.7188 292.1406,441.5781 Q292.7656,440.4219 293.8594,439.8125 Q294.9531,439.1875 296.1875,439.1875 Q296.9219,439.1875 297.5625,439.3594 Q298.2188,439.5156 298.7656,439.875 Z " fill="#000000"/><text fill="#000000" font-family="sans-serif" font-size="14" lengthAdjust="spacing" textLength="129.1582" x="310" y="449.7285">ProcessRuntime API</text><line style="stroke:#181818;stroke-width:0.5;" x1="282" x2="441.1582" y1="460" y2="460"/><line style="stroke:#181818;stroke-width:0.5;" x1="282" x2="441.1582" y1="468" y2="468"/></g><!--class taskRuntime--><g class="entity" data-qualified-name="taskRuntime" data-source-line="8" id="ent0006"><rect fill="#F1F1F1" height="48" rx="2.5" ry="2.5" style="stroke:#181818;stroke-width:0.5;" width="140.9238" x="483" y="428"/><ellipse cx="498" cy="444" fill="#ADD1B2" rx="11" ry="11" style="stroke:#181818;stroke-width:1;"/><path d="M500.7656,439.875 Q500.9219,439.6563 501.1094,439.5469 Q501.2969,439.4375 501.5156,439.4375 Q501.8906,439.4375 502.125,439.7031 Q502.3594,439.9531 502.3594,440.5625 L502.3594,442.0156 Q502.3594,442.625 502.125,442.8906 Q501.8906,443.1563 501.5156,443.1563 Q501.1719,443.1563 500.9688,442.9531 Q500.7656,442.7656 500.6563,442.25 Q500.6094,441.8906 500.4219,441.7031 Q500.0938,441.3281 499.4844,441.1094 Q498.875,440.8906 498.25,440.8906 Q497.4844,440.8906 496.8438,441.2188 Q496.2188,441.5469 495.7188,442.2969 Q495.2344,443.0469 495.2344,444.0781 L495.2344,445.1719 Q495.2344,446.4063 496.125,447.2344 Q497.0156,448.0469 498.6094,448.0469 Q499.5469,448.0469 500.2031,447.7969 Q500.5938,447.6406 501.0156,447.2031 Q501.2813,446.9375 501.4219,446.8594 Q501.5781,446.7813 501.7813,446.7813 Q502.1094,446.7813 502.3594,447.0469 Q502.625,447.2969 502.625,447.6406 Q502.625,447.9844 502.2813,448.3906 Q501.7813,448.9688 500.9844,449.2969 Q499.9063,449.75 498.6094,449.75 Q497.0938,449.75 495.8906,449.125 Q494.9063,448.625 494.2188,447.5625 Q493.5313,446.4844 493.5313,445.2031 L493.5313,444.0469 Q493.5313,442.7188 494.1406,441.5781 Q494.7656,440.4219 495.8594,439.8125 Q496.9531,439.1875 498.1875,439.1875 Q498.9219,439.1875 499.5625,439.3594 Q500.2188,439.5156 500.7656,439.875 Z " fill="#000000"/><text fill="#000000" font-family="sans-serif" font-size="14" lengthAdjust="spacing" textLength="108.9238" x="512" y="449.7285">TaskRuntime API</text><line style="stroke:#181818;stroke-width:0.5;" x1="484" x2="622.9238" y1="460" y2="460"/><line style="stroke:#181818;stroke-width:0.5;" x1="484" x2="622.9238" y1="468" y2="468"/></g><!--class auditService--><g class="entity" data-qualified-name="auditService" data-source-line="9" id="ent0007"><rect fill="#F1F1F1" height="48" rx="2.5" ry="2.5" style="stroke:#181818;stroke-width:0.5;" width="114.4824" x="682.5" y="428"/><ellipse cx="697.5" cy="444" fill="#ADD1B2" rx="11" ry="11" style="stroke:#181818;stroke-width:1;"/><path d="M700.2656,439.875 Q700.4219,439.6563 700.6094,439.5469 Q700.7969,439.4375 701.0156,439.4375 Q701.3906,439.4375 701.625,439.7031 Q701.8594,439.9531 701.8594,440.5625 L701.8594,442.0156 Q701.8594,442.625 701.625,442.8906 Q701.3906,443.1563 701.0156,443.1563 Q700.6719,443.1563 700.4688,442.9531 Q700.2656,442.7656 700.1563,442.25 Q700.1094,441.8906 699.9219,441.7031 Q699.5938,441.3281 698.9844,441.1094 Q698.375,440.8906 697.75,440.8906 Q696.9844,440.8906 696.3438,441.2188 Q695.7188,441.5469 695.2188,442.2969 Q694.7344,443.0469 694.7344,444.0781 L694.7344,445.1719 Q694.7344,446.4063 695.625,447.2344 Q696.5156,448.0469 698.1094,448.0469 Q699.0469,448.0469 699.7031,447.7969 Q700.0938,447.6406 700.5156,447.2031 Q700.7813,446.9375 700.9219,446.8594 Q701.0781,446.7813 701.2813,446.7813 Q701.6094,446.7813 701.8594,447.0469 Q702.125,447.2969 702.125,447.6406 Q702.125,447.9844 701.7813,448.3906 Q701.2813,448.9688 700.4844,449.2969 Q699.4063,449.75 698.1094,449.75 Q696.5938,449.75 695.3906,449.125 Q694.4063,448.625 693.7188,447.5625 Q693.0313,446.4844 693.0313,445.2031 L693.0313,444.0469 Q693.0313,442.7188 693.6406,441.5781 Q694.2656,440.4219 695.3594,439.8125 Q696.4531,439.1875 697.6875,439.1875 Q698.4219,439.1875 699.0625,439.3594 Q699.7188,439.5156 700.2656,439.875 Z " fill="#000000"/><text fill="#000000" font-family="sans-serif" font-size="14" lengthAdjust="spacing" textLength="82.4824" x="711.5" y="449.7285">Audit Service</text><line style="stroke:#181818;stroke-width:0.5;" x1="683.5" x2="795.9824" y1="460" y2="460"/><line style="stroke:#181818;stroke-width:0.5;" x1="683.5" x2="795.9824" y1="468" y2="468"/></g><!--class queryService--><g class="entity" data-qualified-name="queryService" data-source-line="10" id="ent0008"><rect fill="#F1F1F1" height="48" rx="2.5" ry="2.5" style="stroke:#181818;stroke-width:0.5;" width="120.6963" x="832" y="428"/><ellipse cx="847" cy="444" fill="#ADD1B2" rx="11" ry="11" style="stroke:#181818;stroke-width:1;"/><path d="M849.7656,439.875 Q849.9219,439.6563 850.1094,439.5469 Q850.2969,439.4375 850.5156,439.4375 Q850.8906,439.4375 851.125,439.7031 Q851.3594,439.9531 851.3594,440.5625 L851.3594,442.0156 Q851.3594,442.625 851.125,442.8906 Q850.8906,443.1563 850.5156,443.1563 Q850.1719,443.1563 849.9688,442.9531 Q849.7656,442.7656 849.6563,442.25 Q849.6094,441.8906 849.4219,441.7031 Q849.0938,441.3281 848.4844,441.1094 Q847.875,440.8906 847.25,440.8906 Q846.4844,440.8906 845.8438,441.2188 Q845.2188,441.5469 844.7188,442.2969 Q844.2344,443.0469 844.2344,444.0781 L844.2344,445.1719 Q844.2344,446.4063 845.125,447.2344 Q846.0156,448.0469 847.6094,448.0469 Q848.5469,448.0469 849.2031,447.7969 Q849.5938,447.6406 850.0156,447.2031 Q850.2813,446.9375 850.4219,446.8594 Q850.5781,446.7813 850.7813,446.7813 Q851.1094,446.7813 851.3594,447.0469 Q851.625,447.2969 851.625,447.6406 Q851.625,447.9844 851.2813,448.3906 Q850.7813,448.9688 849.9844,449.2969 Q848.9063,449.75 847.6094,449.75 Q846.0938,449.75 844.8906,449.125 Q843.9063,448.625 843.2188,447.5625 Q842.5313,446.4844 842.5313,445.2031 L842.5313,444.0469 Q842.5313,442.7188 843.1406,441.5781 Q843.7656,440.4219 844.8594,439.8125 Q845.9531,439.1875 847.1875,439.1875 Q847.9219,439.1875 848.5625,439.3594 Q849.2188,439.5156 849.7656,439.875 Z " fill="#000000"/><text fill="#000000" font-family="sans-serif" font-size="14" lengthAdjust="spacing" textLength="88.6963" x="861" y="449.7285">Query Service</text><line style="stroke:#181818;stroke-width:0.5;" x1="833" x2="951.6963" y1="460" y2="460"/><line style="stroke:#181818;stroke-width:0.5;" x1="833" x2="951.6963" y1="468" y2="468"/></g><!--class ingress--><g class="entity" data-qualified-name="ingress" data-source-line="11" id="ent0009"><rect fill="#F1F1F1" height="48" rx="2.5" ry="2.5" style="stroke:#181818;stroke-width:0.5;" width="190.7168" x="1171" y="7"/><ellipse cx="1186" cy="23" fill="#ADD1B2" rx="11" ry="11" style="stroke:#181818;stroke-width:1;"/><path d="M1188.7656,18.875 Q1188.9219,18.6563 1189.1094,18.5469 Q1189.2969,18.4375 1189.5156,18.4375 Q1189.8906,18.4375 1190.125,18.7031 Q1190.3594,18.9531 1190.3594,19.5625 L1190.3594,21.0156 Q1190.3594,21.625 1190.125,21.8906 Q1189.8906,22.1563 1189.5156,22.1563 Q1189.1719,22.1563 1188.9688,21.9531 Q1188.7656,21.7656 1188.6563,21.25 Q1188.6094,20.8906 1188.4219,20.7031 Q1188.0938,20.3281 1187.4844,20.1094 Q1186.875,19.8906 1186.25,19.8906 Q1185.4844,19.8906 1184.8438,20.2188 Q1184.2188,20.5469 1183.7188,21.2969 Q1183.2344,22.0469 1183.2344,23.0781 L1183.2344,24.1719 Q1183.2344,25.4063 1184.125,26.2344 Q1185.0156,27.0469 1186.6094,27.0469 Q1187.5469,27.0469 1188.2031,26.7969 Q1188.5938,26.6406 1189.0156,26.2031 Q1189.2813,25.9375 1189.4219,25.8594 Q1189.5781,25.7813 1189.7813,25.7813 Q1190.1094,25.7813 1190.3594,26.0469 Q1190.625,26.2969 1190.625,26.6406 Q1190.625,26.9844 1190.2813,27.3906 Q1189.7813,27.9688 1188.9844,28.2969 Q1187.9063,28.75 1186.6094,28.75 Q1185.0938,28.75 1183.8906,28.125 Q1182.9063,27.625 1182.2188,26.5625 Q1181.5313,25.4844 1181.5313,24.2031 L1181.5313,23.0469 Q1181.5313,21.7188 1182.1406,20.5781 Q1182.7656,19.4219 1183.8594,18.8125 Q1184.9531,18.1875 1186.1875,18.1875 Q1186.9219,18.1875 1187.5625,18.3594 Q1188.2188,18.5156 1188.7656,18.875 Z " fill="#000000"/><text fill="#000000" font-family="sans-serif" font-size="14" lengthAdjust="spacing" textLength="158.7168" x="1200" y="28.7285">NGINX Ingress Controller</text><line style="stroke:#181818;stroke-width:0.5;" x1="1172" x2="1360.7168" y1="39" y2="39"/><line style="stroke:#181818;stroke-width:0.5;" x1="1172" x2="1360.7168" y1="47" y2="47"/></g><!--class kubernetes--><g class="entity" data-qualified-name="kubernetes" data-source-line="12" id="ent0010"><rect fill="#F1F1F1" height="48" rx="2.5" ry="2.5" style="stroke:#181818;stroke-width:0.5;" width="185.2959" x="960" y="149"/><ellipse cx="975" cy="165" fill="#ADD1B2" rx="11" ry="11" style="stroke:#181818;stroke-width:1;"/><path d="M977.7656,160.875 Q977.9219,160.6563 978.1094,160.5469 Q978.2969,160.4375 978.5156,160.4375 Q978.8906,160.4375 979.125,160.7031 Q979.3594,160.9531 979.3594,161.5625 L979.3594,163.0156 Q979.3594,163.625 979.125,163.8906 Q978.8906,164.1563 978.5156,164.1563 Q978.1719,164.1563 977.9688,163.9531 Q977.7656,163.7656 977.6563,163.25 Q977.6094,162.8906 977.4219,162.7031 Q977.0938,162.3281 976.4844,162.1094 Q975.875,161.8906 975.25,161.8906 Q974.4844,161.8906 973.8438,162.2188 Q973.2188,162.5469 972.7188,163.2969 Q972.2344,164.0469 972.2344,165.0781 L972.2344,166.1719 Q972.2344,167.4063 973.125,168.2344 Q974.0156,169.0469 975.6094,169.0469 Q976.5469,169.0469 977.2031,168.7969 Q977.5938,168.6406 978.0156,168.2031 Q978.2813,167.9375 978.4219,167.8594 Q978.5781,167.7813 978.7813,167.7813 Q979.1094,167.7813 979.3594,168.0469 Q979.625,168.2969 979.625,168.6406 Q979.625,168.9844 979.2813,169.3906 Q978.7813,169.9688 977.9844,170.2969 Q976.9063,170.75 975.6094,170.75 Q974.0938,170.75 972.8906,170.125 Q971.9063,169.625 971.2188,168.5625 Q970.5313,167.4844 970.5313,166.2031 L970.5313,165.0469 Q970.5313,163.7188 971.1406,162.5781 Q971.7656,161.4219 972.8594,160.8125 Q973.9531,160.1875 975.1875,160.1875 Q975.9219,160.1875 976.5625,160.3594 Q977.2188,160.5156 977.7656,160.875 Z " fill="#000000"/><text fill="#000000" font-family="sans-serif" font-size="14" lengthAdjust="spacing" textLength="153.2959" x="989" y="170.7285">Kubernetes/GKE Cluster</text><line style="stroke:#181818;stroke-width:0.5;" x1="961" x2="1144.2959" y1="181" y2="181"/><line style="stroke:#181818;stroke-width:0.5;" x1="961" x2="1144.2959" y1="189" y2="189"/></g><!--class deploymentDescriptors--><g class="entity" data-qualified-name="deploymentDescriptors" data-source-line="13" id="ent0011"><rect fill="#F1F1F1" height="48" rx="2.5" ry="2.5" style="stroke:#181818;stroke-width:0.5;" width="181.3857" x="753" y="7"/><ellipse cx="768" cy="23" fill="#ADD1B2" rx="11" ry="11" style="stroke:#181818;stroke-width:1;"/><path d="M770.7656,18.875 Q770.9219,18.6563 771.1094,18.5469 Q771.2969,18.4375 771.5156,18.4375 Q771.8906,18.4375 772.125,18.7031 Q772.3594,18.9531 772.3594,19.5625 L772.3594,21.0156 Q772.3594,21.625 772.125,21.8906 Q771.8906,22.1563 771.5156,22.1563 Q771.1719,22.1563 770.9688,21.9531 Q770.7656,21.7656 770.6563,21.25 Q770.6094,20.8906 770.4219,20.7031 Q770.0938,20.3281 769.4844,20.1094 Q768.875,19.8906 768.25,19.8906 Q767.4844,19.8906 766.8438,20.2188 Q766.2188,20.5469 765.7188,21.2969 Q765.2344,22.0469 765.2344,23.0781 L765.2344,24.1719 Q765.2344,25.4063 766.125,26.2344 Q767.0156,27.0469 768.6094,27.0469 Q769.5469,27.0469 770.2031,26.7969 Q770.5938,26.6406 771.0156,26.2031 Q771.2813,25.9375 771.4219,25.8594 Q771.5781,25.7813 771.7813,25.7813 Q772.1094,25.7813 772.3594,26.0469 Q772.625,26.2969 772.625,26.6406 Q772.625,26.9844 772.2813,27.3906 Q771.7813,27.9688 770.9844,28.2969 Q769.9063,28.75 768.6094,28.75 Q767.0938,28.75 765.8906,28.125 Q764.9063,27.625 764.2188,26.5625 Q763.5313,25.4844 763.5313,24.2031 L763.5313,23.0469 Q763.5313,21.7188 764.1406,20.5781 Q764.7656,19.4219 765.8594,18.8125 Q766.9531,18.1875 768.1875,18.1875 Q768.9219,18.1875 769.5625,18.3594 Q770.2188,18.5156 770.7656,18.875 Z " fill="#000000"/><text fill="#000000" font-family="sans-serif" font-size="14" lengthAdjust="spacing" textLength="149.3857" x="782" y="28.7285">Deployment Descriptors</text><line style="stroke:#181818;stroke-width:0.5;" x1="754" x2="933.3857" y1="39" y2="39"/><line style="stroke:#181818;stroke-width:0.5;" x1="754" x2="933.3857" y1="47" y2="47"/></g><!--class notificationService--><g class="entity" data-qualified-name="notificationService" data-source-line="33" id="ent0025"><rect fill="#F1F1F1" height="48" rx="2.5" ry="2.5" style="stroke:#181818;stroke-width:0.5;" width="151.8271" x="411.5" y="149"/><ellipse cx="426.5" cy="165" fill="#ADD1B2" rx="11" ry="11" style="stroke:#181818;stroke-width:1;"/><path d="M429.2656,160.875 Q429.4219,160.6563 429.6094,160.5469 Q429.7969,160.4375 430.0156,160.4375 Q430.3906,160.4375 430.625,160.7031 Q430.8594,160.9531 430.8594,161.5625 L430.8594,163.0156 Q430.8594,163.625 430.625,163.8906 Q430.3906,164.1563 430.0156,164.1563 Q429.6719,164.1563 429.4688,163.9531 Q429.2656,163.7656 429.1563,163.25 Q429.1094,162.8906 428.9219,162.7031 Q428.5938,162.3281 427.9844,162.1094 Q427.375,161.8906 426.75,161.8906 Q425.9844,161.8906 425.3438,162.2188 Q424.7188,162.5469 424.2188,163.2969 Q423.7344,164.0469 423.7344,165.0781 L423.7344,166.1719 Q423.7344,167.4063 424.625,168.2344 Q425.5156,169.0469 427.1094,169.0469 Q428.0469,169.0469 428.7031,168.7969 Q429.0938,168.6406 429.5156,168.2031 Q429.7813,167.9375 429.9219,167.8594 Q430.0781,167.7813 430.2813,167.7813 Q430.6094,167.7813 430.8594,168.0469 Q431.125,168.2969 431.125,168.6406 Q431.125,168.9844 430.7813,169.3906 Q430.2813,169.9688 429.4844,170.2969 Q428.4063,170.75 427.1094,170.75 Q425.5938,170.75 424.3906,170.125 Q423.4063,169.625 422.7188,168.5625 Q422.0313,167.4844 422.0313,166.2031 L422.0313,165.0469 Q422.0313,163.7188 422.6406,162.5781 Q423.2656,161.4219 424.3594,160.8125 Q425.4531,160.1875 426.6875,160.1875 Q427.4219,160.1875 428.0625,160.3594 Q428.7188,160.5156 429.2656,160.875 Z " fill="#000000"/><text fill="#000000" font-family="sans-serif" font-size="14" lengthAdjust="spacing" textLength="119.8271" x="440.5" y="170.7285">Notification Service</text><line style="stroke:#181818;stroke-width:0.5;" x1="412.5" x2="562.3271" y1="181" y2="181"/><line style="stroke:#181818;stroke-width:0.5;" x1="412.5" x2="562.3271" y1="189" y2="189"/></g><!--class cloudConnectors--><g class="entity" data-qualified-name="cloudConnectors" data-source-line="34" id="ent0026"><rect fill="#F1F1F1" height="48" rx="2.5" ry="2.5" style="stroke:#181818;stroke-width:0.5;" width="144.0615" x="598.5" y="149"/><ellipse cx="613.5" cy="165" fill="#ADD1B2" rx="11" ry="11" style="stroke:#181818;stroke-width:1;"/><path d="M616.2656,160.875 Q616.4219,160.6563 616.6094,160.5469 Q616.7969,160.4375 617.0156,160.4375 Q617.3906,160.4375 617.625,160.7031 Q617.8594,160.9531 617.8594,161.5625 L617.8594,163.0156 Q617.8594,163.625 617.625,163.8906 Q617.3906,164.1563 617.0156,164.1563 Q616.6719,164.1563 616.4688,163.9531 Q616.2656,163.7656 616.1563,163.25 Q616.1094,162.8906 615.9219,162.7031 Q615.5938,162.3281 614.9844,162.1094 Q614.375,161.8906 613.75,161.8906 Q612.9844,161.8906 612.3438,162.2188 Q611.7188,162.5469 611.2188,163.2969 Q610.7344,164.0469 610.7344,165.0781 L610.7344,166.1719 Q610.7344,167.4063 611.625,168.2344 Q612.5156,169.0469 614.1094,169.0469 Q615.0469,169.0469 615.7031,168.7969 Q616.0938,168.6406 616.5156,168.2031 Q616.7813,167.9375 616.9219,167.8594 Q617.0781,167.7813 617.2813,167.7813 Q617.6094,167.7813 617.8594,168.0469 Q618.125,168.2969 618.125,168.6406 Q618.125,168.9844 617.7813,169.3906 Q617.2813,169.9688 616.4844,170.2969 Q615.4063,170.75 614.1094,170.75 Q612.5938,170.75 611.3906,170.125 Q610.4063,169.625 609.7188,168.5625 Q609.0313,167.4844 609.0313,166.2031 L609.0313,165.0469 Q609.0313,163.7188 609.6406,162.5781 Q610.2656,161.4219 611.3594,160.8125 Q612.4531,160.1875 613.6875,160.1875 Q614.4219,160.1875 615.0625,160.3594 Q615.7188,160.5156 616.2656,160.875 Z " fill="#000000"/><text fill="#000000" font-family="sans-serif" font-size="14" lengthAdjust="spacing" textLength="112.0615" x="627.5" y="170.7285">Cloud Connectors</text><line style="stroke:#181818;stroke-width:0.5;" x1="599.5" x2="741.5615" y1="181" y2="181"/><line style="stroke:#181818;stroke-width:0.5;" x1="599.5" x2="741.5615" y1="189" y2="189"/></g><!--class registry--><g class="entity" data-qualified-name="registry" data-source-line="35" id="ent0027"><rect fill="#F1F1F1" height="48" rx="2.5" ry="2.5" style="stroke:#181818;stroke-width:0.5;" width="165.8271" x="969.5" y="7"/><ellipse cx="984.5" cy="23" fill="#ADD1B2" rx="11" ry="11" style="stroke:#181818;stroke-width:1;"/><path d="M987.2656,18.875 Q987.4219,18.6563 987.6094,18.5469 Q987.7969,18.4375 988.0156,18.4375 Q988.3906,18.4375 988.625,18.7031 Q988.8594,18.9531 988.8594,19.5625 L988.8594,21.0156 Q988.8594,21.625 988.625,21.8906 Q988.3906,22.1563 988.0156,22.1563 Q987.6719,22.1563 987.4688,21.9531 Q987.2656,21.7656 987.1563,21.25 Q987.1094,20.8906 986.9219,20.7031 Q986.5938,20.3281 985.9844,20.1094 Q985.375,19.8906 984.75,19.8906 Q983.9844,19.8906 983.3438,20.2188 Q982.7188,20.5469 982.2188,21.2969 Q981.7344,22.0469 981.7344,23.0781 L981.7344,24.1719 Q981.7344,25.4063 982.625,26.2344 Q983.5156,27.0469 985.1094,27.0469 Q986.0469,27.0469 986.7031,26.7969 Q987.0938,26.6406 987.5156,26.2031 Q987.7813,25.9375 987.9219,25.8594 Q988.0781,25.7813 988.2813,25.7813 Q988.6094,25.7813 988.8594,26.0469 Q989.125,26.2969 989.125,26.6406 Q989.125,26.9844 988.7813,27.3906 Q988.2813,27.9688 987.4844,28.2969 Q986.4063,28.75 985.1094,28.75 Q983.5938,28.75 982.3906,28.125 Q981.4063,27.625 980.7188,26.5625 Q980.0313,25.4844 980.0313,24.2031 L980.0313,23.0469 Q980.0313,21.7188 980.6406,20.5781 Q981.2656,19.4219 982.3594,18.8125 Q983.4531,18.1875 984.6875,18.1875 Q985.4219,18.1875 986.0625,18.3594 Q986.7188,18.5156 987.2656,18.875 Z " fill="#000000"/><text fill="#000000" font-family="sans-serif" font-size="14" lengthAdjust="spacing" textLength="133.8271" x="998.5" y="28.7285">Registry/Config Maps</text><line style="stroke:#181818;stroke-width:0.5;" x1="970.5" x2="1134.3271" y1="39" y2="39"/><line style="stroke:#181818;stroke-width:0.5;" x1="970.5" x2="1134.3271" y1="47" y2="47"/></g><g class="entity" data-qualified-name="GMN31" data-source-line="42" id="ent0032"><path d="M193,9.5 L193,27 L158.22,31 L193,35 L193,52.2031 A0,0 0 0 0 193,52.2031 L538.4478,52.2031 A0,0 0 0 0 538.4478,52.2031 L538.4478,19.5 L528.4478,9.5 L193,9.5 A0,0 0 0 0 193,9.5" fill="#FEFFDD" style="stroke:#181818;stroke-width:0.5;"/><path d="M528.4478,9.5 L528.4478,19.5 L538.4478,19.5 L528.4478,9.5" fill="#FEFFDD" style="stroke:#181818;stroke-width:0.5;"/><text fill="#000000" font-family="sans-serif" font-size="13" lengthAdjust="spacing" textLength="283.2642" x="199" y="27.9951">- Authenticated user obtains token from Keycloak</text><text fill="#000000" font-family="sans-serif" font-size="13" lengthAdjust="spacing" textLength="324.4478" x="199" y="44.3467">- Uses token to access protected endpoints via Gateway</text></g><g class="entity" data-qualified-name="GMN34" data-source-line="47" id="ent0035"><path d="M689.5,275 L689.5,308.5 L654.56,312.5 L689.5,316.5 L689.5,350.4063 A0,0 0 0 0 689.5,350.4063 L1005.2852,350.4063 A0,0 0 0 0 1005.2852,350.4063 L1005.2852,285 L995.2852,275 L689.5,275 A0,0 0 0 0 689.5,275" fill="#FEFFDD" style="stroke:#181818;stroke-width:0.5;"/><path d="M995.2852,275 L995.2852,285 L1005.2852,285 L995.2852,275" fill="#FEFFDD" style="stroke:#181818;stroke-width:0.5;"/><text fill="#000000" font-family="sans-serif" font-size="13" lengthAdjust="spacing" textLength="236.2852" x="695.5" y="293.4951">- Hosts process definitions and instances</text><text fill="#000000" font-family="sans-serif" font-size="13" lengthAdjust="spacing" textLength="294.7852" x="695.5" y="309.8467">- Contains ProcessRuntime and TaskRuntime APIs</text><text fill="#000000" font-family="sans-serif" font-size="13" lengthAdjust="spacing" textLength="142.3589" x="695.5" y="326.1982">- Generates audit events</text><text fill="#000000" font-family="sans-serif" font-size="13" lengthAdjust="spacing" textLength="162.5762" x="695.5" y="342.5498">- Provides query capabilities</text></g><g class="entity" data-qualified-name="GMN37" data-source-line="54" id="ent0038"><path d="M1040.5,283 L1040.5,342.0547 A0,0 0 0 0 1040.5,342.0547 L1308.5952,342.0547 A0,0 0 0 0 1308.5952,342.0547 L1308.5952,293 L1298.5952,283 L1152.92,283 L1072.92,197.01 L1144.92,283 L1040.5,283 A0,0 0 0 0 1040.5,283" fill="#FEFFDD" style="stroke:#181818;stroke-width:0.5;"/><path d="M1298.5952,283 L1298.5952,293 L1308.5952,293 L1298.5952,283" fill="#FEFFDD" style="stroke:#181818;stroke-width:0.5;"/><text fill="#000000" font-family="sans-serif" font-size="13" lengthAdjust="spacing" textLength="143.7681" x="1046.5" y="301.4951">- Hosts all cloud services</text><text fill="#000000" font-family="sans-serif" font-size="13" lengthAdjust="spacing" textLength="229.7788" x="1046.5" y="317.8467">- Configured via deployment descriptors</text><text fill="#000000" font-family="sans-serif" font-size="13" lengthAdjust="spacing" textLength="247.0952" x="1046.5" y="334.1982">- Exposes services through NGINX ingress</text></g><!--link user to keycloak--><g class="link" data-entity-1="ent0001" data-entity-2="ent0002" data-link-type="dependency" data-source-line="16" id="lnk12"><path codeLine="16" d="M63.2,55.11 C43.09,81.6 14.5,127.15 14.5,172 C14.5,172 14.5,172 14.5,453 C14.5,547.69 151.3924,569.8074 225.9424,575.0774" fill="none" id="user-to-keycloak" style="stroke:#181818;stroke-width:1;"/><polygon fill="#181818" points="230.93,575.43,222.2345,570.8053,225.9424,575.0774,221.6703,578.7854,230.93,575.43" style="stroke:#181818;stroke-width:1;stroke-linejoin:miter;stroke-miterlimit:10;"/><text fill="#000000" font-family="sans-serif" font-size="13" lengthAdjust="spacing" textLength="158.2788" x="15.5" y="317.9951">Obtain authentication token</text></g><!--link user to gateway--><g class="link" data-entity-1="ent0001" data-entity-2="ent0003" data-link-type="dependency" data-source-line="17" id="lnk13"><path codeLine="17" d="M106.44,55.12 C133.31,81.06 173.0435,119.4165 199.9235,145.3765" fill="none" id="user-to-gateway" style="stroke:#181818;stroke-width:1;"/><polygon fill="#181818" points="203.52,148.85,199.825,139.7206,199.9235,145.3765,194.2675,145.475,203.52,148.85" style="stroke:#181818;stroke-width:1;stroke-linejoin:miter;stroke-miterlimit:10;"/><text fill="#000000" font-family="sans-serif" font-size="13" lengthAdjust="spacing" textLength="159.707" x="173.5" y="99.4951">Access protected endpoints</text><text fill="#000000" font-family="sans-serif" font-size="13" lengthAdjust="spacing" textLength="67.1899" x="219.7585" y="115.8467">(with token)</text></g><!--link gateway to runtimeBundle--><g class="link" data-entity-1="ent0003" data-entity-2="ent0004" data-link-type="dependency" data-source-line="18" id="lnk14"><path codeLine="18" d="M283.07,197.01 C344.35,222.4 437.7704,261.087 499.1304,286.497" fill="none" id="gateway-to-runtimeBundle" style="stroke:#181818;stroke-width:1;"/><polygon fill="#181818" points="503.75,288.41,496.9652,281.2709,499.1304,286.497,493.9044,288.6622,503.75,288.41" style="stroke:#181818;stroke-width:1;stroke-linejoin:miter;stroke-miterlimit:10;"/><text fill="#000000" font-family="sans-serif" font-size="13" lengthAdjust="spacing" textLength="88.1626" x="394.5" y="241.4951">Route requests</text></g><!--link runtimeBundle to processRuntime--><g class="link" data-entity-1="ent0004" data-entity-2="ent0005" data-link-type="dependency" data-source-line="19" id="lnk15"><path codeLine="19" d="M464.42,333.21 C435.94,343.15 406.68,357.97 385.5,380 C373.05,392.94 367.9757,407.6464 365.0857,422.9864" fill="none" id="runtimeBundle-to-processRuntime" style="stroke:#181818;stroke-width:1;"/><polygon fill="#181818" points="364.16,427.9,369.7571,419.7961,365.0857,422.9864,361.8954,418.315,364.16,427.9" style="stroke:#181818;stroke-width:1;stroke-linejoin:miter;stroke-miterlimit:10;"/><text fill="#000000" font-family="sans-serif" font-size="13" lengthAdjust="spacing" textLength="160.4243" x="386.5" y="394.4951">Execute process operations</text></g><!--link runtimeBundle to taskRuntime--><g class="link" data-entity-1="ent0004" data-entity-2="ent0006" data-link-type="dependency" data-source-line="20" id="lnk16"><path codeLine="20" d="M558.44,336.58 C557.86,349.37 557.13,365.57 556.5,380 C555.8,396.02 555.2485,409.0843 554.6685,422.9843" fill="none" id="runtimeBundle-to-taskRuntime" style="stroke:#181818;stroke-width:1;"/><polygon fill="#181818" points="554.46,427.98,558.8317,419.1546,554.6685,422.9843,550.8387,418.8211,554.46,427.98" style="stroke:#181818;stroke-width:1;stroke-linejoin:miter;stroke-miterlimit:10;"/><text fill="#000000" font-family="sans-serif" font-size="13" lengthAdjust="spacing" textLength="138.7471" x="557.5" y="394.4951">Execute task operations</text></g><!--link runtimeBundle to auditService--><g class="link" data-entity-1="ent0004" data-entity-2="ent0007" data-link-type="dependency" data-source-line="21" id="lnk17"><path codeLine="21" d="M630.07,336.52 C654.44,346.97 680.58,361.28 700.5,380 C714.54,393.2 722.7709,407.9955 729.2009,423.1855" fill="none" id="runtimeBundle-to-auditService" style="stroke:#181818;stroke-width:1;"/><polygon fill="#181818" points="731.15,427.79,731.3252,417.9427,729.2009,423.1855,723.9581,421.0612,731.15,427.79" style="stroke:#181818;stroke-width:1;stroke-linejoin:miter;stroke-miterlimit:10;"/><text fill="#000000" font-family="sans-serif" font-size="13" lengthAdjust="spacing" textLength="95.4053" x="715.5" y="394.4951">Log audit events</text></g><!--link runtimeBundle to queryService--><g class="link" data-entity-1="ent0004" data-entity-2="ent0008" data-link-type="dependency" data-source-line="22" id="lnk18"><path codeLine="22" d="M626.66,336.55 C641.65,341.31 657.55,346.07 672.5,350 C736.99,366.94 760.55,348.83 819.5,380 C841.54,391.65 858.2158,408.1884 871.6558,424.1184" fill="none" id="runtimeBundle-to-queryService" style="stroke:#181818;stroke-width:1;"/><polygon fill="#181818" points="874.88,427.94,872.1337,418.4818,871.6558,424.1184,866.0191,423.6406,874.88,427.94" style="stroke:#181818;stroke-width:1;stroke-linejoin:miter;stroke-miterlimit:10;"/><text fill="#000000" font-family="sans-serif" font-size="13" lengthAdjust="spacing" textLength="109.1226" x="845.5" y="394.4951">Provide query data</text></g><!--link ingress to kubernetes--><g class="link" data-entity-1="ent0009" data-entity-2="ent0010" data-link-type="dependency" data-source-line="23" id="lnk19"><path codeLine="23" d="M1233.35,55.13 C1207.67,72.9 1171.09,97.9 1138.5,119 C1123.04,129.01 1110.0649,137.1103 1095.0949,146.2703" fill="none" id="ingress-to-kubernetes" style="stroke:#181818;stroke-width:1;"/><polygon fill="#181818" points="1090.83,148.88,1100.5946,147.5945,1095.0949,146.2703,1096.4191,140.7707,1090.83,148.88" style="stroke:#181818;stroke-width:1;stroke-linejoin:miter;stroke-miterlimit:10;"/><text fill="#000000" font-family="sans-serif" font-size="13" lengthAdjust="spacing" textLength="119.9453" x="1188.5" y="107.4951">Route external traffic</text></g><!--link kubernetes to runtimeBundle--><g class="link" data-entity-1="ent0010" data-entity-2="ent0004" data-link-type="dependency" data-source-line="24" id="lnk20"><path codeLine="24" d="M960.37,197.04 C883.18,216.69 770.24,246.25 672.5,275 C658.36,279.16 648.0626,282.3177 633.7026,286.9077" fill="none" id="kubernetes-to-runtimeBundle" style="stroke:#181818;stroke-width:1;"/><polygon fill="#181818" points="628.94,288.43,638.7306,289.4999,633.7026,286.9077,636.2949,281.8797,628.94,288.43" style="stroke:#181818;stroke-width:1;stroke-linejoin:miter;stroke-miterlimit:10;"/><text fill="#000000" font-family="sans-serif" font-size="13" lengthAdjust="spacing" textLength="78.019" x="839.5" y="241.4951">Host services</text></g><!--link deploymentDescriptors to kubernetes--><g class="link" data-entity-1="ent0011" data-entity-2="ent0010" data-link-type="dependency" data-source-line="25" id="lnk21"><path codeLine="25" d="M861.15,55.25 C876.65,74.41 900.72,101.23 926.5,119 C943.79,130.92 959.5718,139.0137 978.8518,147.0137" fill="none" id="deploymentDescriptors-to-kubernetes" style="stroke:#181818;stroke-width:1;"/><polygon fill="#181818" points="983.47,148.93,976.6902,141.7861,978.8518,147.0137,973.6242,149.1753,983.47,148.93" style="stroke:#181818;stroke-width:1;stroke-linejoin:miter;stroke-miterlimit:10;"/><text fill="#000000" font-family="sans-serif" font-size="13" lengthAdjust="spacing" textLength="116.3335" x="927.5" y="107.4951">Configure scalability</text></g><!--link gateway to keycloak--><g class="link" data-entity-1="ent0003" data-entity-2="ent0002" data-link-type="dependency" data-source-line="28" id="lnk22"><path codeLine="28" d="M230.25,197.11 C238.72,268.2 263.7188,478.0551 272.1688,549.0151" fill="none" id="gateway-to-keycloak" style="stroke:#181818;stroke-width:1;stroke-dasharray:7,7;"/><polygon fill="#181818" points="272.76,553.98,275.6677,544.5702,272.1688,549.0151,267.7239,545.5161,272.76,553.98" style="stroke:#181818;stroke-width:1;stroke-linejoin:miter;stroke-miterlimit:10;"/><text fill="#000000" font-family="sans-serif" font-size="13" lengthAdjust="spacing" textLength="88.8926" x="255.5" y="394.4951">Validate tokens</text></g><!--link taskRuntime to keycloak--><g class="link" data-entity-1="ent0006" data-entity-2="ent0002" data-link-type="dependency" data-source-line="29" id="lnk23"><path codeLine="29" d="M515.71,476.15 C490.67,490.94 456.78,509.92 425.5,524 C391,539.53 355.2189,552.0862 324.9989,561.8262" fill="none" id="taskRuntime-to-keycloak" style="stroke:#181818;stroke-width:1;stroke-dasharray:7,7;"/><polygon fill="#181818" points="320.24,563.36,330.0331,564.4063,324.9989,561.8262,327.579,556.792,320.24,563.36" style="stroke:#181818;stroke-width:1;stroke-linejoin:miter;stroke-miterlimit:10;"/><text fill="#000000" font-family="sans-serif" font-size="13" lengthAdjust="spacing" textLength="97.5381" x="462.5" y="520.4951">Check user roles</text></g><!--link processRuntime to keycloak--><g class="link" data-entity-1="ent0005" data-entity-2="ent0002" data-link-type="dependency" data-source-line="30" id="lnk24"><path codeLine="30" d="M345.53,476.03 C330.18,498.17 309.9498,527.3316 294.5298,549.5616" fill="none" id="processRuntime-to-keycloak" style="stroke:#181818;stroke-width:1;stroke-dasharray:7,7;"/><polygon fill="#181818" points="291.68,553.67,300.0963,548.5548,294.5298,549.5616,293.5229,543.9951,291.68,553.67" style="stroke:#181818;stroke-width:1;stroke-linejoin:miter;stroke-miterlimit:10;"/><text fill="#000000" font-family="sans-serif" font-size="13" lengthAdjust="spacing" textLength="91.0508" x="325.5" y="520.4951">Validate access</text></g><!--link notificationService to runtimeBundle--><g class="link" data-entity-1="ent0025" data-entity-2="ent0004" data-link-type="dependency" data-source-line="37" id="lnk28"><path codeLine="37" d="M499.55,197.01 C512.84,222.4 531.78,258.5708 545.09,283.9808" fill="none" id="notificationService-to-runtimeBundle" style="stroke:#181818;stroke-width:1;stroke-dasharray:7,7;"/><polygon fill="#181818" points="547.41,288.41,546.7773,278.5815,545.09,283.9808,539.6906,282.2935,547.41,288.41" style="stroke:#181818;stroke-width:1;stroke-linejoin:miter;stroke-miterlimit:10;"/><text fill="#000000" font-family="sans-serif" font-size="13" lengthAdjust="spacing" textLength="76.5972" x="524.5" y="241.4951">(background)</text></g><!--link cloudConnectors to runtimeBundle--><g class="link" data-entity-1="ent0026" data-entity-2="ent0004" data-link-type="dependency" data-source-line="38" id="lnk29"><path codeLine="38" d="M651.92,197.01 C631.43,222.4 601.7904,259.1093 581.2804,284.5193" fill="none" id="cloudConnectors-to-runtimeBundle" style="stroke:#181818;stroke-width:1;stroke-dasharray:7,7;"/><polygon fill="#181818" points="578.14,288.41,586.9054,283.9191,581.2804,284.5193,580.6802,278.8944,578.14,288.41" style="stroke:#181818;stroke-width:1;stroke-linejoin:miter;stroke-miterlimit:10;"/><text fill="#000000" font-family="sans-serif" font-size="13" lengthAdjust="spacing" textLength="76.5972" x="625.5" y="241.4951">(background)</text></g><!--link registry to kubernetes--><g class="link" data-entity-1="ent0027" data-entity-2="ent0010" data-link-type="dependency" data-source-line="39" id="lnk30"><path codeLine="39" d="M1052.5,55.12 C1052.5,81.06 1052.5,117.89 1052.5,143.85" fill="none" id="registry-to-kubernetes" style="stroke:#181818;stroke-width:1;stroke-dasharray:7,7;"/><polygon fill="#181818" points="1052.5,148.85,1056.5,139.85,1052.5,143.85,1048.5,139.85,1052.5,148.85" style="stroke:#181818;stroke-width:1;stroke-linejoin:miter;stroke-miterlimit:10;"/><text fill="#000000" font-family="sans-serif" font-size="13" lengthAdjust="spacing" textLength="76.5972" x="1053.5" y="107.4951">(background)</text></g><?plantuml-src XLLDKzim4BtxLsov50x0lOVEGCYa39HIe9qUUb7ajQE98hcI7CY_xwxa3zbDsvkp-vwqsVTM-wx4IXc4f-NYvUfXTRy4gONtHJ46JgxQi44Jb1G1I_ZcqPs0yD3IHmwxmuFKLcnZSjlzc9ppU0ihEkDL72AcJjyvPFacTescSbgwRuTmtPfIOqIx54gHdFFeh4JlUmhT4l7D99mJNeJVpj5XZ4t_Uga2FAFRAvdA41pf0ZdoQulkC47-uiWHvCFgzk47t9hQKNcmi2OugtNNL9N2axwsQtG60_hBrTqI5hhreKDlXrHEkC56syEE98CRzDAf9bZd8w4SKbccADx3Pw4CLDg--e9rXVFpZuE6y06-h0C3nEW4PGq4kqKpuZiz2NubkVKiGK39fa5JDbQPu7-QqrSLDebwLlGKfay4faEUR1iG758VVV35DCs4gSB4MBwXP4wN0DkWYvKUOsUAPrIE_fkN6u28zxPE8S0zjUOO8pS2CSYlUrLY2aCfWYWwrLFN1qs77k0R2Mw4Xk14LIbPP9XZdVjaVG2VBlJ5KSt_l8gCMAcwTGXU2YtMIgjmO6iyKsSSVOCmPNG0kuW4HICL7TzBU74nSSnteHNzDqnA-o9lzmowsA3SnkS4Q1Beo9cmVpjPH9TnYTT2RcjdwV-3jBl66bO2JaiRs7pI6aCsP3rflihuZe5mSgFOdQsZnX8aK9VF9dDgWwfwg-U3RRB4aVbUQDkMt4w-j1yyoS4nbkEVi5O-kCDbKe16iKaSroMAuiYDiIjpuK_NGoFEYjcL_oVqzwM6vzwOmBWQcajLRmBOAgq1W7EOheaefutFXayUWChP7VHR8b9eb_J9O3izZxqQi5UYNnq5HLa2d1SoNH1yFC_1i0WWRZgLRC1MfiA2C3mXZELtEDOwMoUCd2sCH5YXuLS2_NJyETLDUBS2G8ecZHEFowpwDLcKkaBbPs_vMBlGEbbd7EUks3IhPUpCEE7qEJxhZ5o-DPQRtDCXR4Z6UWDf2_NhPgZgDm00?></g></svg>