<svg xmlns="http://www.w3.org/2000/svg" xmlns:xlink="http://www.w3.org/1999/xlink" contentStyleType="text/css" data-diagram-type="CLASS" height="638px" preserveAspectRatio="none" style="width:2827px;height:638px;background:#FFFFFF;" version="1.1" viewBox="0 0 2827 638" width="2827px" zoomAndPan="magnify"><?plantuml 1.2026.6?><defs/><g><!--class electron--><g class="entity" data-qualified-name="electron" data-source-line="3" id="ent0001"><rect fill="#F1F1F1" height="171.2656" rx="2.5" ry="2.5" style="stroke:#181818;stroke-width:0.5;" width="359.6074" x="2113.5" y="7"/><ellipse cx="2199.561" cy="23" fill="#ADD1B2" rx="11" ry="11" style="stroke:#181818;stroke-width:1;"/><path d="M2202.3267,18.875 Q2202.4829,18.6563 2202.6704,18.5469 Q2202.8579,18.4375 2203.0767,18.4375 Q2203.4517,18.4375 2203.686,18.7031 Q2203.9204,18.9531 2203.9204,19.5625 L2203.9204,21.0156 Q2203.9204,21.625 2203.686,21.8906 Q2203.4517,22.1563 2203.0767,22.1563 Q2202.7329,22.1563 2202.5298,21.9531 Q2202.3267,21.7656 2202.2173,21.25 Q2202.1704,20.8906 2201.9829,20.7031 Q2201.6548,20.3281 2201.0454,20.1094 Q2200.436,19.8906 2199.811,19.8906 Q2199.0454,19.8906 2198.4048,20.2188 Q2197.7798,20.5469 2197.2798,21.2969 Q2196.7954,22.0469 2196.7954,23.0781 L2196.7954,24.1719 Q2196.7954,25.4063 2197.686,26.2344 Q2198.5767,27.0469 2200.1704,27.0469 Q2201.1079,27.0469 2201.7642,26.7969 Q2202.1548,26.6406 2202.5767,26.2031 Q2202.8423,25.9375 2202.9829,25.8594 Q2203.1392,25.7813 2203.3423,25.7813 Q2203.6704,25.7813 2203.9204,26.0469 Q2204.186,26.2969 2204.186,26.6406 Q2204.186,26.9844 2203.8423,27.3906 Q2203.3423,27.9688 2202.5454,28.2969 Q2201.4673,28.75 2200.1704,28.75 Q2198.6548,28.75 2197.4517,28.125 Q2196.4673,27.625 2195.7798,26.5625 Q2195.0923,25.4844 2195.0923,24.2031 L2195.0923,23.0469 Q2195.0923,21.7188 2195.7017,20.5781 Q2196.3267,19.4219 2197.4204,18.8125 Q2198.5142,18.1875 2199.7485,18.1875 Q2200.4829,18.1875 2201.1235,18.3594 Q2201.7798,18.5156 2202.3267,18.875 Z " fill="#000000"/><text fill="#000000" font-family="sans-serif" font-size="14" lengthAdjust="spacing" textLength="178.9854" x="2220.061" y="28.7285">Electron Desktop Application</text><line style="stroke:#181818;stroke-width:0.5;" x1="2114.5" x2="2472.1074" y1="39" y2="39"/><text fill="#000000" font-family="sans-serif" font-size="14" lengthAdjust="spacing" textLength="331.3105" x="2119.5" y="57.5332">class "User Settings Sanitization" as settingsSanitizer</text><text fill="#000000" font-family="sans-serif" font-size="14" lengthAdjust="spacing" textLength="347.6074" x="2119.5" y="75.1426">class "Tree CSV Export Controller" as treeCsvController</text><text fill="#000000" font-family="sans-serif" font-size="14" lengthAdjust="spacing" textLength="310.2695" x="2119.5" y="92.752">class "RESIP Export Controller" as resipController</text><text fill="#000000" font-family="sans-serif" font-size="14" lengthAdjust="spacing" textLength="287.6973" x="2119.5" y="110.3613">class "CSV Export Controller" as csvController</text><text fill="#000000" font-family="sans-serif" font-size="14" lengthAdjust="spacing" textLength="304.8281" x="2119.5" y="127.9707">class "Excel Export Controller" as excelController</text><text fill="#000000" font-family="sans-serif" font-size="14" lengthAdjust="spacing" textLength="339.8691" x="2119.5" y="145.5801">class "Hash Computation Controller" as hashController</text><text fill="#000000" font-family="sans-serif" font-size="14" lengthAdjust="spacing" textLength="297.8623" x="2119.5" y="163.1895">class "Translation Module" as translationModule</text><line style="stroke:#181818;stroke-width:0.5;" x1="2114.5" x2="2472.1074" y1="170.2656" y2="170.2656"/></g><!--class workers--><g class="entity" data-qualified-name="workers" data-source-line="13" id="ent0002"><rect fill="#F1F1F1" height="136.0469" rx="2.5" ry="2.5" style="stroke:#181818;stroke-width:0.5;" width="328.4492" x="2484.5" y="256"/><ellipse cx="2579.1162" cy="272" fill="#ADD1B2" rx="11" ry="11" style="stroke:#181818;stroke-width:1;"/><path d="M2581.8818,267.875 Q2582.0381,267.6563 2582.2256,267.5469 Q2582.4131,267.4375 2582.6318,267.4375 Q2583.0068,267.4375 2583.2412,267.7031 Q2583.4756,267.9531 2583.4756,268.5625 L2583.4756,270.0156 Q2583.4756,270.625 2583.2412,270.8906 Q2583.0068,271.1563 2582.6318,271.1563 Q2582.2881,271.1563 2582.085,270.9531 Q2581.8818,270.7656 2581.7725,270.25 Q2581.7256,269.8906 2581.5381,269.7031 Q2581.21,269.3281 2580.6006,269.1094 Q2579.9912,268.8906 2579.3662,268.8906 Q2578.6006,268.8906 2577.96,269.2188 Q2577.335,269.5469 2576.835,270.2969 Q2576.3506,271.0469 2576.3506,272.0781 L2576.3506,273.1719 Q2576.3506,274.4063 2577.2412,275.2344 Q2578.1318,276.0469 2579.7256,276.0469 Q2580.6631,276.0469 2581.3193,275.7969 Q2581.71,275.6406 2582.1318,275.2031 Q2582.3975,274.9375 2582.5381,274.8594 Q2582.6943,274.7813 2582.8975,274.7813 Q2583.2256,274.7813 2583.4756,275.0469 Q2583.7412,275.2969 2583.7412,275.6406 Q2583.7412,275.9844 2583.3975,276.3906 Q2582.8975,276.9688 2582.1006,277.2969 Q2581.0225,277.75 2579.7256,277.75 Q2578.21,277.75 2577.0068,277.125 Q2576.0225,276.625 2575.335,275.5625 Q2574.6475,274.4844 2574.6475,273.2031 L2574.6475,272.0469 Q2574.6475,270.7188 2575.2568,269.5781 Q2575.8818,268.4219 2576.9756,267.8125 Q2578.0693,267.1875 2579.3037,267.1875 Q2580.0381,267.1875 2580.6787,267.3594 Q2581.335,267.5156 2581.8818,267.875 Z " fill="#000000"/><text fill="#000000" font-family="sans-serif" font-size="14" lengthAdjust="spacing" textLength="130.7168" x="2599.6162" y="277.7285">Background Workers</text><line style="stroke:#181818;stroke-width:0.5;" x1="2485.5" x2="2811.9492" y1="288" y2="288"/><text fill="#000000" font-family="sans-serif" font-size="14" lengthAdjust="spacing" textLength="316.4492" x="2490.5" y="306.5332">class "Tree CSV Export Worker" as treeCsvWorker</text><text fill="#000000" font-family="sans-serif" font-size="14" lengthAdjust="spacing" textLength="279.1113" x="2490.5" y="324.1426">class "RESIP Export Worker" as resipWorker</text><text fill="#000000" font-family="sans-serif" font-size="14" lengthAdjust="spacing" textLength="256.5391" x="2490.5" y="341.752">class "CSV Export Worker" as csvWorker</text><text fill="#000000" font-family="sans-serif" font-size="14" lengthAdjust="spacing" textLength="273.6699" x="2490.5" y="359.3613">class "Excel Export Worker" as excelWorker</text><text fill="#000000" font-family="sans-serif" font-size="14" lengthAdjust="spacing" textLength="308.7109" x="2490.5" y="376.9707">class "Hash Computation Worker" as hashWorker</text><line style="stroke:#181818;stroke-width:0.5;" x1="2485.5" x2="2811.9492" y1="384.0469" y2="384.0469"/></g><!--class fileSystem--><g class="entity" data-qualified-name="fileSystem" data-source-line="21" id="ent0003"><rect fill="#F1F1F1" height="65.6094" rx="2.5" ry="2.5" style="stroke:#181818;stroke-width:0.5;" width="350.2764" x="1403.5" y="470"/><ellipse cx="1537.8262" cy="486" fill="#ADD1B2" rx="11" ry="11" style="stroke:#181818;stroke-width:1;"/><path d="M1540.5918,481.875 Q1540.748,481.6563 1540.9355,481.5469 Q1541.123,481.4375 1541.3418,481.4375 Q1541.7168,481.4375 1541.9512,481.7031 Q1542.1855,481.9531 1542.1855,482.5625 L1542.1855,484.0156 Q1542.1855,484.625 1541.9512,484.8906 Q1541.7168,485.1563 1541.3418,485.1563 Q1540.998,485.1563 1540.7949,484.9531 Q1540.5918,484.7656 1540.4824,484.25 Q1540.4355,483.8906 1540.248,483.7031 Q1539.9199,483.3281 1539.3105,483.1094 Q1538.7012,482.8906 1538.0762,482.8906 Q1537.3105,482.8906 1536.6699,483.2188 Q1536.0449,483.5469 1535.5449,484.2969 Q1535.0605,485.0469 1535.0605,486.0781 L1535.0605,487.1719 Q1535.0605,488.4063 1535.9512,489.2344 Q1536.8418,490.0469 1538.4355,490.0469 Q1539.373,490.0469 1540.0293,489.7969 Q1540.4199,489.6406 1540.8418,489.2031 Q1541.1074,488.9375 1541.248,488.8594 Q1541.4043,488.7813 1541.6074,488.7813 Q1541.9355,488.7813 1542.1855,489.0469 Q1542.4512,489.2969 1542.4512,489.6406 Q1542.4512,489.9844 1542.1074,490.3906 Q1541.6074,490.9688 1540.8105,491.2969 Q1539.7324,491.75 1538.4355,491.75 Q1536.9199,491.75 1535.7168,491.125 Q1534.7324,490.625 1534.0449,489.5625 Q1533.3574,488.4844 1533.3574,487.2031 L1533.3574,486.0469 Q1533.3574,484.7188 1533.9668,483.5781 Q1534.5918,482.4219 1535.6855,481.8125 Q1536.7793,481.1875 1538.0137,481.1875 Q1538.748,481.1875 1539.3887,481.3594 Q1540.0449,481.5156 1540.5918,481.875 Z " fill="#000000"/><text fill="#000000" font-family="sans-serif" font-size="14" lengthAdjust="spacing" textLength="73.124" x="1558.3262" y="491.7285">File System</text><line style="stroke:#181818;stroke-width:0.5;" x1="1404.5" x2="1752.7764" y1="502" y2="502"/><text fill="#000000" font-family="sans-serif" font-size="14" lengthAdjust="spacing" textLength="338.2764" x="1409.5" y="520.5332">class "Application User Data Directory" as userDataDir</text><line style="stroke:#181818;stroke-width:0.5;" x1="1404.5" x2="1752.7764" y1="527.6094" y2="527.6094"/></g><!--class settingsSanitizer--><g class="entity" data-qualified-name="settingsSanitizer" data-source-line="25" id="ent0004"><rect fill="#F1F1F1" height="48" rx="2.5" ry="2.5" style="stroke:#181818;stroke-width:0.5;" width="134.7168" x="7" y="300"/><ellipse cx="22" cy="316" fill="#ADD1B2" rx="11" ry="11" style="stroke:#181818;stroke-width:1;"/><path d="M24.7656,311.875 Q24.9219,311.6563 25.1094,311.5469 Q25.2969,311.4375 25.5156,311.4375 Q25.8906,311.4375 26.125,311.7031 Q26.3594,311.9531 26.3594,312.5625 L26.3594,314.0156 Q26.3594,314.625 26.125,314.8906 Q25.8906,315.1563 25.5156,315.1563 Q25.1719,315.1563 24.9688,314.9531 Q24.7656,314.7656 24.6563,314.25 Q24.6094,313.8906 24.4219,313.7031 Q24.0938,313.3281 23.4844,313.1094 Q22.875,312.8906 22.25,312.8906 Q21.4844,312.8906 20.8438,313.2188 Q20.2188,313.5469 19.7188,314.2969 Q19.2344,315.0469 19.2344,316.0781 L19.2344,317.1719 Q19.2344,318.4063 20.125,319.2344 Q21.0156,320.0469 22.6094,320.0469 Q23.5469,320.0469 24.2031,319.7969 Q24.5938,319.6406 25.0156,319.2031 Q25.2813,318.9375 25.4219,318.8594 Q25.5781,318.7813 25.7813,318.7813 Q26.1094,318.7813 26.3594,319.0469 Q26.625,319.2969 26.625,319.6406 Q26.625,319.9844 26.2813,320.3906 Q25.7813,320.9688 24.9844,321.2969 Q23.9063,321.75 22.6094,321.75 Q21.0938,321.75 19.8906,321.125 Q18.9063,320.625 18.2188,319.5625 Q17.5313,318.4844 17.5313,317.2031 L17.5313,316.0469 Q17.5313,314.7188 18.1406,313.5781 Q18.7656,312.4219 19.8594,311.8125 Q20.9531,311.1875 22.1875,311.1875 Q22.9219,311.1875 23.5625,311.3594 Q24.2188,311.5156 24.7656,311.875 Z " fill="#000000"/><text fill="#000000" font-family="sans-serif" font-size="14" lengthAdjust="spacing" textLength="102.7168" x="36" y="321.7285">settingsSanitizer</text><line style="stroke:#181818;stroke-width:0.5;" x1="8" x2="140.7168" y1="332" y2="332"/><line style="stroke:#181818;stroke-width:0.5;" x1="8" x2="140.7168" y1="340" y2="340"/></g><!--class translationModule--><g class="entity" data-qualified-name="translationModule" data-source-line="25" id="ent0005"><rect fill="#F1F1F1" height="48" rx="2.5" ry="2.5" style="stroke:#181818;stroke-width:0.5;" width="142.5098" x="729" y="479"/><ellipse cx="744" cy="495" fill="#ADD1B2" rx="11" ry="11" style="stroke:#181818;stroke-width:1;"/><path d="M746.7656,490.875 Q746.9219,490.6563 747.1094,490.5469 Q747.2969,490.4375 747.5156,490.4375 Q747.8906,490.4375 748.125,490.7031 Q748.3594,490.9531 748.3594,491.5625 L748.3594,493.0156 Q748.3594,493.625 748.125,493.8906 Q747.8906,494.1563 747.5156,494.1563 Q747.1719,494.1563 746.9688,493.9531 Q746.7656,493.7656 746.6563,493.25 Q746.6094,492.8906 746.4219,492.7031 Q746.0938,492.3281 745.4844,492.1094 Q744.875,491.8906 744.25,491.8906 Q743.4844,491.8906 742.8438,492.2188 Q742.2188,492.5469 741.7188,493.2969 Q741.2344,494.0469 741.2344,495.0781 L741.2344,496.1719 Q741.2344,497.4063 742.125,498.2344 Q743.0156,499.0469 744.6094,499.0469 Q745.5469,499.0469 746.2031,498.7969 Q746.5938,498.6406 747.0156,498.2031 Q747.2813,497.9375 747.4219,497.8594 Q747.5781,497.7813 747.7813,497.7813 Q748.1094,497.7813 748.3594,498.0469 Q748.625,498.2969 748.625,498.6406 Q748.625,498.9844 748.2813,499.3906 Q747.7813,499.9688 746.9844,500.2969 Q745.9063,500.75 744.6094,500.75 Q743.0938,500.75 741.8906,500.125 Q740.9063,499.625 740.2188,498.5625 Q739.5313,497.4844 739.5313,496.2031 L739.5313,495.0469 Q739.5313,493.7188 740.1406,492.5781 Q740.7656,491.4219 741.8594,490.8125 Q742.9531,490.1875 744.1875,490.1875 Q744.9219,490.1875 745.5625,490.3594 Q746.2188,490.5156 746.7656,490.875 Z " fill="#000000"/><text fill="#000000" font-family="sans-serif" font-size="14" lengthAdjust="spacing" textLength="110.5098" x="758" y="500.7285">translationModule</text><line style="stroke:#181818;stroke-width:0.5;" x1="730" x2="870.5098" y1="511" y2="511"/><line style="stroke:#181818;stroke-width:0.5;" x1="730" x2="870.5098" y1="519" y2="519"/></g><!--class treeCsvController--><g class="entity" data-qualified-name="treeCsvController" data-source-line="26" id="ent0007"><rect fill="#F1F1F1" height="48" rx="2.5" ry="2.5" style="stroke:#181818;stroke-width:0.5;" width="140.9238" x="352" y="68.5"/><ellipse cx="367" cy="84.5" fill="#ADD1B2" rx="11" ry="11" style="stroke:#181818;stroke-width:1;"/><path d="M369.7656,80.375 Q369.9219,80.1563 370.1094,80.0469 Q370.2969,79.9375 370.5156,79.9375 Q370.8906,79.9375 371.125,80.2031 Q371.3594,80.4531 371.3594,81.0625 L371.3594,82.5156 Q371.3594,83.125 371.125,83.3906 Q370.8906,83.6563 370.5156,83.6563 Q370.1719,83.6563 369.9688,83.4531 Q369.7656,83.2656 369.6563,82.75 Q369.6094,82.3906 369.4219,82.2031 Q369.0938,81.8281 368.4844,81.6094 Q367.875,81.3906 367.25,81.3906 Q366.4844,81.3906 365.8438,81.7188 Q365.2188,82.0469 364.7188,82.7969 Q364.2344,83.5469 364.2344,84.5781 L364.2344,85.6719 Q364.2344,86.9063 365.125,87.7344 Q366.0156,88.5469 367.6094,88.5469 Q368.5469,88.5469 369.2031,88.2969 Q369.5938,88.1406 370.0156,87.7031 Q370.2813,87.4375 370.4219,87.3594 Q370.5781,87.2813 370.7813,87.2813 Q371.1094,87.2813 371.3594,87.5469 Q371.625,87.7969 371.625,88.1406 Q371.625,88.4844 371.2813,88.8906 Q370.7813,89.4688 369.9844,89.7969 Q368.9063,90.25 367.6094,90.25 Q366.0938,90.25 364.8906,89.625 Q363.9063,89.125 363.2188,88.0625 Q362.5313,86.9844 362.5313,85.7031 L362.5313,84.5469 Q362.5313,83.2188 363.1406,82.0781 Q363.7656,80.9219 364.8594,80.3125 Q365.9531,79.6875 367.1875,79.6875 Q367.9219,79.6875 368.5625,79.8594 Q369.2188,80.0156 369.7656,80.375 Z " fill="#000000"/><text fill="#000000" font-family="sans-serif" font-size="14" lengthAdjust="spacing" textLength="108.9238" x="381" y="90.2285">treeCsvController</text><line style="stroke:#181818;stroke-width:0.5;" x1="353" x2="491.9238" y1="100.5" y2="100.5"/><line style="stroke:#181818;stroke-width:0.5;" x1="353" x2="491.9238" y1="108.5" y2="108.5"/></g><!--class treeCsvWorker--><g class="entity" data-qualified-name="treeCsvWorker" data-source-line="26" id="ent0008"><rect fill="#F1F1F1" height="48" rx="2.5" ry="2.5" style="stroke:#181818;stroke-width:0.5;" width="125.3447" x="549" y="300"/><ellipse cx="564" cy="316" fill="#ADD1B2" rx="11" ry="11" style="stroke:#181818;stroke-width:1;"/><path d="M566.7656,311.875 Q566.9219,311.6563 567.1094,311.5469 Q567.2969,311.4375 567.5156,311.4375 Q567.8906,311.4375 568.125,311.7031 Q568.3594,311.9531 568.3594,312.5625 L568.3594,314.0156 Q568.3594,314.625 568.125,314.8906 Q567.8906,315.1563 567.5156,315.1563 Q567.1719,315.1563 566.9688,314.9531 Q566.7656,314.7656 566.6563,314.25 Q566.6094,313.8906 566.4219,313.7031 Q566.0938,313.3281 565.4844,313.1094 Q564.875,312.8906 564.25,312.8906 Q563.4844,312.8906 562.8438,313.2188 Q562.2188,313.5469 561.7188,314.2969 Q561.2344,315.0469 561.2344,316.0781 L561.2344,317.1719 Q561.2344,318.4063 562.125,319.2344 Q563.0156,320.0469 564.6094,320.0469 Q565.5469,320.0469 566.2031,319.7969 Q566.5938,319.6406 567.0156,319.2031 Q567.2813,318.9375 567.4219,318.8594 Q567.5781,318.7813 567.7813,318.7813 Q568.1094,318.7813 568.3594,319.0469 Q568.625,319.2969 568.625,319.6406 Q568.625,319.9844 568.2813,320.3906 Q567.7813,320.9688 566.9844,321.2969 Q565.9063,321.75 564.6094,321.75 Q563.0938,321.75 561.8906,321.125 Q560.9063,320.625 560.2188,319.5625 Q559.5313,318.4844 559.5313,317.2031 L559.5313,316.0469 Q559.5313,314.7188 560.1406,313.5781 Q560.7656,312.4219 561.8594,311.8125 Q562.9531,311.1875 564.1875,311.1875 Q564.9219,311.1875 565.5625,311.3594 Q566.2188,311.5156 566.7656,311.875 Z " fill="#000000"/><text fill="#000000" font-family="sans-serif" font-size="14" lengthAdjust="spacing" textLength="93.3447" x="578" y="321.7285">treeCsvWorker</text><line style="stroke:#181818;stroke-width:0.5;" x1="550" x2="673.3447" y1="332" y2="332"/><line style="stroke:#181818;stroke-width:0.5;" x1="550" x2="673.3447" y1="340" y2="340"/></g><!--class resipController--><g class="entity" data-qualified-name="resipController" data-source-line="28" id="ent0011"><rect fill="#F1F1F1" height="48" rx="2.5" ry="2.5" style="stroke:#181818;stroke-width:0.5;" width="123.0342" x="1367" y="68.5"/><ellipse cx="1382" cy="84.5" fill="#ADD1B2" rx="11" ry="11" style="stroke:#181818;stroke-width:1;"/><path d="M1384.7656,80.375 Q1384.9219,80.1563 1385.1094,80.0469 Q1385.2969,79.9375 1385.5156,79.9375 Q1385.8906,79.9375 1386.125,80.2031 Q1386.3594,80.4531 1386.3594,81.0625 L1386.3594,82.5156 Q1386.3594,83.125 1386.125,83.3906 Q1385.8906,83.6563 1385.5156,83.6563 Q1385.1719,83.6563 1384.9688,83.4531 Q1384.7656,83.2656 1384.6563,82.75 Q1384.6094,82.3906 1384.4219,82.2031 Q1384.0938,81.8281 1383.4844,81.6094 Q1382.875,81.3906 1382.25,81.3906 Q1381.4844,81.3906 1380.8438,81.7188 Q1380.2188,82.0469 1379.7188,82.7969 Q1379.2344,83.5469 1379.2344,84.5781 L1379.2344,85.6719 Q1379.2344,86.9063 1380.125,87.7344 Q1381.0156,88.5469 1382.6094,88.5469 Q1383.5469,88.5469 1384.2031,88.2969 Q1384.5938,88.1406 1385.0156,87.7031 Q1385.2813,87.4375 1385.4219,87.3594 Q1385.5781,87.2813 1385.7813,87.2813 Q1386.1094,87.2813 1386.3594,87.5469 Q1386.625,87.7969 1386.625,88.1406 Q1386.625,88.4844 1386.2813,88.8906 Q1385.7813,89.4688 1384.9844,89.7969 Q1383.9063,90.25 1382.6094,90.25 Q1381.0938,90.25 1379.8906,89.625 Q1378.9063,89.125 1378.2188,88.0625 Q1377.5313,86.9844 1377.5313,85.7031 L1377.5313,84.5469 Q1377.5313,83.2188 1378.1406,82.0781 Q1378.7656,80.9219 1379.8594,80.3125 Q1380.9531,79.6875 1382.1875,79.6875 Q1382.9219,79.6875 1383.5625,79.8594 Q1384.2188,80.0156 1384.7656,80.375 Z " fill="#000000"/><text fill="#000000" font-family="sans-serif" font-size="14" lengthAdjust="spacing" textLength="91.0342" x="1396" y="90.2285">resipController</text><line style="stroke:#181818;stroke-width:0.5;" x1="1368" x2="1489.0342" y1="100.5" y2="100.5"/><line style="stroke:#181818;stroke-width:0.5;" x1="1368" x2="1489.0342" y1="108.5" y2="108.5"/></g><!--class resipWorker--><g class="entity" data-qualified-name="resipWorker" data-source-line="28" id="ent0012"><rect fill="#F1F1F1" height="48" rx="2.5" ry="2.5" style="stroke:#181818;stroke-width:0.5;" width="107.4551" x="1327" y="300"/><ellipse cx="1342" cy="316" fill="#ADD1B2" rx="11" ry="11" style="stroke:#181818;stroke-width:1;"/><path d="M1344.7656,311.875 Q1344.9219,311.6563 1345.1094,311.5469 Q1345.2969,311.4375 1345.5156,311.4375 Q1345.8906,311.4375 1346.125,311.7031 Q1346.3594,311.9531 1346.3594,312.5625 L1346.3594,314.0156 Q1346.3594,314.625 1346.125,314.8906 Q1345.8906,315.1563 1345.5156,315.1563 Q1345.1719,315.1563 1344.9688,314.9531 Q1344.7656,314.7656 1344.6563,314.25 Q1344.6094,313.8906 1344.4219,313.7031 Q1344.0938,313.3281 1343.4844,313.1094 Q1342.875,312.8906 1342.25,312.8906 Q1341.4844,312.8906 1340.8438,313.2188 Q1340.2188,313.5469 1339.7188,314.2969 Q1339.2344,315.0469 1339.2344,316.0781 L1339.2344,317.1719 Q1339.2344,318.4063 1340.125,319.2344 Q1341.0156,320.0469 1342.6094,320.0469 Q1343.5469,320.0469 1344.2031,319.7969 Q1344.5938,319.6406 1345.0156,319.2031 Q1345.2813,318.9375 1345.4219,318.8594 Q1345.5781,318.7813 1345.7813,318.7813 Q1346.1094,318.7813 1346.3594,319.0469 Q1346.625,319.2969 1346.625,319.6406 Q1346.625,319.9844 1346.2813,320.3906 Q1345.7813,320.9688 1344.9844,321.2969 Q1343.9063,321.75 1342.6094,321.75 Q1341.0938,321.75 1339.8906,321.125 Q1338.9063,320.625 1338.2188,319.5625 Q1337.5313,318.4844 1337.5313,317.2031 L1337.5313,316.0469 Q1337.5313,314.7188 1338.1406,313.5781 Q1338.7656,312.4219 1339.8594,311.8125 Q1340.9531,311.1875 1342.1875,311.1875 Q1342.9219,311.1875 1343.5625,311.3594 Q1344.2188,311.5156 1344.7656,311.875 Z " fill="#000000"/><text fill="#000000" font-family="sans-serif" font-size="14" lengthAdjust="spacing" textLength="75.4551" x="1356" y="321.7285">resipWorker</text><line style="stroke:#181818;stroke-width:0.5;" x1="1328" x2="1433.4551" y1="332" y2="332"/><line style="stroke:#181818;stroke-width:0.5;" x1="1328" x2="1433.4551" y1="340" y2="340"/></g><!--class csvController--><g class="entity" data-qualified-name="csvController" data-source-line="29" id="ent0014"><rect fill="#F1F1F1" height="48" rx="2.5" ry="2.5" style="stroke:#181818;stroke-width:0.5;" width="113.6895" x="738.5" y="68.5"/><ellipse cx="753.5" cy="84.5" fill="#ADD1B2" rx="11" ry="11" style="stroke:#181818;stroke-width:1;"/><path d="M756.2656,80.375 Q756.4219,80.1563 756.6094,80.0469 Q756.7969,79.9375 757.0156,79.9375 Q757.3906,79.9375 757.625,80.2031 Q757.8594,80.4531 757.8594,81.0625 L757.8594,82.5156 Q757.8594,83.125 757.625,83.3906 Q757.3906,83.6563 757.0156,83.6563 Q756.6719,83.6563 756.4688,83.4531 Q756.2656,83.2656 756.1563,82.75 Q756.1094,82.3906 755.9219,82.2031 Q755.5938,81.8281 754.9844,81.6094 Q754.375,81.3906 753.75,81.3906 Q752.9844,81.3906 752.3438,81.7188 Q751.7188,82.0469 751.2188,82.7969 Q750.7344,83.5469 750.7344,84.5781 L750.7344,85.6719 Q750.7344,86.9063 751.625,87.7344 Q752.5156,88.5469 754.1094,88.5469 Q755.0469,88.5469 755.7031,88.2969 Q756.0938,88.1406 756.5156,87.7031 Q756.7813,87.4375 756.9219,87.3594 Q757.0781,87.2813 757.2813,87.2813 Q757.6094,87.2813 757.8594,87.5469 Q758.125,87.7969 758.125,88.1406 Q758.125,88.4844 757.7813,88.8906 Q757.2813,89.4688 756.4844,89.7969 Q755.4063,90.25 754.1094,90.25 Q752.5938,90.25 751.3906,89.625 Q750.4063,89.125 749.7188,88.0625 Q749.0313,86.9844 749.0313,85.7031 L749.0313,84.5469 Q749.0313,83.2188 749.6406,82.0781 Q750.2656,80.9219 751.3594,80.3125 Q752.4531,79.6875 753.6875,79.6875 Q754.4219,79.6875 755.0625,79.8594 Q755.7188,80.0156 756.2656,80.375 Z " fill="#000000"/><text fill="#000000" font-family="sans-serif" font-size="14" lengthAdjust="spacing" textLength="81.6895" x="767.5" y="90.2285">csvController</text><line style="stroke:#181818;stroke-width:0.5;" x1="739.5" x2="851.1895" y1="100.5" y2="100.5"/><line style="stroke:#181818;stroke-width:0.5;" x1="739.5" x2="851.1895" y1="108.5" y2="108.5"/></g><!--class csvWorker--><g class="entity" data-qualified-name="csvWorker" data-source-line="29" id="ent0015"><rect fill="#F1F1F1" height="48" rx="2.5" ry="2.5" style="stroke:#181818;stroke-width:0.5;" width="98.1104" x="870.5" y="300"/><ellipse cx="885.5" cy="316" fill="#ADD1B2" rx="11" ry="11" style="stroke:#181818;stroke-width:1;"/><path d="M888.2656,311.875 Q888.4219,311.6563 888.6094,311.5469 Q888.7969,311.4375 889.0156,311.4375 Q889.3906,311.4375 889.625,311.7031 Q889.8594,311.9531 889.8594,312.5625 L889.8594,314.0156 Q889.8594,314.625 889.625,314.8906 Q889.3906,315.1563 889.0156,315.1563 Q888.6719,315.1563 888.4688,314.9531 Q888.2656,314.7656 888.1563,314.25 Q888.1094,313.8906 887.9219,313.7031 Q887.5938,313.3281 886.9844,313.1094 Q886.375,312.8906 885.75,312.8906 Q884.9844,312.8906 884.3438,313.2188 Q883.7188,313.5469 883.2188,314.2969 Q882.7344,315.0469 882.7344,316.0781 L882.7344,317.1719 Q882.7344,318.4063 883.625,319.2344 Q884.5156,320.0469 886.1094,320.0469 Q887.0469,320.0469 887.7031,319.7969 Q888.0938,319.6406 888.5156,319.2031 Q888.7813,318.9375 888.9219,318.8594 Q889.0781,318.7813 889.2813,318.7813 Q889.6094,318.7813 889.8594,319.0469 Q890.125,319.2969 890.125,319.6406 Q890.125,319.9844 889.7813,320.3906 Q889.2813,320.9688 888.4844,321.2969 Q887.4063,321.75 886.1094,321.75 Q884.5938,321.75 883.3906,321.125 Q882.4063,320.625 881.7188,319.5625 Q881.0313,318.4844 881.0313,317.2031 L881.0313,316.0469 Q881.0313,314.7188 881.6406,313.5781 Q882.2656,312.4219 883.3594,311.8125 Q884.4531,311.1875 885.6875,311.1875 Q886.4219,311.1875 887.0625,311.3594 Q887.7188,311.5156 888.2656,311.875 Z " fill="#000000"/><text fill="#000000" font-family="sans-serif" font-size="14" lengthAdjust="spacing" textLength="66.1104" x="899.5" y="321.7285">csvWorker</text><line style="stroke:#181818;stroke-width:0.5;" x1="871.5" x2="967.6104" y1="332" y2="332"/><line style="stroke:#181818;stroke-width:0.5;" x1="871.5" x2="967.6104" y1="340" y2="340"/></g><!--class excelController--><g class="entity" data-qualified-name="excelController" data-source-line="31" id="ent0018"><rect fill="#F1F1F1" height="48" rx="2.5" ry="2.5" style="stroke:#181818;stroke-width:0.5;" width="125.3721" x="1047" y="68.5"/><ellipse cx="1062" cy="84.5" fill="#ADD1B2" rx="11" ry="11" style="stroke:#181818;stroke-width:1;"/><path d="M1064.7656,80.375 Q1064.9219,80.1563 1065.1094,80.0469 Q1065.2969,79.9375 1065.5156,79.9375 Q1065.8906,79.9375 1066.125,80.2031 Q1066.3594,80.4531 1066.3594,81.0625 L1066.3594,82.5156 Q1066.3594,83.125 1066.125,83.3906 Q1065.8906,83.6563 1065.5156,83.6563 Q1065.1719,83.6563 1064.9688,83.4531 Q1064.7656,83.2656 1064.6563,82.75 Q1064.6094,82.3906 1064.4219,82.2031 Q1064.0938,81.8281 1063.4844,81.6094 Q1062.875,81.3906 1062.25,81.3906 Q1061.4844,81.3906 1060.8438,81.7188 Q1060.2188,82.0469 1059.7188,82.7969 Q1059.2344,83.5469 1059.2344,84.5781 L1059.2344,85.6719 Q1059.2344,86.9063 1060.125,87.7344 Q1061.0156,88.5469 1062.6094,88.5469 Q1063.5469,88.5469 1064.2031,88.2969 Q1064.5938,88.1406 1065.0156,87.7031 Q1065.2813,87.4375 1065.4219,87.3594 Q1065.5781,87.2813 1065.7813,87.2813 Q1066.1094,87.2813 1066.3594,87.5469 Q1066.625,87.7969 1066.625,88.1406 Q1066.625,88.4844 1066.2813,88.8906 Q1065.7813,89.4688 1064.9844,89.7969 Q1063.9063,90.25 1062.6094,90.25 Q1061.0938,90.25 1059.8906,89.625 Q1058.9063,89.125 1058.2188,88.0625 Q1057.5313,86.9844 1057.5313,85.7031 L1057.5313,84.5469 Q1057.5313,83.2188 1058.1406,82.0781 Q1058.7656,80.9219 1059.8594,80.3125 Q1060.9531,79.6875 1062.1875,79.6875 Q1062.9219,79.6875 1063.5625,79.8594 Q1064.2188,80.0156 1064.7656,80.375 Z " fill="#000000"/><text fill="#000000" font-family="sans-serif" font-size="14" lengthAdjust="spacing" textLength="93.3721" x="1076" y="90.2285">excelController</text><line style="stroke:#181818;stroke-width:0.5;" x1="1048" x2="1171.3721" y1="100.5" y2="100.5"/><line style="stroke:#181818;stroke-width:0.5;" x1="1048" x2="1171.3721" y1="108.5" y2="108.5"/></g><!--class excelWorker--><g class="entity" data-qualified-name="excelWorker" data-source-line="31" id="ent0019"><rect fill="#F1F1F1" height="48" rx="2.5" ry="2.5" style="stroke:#181818;stroke-width:0.5;" width="109.793" x="1164.5" y="300"/><ellipse cx="1179.5" cy="316" fill="#ADD1B2" rx="11" ry="11" style="stroke:#181818;stroke-width:1;"/><path d="M1182.2656,311.875 Q1182.4219,311.6563 1182.6094,311.5469 Q1182.7969,311.4375 1183.0156,311.4375 Q1183.3906,311.4375 1183.625,311.7031 Q1183.8594,311.9531 1183.8594,312.5625 L1183.8594,314.0156 Q1183.8594,314.625 1183.625,314.8906 Q1183.3906,315.1563 1183.0156,315.1563 Q1182.6719,315.1563 1182.4688,314.9531 Q1182.2656,314.7656 1182.1563,314.25 Q1182.1094,313.8906 1181.9219,313.7031 Q1181.5938,313.3281 1180.9844,313.1094 Q1180.375,312.8906 1179.75,312.8906 Q1178.9844,312.8906 1178.3438,313.2188 Q1177.7188,313.5469 1177.2188,314.2969 Q1176.7344,315.0469 1176.7344,316.0781 L1176.7344,317.1719 Q1176.7344,318.4063 1177.625,319.2344 Q1178.5156,320.0469 1180.1094,320.0469 Q1181.0469,320.0469 1181.7031,319.7969 Q1182.0938,319.6406 1182.5156,319.2031 Q1182.7813,318.9375 1182.9219,318.8594 Q1183.0781,318.7813 1183.2813,318.7813 Q1183.6094,318.7813 1183.8594,319.0469 Q1184.125,319.2969 1184.125,319.6406 Q1184.125,319.9844 1183.7813,320.3906 Q1183.2813,320.9688 1182.4844,321.2969 Q1181.4063,321.75 1180.1094,321.75 Q1178.5938,321.75 1177.3906,321.125 Q1176.4063,320.625 1175.7188,319.5625 Q1175.0313,318.4844 1175.0313,317.2031 L1175.0313,316.0469 Q1175.0313,314.7188 1175.6406,313.5781 Q1176.2656,312.4219 1177.3594,311.8125 Q1178.4531,311.1875 1179.6875,311.1875 Q1180.4219,311.1875 1181.0625,311.3594 Q1181.7188,311.5156 1182.2656,311.875 Z " fill="#000000"/><text fill="#000000" font-family="sans-serif" font-size="14" lengthAdjust="spacing" textLength="77.793" x="1193.5" y="321.7285">excelWorker</text><line style="stroke:#181818;stroke-width:0.5;" x1="1165.5" x2="1273.293" y1="332" y2="332"/><line style="stroke:#181818;stroke-width:0.5;" x1="1165.5" x2="1273.293" y1="340" y2="340"/></g><!--class hashController--><g class="entity" data-qualified-name="hashController" data-source-line="33" id="ent0022"><rect fill="#F1F1F1" height="48" rx="2.5" ry="2.5" style="stroke:#181818;stroke-width:0.5;" width="123.0479" x="1685" y="68.5"/><ellipse cx="1700" cy="84.5" fill="#ADD1B2" rx="11" ry="11" style="stroke:#181818;stroke-width:1;"/><path d="M1702.7656,80.375 Q1702.9219,80.1563 1703.1094,80.0469 Q1703.2969,79.9375 1703.5156,79.9375 Q1703.8906,79.9375 1704.125,80.2031 Q1704.3594,80.4531 1704.3594,81.0625 L1704.3594,82.5156 Q1704.3594,83.125 1704.125,83.3906 Q1703.8906,83.6563 1703.5156,83.6563 Q1703.1719,83.6563 1702.9688,83.4531 Q1702.7656,83.2656 1702.6563,82.75 Q1702.6094,82.3906 1702.4219,82.2031 Q1702.0938,81.8281 1701.4844,81.6094 Q1700.875,81.3906 1700.25,81.3906 Q1699.4844,81.3906 1698.8438,81.7188 Q1698.2188,82.0469 1697.7188,82.7969 Q1697.2344,83.5469 1697.2344,84.5781 L1697.2344,85.6719 Q1697.2344,86.9063 1698.125,87.7344 Q1699.0156,88.5469 1700.6094,88.5469 Q1701.5469,88.5469 1702.2031,88.2969 Q1702.5938,88.1406 1703.0156,87.7031 Q1703.2813,87.4375 1703.4219,87.3594 Q1703.5781,87.2813 1703.7813,87.2813 Q1704.1094,87.2813 1704.3594,87.5469 Q1704.625,87.7969 1704.625,88.1406 Q1704.625,88.4844 1704.2813,88.8906 Q1703.7813,89.4688 1702.9844,89.7969 Q1701.9063,90.25 1700.6094,90.25 Q1699.0938,90.25 1697.8906,89.625 Q1696.9063,89.125 1696.2188,88.0625 Q1695.5313,86.9844 1695.5313,85.7031 L1695.5313,84.5469 Q1695.5313,83.2188 1696.1406,82.0781 Q1696.7656,80.9219 1697.8594,80.3125 Q1698.9531,79.6875 1700.1875,79.6875 Q1700.9219,79.6875 1701.5625,79.8594 Q1702.2188,80.0156 1702.7656,80.375 Z " fill="#000000"/><text fill="#000000" font-family="sans-serif" font-size="14" lengthAdjust="spacing" textLength="91.0479" x="1714" y="90.2285">hashController</text><line style="stroke:#181818;stroke-width:0.5;" x1="1686" x2="1807.0479" y1="100.5" y2="100.5"/><line style="stroke:#181818;stroke-width:0.5;" x1="1686" x2="1807.0479" y1="108.5" y2="108.5"/></g><!--class hashWorker--><g class="entity" data-qualified-name="hashWorker" data-source-line="33" id="ent0023"><rect fill="#F1F1F1" height="48" rx="2.5" ry="2.5" style="stroke:#181818;stroke-width:0.5;" width="107.4688" x="1693" y="300"/><ellipse cx="1708" cy="316" fill="#ADD1B2" rx="11" ry="11" style="stroke:#181818;stroke-width:1;"/><path d="M1710.7656,311.875 Q1710.9219,311.6563 1711.1094,311.5469 Q1711.2969,311.4375 1711.5156,311.4375 Q1711.8906,311.4375 1712.125,311.7031 Q1712.3594,311.9531 1712.3594,312.5625 L1712.3594,314.0156 Q1712.3594,314.625 1712.125,314.8906 Q1711.8906,315.1563 1711.5156,315.1563 Q1711.1719,315.1563 1710.9688,314.9531 Q1710.7656,314.7656 1710.6563,314.25 Q1710.6094,313.8906 1710.4219,313.7031 Q1710.0938,313.3281 1709.4844,313.1094 Q1708.875,312.8906 1708.25,312.8906 Q1707.4844,312.8906 1706.8438,313.2188 Q1706.2188,313.5469 1705.7188,314.2969 Q1705.2344,315.0469 1705.2344,316.0781 L1705.2344,317.1719 Q1705.2344,318.4063 1706.125,319.2344 Q1707.0156,320.0469 1708.6094,320.0469 Q1709.5469,320.0469 1710.2031,319.7969 Q1710.5938,319.6406 1711.0156,319.2031 Q1711.2813,318.9375 1711.4219,318.8594 Q1711.5781,318.7813 1711.7813,318.7813 Q1712.1094,318.7813 1712.3594,319.0469 Q1712.625,319.2969 1712.625,319.6406 Q1712.625,319.9844 1712.2813,320.3906 Q1711.7813,320.9688 1710.9844,321.2969 Q1709.9063,321.75 1708.6094,321.75 Q1707.0938,321.75 1705.8906,321.125 Q1704.9063,320.625 1704.2188,319.5625 Q1703.5313,318.4844 1703.5313,317.2031 L1703.5313,316.0469 Q1703.5313,314.7188 1704.1406,313.5781 Q1704.7656,312.4219 1705.8594,311.8125 Q1706.9531,311.1875 1708.1875,311.1875 Q1708.9219,311.1875 1709.5625,311.3594 Q1710.2188,311.5156 1710.7656,311.875 Z " fill="#000000"/><text fill="#000000" font-family="sans-serif" font-size="14" lengthAdjust="spacing" textLength="75.4688" x="1722" y="321.7285">hashWorker</text><line style="stroke:#181818;stroke-width:0.5;" x1="1694" x2="1799.4688" y1="332" y2="332"/><line style="stroke:#181818;stroke-width:0.5;" x1="1694" x2="1799.4688" y1="340" y2="340"/></g><!--class userDataDir--><g class="entity" data-qualified-name="userDataDir" data-source-line="34" id="ent0025"><rect fill="#F1F1F1" height="48" rx="2.5" ry="2.5" style="stroke:#181818;stroke-width:0.5;" width="106.6895" x="1789" y="479"/><ellipse cx="1804" cy="495" fill="#ADD1B2" rx="11" ry="11" style="stroke:#181818;stroke-width:1;"/><path d="M1806.7656,490.875 Q1806.9219,490.6563 1807.1094,490.5469 Q1807.2969,490.4375 1807.5156,490.4375 Q1807.8906,490.4375 1808.125,490.7031 Q1808.3594,490.9531 1808.3594,491.5625 L1808.3594,493.0156 Q1808.3594,493.625 1808.125,493.8906 Q1807.8906,494.1563 1807.5156,494.1563 Q1807.1719,494.1563 1806.9688,493.9531 Q1806.7656,493.7656 1806.6563,493.25 Q1806.6094,492.8906 1806.4219,492.7031 Q1806.0938,492.3281 1805.4844,492.1094 Q1804.875,491.8906 1804.25,491.8906 Q1803.4844,491.8906 1802.8438,492.2188 Q1802.2188,492.5469 1801.7188,493.2969 Q1801.2344,494.0469 1801.2344,495.0781 L1801.2344,496.1719 Q1801.2344,497.4063 1802.125,498.2344 Q1803.0156,499.0469 1804.6094,499.0469 Q1805.5469,499.0469 1806.2031,498.7969 Q1806.5938,498.6406 1807.0156,498.2031 Q1807.2813,497.9375 1807.4219,497.8594 Q1807.5781,497.7813 1807.7813,497.7813 Q1808.1094,497.7813 1808.3594,498.0469 Q1808.625,498.2969 1808.625,498.6406 Q1808.625,498.9844 1808.2813,499.3906 Q1807.7813,499.9688 1806.9844,500.2969 Q1805.9063,500.75 1804.6094,500.75 Q1803.0938,500.75 1801.8906,500.125 Q1800.9063,499.625 1800.2188,498.5625 Q1799.5313,497.4844 1799.5313,496.2031 L1799.5313,495.0469 Q1799.5313,493.7188 1800.1406,492.5781 Q1800.7656,491.4219 1801.8594,490.8125 Q1802.9531,490.1875 1804.1875,490.1875 Q1804.9219,490.1875 1805.5625,490.3594 Q1806.2188,490.5156 1806.7656,490.875 Z " fill="#000000"/><text fill="#000000" font-family="sans-serif" font-size="14" lengthAdjust="spacing" textLength="74.6895" x="1818" y="500.7285">userDataDir</text><line style="stroke:#181818;stroke-width:0.5;" x1="1790" x2="1894.6895" y1="511" y2="511"/><line style="stroke:#181818;stroke-width:0.5;" x1="1790" x2="1894.6895" y1="519" y2="519"/></g><g class="entity" data-qualified-name="GMN32" data-source-line="43" id="ent0033"><path d="M177,311 L177,320 L142.04,324 L177,328 L177,337.3516 A0,0 0 0 0 177,337.3516 L351.8799,337.3516 A0,0 0 0 0 351.8799,337.3516 L351.8799,321 L341.8799,311 L177,311 A0,0 0 0 0 177,311" fill="#FEFFDD" style="stroke:#181818;stroke-width:0.5;"/><path d="M341.8799,311 L341.8799,321 L351.8799,321 L341.8799,311" fill="#FEFFDD" style="stroke:#181818;stroke-width:0.5;"/><text fill="#000000" font-family="sans-serif" font-size="13" lengthAdjust="spacing" textLength="153.8799" x="183" y="329.4951">FR-001, FR-002, NFR-003</text></g><g class="entity" data-qualified-name="GMN35" data-source-line="47" id="ent0036"><path d="M528,79.5 L528,88.5 L493.37,92.5 L528,96.5 L528,105.8516 A0,0 0 0 0 528,105.8516 L702.8799,105.8516 A0,0 0 0 0 702.8799,105.8516 L702.8799,89.5 L692.8799,79.5 L528,79.5 A0,0 0 0 0 528,79.5" fill="#FEFFDD" style="stroke:#181818;stroke-width:0.5;"/><path d="M692.8799,79.5 L692.8799,89.5 L702.8799,89.5 L692.8799,79.5" fill="#FEFFDD" style="stroke:#181818;stroke-width:0.5;"/><text fill="#000000" font-family="sans-serif" font-size="13" lengthAdjust="spacing" textLength="153.8799" x="534" y="97.9951">FR-003, FR-004, NFR-001</text></g><g class="entity" data-qualified-name="GMN38" data-source-line="51" id="ent0039"><path d="M1525.5,79.5 L1525.5,88.5 L1490.3,92.5 L1525.5,96.5 L1525.5,105.8516 A0,0 0 0 0 1525.5,105.8516 L1649.8081,105.8516 A0,0 0 0 0 1649.8081,105.8516 L1649.8081,89.5 L1639.8081,79.5 L1525.5,79.5 A0,0 0 0 0 1525.5,79.5" fill="#FEFFDD" style="stroke:#181818;stroke-width:0.5;"/><path d="M1639.8081,79.5 L1639.8081,89.5 L1649.8081,89.5 L1639.8081,79.5" fill="#FEFFDD" style="stroke:#181818;stroke-width:0.5;"/><text fill="#000000" font-family="sans-serif" font-size="13" lengthAdjust="spacing" textLength="103.3081" x="1531.5" y="97.9951">FR-005, NFR-001</text></g><g class="entity" data-qualified-name="GMN41" data-source-line="55" id="ent0042"><path d="M887.5,79.5 L887.5,88.5 L852.65,92.5 L887.5,96.5 L887.5,105.8516 A0,0 0 0 0 887.5,105.8516 L1011.8081,105.8516 A0,0 0 0 0 1011.8081,105.8516 L1011.8081,89.5 L1001.8081,79.5 L887.5,79.5 A0,0 0 0 0 887.5,79.5" fill="#FEFFDD" style="stroke:#181818;stroke-width:0.5;"/><path d="M1001.8081,79.5 L1001.8081,89.5 L1011.8081,89.5 L1001.8081,79.5" fill="#FEFFDD" style="stroke:#181818;stroke-width:0.5;"/><text fill="#000000" font-family="sans-serif" font-size="13" lengthAdjust="spacing" textLength="103.3081" x="893.5" y="97.9951">FR-006, NFR-001</text></g><g class="entity" data-qualified-name="GMN44" data-source-line="59" id="ent0045"><path d="M1207.5,79.5 L1207.5,88.5 L1172.31,92.5 L1207.5,96.5 L1207.5,105.8516 A0,0 0 0 0 1207.5,105.8516 L1331.8081,105.8516 A0,0 0 0 0 1331.8081,105.8516 L1331.8081,89.5 L1321.8081,79.5 L1207.5,79.5 A0,0 0 0 0 1207.5,79.5" fill="#FEFFDD" style="stroke:#181818;stroke-width:0.5;"/><path d="M1321.8081,79.5 L1321.8081,89.5 L1331.8081,89.5 L1321.8081,79.5" fill="#FEFFDD" style="stroke:#181818;stroke-width:0.5;"/><text fill="#000000" font-family="sans-serif" font-size="13" lengthAdjust="spacing" textLength="103.3081" x="1213.5" y="97.9951">FR-007, NFR-001</text></g><g class="entity" data-qualified-name="GMN47" data-source-line="63" id="ent0048"><path d="M1843,79.5 L1843,88.5 L1808.36,92.5 L1843,96.5 L1843,105.8516 A0,0 0 0 0 1843,105.8516 L2077.8398,105.8516 A0,0 0 0 0 2077.8398,105.8516 L2077.8398,89.5 L2067.8398,79.5 L1843,79.5 A0,0 0 0 0 1843,79.5" fill="#FEFFDD" style="stroke:#181818;stroke-width:0.5;"/><path d="M2067.8398,79.5 L2067.8398,89.5 L2077.8398,89.5 L2067.8398,79.5" fill="#FEFFDD" style="stroke:#181818;stroke-width:0.5;"/><text fill="#000000" font-family="sans-serif" font-size="13" lengthAdjust="spacing" textLength="213.8398" x="1849" y="97.9951">FR-008, FR-009, NFR-002, NFR-004</text></g><g class="entity" data-qualified-name="GMN50" data-source-line="67" id="ent0051"><path d="M2508.5,79.5 L2508.5,105.8516 A0,0 0 0 0 2508.5,105.8516 L2644.5,105.8516 L2648.5,255.98 L2652.5,105.8516 L2788.1797,105.8516 A0,0 0 0 0 2788.1797,105.8516 L2788.1797,89.5 L2778.1797,79.5 L2508.5,79.5 A0,0 0 0 0 2508.5,79.5" fill="#FEFFDD" style="stroke:#181818;stroke-width:0.5;"/><path d="M2778.1797,79.5 L2778.1797,89.5 L2788.1797,89.5 L2778.1797,79.5" fill="#FEFFDD" style="stroke:#181818;stroke-width:0.5;"/><text fill="#000000" font-family="sans-serif" font-size="13" lengthAdjust="spacing" textLength="258.6797" x="2514.5" y="97.9951">C-003: Implemented via background workers</text></g><g class="entity" data-qualified-name="GMN53" data-source-line="71" id="ent0054"><path d="M1434,597 L1434,623.3516 A0,0 0 0 0 1434,623.3516 L1722.9155,623.3516 A0,0 0 0 0 1722.9155,623.3516 L1722.9155,607 L1712.9155,597 L1582.5,597 L1578.5,536.07 L1574.5,597 L1434,597 A0,0 0 0 0 1434,597" fill="#FEFFDD" style="stroke:#181818;stroke-width:0.5;"/><path d="M1712.9155,597 L1712.9155,607 L1722.9155,607 L1712.9155,597" fill="#FEFFDD" style="stroke:#181818;stroke-width:0.5;"/><text fill="#000000" font-family="sans-serif" font-size="13" lengthAdjust="spacing" textLength="267.9155" x="1440" y="615.4951">C-001: Uses Electron app.getPath("userData")</text></g><!--link settingsSanitizer to translationModule--><g class="link" data-entity-1="ent0004" data-entity-2="ent0005" data-link-type="dependency" data-source-line="25" id="lnk6"><path codeLine="25" d="M98.9,348.03 C115.07,362.29 137.31,380.09 159.5,392 C219.69,424.3 238.86,425.02 305.5,440 C454.01,473.38 626.9238,489.7781 723.8638,497.0081" fill="none" id="settingsSanitizer-to-translationModule" style="stroke:#181818;stroke-width:1;"/><polygon fill="#181818" points="728.85,497.38,720.1724,492.7217,723.8638,497.0081,719.5774,500.6995,728.85,497.38" style="stroke:#181818;stroke-width:1;stroke-linejoin:miter;stroke-miterlimit:10;"/><text fill="#000000" font-family="sans-serif" font-size="13" lengthAdjust="spacing" textLength="89.6289" x="306.5" y="436.4951">reads language</text></g><!--link treeCsvController to treeCsvWorker--><g class="link" data-entity-1="ent0007" data-entity-2="ent0008" data-link-type="dependency" data-source-line="26" id="lnk9"><path codeLine="26" d="M441.66,116.77 C477.89,160.76 552.8409,251.7808 589.1109,295.8108" fill="none" id="treeCsvController-to-treeCsvWorker" style="stroke:#181818;stroke-width:1;"/><polygon fill="#181818" points="592.29,299.67,589.6551,290.1802,589.1109,295.8108,583.4803,295.2666,592.29,299.67" style="stroke:#181818;stroke-width:1;stroke-linejoin:miter;stroke-miterlimit:10;"/><text fill="#000000" font-family="sans-serif" font-size="13" lengthAdjust="spacing" textLength="44.0781" x="529.5" y="222.4951">invokes</text></g><!--link treeCsvController to translationModule--><g class="link" data-entity-1="ent0007" data-entity-2="ent0005" data-link-type="dependency" data-source-line="27" id="lnk10"><path codeLine="27" d="M415.92,116.73 C401.98,171.34 375.76,309.5 440.5,392 C476.15,437.44 629.2627,471.6644 723.6927,489.0544" fill="none" id="treeCsvController-to-translationModule" style="stroke:#181818;stroke-width:1;"/><polygon fill="#181818" points="728.61,489.96,720.4833,484.3961,723.6927,489.0544,719.0344,492.2638,728.61,489.96" style="stroke:#181818;stroke-width:1;stroke-linejoin:miter;stroke-miterlimit:10;"/><text fill="#000000" font-family="sans-serif" font-size="13" lengthAdjust="spacing" textLength="89.6289" x="441.5" y="329.4951">reads language</text></g><!--link resipController to resipWorker--><g class="link" data-entity-1="ent0011" data-entity-2="ent0012" data-link-type="dependency" data-source-line="28" id="lnk13"><path codeLine="28" d="M1423.63,116.77 C1414.43,160.76 1395.6137,250.7459 1386.4037,294.7759" fill="none" id="resipController-to-resipWorker" style="stroke:#181818;stroke-width:1;"/><polygon fill="#181818" points="1385.38,299.67,1391.138,291.6796,1386.4037,294.7759,1383.3074,290.0417,1385.38,299.67" style="stroke:#181818;stroke-width:1;stroke-linejoin:miter;stroke-miterlimit:10;"/><text fill="#000000" font-family="sans-serif" font-size="13" lengthAdjust="spacing" textLength="44.0781" x="1405.5" y="222.4951">invokes</text></g><!--link csvController to csvWorker--><g class="link" data-entity-1="ent0014" data-entity-2="ent0015" data-link-type="dependency" data-source-line="29" id="lnk16"><path codeLine="29" d="M808.07,116.77 C831.84,160.76 880.7232,251.241 904.5132,295.271" fill="none" id="csvController-to-csvWorker" style="stroke:#181818;stroke-width:1;"/><polygon fill="#181818" points="906.89,299.67,906.1309,289.8504,904.5132,295.271,899.0926,293.6533,906.89,299.67" style="stroke:#181818;stroke-width:1;stroke-linejoin:miter;stroke-miterlimit:10;"/><text fill="#000000" font-family="sans-serif" font-size="13" lengthAdjust="spacing" textLength="44.0781" x="866.5" y="222.4951">invokes</text></g><!--link csvController to translationModule--><g class="link" data-entity-1="ent0014" data-entity-2="ent0005" data-link-type="dependency" data-source-line="30" id="lnk17"><path codeLine="30" d="M788.36,116.85 C773.91,167.32 743.99,290.22 761.5,392 C766.82,422.95 777.9958,452.1693 787.5558,474.0193" fill="none" id="csvController-to-translationModule" style="stroke:#181818;stroke-width:1;"/><polygon fill="#181818" points="789.56,478.6,789.617,468.7513,787.5558,474.0193,782.2878,471.958,789.56,478.6" style="stroke:#181818;stroke-width:1;stroke-linejoin:miter;stroke-miterlimit:10;"/><text fill="#000000" font-family="sans-serif" font-size="13" lengthAdjust="spacing" textLength="89.6289" x="762.5" y="329.4951">reads language</text></g><!--link excelController to excelWorker--><g class="link" data-entity-1="ent0018" data-entity-2="ent0019" data-link-type="dependency" data-source-line="31" id="lnk20"><path codeLine="31" d="M1120.65,116.77 C1141.74,160.76 1185.0484,251.1314 1206.1584,295.1614" fill="none" id="excelController-to-excelWorker" style="stroke:#181818;stroke-width:1;"/><polygon fill="#181818" points="1208.32,299.67,1208.0359,289.8252,1206.1584,295.1614,1200.8222,293.2838,1208.32,299.67" style="stroke:#181818;stroke-width:1;stroke-linejoin:miter;stroke-miterlimit:10;"/><text fill="#000000" font-family="sans-serif" font-size="13" lengthAdjust="spacing" textLength="44.0781" x="1172.5" y="222.4951">invokes</text></g><!--link excelController to translationModule--><g class="link" data-entity-1="ent0018" data-entity-2="ent0005" data-link-type="dependency" data-source-line="32" id="lnk21"><path codeLine="32" d="M1101.28,116.73 C1075.03,190.47 993.44,415.87 968.5,440 C942.36,465.29 909.8437,479.1039 877.0037,488.0639" fill="none" id="excelController-to-translationModule" style="stroke:#181818;stroke-width:1;"/><polygon fill="#181818" points="872.18,489.38,881.9155,490.87,877.0037,488.0639,879.8098,483.1521,872.18,489.38" style="stroke:#181818;stroke-width:1;stroke-linejoin:miter;stroke-miterlimit:10;"/><text fill="#000000" font-family="sans-serif" font-size="13" lengthAdjust="spacing" textLength="89.6289" x="1049.5" y="329.4951">reads language</text></g><!--link hashController to hashWorker--><g class="link" data-entity-1="ent0022" data-entity-2="ent0023" data-link-type="dependency" data-source-line="33" id="lnk24"><path codeLine="33" d="M1746.5,116.77 C1746.5,160.76 1746.5,250.64 1746.5,294.67" fill="none" id="hashController-to-hashWorker" style="stroke:#181818;stroke-width:1;"/><polygon fill="#181818" points="1746.5,299.67,1750.5,290.67,1746.5,294.67,1742.5,290.67,1746.5,299.67" style="stroke:#181818;stroke-width:1;stroke-linejoin:miter;stroke-miterlimit:10;"/><text fill="#000000" font-family="sans-serif" font-size="13" lengthAdjust="spacing" textLength="44.0781" x="1747.5" y="222.4951">invokes</text></g><!--link hashWorker to userDataDir--><g class="link" data-entity-1="ent0023" data-entity-2="ent0025" data-link-type="dependency" data-source-line="34" id="lnk26"><path codeLine="34" d="M1759.05,348.14 C1777.45,382.06 1809.1659,440.535 1827.5659,474.455" fill="none" id="hashWorker-to-userDataDir" style="stroke:#181818;stroke-width:1;"/><polygon fill="#181818" points="1829.95,478.85,1829.1747,469.0317,1827.5659,474.455,1822.1426,472.8462,1829.95,478.85" style="stroke:#181818;stroke-width:1;stroke-linejoin:miter;stroke-miterlimit:10;"/><text fill="#000000" font-family="sans-serif" font-size="13" lengthAdjust="spacing" textLength="100.439" x="1810.5" y="436.4951">writes debug files</text></g><!--link hashWorker to fileSystem--><g class="link" data-entity-1="ent0023" data-entity-2="ent0003" data-link-type="dependency" data-source-line="35" id="lnk27"><path codeLine="35" d="M1724.54,348.14 C1695.01,379.25 1645.812,431.0833 1612.452,466.2333" fill="none" id="hashWorker-to-fileSystem" style="stroke:#181818;stroke-width:1;"/><polygon fill="#181818" points="1609.01,469.86,1618.1069,466.0856,1612.452,466.2333,1612.3042,460.5784,1609.01,469.86" style="stroke:#181818;stroke-width:1;stroke-linejoin:miter;stroke-miterlimit:10;"/><text fill="#000000" font-family="sans-serif" font-size="13" lengthAdjust="spacing" textLength="94.6626" x="1653.5" y="436.4951">processes paths</text></g><!--link treeCsvWorker to translationModule--><g class="link" data-entity-1="ent0008" data-entity-2="ent0005" data-link-type="dependency" data-source-line="37" id="lnk28"><path codeLine="37" d="M604.17,348.15 C597.76,373.26 592.17,413.32 611.5,440 C638.14,476.78 682.3356,491.3865 723.8356,497.6265" fill="none" id="treeCsvWorker-to-translationModule" style="stroke:#181818;stroke-width:1;stroke-dasharray:7,7;"/><polygon fill="#181818" points="728.78,498.37,720.4748,493.0763,723.8356,497.6265,719.2853,500.9873,728.78,498.37" style="stroke:#181818;stroke-width:1;stroke-linejoin:miter;stroke-miterlimit:10;"/><text fill="#000000" font-family="sans-serif" font-size="13" lengthAdjust="spacing" textLength="105.5171" x="612.5" y="436.4951">receives language</text></g><!--link resipWorker to translationModule--><g class="link" data-entity-1="ent0012" data-entity-2="ent0005" data-link-type="dependency" data-source-line="38" id="lnk29"><path codeLine="38" d="M1355.92,348.02 C1325.23,375.23 1269.87,419.4 1213.5,440 C1098.75,481.93 961.1232,495.2587 877.0432,499.6587" fill="none" id="resipWorker-to-translationModule" style="stroke:#181818;stroke-width:1;stroke-dasharray:7,7;"/><polygon fill="#181818" points="872.05,499.92,881.2467,503.4442,877.0432,499.6587,880.8287,495.4551,872.05,499.92" style="stroke:#181818;stroke-width:1;stroke-linejoin:miter;stroke-miterlimit:10;"/><text fill="#000000" font-family="sans-serif" font-size="13" lengthAdjust="spacing" textLength="105.5171" x="1250.5" y="436.4951">receives language</text></g><!--link csvWorker to translationModule--><g class="link" data-entity-1="ent0015" data-entity-2="ent0005" data-link-type="dependency" data-source-line="39" id="lnk30"><path codeLine="39" d="M903.94,348.14 C881.14,382.06 841.6601,440.7809 818.8501,474.7009" fill="none" id="csvWorker-to-translationModule" style="stroke:#181818;stroke-width:1;stroke-dasharray:7,7;"/><polygon fill="#181818" points="816.06,478.85,824.4015,473.6137,818.8501,474.7009,817.7629,469.1495,816.06,478.85" style="stroke:#181818;stroke-width:1;stroke-linejoin:miter;stroke-miterlimit:10;"/><text fill="#000000" font-family="sans-serif" font-size="13" lengthAdjust="spacing" textLength="105.5171" x="854.5" y="436.4951">receives language</text></g><!--link excelWorker to translationModule--><g class="link" data-entity-1="ent0019" data-entity-2="ent0005" data-link-type="dependency" data-source-line="40" id="lnk31"><path codeLine="40" d="M1192.73,348.05 C1176.97,361.32 1156.47,378.07 1137.5,392 C1106.2,414.98 1100.17,424.66 1064.5,440 C1002.22,466.79 931.4012,482.2234 877.0512,491.3334" fill="none" id="excelWorker-to-translationModule" style="stroke:#181818;stroke-width:1;stroke-dasharray:7,7;"/><polygon fill="#181818" points="872.12,492.16,881.6574,494.6172,877.0512,491.3334,880.3349,486.7272,872.12,492.16" style="stroke:#181818;stroke-width:1;stroke-linejoin:miter;stroke-miterlimit:10;"/><text fill="#000000" font-family="sans-serif" font-size="13" lengthAdjust="spacing" textLength="105.5171" x="1099.5" y="436.4951">receives language</text></g><?plantuml-src dPRRRXen48RlzoccNBLIGA5DJrnKIc7JHcgZ26XxRRp3Oc5io_QIGzLthzUxiDvJINCL6C_tp-QVyIml4bmpWJ2FfylBco_VOg2S61D5LM0GSwHMIm4pD5ih5LmgnHabbaan06803mc_8mYK1ZyCQbYWjKoa1XP4CCiUAyoK9-K1wZgzr8WmNVo4-5v9RM4gXIl2EMfFMtSyDVigMgVdyUBwjWVLQ9Zg0_ihqlvgyJr5teDXVjO7VYLcuu2TogmtfWblt7aVkzH465vWtsMISIoDEOQBQFIdrixFX6vJBJEHm2-fjwYDn-wApyqUDhjG8647YiW_t0yGxtmNq5s1TglNt0xIlTDTGClb0CeTBfcwJrUC8omUZCMTJroxxyNNfaV1VG0_ypDY2SoOTjT2wWTFPowUXrqqhzEQVHWEFxLR1nDd6KaCS2BIZAGOjSQ-18DME8Y9lToYwSq-MQPnHJmMD2yeGLlojED1w7CUed5pF1RqE93lodn2WVhjybGr3e5y4CnpWbwwf3lDB1f8S9MbVaXQ-S7aJ41fIT4OHoXYDsxJrdit6lKzEKMsnsQB_fkYpwWKUlvqAXBI8cYMRYp8TUUslveFpy_7PyNVrsTmup-yYT3jffnkQdJj_08fDIuE6kDUZVRozy3RqoJjglpkDDT-0NZW_McojVrz_eVod_ru43WwTz5Koj_MJgVSxKvWcfirWUkTuhX3OJ61FIEmgju9Xzo6qafQAtUvM3NDfTvuacyz0yVV2KIfKOhsrittoy7XiWnULP9_0G00?></g></svg>