<svg xmlns="http://www.w3.org/2000/svg" xmlns:xlink="http://www.w3.org/1999/xlink" contentStyleType="text/css" data-diagram-type="CLASS" height="601px" preserveAspectRatio="none" style="width:1177px;height:601px;background:#FFFFFF;" version="1.1" viewBox="0 0 1177 601" width="1177px" zoomAndPan="magnify"><?plantuml 1.2026.6?><defs/><g><!--class frontend--><g class="entity" data-qualified-name="frontend" data-source-line="3" id="ent0001"><rect fill="#F1F1F1" height="83.2188" rx="2.5" ry="2.5" style="stroke:#181818;stroke-width:0.5;" width="277.9658" x="360" y="7"/><ellipse cx="446.4849" cy="23" fill="#ADD1B2" rx="11" ry="11" style="stroke:#181818;stroke-width:1;"/><path d="M449.2505,18.875 Q449.4067,18.6563 449.5942,18.5469 Q449.7817,18.4375 450.0005,18.4375 Q450.3755,18.4375 450.6099,18.7031 Q450.8442,18.9531 450.8442,19.5625 L450.8442,21.0156 Q450.8442,21.625 450.6099,21.8906 Q450.3755,22.1563 450.0005,22.1563 Q449.6567,22.1563 449.4536,21.9531 Q449.2505,21.7656 449.1411,21.25 Q449.0942,20.8906 448.9067,20.7031 Q448.5786,20.3281 447.9692,20.1094 Q447.3599,19.8906 446.7349,19.8906 Q445.9692,19.8906 445.3286,20.2188 Q444.7036,20.5469 444.2036,21.2969 Q443.7192,22.0469 443.7192,23.0781 L443.7192,24.1719 Q443.7192,25.4063 444.6099,26.2344 Q445.5005,27.0469 447.0942,27.0469 Q448.0317,27.0469 448.688,26.7969 Q449.0786,26.6406 449.5005,26.2031 Q449.7661,25.9375 449.9067,25.8594 Q450.063,25.7813 450.2661,25.7813 Q450.5942,25.7813 450.8442,26.0469 Q451.1099,26.2969 451.1099,26.6406 Q451.1099,26.9844 450.7661,27.3906 Q450.2661,27.9688 449.4692,28.2969 Q448.3911,28.75 447.0942,28.75 Q445.5786,28.75 444.3755,28.125 Q443.3911,27.625 442.7036,26.5625 Q442.0161,25.4844 442.0161,24.2031 L442.0161,23.0469 Q442.0161,21.7188 442.6255,20.5781 Q443.2505,19.4219 444.3442,18.8125 Q445.438,18.1875 446.6724,18.1875 Q447.4067,18.1875 448.0474,18.3594 Q448.7036,18.5156 449.2505,18.875 Z " fill="#000000"/><text fill="#000000" font-family="sans-serif" font-size="14" lengthAdjust="spacing" textLength="96.4961" x="466.9849" y="28.7285">React Frontend</text><line style="stroke:#181818;stroke-width:0.5;" x1="361" x2="636.9658" y1="39" y2="39"/><text fill="#000000" font-family="sans-serif" font-size="14" lengthAdjust="spacing" textLength="265.9658" x="366" y="57.5332">class "Redux State Management" as redux</text><text fill="#000000" font-family="sans-serif" font-size="14" lengthAdjust="spacing" textLength="176.4561" x="366" y="75.1426">class "UI Components" as ui</text><line style="stroke:#181818;stroke-width:0.5;" x1="361" x2="636.9658" y1="82.2188" y2="82.2188"/></g><!--class backend--><g class="entity" data-qualified-name="backend" data-source-line="8" id="ent0002"><rect fill="#F1F1F1" height="118.4375" rx="2.5" ry="2.5" style="stroke:#181818;stroke-width:0.5;" width="218.7939" x="18.5" y="326"/><ellipse cx="51.721" cy="342" fill="#ADD1B2" rx="11" ry="11" style="stroke:#181818;stroke-width:1;"/><path d="M54.4867,337.875 Q54.6429,337.6563 54.8304,337.5469 Q55.0179,337.4375 55.2367,337.4375 Q55.6117,337.4375 55.846,337.7031 Q56.0804,337.9531 56.0804,338.5625 L56.0804,340.0156 Q56.0804,340.625 55.846,340.8906 Q55.6117,341.1563 55.2367,341.1563 Q54.8929,341.1563 54.6898,340.9531 Q54.4867,340.7656 54.3773,340.25 Q54.3304,339.8906 54.1429,339.7031 Q53.8148,339.3281 53.2054,339.1094 Q52.596,338.8906 51.971,338.8906 Q51.2054,338.8906 50.5648,339.2188 Q49.9398,339.5469 49.4398,340.2969 Q48.9554,341.0469 48.9554,342.0781 L48.9554,343.1719 Q48.9554,344.4063 49.846,345.2344 Q50.7367,346.0469 52.3304,346.0469 Q53.2679,346.0469 53.9242,345.7969 Q54.3148,345.6406 54.7367,345.2031 Q55.0023,344.9375 55.1429,344.8594 Q55.2992,344.7813 55.5023,344.7813 Q55.8304,344.7813 56.0804,345.0469 Q56.346,345.2969 56.346,345.6406 Q56.346,345.9844 56.0023,346.3906 Q55.5023,346.9688 54.7054,347.2969 Q53.6273,347.75 52.3304,347.75 Q50.8148,347.75 49.6117,347.125 Q48.6273,346.625 47.9398,345.5625 Q47.2523,344.4844 47.2523,343.2031 L47.2523,342.0469 Q47.2523,340.7188 47.8617,339.5781 Q48.4867,338.4219 49.5804,337.8125 Q50.6742,337.1875 51.9085,337.1875 Q52.6429,337.1875 53.2835,337.3594 Q53.9398,337.5156 54.4867,337.875 Z " fill="#000000"/><text fill="#000000" font-family="sans-serif" font-size="14" lengthAdjust="spacing" textLength="146.3027" x="69.7702" y="347.7285">Node/Express Backend</text><line style="stroke:#181818;stroke-width:0.5;" x1="19.5" x2="236.2939" y1="358" y2="358"/><text fill="#000000" font-family="sans-serif" font-size="14" lengthAdjust="spacing" textLength="206.7939" x="24.5" y="376.5332">class "User/Auth API" as userAPI</text><text fill="#000000" font-family="sans-serif" font-size="14" lengthAdjust="spacing" textLength="193.5596" x="24.5" y="394.1426">class "Follow API" as followAPI</text><text fill="#000000" font-family="sans-serif" font-size="14" lengthAdjust="spacing" textLength="176.4697" x="24.5" y="411.752">class "Feed API" as feedAPI</text><text fill="#000000" font-family="sans-serif" font-size="14" lengthAdjust="spacing" textLength="195.9385" x="24.5" y="429.3613">class "Sound API" as soundAPI</text><line style="stroke:#181818;stroke-width:0.5;" x1="19.5" x2="236.2939" y1="436.4375" y2="436.4375"/></g><!--class database--><g class="entity" data-qualified-name="database" data-source-line="15" id="ent0003"><rect fill="#F1F1F1" height="48" rx="2.5" ry="2.5" style="stroke:#181818;stroke-width:0.5;" width="172.082" x="7" y="538"/><ellipse cx="22" cy="554" fill="#ADD1B2" rx="11" ry="11" style="stroke:#181818;stroke-width:1;"/><path d="M24.7656,549.875 Q24.9219,549.6563 25.1094,549.5469 Q25.2969,549.4375 25.5156,549.4375 Q25.8906,549.4375 26.125,549.7031 Q26.3594,549.9531 26.3594,550.5625 L26.3594,552.0156 Q26.3594,552.625 26.125,552.8906 Q25.8906,553.1563 25.5156,553.1563 Q25.1719,553.1563 24.9688,552.9531 Q24.7656,552.7656 24.6563,552.25 Q24.6094,551.8906 24.4219,551.7031 Q24.0938,551.3281 23.4844,551.1094 Q22.875,550.8906 22.25,550.8906 Q21.4844,550.8906 20.8438,551.2188 Q20.2188,551.5469 19.7188,552.2969 Q19.2344,553.0469 19.2344,554.0781 L19.2344,555.1719 Q19.2344,556.4063 20.125,557.2344 Q21.0156,558.0469 22.6094,558.0469 Q23.5469,558.0469 24.2031,557.7969 Q24.5938,557.6406 25.0156,557.2031 Q25.2813,556.9375 25.4219,556.8594 Q25.5781,556.7813 25.7813,556.7813 Q26.1094,556.7813 26.3594,557.0469 Q26.625,557.2969 26.625,557.6406 Q26.625,557.9844 26.2813,558.3906 Q25.7813,558.9688 24.9844,559.2969 Q23.9063,559.75 22.6094,559.75 Q21.0938,559.75 19.8906,559.125 Q18.9063,558.625 18.2188,557.5625 Q17.5313,556.4844 17.5313,555.2031 L17.5313,554.0469 Q17.5313,552.7188 18.1406,551.5781 Q18.7656,550.4219 19.8594,549.8125 Q20.9531,549.1875 22.1875,549.1875 Q22.9219,549.1875 23.5625,549.3594 Q24.2188,549.5156 24.7656,549.875 Z " fill="#000000"/><text fill="#000000" font-family="sans-serif" font-size="14" lengthAdjust="spacing" textLength="140.082" x="36" y="559.7285">PostgreSQL Database</text><line style="stroke:#181818;stroke-width:0.5;" x1="8" x2="178.082" y1="570" y2="570"/><line style="stroke:#181818;stroke-width:0.5;" x1="8" x2="178.082" y1="578" y2="578"/></g><!--class cloudinary--><g class="entity" data-qualified-name="cloudinary" data-source-line="17" id="ent0004"><rect fill="#F1F1F1" height="48" rx="2.5" ry="2.5" style="stroke:#181818;stroke-width:0.5;" width="98.9238" x="548.5" y="538"/><ellipse cx="563.5" cy="554" fill="#ADD1B2" rx="11" ry="11" style="stroke:#181818;stroke-width:1;"/><path d="M566.2656,549.875 Q566.4219,549.6563 566.6094,549.5469 Q566.7969,549.4375 567.0156,549.4375 Q567.3906,549.4375 567.625,549.7031 Q567.8594,549.9531 567.8594,550.5625 L567.8594,552.0156 Q567.8594,552.625 567.625,552.8906 Q567.3906,553.1563 567.0156,553.1563 Q566.6719,553.1563 566.4688,552.9531 Q566.2656,552.7656 566.1563,552.25 Q566.1094,551.8906 565.9219,551.7031 Q565.5938,551.3281 564.9844,551.1094 Q564.375,550.8906 563.75,550.8906 Q562.9844,550.8906 562.3438,551.2188 Q561.7188,551.5469 561.2188,552.2969 Q560.7344,553.0469 560.7344,554.0781 L560.7344,555.1719 Q560.7344,556.4063 561.625,557.2344 Q562.5156,558.0469 564.1094,558.0469 Q565.0469,558.0469 565.7031,557.7969 Q566.0938,557.6406 566.5156,557.2031 Q566.7813,556.9375 566.9219,556.8594 Q567.0781,556.7813 567.2813,556.7813 Q567.6094,556.7813 567.8594,557.0469 Q568.125,557.2969 568.125,557.6406 Q568.125,557.9844 567.7813,558.3906 Q567.2813,558.9688 566.4844,559.2969 Q565.4063,559.75 564.1094,559.75 Q562.5938,559.75 561.3906,559.125 Q560.4063,558.625 559.7188,557.5625 Q559.0313,556.4844 559.0313,555.2031 L559.0313,554.0469 Q559.0313,552.7188 559.6406,551.5781 Q560.2656,550.4219 561.3594,549.8125 Q562.4531,549.1875 563.6875,549.1875 Q564.4219,549.1875 565.0625,549.3594 Q565.7188,549.5156 566.2656,549.875 Z " fill="#000000"/><text fill="#000000" font-family="sans-serif" font-size="14" lengthAdjust="spacing" textLength="66.9238" x="577.5" y="559.7285">Cloudinary</text><line style="stroke:#181818;stroke-width:0.5;" x1="549.5" x2="646.4238" y1="570" y2="570"/><line style="stroke:#181818;stroke-width:0.5;" x1="549.5" x2="646.4238" y1="578" y2="578"/></g><!--class redux--><g class="entity" data-qualified-name="redux" data-source-line="19" id="ent0005"><rect fill="#F1F1F1" height="48" rx="2.5" ry="2.5" style="stroke:#181818;stroke-width:0.5;" width="67.0205" x="111.5" y="184"/><ellipse cx="126.5" cy="200" fill="#ADD1B2" rx="11" ry="11" style="stroke:#181818;stroke-width:1;"/><path d="M129.2656,195.875 Q129.4219,195.6563 129.6094,195.5469 Q129.7969,195.4375 130.0156,195.4375 Q130.3906,195.4375 130.625,195.7031 Q130.8594,195.9531 130.8594,196.5625 L130.8594,198.0156 Q130.8594,198.625 130.625,198.8906 Q130.3906,199.1563 130.0156,199.1563 Q129.6719,199.1563 129.4688,198.9531 Q129.2656,198.7656 129.1563,198.25 Q129.1094,197.8906 128.9219,197.7031 Q128.5938,197.3281 127.9844,197.1094 Q127.375,196.8906 126.75,196.8906 Q125.9844,196.8906 125.3438,197.2188 Q124.7188,197.5469 124.2188,198.2969 Q123.7344,199.0469 123.7344,200.0781 L123.7344,201.1719 Q123.7344,202.4063 124.625,203.2344 Q125.5156,204.0469 127.1094,204.0469 Q128.0469,204.0469 128.7031,203.7969 Q129.0938,203.6406 129.5156,203.2031 Q129.7813,202.9375 129.9219,202.8594 Q130.0781,202.7813 130.2813,202.7813 Q130.6094,202.7813 130.8594,203.0469 Q131.125,203.2969 131.125,203.6406 Q131.125,203.9844 130.7813,204.3906 Q130.2813,204.9688 129.4844,205.2969 Q128.4063,205.75 127.1094,205.75 Q125.5938,205.75 124.3906,205.125 Q123.4063,204.625 122.7188,203.5625 Q122.0313,202.4844 122.0313,201.2031 L122.0313,200.0469 Q122.0313,198.7188 122.6406,197.5781 Q123.2656,196.4219 124.3594,195.8125 Q125.4531,195.1875 126.6875,195.1875 Q127.4219,195.1875 128.0625,195.3594 Q128.7188,195.5156 129.2656,195.875 Z " fill="#000000"/><text fill="#000000" font-family="sans-serif" font-size="14" lengthAdjust="spacing" textLength="35.0205" x="140.5" y="205.7285">redux</text><line style="stroke:#181818;stroke-width:0.5;" x1="112.5" x2="177.5205" y1="216" y2="216"/><line style="stroke:#181818;stroke-width:0.5;" x1="112.5" x2="177.5205" y1="224" y2="224"/></g><!--class ui--><g class="entity" data-qualified-name="ui" data-source-line="20" id="ent0007"><rect fill="#F1F1F1" height="48" rx="2.5" ry="2.5" style="stroke:#181818;stroke-width:0.5;" width="42.8965" x="123.5" y="24.5"/><ellipse cx="138.5" cy="40.5" fill="#ADD1B2" rx="11" ry="11" style="stroke:#181818;stroke-width:1;"/><path d="M141.2656,36.375 Q141.4219,36.1563 141.6094,36.0469 Q141.7969,35.9375 142.0156,35.9375 Q142.3906,35.9375 142.625,36.2031 Q142.8594,36.4531 142.8594,37.0625 L142.8594,38.5156 Q142.8594,39.125 142.625,39.3906 Q142.3906,39.6563 142.0156,39.6563 Q141.6719,39.6563 141.4688,39.4531 Q141.2656,39.2656 141.1563,38.75 Q141.1094,38.3906 140.9219,38.2031 Q140.5938,37.8281 139.9844,37.6094 Q139.375,37.3906 138.75,37.3906 Q137.9844,37.3906 137.3438,37.7188 Q136.7188,38.0469 136.2188,38.7969 Q135.7344,39.5469 135.7344,40.5781 L135.7344,41.6719 Q135.7344,42.9063 136.625,43.7344 Q137.5156,44.5469 139.1094,44.5469 Q140.0469,44.5469 140.7031,44.2969 Q141.0938,44.1406 141.5156,43.7031 Q141.7813,43.4375 141.9219,43.3594 Q142.0781,43.2813 142.2813,43.2813 Q142.6094,43.2813 142.8594,43.5469 Q143.125,43.7969 143.125,44.1406 Q143.125,44.4844 142.7813,44.8906 Q142.2813,45.4688 141.4844,45.7969 Q140.4063,46.25 139.1094,46.25 Q137.5938,46.25 136.3906,45.625 Q135.4063,45.125 134.7188,44.0625 Q134.0313,42.9844 134.0313,41.7031 L134.0313,40.5469 Q134.0313,39.2188 134.6406,38.0781 Q135.2656,36.9219 136.3594,36.3125 Q137.4531,35.6875 138.6875,35.6875 Q139.4219,35.6875 140.0625,35.8594 Q140.7188,36.0156 141.2656,36.375 Z " fill="#000000"/><text fill="#000000" font-family="sans-serif" font-size="14" lengthAdjust="spacing" textLength="10.8965" x="152.5" y="46.2285">ui</text><line style="stroke:#181818;stroke-width:0.5;" x1="124.5" x2="165.3965" y1="56.5" y2="56.5"/><line style="stroke:#181818;stroke-width:0.5;" x1="124.5" x2="165.3965" y1="64.5" y2="64.5"/></g><g class="entity" data-qualified-name="GMN15" data-source-line="29" id="ent0016"><path d="M673,27 L673,44.5 L638.12,48.5 L673,52.5 L673,69.7031 A0,0 0 0 0 673,69.7031 L1162.9585,69.7031 A0,0 0 0 0 1162.9585,69.7031 L1162.9585,37 L1152.9585,27 L673,27 A0,0 0 0 0 673,27" fill="#FEFFDD" style="stroke:#181818;stroke-width:0.5;"/><path d="M1152.9585,27 L1152.9585,37 L1162.9585,37 L1152.9585,27" fill="#FEFFDD" style="stroke:#181818;stroke-width:0.5;"/><text fill="#000000" font-family="sans-serif" font-size="13" lengthAdjust="spacing" textLength="291.1987" x="679" y="45.4951">Client Runtime:\nBrowser-based React/Redux app</text><text fill="#000000" font-family="sans-serif" font-size="13" lengthAdjust="spacing" textLength="468.9585" x="679" y="61.8467">Configured with:\n- API base URL\n- Cloudinary URL\n- Cloudinary upload preset</text></g><g class="entity" data-qualified-name="GMN18" data-source-line="34" id="ent0019"><path d="M273,372 L273,381 L237.57,385 L273,389 L273,398.3516 A0,0 0 0 0 273,398.3516 L533.1733,398.3516 A0,0 0 0 0 533.1733,398.3516 L533.1733,382 L523.1733,372 L273,372 A0,0 0 0 0 273,372" fill="#FEFFDD" style="stroke:#181818;stroke-width:0.5;"/><path d="M523.1733,372 L523.1733,382 L533.1733,382 L523.1733,372" fill="#FEFFDD" style="stroke:#181818;stroke-width:0.5;"/><text fill="#000000" font-family="sans-serif" font-size="13" lengthAdjust="spacing" textLength="239.1733" x="279" y="390.4951">Server Runtime:\nNode/Express backend</text></g><g class="entity" data-qualified-name="GMN21" data-source-line="38" id="ent0022"><path d="M214.5,549 L214.5,558 L179.01,562 L214.5,566 L214.5,575.3516 A0,0 0 0 0 214.5,575.3516 L513.7051,575.3516 A0,0 0 0 0 513.7051,575.3516 L513.7051,559 L503.7051,549 L214.5,549 A0,0 0 0 0 214.5,549" fill="#FEFFDD" style="stroke:#181818;stroke-width:0.5;"/><path d="M503.7051,549 L503.7051,559 L513.7051,559 L503.7051,549" fill="#FEFFDD" style="stroke:#181818;stroke-width:0.5;"/><text fill="#000000" font-family="sans-serif" font-size="13" lengthAdjust="spacing" textLength="278.2051" x="220.5" y="567.4951">Data Platform:\nPostgreSQL for application data</text></g><g class="entity" data-qualified-name="GMN24" data-source-line="42" id="ent0025"><path d="M682.5,549 L682.5,558 L647.69,562 L682.5,566 L682.5,575.3516 A0,0 0 0 0 682.5,575.3516 L1007.7114,575.3516 A0,0 0 0 0 1007.7114,575.3516 L1007.7114,559 L997.7114,549 L682.5,549 A0,0 0 0 0 682.5,549" fill="#FEFFDD" style="stroke:#181818;stroke-width:0.5;"/><path d="M997.7114,549 L997.7114,559 L1007.7114,559 L997.7114,549" fill="#FEFFDD" style="stroke:#181818;stroke-width:0.5;"/><text fill="#000000" font-family="sans-serif" font-size="13" lengthAdjust="spacing" textLength="304.2114" x="688.5" y="567.4951">Media Platform:\nCloudinary for audio/image storage</text></g><!--link frontend to redux--><g class="link" data-entity-1="ent0001" data-entity-2="ent0005" data-link-type="dependency" data-source-line="19" id="lnk6"><path codeLine="19" d="M361.03,90.09 C339.62,98.65 318.25,108.61 299,120 C279.5,131.54 279.97,141.59 261,154 C234.97,171.03 207.2214,183.4958 183.2814,192.9358" fill="none" id="frontend-to-redux" style="stroke:#181818;stroke-width:1;"/><polygon fill="#181818" points="178.63,194.77,188.4699,195.1897,183.2814,192.9358,185.5353,187.7474,178.63,194.77" style="stroke:#181818;stroke-width:1;stroke-linejoin:miter;stroke-miterlimit:10;"/><text fill="#000000" font-family="sans-serif" font-size="13" lengthAdjust="spacing" textLength="85.2744" x="300" y="134.4951">Manages state</text><text fill="#000000" font-family="sans-serif" font-size="13" lengthAdjust="spacing" textLength="66.4917" x="309.3914" y="150.8467">and actions</text></g><!--link ui to redux--><g class="link" data-entity-1="ent0007" data-entity-2="ent0005" data-link-type="dependency" data-source-line="20" id="lnk8"><path codeLine="20" d="M145,72.74 C145,102.6 145,149.14 145,178.92" fill="none" id="ui-to-redux" style="stroke:#181818;stroke-width:1;"/><polygon fill="#181818" points="145,183.92,149,174.92,145,178.92,141,174.92,145,183.92" style="stroke:#181818;stroke-width:1;stroke-linejoin:miter;stroke-miterlimit:10;"/><text fill="#000000" font-family="sans-serif" font-size="13" lengthAdjust="spacing" textLength="109.1099" x="146" y="142.4951">Dispatches actions</text></g><!--link redux to backend--><g class="link" data-entity-1="ent0005" data-entity-2="ent0002" data-link-type="dependency" data-source-line="21" id="lnk9"><path codeLine="21" d="M142.74,232.24 C140.43,256.04 137.2223,289.0033 134.1223,320.9933" fill="none" id="redux-to-backend" style="stroke:#181818;stroke-width:1;"/><polygon fill="#181818" points="133.64,325.97,138.4894,317.3978,134.1223,320.9933,130.5267,316.6261,133.64,325.97" style="stroke:#181818;stroke-width:1;stroke-linejoin:miter;stroke-miterlimit:10;"/><text fill="#000000" font-family="sans-serif" font-size="13" lengthAdjust="spacing" textLength="110.5635" x="159.0654" y="276.4951">Sends requests via</text><text fill="#000000" font-family="sans-serif" font-size="13" lengthAdjust="spacing" textLength="146.6943" x="141" y="292.8467">configured API base URL</text></g><!--link backend to database--><g class="link" data-entity-1="ent0002" data-entity-2="ent0003" data-link-type="dependency" data-source-line="22" id="lnk10"><path codeLine="22" d="M116.35,444.27 C109.94,476.29 103.3414,509.2973 98.5914,533.0273" fill="none" id="backend-to-database" style="stroke:#181818;stroke-width:1;"/><polygon fill="#181818" points="97.61,537.93,103.2987,529.8902,98.5914,533.0273,95.4543,528.32,97.61,537.93" style="stroke:#181818;stroke-width:1;stroke-linejoin:miter;stroke-miterlimit:10;"/><text fill="#000000" font-family="sans-serif" font-size="13" lengthAdjust="spacing" textLength="111.998" x="111" y="488.4951">Persists application</text><text fill="#000000" font-family="sans-serif" font-size="13" lengthAdjust="spacing" textLength="104.7681" x="114.615" y="504.8467">records and URLs</text></g><!--link frontend to cloudinary--><g class="link" data-entity-1="ent0001" data-entity-2="ent0004" data-link-type="dependency" data-source-line="23" id="lnk11"><path codeLine="23" d="M577.56,90.02 C590.09,98.77 602.15,108.8 612,120 C657.83,172.13 662.22,194.18 677,262 C699.64,365.87 642.4564,483.575 614.2664,533.555" fill="none" id="frontend-to-cloudinary" style="stroke:#181818;stroke-width:1;"/><polygon fill="#181818" points="611.81,537.91,619.7155,532.036,614.2664,533.555,612.7474,528.1059,611.81,537.91" style="stroke:#181818;stroke-width:1;stroke-linejoin:miter;stroke-miterlimit:10;"/><text fill="#000000" font-family="sans-serif" font-size="13" lengthAdjust="spacing" textLength="72.9663" x="693.9272" y="276.4951">Direct media</text><text fill="#000000" font-family="sans-serif" font-size="13" lengthAdjust="spacing" textLength="96.8208" x="682" y="292.8467">upload via HTTP</text></g><!--link cloudinary to frontend--><g class="link" data-entity-1="ent0004" data-entity-2="ent0001" data-link-type="dependency" data-source-line="24" id="lnk12"><path codeLine="24" d="M593.52,537.86 C578.03,457.84 527.5801,197.1689 507.8001,94.9689" fill="none" id="cloudinary-to-frontend" style="stroke:#181818;stroke-width:1;"/><polygon fill="#181818" points="506.85,90.06,504.633,99.6561,507.8001,94.9689,512.4873,98.136,506.85,90.06" style="stroke:#181818;stroke-width:1;stroke-linejoin:miter;stroke-miterlimit:10;"/><text fill="#000000" font-family="sans-serif" font-size="13" lengthAdjust="spacing" textLength="88.1626" x="547" y="276.4951">Returns hosted</text><text fill="#000000" font-family="sans-serif" font-size="13" lengthAdjust="spacing" textLength="71.5254" x="555.3186" y="292.8467">media URLs</text></g><!--link frontend to backend--><g class="link" data-entity-1="ent0001" data-entity-2="ent0002" data-link-type="dependency" data-source-line="25" id="lnk13"><path codeLine="25" d="M472.91,90.45 C437.75,143.16 370.87,235.18 296,296 C278.37,310.32 262.3946,320.8807 242.1046,332.2207" fill="none" id="frontend-to-backend" style="stroke:#181818;stroke-width:1;"/><polygon fill="#181818" points="237.74,334.66,247.5477,333.7608,242.1046,332.2207,243.6448,326.7775,237.74,334.66" style="stroke:#181818;stroke-width:1;stroke-linejoin:miter;stroke-miterlimit:10;"/><text fill="#000000" font-family="sans-serif" font-size="13" lengthAdjust="spacing" textLength="111.998" x="405" y="205.4951">Sends media URLs</text><text fill="#000000" font-family="sans-serif" font-size="13" lengthAdjust="spacing" textLength="85.2617" x="418.3682" y="221.8467">for persistence</text></g><!--link backend to cloudinary--><g class="link" data-entity-1="ent0002" data-entity-2="ent0004" data-link-type="dependency" data-source-line="26" id="lnk14"><path codeLine="26" d="M237.5,436.84 C243.4,439.31 249.26,441.72 255,444 C375.42,491.87 408.38,496.07 531,538 C536.59,539.91 537.7014,540.2851 543.5214,542.2851" fill="none" id="backend-to-cloudinary" style="stroke:#181818;stroke-width:1;"/><polygon fill="#181818" points="548.25,543.91,541.0385,537.2022,543.5214,542.2851,538.4386,544.768,548.25,543.91" style="stroke:#181818;stroke-width:1;stroke-linejoin:miter;stroke-miterlimit:10;"/><text fill="#000000" font-family="sans-serif" font-size="13" lengthAdjust="spacing" textLength="106.2217" x="436" y="488.4951">References stored</text><text fill="#000000" font-family="sans-serif" font-size="13" lengthAdjust="spacing" textLength="91.7554" x="443.2332" y="504.8467">media via URLs</text></g><?plantuml-src TLDDRzim3BthLt2z1xddC21DqxL0McHESlD5jUX4c2rvafnq6FRVHyhnXzBsP5DwV7ny8hyfBBL1oDQh_VBrnsODHIMz5s8ykCjG5W4UdJK1ZRe3wQ6y1l1N02HGrRx3BiY0y2ADF6AD9iGKnrSf-l0CAritrX36Hr2hnR-azgjLE5-_DmwzXtjP_EeLl7N_jm8E7jrysOOJBBVF7IMTq7yAUxHLPIy3fepXHnIY6Z4KV43iR6j6YEU8CMaFM-l3qU7kvmOUP91lqcE4gskGW5ULRPKsqls9c688XHXCdys-TtR2ukeorMRFSoFfcbvBM-D5gnFaW_QD3CM9m3sYks9GR-S2TlJXr_hTeWyUpbhcfh2crCVMTNO0YuP3jX5z5ZFqtH355ftNd2oRfjA5v6AvSLXOHzGiaP9zsi_OQ9HAu00rAgxUDfMLYfN0qtw_5HCePmuq2yWmjCvuE97Zg78J2JufTjljYCjDQHqqNGDe2anwJ4HcMA9Z29jltLZltDSKnj8UE7qy1R3b89H6Q5Lfcdd8MXDqZOlSt3jxeK6TiOCAuiRDksKY3pbXV86B3YVAc2LFmV4uEf-SN4taHS8Wk24MTolnsYmLtA4xevieJ3Qnntt5Cumsn967RIK36LiJpsGRsEh9YCIiBoadcm3m4esUi4uwZQmKsBckQJNYuz1t9FuF?></g></svg>