<svg xmlns="http://www.w3.org/2000/svg" xmlns:xlink="http://www.w3.org/1999/xlink" contentStyleType="text/css" data-diagram-type="CLASS" height="792px" preserveAspectRatio="none" style="width:1215px;height:792px;background:#FFFFFF;" version="1.1" viewBox="0 0 1215 792" width="1215px" zoomAndPan="magnify"><?plantuml 1.2026.6?><defs/><g><!--class external_users--><g class="entity" data-qualified-name="external_users" data-source-line="3" id="ent0001"><rect fill="#F1F1F1" height="61.2188" rx="2.5" ry="2.5" style="stroke:#181818;stroke-width:0.5;" width="127.6963" x="573" y="35.5"/><ellipse cx="588" cy="58.1094" fill="#ADD1B2" rx="11" ry="11" style="stroke:#181818;stroke-width:1;"/><path d="M590.7656,53.9844 Q590.9219,53.7656 591.1094,53.6563 Q591.2969,53.5469 591.5156,53.5469 Q591.8906,53.5469 592.125,53.8125 Q592.3594,54.0625 592.3594,54.6719 L592.3594,56.125 Q592.3594,56.7344 592.125,57 Q591.8906,57.2656 591.5156,57.2656 Q591.1719,57.2656 590.9688,57.0625 Q590.7656,56.875 590.6563,56.3594 Q590.6094,56 590.4219,55.8125 Q590.0938,55.4375 589.4844,55.2188 Q588.875,55 588.25,55 Q587.4844,55 586.8438,55.3281 Q586.2188,55.6563 585.7188,56.4063 Q585.2344,57.1563 585.2344,58.1875 L585.2344,59.2813 Q585.2344,60.5156 586.125,61.3438 Q587.0156,62.1563 588.6094,62.1563 Q589.5469,62.1563 590.2031,61.9063 Q590.5938,61.75 591.0156,61.3125 Q591.2813,61.0469 591.4219,60.9688 Q591.5781,60.8906 591.7813,60.8906 Q592.1094,60.8906 592.3594,61.1563 Q592.625,61.4063 592.625,61.75 Q592.625,62.0938 592.2813,62.5 Q591.7813,63.0781 590.9844,63.4063 Q589.9063,63.8594 588.6094,63.8594 Q587.0938,63.8594 585.8906,63.2344 Q584.9063,62.7344 584.2188,61.6719 Q583.5313,60.5938 583.5313,59.3125 L583.5313,58.1563 Q583.5313,56.8281 584.1406,55.6875 Q584.7656,54.5313 585.8594,53.9219 Q586.9531,53.2969 588.1875,53.2969 Q588.9219,53.2969 589.5625,53.4688 Q590.2188,53.625 590.7656,53.9844 Z " fill="#000000"/><text fill="#000000" font-family="sans-serif" font-size="14" lengthAdjust="spacing" textLength="95.6963" x="602" y="55.0332">External Users/</text><text fill="#000000" font-family="sans-serif" font-size="14" lengthAdjust="spacing" textLength="53.6758" x="623.0103" y="72.6426">Systems</text><line style="stroke:#181818;stroke-width:0.5;" x1="574" x2="699.6963" y1="80.7188" y2="80.7188"/><line style="stroke:#181818;stroke-width:0.5;" x1="574" x2="699.6963" y1="88.7188" y2="88.7188"/></g><!--class proxy--><g class="entity" data-qualified-name="proxy" data-source-line="5" id="ent0002"><rect fill="#F1F1F1" height="118.4375" rx="2.5" ry="2.5" style="stroke:#181818;stroke-width:0.5;" width="265.9688" x="7" y="7"/><ellipse cx="97.9966" cy="23" fill="#ADD1B2" rx="11" ry="11" style="stroke:#181818;stroke-width:1;"/><path d="M100.7622,18.875 Q100.9185,18.6563 101.106,18.5469 Q101.2935,18.4375 101.5122,18.4375 Q101.8872,18.4375 102.1216,18.7031 Q102.356,18.9531 102.356,19.5625 L102.356,21.0156 Q102.356,21.625 102.1216,21.8906 Q101.8872,22.1563 101.5122,22.1563 Q101.1685,22.1563 100.9653,21.9531 Q100.7622,21.7656 100.6528,21.25 Q100.606,20.8906 100.4185,20.7031 Q100.0903,20.3281 99.481,20.1094 Q98.8716,19.8906 98.2466,19.8906 Q97.481,19.8906 96.8403,20.2188 Q96.2153,20.5469 95.7153,21.2969 Q95.231,22.0469 95.231,23.0781 L95.231,24.1719 Q95.231,25.4063 96.1216,26.2344 Q97.0122,27.0469 98.606,27.0469 Q99.5435,27.0469 100.1997,26.7969 Q100.5903,26.6406 101.0122,26.2031 Q101.2778,25.9375 101.4185,25.8594 Q101.5747,25.7813 101.7778,25.7813 Q102.106,25.7813 102.356,26.0469 Q102.6216,26.2969 102.6216,26.6406 Q102.6216,26.9844 102.2778,27.3906 Q101.7778,27.9688 100.981,28.2969 Q99.9028,28.75 98.606,28.75 Q97.0903,28.75 95.8872,28.125 Q94.9028,27.625 94.2153,26.5625 Q93.5278,25.4844 93.5278,24.2031 L93.5278,23.0469 Q93.5278,21.7188 94.1372,20.5781 Q94.7622,19.4219 95.856,18.8125 Q96.9497,18.1875 98.1841,18.1875 Q98.9185,18.1875 99.5591,18.3594 Q100.2153,18.5156 100.7622,18.875 Z " fill="#000000"/><text fill="#000000" font-family="sans-serif" font-size="14" lengthAdjust="spacing" textLength="75.4756" x="118.4966" y="28.7285">PlugIt Proxy</text><line style="stroke:#181818;stroke-width:0.5;" x1="8" x2="271.9688" y1="39" y2="39"/><text fill="#000000" font-family="sans-serif" font-size="14" lengthAdjust="spacing" textLength="250.3936" x="13" y="57.5332">class "Proxy API Endpoint" as proxy_api</text><text fill="#000000" font-family="sans-serif" font-size="14" lengthAdjust="spacing" textLength="232.4834" x="13" y="75.1426">class "Proxy Data Store" as proxy_db</text><line style="stroke:#181818;stroke-width:0.5;" x1="8" x2="271.9688" y1="82.2188" y2="82.2188"/><text fill="#000000" font-family="sans-serif" font-size="14" lengthAdjust="spacing" textLength="127.873" x="13" y="100.752">class "Mail Workflow</text><text fill="#000000" font-family="sans-serif" font-size="14" lengthAdjust="spacing" textLength="253.9688" x="13" y="118.3613">(Standalone Example)" as mail_workflow</text></g><!--class service1--><g class="entity" data-qualified-name="service1" data-source-line="11" id="ent0003"><rect fill="#F1F1F1" height="100.8281" rx="2.5" ry="2.5" style="stroke:#181818;stroke-width:0.5;" width="233.5801" x="90" y="342"/><ellipse cx="153.5161" cy="358" fill="#ADD1B2" rx="11" ry="11" style="stroke:#181818;stroke-width:1;"/><path d="M156.2817,353.875 Q156.438,353.6563 156.6255,353.5469 Q156.813,353.4375 157.0317,353.4375 Q157.4067,353.4375 157.6411,353.7031 Q157.8755,353.9531 157.8755,354.5625 L157.8755,356.0156 Q157.8755,356.625 157.6411,356.8906 Q157.4067,357.1563 157.0317,357.1563 Q156.688,357.1563 156.4849,356.9531 Q156.2817,356.7656 156.1724,356.25 Q156.1255,355.8906 155.938,355.7031 Q155.6099,355.3281 155.0005,355.1094 Q154.3911,354.8906 153.7661,354.8906 Q153.0005,354.8906 152.3599,355.2188 Q151.7349,355.5469 151.2349,356.2969 Q150.7505,357.0469 150.7505,358.0781 L150.7505,359.1719 Q150.7505,360.4063 151.6411,361.2344 Q152.5317,362.0469 154.1255,362.0469 Q155.063,362.0469 155.7192,361.7969 Q156.1099,361.6406 156.5317,361.2031 Q156.7974,360.9375 156.938,360.8594 Q157.0942,360.7813 157.2974,360.7813 Q157.6255,360.7813 157.8755,361.0469 Q158.1411,361.2969 158.1411,361.6406 Q158.1411,361.9844 157.7974,362.3906 Q157.2974,362.9688 156.5005,363.2969 Q155.4224,363.75 154.1255,363.75 Q152.6099,363.75 151.4067,363.125 Q150.4224,362.625 149.7349,361.5625 Q149.0474,360.4844 149.0474,359.2031 L149.0474,358.0469 Q149.0474,356.7188 149.6567,355.5781 Q150.2817,354.4219 151.3755,353.8125 Q152.4692,353.1875 153.7036,353.1875 Q154.438,353.1875 155.0786,353.3594 Q155.7349,353.5156 156.2817,353.875 Z " fill="#000000"/><text fill="#000000" font-family="sans-serif" font-size="14" lengthAdjust="spacing" textLength="98.0479" x="174.0161" y="363.7285">PlugIt Service 1</text><line style="stroke:#181818;stroke-width:0.5;" x1="91" x2="322.5801" y1="374" y2="374"/><text fill="#000000" font-family="sans-serif" font-size="14" lengthAdjust="spacing" textLength="221.5801" x="96" y="392.5332">class "Service API Client" as client1</text><text fill="#000000" font-family="sans-serif" font-size="14" lengthAdjust="spacing" textLength="204.4766" x="96" y="410.1426">class "Service Config" as config1</text><text fill="#000000" font-family="sans-serif" font-size="14" lengthAdjust="spacing" textLength="209.1455" x="96" y="427.752">class "Service Data Store" as db1</text><line style="stroke:#181818;stroke-width:0.5;" x1="91" x2="322.5801" y1="434.8281" y2="434.8281"/></g><!--class service2--><g class="entity" data-qualified-name="service2" data-source-line="17" id="ent0004"><rect fill="#F1F1F1" height="100.8281" rx="2.5" ry="2.5" style="stroke:#181818;stroke-width:0.5;" width="233.5801" x="890" y="342"/><ellipse cx="953.5161" cy="358" fill="#ADD1B2" rx="11" ry="11" style="stroke:#181818;stroke-width:1;"/><path d="M956.2817,353.875 Q956.438,353.6563 956.6255,353.5469 Q956.813,353.4375 957.0317,353.4375 Q957.4067,353.4375 957.6411,353.7031 Q957.8755,353.9531 957.8755,354.5625 L957.8755,356.0156 Q957.8755,356.625 957.6411,356.8906 Q957.4067,357.1563 957.0317,357.1563 Q956.688,357.1563 956.4849,356.9531 Q956.2817,356.7656 956.1724,356.25 Q956.1255,355.8906 955.938,355.7031 Q955.6099,355.3281 955.0005,355.1094 Q954.3911,354.8906 953.7661,354.8906 Q953.0005,354.8906 952.3599,355.2188 Q951.7349,355.5469 951.2349,356.2969 Q950.7505,357.0469 950.7505,358.0781 L950.7505,359.1719 Q950.7505,360.4063 951.6411,361.2344 Q952.5317,362.0469 954.1255,362.0469 Q955.063,362.0469 955.7192,361.7969 Q956.1099,361.6406 956.5317,361.2031 Q956.7974,360.9375 956.938,360.8594 Q957.0942,360.7813 957.2974,360.7813 Q957.6255,360.7813 957.8755,361.0469 Q958.1411,361.2969 958.1411,361.6406 Q958.1411,361.9844 957.7974,362.3906 Q957.2974,362.9688 956.5005,363.2969 Q955.4224,363.75 954.1255,363.75 Q952.6099,363.75 951.4067,363.125 Q950.4224,362.625 949.7349,361.5625 Q949.0474,360.4844 949.0474,359.2031 L949.0474,358.0469 Q949.0474,356.7188 949.6567,355.5781 Q950.2817,354.4219 951.3755,353.8125 Q952.4692,353.1875 953.7036,353.1875 Q954.438,353.1875 955.0786,353.3594 Q955.7349,353.5156 956.2817,353.875 Z " fill="#000000"/><text fill="#000000" font-family="sans-serif" font-size="14" lengthAdjust="spacing" textLength="98.0479" x="974.0161" y="363.7285">PlugIt Service 2</text><line style="stroke:#181818;stroke-width:0.5;" x1="891" x2="1122.5801" y1="374" y2="374"/><text fill="#000000" font-family="sans-serif" font-size="14" lengthAdjust="spacing" textLength="221.5801" x="896" y="392.5332">class "Service API Client" as client2</text><text fill="#000000" font-family="sans-serif" font-size="14" lengthAdjust="spacing" textLength="204.4766" x="896" y="410.1426">class "Service Config" as config2</text><text fill="#000000" font-family="sans-serif" font-size="14" lengthAdjust="spacing" textLength="209.1455" x="896" y="427.752">class "Service Data Store" as db2</text><line style="stroke:#181818;stroke-width:0.5;" x1="891" x2="1122.5801" y1="434.8281" y2="434.8281"/></g><!--class servicen--><g class="entity" data-qualified-name="servicen" data-source-line="23" id="ent0005"><rect fill="#F1F1F1" height="100.8281" rx="2.5" ry="2.5" style="stroke:#181818;stroke-width:0.5;" width="233.5801" x="576" y="342"/><ellipse cx="638.354" cy="358" fill="#ADD1B2" rx="11" ry="11" style="stroke:#181818;stroke-width:1;"/><path d="M641.1196,353.875 Q641.2759,353.6563 641.4634,353.5469 Q641.6509,353.4375 641.8696,353.4375 Q642.2446,353.4375 642.479,353.7031 Q642.7134,353.9531 642.7134,354.5625 L642.7134,356.0156 Q642.7134,356.625 642.479,356.8906 Q642.2446,357.1563 641.8696,357.1563 Q641.5259,357.1563 641.3228,356.9531 Q641.1196,356.7656 641.0103,356.25 Q640.9634,355.8906 640.7759,355.7031 Q640.4478,355.3281 639.8384,355.1094 Q639.229,354.8906 638.604,354.8906 Q637.8384,354.8906 637.1978,355.2188 Q636.5728,355.5469 636.0728,356.2969 Q635.5884,357.0469 635.5884,358.0781 L635.5884,359.1719 Q635.5884,360.4063 636.479,361.2344 Q637.3696,362.0469 638.9634,362.0469 Q639.9009,362.0469 640.5571,361.7969 Q640.9478,361.6406 641.3696,361.2031 Q641.6353,360.9375 641.7759,360.8594 Q641.9321,360.7813 642.1353,360.7813 Q642.4634,360.7813 642.7134,361.0469 Q642.979,361.2969 642.979,361.6406 Q642.979,361.9844 642.6353,362.3906 Q642.1353,362.9688 641.3384,363.2969 Q640.2603,363.75 638.9634,363.75 Q637.4478,363.75 636.2446,363.125 Q635.2603,362.625 634.5728,361.5625 Q633.8853,360.4844 633.8853,359.2031 L633.8853,358.0469 Q633.8853,356.7188 634.4946,355.5781 Q635.1196,354.4219 636.2134,353.8125 Q637.3071,353.1875 638.5415,353.1875 Q639.2759,353.1875 639.9165,353.3594 Q640.5728,353.5156 641.1196,353.875 Z " fill="#000000"/><text fill="#000000" font-family="sans-serif" font-size="14" lengthAdjust="spacing" textLength="100.3721" x="658.854" y="363.7285">PlugIt Service N</text><line style="stroke:#181818;stroke-width:0.5;" x1="577" x2="808.5801" y1="374" y2="374"/><text fill="#000000" font-family="sans-serif" font-size="14" lengthAdjust="spacing" textLength="221.5801" x="582" y="392.5332">class "Service API Client" as clientn</text><text fill="#000000" font-family="sans-serif" font-size="14" lengthAdjust="spacing" textLength="204.4766" x="582" y="410.1426">class "Service Config" as confign</text><text fill="#000000" font-family="sans-serif" font-size="14" lengthAdjust="spacing" textLength="209.1455" x="582" y="427.752">class "Service Data Store" as dbn</text><line style="stroke:#181818;stroke-width:0.5;" x1="577" x2="808.5801" y1="434.8281" y2="434.8281"/></g><!--class config_files--><g class="entity" data-qualified-name="config_files" data-source-line="29" id="ent0006"><rect fill="#F1F1F1" height="61.2188" rx="2.5" ry="2.5" style="stroke:#181818;stroke-width:0.5;" width="148.7236" x="714.5" y="613"/><ellipse cx="729.5" cy="635.6094" fill="#ADD1B2" rx="11" ry="11" style="stroke:#181818;stroke-width:1;"/><path d="M732.2656,631.4844 Q732.4219,631.2656 732.6094,631.1563 Q732.7969,631.0469 733.0156,631.0469 Q733.3906,631.0469 733.625,631.3125 Q733.8594,631.5625 733.8594,632.1719 L733.8594,633.625 Q733.8594,634.2344 733.625,634.5 Q733.3906,634.7656 733.0156,634.7656 Q732.6719,634.7656 732.4688,634.5625 Q732.2656,634.375 732.1563,633.8594 Q732.1094,633.5 731.9219,633.3125 Q731.5938,632.9375 730.9844,632.7188 Q730.375,632.5 729.75,632.5 Q728.9844,632.5 728.3438,632.8281 Q727.7188,633.1563 727.2188,633.9063 Q726.7344,634.6563 726.7344,635.6875 L726.7344,636.7813 Q726.7344,638.0156 727.625,638.8438 Q728.5156,639.6563 730.1094,639.6563 Q731.0469,639.6563 731.7031,639.4063 Q732.0938,639.25 732.5156,638.8125 Q732.7813,638.5469 732.9219,638.4688 Q733.0781,638.3906 733.2813,638.3906 Q733.6094,638.3906 733.8594,638.6563 Q734.125,638.9063 734.125,639.25 Q734.125,639.5938 733.7813,640 Q733.2813,640.5781 732.4844,640.9063 Q731.4063,641.3594 730.1094,641.3594 Q728.5938,641.3594 727.3906,640.7344 Q726.4063,640.2344 725.7188,639.1719 Q725.0313,638.0938 725.0313,636.8125 L725.0313,635.6563 Q725.0313,634.3281 725.6406,633.1875 Q726.2656,632.0313 727.3594,631.4219 Q728.4531,630.7969 729.6875,630.7969 Q730.4219,630.7969 731.0625,630.9688 Q731.7188,631.125 732.2656,631.4844 Z " fill="#000000"/><text fill="#000000" font-family="sans-serif" font-size="14" lengthAdjust="spacing" textLength="116.7236" x="743.5" y="632.5332">Configuration Files</text><text fill="#000000" font-family="sans-serif" font-size="14" lengthAdjust="spacing" textLength="103.4824" x="750.1206" y="650.1426">(Project &amp; Local)</text><line style="stroke:#181818;stroke-width:0.5;" x1="715.5" x2="862.2236" y1="658.2188" y2="658.2188"/><line style="stroke:#181818;stroke-width:0.5;" x1="715.5" x2="862.2236" y1="666.2188" y2="666.2188"/></g><!--class database_tech--><g class="entity" data-qualified-name="database_tech" data-source-line="30" id="ent0007"><rect fill="#F1F1F1" height="61.2188" rx="2.5" ry="2.5" style="stroke:#181818;stroke-width:0.5;" width="168.9238" x="324.5" y="613"/><ellipse cx="339.5" cy="635.6094" fill="#ADD1B2" rx="11" ry="11" style="stroke:#181818;stroke-width:1;"/><path d="M342.2656,631.4844 Q342.4219,631.2656 342.6094,631.1563 Q342.7969,631.0469 343.0156,631.0469 Q343.3906,631.0469 343.625,631.3125 Q343.8594,631.5625 343.8594,632.1719 L343.8594,633.625 Q343.8594,634.2344 343.625,634.5 Q343.3906,634.7656 343.0156,634.7656 Q342.6719,634.7656 342.4688,634.5625 Q342.2656,634.375 342.1563,633.8594 Q342.1094,633.5 341.9219,633.3125 Q341.5938,632.9375 340.9844,632.7188 Q340.375,632.5 339.75,632.5 Q338.9844,632.5 338.3438,632.8281 Q337.7188,633.1563 337.2188,633.9063 Q336.7344,634.6563 336.7344,635.6875 L336.7344,636.7813 Q336.7344,638.0156 337.625,638.8438 Q338.5156,639.6563 340.1094,639.6563 Q341.0469,639.6563 341.7031,639.4063 Q342.0938,639.25 342.5156,638.8125 Q342.7813,638.5469 342.9219,638.4688 Q343.0781,638.3906 343.2813,638.3906 Q343.6094,638.3906 343.8594,638.6563 Q344.125,638.9063 344.125,639.25 Q344.125,639.5938 343.7813,640 Q343.2813,640.5781 342.4844,640.9063 Q341.4063,641.3594 340.1094,641.3594 Q338.5938,641.3594 337.3906,640.7344 Q336.4063,640.2344 335.7188,639.1719 Q335.0313,638.0938 335.0313,636.8125 L335.0313,635.6563 Q335.0313,634.3281 335.6406,633.1875 Q336.2656,632.0313 337.3594,631.4219 Q338.4531,630.7969 339.6875,630.7969 Q340.4219,630.7969 341.0625,630.9688 Q341.7188,631.125 342.2656,631.4844 Z " fill="#000000"/><text fill="#000000" font-family="sans-serif" font-size="14" lengthAdjust="spacing" textLength="136.1992" x="353.8623" y="632.5332">Database Technology</text><text fill="#000000" font-family="sans-serif" font-size="14" lengthAdjust="spacing" textLength="136.9238" x="353.5" y="650.1426">(MySQL, SQLite, etc.)</text><line style="stroke:#181818;stroke-width:0.5;" x1="325.5" x2="492.4238" y1="658.2188" y2="658.2188"/><line style="stroke:#181818;stroke-width:0.5;" x1="325.5" x2="492.4238" y1="666.2188" y2="666.2188"/></g><!--class email_source--><g class="entity" data-qualified-name="email_source" data-source-line="31" id="ent0008"><rect fill="#F1F1F1" height="61.2188" rx="2.5" ry="2.5" style="stroke:#181818;stroke-width:0.5;" width="121.5029" x="830" y="203"/><ellipse cx="845" cy="225.6094" fill="#ADD1B2" rx="11" ry="11" style="stroke:#181818;stroke-width:1;"/><path d="M847.7656,221.4844 Q847.9219,221.2656 848.1094,221.1563 Q848.2969,221.0469 848.5156,221.0469 Q848.8906,221.0469 849.125,221.3125 Q849.3594,221.5625 849.3594,222.1719 L849.3594,223.625 Q849.3594,224.2344 849.125,224.5 Q848.8906,224.7656 848.5156,224.7656 Q848.1719,224.7656 847.9688,224.5625 Q847.7656,224.375 847.6563,223.8594 Q847.6094,223.5 847.4219,223.3125 Q847.0938,222.9375 846.4844,222.7188 Q845.875,222.5 845.25,222.5 Q844.4844,222.5 843.8438,222.8281 Q843.2188,223.1563 842.7188,223.9063 Q842.2344,224.6563 842.2344,225.6875 L842.2344,226.7813 Q842.2344,228.0156 843.125,228.8438 Q844.0156,229.6563 845.6094,229.6563 Q846.5469,229.6563 847.2031,229.4063 Q847.5938,229.25 848.0156,228.8125 Q848.2813,228.5469 848.4219,228.4688 Q848.5781,228.3906 848.7813,228.3906 Q849.1094,228.3906 849.3594,228.6563 Q849.625,228.9063 849.625,229.25 Q849.625,229.5938 849.2813,230 Q848.7813,230.5781 847.9844,230.9063 Q846.9063,231.3594 845.6094,231.3594 Q844.0938,231.3594 842.8906,230.7344 Q841.9063,230.2344 841.2188,229.1719 Q840.5313,228.0938 840.5313,226.8125 L840.5313,225.6563 Q840.5313,224.3281 841.1406,223.1875 Q841.7656,222.0313 842.8594,221.4219 Q843.9531,220.7969 845.1875,220.7969 Q845.9219,220.7969 846.5625,220.9688 Q847.2188,221.125 847.7656,221.4844 Z " fill="#000000"/><text fill="#000000" font-family="sans-serif" font-size="14" lengthAdjust="spacing" textLength="89.5029" x="859" y="222.5332">Inbound Email</text><text fill="#000000" font-family="sans-serif" font-size="14" lengthAdjust="spacing" textLength="63.8066" x="871.8481" y="240.1426">Messages</text><line style="stroke:#181818;stroke-width:0.5;" x1="831" x2="950.5029" y1="248.2188" y2="248.2188"/><line style="stroke:#181818;stroke-width:0.5;" x1="831" x2="950.5029" y1="256.2188" y2="256.2188"/></g><!--class proxy_api--><g class="entity" data-qualified-name="proxy_api" data-source-line="34" id="ent0009"><rect fill="#F1F1F1" height="48" rx="2.5" ry="2.5" style="stroke:#181818;stroke-width:0.5;" width="92.7031" x="646.5" y="209.5"/><ellipse cx="661.5" cy="225.5" fill="#ADD1B2" rx="11" ry="11" style="stroke:#181818;stroke-width:1;"/><path d="M664.2656,221.375 Q664.4219,221.1563 664.6094,221.0469 Q664.7969,220.9375 665.0156,220.9375 Q665.3906,220.9375 665.625,221.2031 Q665.8594,221.4531 665.8594,222.0625 L665.8594,223.5156 Q665.8594,224.125 665.625,224.3906 Q665.3906,224.6563 665.0156,224.6563 Q664.6719,224.6563 664.4688,224.4531 Q664.2656,224.2656 664.1563,223.75 Q664.1094,223.3906 663.9219,223.2031 Q663.5938,222.8281 662.9844,222.6094 Q662.375,222.3906 661.75,222.3906 Q660.9844,222.3906 660.3438,222.7188 Q659.7188,223.0469 659.2188,223.7969 Q658.7344,224.5469 658.7344,225.5781 L658.7344,226.6719 Q658.7344,227.9063 659.625,228.7344 Q660.5156,229.5469 662.1094,229.5469 Q663.0469,229.5469 663.7031,229.2969 Q664.0938,229.1406 664.5156,228.7031 Q664.7813,228.4375 664.9219,228.3594 Q665.0781,228.2813 665.2813,228.2813 Q665.6094,228.2813 665.8594,228.5469 Q666.125,228.7969 666.125,229.1406 Q666.125,229.4844 665.7813,229.8906 Q665.2813,230.4688 664.4844,230.7969 Q663.4063,231.25 662.1094,231.25 Q660.5938,231.25 659.3906,230.625 Q658.4063,230.125 657.7188,229.0625 Q657.0313,227.9844 657.0313,226.7031 L657.0313,225.5469 Q657.0313,224.2188 657.6406,223.0781 Q658.2656,221.9219 659.3594,221.3125 Q660.4531,220.6875 661.6875,220.6875 Q662.4219,220.6875 663.0625,220.8594 Q663.7188,221.0156 664.2656,221.375 Z " fill="#000000"/><text fill="#000000" font-family="sans-serif" font-size="14" lengthAdjust="spacing" textLength="60.7031" x="675.5" y="231.2285">proxy_api</text><line style="stroke:#181818;stroke-width:0.5;" x1="647.5" x2="738.2031" y1="241.5" y2="241.5"/><line style="stroke:#181818;stroke-width:0.5;" x1="647.5" x2="738.2031" y1="249.5" y2="249.5"/></g><!--class client1--><g class="entity" data-qualified-name="client1" data-source-line="39" id="ent0014"><rect fill="#F1F1F1" height="48" rx="2.5" ry="2.5" style="stroke:#181818;stroke-width:0.5;" width="72.4688" x="72" y="504"/><ellipse cx="87" cy="520" fill="#ADD1B2" rx="11" ry="11" style="stroke:#181818;stroke-width:1;"/><path d="M89.7656,515.875 Q89.9219,515.6563 90.1094,515.5469 Q90.2969,515.4375 90.5156,515.4375 Q90.8906,515.4375 91.125,515.7031 Q91.3594,515.9531 91.3594,516.5625 L91.3594,518.0156 Q91.3594,518.625 91.125,518.8906 Q90.8906,519.1563 90.5156,519.1563 Q90.1719,519.1563 89.9688,518.9531 Q89.7656,518.7656 89.6563,518.25 Q89.6094,517.8906 89.4219,517.7031 Q89.0938,517.3281 88.4844,517.1094 Q87.875,516.8906 87.25,516.8906 Q86.4844,516.8906 85.8438,517.2188 Q85.2188,517.5469 84.7188,518.2969 Q84.2344,519.0469 84.2344,520.0781 L84.2344,521.1719 Q84.2344,522.4063 85.125,523.2344 Q86.0156,524.0469 87.6094,524.0469 Q88.5469,524.0469 89.2031,523.7969 Q89.5938,523.6406 90.0156,523.2031 Q90.2813,522.9375 90.4219,522.8594 Q90.5781,522.7813 90.7813,522.7813 Q91.1094,522.7813 91.3594,523.0469 Q91.625,523.2969 91.625,523.6406 Q91.625,523.9844 91.2813,524.3906 Q90.7813,524.9688 89.9844,525.2969 Q88.9063,525.75 87.6094,525.75 Q86.0938,525.75 84.8906,525.125 Q83.9063,524.625 83.2188,523.5625 Q82.5313,522.4844 82.5313,521.2031 L82.5313,520.0469 Q82.5313,518.7188 83.1406,517.5781 Q83.7656,516.4219 84.8594,515.8125 Q85.9531,515.1875 87.1875,515.1875 Q87.9219,515.1875 88.5625,515.3594 Q89.2188,515.5156 89.7656,515.875 Z " fill="#000000"/><text fill="#000000" font-family="sans-serif" font-size="14" lengthAdjust="spacing" textLength="40.4688" x="101" y="525.7285">client1</text><line style="stroke:#181818;stroke-width:0.5;" x1="73" x2="143.4688" y1="536" y2="536"/><line style="stroke:#181818;stroke-width:0.5;" x1="73" x2="143.4688" y1="544" y2="544"/></g><!--class config1--><g class="entity" data-qualified-name="config1" data-source-line="40" id="ent0016"><rect fill="#F1F1F1" height="48" rx="2.5" ry="2.5" style="stroke:#181818;stroke-width:0.5;" width="77.1445" x="269.5" y="504"/><ellipse cx="284.5" cy="520" fill="#ADD1B2" rx="11" ry="11" style="stroke:#181818;stroke-width:1;"/><path d="M287.2656,515.875 Q287.4219,515.6563 287.6094,515.5469 Q287.7969,515.4375 288.0156,515.4375 Q288.3906,515.4375 288.625,515.7031 Q288.8594,515.9531 288.8594,516.5625 L288.8594,518.0156 Q288.8594,518.625 288.625,518.8906 Q288.3906,519.1563 288.0156,519.1563 Q287.6719,519.1563 287.4688,518.9531 Q287.2656,518.7656 287.1563,518.25 Q287.1094,517.8906 286.9219,517.7031 Q286.5938,517.3281 285.9844,517.1094 Q285.375,516.8906 284.75,516.8906 Q283.9844,516.8906 283.3438,517.2188 Q282.7188,517.5469 282.2188,518.2969 Q281.7344,519.0469 281.7344,520.0781 L281.7344,521.1719 Q281.7344,522.4063 282.625,523.2344 Q283.5156,524.0469 285.1094,524.0469 Q286.0469,524.0469 286.7031,523.7969 Q287.0938,523.6406 287.5156,523.2031 Q287.7813,522.9375 287.9219,522.8594 Q288.0781,522.7813 288.2813,522.7813 Q288.6094,522.7813 288.8594,523.0469 Q289.125,523.2969 289.125,523.6406 Q289.125,523.9844 288.7813,524.3906 Q288.2813,524.9688 287.4844,525.2969 Q286.4063,525.75 285.1094,525.75 Q283.5938,525.75 282.3906,525.125 Q281.4063,524.625 280.7188,523.5625 Q280.0313,522.4844 280.0313,521.2031 L280.0313,520.0469 Q280.0313,518.7188 280.6406,517.5781 Q281.2656,516.4219 282.3594,515.8125 Q283.4531,515.1875 284.6875,515.1875 Q285.4219,515.1875 286.0625,515.3594 Q286.7188,515.5156 287.2656,515.875 Z " fill="#000000"/><text fill="#000000" font-family="sans-serif" font-size="14" lengthAdjust="spacing" textLength="45.1445" x="298.5" y="525.7285">config1</text><line style="stroke:#181818;stroke-width:0.5;" x1="270.5" x2="345.6445" y1="536" y2="536"/><line style="stroke:#181818;stroke-width:0.5;" x1="270.5" x2="345.6445" y1="544" y2="544"/></g><!--class db1--><g class="entity" data-qualified-name="db1" data-source-line="41" id="ent0018"><rect fill="#F1F1F1" height="48" rx="2.5" ry="2.5" style="stroke:#181818;stroke-width:0.5;" width="55.3584" x="179.5" y="504"/><ellipse cx="194.5" cy="520" fill="#ADD1B2" rx="11" ry="11" style="stroke:#181818;stroke-width:1;"/><path d="M197.2656,515.875 Q197.4219,515.6563 197.6094,515.5469 Q197.7969,515.4375 198.0156,515.4375 Q198.3906,515.4375 198.625,515.7031 Q198.8594,515.9531 198.8594,516.5625 L198.8594,518.0156 Q198.8594,518.625 198.625,518.8906 Q198.3906,519.1563 198.0156,519.1563 Q197.6719,519.1563 197.4688,518.9531 Q197.2656,518.7656 197.1563,518.25 Q197.1094,517.8906 196.9219,517.7031 Q196.5938,517.3281 195.9844,517.1094 Q195.375,516.8906 194.75,516.8906 Q193.9844,516.8906 193.3438,517.2188 Q192.7188,517.5469 192.2188,518.2969 Q191.7344,519.0469 191.7344,520.0781 L191.7344,521.1719 Q191.7344,522.4063 192.625,523.2344 Q193.5156,524.0469 195.1094,524.0469 Q196.0469,524.0469 196.7031,523.7969 Q197.0938,523.6406 197.5156,523.2031 Q197.7813,522.9375 197.9219,522.8594 Q198.0781,522.7813 198.2813,522.7813 Q198.6094,522.7813 198.8594,523.0469 Q199.125,523.2969 199.125,523.6406 Q199.125,523.9844 198.7813,524.3906 Q198.2813,524.9688 197.4844,525.2969 Q196.4063,525.75 195.1094,525.75 Q193.5938,525.75 192.3906,525.125 Q191.4063,524.625 190.7188,523.5625 Q190.0313,522.4844 190.0313,521.2031 L190.0313,520.0469 Q190.0313,518.7188 190.6406,517.5781 Q191.2656,516.4219 192.3594,515.8125 Q193.4531,515.1875 194.6875,515.1875 Q195.4219,515.1875 196.0625,515.3594 Q196.7188,515.5156 197.2656,515.875 Z " fill="#000000"/><text fill="#000000" font-family="sans-serif" font-size="14" lengthAdjust="spacing" textLength="23.3584" x="208.5" y="525.7285">db1</text><line style="stroke:#181818;stroke-width:0.5;" x1="180.5" x2="233.8584" y1="536" y2="536"/><line style="stroke:#181818;stroke-width:0.5;" x1="180.5" x2="233.8584" y1="544" y2="544"/></g><!--class client2--><g class="entity" data-qualified-name="client2" data-source-line="43" id="ent0020"><rect fill="#F1F1F1" height="48" rx="2.5" ry="2.5" style="stroke:#181818;stroke-width:0.5;" width="72.4688" x="1016" y="504"/><ellipse cx="1031" cy="520" fill="#ADD1B2" rx="11" ry="11" style="stroke:#181818;stroke-width:1;"/><path d="M1033.7656,515.875 Q1033.9219,515.6563 1034.1094,515.5469 Q1034.2969,515.4375 1034.5156,515.4375 Q1034.8906,515.4375 1035.125,515.7031 Q1035.3594,515.9531 1035.3594,516.5625 L1035.3594,518.0156 Q1035.3594,518.625 1035.125,518.8906 Q1034.8906,519.1563 1034.5156,519.1563 Q1034.1719,519.1563 1033.9688,518.9531 Q1033.7656,518.7656 1033.6563,518.25 Q1033.6094,517.8906 1033.4219,517.7031 Q1033.0938,517.3281 1032.4844,517.1094 Q1031.875,516.8906 1031.25,516.8906 Q1030.4844,516.8906 1029.8438,517.2188 Q1029.2188,517.5469 1028.7188,518.2969 Q1028.2344,519.0469 1028.2344,520.0781 L1028.2344,521.1719 Q1028.2344,522.4063 1029.125,523.2344 Q1030.0156,524.0469 1031.6094,524.0469 Q1032.5469,524.0469 1033.2031,523.7969 Q1033.5938,523.6406 1034.0156,523.2031 Q1034.2813,522.9375 1034.4219,522.8594 Q1034.5781,522.7813 1034.7813,522.7813 Q1035.1094,522.7813 1035.3594,523.0469 Q1035.625,523.2969 1035.625,523.6406 Q1035.625,523.9844 1035.2813,524.3906 Q1034.7813,524.9688 1033.9844,525.2969 Q1032.9063,525.75 1031.6094,525.75 Q1030.0938,525.75 1028.8906,525.125 Q1027.9063,524.625 1027.2188,523.5625 Q1026.5313,522.4844 1026.5313,521.2031 L1026.5313,520.0469 Q1026.5313,518.7188 1027.1406,517.5781 Q1027.7656,516.4219 1028.8594,515.8125 Q1029.9531,515.1875 1031.1875,515.1875 Q1031.9219,515.1875 1032.5625,515.3594 Q1033.2188,515.5156 1033.7656,515.875 Z " fill="#000000"/><text fill="#000000" font-family="sans-serif" font-size="14" lengthAdjust="spacing" textLength="40.4688" x="1045" y="525.7285">client2</text><line style="stroke:#181818;stroke-width:0.5;" x1="1017" x2="1087.4688" y1="536" y2="536"/><line style="stroke:#181818;stroke-width:0.5;" x1="1017" x2="1087.4688" y1="544" y2="544"/></g><!--class config2--><g class="entity" data-qualified-name="config2" data-source-line="44" id="ent0022"><rect fill="#F1F1F1" height="48" rx="2.5" ry="2.5" style="stroke:#181818;stroke-width:0.5;" width="77.1445" x="1123.5" y="504"/><ellipse cx="1138.5" cy="520" fill="#ADD1B2" rx="11" ry="11" style="stroke:#181818;stroke-width:1;"/><path d="M1141.2656,515.875 Q1141.4219,515.6563 1141.6094,515.5469 Q1141.7969,515.4375 1142.0156,515.4375 Q1142.3906,515.4375 1142.625,515.7031 Q1142.8594,515.9531 1142.8594,516.5625 L1142.8594,518.0156 Q1142.8594,518.625 1142.625,518.8906 Q1142.3906,519.1563 1142.0156,519.1563 Q1141.6719,519.1563 1141.4688,518.9531 Q1141.2656,518.7656 1141.1563,518.25 Q1141.1094,517.8906 1140.9219,517.7031 Q1140.5938,517.3281 1139.9844,517.1094 Q1139.375,516.8906 1138.75,516.8906 Q1137.9844,516.8906 1137.3438,517.2188 Q1136.7188,517.5469 1136.2188,518.2969 Q1135.7344,519.0469 1135.7344,520.0781 L1135.7344,521.1719 Q1135.7344,522.4063 1136.625,523.2344 Q1137.5156,524.0469 1139.1094,524.0469 Q1140.0469,524.0469 1140.7031,523.7969 Q1141.0938,523.6406 1141.5156,523.2031 Q1141.7813,522.9375 1141.9219,522.8594 Q1142.0781,522.7813 1142.2813,522.7813 Q1142.6094,522.7813 1142.8594,523.0469 Q1143.125,523.2969 1143.125,523.6406 Q1143.125,523.9844 1142.7813,524.3906 Q1142.2813,524.9688 1141.4844,525.2969 Q1140.4063,525.75 1139.1094,525.75 Q1137.5938,525.75 1136.3906,525.125 Q1135.4063,524.625 1134.7188,523.5625 Q1134.0313,522.4844 1134.0313,521.2031 L1134.0313,520.0469 Q1134.0313,518.7188 1134.6406,517.5781 Q1135.2656,516.4219 1136.3594,515.8125 Q1137.4531,515.1875 1138.6875,515.1875 Q1139.4219,515.1875 1140.0625,515.3594 Q1140.7188,515.5156 1141.2656,515.875 Z " fill="#000000"/><text fill="#000000" font-family="sans-serif" font-size="14" lengthAdjust="spacing" textLength="45.1445" x="1152.5" y="525.7285">config2</text><line style="stroke:#181818;stroke-width:0.5;" x1="1124.5" x2="1199.6445" y1="536" y2="536"/><line style="stroke:#181818;stroke-width:0.5;" x1="1124.5" x2="1199.6445" y1="544" y2="544"/></g><!--class db2--><g class="entity" data-qualified-name="db2" data-source-line="45" id="ent0024"><rect fill="#F1F1F1" height="48" rx="2.5" ry="2.5" style="stroke:#181818;stroke-width:0.5;" width="55.3584" x="579.5" y="504"/><ellipse cx="594.5" cy="520" fill="#ADD1B2" rx="11" ry="11" style="stroke:#181818;stroke-width:1;"/><path d="M597.2656,515.875 Q597.4219,515.6563 597.6094,515.5469 Q597.7969,515.4375 598.0156,515.4375 Q598.3906,515.4375 598.625,515.7031 Q598.8594,515.9531 598.8594,516.5625 L598.8594,518.0156 Q598.8594,518.625 598.625,518.8906 Q598.3906,519.1563 598.0156,519.1563 Q597.6719,519.1563 597.4688,518.9531 Q597.2656,518.7656 597.1563,518.25 Q597.1094,517.8906 596.9219,517.7031 Q596.5938,517.3281 595.9844,517.1094 Q595.375,516.8906 594.75,516.8906 Q593.9844,516.8906 593.3438,517.2188 Q592.7188,517.5469 592.2188,518.2969 Q591.7344,519.0469 591.7344,520.0781 L591.7344,521.1719 Q591.7344,522.4063 592.625,523.2344 Q593.5156,524.0469 595.1094,524.0469 Q596.0469,524.0469 596.7031,523.7969 Q597.0938,523.6406 597.5156,523.2031 Q597.7813,522.9375 597.9219,522.8594 Q598.0781,522.7813 598.2813,522.7813 Q598.6094,522.7813 598.8594,523.0469 Q599.125,523.2969 599.125,523.6406 Q599.125,523.9844 598.7813,524.3906 Q598.2813,524.9688 597.4844,525.2969 Q596.4063,525.75 595.1094,525.75 Q593.5938,525.75 592.3906,525.125 Q591.4063,524.625 590.7188,523.5625 Q590.0313,522.4844 590.0313,521.2031 L590.0313,520.0469 Q590.0313,518.7188 590.6406,517.5781 Q591.2656,516.4219 592.3594,515.8125 Q593.4531,515.1875 594.6875,515.1875 Q595.4219,515.1875 596.0625,515.3594 Q596.7188,515.5156 597.2656,515.875 Z " fill="#000000"/><text fill="#000000" font-family="sans-serif" font-size="14" lengthAdjust="spacing" textLength="23.3584" x="608.5" y="525.7285">db2</text><line style="stroke:#181818;stroke-width:0.5;" x1="580.5" x2="633.8584" y1="536" y2="536"/><line style="stroke:#181818;stroke-width:0.5;" x1="580.5" x2="633.8584" y1="544" y2="544"/></g><!--class clientn--><g class="entity" data-qualified-name="clientn" data-source-line="47" id="ent0026"><rect fill="#F1F1F1" height="48" rx="2.5" ry="2.5" style="stroke:#181818;stroke-width:0.5;" width="72.4688" x="472" y="504"/><ellipse cx="487" cy="520" fill="#ADD1B2" rx="11" ry="11" style="stroke:#181818;stroke-width:1;"/><path d="M489.7656,515.875 Q489.9219,515.6563 490.1094,515.5469 Q490.2969,515.4375 490.5156,515.4375 Q490.8906,515.4375 491.125,515.7031 Q491.3594,515.9531 491.3594,516.5625 L491.3594,518.0156 Q491.3594,518.625 491.125,518.8906 Q490.8906,519.1563 490.5156,519.1563 Q490.1719,519.1563 489.9688,518.9531 Q489.7656,518.7656 489.6563,518.25 Q489.6094,517.8906 489.4219,517.7031 Q489.0938,517.3281 488.4844,517.1094 Q487.875,516.8906 487.25,516.8906 Q486.4844,516.8906 485.8438,517.2188 Q485.2188,517.5469 484.7188,518.2969 Q484.2344,519.0469 484.2344,520.0781 L484.2344,521.1719 Q484.2344,522.4063 485.125,523.2344 Q486.0156,524.0469 487.6094,524.0469 Q488.5469,524.0469 489.2031,523.7969 Q489.5938,523.6406 490.0156,523.2031 Q490.2813,522.9375 490.4219,522.8594 Q490.5781,522.7813 490.7813,522.7813 Q491.1094,522.7813 491.3594,523.0469 Q491.625,523.2969 491.625,523.6406 Q491.625,523.9844 491.2813,524.3906 Q490.7813,524.9688 489.9844,525.2969 Q488.9063,525.75 487.6094,525.75 Q486.0938,525.75 484.8906,525.125 Q483.9063,524.625 483.2188,523.5625 Q482.5313,522.4844 482.5313,521.2031 L482.5313,520.0469 Q482.5313,518.7188 483.1406,517.5781 Q483.7656,516.4219 484.8594,515.8125 Q485.9531,515.1875 487.1875,515.1875 Q487.9219,515.1875 488.5625,515.3594 Q489.2188,515.5156 489.7656,515.875 Z " fill="#000000"/><text fill="#000000" font-family="sans-serif" font-size="14" lengthAdjust="spacing" textLength="40.4688" x="501" y="525.7285">clientn</text><line style="stroke:#181818;stroke-width:0.5;" x1="473" x2="543.4688" y1="536" y2="536"/><line style="stroke:#181818;stroke-width:0.5;" x1="473" x2="543.4688" y1="544" y2="544"/></g><!--class confign--><g class="entity" data-qualified-name="confign" data-source-line="48" id="ent0028"><rect fill="#F1F1F1" height="48" rx="2.5" ry="2.5" style="stroke:#181818;stroke-width:0.5;" width="77.1445" x="903.5" y="504"/><ellipse cx="918.5" cy="520" fill="#ADD1B2" rx="11" ry="11" style="stroke:#181818;stroke-width:1;"/><path d="M921.2656,515.875 Q921.4219,515.6563 921.6094,515.5469 Q921.7969,515.4375 922.0156,515.4375 Q922.3906,515.4375 922.625,515.7031 Q922.8594,515.9531 922.8594,516.5625 L922.8594,518.0156 Q922.8594,518.625 922.625,518.8906 Q922.3906,519.1563 922.0156,519.1563 Q921.6719,519.1563 921.4688,518.9531 Q921.2656,518.7656 921.1563,518.25 Q921.1094,517.8906 920.9219,517.7031 Q920.5938,517.3281 919.9844,517.1094 Q919.375,516.8906 918.75,516.8906 Q917.9844,516.8906 917.3438,517.2188 Q916.7188,517.5469 916.2188,518.2969 Q915.7344,519.0469 915.7344,520.0781 L915.7344,521.1719 Q915.7344,522.4063 916.625,523.2344 Q917.5156,524.0469 919.1094,524.0469 Q920.0469,524.0469 920.7031,523.7969 Q921.0938,523.6406 921.5156,523.2031 Q921.7813,522.9375 921.9219,522.8594 Q922.0781,522.7813 922.2813,522.7813 Q922.6094,522.7813 922.8594,523.0469 Q923.125,523.2969 923.125,523.6406 Q923.125,523.9844 922.7813,524.3906 Q922.2813,524.9688 921.4844,525.2969 Q920.4063,525.75 919.1094,525.75 Q917.5938,525.75 916.3906,525.125 Q915.4063,524.625 914.7188,523.5625 Q914.0313,522.4844 914.0313,521.2031 L914.0313,520.0469 Q914.0313,518.7188 914.6406,517.5781 Q915.2656,516.4219 916.3594,515.8125 Q917.4531,515.1875 918.6875,515.1875 Q919.4219,515.1875 920.0625,515.3594 Q920.7188,515.5156 921.2656,515.875 Z " fill="#000000"/><text fill="#000000" font-family="sans-serif" font-size="14" lengthAdjust="spacing" textLength="45.1445" x="932.5" y="525.7285">confign</text><line style="stroke:#181818;stroke-width:0.5;" x1="904.5" x2="979.6445" y1="536" y2="536"/><line style="stroke:#181818;stroke-width:0.5;" x1="904.5" x2="979.6445" y1="544" y2="544"/></g><!--class dbn--><g class="entity" data-qualified-name="dbn" data-source-line="49" id="ent0030"><rect fill="#F1F1F1" height="48" rx="2.5" ry="2.5" style="stroke:#181818;stroke-width:0.5;" width="55.3584" x="381.5" y="504"/><ellipse cx="396.5" cy="520" fill="#ADD1B2" rx="11" ry="11" style="stroke:#181818;stroke-width:1;"/><path d="M399.2656,515.875 Q399.4219,515.6563 399.6094,515.5469 Q399.7969,515.4375 400.0156,515.4375 Q400.3906,515.4375 400.625,515.7031 Q400.8594,515.9531 400.8594,516.5625 L400.8594,518.0156 Q400.8594,518.625 400.625,518.8906 Q400.3906,519.1563 400.0156,519.1563 Q399.6719,519.1563 399.4688,518.9531 Q399.2656,518.7656 399.1563,518.25 Q399.1094,517.8906 398.9219,517.7031 Q398.5938,517.3281 397.9844,517.1094 Q397.375,516.8906 396.75,516.8906 Q395.9844,516.8906 395.3438,517.2188 Q394.7188,517.5469 394.2188,518.2969 Q393.7344,519.0469 393.7344,520.0781 L393.7344,521.1719 Q393.7344,522.4063 394.625,523.2344 Q395.5156,524.0469 397.1094,524.0469 Q398.0469,524.0469 398.7031,523.7969 Q399.0938,523.6406 399.5156,523.2031 Q399.7813,522.9375 399.9219,522.8594 Q400.0781,522.7813 400.2813,522.7813 Q400.6094,522.7813 400.8594,523.0469 Q401.125,523.2969 401.125,523.6406 Q401.125,523.9844 400.7813,524.3906 Q400.2813,524.9688 399.4844,525.2969 Q398.4063,525.75 397.1094,525.75 Q395.5938,525.75 394.3906,525.125 Q393.4063,524.625 392.7188,523.5625 Q392.0313,522.4844 392.0313,521.2031 L392.0313,520.0469 Q392.0313,518.7188 392.6406,517.5781 Q393.2656,516.4219 394.3594,515.8125 Q395.4531,515.1875 396.6875,515.1875 Q397.4219,515.1875 398.0625,515.3594 Q398.7188,515.5156 399.2656,515.875 Z " fill="#000000"/><text fill="#000000" font-family="sans-serif" font-size="14" lengthAdjust="spacing" textLength="23.3584" x="410.5" y="525.7285">dbn</text><line style="stroke:#181818;stroke-width:0.5;" x1="382.5" x2="435.8584" y1="536" y2="536"/><line style="stroke:#181818;stroke-width:0.5;" x1="382.5" x2="435.8584" y1="544" y2="544"/></g><!--class mail_workflow--><g class="entity" data-qualified-name="mail_workflow" data-source-line="59" id="ent0038"><rect fill="#F1F1F1" height="48" rx="2.5" ry="2.5" style="stroke:#181818;stroke-width:0.5;" width="119.9102" x="783" y="42"/><ellipse cx="798" cy="58" fill="#ADD1B2" rx="11" ry="11" style="stroke:#181818;stroke-width:1;"/><path d="M800.7656,53.875 Q800.9219,53.6563 801.1094,53.5469 Q801.2969,53.4375 801.5156,53.4375 Q801.8906,53.4375 802.125,53.7031 Q802.3594,53.9531 802.3594,54.5625 L802.3594,56.0156 Q802.3594,56.625 802.125,56.8906 Q801.8906,57.1563 801.5156,57.1563 Q801.1719,57.1563 800.9688,56.9531 Q800.7656,56.7656 800.6563,56.25 Q800.6094,55.8906 800.4219,55.7031 Q800.0938,55.3281 799.4844,55.1094 Q798.875,54.8906 798.25,54.8906 Q797.4844,54.8906 796.8438,55.2188 Q796.2188,55.5469 795.7188,56.2969 Q795.2344,57.0469 795.2344,58.0781 L795.2344,59.1719 Q795.2344,60.4063 796.125,61.2344 Q797.0156,62.0469 798.6094,62.0469 Q799.5469,62.0469 800.2031,61.7969 Q800.5938,61.6406 801.0156,61.2031 Q801.2813,60.9375 801.4219,60.8594 Q801.5781,60.7813 801.7813,60.7813 Q802.1094,60.7813 802.3594,61.0469 Q802.625,61.2969 802.625,61.6406 Q802.625,61.9844 802.2813,62.3906 Q801.7813,62.9688 800.9844,63.2969 Q799.9063,63.75 798.6094,63.75 Q797.0938,63.75 795.8906,63.125 Q794.9063,62.625 794.2188,61.5625 Q793.5313,60.4844 793.5313,59.2031 L793.5313,58.0469 Q793.5313,56.7188 794.1406,55.5781 Q794.7656,54.4219 795.8594,53.8125 Q796.9531,53.1875 798.1875,53.1875 Q798.9219,53.1875 799.5625,53.3594 Q800.2188,53.5156 800.7656,53.875 Z " fill="#000000"/><text fill="#000000" font-family="sans-serif" font-size="14" lengthAdjust="spacing" textLength="87.9102" x="812" y="63.7285">mail_workflow</text><line style="stroke:#181818;stroke-width:0.5;" x1="784" x2="901.9102" y1="74" y2="74"/><line style="stroke:#181818;stroke-width:0.5;" x1="784" x2="901.9102" y1="82" y2="82"/></g><g class="entity" data-qualified-name="GMN41" data-source-line="63" id="ent0042"><path d="M308.5,44.5 L308.5,62 L273.21,66 L308.5,70 L308.5,87.2031 A0,0 0 0 0 308.5,87.2031 L537.5825,87.2031 A0,0 0 0 0 537.5825,87.2031 L537.5825,54.5 L527.5825,44.5 L308.5,44.5 A0,0 0 0 0 308.5,44.5" fill="#FEFFDD" style="stroke:#181818;stroke-width:0.5;"/><path d="M527.5825,44.5 L527.5825,54.5 L537.5825,54.5 L527.5825,44.5" fill="#FEFFDD" style="stroke:#181818;stroke-width:0.5;"/><text fill="#000000" font-family="sans-serif" font-size="13" lengthAdjust="spacing" textLength="208.0825" x="314.5" y="62.9951">Central access point for all services.</text><text fill="#000000" font-family="sans-serif" font-size="13" lengthAdjust="spacing" textLength="195.1206" x="314.5" y="79.3467">Manages unified user experience.</text></g><g class="entity" data-qualified-name="GMN44" data-source-line="68" id="ent0045"><path d="M359,371 L359,388.5 L324.23,392.5 L359,396.5 L359,413.7031 A0,0 0 0 0 359,413.7031 L541.1226,413.7031 A0,0 0 0 0 541.1226,413.7031 L541.1226,381 L531.1226,371 L359,371 A0,0 0 0 0 359,371" fill="#FEFFDD" style="stroke:#181818;stroke-width:0.5;"/><path d="M531.1226,371 L531.1226,381 L541.1226,381 L531.1226,371" fill="#FEFFDD" style="stroke:#181818;stroke-width:0.5;"/><text fill="#000000" font-family="sans-serif" font-size="13" lengthAdjust="spacing" textLength="161.1226" x="365" y="389.4951">Isolated service with its own</text><text fill="#000000" font-family="sans-serif" font-size="13" lengthAdjust="spacing" textLength="132.2661" x="365" y="405.8467">data and configuration.</text></g><g class="entity" data-qualified-name="GMN47" data-source-line="73" id="ent0048"><path d="M938.5,44.5 L938.5,62 L903.25,66 L938.5,70 L938.5,87.2031 A0,0 0 0 0 938.5,87.2031 L1135.8188,87.2031 A0,0 0 0 0 1135.8188,87.2031 L1135.8188,54.5 L1125.8188,44.5 L938.5,44.5 A0,0 0 0 0 938.5,44.5" fill="#FEFFDD" style="stroke:#181818;stroke-width:0.5;"/><path d="M1125.8188,44.5 L1125.8188,54.5 L1135.8188,54.5 L1125.8188,44.5" fill="#FEFFDD" style="stroke:#181818;stroke-width:0.5;"/><text fill="#000000" font-family="sans-serif" font-size="13" lengthAdjust="spacing" textLength="172.707" x="944.5" y="62.9951">Standalone example workflow</text><text fill="#000000" font-family="sans-serif" font-size="13" lengthAdjust="spacing" textLength="176.3188" x="944.5" y="79.3467">for processing inbound emails.</text></g><g class="entity" data-qualified-name="GMN50" data-source-line="78" id="ent0051"><path d="M669.5,506.5 L669.5,549.2031 A0,0 0 0 0 669.5,549.2031 L768.62,549.2031 L783.75,612.7 L776.62,549.2031 L868.2534,549.2031 A0,0 0 0 0 868.2534,549.2031 L868.2534,516.5 L858.2534,506.5 L669.5,506.5 A0,0 0 0 0 669.5,506.5" fill="#FEFFDD" style="stroke:#181818;stroke-width:0.5;"/><path d="M858.2534,506.5 L858.2534,516.5 L868.2534,516.5 L858.2534,506.5" fill="#FEFFDD" style="stroke:#181818;stroke-width:0.5;"/><text fill="#000000" font-family="sans-serif" font-size="13" lengthAdjust="spacing" textLength="149.5889" x="675.5" y="524.9951">Contains project and local</text><text fill="#000000" font-family="sans-serif" font-size="13" lengthAdjust="spacing" textLength="177.7534" x="675.5" y="541.3467">(private) configuration settings.</text></g><g class="entity" data-qualified-name="GMN53" data-source-line="83" id="ent0054"><path d="M300.5,735 L300.5,777.7031 A0,0 0 0 0 300.5,777.7031 L517.3442,777.7031 A0,0 0 0 0 517.3442,777.7031 L517.3442,745 L507.3442,735 L413,735 L409,674.25 L405,735 L300.5,735 A0,0 0 0 0 300.5,735" fill="#FEFFDD" style="stroke:#181818;stroke-width:0.5;"/><path d="M507.3442,735 L507.3442,745 L517.3442,745 L507.3442,735" fill="#FEFFDD" style="stroke:#181818;stroke-width:0.5;"/><text fill="#000000" font-family="sans-serif" font-size="13" lengthAdjust="spacing" textLength="174.8906" x="306.5" y="753.4951">External database provisioned</text><text fill="#000000" font-family="sans-serif" font-size="13" lengthAdjust="spacing" textLength="195.8442" x="306.5" y="769.8467">and configured per service needs.</text></g><!--link external_users to proxy_api--><g class="link" data-entity-1="ent0001" data-entity-2="ent0009" data-link-type="dependency" data-source-line="34" id="lnk10"><path codeLine="34" d="M629.82,96.96 C626.06,118.86 624.05,148.83 634,173 C639.76,186.99 646.8842,196.0624 657.6942,205.9124" fill="none" id="external_users-to-proxy_api" style="stroke:#181818;stroke-width:1;"/><polygon fill="#181818" points="661.39,209.28,657.4316,200.2616,657.6942,205.9124,652.0434,206.175,661.39,209.28" style="stroke:#181818;stroke-width:1;stroke-linejoin:miter;stroke-miterlimit:10;"/><text fill="#000000" font-family="sans-serif" font-size="13" lengthAdjust="spacing" textLength="95.3608" x="635" y="169.4951">Access Services</text></g><!--link proxy_api to service1--><g class="link" data-entity-1="ent0009" data-entity-2="ent0003" data-link-type="dependency" data-source-line="35" id="lnk11"><path codeLine="35" d="M646.32,247.83 C578.66,267.36 449.54,305.41 341,342 C335.48,343.86 334.5623,344.1568 328.8723,346.1368" fill="none" id="proxy_api-to-service1" style="stroke:#181818;stroke-width:1;"/><polygon fill="#181818" points="324.15,347.78,333.9647,348.6,328.8723,346.1368,331.3355,341.0443,324.15,347.78" style="stroke:#181818;stroke-width:1;stroke-linejoin:miter;stroke-miterlimit:10;"/><text fill="#000000" font-family="sans-serif" font-size="13" lengthAdjust="spacing" textLength="84.5444" x="487" y="308.4951">PlugIt Protocol</text></g><!--link proxy_api to service2--><g class="link" data-entity-1="ent0009" data-entity-2="ent0004" data-link-type="dependency" data-source-line="36" id="lnk12"><path codeLine="36" d="M739.33,257.67 C783.52,279.76 847.0177,311.5142 903.4077,339.7042" fill="none" id="proxy_api-to-service2" style="stroke:#181818;stroke-width:1;"/><polygon fill="#181818" points="907.88,341.94,901.6185,334.3378,903.4077,339.7042,898.0413,341.4935,907.88,341.94" style="stroke:#181818;stroke-width:1;stroke-linejoin:miter;stroke-miterlimit:10;"/><text fill="#000000" font-family="sans-serif" font-size="13" lengthAdjust="spacing" textLength="84.5444" x="841" y="308.4951">PlugIt Protocol</text></g><!--link proxy_api to servicen--><g class="link" data-entity-1="ent0009" data-entity-2="ent0005" data-link-type="dependency" data-source-line="37" id="lnk13"><path codeLine="37" d="M693,257.67 C693,279.76 693,308.75 693,336.94" fill="none" id="proxy_api-to-servicen" style="stroke:#181818;stroke-width:1;"/><polygon fill="#181818" points="693,341.94,697,332.94,693,336.94,689,332.94,693,341.94" style="stroke:#181818;stroke-width:1;stroke-linejoin:miter;stroke-miterlimit:10;"/><text fill="#000000" font-family="sans-serif" font-size="13" lengthAdjust="spacing" textLength="84.5444" x="694" y="308.4951">PlugIt Protocol</text></g><!--link service1 to client1--><g class="link" data-entity-1="ent0003" data-entity-2="ent0014" data-link-type="dependency" data-source-line="39" id="lnk15"><path codeLine="39" d="M170.14,443.21 C154.74,463.97 140.5772,483.063 128.2072,499.753" fill="none" id="service1-to-client1" style="stroke:#181818;stroke-width:1;"/><polygon fill="#181818" points="125.23,503.77,133.8026,498.9212,128.2072,499.753,127.3754,494.1577,125.23,503.77" style="stroke:#181818;stroke-width:1;stroke-linejoin:miter;stroke-miterlimit:10;"/></g><!--link service1 to config1--><g class="link" data-entity-1="ent0003" data-entity-2="ent0016" data-link-type="dependency" data-source-line="40" id="lnk17"><path codeLine="40" d="M244.61,443.21 C260.31,463.97 274.7843,483.0918 287.4043,499.7818" fill="none" id="service1-to-config1" style="stroke:#181818;stroke-width:1;"/><polygon fill="#181818" points="290.42,503.77,288.1824,494.1787,287.4043,499.7818,281.8013,499.0037,290.42,503.77" style="stroke:#181818;stroke-width:1;stroke-linejoin:miter;stroke-miterlimit:10;"/></g><!--link service1 to db1--><g class="link" data-entity-1="ent0003" data-entity-2="ent0018" data-link-type="dependency" data-source-line="41" id="lnk19"><path codeLine="41" d="M207,443.21 C207,463.97 207,482.08 207,498.77" fill="none" id="service1-to-db1" style="stroke:#181818;stroke-width:1;"/><polygon fill="#181818" points="207,503.77,211,494.77,207,498.77,203,494.77,207,503.77" style="stroke:#181818;stroke-width:1;stroke-linejoin:miter;stroke-miterlimit:10;"/></g><!--link service2 to client2--><g class="link" data-entity-1="ent0004" data-entity-2="ent0020" data-link-type="dependency" data-source-line="43" id="lnk21"><path codeLine="43" d="M1023.76,443.21 C1030.75,463.97 1036.9418,482.3423 1042.5718,499.0323" fill="none" id="service2-to-client2" style="stroke:#181818;stroke-width:1;"/><polygon fill="#181818" points="1044.17,503.77,1045.0835,493.9636,1042.5718,499.0323,1037.5031,496.5207,1044.17,503.77" style="stroke:#181818;stroke-width:1;stroke-linejoin:miter;stroke-miterlimit:10;"/></g><!--link service2 to config2--><g class="link" data-entity-1="ent0004" data-entity-2="ent0022" data-link-type="dependency" data-source-line="44" id="lnk23"><path codeLine="44" d="M1064.72,443.21 C1088.82,463.97 1111.8621,483.8162 1131.2321,500.5062" fill="none" id="service2-to-config2" style="stroke:#181818;stroke-width:1;"/><polygon fill="#181818" points="1135.02,503.77,1130.8129,494.8649,1131.2321,500.5062,1125.5909,500.9255,1135.02,503.77" style="stroke:#181818;stroke-width:1;stroke-linejoin:miter;stroke-miterlimit:10;"/></g><!--link service2 to db2--><g class="link" data-entity-1="ent0004" data-entity-2="ent0024" data-link-type="dependency" data-source-line="45" id="lnk25"><path codeLine="45" d="M889.98,427.58 C804.22,453 695.48,486.27 652,504 C646.31,506.32 644.8469,506.8635 639.2169,509.6635" fill="none" id="service2-to-db2" style="stroke:#181818;stroke-width:1;"/><polygon fill="#181818" points="634.74,511.89,644.5796,511.4638,639.2169,509.6635,641.0172,504.3007,634.74,511.89" style="stroke:#181818;stroke-width:1;stroke-linejoin:miter;stroke-miterlimit:10;"/></g><!--link servicen to clientn--><g class="link" data-entity-1="ent0005" data-entity-2="ent0026" data-link-type="dependency" data-source-line="47" id="lnk27"><path codeLine="47" d="M624.38,443.02 C595.58,463.8 567.5349,484.0447 544.3449,500.7747" fill="none" id="servicen-to-clientn" style="stroke:#181818;stroke-width:1;"/><polygon fill="#181818" points="540.29,503.7,549.9291,501.6783,544.3449,500.7747,545.2486,495.1904,540.29,503.7" style="stroke:#181818;stroke-width:1;stroke-linejoin:miter;stroke-miterlimit:10;"/></g><!--link servicen to confign--><g class="link" data-entity-1="ent0005" data-entity-2="ent0028" data-link-type="dependency" data-source-line="48" id="lnk29"><path codeLine="48" d="M785.36,443.02 C826.19,464.91 867.5632,487.0977 899.0332,503.9677" fill="none" id="servicen-to-confign" style="stroke:#181818;stroke-width:1;"/><polygon fill="#181818" points="903.44,506.33,897.3977,498.5524,899.0332,503.9677,893.618,505.6032,903.44,506.33" style="stroke:#181818;stroke-width:1;stroke-linejoin:miter;stroke-miterlimit:10;"/></g><!--link servicen to dbn--><g class="link" data-entity-1="ent0005" data-entity-2="ent0030" data-link-type="dependency" data-source-line="49" id="lnk31"><path codeLine="49" d="M583.41,443.07 C542.62,461.81 496.03,483.55 454,504 C448.32,506.76 446.725,507.5199 440.975,510.4499" fill="none" id="servicen-to-dbn" style="stroke:#181818;stroke-width:1;"/><polygon fill="#181818" points="436.52,512.72,446.355,512.1978,440.975,510.4499,442.7229,505.0699,436.52,512.72" style="stroke:#181818;stroke-width:1;stroke-linejoin:miter;stroke-miterlimit:10;"/></g><!--link config1 to config_files--><g class="link" data-entity-1="ent0016" data-entity-2="ent0006" data-link-type="dependency" data-source-line="51" id="lnk32"><path codeLine="51" d="M346.53,545.88 C352.33,548.11 358.28,550.23 364,552 C484.37,589.2 623.6191,615.5516 709.3291,629.9516" fill="none" id="config1-to-config_files" style="stroke:#181818;stroke-width:1;"/><polygon fill="#181818" points="714.26,630.78,706.0471,625.3441,709.3291,629.9516,704.7216,633.2335,714.26,630.78" style="stroke:#181818;stroke-width:1;stroke-linejoin:miter;stroke-miterlimit:10;"/></g><!--link config2 to config_files--><g class="link" data-entity-1="ent0022" data-entity-2="ent0006" data-link-type="dependency" data-source-line="52" id="lnk33"><path codeLine="52" d="M1123.35,545.53 C1117.58,547.81 1111.66,550.04 1106,552 C1024.22,580.37 933.2581,605.548 868.5481,622.428" fill="none" id="config2-to-config_files" style="stroke:#181818;stroke-width:1;"/><polygon fill="#181818" points="863.71,623.69,873.4282,625.2888,868.5481,622.428,871.4089,617.5478,863.71,623.69" style="stroke:#181818;stroke-width:1;stroke-linejoin:miter;stroke-miterlimit:10;"/></g><!--link confign to config_files--><g class="link" data-entity-1="ent0028" data-entity-2="ent0006" data-link-type="dependency" data-source-line="53" id="lnk34"><path codeLine="53" d="M910.67,552.24 C887.06,569.75 858.5356,590.921 833.0456,609.831" fill="none" id="confign-to-config_files" style="stroke:#181818;stroke-width:1;"/><polygon fill="#181818" points="829.03,612.81,838.6414,610.6602,833.0456,609.831,833.8749,604.2352,829.03,612.81" style="stroke:#181818;stroke-width:1;stroke-linejoin:miter;stroke-miterlimit:10;"/></g><!--link db1 to database_tech--><g class="link" data-entity-1="ent0018" data-entity-2="ent0007" data-link-type="dependency" data-source-line="55" id="lnk35"><path codeLine="55" d="M234.66,544.54 C265.89,562.09 313.0512,588.5903 352.0012,610.4803" fill="none" id="db1-to-database_tech" style="stroke:#181818;stroke-width:1;"/><polygon fill="#181818" points="356.36,612.93,350.4739,605.0336,352.0012,610.4803,346.5544,612.0077,356.36,612.93" style="stroke:#181818;stroke-width:1;stroke-linejoin:miter;stroke-miterlimit:10;"/></g><!--link db2 to database_tech--><g class="link" data-entity-1="ent0024" data-entity-2="ent0007" data-link-type="dependency" data-source-line="56" id="lnk36"><path codeLine="56" d="M579.47,544.78 C548.87,562.32 503.0877,588.5632 465.0977,610.3432" fill="none" id="db2-to-database_tech" style="stroke:#181818;stroke-width:1;"/><polygon fill="#181818" points="460.76,612.83,470.5573,611.8238,465.0977,610.3432,466.5784,604.8835,460.76,612.83" style="stroke:#181818;stroke-width:1;stroke-linejoin:miter;stroke-miterlimit:10;"/></g><!--link dbn to database_tech--><g class="link" data-entity-1="ent0030" data-entity-2="ent0007" data-link-type="dependency" data-source-line="57" id="lnk37"><path codeLine="57" d="M409,552.24 C409,569.75 409,588.9 409,607.81" fill="none" id="dbn-to-database_tech" style="stroke:#181818;stroke-width:1;"/><polygon fill="#181818" points="409,612.81,413,603.81,409,607.81,405,603.81,409,612.81" style="stroke:#181818;stroke-width:1;stroke-linejoin:miter;stroke-miterlimit:10;"/></g><!--link mail_workflow to email_source--><g class="link" data-entity-1="ent0038" data-entity-2="ent0008" data-link-type="dependency" data-source-line="59" id="lnk39"><path codeLine="59" d="M849.67,90.01 C858.23,119.5 871.6664,165.8581 881.0464,198.1781" fill="none" id="mail_workflow-to-email_source" style="stroke:#181818;stroke-width:1;"/><polygon fill="#181818" points="882.44,202.98,883.773,193.2218,881.0464,198.1781,876.09,195.4515,882.44,202.98" style="stroke:#181818;stroke-width:1;stroke-linejoin:miter;stroke-miterlimit:10;"/><text fill="#000000" font-family="sans-serif" font-size="13" lengthAdjust="spacing" textLength="125.0107" x="873" y="169.4951">Process Inbound Mail</text></g><!--link mail_workflow to proxy_api--><g class="link" data-entity-1="ent0038" data-entity-2="ent0009" data-link-type="dependency" data-source-line="60" id="lnk40"><path codeLine="60" d="M822.14,90.01 C793.57,121.54 745.8876,174.145 717.2776,205.715" fill="none" id="mail_workflow-to-proxy_api" style="stroke:#181818;stroke-width:1;stroke-dasharray:7,7;"/><polygon fill="#181818" points="713.92,209.42,722.9276,205.4371,717.2776,205.715,716.9997,200.065,713.92,209.42" style="stroke:#181818;stroke-width:1;stroke-linejoin:miter;stroke-miterlimit:10;"/><text fill="#000000" font-family="sans-serif" font-size="13" lengthAdjust="spacing" textLength="75.1372" x="761" y="169.4951">Part of Proxy</text></g><?plantuml-src bLN1Rjim3BthAxWUjXPeCyJ77GOKMJO4Q8fiwR1BWK2nwLIRGXcIqZGOzk-JP3csdAH8UoWSyebyf1x5TmMMWX1-Z4SFj_VVxiQGIsuCOwtXOlnYKHENyDEWDXyVQRup5jVc0hW1ZCx5nZkJSpEvMKqipBHwsGLivR_WBmFtryK5y-ri0cCgAYN8jkW5hyHn_1TkESojqjX15yi-UCg5X5zA_ocbsZxIvTnoAhXKhkRn2rzN4g_2-RN3BROHn_uTAsIE-bda2CDmmDI_XeVrD3XVqKWAZFNauNDu2ZrIL8fLZGoV9v6zoelby7M-MPTlzaQ-sTbyixFvPg_plU_ofJVofRFvqjbygSUt3hNHt0f5y5L8D4vPJfQ_CRVm7kvKpkLL9zMYz9Xk29zZoGt20-PFfAHQxLo8wMx-_UuQt3zXyHhGveCwJ17X2-lWtJWJMgeD5J3s-dsaAHh3LnX7CsZQg8tEaR4FlWFa23hEXgLZ2pStdzjvWqzmc-SkKdCZXhK-ZznB_nEqCsvLhkHnO7Oka8u0sJwR1pP3b1hZl2H6FnPiJw0zc_MCKRk9qKkKxJcrPwbdZ3fAZ5ukB3BgeA84OhfJ3ZfqC5T87JZHWADur4f7h2nvt0AWgmtVTAt2XJToygzcxzHWa4fanhK5LTRFEsEaB88MgwTW3C0mNoFNDkrs1wyL5PvtA9K6BcLpxMOGe5DENhkm8L4ABC1Bq-sN2hNhVOu3XewPpzFFrjnxY38nIdBhZaShR8Lz0c4Dg6qzyhuvuBP0x7ESuzFXqzNW8tIM2DPB11A_hw-gMofe1I9sDJJT72Iogl9fabiFhLDakQ2msyBBuZbB_xO4zsMbnREhz2gjmzLjhSjwc6Ufh5LhdogLXm-st_6DooTz5iO5n28WkWrptNMtikym8HRTTFy1?></g></svg>