<svg xmlns="http://www.w3.org/2000/svg" xmlns:xlink="http://www.w3.org/1999/xlink" contentStyleType="text/css" data-diagram-type="DESCRIPTION" height="440px" preserveAspectRatio="none" style="width:829px;height:440px;background:#FFFFFF;" version="1.1" viewBox="0 0 829 440" width="829px" zoomAndPan="magnify"><?plantuml 1.2026.6?><defs/><g><g class="title" data-source-line="3"><text fill="#000000" font-family="sans-serif" font-size="14" font-weight="700" lengthAdjust="spacing" textLength="196.0752" x="313.126" y="24.5332">System Architecture Diagram</text></g><!--cluster Docker Network--><g class="cluster" data-qualified-name="Docker Network" data-source-line="7" id="ent0001"><path d="M8.5,44.6094 L116.0928,44.6094 A3.75,3.75 0 0 1 118.5928,47.1094 L125.5928,68.2188 L364.5,68.2188 A2.5,2.5 0 0 1 367,70.7188 L367,423.1094 A2.5,2.5 0 0 1 364.5,425.6094 L8.5,425.6094 A2.5,2.5 0 0 1 6,423.1094 L6,47.1094 A2.5,2.5 0 0 1 8.5,44.6094" fill="none" style="stroke:#000000;stroke-width:1.5;"/><line style="stroke:#000000;stroke-width:1.5;" x1="6" x2="125.5928" y1="68.2188" y2="68.2188"/><text fill="#000000" font-family="sans-serif" font-size="14" font-weight="700" lengthAdjust="spacing" textLength="106.5928" x="10" y="61.1426">Docker Network</text></g><!--entity frontend--><g class="entity" data-qualified-name="Docker Network.frontend" data-source-line="8" id="ent0002"><rect fill="#F1F1F1" height="37.6094" rx="2.5" ry="2.5" style="stroke:#181818;stroke-width:0.5;" width="116.4961" x="212" y="80.6094"/><text fill="#000000" font-family="sans-serif" font-size="14" lengthAdjust="spacing" textLength="96.4961" x="222" y="105.1426">React Frontend</text></g><!--entity backend--><g class="entity" data-qualified-name="Docker Network.backend" data-source-line="9" id="ent0003"><rect fill="#F1F1F1" height="37.6094" rx="2.5" ry="2.5" style="stroke:#181818;stroke-width:0.5;" width="128.165" x="203" y="217.6094"/><text fill="#000000" font-family="sans-serif" font-size="14" lengthAdjust="spacing" textLength="108.165" x="213" y="242.1426">FastAPI Backend</text></g><!--entity elasticsearch--><g class="entity" data-qualified-name="Docker Network.elasticsearch" data-source-line="10" id="ent0004"><rect fill="#F1F1F1" height="37.6094" rx="2.5" ry="2.5" style="stroke:#181818;stroke-width:0.5;" width="103.2549" x="145.5" y="371.6094"/><text fill="#000000" font-family="sans-serif" font-size="14" lengthAdjust="spacing" textLength="83.2549" x="155.5" y="396.1426">Elasticsearch</text></g><!--entity kibana--><g class="entity" data-qualified-name="Docker Network.kibana" data-source-line="11" id="ent0005"><rect fill="#F1F1F1" height="37.6094" rx="2.5" ry="2.5" style="stroke:#181818;stroke-width:0.5;" width="63.5928" x="64" y="217.6094"/><text fill="#000000" font-family="sans-serif" font-size="14" lengthAdjust="spacing" textLength="43.5928" x="74" y="242.1426">Kibana</text></g><!--entity genius_api--><g class="entity" data-qualified-name="genius_api" data-source-line="14" id="ent0006"><rect fill="#F1F1F1" height="37.6094" rx="2.5" ry="2.5" style="stroke:#181818;stroke-width:0.5;" width="90.8135" x="383.5" y="371.6094"/><text fill="#000000" font-family="sans-serif" font-size="14" lengthAdjust="spacing" textLength="70.8135" x="393.5" y="396.1426">Genius API</text></g><g class="entity" data-qualified-name="GMN11" data-source-line="22" id="ent0012"><path d="M383,78.1094 L383,95.6094 L328.11,99.6094 L383,103.6094 L383,120.8125 A0,0 0 0 0 383,120.8125 L507.3271,120.8125 A0,0 0 0 0 507.3271,120.8125 L507.3271,88.1094 L497.3271,78.1094 L383,78.1094 A0,0 0 0 0 383,78.1094" fill="#FEFFDD" style="stroke:#181818;stroke-width:0.5;"/><path d="M497.3271,78.1094 L497.3271,88.1094 L507.3271,88.1094 L497.3271,78.1094" fill="#FEFFDD" style="stroke:#181818;stroke-width:0.5;"/><text fill="#000000" font-family="sans-serif" font-size="13" lengthAdjust="spacing" textLength="103.3271" x="389" y="96.6045">Container Service</text><text fill="#000000" font-family="sans-serif" font-size="13" lengthAdjust="spacing" textLength="86.6963" x="389" y="112.9561">(C-001, C-006)</text></g><g class="entity" data-qualified-name="GMN14" data-source-line="27" id="ent0015"><path d="M383,215.1094 L383,232.6094 L331.32,236.6094 L383,240.6094 L383,257.8125 A0,0 0 0 0 383,257.8125 L507.3271,257.8125 A0,0 0 0 0 507.3271,257.8125 L507.3271,225.1094 L497.3271,215.1094 L383,215.1094 A0,0 0 0 0 383,215.1094" fill="#FEFFDD" style="stroke:#181818;stroke-width:0.5;"/><path d="M497.3271,215.1094 L497.3271,225.1094 L507.3271,225.1094 L497.3271,215.1094" fill="#FEFFDD" style="stroke:#181818;stroke-width:0.5;"/><text fill="#000000" font-family="sans-serif" font-size="13" lengthAdjust="spacing" textLength="103.3271" x="389" y="233.6045">Container Service</text><text fill="#000000" font-family="sans-serif" font-size="13" lengthAdjust="spacing" textLength="86.6963" x="389" y="249.9561">(C-002, C-006)</text></g><g class="entity" data-qualified-name="GMN17" data-source-line="32" id="ent0018"><path d="M690,369.1094 L690,411.8125 L814.3271,411.8125 L814.3271,379.1094 L804.3271,369.1094 L690,369.1094" fill="#FEFFDD" style="stroke:#181818;stroke-width:0.5;"/><path d="M804.3271,369.1094 L804.3271,379.1094 L814.3271,379.1094 L804.3271,369.1094" fill="#FEFFDD" style="stroke:#181818;stroke-width:1;"/><text fill="#000000" font-family="sans-serif" font-size="13" lengthAdjust="spacing" textLength="103.3271" x="696" y="387.6045">Container Service</text><text fill="#000000" font-family="sans-serif" font-size="13" lengthAdjust="spacing" textLength="86.6963" x="696" y="403.9561">(C-003, C-006)</text></g><g class="entity" data-qualified-name="GMN20" data-source-line="37" id="ent0021"><path d="M542,215.1094 L542,257.8125 L666.3271,257.8125 L666.3271,225.1094 L656.3271,215.1094 L542,215.1094" fill="#FEFFDD" style="stroke:#181818;stroke-width:0.5;"/><path d="M656.3271,215.1094 L656.3271,225.1094 L666.3271,225.1094 L656.3271,215.1094" fill="#FEFFDD" style="stroke:#181818;stroke-width:1;"/><text fill="#000000" font-family="sans-serif" font-size="13" lengthAdjust="spacing" textLength="103.3271" x="548" y="233.6045">Container Service</text><text fill="#000000" font-family="sans-serif" font-size="13" lengthAdjust="spacing" textLength="86.6963" x="548" y="249.9561">(C-004, C-006)</text></g><g class="entity" data-qualified-name="GMN23" data-source-line="42" id="ent0024"><path d="M509.5,369.1094 L509.5,386.6094 L474.72,390.6094 L509.5,394.6094 L509.5,411.8125 A0,0 0 0 0 509.5,411.8125 L654.7998,411.8125 A0,0 0 0 0 654.7998,411.8125 L654.7998,379.1094 L644.7998,369.1094 L509.5,369.1094 A0,0 0 0 0 509.5,369.1094" fill="#FEFFDD" style="stroke:#181818;stroke-width:0.5;"/><path d="M644.7998,369.1094 L644.7998,379.1094 L654.7998,379.1094 L644.7998,369.1094" fill="#FEFFDD" style="stroke:#181818;stroke-width:0.5;"/><text fill="#000000" font-family="sans-serif" font-size="13" lengthAdjust="spacing" textLength="124.2998" x="515.5" y="387.6045">External Dependency</text><text fill="#000000" font-family="sans-serif" font-size="13" lengthAdjust="spacing" textLength="86.6963" x="515.5" y="403.9561">(C-005, C-007)</text></g><!--link frontend to backend--><g class="link" data-entity-1="ent0002" data-entity-2="ent0003" data-link-type="dependency" data-source-line="16" id="lnk7"><path d="M269.6,118.8194 C269.02,144.5794 268.0903,186.4206 267.5203,212.2606" fill="none" id="frontend-to-backend" style="stroke:#181818;stroke-width:1;"/><polygon fill="#181818" points="267.41,217.2594,271.6075,208.3498,267.5203,212.2606,263.6095,208.1734,267.41,217.2594" style="stroke:#181818;stroke-width:1;stroke-linejoin:miter;stroke-miterlimit:10;"/><text fill="#000000" font-family="sans-serif" font-size="13" lengthAdjust="spacing" textLength="46.9727" x="295.6382" y="165.6045">API-001</text><text fill="#000000" font-family="sans-serif" font-size="13" lengthAdjust="spacing" textLength="98.249" x="270" y="181.9561">(FR-001, UI-001)</text></g><!--link backend to elasticsearch--><g class="link" data-entity-1="ent0003" data-entity-2="ent0004" data-link-type="dependency" data-source-line="17" id="lnk8"><path d="M241.08,255.7494 C230.71,264.3594 219.68,275.5194 213,288.1094 C198.96,314.5894 196.4765,345.0294 196.4065,366.2594" fill="none" id="backend-to-elasticsearch" style="stroke:#181818;stroke-width:1;"/><polygon fill="#181818" points="196.39,371.2594,200.4197,362.2726,196.4065,366.2594,192.4197,362.2462,196.39,371.2594" style="stroke:#181818;stroke-width:1;stroke-linejoin:miter;stroke-miterlimit:10;"/><text fill="#000000" font-family="sans-serif" font-size="13" lengthAdjust="spacing" textLength="46.9727" x="266.73" y="302.6045">API-002</text><text fill="#000000" font-family="sans-serif" font-size="13" lengthAdjust="spacing" textLength="152.4326" x="214" y="318.9561">(FR-002, FR-004, FR-005,</text><text fill="#000000" font-family="sans-serif" font-size="13" lengthAdjust="spacing" textLength="57.0654" x="261.6836" y="335.3076">NFR-004)</text></g><!--link backend to genius_api--><g class="link" data-entity-1="ent0003" data-entity-2="ent0006" data-link-type="dependency" data-source-line="18" id="lnk9"><path d="M319.19,255.6194 C337.07,263.5894 356.27,274.3294 371,288.1094 C396.35,311.8094 411.8762,344.4878 420.6162,366.6578" fill="none" id="backend-to-genius_api" style="stroke:#181818;stroke-width:1;"/><polygon fill="#181818" points="422.45,371.3094,422.8705,361.4695,420.6162,366.6578,415.4279,364.4035,422.45,371.3094" style="stroke:#181818;stroke-width:1;stroke-linejoin:miter;stroke-miterlimit:10;"/><text fill="#000000" font-family="sans-serif" font-size="13" lengthAdjust="spacing" textLength="46.9727" x="430.8323" y="311.1045">API-003</text><text fill="#000000" font-family="sans-serif" font-size="13" lengthAdjust="spacing" textLength="94.6372" x="407" y="327.4561">(FR-003, C-005)</text></g><!--link kibana to elasticsearch--><g class="link" data-entity-1="ent0005" data-entity-2="ent0004" data-link-type="dependency" data-source-line="19" id="lnk10"><path d="M89.27,255.6894 C82.45,277.3094 74.99,313.7494 91,339.1094 C103.13,358.3294 120.111,368.6808 140.711,376.1708" fill="none" id="kibana-to-elasticsearch" style="stroke:#181818;stroke-width:1;"/><polygon fill="#181818" points="145.41,377.8794,138.3186,371.0448,140.711,376.1708,135.5849,378.5632,145.41,377.8794" style="stroke:#181818;stroke-width:1;stroke-linejoin:miter;stroke-miterlimit:10;"/><text fill="#000000" font-family="sans-serif" font-size="13" lengthAdjust="spacing" textLength="46.9727" x="117.6382" y="311.1045">API-004</text><text fill="#000000" font-family="sans-serif" font-size="13" lengthAdjust="spacing" textLength="98.249" x="92" y="327.4561">(FR-006, UI-002)</text></g><!--link elasticsearch to GMN17--><g class="link" data-entity-1="ent0004" data-entity-2="ent0018" data-link-type="association" data-source-line="32" id="lnk19"><path d="M231.45,371.5494 C267.94,352.5494 327.84,324.6494 383.5,313.6094 C501.64,290.1794 540.72,274.0994 654.5,313.6094 C685.88,324.5094 714.79,350.1594 732.84,368.8694" fill="none" id="elasticsearch-GMN17" style="stroke:#181818;stroke-width:1;stroke-dasharray:7,7;"/></g><!--link kibana to GMN20--><g class="link" data-entity-1="ent0005" data-entity-2="ent0021" data-link-type="association" data-source-line="37" id="lnk22"><path d="M117.38,217.5194 C137.66,200.7994 169.81,177.7194 202.5,168.1094 C332.56,129.8994 378.35,126.9294 507.5,168.1094 C536.27,177.2794 563.82,198.5094 582.06,214.9194" fill="none" id="kibana-GMN20" style="stroke:#181818;stroke-width:1;stroke-dasharray:7,7;"/></g><?plantuml-src XPBVJy8m4CVVxwyuUM8993X-cFXWWcCGeo46z0cCAUKOpKQtT4Kbnl_TTZzWQCBsSjVhz_lfTTUhDMs499pvtijmEddoaKSiJG6qq17X_91gsk5GyQtGnFLU4Ou42nJR0QIXa0apAV9ubyIIf9xhWt4fesGoY0WWOJna0M5Z5FEG54v9VyOgRE0teFaMCs9SurZ5KfDSlo5BSLCiSi6OfNhu_83t1bGgLdcU2tpJhnOy9MQQpBQfMib5ZsB59Cjsmoo57u35XAJOfsZmsKwGBTzP8W3A9h3TlYlFmrihRNSwrqlP7CziqiBNhE10gR7wimQEBhTqkItCOg-8_TPIJlFAEUVKq17IBI7T5dhMwq1-eGi7zqhFe6ZNTG1ahCsWHB3L66_E_xbdScOUXS8vgG_1AQislVp2DWmSi3rQnbzITJONG6ujwFyKB-2wjRXYx3MSNYsdyaYio__If2IBS4I9iP3aXnEjdzDkAhHV?></g></svg>