<svg xmlns="http://www.w3.org/2000/svg" xmlns:xlink="http://www.w3.org/1999/xlink" contentStyleType="text/css" data-diagram-type="DESCRIPTION" height="840px" preserveAspectRatio="none" style="width:1283px;height:840px;background:#FFFFFF;" version="1.1" viewBox="0 0 1283 840" width="1283px" zoomAndPan="magnify"><?plantuml 1.2026.6?><defs/><g><g class="title" data-source-line="6"><text fill="#000000" font-family="sans-serif" font-size="14" font-weight="700" lengthAdjust="spacing" textLength="234.1787" x="521.2241" y="24.5332">Squatm3gator System Architecture</text></g><!--entity WebUser--><g class="entity" data-qualified-name="WebUser" data-source-line="11" id="ent0001"><ellipse cx="554.6172" cy="623.6094" fill="#F1F1F1" rx="8" ry="8" style="stroke:#181818;stroke-width:0.5;"/><path d="M554.6172,631.6094 L554.6172,658.6094 M541.6172,639.6094 L567.6172,639.6094 M554.6172,658.6094 L541.6172,673.6094 M554.6172,658.6094 L567.6172,673.6094" fill="none" style="stroke:#181818;stroke-width:0.5;"/><text fill="#000000" font-family="sans-serif" font-size="14" lengthAdjust="spacing" textLength="62.2344" x="523.5" y="689.6426">Web User</text></g><!--entity ClientApp--><g class="entity" data-qualified-name="ClientApp" data-source-line="12" id="ent0002"><ellipse cx="971.5859" cy="623.6094" fill="#F1F1F1" rx="8" ry="8" style="stroke:#181818;stroke-width:0.5;"/><path d="M971.5859,631.6094 L971.5859,658.6094 M958.5859,639.6094 L984.5859,639.6094 M971.5859,658.6094 L958.5859,673.6094 M971.5859,658.6094 L984.5859,673.6094" fill="none" style="stroke:#181818;stroke-width:0.5;"/><text fill="#000000" font-family="sans-serif" font-size="14" lengthAdjust="spacing" textLength="108.1719" x="917.5" y="689.6426">Client Application</text></g><!--entity Operator--><g class="entity" data-qualified-name="Operator" data-source-line="13" id="ent0003"><ellipse cx="1211.624" cy="52.6094" fill="#F1F1F1" rx="8" ry="8" style="stroke:#181818;stroke-width:0.5;"/><path d="M1211.624,60.6094 L1211.624,87.6094 M1198.624,68.6094 L1224.624,68.6094 M1211.624,87.6094 L1198.624,102.6094 M1211.624,87.6094 L1224.624,102.6094" fill="none" style="stroke:#181818;stroke-width:0.5;"/><text fill="#000000" font-family="sans-serif" font-size="14" lengthAdjust="spacing" textLength="55.248" x="1184" y="118.6426">Operator</text></g><!--entity WebUI--><g class="entity" data-qualified-name="WebUI" data-source-line="16" id="ent0004"><rect fill="#F1F1F1" height="55.2188" rx="2.5" ry="2.5" style="stroke:#181818;stroke-width:0.5;" width="93.1309" x="7" y="771.1094"/><text fill="#000000" font-family="sans-serif" font-size="14" lengthAdjust="spacing" textLength="46.6758" x="17" y="795.6426">Web UI</text><text fill="#000000" font-family="sans-serif" font-size="14" lengthAdjust="spacing" textLength="73.1309" x="17" y="813.252">(index.html)</text></g><!--entity APIServer--><g class="entity" data-qualified-name="APIServer" data-source-line="17" id="ent0005"><rect fill="#F1F1F1" height="37.6094" rx="2.5" ry="2.5" style="stroke:#181818;stroke-width:0.5;" width="128.1309" x="763.5" y="64.1094"/><text fill="#000000" font-family="sans-serif" font-size="14" lengthAdjust="spacing" textLength="108.1309" x="773.5" y="88.6426">HTTP API Server</text></g><!--entity RedisMQ--><g class="entity" data-qualified-name="RedisMQ" data-source-line="18" id="ent0006"><path d="M482.5,209.6094 L634.9131,209.6094 C639.9131,209.6094 639.9131,223.4141 639.9131,223.4141 C639.9131,223.4141 639.9131,237.2188 634.9131,237.2188 L482.5,237.2188 C477.5,237.2188 477.5,223.4141 477.5,223.4141 C477.5,223.4141 477.5,209.6094 482.5,209.6094" fill="#F1F1F1" style="stroke:#181818;stroke-width:0.5;"/><path d="M634.9131,209.6094 C629.9131,209.6094 629.9131,223.4141 629.9131,223.4141 C629.9131,237.2188 634.9131,237.2188 634.9131,237.2188" fill="none" style="stroke:#181818;stroke-width:0.5;"/><text fill="#000000" font-family="sans-serif" font-size="14" lengthAdjust="spacing" textLength="142.4131" x="482.5" y="229.1426">Redis Message Queue</text></g><!--entity ConsumerThread--><g class="entity" data-qualified-name="ConsumerThread" data-source-line="19" id="ent0007"><rect fill="#F1F1F1" height="37.6094" rx="2.5" ry="2.5" style="stroke:#181818;stroke-width:0.5;" width="211.4336" x="149" y="343.6094"/><text fill="#000000" font-family="sans-serif" font-size="14" lengthAdjust="spacing" textLength="191.4336" x="159" y="368.1426">Background Consumer Thread</text></g><!--entity SquatM3Engine--><g class="entity" data-qualified-name="SquatM3Engine" data-source-line="20" id="ent0008"><rect fill="#F1F1F1" height="55.2188" rx="2.5" ry="2.5" style="stroke:#181818;stroke-width:0.5;" width="188.8818" x="336" y="480.1094"/><text fill="#000000" font-family="sans-serif" font-size="14" lengthAdjust="spacing" textLength="168.8818" x="346" y="504.6426">Domain Generation Engine</text><text fill="#000000" font-family="sans-serif" font-size="14" lengthAdjust="spacing" textLength="138.5029" x="346" y="522.252">(squatm3 subprocess)</text></g><!--entity WebSocketChannel--><g class="entity" data-qualified-name="WebSocketChannel" data-source-line="21" id="ent0009"><rect fill="#F1F1F1" height="37.6094" rx="2.5" ry="2.5" style="stroke:#181818;stroke-width:0.5;" width="147.627" x="797.5" y="488.6094"/><text fill="#000000" font-family="sans-serif" font-size="14" lengthAdjust="spacing" textLength="127.627" x="807.5" y="513.1426">WebSocket Channel</text></g><!--entity GoDaddyAPI--><g class="entity" data-qualified-name="GoDaddyAPI" data-source-line="22" id="ent0010"><rect fill="#F1F1F1" height="37.6094" rx="2.5" ry="2.5" style="stroke:#181818;stroke-width:0.5;" width="175.6475" x="212.5" y="635.1094"/><text fill="#000000" font-family="sans-serif" font-size="14" lengthAdjust="spacing" textLength="155.6475" x="222.5" y="659.6426">GoDaddy API Integration</text></g><!--entity SessionStore--><g class="entity" data-qualified-name="SessionStore" data-source-line="25" id="ent0011"><path d="M881,210.1094 C881,200.1094 934.5791,200.1094 934.5791,200.1094 C934.5791,200.1094 988.1582,200.1094 988.1582,210.1094 L988.1582,236.7188 C988.1582,246.7188 934.5791,246.7188 934.5791,246.7188 C934.5791,246.7188 881,246.7188 881,236.7188 L881,210.1094" fill="#F1F1F1" style="stroke:#181818;stroke-width:0.5;"/><path d="M881,210.1094 C881,220.1094 934.5791,220.1094 934.5791,220.1094 C934.5791,220.1094 988.1582,220.1094 988.1582,210.1094" fill="none" style="stroke:#181818;stroke-width:0.5;"/><text fill="#000000" font-family="sans-serif" font-size="14" lengthAdjust="spacing" textLength="87.1582" x="891" y="238.6426">Session Store</text></g><!--entity ConfigStore--><g class="entity" data-qualified-name="ConfigStore" data-source-line="26" id="ent0012"><path d="M1118,210.1094 C1118,200.1094 1188.3135,200.1094 1188.3135,200.1094 C1188.3135,200.1094 1258.627,200.1094 1258.627,210.1094 L1258.627,236.7188 C1258.627,246.7188 1188.3135,246.7188 1188.3135,246.7188 C1188.3135,246.7188 1118,246.7188 1118,236.7188 L1118,210.1094" fill="#F1F1F1" style="stroke:#181818;stroke-width:0.5;"/><path d="M1118,210.1094 C1118,220.1094 1188.3135,220.1094 1188.3135,220.1094 C1188.3135,220.1094 1258.627,220.1094 1258.627,210.1094" fill="none" style="stroke:#181818;stroke-width:0.5;"/><text fill="#000000" font-family="sans-serif" font-size="14" lengthAdjust="spacing" textLength="120.627" x="1128" y="238.6426">Configuration Store</text></g><g class="entity" data-qualified-name="GMN31" data-source-line="54" id="ent0032"><path d="M927,45.6094 L927,79.1094 L891.7,83.1094 L927,87.1094 L927,121.0156 A0,0 0 0 0 927,121.0156 L1108.3989,121.0156 A0,0 0 0 0 1108.3989,121.0156 L1108.3989,55.6094 L1098.3989,45.6094 L927,45.6094 A0,0 0 0 0 927,45.6094" fill="#FEFFDD" style="stroke:#181818;stroke-width:0.5;"/><path d="M1098.3989,45.6094 L1098.3989,55.6094 L1108.3989,55.6094 L1098.3989,45.6094" fill="#FEFFDD" style="stroke:#181818;stroke-width:0.5;"/><text fill="#000000" font-family="sans-serif" font-size="13" lengthAdjust="spacing" textLength="146.6626" x="933" y="64.1045">- Handles HTTP requests</text><text fill="#000000" font-family="sans-serif" font-size="13" lengthAdjust="spacing" textLength="115.6099" x="933" y="80.4561">- Manages sessions</text><text fill="#000000" font-family="sans-serif" font-size="13" lengthAdjust="spacing" textLength="143.0698" x="933" y="96.8076">- Publishes jobs to Redis</text><text fill="#000000" font-family="sans-serif" font-size="13" lengthAdjust="spacing" textLength="160.3989" x="933" y="113.1592">- Emits WebSocket updates</text></g><g class="entity" data-qualified-name="GMN34" data-source-line="61" id="ent0035"><path d="M395,325.1094 L395,358.6094 L360.07,362.6094 L395,366.6094 L395,400.5156 A0,0 0 0 0 395,400.5156 L573.5361,400.5156 A0,0 0 0 0 573.5361,400.5156 L573.5361,335.1094 L563.5361,325.1094 L395,325.1094 A0,0 0 0 0 395,325.1094" fill="#FEFFDD" style="stroke:#181818;stroke-width:0.5;"/><path d="M563.5361,325.1094 L563.5361,335.1094 L573.5361,335.1094 L563.5361,325.1094" fill="#FEFFDD" style="stroke:#181818;stroke-width:0.5;"/><text fill="#000000" font-family="sans-serif" font-size="13" lengthAdjust="spacing" textLength="127.8926" x="401" y="343.6045">- Listens to Redis jobs</text><text fill="#000000" font-family="sans-serif" font-size="13" lengthAdjust="spacing" textLength="157.5361" x="401" y="359.9561">- Executes squatm3 engine</text><text fill="#000000" font-family="sans-serif" font-size="13" lengthAdjust="spacing" textLength="152.439" x="401" y="376.3076">- Reports results via Redis</text><text fill="#000000" font-family="sans-serif" font-size="13" lengthAdjust="spacing" textLength="146.6563" x="401" y="392.6592">- Forwards to WebSocket</text></g><g class="entity" data-qualified-name="GMN37" data-source-line="68" id="ent0038"><path d="M560.5,478.1094 L560.5,503.6094 L525.25,507.6094 L560.5,511.6094 L560.5,537.1641 A0,0 0 0 0 560.5,537.1641 L762.8589,537.1641 A0,0 0 0 0 762.8589,537.1641 L762.8589,488.1094 L752.8589,478.1094 L560.5,478.1094 A0,0 0 0 0 560.5,478.1094" fill="#FEFFDD" style="stroke:#181818;stroke-width:0.5;"/><path d="M752.8589,478.1094 L752.8589,488.1094 L762.8589,488.1094 L752.8589,478.1094" fill="#FEFFDD" style="stroke:#181818;stroke-width:0.5;"/><text fill="#000000" font-family="sans-serif" font-size="13" lengthAdjust="spacing" textLength="164.0234" x="566.5" y="496.6045">- Generates domain variants</text><text fill="#000000" font-family="sans-serif" font-size="13" lengthAdjust="spacing" textLength="181.3589" x="566.5" y="512.9561">- Supports multiple attack types</text><text fill="#000000" font-family="sans-serif" font-size="13" lengthAdjust="spacing" textLength="179.2134" x="566.5" y="529.3076">- Optional GoDaddy integration</text></g><g class="entity" data-qualified-name="GMN40" data-source-line="74" id="ent0041"><path d="M609,349.6094 L609,375.9609 L817.9033,375.9609 L817.9033,359.6094 L807.9033,349.6094 L609,349.6094" fill="#FEFFDD" style="stroke:#181818;stroke-width:0.5;"/><path d="M807.9033,349.6094 L807.9033,359.6094 L817.9033,359.6094 L807.9033,349.6094" fill="#FEFFDD" style="stroke:#181818;stroke-width:1;"/><text fill="#000000" font-family="sans-serif" font-size="13" lengthAdjust="spacing" textLength="187.9033" x="615" y="368.1045">Job Queue &amp; Reporting Channel</text></g><g class="entity" data-qualified-name="GMN43" data-source-line="78" id="ent0044"><path d="M78,486.1094 L78,528.8125 A0,0 0 0 0 78,528.8125 L201.4,528.8125 L286.38,634.7294 L209.4,528.8125 L301.3252,528.8125 A0,0 0 0 0 301.3252,528.8125 L301.3252,496.1094 L291.3252,486.1094 L78,486.1094 A0,0 0 0 0 78,486.1094" fill="#FEFFDD" style="stroke:#181818;stroke-width:0.5;"/><path d="M291.3252,486.1094 L291.3252,496.1094 L301.3252,496.1094 L291.3252,486.1094" fill="#FEFFDD" style="stroke:#181818;stroke-width:0.5;"/><text fill="#000000" font-family="sans-serif" font-size="13" lengthAdjust="spacing" textLength="202.3252" x="84" y="504.6045">Optional domain availability checks</text><text fill="#000000" font-family="sans-serif" font-size="13" lengthAdjust="spacing" textLength="164.0361" x="84" y="520.9561">Using configured credentials</text></g><!--link WebUser to WebUI--><g class="link" data-entity-1="ent0001" data-entity-2="ent0004" data-link-type="dependency" data-source-line="29" id="lnk13"><path d="M523.16,664.0194 C437.9,688.2694 206.1992,754.1712 105.1092,782.9312" fill="none" id="WebUser-to-WebUI" style="stroke:#181818;stroke-width:1;"/><polygon fill="#181818" points="100.3,784.2994,110.051,785.6839,105.1092,782.9312,107.8619,777.9893,100.3,784.2994" style="stroke:#181818;stroke-width:1;stroke-linejoin:miter;stroke-miterlimit:10;"/><text fill="#000000" font-family="sans-serif" font-size="13" lengthAdjust="spacing" textLength="54.1899" x="305.5" y="737.6045">accesses</text></g><!--link ClientApp to APIServer--><g class="link" data-entity-1="ent0002" data-entity-2="ent0005" data-link-type="dependency" data-source-line="30" id="lnk14"><path d="M1001.59,615.0294 C1020.56,587.1894 1041.5,547.6394 1041.5,508.6094 C1041.5,222.6094 1041.5,222.6094 1041.5,222.6094 C1041.5,188.5594 1036.94,174.7494 1011.5,152.1094 C976.2,120.6894 953.72,138.7594 909.5,122.1094 C894.08,116.3094 882.0346,111.0184 867.8546,104.2684" fill="none" id="ClientApp-to-APIServer" style="stroke:#181818;stroke-width:1;"/><polygon fill="#181818" points="863.34,102.1194,869.747,109.5993,867.8546,104.2684,873.1855,102.376,863.34,102.1194" style="stroke:#181818;stroke-width:1;stroke-linejoin:miter;stroke-miterlimit:10;"/><text fill="#000000" font-family="sans-serif" font-size="13" lengthAdjust="spacing" textLength="59.249" x="1042.5" y="368.1045">consumes</text></g><!--link Operator to ConfigStore--><g class="link" data-entity-1="ent0003" data-entity-2="ent0012" data-link-type="dependency" data-source-line="31" id="lnk15"><path d="M1205.15,122.3194 C1201.01,147.2994 1196.5493,174.147 1193.0593,195.157" fill="none" id="Operator-to-ConfigStore" style="stroke:#181818;stroke-width:1;"/><polygon fill="#181818" points="1192.24,200.0894,1197.6607,191.8665,1193.0593,195.157,1189.7689,190.5556,1192.24,200.0894" style="stroke:#181818;stroke-width:1;stroke-linejoin:miter;stroke-miterlimit:10;"/><text fill="#000000" font-family="sans-serif" font-size="13" lengthAdjust="spacing" textLength="59.979" x="1201.5" y="166.6045">configures</text></g><!--link WebUI to APIServer--><g class="link" data-entity-1="ent0004" data-entity-2="ent0005" data-link-type="dependency" data-source-line="33" id="lnk16"><path d="M44.72,770.8894 C36.18,742.4994 24.5,696.1394 24.5,655.1094 C24.5,222.6094 24.5,222.6094 24.5,222.6094 C24.5,147.7594 568.2527,102.3762 758.4927,88.7662" fill="none" id="WebUI-to-APIServer" style="stroke:#181818;stroke-width:1;"/><polygon fill="#181818" points="763.48,88.4094,754.2175,85.0618,758.4927,88.7662,754.7884,93.0414,763.48,88.4094" style="stroke:#181818;stroke-width:1;stroke-linejoin:miter;stroke-miterlimit:10;"/><text fill="#000000" font-family="sans-serif" font-size="13" lengthAdjust="spacing" textLength="98.2617" x="25.5" y="444.6045">submits requests</text></g><!--link APIServer to SessionStore--><g class="link" data-entity-1="ent0005" data-entity-2="ent0011" data-link-type="dependency" data-source-line="34" id="lnk17"><path d="M841.49,102.2194 C860.86,127.2894 892.7931,168.6327 913.8931,195.9427" fill="none" id="APIServer-to-SessionStore" style="stroke:#181818;stroke-width:1;"/><polygon fill="#181818" points="916.95,199.8994,914.6128,190.3318,913.8931,195.9427,908.2822,195.223,916.95,199.8994" style="stroke:#181818;stroke-width:1;stroke-linejoin:miter;stroke-miterlimit:10;"/><text fill="#000000" font-family="sans-serif" font-size="13" lengthAdjust="spacing" textLength="107.6689" x="895.5" y="166.6045">manages sessions</text></g><!--link APIServer to RedisMQ--><g class="link" data-entity-1="ent0005" data-entity-2="ent0006" data-link-type="dependency" data-source-line="35" id="lnk18"><path d="M792.33,102.2194 C737.36,130.5194 636.8153,182.2905 588.4753,207.1805" fill="none" id="APIServer-to-RedisMQ" style="stroke:#181818;stroke-width:1;"/><polygon fill="#181818" points="584.03,209.4694,593.8627,208.9057,588.4753,207.1805,590.2005,201.7931,584.03,209.4694" style="stroke:#181818;stroke-width:1;stroke-linejoin:miter;stroke-miterlimit:10;"/><text fill="#000000" font-family="sans-serif" font-size="13" lengthAdjust="spacing" textLength="82.3862" x="694.5" y="166.6045">publishes jobs</text></g><!--link RedisMQ to APIServer--><g class="link" data-entity-1="ent0006" data-entity-2="ent0005" data-link-type="dependency" data-source-line="45" id="lnk26"><path d="M555.29,209.5094 C552.32,193.9694 550.15,168.1294 563.5,152.1094 C588.84,121.6994 688.8007,102.7095 758.5007,92.7095" fill="none" id="RedisMQ-to-APIServer" style="stroke:#181818;stroke-width:1;"/><polygon fill="#181818" points="763.45,91.9994,753.9732,89.3181,758.5007,92.7095,755.1093,97.237,763.45,91.9994" style="stroke:#181818;stroke-width:1;stroke-linejoin:miter;stroke-miterlimit:10;"/><text fill="#000000" font-family="sans-serif" font-size="13" lengthAdjust="spacing" textLength="88.8672" x="564.5" y="166.6045">delivers reports</text></g><!--link APIServer to WebSocketChannel--><g class="link" data-entity-1="ent0005" data-entity-2="ent0009" data-link-type="dependency" data-source-line="36" id="lnk19"><path d="M829.39,102.2594 C836.61,171.5994 861.892,414.3263 869.102,483.5463" fill="none" id="APIServer-to-WebSocketChannel" style="stroke:#181818;stroke-width:1;"/><polygon fill="#181818" points="869.62,488.5194,872.6661,479.1534,869.102,483.5463,864.7091,479.9822,869.62,488.5194" style="stroke:#181818;stroke-width:1;stroke-linejoin:miter;stroke-miterlimit:10;"/><text fill="#000000" font-family="sans-serif" font-size="13" lengthAdjust="spacing" textLength="80.9326" x="850.5" y="291.6045">emits updates</text></g><!--link APIServer to ConfigStore--><g class="link" data-entity-1="ent0005" data-entity-2="ent0012" data-link-type="dependency" data-source-line="37" id="lnk20"><path d="M861.88,102.2594 C876.28,109.2794 893.39,116.8594 909.5,122.1094 C974.56,143.3094 996.22,128.6594 1060.5,152.1094 C1093.99,164.3294 1125.0272,181.724 1150.0472,197.324" fill="none" id="APIServer-to-ConfigStore" style="stroke:#181818;stroke-width:1;"/><polygon fill="#181818" points="1154.29,199.9694,1148.7692,191.8133,1150.0472,197.324,1144.5365,198.6019,1154.29,199.9694" style="stroke:#181818;stroke-width:1;stroke-linejoin:miter;stroke-miterlimit:10;"/><text fill="#000000" font-family="sans-serif" font-size="13" lengthAdjust="spacing" textLength="70.8208" x="1102.5" y="166.6045">reads config</text></g><!--link ConsumerThread to RedisMQ--><g class="link" data-entity-1="ent0007" data-entity-2="ent0006" data-link-type="dependency" data-source-line="39" id="lnk21"><path d="M287.6,343.5894 C320.95,325.7394 374.12,298.1094 421.5,277.1094 C454.8,262.3494 488.9484,249.4008 516.7484,239.3408" fill="none" id="ConsumerThread-to-RedisMQ" style="stroke:#181818;stroke-width:1;"/><polygon fill="#181818" points="521.45,237.6394,511.626,236.9406,516.7484,239.3408,514.3482,244.4632,521.45,237.6394" style="stroke:#181818;stroke-width:1;stroke-linejoin:miter;stroke-miterlimit:10;"/><text fill="#000000" font-family="sans-serif" font-size="13" lengthAdjust="spacing" textLength="83.0908" x="422.5" y="291.6045">listens for jobs</text></g><!--link ConsumerThread to RedisMQ--><g class="link" data-entity-1="ent0007" data-entity-2="ent0006" data-link-type="dependency" data-source-line="41" id="lnk23"><path d="M312.47,343.5394 C332.93,337.3994 356.16,330.6794 377.5,325.1094 C436.13,309.8194 460.4,329.1994 510.5,295.1094 C531.56,280.7794 543.9498,258.4442 551.1498,242.3342" fill="none" id="ConsumerThread-to-RedisMQ-1" style="stroke:#181818;stroke-width:1;"/><polygon fill="#181818" points="553.19,237.7694,545.8659,244.354,551.1498,242.3342,553.1696,247.6182,553.19,237.7694" style="stroke:#181818;stroke-width:1;stroke-linejoin:miter;stroke-miterlimit:10;"/><text fill="#000000" font-family="sans-serif" font-size="13" lengthAdjust="spacing" textLength="82.3608" x="530.5" y="291.6045">reports results</text></g><!--link RedisMQ to ConsumerThread--><g class="link" data-entity-1="ent0006" data-entity-2="ent0007" data-link-type="dependency" data-source-line="44" id="lnk25"><path d="M477.33,233.8694 C413.19,242.5194 330.03,257.1094 302.5,277.1094 C279.98,293.4694 268.1725,319.1099 261.4725,338.6399" fill="none" id="RedisMQ-to-ConsumerThread" style="stroke:#181818;stroke-width:1;"/><polygon fill="#181818" points="259.85,343.3694,266.554,336.1544,261.4725,338.6399,258.9869,333.5584,259.85,343.3694" style="stroke:#181818;stroke-width:1;stroke-linejoin:miter;stroke-miterlimit:10;"/><text fill="#000000" font-family="sans-serif" font-size="13" lengthAdjust="spacing" textLength="72.2554" x="303.5" y="291.6045">delivers jobs</text></g><!--link ConsumerThread to SquatM3Engine--><g class="link" data-entity-1="ent0007" data-entity-2="ent0008" data-link-type="dependency" data-source-line="40" id="lnk22"><path d="M276.79,381.7194 C307.31,406.5194 358.47,448.0757 393.73,476.7357" fill="none" id="ConsumerThread-to-SquatM3Engine" style="stroke:#181818;stroke-width:1;"/><polygon fill="#181818" points="397.61,479.8894,393.149,471.1087,393.73,476.7357,388.1031,477.3167,397.61,479.8894" style="stroke:#181818;stroke-width:1;stroke-linejoin:miter;stroke-miterlimit:10;"/><text fill="#000000" font-family="sans-serif" font-size="13" lengthAdjust="spacing" textLength="52.0317" x="359.5" y="444.6045">executes</text></g><!--link ConsumerThread to WebSocketChannel--><g class="link" data-entity-1="ent0007" data-entity-2="ent0009" data-link-type="dependency" data-source-line="42" id="lnk24"><path d="M311.14,381.6694 C331.89,387.9494 355.65,394.7594 377.5,400.1094 C554.28,443.3794 602.98,433.7794 779.5,478.1094 C791.66,481.1594 799.8174,483.4211 812.0174,487.1411" fill="none" id="ConsumerThread-to-WebSocketChannel" style="stroke:#181818;stroke-width:1;"/><polygon fill="#181818" points="816.8,488.5994,809.3579,482.1483,812.0174,487.1411,807.0247,489.8005,816.8,488.5994" style="stroke:#181818;stroke-width:1;stroke-linejoin:miter;stroke-miterlimit:10;"/><text fill="#000000" font-family="sans-serif" font-size="13" lengthAdjust="spacing" textLength="99.7217" x="635.5" y="444.6045">forwards updates</text></g><!--link WebSocketChannel to WebUser--><g class="link" data-entity-1="ent0009" data-entity-2="ent0001" data-link-type="dependency" data-source-line="47" id="lnk27"><path d="M831.99,526.6194 C768.26,555.6694 648.5898,610.226 590.4598,636.716" fill="none" id="WebSocketChannel-to-WebUser" style="stroke:#181818;stroke-width:1;"/><polygon fill="#181818" points="585.91,638.7894,595.7584,638.6972,590.4598,636.716,592.441,631.4174,585.91,638.7894" style="stroke:#181818;stroke-width:1;stroke-linejoin:miter;stroke-miterlimit:10;"/><text fill="#000000" font-family="sans-serif" font-size="13" lengthAdjust="spacing" textLength="100.439" x="742.5" y="581.6045">real-time updates</text></g><!--link WebSocketChannel to ClientApp--><g class="link" data-entity-1="ent0009" data-entity-2="ent0002" data-link-type="dependency" data-source-line="48" id="lnk28"><path d="M883.96,526.6194 C899.2,548.6294 922.5439,582.3785 942.3239,610.9485" fill="none" id="WebSocketChannel-to-ClientApp" style="stroke:#181818;stroke-width:1;"/><polygon fill="#181818" points="945.17,615.0594,943.3357,605.3828,942.3239,610.9485,936.7582,609.9366,945.17,615.0594" style="stroke:#181818;stroke-width:1;stroke-linejoin:miter;stroke-miterlimit:10;"/><text fill="#000000" font-family="sans-serif" font-size="13" lengthAdjust="spacing" textLength="83.8335" x="922.5" y="581.6045">async updates</text></g><!--link SquatM3Engine to GoDaddyAPI--><g class="link" data-entity-1="ent0008" data-entity-2="ent0010" data-link-type="dependency" data-source-line="50" id="lnk29"><path d="M420.53,535.1894 C413.85,550.7894 403.99,570.2894 391.5,585.1094 C374.6,605.1694 354.8962,620.036 335.8362,632.286" fill="none" id="SquatM3Engine-to-GoDaddyAPI" style="stroke:#181818;stroke-width:1;"/><polygon fill="#181818" points="331.63,634.9894,341.3638,633.4883,335.8362,632.286,337.0384,626.7584,331.63,634.9894" style="stroke:#181818;stroke-width:1;stroke-linejoin:miter;stroke-miterlimit:10;"/><text fill="#000000" font-family="sans-serif" font-size="13" lengthAdjust="spacing" textLength="89.6099" x="405.5" y="581.6045">optional checks</text></g><!--link GoDaddyAPI to SquatM3Engine--><g class="link" data-entity-1="ent0010" data-entity-2="ent0008" data-link-type="dependency" data-source-line="51" id="lnk30"><path d="M292.95,635.0294 C286.48,616.4194 280.13,587.3594 293.5,567.1094 C303.76,551.5694 314.6216,542.3929 331.3516,533.9929" fill="none" id="GoDaddyAPI-to-SquatM3Engine" style="stroke:#181818;stroke-width:1;"/><polygon fill="#181818" points="335.82,531.7494,325.9821,532.213,331.3516,533.9929,329.5717,539.3625,335.82,531.7494" style="stroke:#181818;stroke-width:1;stroke-linejoin:miter;stroke-miterlimit:10;"/><text fill="#000000" font-family="sans-serif" font-size="13" lengthAdjust="spacing" textLength="88.8862" x="294.5" y="581.6045">availability data</text></g><!--link RedisMQ to GMN40--><g class="link" data-entity-1="ent0006" data-entity-2="ent0041" data-link-type="association" data-source-line="74" id="lnk42"><path d="M583.45,237.7494 C600.67,247.4394 623.6,261.5794 641.5,277.1094 C667.56,299.7194 692.38,332.0194 704.95,349.4094" fill="none" id="RedisMQ-GMN40" style="stroke:#181818;stroke-width:1;stroke-dasharray:7,7;"/></g><?plantuml-src VLNBTjem4DthAwOi-bZGJNPPz1m2DA4d11AJqqqtmXwCYYqvaap3ttVqyFFGRa8ySpMwCtDz_I73Wv08BylvRlPq_xW4ZQdbCY-GVOYvnMmtkvibIyYuvNjkkippw_9r2MyrrbrilbblDq_BfnsaggoKH6aPiy8M2CbRpMrvatEhD2GNOx64cKwFmjATjKR6p4d8YcjUTeSJUw6Z7Ils2MOf5J2Ckn-O_CGzl1hK4-06wC7zt-JcXQ0ICAkgGgJS2YKzAeGfsk0s5Mh7ocUR1tVLcWi9yuQBOTsSmhshN_Apa1c-VptQilZISbZraG-xtHPcsnKagC-HA3s69nQ6E7d1J1XOep4yfycwcNgWZw-V-_NkU7hAjQfbHjIagKlKi3jgv5deBiP2g7zmeKhNpprAro5D0vOofwLH4oRi1aozhxHAYKPenkziVHDme_OJbPxGmlp8fSIYwJr4Ox1_ubujU9PT_2HMqcAkkut47ANSr1SaD4Xe1MXOgxv9GgGSPvy8v4B41tf06i11v7LiiOE7U43JBIzOU8GvYigmg1oOJh-53S8jyDGDWaYqWl7fTdS4ISEm3MjKun6zcmB6yo4K2wN7LMZgfR26P4ulao6TTKa7xVT9w99BqeW14y9ZT5GC0QjwNmXp9EXljH_3ngiYF7eITKKlEexXmvQSianiZB6XuaOaY855QU10i_4qhg07AdD4tZ6j7OV_LjPOAUsdPkh2NWLVQP9u_E4ww_faJSNOPh_6BMHO29f1764VsbzWYugS_AA7DpV2Clu0LI-cLfJOqhXwe1CUgT5SPDgn7ixCWRkNYD2gSjhc1QH7J4-6zPBN9ixFN1HyBmfXBzxe6PFAal6A_6X17Ng61J251owpWdJbhQrLhSkin-9qmUr0Y61LsABFBRteEZjf6aIoDqTXJ6HaRwx4OvHOKpVioXUFGeB6tp0OcSkz3EK3Py5xjButCg6YBRb_aXhQf3iVJPQkpeBhdhaMNCOf9NKLBY_fQb7H5uvRIxOEzb9XW6oQ1JQ-AJhF7FFOAsjLwOWqdmk07seVFYFmCROgPDwOzRY0LPKxtRDXw0Z41WOIYQe2-lIwigt5PP3I7zAiu4LlXty1?></g></svg>